%TF.GenerationSoftware,KiCad,Pcbnew,7.0.7*%
%TF.CreationDate,2024-03-11T11:39:52-07:00*%
%TF.ProjectId,DC32_Cassette_SAO,44433332-5f43-4617-9373-657474655f53,rev?*%
%TF.SameCoordinates,Original*%
%TF.FileFunction,Legend,Top*%
%TF.FilePolarity,Positive*%
%FSLAX46Y46*%
G04 Gerber Fmt 4.6, Leading zero omitted, Abs format (unit mm)*
G04 Created by KiCad (PCBNEW 7.0.7) date 2024-03-11 11:39:52*
%MOMM*%
%LPD*%
G01*
G04 APERTURE LIST*
%ADD10C,0.150000*%
%ADD11C,0.300000*%
%ADD12C,0.120000*%
G04 APERTURE END LIST*
D10*
X135991905Y-92914819D02*
X135991905Y-91914819D01*
X135991905Y-91914819D02*
X136230000Y-91914819D01*
X136230000Y-91914819D02*
X136372857Y-91962438D01*
X136372857Y-91962438D02*
X136468095Y-92057676D01*
X136468095Y-92057676D02*
X136515714Y-92152914D01*
X136515714Y-92152914D02*
X136563333Y-92343390D01*
X136563333Y-92343390D02*
X136563333Y-92486247D01*
X136563333Y-92486247D02*
X136515714Y-92676723D01*
X136515714Y-92676723D02*
X136468095Y-92771961D01*
X136468095Y-92771961D02*
X136372857Y-92867200D01*
X136372857Y-92867200D02*
X136230000Y-92914819D01*
X136230000Y-92914819D02*
X135991905Y-92914819D01*
X136896667Y-91914819D02*
X137515714Y-91914819D01*
X137515714Y-91914819D02*
X137182381Y-92295771D01*
X137182381Y-92295771D02*
X137325238Y-92295771D01*
X137325238Y-92295771D02*
X137420476Y-92343390D01*
X137420476Y-92343390D02*
X137468095Y-92391009D01*
X137468095Y-92391009D02*
X137515714Y-92486247D01*
X137515714Y-92486247D02*
X137515714Y-92724342D01*
X137515714Y-92724342D02*
X137468095Y-92819580D01*
X137468095Y-92819580D02*
X137420476Y-92867200D01*
X137420476Y-92867200D02*
X137325238Y-92914819D01*
X137325238Y-92914819D02*
X137039524Y-92914819D01*
X137039524Y-92914819D02*
X136944286Y-92867200D01*
X136944286Y-92867200D02*
X136896667Y-92819580D01*
X167509126Y-95968070D02*
X168328278Y-95394494D01*
X168328278Y-95394494D02*
X168464844Y-95589530D01*
X168464844Y-95589530D02*
X168507776Y-95733865D01*
X168507776Y-95733865D02*
X168484388Y-95866506D01*
X168484388Y-95866506D02*
X168433686Y-95960139D01*
X168433686Y-95960139D02*
X168304971Y-96108399D01*
X168304971Y-96108399D02*
X168187949Y-96190339D01*
X168187949Y-96190339D02*
X168004607Y-96260584D01*
X168004607Y-96260584D02*
X167899279Y-96276203D01*
X167899279Y-96276203D02*
X167766638Y-96252815D01*
X167766638Y-96252815D02*
X167645692Y-96163107D01*
X167645692Y-96163107D02*
X167509126Y-95968070D01*
X168383147Y-97216302D02*
X168055389Y-96748215D01*
X168219268Y-96982259D02*
X169038420Y-96408682D01*
X169038420Y-96408682D02*
X168866772Y-96412607D01*
X168866772Y-96412607D02*
X168734131Y-96389219D01*
X168734131Y-96389219D02*
X168640498Y-96338518D01*
X169342790Y-97009410D02*
X169409110Y-97021104D01*
X169409110Y-97021104D02*
X169502744Y-97071805D01*
X169502744Y-97071805D02*
X169639310Y-97266841D01*
X169639310Y-97266841D02*
X169654929Y-97372169D01*
X169654929Y-97372169D02*
X169643235Y-97438490D01*
X169643235Y-97438490D02*
X169592533Y-97532123D01*
X169592533Y-97532123D02*
X169514519Y-97586749D01*
X169514519Y-97586749D02*
X169370184Y-97629682D01*
X169370184Y-97629682D02*
X168574339Y-97489353D01*
X168574339Y-97489353D02*
X168929410Y-97996447D01*
X148756905Y-105494819D02*
X148756905Y-104494819D01*
X148756905Y-104494819D02*
X148995000Y-104494819D01*
X148995000Y-104494819D02*
X149137857Y-104542438D01*
X149137857Y-104542438D02*
X149233095Y-104637676D01*
X149233095Y-104637676D02*
X149280714Y-104732914D01*
X149280714Y-104732914D02*
X149328333Y-104923390D01*
X149328333Y-104923390D02*
X149328333Y-105066247D01*
X149328333Y-105066247D02*
X149280714Y-105256723D01*
X149280714Y-105256723D02*
X149233095Y-105351961D01*
X149233095Y-105351961D02*
X149137857Y-105447200D01*
X149137857Y-105447200D02*
X148995000Y-105494819D01*
X148995000Y-105494819D02*
X148756905Y-105494819D01*
X149899762Y-104923390D02*
X149804524Y-104875771D01*
X149804524Y-104875771D02*
X149756905Y-104828152D01*
X149756905Y-104828152D02*
X149709286Y-104732914D01*
X149709286Y-104732914D02*
X149709286Y-104685295D01*
X149709286Y-104685295D02*
X149756905Y-104590057D01*
X149756905Y-104590057D02*
X149804524Y-104542438D01*
X149804524Y-104542438D02*
X149899762Y-104494819D01*
X149899762Y-104494819D02*
X150090238Y-104494819D01*
X150090238Y-104494819D02*
X150185476Y-104542438D01*
X150185476Y-104542438D02*
X150233095Y-104590057D01*
X150233095Y-104590057D02*
X150280714Y-104685295D01*
X150280714Y-104685295D02*
X150280714Y-104732914D01*
X150280714Y-104732914D02*
X150233095Y-104828152D01*
X150233095Y-104828152D02*
X150185476Y-104875771D01*
X150185476Y-104875771D02*
X150090238Y-104923390D01*
X150090238Y-104923390D02*
X149899762Y-104923390D01*
X149899762Y-104923390D02*
X149804524Y-104971009D01*
X149804524Y-104971009D02*
X149756905Y-105018628D01*
X149756905Y-105018628D02*
X149709286Y-105113866D01*
X149709286Y-105113866D02*
X149709286Y-105304342D01*
X149709286Y-105304342D02*
X149756905Y-105399580D01*
X149756905Y-105399580D02*
X149804524Y-105447200D01*
X149804524Y-105447200D02*
X149899762Y-105494819D01*
X149899762Y-105494819D02*
X150090238Y-105494819D01*
X150090238Y-105494819D02*
X150185476Y-105447200D01*
X150185476Y-105447200D02*
X150233095Y-105399580D01*
X150233095Y-105399580D02*
X150280714Y-105304342D01*
X150280714Y-105304342D02*
X150280714Y-105113866D01*
X150280714Y-105113866D02*
X150233095Y-105018628D01*
X150233095Y-105018628D02*
X150185476Y-104971009D01*
X150185476Y-104971009D02*
X150090238Y-104923390D01*
X130125902Y-100454379D02*
X130945054Y-99880803D01*
X130945054Y-99880803D02*
X131081620Y-100075839D01*
X131081620Y-100075839D02*
X131124552Y-100220174D01*
X131124552Y-100220174D02*
X131101164Y-100352815D01*
X131101164Y-100352815D02*
X131050462Y-100446448D01*
X131050462Y-100446448D02*
X130921747Y-100594708D01*
X130921747Y-100594708D02*
X130804725Y-100676648D01*
X130804725Y-100676648D02*
X130621383Y-100746893D01*
X130621383Y-100746893D02*
X130516055Y-100762512D01*
X130516055Y-100762512D02*
X130383414Y-100739124D01*
X130383414Y-100739124D02*
X130262468Y-100649415D01*
X130262468Y-100649415D02*
X130125902Y-100454379D01*
X131791762Y-101090027D02*
X131518630Y-100699955D01*
X131518630Y-100699955D02*
X131101245Y-100934079D01*
X131101245Y-100934079D02*
X131167565Y-100945773D01*
X131167565Y-100945773D02*
X131261199Y-100996475D01*
X131261199Y-100996475D02*
X131397764Y-101191511D01*
X131397764Y-101191511D02*
X131413384Y-101296838D01*
X131413384Y-101296838D02*
X131401689Y-101363159D01*
X131401689Y-101363159D02*
X131350988Y-101456792D01*
X131350988Y-101456792D02*
X131155952Y-101593358D01*
X131155952Y-101593358D02*
X131050624Y-101608977D01*
X131050624Y-101608977D02*
X130984304Y-101597283D01*
X130984304Y-101597283D02*
X130890670Y-101546582D01*
X130890670Y-101546582D02*
X130754105Y-101351546D01*
X130754105Y-101351546D02*
X130738485Y-101246218D01*
X130738485Y-101246218D02*
X130750180Y-101179898D01*
X158872328Y-96949248D02*
X158053176Y-96375671D01*
X158053176Y-96375671D02*
X158189742Y-96180635D01*
X158189742Y-96180635D02*
X158310688Y-96090926D01*
X158310688Y-96090926D02*
X158443329Y-96067538D01*
X158443329Y-96067538D02*
X158548657Y-96083157D01*
X158548657Y-96083157D02*
X158731999Y-96153403D01*
X158731999Y-96153403D02*
X158849021Y-96235342D01*
X158849021Y-96235342D02*
X158977736Y-96383602D01*
X158977736Y-96383602D02*
X159028438Y-96477236D01*
X159028438Y-96477236D02*
X159051826Y-96609877D01*
X159051826Y-96609877D02*
X159008894Y-96754211D01*
X159008894Y-96754211D02*
X158872328Y-96949248D01*
X159746349Y-95701016D02*
X159418591Y-96169103D01*
X159582470Y-95935059D02*
X158763318Y-95361483D01*
X158763318Y-95361483D02*
X158825713Y-95521437D01*
X158825713Y-95521437D02*
X158849102Y-95654078D01*
X158849102Y-95654078D02*
X158833482Y-95759405D01*
X159691885Y-94616501D02*
X160237986Y-94998886D01*
X159243261Y-94593032D02*
X159691804Y-95197766D01*
X159691804Y-95197766D02*
X160046875Y-94690672D01*
X133256905Y-105494819D02*
X133256905Y-104494819D01*
X133256905Y-104494819D02*
X133495000Y-104494819D01*
X133495000Y-104494819D02*
X133637857Y-104542438D01*
X133637857Y-104542438D02*
X133733095Y-104637676D01*
X133733095Y-104637676D02*
X133780714Y-104732914D01*
X133780714Y-104732914D02*
X133828333Y-104923390D01*
X133828333Y-104923390D02*
X133828333Y-105066247D01*
X133828333Y-105066247D02*
X133780714Y-105256723D01*
X133780714Y-105256723D02*
X133733095Y-105351961D01*
X133733095Y-105351961D02*
X133637857Y-105447200D01*
X133637857Y-105447200D02*
X133495000Y-105494819D01*
X133495000Y-105494819D02*
X133256905Y-105494819D01*
X134685476Y-104494819D02*
X134495000Y-104494819D01*
X134495000Y-104494819D02*
X134399762Y-104542438D01*
X134399762Y-104542438D02*
X134352143Y-104590057D01*
X134352143Y-104590057D02*
X134256905Y-104732914D01*
X134256905Y-104732914D02*
X134209286Y-104923390D01*
X134209286Y-104923390D02*
X134209286Y-105304342D01*
X134209286Y-105304342D02*
X134256905Y-105399580D01*
X134256905Y-105399580D02*
X134304524Y-105447200D01*
X134304524Y-105447200D02*
X134399762Y-105494819D01*
X134399762Y-105494819D02*
X134590238Y-105494819D01*
X134590238Y-105494819D02*
X134685476Y-105447200D01*
X134685476Y-105447200D02*
X134733095Y-105399580D01*
X134733095Y-105399580D02*
X134780714Y-105304342D01*
X134780714Y-105304342D02*
X134780714Y-105066247D01*
X134780714Y-105066247D02*
X134733095Y-104971009D01*
X134733095Y-104971009D02*
X134685476Y-104923390D01*
X134685476Y-104923390D02*
X134590238Y-104875771D01*
X134590238Y-104875771D02*
X134399762Y-104875771D01*
X134399762Y-104875771D02*
X134304524Y-104923390D01*
X134304524Y-104923390D02*
X134256905Y-104971009D01*
X134256905Y-104971009D02*
X134209286Y-105066247D01*
X131376770Y-96059175D02*
X130557618Y-95485598D01*
X130557618Y-95485598D02*
X130694183Y-95290562D01*
X130694183Y-95290562D02*
X130815130Y-95200854D01*
X130815130Y-95200854D02*
X130947771Y-95177465D01*
X130947771Y-95177465D02*
X131053099Y-95193085D01*
X131053099Y-95193085D02*
X131236441Y-95263330D01*
X131236441Y-95263330D02*
X131353462Y-95345269D01*
X131353462Y-95345269D02*
X131482178Y-95493529D01*
X131482178Y-95493529D02*
X131532880Y-95587163D01*
X131532880Y-95587163D02*
X131556268Y-95719804D01*
X131556268Y-95719804D02*
X131513336Y-95864139D01*
X131513336Y-95864139D02*
X131376770Y-96059175D01*
X131650063Y-94506573D02*
X132196165Y-94888958D01*
X131201439Y-94483104D02*
X131649982Y-95087838D01*
X131649982Y-95087838D02*
X132005053Y-94580744D01*
X167479832Y-103017449D02*
X166660680Y-102443872D01*
X166660680Y-102443872D02*
X166797246Y-102248836D01*
X166797246Y-102248836D02*
X166918192Y-102159127D01*
X166918192Y-102159127D02*
X167050833Y-102135739D01*
X167050833Y-102135739D02*
X167156161Y-102151358D01*
X167156161Y-102151358D02*
X167339503Y-102221604D01*
X167339503Y-102221604D02*
X167456525Y-102303543D01*
X167456525Y-102303543D02*
X167585240Y-102451803D01*
X167585240Y-102451803D02*
X167635942Y-102545437D01*
X167635942Y-102545437D02*
X167659330Y-102678078D01*
X167659330Y-102678078D02*
X167616398Y-102822412D01*
X167616398Y-102822412D02*
X167479832Y-103017449D01*
X168353853Y-101769217D02*
X168026095Y-102237304D01*
X168189974Y-102003260D02*
X167370822Y-101429684D01*
X167370822Y-101429684D02*
X167433217Y-101589638D01*
X167433217Y-101589638D02*
X167456606Y-101722279D01*
X167456606Y-101722279D02*
X167440986Y-101827606D01*
X168900116Y-100989072D02*
X168572358Y-101457159D01*
X168736237Y-101223116D02*
X167917085Y-100649539D01*
X167917085Y-100649539D02*
X167979481Y-100809493D01*
X167979481Y-100809493D02*
X168002869Y-100942134D01*
X168002869Y-100942134D02*
X167987250Y-101047462D01*
X155756905Y-105494819D02*
X155756905Y-104494819D01*
X155756905Y-104494819D02*
X155995000Y-104494819D01*
X155995000Y-104494819D02*
X156137857Y-104542438D01*
X156137857Y-104542438D02*
X156233095Y-104637676D01*
X156233095Y-104637676D02*
X156280714Y-104732914D01*
X156280714Y-104732914D02*
X156328333Y-104923390D01*
X156328333Y-104923390D02*
X156328333Y-105066247D01*
X156328333Y-105066247D02*
X156280714Y-105256723D01*
X156280714Y-105256723D02*
X156233095Y-105351961D01*
X156233095Y-105351961D02*
X156137857Y-105447200D01*
X156137857Y-105447200D02*
X155995000Y-105494819D01*
X155995000Y-105494819D02*
X155756905Y-105494819D01*
X156804524Y-105494819D02*
X156995000Y-105494819D01*
X156995000Y-105494819D02*
X157090238Y-105447200D01*
X157090238Y-105447200D02*
X157137857Y-105399580D01*
X157137857Y-105399580D02*
X157233095Y-105256723D01*
X157233095Y-105256723D02*
X157280714Y-105066247D01*
X157280714Y-105066247D02*
X157280714Y-104685295D01*
X157280714Y-104685295D02*
X157233095Y-104590057D01*
X157233095Y-104590057D02*
X157185476Y-104542438D01*
X157185476Y-104542438D02*
X157090238Y-104494819D01*
X157090238Y-104494819D02*
X156899762Y-104494819D01*
X156899762Y-104494819D02*
X156804524Y-104542438D01*
X156804524Y-104542438D02*
X156756905Y-104590057D01*
X156756905Y-104590057D02*
X156709286Y-104685295D01*
X156709286Y-104685295D02*
X156709286Y-104923390D01*
X156709286Y-104923390D02*
X156756905Y-105018628D01*
X156756905Y-105018628D02*
X156804524Y-105066247D01*
X156804524Y-105066247D02*
X156899762Y-105113866D01*
X156899762Y-105113866D02*
X157090238Y-105113866D01*
X157090238Y-105113866D02*
X157185476Y-105066247D01*
X157185476Y-105066247D02*
X157233095Y-105018628D01*
X157233095Y-105018628D02*
X157280714Y-104923390D01*
X162290714Y-93914819D02*
X162290714Y-92914819D01*
X162290714Y-92914819D02*
X162528809Y-92914819D01*
X162528809Y-92914819D02*
X162671666Y-92962438D01*
X162671666Y-92962438D02*
X162766904Y-93057676D01*
X162766904Y-93057676D02*
X162814523Y-93152914D01*
X162814523Y-93152914D02*
X162862142Y-93343390D01*
X162862142Y-93343390D02*
X162862142Y-93486247D01*
X162862142Y-93486247D02*
X162814523Y-93676723D01*
X162814523Y-93676723D02*
X162766904Y-93771961D01*
X162766904Y-93771961D02*
X162671666Y-93867200D01*
X162671666Y-93867200D02*
X162528809Y-93914819D01*
X162528809Y-93914819D02*
X162290714Y-93914819D01*
X163814523Y-93914819D02*
X163243095Y-93914819D01*
X163528809Y-93914819D02*
X163528809Y-92914819D01*
X163528809Y-92914819D02*
X163433571Y-93057676D01*
X163433571Y-93057676D02*
X163338333Y-93152914D01*
X163338333Y-93152914D02*
X163243095Y-93200533D01*
X164147857Y-92914819D02*
X164766904Y-92914819D01*
X164766904Y-92914819D02*
X164433571Y-93295771D01*
X164433571Y-93295771D02*
X164576428Y-93295771D01*
X164576428Y-93295771D02*
X164671666Y-93343390D01*
X164671666Y-93343390D02*
X164719285Y-93391009D01*
X164719285Y-93391009D02*
X164766904Y-93486247D01*
X164766904Y-93486247D02*
X164766904Y-93724342D01*
X164766904Y-93724342D02*
X164719285Y-93819580D01*
X164719285Y-93819580D02*
X164671666Y-93867200D01*
X164671666Y-93867200D02*
X164576428Y-93914819D01*
X164576428Y-93914819D02*
X164290714Y-93914819D01*
X164290714Y-93914819D02*
X164195476Y-93867200D01*
X164195476Y-93867200D02*
X164147857Y-93819580D01*
D11*
X148678572Y-99249757D02*
X148535715Y-99178328D01*
X148535715Y-99178328D02*
X148321429Y-99178328D01*
X148321429Y-99178328D02*
X148107143Y-99249757D01*
X148107143Y-99249757D02*
X147964286Y-99392614D01*
X147964286Y-99392614D02*
X147892857Y-99535471D01*
X147892857Y-99535471D02*
X147821429Y-99821185D01*
X147821429Y-99821185D02*
X147821429Y-100035471D01*
X147821429Y-100035471D02*
X147892857Y-100321185D01*
X147892857Y-100321185D02*
X147964286Y-100464042D01*
X147964286Y-100464042D02*
X148107143Y-100606900D01*
X148107143Y-100606900D02*
X148321429Y-100678328D01*
X148321429Y-100678328D02*
X148464286Y-100678328D01*
X148464286Y-100678328D02*
X148678572Y-100606900D01*
X148678572Y-100606900D02*
X148750000Y-100535471D01*
X148750000Y-100535471D02*
X148750000Y-100035471D01*
X148750000Y-100035471D02*
X148464286Y-100035471D01*
X149607143Y-99178328D02*
X149607143Y-99535471D01*
X149250000Y-99392614D02*
X149607143Y-99535471D01*
X149607143Y-99535471D02*
X149964286Y-99392614D01*
X149392857Y-99821185D02*
X149607143Y-99535471D01*
X149607143Y-99535471D02*
X149821429Y-99821185D01*
X150750000Y-99178328D02*
X150750000Y-99535471D01*
X150392857Y-99392614D02*
X150750000Y-99535471D01*
X150750000Y-99535471D02*
X151107143Y-99392614D01*
X150535714Y-99821185D02*
X150750000Y-99535471D01*
X150750000Y-99535471D02*
X150964286Y-99821185D01*
X151892857Y-99178328D02*
X151892857Y-99535471D01*
X151535714Y-99392614D02*
X151892857Y-99535471D01*
X151892857Y-99535471D02*
X152250000Y-99392614D01*
X151678571Y-99821185D02*
X151892857Y-99535471D01*
X151892857Y-99535471D02*
X152107143Y-99821185D01*
D10*
X141256905Y-105494819D02*
X141256905Y-104494819D01*
X141256905Y-104494819D02*
X141495000Y-104494819D01*
X141495000Y-104494819D02*
X141637857Y-104542438D01*
X141637857Y-104542438D02*
X141733095Y-104637676D01*
X141733095Y-104637676D02*
X141780714Y-104732914D01*
X141780714Y-104732914D02*
X141828333Y-104923390D01*
X141828333Y-104923390D02*
X141828333Y-105066247D01*
X141828333Y-105066247D02*
X141780714Y-105256723D01*
X141780714Y-105256723D02*
X141733095Y-105351961D01*
X141733095Y-105351961D02*
X141637857Y-105447200D01*
X141637857Y-105447200D02*
X141495000Y-105494819D01*
X141495000Y-105494819D02*
X141256905Y-105494819D01*
X142161667Y-104494819D02*
X142828333Y-104494819D01*
X142828333Y-104494819D02*
X142399762Y-105494819D01*
X141782258Y-94358143D02*
X142601410Y-93784567D01*
X142601410Y-93784567D02*
X142737976Y-93979603D01*
X142737976Y-93979603D02*
X142780908Y-94123938D01*
X142780908Y-94123938D02*
X142757520Y-94256579D01*
X142757520Y-94256579D02*
X142706818Y-94350212D01*
X142706818Y-94350212D02*
X142578103Y-94498472D01*
X142578103Y-94498472D02*
X142461081Y-94580412D01*
X142461081Y-94580412D02*
X142277739Y-94650657D01*
X142277739Y-94650657D02*
X142172411Y-94666276D01*
X142172411Y-94666276D02*
X142039770Y-94642888D01*
X142039770Y-94642888D02*
X141918824Y-94553179D01*
X141918824Y-94553179D02*
X141782258Y-94358143D01*
X143069659Y-94619338D02*
X143135979Y-94631032D01*
X143135979Y-94631032D02*
X143229613Y-94681733D01*
X143229613Y-94681733D02*
X143366178Y-94876769D01*
X143366178Y-94876769D02*
X143381797Y-94982097D01*
X143381797Y-94982097D02*
X143370103Y-95048417D01*
X143370103Y-95048417D02*
X143319402Y-95142051D01*
X143319402Y-95142051D02*
X143241388Y-95196677D01*
X143241388Y-95196677D02*
X143097053Y-95239610D01*
X143097053Y-95239610D02*
X142301208Y-95099281D01*
X142301208Y-95099281D02*
X142656279Y-95606375D01*
X143580348Y-101069385D02*
X142614422Y-100810566D01*
X142614422Y-100810566D02*
X142676046Y-100580584D01*
X142676046Y-100580584D02*
X142759016Y-100454919D01*
X142759016Y-100454919D02*
X142875659Y-100387576D01*
X142875659Y-100387576D02*
X142979976Y-100366229D01*
X142979976Y-100366229D02*
X143176287Y-100369531D01*
X143176287Y-100369531D02*
X143314276Y-100406505D01*
X143314276Y-100406505D02*
X143485938Y-100501800D01*
X143485938Y-100501800D02*
X143565606Y-100572446D01*
X143565606Y-100572446D02*
X143632949Y-100689089D01*
X143632949Y-100689089D02*
X143641972Y-100839403D01*
X143641972Y-100839403D02*
X143580348Y-101069385D01*
X143974739Y-99597498D02*
X143826842Y-100149456D01*
X143900791Y-99873477D02*
X142934865Y-99614658D01*
X142934865Y-99614658D02*
X143048205Y-99743625D01*
X143048205Y-99743625D02*
X143115548Y-99860267D01*
X143115548Y-99860267D02*
X143136895Y-99964585D01*
X157584080Y-99564306D02*
X158403232Y-98990730D01*
X158403232Y-98990730D02*
X158539798Y-99185766D01*
X158539798Y-99185766D02*
X158582730Y-99330101D01*
X158582730Y-99330101D02*
X158559342Y-99462742D01*
X158559342Y-99462742D02*
X158508640Y-99556375D01*
X158508640Y-99556375D02*
X158379925Y-99704635D01*
X158379925Y-99704635D02*
X158262903Y-99786575D01*
X158262903Y-99786575D02*
X158079561Y-99856820D01*
X158079561Y-99856820D02*
X157974233Y-99872439D01*
X157974233Y-99872439D02*
X157841592Y-99849051D01*
X157841592Y-99849051D02*
X157720646Y-99759343D01*
X157720646Y-99759343D02*
X157584080Y-99564306D01*
X158458101Y-100812538D02*
X158130343Y-100344451D01*
X158294222Y-100578495D02*
X159113374Y-100004918D01*
X159113374Y-100004918D02*
X158941726Y-100008843D01*
X158941726Y-100008843D02*
X158809085Y-99985455D01*
X158809085Y-99985455D02*
X158715452Y-99934754D01*
X159796203Y-100980099D02*
X159523072Y-100590027D01*
X159523072Y-100590027D02*
X159105686Y-100824151D01*
X159105686Y-100824151D02*
X159172006Y-100835845D01*
X159172006Y-100835845D02*
X159265640Y-100886547D01*
X159265640Y-100886547D02*
X159402206Y-101081583D01*
X159402206Y-101081583D02*
X159417825Y-101186910D01*
X159417825Y-101186910D02*
X159406131Y-101253231D01*
X159406131Y-101253231D02*
X159355430Y-101346864D01*
X159355430Y-101346864D02*
X159160393Y-101483430D01*
X159160393Y-101483430D02*
X159055066Y-101499049D01*
X159055066Y-101499049D02*
X158988745Y-101487355D01*
X158988745Y-101487355D02*
X158895112Y-101436654D01*
X158895112Y-101436654D02*
X158758546Y-101241618D01*
X158758546Y-101241618D02*
X158742927Y-101136290D01*
X158742927Y-101136290D02*
X158754621Y-101069970D01*
X162515714Y-105494819D02*
X162515714Y-104494819D01*
X162515714Y-104494819D02*
X162753809Y-104494819D01*
X162753809Y-104494819D02*
X162896666Y-104542438D01*
X162896666Y-104542438D02*
X162991904Y-104637676D01*
X162991904Y-104637676D02*
X163039523Y-104732914D01*
X163039523Y-104732914D02*
X163087142Y-104923390D01*
X163087142Y-104923390D02*
X163087142Y-105066247D01*
X163087142Y-105066247D02*
X163039523Y-105256723D01*
X163039523Y-105256723D02*
X162991904Y-105351961D01*
X162991904Y-105351961D02*
X162896666Y-105447200D01*
X162896666Y-105447200D02*
X162753809Y-105494819D01*
X162753809Y-105494819D02*
X162515714Y-105494819D01*
X164039523Y-105494819D02*
X163468095Y-105494819D01*
X163753809Y-105494819D02*
X163753809Y-104494819D01*
X163753809Y-104494819D02*
X163658571Y-104637676D01*
X163658571Y-104637676D02*
X163563333Y-104732914D01*
X163563333Y-104732914D02*
X163468095Y-104780533D01*
X164658571Y-104494819D02*
X164753809Y-104494819D01*
X164753809Y-104494819D02*
X164849047Y-104542438D01*
X164849047Y-104542438D02*
X164896666Y-104590057D01*
X164896666Y-104590057D02*
X164944285Y-104685295D01*
X164944285Y-104685295D02*
X164991904Y-104875771D01*
X164991904Y-104875771D02*
X164991904Y-105113866D01*
X164991904Y-105113866D02*
X164944285Y-105304342D01*
X164944285Y-105304342D02*
X164896666Y-105399580D01*
X164896666Y-105399580D02*
X164849047Y-105447200D01*
X164849047Y-105447200D02*
X164753809Y-105494819D01*
X164753809Y-105494819D02*
X164658571Y-105494819D01*
X164658571Y-105494819D02*
X164563333Y-105447200D01*
X164563333Y-105447200D02*
X164515714Y-105399580D01*
X164515714Y-105399580D02*
X164468095Y-105304342D01*
X164468095Y-105304342D02*
X164420476Y-105113866D01*
X164420476Y-105113866D02*
X164420476Y-104875771D01*
X164420476Y-104875771D02*
X164468095Y-104685295D01*
X164468095Y-104685295D02*
X164515714Y-104590057D01*
X164515714Y-104590057D02*
X164563333Y-104542438D01*
X164563333Y-104542438D02*
X164658571Y-104494819D01*
D12*
%TO.C,D3*%
X138290000Y-90736000D02*
X138290000Y-90580000D01*
X138290000Y-88420000D02*
X138290000Y-88264000D01*
X135057666Y-90578608D02*
G75*
G03*
X138289999Y-90735515I1672334J1078608D01*
G01*
X135688871Y-90579836D02*
G75*
G03*
X137770960Y-90579999I1041129J1079836D01*
G01*
X137770960Y-88420001D02*
G75*
G03*
X135688871Y-88420164I-1040960J-1079999D01*
G01*
X138289999Y-88264485D02*
G75*
G03*
X135057666Y-88421392I-1559999J-1235515D01*
G01*
%TO.C,D12*%
X170885175Y-96990914D02*
X171012963Y-96901436D01*
X172782331Y-95662511D02*
X172910119Y-95573033D01*
X169160113Y-94252863D02*
G75*
G03*
X170885572Y-96990635I1842755J-751233D01*
G01*
X169521150Y-94770621D02*
G75*
G03*
X170715254Y-96476264I1481718J-233475D01*
G01*
X172484623Y-95237339D02*
G75*
G03*
X171290251Y-93531883I-1481755J233243D01*
G01*
X172909723Y-95573310D02*
G75*
G03*
X170927200Y-93015535I-1906855J569214D01*
G01*
%TO.C,D8*%
X147935000Y-106764000D02*
X147935000Y-106920000D01*
X147935000Y-109080000D02*
X147935000Y-109236000D01*
X151167334Y-106921392D02*
G75*
G03*
X147935001Y-106764485I-1672334J-1078608D01*
G01*
X150536129Y-106920164D02*
G75*
G03*
X148454040Y-106920001I-1041129J-1079836D01*
G01*
X148454040Y-109079999D02*
G75*
G03*
X150536129Y-109079836I1040960J1079999D01*
G01*
X147935001Y-109235515D02*
G75*
G03*
X151167334Y-109078608I1559999J1235515D01*
G01*
%TO.C,D5*%
X128614825Y-100509086D02*
X128487037Y-100598564D01*
X126717669Y-101837489D02*
X126589881Y-101926967D01*
X130339887Y-103247137D02*
G75*
G03*
X128614428Y-100509365I-1842755J751233D01*
G01*
X129978850Y-102729379D02*
G75*
G03*
X128784746Y-101023736I-1481718J233475D01*
G01*
X127015377Y-102262661D02*
G75*
G03*
X128209749Y-103968117I1481755J-233243D01*
G01*
X126590277Y-101926690D02*
G75*
G03*
X128572800Y-104484465I1906855J-569214D01*
G01*
%TO.C,D14*%
X158678809Y-93426967D02*
X158551021Y-93337489D01*
X156781653Y-92098564D02*
X156653865Y-92009086D01*
X156695890Y-95984465D02*
G75*
G03*
X158678413Y-93426690I75668J1988561D01*
G01*
X157058941Y-95468117D02*
G75*
G03*
X158253313Y-93762661I-287383J1472213D01*
G01*
X156483944Y-92523737D02*
G75*
G03*
X155289841Y-94229379I287614J-1472167D01*
G01*
X156654262Y-92009364D02*
G75*
G03*
X154928802Y-94747137I117296J-1986540D01*
G01*
%TO.C,D6*%
X132435000Y-106764000D02*
X132435000Y-106920000D01*
X132435000Y-109080000D02*
X132435000Y-109236000D01*
X135667334Y-106921392D02*
G75*
G03*
X132435001Y-106764485I-1672334J-1078608D01*
G01*
X135036129Y-106920164D02*
G75*
G03*
X132954040Y-106920001I-1041129J-1079836D01*
G01*
X132954040Y-109079999D02*
G75*
G03*
X135036129Y-109079836I1040960J1079999D01*
G01*
X132435001Y-109235515D02*
G75*
G03*
X135667334Y-109078608I1559999J1235515D01*
G01*
%TO.C,D4*%
X130910119Y-92926967D02*
X130782331Y-92837489D01*
X129012963Y-91598564D02*
X128885175Y-91509086D01*
X128927200Y-95484465D02*
G75*
G03*
X130909723Y-92926690I75668J1988561D01*
G01*
X129290251Y-94968117D02*
G75*
G03*
X130484623Y-93262661I-287383J1472213D01*
G01*
X128715254Y-92023737D02*
G75*
G03*
X127521151Y-93729379I287614J-1472167D01*
G01*
X128885572Y-91509364D02*
G75*
G03*
X127160112Y-94247137I117296J-1986540D01*
G01*
%TO.C,D11*%
X168321191Y-104028614D02*
X168448979Y-104118092D01*
X170218347Y-105357017D02*
X170346135Y-105446495D01*
X170304110Y-101471116D02*
G75*
G03*
X168321587Y-104028891I-75668J-1988561D01*
G01*
X169941059Y-101987464D02*
G75*
G03*
X168746687Y-103692920I287383J-1472213D01*
G01*
X170516056Y-104931844D02*
G75*
G03*
X171710159Y-103226202I-287614J1472167D01*
G01*
X170345738Y-105446217D02*
G75*
G03*
X172071198Y-102708444I-117296J1986540D01*
G01*
%TO.C,D9*%
X154935000Y-106764000D02*
X154935000Y-106920000D01*
X154935000Y-109080000D02*
X154935000Y-109236000D01*
X158167334Y-106921392D02*
G75*
G03*
X154935001Y-106764485I-1672334J-1078608D01*
G01*
X157536129Y-106920164D02*
G75*
G03*
X155454040Y-106920001I-1041129J-1079836D01*
G01*
X155454040Y-109079999D02*
G75*
G03*
X157536129Y-109079836I1040960J1079999D01*
G01*
X154935001Y-109235515D02*
G75*
G03*
X158167334Y-109078608I1559999J1235515D01*
G01*
%TO.C,D13*%
X165065000Y-91736000D02*
X165065000Y-91580000D01*
X165065000Y-89420000D02*
X165065000Y-89264000D01*
X161832666Y-91578608D02*
G75*
G03*
X165064999Y-91735515I1672334J1078608D01*
G01*
X162463871Y-91579836D02*
G75*
G03*
X164545960Y-91579999I1041129J1079836D01*
G01*
X164545960Y-89420001D02*
G75*
G03*
X162463871Y-89420164I-1040960J-1079999D01*
G01*
X165064999Y-89264485D02*
G75*
G03*
X161832666Y-89421392I-1559999J-1235515D01*
G01*
%TO.C,G\u002A\u002A\u002A*%
G36*
X181033200Y-79187517D02*
G01*
X181045311Y-79307612D01*
X181033200Y-79322444D01*
X180973040Y-79308553D01*
X180965737Y-79254980D01*
X181002763Y-79171685D01*
X181033200Y-79187517D01*
G37*
G36*
X118023961Y-103289865D02*
G01*
X118082338Y-103411142D01*
X118068587Y-103447630D01*
X117970897Y-103537360D01*
X117923095Y-103435160D01*
X117921115Y-103384068D01*
X117970904Y-103279841D01*
X118023961Y-103289865D01*
G37*
G36*
X118226352Y-118975124D02*
G01*
X118284728Y-119096401D01*
X118270977Y-119132889D01*
X118173287Y-119222619D01*
X118125485Y-119120419D01*
X118123506Y-119069327D01*
X118173294Y-118965100D01*
X118226352Y-118975124D01*
G37*
G36*
X119041255Y-119990377D02*
G01*
X119130985Y-120088067D01*
X119028785Y-120135869D01*
X118977693Y-120137849D01*
X118873466Y-120088060D01*
X118883490Y-120035003D01*
X119004767Y-119976626D01*
X119041255Y-119990377D01*
G37*
G36*
X128872125Y-114958340D02*
G01*
X128938913Y-115097393D01*
X128873755Y-115196205D01*
X128761233Y-115249954D01*
X128689222Y-115141243D01*
X128666045Y-114952769D01*
X128749897Y-114887577D01*
X128872125Y-114958340D01*
G37*
G36*
X171901611Y-116762330D02*
G01*
X171879789Y-116892211D01*
X171772606Y-116978720D01*
X171671830Y-116949424D01*
X171671411Y-116855313D01*
X171751240Y-116712743D01*
X171807569Y-116691866D01*
X171901611Y-116762330D01*
G37*
G36*
X118651949Y-119596715D02*
G01*
X118674738Y-119623229D01*
X118664640Y-119755535D01*
X118638125Y-119778324D01*
X118505820Y-119768226D01*
X118483031Y-119741711D01*
X118493129Y-119609406D01*
X118519643Y-119586617D01*
X118651949Y-119596715D01*
G37*
G36*
X118695891Y-79620562D02*
G01*
X118680079Y-79659761D01*
X118589145Y-79756300D01*
X118572912Y-79760956D01*
X118529447Y-79682662D01*
X118528287Y-79659761D01*
X118606081Y-79562455D01*
X118635454Y-79558566D01*
X118695891Y-79620562D01*
G37*
G36*
X119031322Y-79230792D02*
G01*
X119034263Y-79254980D01*
X118957256Y-79353235D01*
X118933067Y-79356175D01*
X118834813Y-79279168D01*
X118831872Y-79254980D01*
X118908879Y-79156726D01*
X118933067Y-79153785D01*
X119031322Y-79230792D01*
G37*
G36*
X119436103Y-120214856D02*
G01*
X119439044Y-120239044D01*
X119362037Y-120337298D01*
X119337848Y-120340239D01*
X119239594Y-120263232D01*
X119236653Y-120239044D01*
X119313660Y-120140789D01*
X119337848Y-120137849D01*
X119436103Y-120214856D01*
G37*
G36*
X119840884Y-120214856D02*
G01*
X119843824Y-120239044D01*
X119766817Y-120337298D01*
X119742629Y-120340239D01*
X119644375Y-120263232D01*
X119641434Y-120239044D01*
X119718441Y-120140789D01*
X119742629Y-120137849D01*
X119840884Y-120214856D01*
G37*
G36*
X121257617Y-120214856D02*
G01*
X121260557Y-120239044D01*
X121183550Y-120337298D01*
X121159362Y-120340239D01*
X121061108Y-120263232D01*
X121058167Y-120239044D01*
X121135174Y-120140789D01*
X121159362Y-120137849D01*
X121257617Y-120214856D01*
G37*
G36*
X128129162Y-117884965D02*
G01*
X128128864Y-118037617D01*
X128047630Y-118160220D01*
X127917662Y-118147530D01*
X127889865Y-118115595D01*
X127876318Y-117947218D01*
X127986394Y-117822802D01*
X128046609Y-117810359D01*
X128129162Y-117884965D01*
G37*
G36*
X128698406Y-115584064D02*
G01*
X128705761Y-115751828D01*
X128670652Y-115804089D01*
X128546600Y-115840406D01*
X128496016Y-115786454D01*
X128488661Y-115618690D01*
X128523770Y-115566429D01*
X128647822Y-115530113D01*
X128698406Y-115584064D01*
G37*
G36*
X130060423Y-115353937D02*
G01*
X130064542Y-115381673D01*
X130030015Y-115480238D01*
X130019916Y-115482869D01*
X129933519Y-115411957D01*
X129912749Y-115381673D01*
X129920772Y-115288424D01*
X129957374Y-115280478D01*
X130060423Y-115353937D01*
G37*
G36*
X130247956Y-114555672D02*
G01*
X130266932Y-114673307D01*
X130224554Y-114837746D01*
X130165737Y-114875697D01*
X130083517Y-114790941D01*
X130064542Y-114673307D01*
X130106920Y-114508868D01*
X130165737Y-114470916D01*
X130247956Y-114555672D01*
G37*
G36*
X130444198Y-113545565D02*
G01*
X130469322Y-113711952D01*
X130434682Y-113902129D01*
X130368127Y-113964940D01*
X130292056Y-113878339D01*
X130266932Y-113711952D01*
X130301572Y-113521775D01*
X130368127Y-113458964D01*
X130444198Y-113545565D01*
G37*
G36*
X130652737Y-112835354D02*
G01*
X130671713Y-112952988D01*
X130629335Y-113117427D01*
X130570518Y-113155379D01*
X130488298Y-113070623D01*
X130469322Y-112952988D01*
X130511700Y-112788549D01*
X130570518Y-112750598D01*
X130652737Y-112835354D01*
G37*
G36*
X133805824Y-105136768D02*
G01*
X133808765Y-105160956D01*
X133731758Y-105259211D01*
X133707569Y-105262151D01*
X133609315Y-105185144D01*
X133606374Y-105160956D01*
X133683381Y-105062702D01*
X133707569Y-105059761D01*
X133805824Y-105136768D01*
G37*
G36*
X134398811Y-105316794D02*
G01*
X134415936Y-105363347D01*
X134333972Y-105453125D01*
X134264143Y-105464542D01*
X134129476Y-105409899D01*
X134112350Y-105363347D01*
X134194314Y-105273568D01*
X134264143Y-105262151D01*
X134398811Y-105316794D01*
G37*
G36*
X143994696Y-96115383D02*
G01*
X143978884Y-96154582D01*
X143887949Y-96251120D01*
X143871717Y-96255777D01*
X143828252Y-96177483D01*
X143827091Y-96154582D01*
X143904885Y-96057275D01*
X143934259Y-96053387D01*
X143994696Y-96115383D01*
G37*
G36*
X144223789Y-96756377D02*
G01*
X144231872Y-96818323D01*
X144175292Y-96949112D01*
X144130677Y-96964144D01*
X144049252Y-96879133D01*
X144029482Y-96755781D01*
X144068438Y-96615856D01*
X144130677Y-96609960D01*
X144223789Y-96756377D01*
G37*
G36*
X160318971Y-104934378D02*
G01*
X160321912Y-104958566D01*
X160244905Y-105056820D01*
X160220717Y-105059761D01*
X160122462Y-104982754D01*
X160119522Y-104958566D01*
X160196529Y-104860311D01*
X160220717Y-104857371D01*
X160318971Y-104934378D01*
G37*
G36*
X160723752Y-105136768D02*
G01*
X160726693Y-105160956D01*
X160649686Y-105259211D01*
X160625498Y-105262151D01*
X160527243Y-105185144D01*
X160524303Y-105160956D01*
X160601310Y-105062702D01*
X160625498Y-105059761D01*
X160723752Y-105136768D01*
G37*
G36*
X169509132Y-112528594D02*
G01*
X169530677Y-112643430D01*
X169489390Y-112811085D01*
X169429482Y-112851793D01*
X169338718Y-112770262D01*
X169328287Y-112705972D01*
X169389960Y-112533683D01*
X169429482Y-112497610D01*
X169509132Y-112528594D01*
G37*
G36*
X169916482Y-113948501D02*
G01*
X169935458Y-114066136D01*
X169893080Y-114230574D01*
X169834263Y-114268526D01*
X169752043Y-114183770D01*
X169733067Y-114066136D01*
X169775445Y-113901697D01*
X169834263Y-113863745D01*
X169916482Y-113948501D01*
G37*
G36*
X170118873Y-114758063D02*
G01*
X170137848Y-114875697D01*
X170095470Y-115040136D01*
X170036653Y-115078088D01*
X169954434Y-114993332D01*
X169935458Y-114875697D01*
X169977836Y-114711258D01*
X170036653Y-114673307D01*
X170118873Y-114758063D01*
G37*
G36*
X170539689Y-95320832D02*
G01*
X170542629Y-95345020D01*
X170465622Y-95443275D01*
X170441434Y-95446215D01*
X170343179Y-95369208D01*
X170340239Y-95345020D01*
X170417246Y-95246765D01*
X170441434Y-95243825D01*
X170539689Y-95320832D01*
G37*
G36*
X170726044Y-95733362D02*
G01*
X170745020Y-95850996D01*
X170702642Y-96015435D01*
X170643824Y-96053387D01*
X170561605Y-95968631D01*
X170542629Y-95850996D01*
X170585007Y-95686557D01*
X170643824Y-95648606D01*
X170726044Y-95733362D01*
G37*
G36*
X171257988Y-98233405D02*
G01*
X171339957Y-98358805D01*
X171338770Y-98510999D01*
X171256968Y-98583267D01*
X171119916Y-98509708D01*
X171099203Y-98482072D01*
X171079405Y-98331996D01*
X171159716Y-98226705D01*
X171257988Y-98233405D01*
G37*
G36*
X171537020Y-115156030D02*
G01*
X171554581Y-115223908D01*
X171498560Y-115389545D01*
X171379004Y-115445846D01*
X171315708Y-115412654D01*
X171249933Y-115251774D01*
X171310414Y-115111157D01*
X171402789Y-115078088D01*
X171537020Y-115156030D01*
G37*
G36*
X171691865Y-115968304D02*
G01*
X171738395Y-116137491D01*
X171721898Y-116338766D01*
X171605179Y-116393626D01*
X171483407Y-116329049D01*
X171471963Y-116137491D01*
X171530305Y-115945592D01*
X171605179Y-115881357D01*
X171691865Y-115968304D01*
G37*
G36*
X172855088Y-120194429D02*
G01*
X172870119Y-120239044D01*
X172785108Y-120320468D01*
X172661757Y-120340239D01*
X172521832Y-120301283D01*
X172515936Y-120239044D01*
X172662353Y-120145931D01*
X172724299Y-120137849D01*
X172855088Y-120194429D01*
G37*
G36*
X178738282Y-107667935D02*
G01*
X178739442Y-107690837D01*
X178661648Y-107788143D01*
X178632274Y-107792032D01*
X178571837Y-107730036D01*
X178587649Y-107690837D01*
X178678584Y-107594298D01*
X178694817Y-107589642D01*
X178738282Y-107667935D01*
G37*
G36*
X179329488Y-120192491D02*
G01*
X179346613Y-120239044D01*
X179264649Y-120328822D01*
X179194820Y-120340239D01*
X179060153Y-120285597D01*
X179043028Y-120239044D01*
X179124991Y-120149266D01*
X179194820Y-120137849D01*
X179329488Y-120192491D01*
G37*
G36*
X180037854Y-120192491D02*
G01*
X180054980Y-120239044D01*
X179973016Y-120328822D01*
X179903187Y-120340239D01*
X179768520Y-120285597D01*
X179751394Y-120239044D01*
X179833358Y-120149266D01*
X179903187Y-120137849D01*
X180037854Y-120192491D01*
G37*
G36*
X180962796Y-120214856D02*
G01*
X180965737Y-120239044D01*
X180888730Y-120337298D01*
X180864542Y-120340239D01*
X180766287Y-120263232D01*
X180763346Y-120239044D01*
X180840353Y-120140789D01*
X180864542Y-120137849D01*
X180962796Y-120214856D01*
G37*
G36*
X118299840Y-80247682D02*
G01*
X118323323Y-80431427D01*
X118291561Y-80623834D01*
X118223986Y-80722753D01*
X118108291Y-80700930D01*
X118061367Y-80627530D01*
X118039777Y-80410109D01*
X118111594Y-80227242D01*
X118221525Y-80165737D01*
X118299840Y-80247682D01*
G37*
G36*
X133146972Y-104691443D02*
G01*
X133294260Y-104794897D01*
X133395150Y-104929375D01*
X133403984Y-104970957D01*
X133347907Y-105052909D01*
X133208594Y-104988016D01*
X133115488Y-104897462D01*
X133029041Y-104748172D01*
X133037146Y-104684500D01*
X133146972Y-104691443D01*
G37*
G36*
X159658737Y-104490459D02*
G01*
X159807873Y-104592317D01*
X159908823Y-104727492D01*
X159917131Y-104768566D01*
X159857615Y-104853801D01*
X159718875Y-104804653D01*
X159611516Y-104703132D01*
X159533497Y-104550285D01*
X159546082Y-104486321D01*
X159658737Y-104490459D01*
G37*
G36*
X174455809Y-84678136D02*
G01*
X174395190Y-84761513D01*
X174236496Y-84876250D01*
X174055605Y-84919530D01*
X173924844Y-84886333D01*
X173906741Y-84795418D01*
X174027320Y-84693243D01*
X174238294Y-84635019D01*
X174430684Y-84624817D01*
X174455809Y-84678136D01*
G37*
G36*
X128242313Y-117050953D02*
G01*
X128319692Y-117180945D01*
X128341489Y-117378662D01*
X128308115Y-117550968D01*
X128239852Y-117607968D01*
X128116621Y-117527100D01*
X128077232Y-117456175D01*
X128054763Y-117260762D01*
X128109503Y-117096399D01*
X128210753Y-117038441D01*
X128242313Y-117050953D01*
G37*
G36*
X128444703Y-116241391D02*
G01*
X128522082Y-116371383D01*
X128543879Y-116569100D01*
X128510505Y-116741407D01*
X128442242Y-116798406D01*
X128319011Y-116717538D01*
X128279622Y-116646614D01*
X128257154Y-116451200D01*
X128311893Y-116286837D01*
X128413144Y-116228879D01*
X128444703Y-116241391D01*
G37*
G36*
X150788615Y-113531722D02*
G01*
X150961354Y-113661355D01*
X151077015Y-113803883D01*
X151040146Y-113856333D01*
X150845485Y-113863745D01*
X150587899Y-113824897D01*
X150425020Y-113742311D01*
X150311172Y-113571709D01*
X150384599Y-113477666D01*
X150540889Y-113458964D01*
X150788615Y-113531722D01*
G37*
G36*
X161311663Y-105309691D02*
G01*
X161522136Y-105420772D01*
X161634251Y-105548089D01*
X161637450Y-105569298D01*
X161560377Y-105649406D01*
X161345513Y-105610673D01*
X161156773Y-105529316D01*
X160969711Y-105400991D01*
X160945878Y-105301085D01*
X161087529Y-105262151D01*
X161311663Y-105309691D01*
G37*
G36*
X170919308Y-96242546D02*
G01*
X170947403Y-96454479D01*
X170947410Y-96458167D01*
X170909169Y-96687681D01*
X170814568Y-96762798D01*
X170693862Y-96659652D01*
X170669119Y-96492048D01*
X170720734Y-96293703D01*
X170817133Y-96164804D01*
X170853034Y-96154582D01*
X170919308Y-96242546D01*
G37*
G36*
X172108864Y-117584758D02*
G01*
X172116668Y-117625190D01*
X172101381Y-117815733D01*
X172025258Y-117947055D01*
X171929558Y-117949136D01*
X171927151Y-117946806D01*
X171873386Y-117801272D01*
X171858167Y-117633267D01*
X171911149Y-117459759D01*
X172019842Y-117442804D01*
X172108864Y-117584758D01*
G37*
G36*
X173724034Y-120199818D02*
G01*
X173831474Y-120239044D01*
X173916387Y-120293620D01*
X173833782Y-120322649D01*
X173603785Y-120333127D01*
X173341224Y-120316282D01*
X173189019Y-120265513D01*
X173173705Y-120239044D01*
X173258287Y-120163778D01*
X173465164Y-120150702D01*
X173724034Y-120199818D01*
G37*
G36*
X176962281Y-120199818D02*
G01*
X177069721Y-120239044D01*
X177154634Y-120293620D01*
X177072029Y-120322649D01*
X176842032Y-120333127D01*
X176579471Y-120316282D01*
X176427266Y-120265513D01*
X176411952Y-120239044D01*
X176496534Y-120163778D01*
X176703411Y-120150702D01*
X176962281Y-120199818D01*
G37*
G36*
X119983985Y-80546250D02*
G01*
X120007574Y-80725670D01*
X119929169Y-80930543D01*
X119891011Y-80979068D01*
X119687295Y-81151678D01*
X119545553Y-81139595D01*
X119474192Y-81022127D01*
X119495346Y-80845645D01*
X119618929Y-80639785D01*
X119782799Y-80492975D01*
X119862684Y-80469323D01*
X119983985Y-80546250D01*
G37*
G36*
X171070512Y-97104253D02*
G01*
X171123336Y-97326166D01*
X171130610Y-97394223D01*
X171117779Y-97647212D01*
X171048175Y-97774399D01*
X170951235Y-97747541D01*
X170885634Y-97629272D01*
X170852096Y-97414474D01*
X170879459Y-97188123D01*
X170952019Y-97036097D01*
X170998008Y-97014741D01*
X171070512Y-97104253D01*
G37*
G36*
X181670422Y-119608740D02*
G01*
X181674103Y-119642341D01*
X181602878Y-119814757D01*
X181470556Y-119963566D01*
X181271478Y-120112473D01*
X181180793Y-120116314D01*
X181168127Y-120054293D01*
X181235237Y-119934715D01*
X181399022Y-119754141D01*
X181421115Y-119733068D01*
X181598140Y-119592665D01*
X181670422Y-119608740D01*
G37*
G36*
X117829329Y-116475975D02*
G01*
X117994885Y-116618105D01*
X118022310Y-116646614D01*
X118167508Y-116828041D01*
X118212818Y-116942133D01*
X118208633Y-116949401D01*
X118114096Y-116918447D01*
X117948540Y-116776318D01*
X117921115Y-116747809D01*
X117775918Y-116566382D01*
X117730608Y-116452289D01*
X117734793Y-116445021D01*
X117829329Y-116475975D01*
G37*
G36*
X120704471Y-120160293D02*
G01*
X120845455Y-120216360D01*
X120855777Y-120239044D01*
X120766001Y-120302413D01*
X120541731Y-120337659D01*
X120450996Y-120340239D01*
X120197521Y-120317795D01*
X120056537Y-120261728D01*
X120046215Y-120239044D01*
X120135990Y-120175675D01*
X120360260Y-120140429D01*
X120450996Y-120137849D01*
X120704471Y-120160293D01*
G37*
G36*
X127912962Y-118503489D02*
G01*
X127920865Y-118694952D01*
X127837209Y-118906665D01*
X127686600Y-119013361D01*
X127531994Y-118981156D01*
X127487085Y-118928394D01*
X127505821Y-118808081D01*
X127578845Y-118760172D01*
X127717297Y-118634078D01*
X127737052Y-118558496D01*
X127799088Y-118430986D01*
X127844968Y-118417530D01*
X127912962Y-118503489D01*
G37*
G36*
X135839749Y-105582649D02*
G01*
X136037747Y-105658470D01*
X136111462Y-105742829D01*
X136051439Y-105815924D01*
X135860602Y-105859881D01*
X135608713Y-105872590D01*
X135365535Y-105851943D01*
X135200832Y-105795829D01*
X135176734Y-105771094D01*
X135209839Y-105681052D01*
X135381974Y-105609104D01*
X135629780Y-105573258D01*
X135839749Y-105582649D01*
G37*
G36*
X136984515Y-105852803D02*
G01*
X137118831Y-105935792D01*
X137122908Y-105945219D01*
X137076622Y-106032408D01*
X136852036Y-106069578D01*
X136743426Y-106071713D01*
X136460332Y-106049108D01*
X136360129Y-105978016D01*
X136363944Y-105945219D01*
X136483536Y-105859070D01*
X136718170Y-105819076D01*
X136743426Y-105818725D01*
X136984515Y-105852803D01*
G37*
G36*
X169471652Y-85461250D02*
G01*
X169593666Y-85598670D01*
X169631872Y-85778896D01*
X169598927Y-85963104D01*
X169458969Y-86029470D01*
X169334259Y-86035060D01*
X169098185Y-86000584D01*
X168967795Y-85923657D01*
X168976587Y-85775371D01*
X169106079Y-85608308D01*
X169290641Y-85482703D01*
X169464642Y-85458786D01*
X169471652Y-85461250D01*
G37*
G36*
X169702925Y-113142119D02*
G01*
X169733060Y-113353992D01*
X169733067Y-113357769D01*
X169703756Y-113570926D01*
X169633131Y-113661331D01*
X169631872Y-113661355D01*
X169560820Y-113573419D01*
X169530685Y-113361546D01*
X169530677Y-113357769D01*
X169559989Y-113144612D01*
X169630613Y-113054207D01*
X169631872Y-113054183D01*
X169702925Y-113142119D01*
G37*
G36*
X180206189Y-81535715D02*
G01*
X180424780Y-81651872D01*
X180552604Y-81785352D01*
X180560956Y-81821315D01*
X180477513Y-81877378D01*
X180282517Y-81884493D01*
X180058962Y-81849499D01*
X179889847Y-81779234D01*
X179872828Y-81764622D01*
X179758869Y-81593702D01*
X179831099Y-81500522D01*
X179979083Y-81484493D01*
X180206189Y-81535715D01*
G37*
G36*
X119831464Y-117889810D02*
G01*
X119835666Y-118063897D01*
X119777917Y-118236219D01*
X119751198Y-118270797D01*
X119664051Y-118441370D01*
X119624704Y-118604228D01*
X119573395Y-118756065D01*
X119514940Y-118764454D01*
X119433033Y-118569440D01*
X119441075Y-118303989D01*
X119519977Y-118041568D01*
X119650646Y-117855646D01*
X119762868Y-117810359D01*
X119831464Y-117889810D01*
G37*
G36*
X150306814Y-114550644D02*
G01*
X150552503Y-114640956D01*
X150814161Y-114673307D01*
X151017244Y-114700606D01*
X151064710Y-114770718D01*
X151062550Y-114774502D01*
X150912710Y-114856139D01*
X150655187Y-114882118D01*
X150371737Y-114857743D01*
X150144114Y-114788314D01*
X150059042Y-114709421D01*
X150035354Y-114522361D01*
X150145668Y-114478978D01*
X150306814Y-114550644D01*
G37*
G36*
X162539316Y-105606430D02*
G01*
X162834525Y-105639791D01*
X163008431Y-105713659D01*
X163028426Y-105742829D01*
X162964491Y-105809348D01*
X162763966Y-105853495D01*
X162491632Y-105873216D01*
X162212268Y-105866455D01*
X161990653Y-105831155D01*
X161896991Y-105778731D01*
X161911169Y-105676142D01*
X162112573Y-105618953D01*
X162506353Y-105605783D01*
X162539316Y-105606430D01*
G37*
G36*
X179701875Y-118095316D02*
G01*
X179817495Y-118296777D01*
X179938943Y-118547777D01*
X180031976Y-118778958D01*
X180062316Y-118895787D01*
X180007203Y-118986528D01*
X179848257Y-118957988D01*
X179726095Y-118883625D01*
X179629205Y-118733589D01*
X179564596Y-118499117D01*
X179540604Y-118252971D01*
X179565566Y-118067914D01*
X179626327Y-118012749D01*
X179701875Y-118095316D01*
G37*
G36*
X180562831Y-117713777D02*
G01*
X180706616Y-117845624D01*
X180917752Y-118165016D01*
X180965737Y-118406958D01*
X180929697Y-118661886D01*
X180838739Y-118786433D01*
X180726863Y-118752096D01*
X180673426Y-118607919D01*
X180661528Y-118476561D01*
X180614741Y-118236897D01*
X180507925Y-117972394D01*
X180403845Y-117726531D01*
X180424437Y-117638864D01*
X180562831Y-117713777D01*
G37*
G36*
X140161550Y-84074234D02*
G01*
X140312765Y-84270663D01*
X140355959Y-84554654D01*
X140306062Y-84863069D01*
X140178007Y-85132769D01*
X139986726Y-85300618D01*
X139865348Y-85326693D01*
X139745483Y-85309244D01*
X139688980Y-85224530D01*
X139681463Y-85024002D01*
X139699476Y-84766558D01*
X139765388Y-84328815D01*
X139876988Y-84083022D01*
X140038357Y-84023064D01*
X140161550Y-84074234D01*
G37*
G36*
X172139239Y-84175430D02*
G01*
X172290455Y-84371858D01*
X172333648Y-84655849D01*
X172283752Y-84964264D01*
X172155697Y-85233964D01*
X171964415Y-85401813D01*
X171843037Y-85427889D01*
X171723172Y-85410439D01*
X171666670Y-85325725D01*
X171659152Y-85125197D01*
X171677165Y-84867754D01*
X171743077Y-84430010D01*
X171854677Y-84184217D01*
X172016047Y-84124259D01*
X172139239Y-84175430D01*
G37*
G36*
X180480631Y-80509470D02*
G01*
X180732860Y-80601779D01*
X180894458Y-80734883D01*
X180911797Y-80878818D01*
X180906781Y-80887628D01*
X180767754Y-80970817D01*
X180606494Y-80881319D01*
X180446935Y-80808943D01*
X180186097Y-80757868D01*
X180156175Y-80754825D01*
X179889269Y-80698893D01*
X179813576Y-80616640D01*
X179925384Y-80536200D01*
X180191401Y-80487921D01*
X180480631Y-80509470D01*
G37*
G36*
X120802198Y-81186122D02*
G01*
X120810653Y-81206062D01*
X120834698Y-81395832D01*
X120720405Y-81555596D01*
X120439093Y-81725028D01*
X120433436Y-81727855D01*
X120190037Y-81844734D01*
X120077210Y-81880295D01*
X120046692Y-81847979D01*
X120046215Y-81835693D01*
X120109705Y-81739568D01*
X120271933Y-81549350D01*
X120396905Y-81413533D01*
X120610964Y-81202537D01*
X120734378Y-81132592D01*
X120802198Y-81186122D01*
G37*
G36*
X120841488Y-117895316D02*
G01*
X120855777Y-118012749D01*
X120813044Y-118177182D01*
X120753724Y-118215140D01*
X120716967Y-118284189D01*
X120777353Y-118416388D01*
X120844143Y-118584224D01*
X120775916Y-118737224D01*
X120683324Y-118837349D01*
X120463612Y-119057060D01*
X120467317Y-118711996D01*
X120500582Y-118412449D01*
X120579199Y-118118533D01*
X120680434Y-117895954D01*
X120779284Y-117810359D01*
X120841488Y-117895316D01*
G37*
G36*
X126295020Y-118945381D02*
G01*
X126771981Y-118966890D01*
X127131549Y-119001141D01*
X127341649Y-119044304D01*
X127382868Y-119075299D01*
X127287027Y-119122198D01*
X127020886Y-119162673D01*
X126616519Y-119192894D01*
X126295020Y-119205217D01*
X125808086Y-119214312D01*
X125489570Y-119208166D01*
X125305809Y-119182759D01*
X125223140Y-119134071D01*
X125207171Y-119075299D01*
X125232961Y-119004971D01*
X125332773Y-118961157D01*
X125540269Y-118939838D01*
X125889111Y-118936993D01*
X126295020Y-118945381D01*
G37*
G36*
X165355506Y-105654300D02*
G01*
X165422398Y-105728921D01*
X165334734Y-105819823D01*
X165176833Y-105905974D01*
X164934740Y-105984742D01*
X164601501Y-106040593D01*
X164226126Y-106072511D01*
X163857624Y-106079484D01*
X163545004Y-106060495D01*
X163337276Y-106014530D01*
X163281640Y-105945219D01*
X163408805Y-105864749D01*
X163713195Y-105811162D01*
X163973140Y-105794011D01*
X164366779Y-105765002D01*
X164720244Y-105715199D01*
X164912328Y-105668831D01*
X165179037Y-105621554D01*
X165355506Y-105654300D01*
G37*
G36*
X129842165Y-82860787D02*
G01*
X129862054Y-83048283D01*
X129862151Y-83085561D01*
X129772538Y-83425075D01*
X129538329Y-83752799D01*
X129211471Y-84008641D01*
X128979787Y-84106306D01*
X128756556Y-84153798D01*
X128652158Y-84094339D01*
X128594960Y-83882834D01*
X128590938Y-83861517D01*
X128557032Y-83570917D01*
X128563463Y-83340655D01*
X128563783Y-83338964D01*
X128695999Y-83144660D01*
X128987777Y-82973462D01*
X129396289Y-82848512D01*
X129510619Y-82827377D01*
X129745269Y-82802024D01*
X129842165Y-82860787D01*
G37*
G36*
X124043331Y-120143197D02*
G01*
X124595484Y-120158771D01*
X124978449Y-120183864D01*
X125179159Y-120217770D01*
X125207171Y-120239044D01*
X125108228Y-120277329D01*
X124820111Y-120307175D01*
X124355888Y-120327876D01*
X123728630Y-120338725D01*
X123335059Y-120340239D01*
X122626788Y-120334891D01*
X122074635Y-120319317D01*
X121691669Y-120294224D01*
X121490960Y-120260318D01*
X121462948Y-120239044D01*
X121561891Y-120200759D01*
X121850008Y-120170913D01*
X122314230Y-120150212D01*
X122941489Y-120139363D01*
X123335059Y-120137849D01*
X124043331Y-120143197D01*
G37*
G36*
X127117407Y-120152929D02*
G01*
X127442997Y-120187290D01*
X127685298Y-120241268D01*
X127762350Y-120278717D01*
X127903841Y-120412047D01*
X127939442Y-120477889D01*
X127873909Y-120541087D01*
X127746946Y-120503386D01*
X127686454Y-120441434D01*
X127561662Y-120392492D01*
X127289851Y-120356565D01*
X126926299Y-120340510D01*
X126870920Y-120340239D01*
X126490716Y-120327592D01*
X126225975Y-120293393D01*
X126118486Y-120243259D01*
X126117928Y-120239044D01*
X126208790Y-120181241D01*
X126443515Y-120148534D01*
X126765317Y-120139553D01*
X127117407Y-120152929D01*
G37*
G36*
X182430242Y-116541851D02*
G01*
X182288130Y-116762078D01*
X182183572Y-116919030D01*
X182120237Y-117098623D01*
X182089721Y-117352033D01*
X182083616Y-117730434D01*
X182087150Y-117985668D01*
X182091698Y-118478589D01*
X182080891Y-118794507D01*
X182051038Y-118958472D01*
X181998447Y-118995536D01*
X181943957Y-118957238D01*
X181914890Y-118832852D01*
X181892136Y-118554008D01*
X181878806Y-118168611D01*
X181876617Y-117919987D01*
X181881103Y-117459430D01*
X181901208Y-117150399D01*
X181947116Y-116942100D01*
X182029011Y-116783741D01*
X182130126Y-116655567D01*
X182332604Y-116462097D01*
X182441260Y-116430000D01*
X182430242Y-116541851D01*
G37*
G36*
X181841119Y-108431181D02*
G01*
X181897358Y-108543287D01*
X181935811Y-108759782D01*
X181959101Y-109104925D01*
X181969854Y-109602975D01*
X181970692Y-110278193D01*
X181970576Y-110304890D01*
X181961189Y-111039413D01*
X181939507Y-111584401D01*
X181904033Y-111952425D01*
X181853268Y-112156053D01*
X181785714Y-112207852D01*
X181746829Y-112182421D01*
X181719655Y-112060004D01*
X181699095Y-111779300D01*
X181684973Y-111378500D01*
X181677109Y-110895798D01*
X181675326Y-110369386D01*
X181679446Y-109837457D01*
X181689291Y-109338204D01*
X181704682Y-108909819D01*
X181725442Y-108590495D01*
X181751392Y-108418424D01*
X181764472Y-108399203D01*
X181841119Y-108431181D01*
G37*
G36*
X172262915Y-118269312D02*
G01*
X172262948Y-118278456D01*
X172333454Y-118491999D01*
X172493123Y-118699684D01*
X172625850Y-118800766D01*
X172796426Y-118867646D01*
X173050203Y-118909115D01*
X173432532Y-118933967D01*
X173758537Y-118945013D01*
X174306412Y-118972266D01*
X174653739Y-119013435D01*
X174801358Y-119062295D01*
X174750106Y-119112625D01*
X174500824Y-119158201D01*
X174054349Y-119192800D01*
X173723506Y-119204934D01*
X173221332Y-119213688D01*
X172881835Y-119206507D01*
X172665613Y-119178679D01*
X172533264Y-119125491D01*
X172454202Y-119053141D01*
X172221436Y-118716886D01*
X172105518Y-118426157D01*
X172121226Y-118221877D01*
X172143558Y-118192856D01*
X172236550Y-118141460D01*
X172262915Y-118269312D01*
G37*
G36*
X117236678Y-104148567D02*
G01*
X117257470Y-104449140D01*
X117275079Y-104946975D01*
X117289463Y-105639520D01*
X117300578Y-106524224D01*
X117308382Y-107598534D01*
X117312830Y-108859899D01*
X117313944Y-110012355D01*
X117312223Y-111404376D01*
X117307108Y-112622139D01*
X117298666Y-113661540D01*
X117286966Y-114518476D01*
X117272078Y-115188843D01*
X117254071Y-115668538D01*
X117233013Y-115953457D01*
X117212749Y-116039442D01*
X117188608Y-115954342D01*
X117167720Y-115667843D01*
X117150102Y-115180909D01*
X117135768Y-114494506D01*
X117124737Y-113609598D01*
X117117023Y-112527151D01*
X117112645Y-111248130D01*
X117111554Y-110074897D01*
X117113245Y-108656164D01*
X117118293Y-107422588D01*
X117126653Y-106376683D01*
X117138285Y-105520962D01*
X117153146Y-104857939D01*
X117171194Y-104390128D01*
X117192386Y-104120043D01*
X117212749Y-104047809D01*
X117236678Y-104148567D01*
G37*
G36*
X169276283Y-111763682D02*
G01*
X169401916Y-112035612D01*
X169491201Y-112227714D01*
X169511092Y-112269920D01*
X169473253Y-112342770D01*
X169446397Y-112345817D01*
X169340261Y-112262715D01*
X169219281Y-112060806D01*
X169210870Y-112042231D01*
X169076490Y-111738645D01*
X150658365Y-111722594D01*
X148734385Y-111721065D01*
X146859978Y-111719865D01*
X145045596Y-111718989D01*
X143301689Y-111718430D01*
X141638707Y-111718182D01*
X140067103Y-111718240D01*
X138597326Y-111718597D01*
X137239829Y-111719248D01*
X136005061Y-111720188D01*
X134903473Y-111721409D01*
X133945517Y-111722907D01*
X133141643Y-111724674D01*
X132502303Y-111726707D01*
X132037947Y-111728998D01*
X131759026Y-111731542D01*
X131683665Y-111733250D01*
X131264989Y-111776731D01*
X131013139Y-111870671D01*
X130894991Y-112034186D01*
X130874103Y-112200443D01*
X130834903Y-112409783D01*
X130772908Y-112497610D01*
X130701537Y-112460417D01*
X130679109Y-112275893D01*
X130736889Y-111985038D01*
X130864434Y-111688048D01*
X131042362Y-111384462D01*
X150060144Y-111358901D01*
X169077925Y-111333340D01*
X169276283Y-111763682D01*
G37*
G36*
X140881139Y-104728734D02*
G01*
X140874206Y-104897947D01*
X140777755Y-105084548D01*
X140747865Y-105117587D01*
X140543172Y-105225086D01*
X140311568Y-105262151D01*
X140017535Y-105331589D01*
X139802595Y-105464542D01*
X139576238Y-105614104D01*
X139384705Y-105666932D01*
X139189223Y-105712464D01*
X139121514Y-105768128D01*
X138992909Y-105824689D01*
X138729684Y-105861418D01*
X138514342Y-105869323D01*
X138199177Y-105886723D01*
X137973884Y-105931414D01*
X137907171Y-105970518D01*
X137755898Y-106057998D01*
X137545987Y-106057479D01*
X137403028Y-105973485D01*
X137443199Y-105884215D01*
X137624745Y-105807738D01*
X137876075Y-105725384D01*
X138028569Y-105644818D01*
X138213506Y-105583087D01*
X138433350Y-105577175D01*
X138726982Y-105556440D01*
X138931117Y-105487702D01*
X139113259Y-105415552D01*
X139194809Y-105419776D01*
X139302362Y-105401893D01*
X139534839Y-105306759D01*
X139817736Y-105167344D01*
X140138481Y-105018638D01*
X140403285Y-104931493D01*
X140540697Y-104922911D01*
X140668388Y-104903795D01*
X140690040Y-104817600D01*
X140741490Y-104676125D01*
X140791235Y-104654980D01*
X140881139Y-104728734D01*
G37*
G36*
X133386803Y-116639163D02*
G01*
X133403984Y-116697211D01*
X133490800Y-116772503D01*
X133664200Y-116798406D01*
X133957074Y-116871934D01*
X134159119Y-117058586D01*
X134213546Y-117246557D01*
X134266014Y-117385800D01*
X134314741Y-117405578D01*
X134401470Y-117490757D01*
X134424632Y-117707638D01*
X134391232Y-117998235D01*
X134308273Y-118304561D01*
X134182761Y-118568630D01*
X134172342Y-118584358D01*
X133821521Y-118971091D01*
X133429263Y-119175626D01*
X133016667Y-119190783D01*
X132717123Y-119079453D01*
X132377066Y-118843989D01*
X132120975Y-118576148D01*
X131993708Y-118325781D01*
X131987251Y-118268336D01*
X131986697Y-118265737D01*
X132290836Y-118265737D01*
X132341434Y-118316335D01*
X132392032Y-118265737D01*
X132341434Y-118215140D01*
X132290836Y-118265737D01*
X131986697Y-118265737D01*
X131938958Y-118041930D01*
X131877747Y-117943724D01*
X131839143Y-117766917D01*
X131963434Y-117486208D01*
X132062019Y-117354980D01*
X132290836Y-117354980D01*
X132341434Y-117405578D01*
X132392032Y-117354980D01*
X132341434Y-117304383D01*
X132290836Y-117354980D01*
X132062019Y-117354980D01*
X132235034Y-117124678D01*
X132463752Y-116917665D01*
X132741394Y-116748015D01*
X133019854Y-116633320D01*
X133251026Y-116591173D01*
X133386803Y-116639163D01*
G37*
G36*
X158585586Y-115788540D02*
G01*
X158935515Y-115799623D01*
X159164130Y-115826948D01*
X159311966Y-115877755D01*
X159419556Y-115959288D01*
X159494101Y-116040212D01*
X159614370Y-116214289D01*
X159682056Y-116429549D01*
X159710679Y-116746760D01*
X159714741Y-117031925D01*
X159697871Y-117450590D01*
X159651707Y-117755576D01*
X159593306Y-117891315D01*
X159422995Y-117952801D01*
X159055528Y-117992738D01*
X158489166Y-118011280D01*
X158227171Y-118012749D01*
X157685130Y-118020663D01*
X157282848Y-118043191D01*
X157042745Y-118078510D01*
X156982470Y-118113944D01*
X156945895Y-118193914D01*
X156809629Y-118171190D01*
X156609216Y-118080205D01*
X156442816Y-117959976D01*
X156330979Y-117768356D01*
X156304805Y-117658566D01*
X159208765Y-117658566D01*
X159259362Y-117709163D01*
X159309960Y-117658566D01*
X159259362Y-117607968D01*
X159208765Y-117658566D01*
X156304805Y-117658566D01*
X156258018Y-117462314D01*
X156257359Y-117456175D01*
X159411155Y-117456175D01*
X159461753Y-117506773D01*
X159512350Y-117456175D01*
X159461753Y-117405578D01*
X159411155Y-117456175D01*
X156257359Y-117456175D01*
X156208243Y-116998817D01*
X156206445Y-116975498D01*
X156196536Y-116616386D01*
X156231593Y-116422282D01*
X156268669Y-116393626D01*
X156365272Y-116312632D01*
X156375299Y-116253471D01*
X156437855Y-116068644D01*
X156636609Y-115934154D01*
X156988190Y-115845430D01*
X157509226Y-115797899D01*
X158073808Y-115786454D01*
X158585586Y-115788540D01*
G37*
G36*
X181980259Y-80588241D02*
G01*
X181998631Y-80688353D01*
X182015106Y-80976758D01*
X182029697Y-81454882D01*
X182042416Y-82124150D01*
X182053277Y-82985987D01*
X182062290Y-84041819D01*
X182069470Y-85293073D01*
X182074828Y-86741172D01*
X182078376Y-88387544D01*
X182080128Y-90233614D01*
X182080191Y-92031733D01*
X182080394Y-94071507D01*
X182082446Y-95909323D01*
X182086350Y-97545606D01*
X182092110Y-98980782D01*
X182099729Y-100215274D01*
X182109211Y-101249506D01*
X182120560Y-102083905D01*
X182133779Y-102718894D01*
X182148873Y-103154899D01*
X182165844Y-103392343D01*
X182178815Y-103440638D01*
X182278099Y-103516865D01*
X182281275Y-103541833D01*
X182221193Y-103637173D01*
X182075163Y-103587454D01*
X181997928Y-103521594D01*
X181980052Y-103405416D01*
X181963454Y-103104219D01*
X181948146Y-102633469D01*
X181934140Y-102008637D01*
X181921447Y-101245191D01*
X181910079Y-100358599D01*
X181900049Y-99364331D01*
X181891369Y-98277855D01*
X181884049Y-97114640D01*
X181878103Y-95890155D01*
X181873542Y-94619868D01*
X181870378Y-93319249D01*
X181868623Y-92003765D01*
X181868288Y-90688887D01*
X181869387Y-89390082D01*
X181871930Y-88122820D01*
X181875930Y-86902569D01*
X181881398Y-85744798D01*
X181888347Y-84664976D01*
X181896788Y-83678572D01*
X181906733Y-82801054D01*
X181918195Y-82047891D01*
X181931184Y-81434552D01*
X181945714Y-80976505D01*
X181961796Y-80689220D01*
X181979441Y-80588166D01*
X181980259Y-80588241D01*
G37*
G36*
X142780518Y-115791962D02*
G01*
X143220512Y-115816233D01*
X143515815Y-115883420D01*
X143695276Y-116014456D01*
X143787744Y-116230274D01*
X143822066Y-116551807D01*
X143827091Y-116994293D01*
X143821316Y-117410090D01*
X143799826Y-117657004D01*
X143756375Y-117768317D01*
X143684718Y-117777315D01*
X143680452Y-117775741D01*
X143577772Y-117780232D01*
X143590084Y-117866110D01*
X143585346Y-117929925D01*
X143493228Y-117972578D01*
X143284022Y-117997982D01*
X142928019Y-118010051D01*
X142476811Y-118012749D01*
X141963061Y-118008907D01*
X141615165Y-117994001D01*
X141396675Y-117962957D01*
X141271143Y-117910706D01*
X141204121Y-117835657D01*
X141126273Y-117725841D01*
X141100512Y-117797604D01*
X141097898Y-117886255D01*
X141065720Y-118068446D01*
X140955518Y-118095410D01*
X140736178Y-117972812D01*
X140712556Y-117956413D01*
X140602349Y-117859773D01*
X140535266Y-117727535D01*
X140508097Y-117557371D01*
X140690040Y-117557371D01*
X140740637Y-117607968D01*
X140791235Y-117557371D01*
X140740637Y-117506773D01*
X140690040Y-117557371D01*
X140508097Y-117557371D01*
X140500857Y-117512025D01*
X140488673Y-117165565D01*
X140487649Y-116930318D01*
X140491652Y-116512308D01*
X140522780Y-116211794D01*
X140553328Y-116140638D01*
X140892430Y-116140638D01*
X140943028Y-116191235D01*
X140993625Y-116140638D01*
X140943028Y-116090040D01*
X140892430Y-116140638D01*
X140553328Y-116140638D01*
X140609714Y-116009296D01*
X140781135Y-115885334D01*
X141065721Y-115820428D01*
X141492154Y-115795096D01*
X142089115Y-115789860D01*
X142166985Y-115789673D01*
X142780518Y-115791962D01*
G37*
G36*
X153517622Y-78951728D02*
G01*
X156727122Y-78952727D01*
X159735578Y-78954392D01*
X162542904Y-78956723D01*
X165149012Y-78959719D01*
X167553816Y-78963381D01*
X169757228Y-78967707D01*
X171759161Y-78972697D01*
X173559528Y-78978352D01*
X175158242Y-78984670D01*
X176555216Y-78991652D01*
X177750362Y-78999298D01*
X178743594Y-79007606D01*
X179534823Y-79016577D01*
X180123964Y-79026211D01*
X180510929Y-79036506D01*
X180695631Y-79047464D01*
X180712749Y-79052590D01*
X180607170Y-79062243D01*
X180308986Y-79071433D01*
X179827694Y-79080158D01*
X179172790Y-79088419D01*
X178353773Y-79096216D01*
X177380139Y-79103548D01*
X176261386Y-79110417D01*
X175007011Y-79116821D01*
X173626512Y-79122761D01*
X172129385Y-79128236D01*
X170525128Y-79133248D01*
X168823239Y-79137795D01*
X167033214Y-79141878D01*
X165164551Y-79145497D01*
X163226747Y-79148651D01*
X161229300Y-79151341D01*
X159181707Y-79153567D01*
X157093465Y-79155329D01*
X154974071Y-79156627D01*
X152833023Y-79157460D01*
X150679818Y-79157829D01*
X148523954Y-79157734D01*
X146374927Y-79157175D01*
X144242235Y-79156151D01*
X142135375Y-79154664D01*
X140063845Y-79152712D01*
X138037142Y-79150295D01*
X136064762Y-79147415D01*
X134156205Y-79144070D01*
X132320966Y-79140261D01*
X130568543Y-79135988D01*
X128908433Y-79131251D01*
X127350134Y-79126049D01*
X125903144Y-79120383D01*
X124576958Y-79114253D01*
X123381075Y-79107659D01*
X122324992Y-79100600D01*
X121418206Y-79093078D01*
X120670214Y-79085091D01*
X120090514Y-79076639D01*
X119688604Y-79067724D01*
X119473979Y-79058344D01*
X119439044Y-79052590D01*
X119540200Y-79041368D01*
X119843518Y-79030801D01*
X120348770Y-79020891D01*
X121055728Y-79011637D01*
X121964163Y-79003042D01*
X123073848Y-78995104D01*
X124384555Y-78987826D01*
X125896055Y-78981208D01*
X127608122Y-78975251D01*
X129520528Y-78969955D01*
X131633043Y-78965321D01*
X133945441Y-78961350D01*
X136457493Y-78958043D01*
X139168972Y-78955401D01*
X142079650Y-78953423D01*
X145189298Y-78952112D01*
X148497689Y-78951467D01*
X150107167Y-78951395D01*
X153517622Y-78951728D01*
G37*
G36*
X167194271Y-116628787D02*
G01*
X167538791Y-116795643D01*
X167921771Y-117082338D01*
X167936852Y-117095626D01*
X168150471Y-117408836D01*
X168221178Y-117802704D01*
X168159210Y-118225576D01*
X167974805Y-118625793D01*
X167678199Y-118951699D01*
X167552072Y-119037306D01*
X167296353Y-119145368D01*
X167012334Y-119207086D01*
X166763683Y-119216559D01*
X166614069Y-119167889D01*
X166596016Y-119125896D01*
X166515533Y-119032944D01*
X166463156Y-119024701D01*
X166311946Y-118956691D01*
X166188644Y-118856043D01*
X166629747Y-118856043D01*
X166643638Y-118916203D01*
X166697211Y-118923506D01*
X166780506Y-118886480D01*
X166764674Y-118856043D01*
X166644579Y-118843931D01*
X166629747Y-118856043D01*
X166188644Y-118856043D01*
X166105802Y-118788421D01*
X166058375Y-118740877D01*
X165896146Y-118538008D01*
X165814205Y-118316133D01*
X165810002Y-118265737D01*
X166090040Y-118265737D01*
X166140637Y-118316335D01*
X166191235Y-118265737D01*
X167810358Y-118265737D01*
X167860956Y-118316335D01*
X167911554Y-118265737D01*
X167860956Y-118215140D01*
X167810358Y-118265737D01*
X166191235Y-118265737D01*
X166140637Y-118215140D01*
X166090040Y-118265737D01*
X165810002Y-118265737D01*
X165787465Y-117995475D01*
X165786454Y-117876118D01*
X165793872Y-117709163D01*
X167810358Y-117709163D01*
X167847384Y-117792459D01*
X167877822Y-117776627D01*
X167889933Y-117656532D01*
X167877822Y-117641700D01*
X167817661Y-117655591D01*
X167810358Y-117709163D01*
X165793872Y-117709163D01*
X165802688Y-117510759D01*
X165844107Y-117354980D01*
X167810358Y-117354980D01*
X167860956Y-117405578D01*
X167911554Y-117354980D01*
X167860956Y-117304383D01*
X167810358Y-117354980D01*
X165844107Y-117354980D01*
X165866353Y-117271313D01*
X165950475Y-117152590D01*
X167203187Y-117152590D01*
X167253785Y-117203187D01*
X167304382Y-117152590D01*
X167253785Y-117101992D01*
X167203187Y-117152590D01*
X165950475Y-117152590D01*
X165999889Y-117082852D01*
X166034842Y-117046795D01*
X166261023Y-116876006D01*
X166472697Y-116798788D01*
X166484248Y-116798406D01*
X166679883Y-116752955D01*
X166747808Y-116697211D01*
X166920011Y-116592425D01*
X167194271Y-116628787D01*
G37*
G36*
X144338576Y-97422927D02*
G01*
X144378331Y-97544078D01*
X144407240Y-97820302D01*
X144425399Y-98204576D01*
X144432902Y-98649880D01*
X144429844Y-99109191D01*
X144416321Y-99535487D01*
X144392426Y-99881746D01*
X144358255Y-100100947D01*
X144333067Y-100151793D01*
X144264632Y-100286357D01*
X144232265Y-100531583D01*
X144231872Y-100562546D01*
X144206051Y-100794267D01*
X144142694Y-100908298D01*
X144130677Y-100910757D01*
X144048458Y-100995513D01*
X144029482Y-101113147D01*
X143987104Y-101277586D01*
X143928287Y-101315538D01*
X143857234Y-101403473D01*
X143827099Y-101615347D01*
X143827091Y-101619124D01*
X143797780Y-101832281D01*
X143727155Y-101922686D01*
X143725896Y-101922709D01*
X143643677Y-102007465D01*
X143624701Y-102125100D01*
X143582323Y-102289539D01*
X143523506Y-102327490D01*
X143431222Y-102408308D01*
X143422310Y-102464274D01*
X143356878Y-102617327D01*
X143192860Y-102837004D01*
X143118725Y-102918732D01*
X142932596Y-103130467D01*
X142825409Y-103285261D01*
X142815139Y-103316679D01*
X142744907Y-103434745D01*
X142564654Y-103638627D01*
X142320043Y-103884817D01*
X142056738Y-104129810D01*
X141820402Y-104330099D01*
X141656698Y-104442178D01*
X141622913Y-104452590D01*
X141507471Y-104502494D01*
X141499601Y-104529443D01*
X141424263Y-104641715D01*
X141260781Y-104749272D01*
X141102949Y-104798405D01*
X141055133Y-104783951D01*
X140996489Y-104615389D01*
X141123916Y-104440079D01*
X141271912Y-104348851D01*
X141473982Y-104215771D01*
X141747740Y-103993410D01*
X142053742Y-103719465D01*
X142352541Y-103431631D01*
X142604694Y-103167604D01*
X142770753Y-102965080D01*
X142815139Y-102874079D01*
X142885549Y-102716448D01*
X142964608Y-102633005D01*
X143086796Y-102478923D01*
X143251798Y-102205295D01*
X143390967Y-101937546D01*
X143547456Y-101633977D01*
X143678417Y-101414158D01*
X143747475Y-101332404D01*
X143814655Y-101216530D01*
X143827091Y-101110687D01*
X143869925Y-100924310D01*
X143917106Y-100867070D01*
X144002309Y-100733924D01*
X144072131Y-100442227D01*
X144128073Y-99980424D01*
X144171636Y-99336958D01*
X144197798Y-98707193D01*
X144222901Y-98164973D01*
X144256204Y-97754541D01*
X144295155Y-97499183D01*
X144337203Y-97422182D01*
X144338576Y-97422927D01*
G37*
G36*
X171286637Y-98921694D02*
G01*
X171331527Y-99120763D01*
X171327790Y-99347589D01*
X171268149Y-99516299D01*
X171258907Y-99526591D01*
X171190601Y-99690028D01*
X171152593Y-99965701D01*
X171149801Y-100064864D01*
X171127887Y-100344343D01*
X171072988Y-100528828D01*
X171048605Y-100556574D01*
X170980170Y-100691138D01*
X170947803Y-100936364D01*
X170947410Y-100967327D01*
X170921589Y-101199048D01*
X170858232Y-101313079D01*
X170846215Y-101315538D01*
X170763995Y-101400294D01*
X170745020Y-101517928D01*
X170702642Y-101682367D01*
X170643824Y-101720319D01*
X170561605Y-101805075D01*
X170542629Y-101922709D01*
X170508096Y-102087262D01*
X170460322Y-102125100D01*
X170373767Y-102209756D01*
X170263778Y-102419175D01*
X170239570Y-102477942D01*
X170065524Y-102796236D01*
X169831424Y-103088857D01*
X169815901Y-103104046D01*
X169632124Y-103306873D01*
X169535158Y-103466074D01*
X169530677Y-103490317D01*
X169460119Y-103628446D01*
X169287716Y-103831424D01*
X169072373Y-104041130D01*
X168872994Y-104199446D01*
X168760529Y-104250199D01*
X168629975Y-104317482D01*
X168435185Y-104484283D01*
X168384523Y-104535424D01*
X168099020Y-104769952D01*
X167777769Y-104951244D01*
X167758419Y-104959092D01*
X167529763Y-105068557D01*
X167410506Y-105164202D01*
X167405577Y-105179844D01*
X167320662Y-105246764D01*
X167203187Y-105262151D01*
X167038748Y-105304529D01*
X167000797Y-105363347D01*
X166916041Y-105445566D01*
X166798406Y-105464542D01*
X166633967Y-105506920D01*
X166596016Y-105565737D01*
X166507166Y-105633079D01*
X166289154Y-105666218D01*
X166247805Y-105666932D01*
X165995746Y-105693747D01*
X165843922Y-105759200D01*
X165837052Y-105768128D01*
X165708908Y-105867707D01*
X165606932Y-105792935D01*
X165584063Y-105666932D01*
X165644947Y-105506880D01*
X165831079Y-105464542D01*
X166045350Y-105427230D01*
X166140637Y-105363347D01*
X166280480Y-105284296D01*
X166444223Y-105262151D01*
X166656126Y-105223953D01*
X166747808Y-105160956D01*
X166888545Y-105080081D01*
X167036829Y-105059761D01*
X167243537Y-104986391D01*
X167511708Y-104793221D01*
X167656055Y-104657551D01*
X167904953Y-104424994D01*
X168069163Y-104335117D01*
X168182569Y-104366356D01*
X168294026Y-104423217D01*
X168316334Y-104355026D01*
X168382516Y-104230727D01*
X168559081Y-104004538D01*
X168744603Y-103794821D01*
X169024701Y-103794821D01*
X169075299Y-103845418D01*
X169125896Y-103794821D01*
X169075299Y-103744223D01*
X169024701Y-103794821D01*
X168744603Y-103794821D01*
X168813057Y-103717439D01*
X168923506Y-103600376D01*
X169197834Y-103303805D01*
X169407664Y-103056239D01*
X169520221Y-102897218D01*
X169530677Y-102867810D01*
X169598287Y-102736908D01*
X169763653Y-102549183D01*
X169789556Y-102524347D01*
X169993919Y-102273545D01*
X170211017Y-101915571D01*
X170412158Y-101511010D01*
X170568647Y-101120447D01*
X170651789Y-100804465D01*
X170656863Y-100693103D01*
X170673617Y-100470269D01*
X170738446Y-100358246D01*
X170808913Y-100221964D01*
X170844984Y-99970893D01*
X170846215Y-99913072D01*
X170869303Y-99639701D01*
X170926134Y-99455131D01*
X170938841Y-99438367D01*
X171023377Y-99269615D01*
X171065335Y-99089243D01*
X171125555Y-98898862D01*
X171200398Y-98836255D01*
X171286637Y-98921694D01*
G37*
G36*
X137334524Y-92112151D02*
G01*
X137731377Y-92128571D01*
X138035724Y-92156852D01*
X138198475Y-92196994D01*
X138210757Y-92207968D01*
X138348168Y-92282103D01*
X138558554Y-92309163D01*
X138838506Y-92350432D01*
X139168471Y-92452440D01*
X139235649Y-92480107D01*
X139489294Y-92588147D01*
X139654220Y-92653546D01*
X139678087Y-92661039D01*
X139792801Y-92706224D01*
X140022127Y-92808244D01*
X140133466Y-92859607D01*
X140333509Y-92986333D01*
X140621029Y-93210525D01*
X140962468Y-93501028D01*
X141324268Y-93826687D01*
X141672875Y-94156347D01*
X141974730Y-94458854D01*
X142196276Y-94703052D01*
X142303958Y-94857788D01*
X142309163Y-94879563D01*
X142370197Y-95025987D01*
X142451823Y-95134661D01*
X142589423Y-95366537D01*
X142628914Y-95496813D01*
X142692743Y-95694682D01*
X142821735Y-95994874D01*
X142941633Y-96240754D01*
X143161996Y-96806850D01*
X143219920Y-97278005D01*
X143238478Y-97563249D01*
X143285833Y-97742443D01*
X143321115Y-97773705D01*
X143371230Y-97868386D01*
X143406446Y-98126876D01*
X143421973Y-98510845D01*
X143422310Y-98583267D01*
X143410475Y-98984182D01*
X143378164Y-99265913D01*
X143330168Y-99390130D01*
X143321115Y-99392829D01*
X143260431Y-99483203D01*
X143224310Y-99711545D01*
X143219920Y-99842235D01*
X143198962Y-100128236D01*
X143146183Y-100320297D01*
X143118725Y-100354183D01*
X143030751Y-100498310D01*
X143017530Y-100593647D01*
X142969406Y-100784131D01*
X142843771Y-101091222D01*
X142668733Y-101458880D01*
X142472395Y-101831064D01*
X142282864Y-102151735D01*
X142130430Y-102362435D01*
X141962090Y-102586477D01*
X141872040Y-102757570D01*
X141746312Y-102907536D01*
X141654570Y-102934661D01*
X141518182Y-103005315D01*
X141499601Y-103068815D01*
X141425872Y-103233049D01*
X141253333Y-103431548D01*
X141054963Y-103591561D01*
X140923597Y-103643028D01*
X140774077Y-103712995D01*
X140693765Y-103790332D01*
X140536112Y-103913184D01*
X140251282Y-104082104D01*
X139896471Y-104268738D01*
X139528877Y-104444734D01*
X139205698Y-104581738D01*
X138984130Y-104651396D01*
X138949498Y-104654980D01*
X138766802Y-104708239D01*
X138716733Y-104756175D01*
X138585658Y-104817659D01*
X138329078Y-104853561D01*
X138204784Y-104857371D01*
X137935286Y-104877721D01*
X137774876Y-104929138D01*
X137755378Y-104958566D01*
X137660697Y-105008680D01*
X137402208Y-105043897D01*
X137018238Y-105059424D01*
X136945816Y-105059761D01*
X136544901Y-105047926D01*
X136263171Y-105015615D01*
X136138953Y-104967619D01*
X136136255Y-104958566D01*
X136045881Y-104897881D01*
X135817538Y-104861761D01*
X135686848Y-104857371D01*
X135400848Y-104836412D01*
X135208786Y-104783633D01*
X135174900Y-104756175D01*
X135030678Y-104667997D01*
X134936732Y-104654980D01*
X134679360Y-104596918D01*
X134307218Y-104439965D01*
X134136885Y-104351395D01*
X134820717Y-104351395D01*
X134857743Y-104434690D01*
X134888180Y-104418858D01*
X134900291Y-104298763D01*
X134888180Y-104283931D01*
X134828020Y-104297822D01*
X134820717Y-104351395D01*
X134136885Y-104351395D01*
X133864915Y-104209976D01*
X133847404Y-104199602D01*
X135427888Y-104199602D01*
X135478486Y-104250199D01*
X135529083Y-104199602D01*
X135478486Y-104149004D01*
X135427888Y-104199602D01*
X133847404Y-104199602D01*
X133397059Y-103932803D01*
X133164246Y-103777955D01*
X133640106Y-103777955D01*
X133653997Y-103838115D01*
X133707569Y-103845418D01*
X133790865Y-103808393D01*
X133775033Y-103777955D01*
X133654938Y-103765844D01*
X133640106Y-103777955D01*
X133164246Y-103777955D01*
X132948259Y-103634298D01*
X132893409Y-103592430D01*
X133505179Y-103592430D01*
X133555777Y-103643028D01*
X133606374Y-103592430D01*
X133555777Y-103541833D01*
X133505179Y-103592430D01*
X132893409Y-103592430D01*
X132606168Y-103373174D01*
X133032935Y-103373174D01*
X133046826Y-103433334D01*
X133100398Y-103440638D01*
X133183693Y-103403612D01*
X133167862Y-103373174D01*
X133047767Y-103361063D01*
X133032935Y-103373174D01*
X132606168Y-103373174D01*
X132563122Y-103340316D01*
X132393806Y-103187649D01*
X132898008Y-103187649D01*
X132948605Y-103238247D01*
X132999203Y-103187649D01*
X132948605Y-103137052D01*
X132898008Y-103187649D01*
X132393806Y-103187649D01*
X132373820Y-103169628D01*
X132100496Y-102886055D01*
X131894593Y-102647479D01*
X131790866Y-102495022D01*
X131784860Y-102472836D01*
X131716242Y-102325386D01*
X131582470Y-102175697D01*
X131431637Y-102009176D01*
X131414231Y-101973307D01*
X131683665Y-101973307D01*
X131734263Y-102023904D01*
X131784860Y-101973307D01*
X131734263Y-101922709D01*
X131683665Y-101973307D01*
X131414231Y-101973307D01*
X131380079Y-101902928D01*
X131324768Y-101768177D01*
X131189272Y-101555773D01*
X131165890Y-101523612D01*
X131082421Y-101366136D01*
X131481275Y-101366136D01*
X131531872Y-101416733D01*
X131582470Y-101366136D01*
X131531872Y-101315538D01*
X131481275Y-101366136D01*
X131082421Y-101366136D01*
X130975244Y-101163933D01*
X130930418Y-101011952D01*
X131076494Y-101011952D01*
X131158458Y-101101731D01*
X131228287Y-101113147D01*
X131362954Y-101058505D01*
X131380079Y-101011952D01*
X131298116Y-100922174D01*
X131228287Y-100910757D01*
X131093619Y-100965400D01*
X131076494Y-101011952D01*
X130930418Y-101011952D01*
X130821459Y-100642535D01*
X130703441Y-99974701D01*
X130648110Y-99730933D01*
X130577232Y-99601544D01*
X130559889Y-99595219D01*
X130523497Y-99500847D01*
X130494086Y-99244957D01*
X130474980Y-98868387D01*
X130469322Y-98482072D01*
X130471094Y-98380877D01*
X130874103Y-98380877D01*
X130905912Y-98612340D01*
X130975299Y-98735060D01*
X131031860Y-98863664D01*
X131068589Y-99126889D01*
X131076494Y-99342231D01*
X131093894Y-99657396D01*
X131138585Y-99882689D01*
X131177689Y-99949402D01*
X131265721Y-100093557D01*
X131278884Y-100188494D01*
X131328420Y-100396228D01*
X131453759Y-100703163D01*
X131620003Y-101039071D01*
X131792252Y-101333722D01*
X131935607Y-101516887D01*
X131941559Y-101522000D01*
X132062168Y-101717623D01*
X132088446Y-101865570D01*
X132176818Y-102104737D01*
X132421239Y-102387585D01*
X132790664Y-102680601D01*
X132923306Y-102766770D01*
X133117033Y-102929308D01*
X133201466Y-103084170D01*
X133201593Y-103088787D01*
X133284481Y-103214952D01*
X133379642Y-103238247D01*
X133569774Y-103317179D01*
X133684085Y-103440638D01*
X133861074Y-103608247D01*
X134051777Y-103630550D01*
X134163428Y-103541057D01*
X134151766Y-103392526D01*
X133996057Y-103226425D01*
X133924591Y-103187649D01*
X135225498Y-103187649D01*
X135276095Y-103238247D01*
X135326693Y-103187649D01*
X135276095Y-103137052D01*
X135225498Y-103187649D01*
X133924591Y-103187649D01*
X133772069Y-103104893D01*
X133645209Y-103021100D01*
X133699589Y-102893834D01*
X133708563Y-102882866D01*
X133766963Y-102775992D01*
X133673338Y-102733926D01*
X133542869Y-102727585D01*
X133306948Y-102670489D01*
X133080790Y-102482390D01*
X132995861Y-102378088D01*
X133302789Y-102378088D01*
X133353386Y-102428685D01*
X133403984Y-102378088D01*
X133353386Y-102327490D01*
X133302789Y-102378088D01*
X132995861Y-102378088D01*
X132948605Y-102320053D01*
X132743820Y-102053414D01*
X132572152Y-101838550D01*
X132518526Y-101775393D01*
X132409351Y-101585134D01*
X132406091Y-101568526D01*
X132695617Y-101568526D01*
X132746215Y-101619124D01*
X132796812Y-101568526D01*
X132746215Y-101517928D01*
X132695617Y-101568526D01*
X132406091Y-101568526D01*
X132392032Y-101496899D01*
X132317065Y-101336875D01*
X132189641Y-101214343D01*
X132032409Y-101046101D01*
X131987251Y-100920901D01*
X131953246Y-100714586D01*
X131865007Y-100391742D01*
X131743193Y-100023863D01*
X131677265Y-99848207D01*
X131530797Y-99337283D01*
X131481063Y-99024834D01*
X132328615Y-99024834D01*
X132340811Y-99190288D01*
X132411424Y-99489397D01*
X132503284Y-99848207D01*
X132569251Y-100146653D01*
X132605101Y-100380847D01*
X132607146Y-100418041D01*
X132677085Y-100589511D01*
X132848726Y-100809950D01*
X132905204Y-100867054D01*
X133093652Y-101078108D01*
X133195651Y-101251724D01*
X133201593Y-101283873D01*
X133255501Y-101405817D01*
X133399823Y-101369674D01*
X133403774Y-101366136D01*
X134213546Y-101366136D01*
X134264143Y-101416733D01*
X134314741Y-101366136D01*
X134264143Y-101315538D01*
X134213546Y-101366136D01*
X133403774Y-101366136D01*
X133608458Y-101182846D01*
X133625293Y-101163745D01*
X133853006Y-100961022D01*
X134061310Y-100937228D01*
X134299943Y-101092559D01*
X134377485Y-101166692D01*
X134633420Y-101422628D01*
X134327465Y-101708433D01*
X134021509Y-101994238D01*
X134345217Y-102287358D01*
X134785495Y-102635279D01*
X135149122Y-102809247D01*
X135319348Y-102833466D01*
X135513642Y-102879626D01*
X135579681Y-102934661D01*
X135719172Y-103012995D01*
X135889239Y-103035857D01*
X136076540Y-103071258D01*
X136136255Y-103137052D01*
X136196993Y-103232086D01*
X136334417Y-103190878D01*
X136419181Y-103111347D01*
X136500334Y-102928328D01*
X136555605Y-102654451D01*
X136558066Y-102630669D01*
X136569362Y-102563612D01*
X136878353Y-102563612D01*
X136892244Y-102623773D01*
X136945816Y-102631076D01*
X137029112Y-102594050D01*
X137013280Y-102563612D01*
X136893185Y-102551501D01*
X136878353Y-102563612D01*
X136569362Y-102563612D01*
X136598007Y-102393570D01*
X136700786Y-102298118D01*
X136934247Y-102283630D01*
X136945816Y-102283848D01*
X137182848Y-102305914D01*
X137288988Y-102400965D01*
X137328848Y-102631375D01*
X137330948Y-102655628D01*
X137388062Y-102910306D01*
X137492087Y-103115684D01*
X137609529Y-103229192D01*
X137706889Y-103208261D01*
X137729670Y-103162351D01*
X137851049Y-103068697D01*
X138044880Y-103035857D01*
X138342050Y-102976305D01*
X138545030Y-102876500D01*
X138755247Y-102773408D01*
X138896431Y-102763176D01*
X139030787Y-102723085D01*
X139250459Y-102571799D01*
X139444618Y-102401160D01*
X139868917Y-101993111D01*
X139631057Y-101770916D01*
X142106773Y-101770916D01*
X142157370Y-101821514D01*
X142207968Y-101770916D01*
X142157370Y-101720319D01*
X142106773Y-101770916D01*
X139631057Y-101770916D01*
X139563565Y-101707869D01*
X139258213Y-101422628D01*
X139514148Y-101166692D01*
X139732282Y-100994229D01*
X139923875Y-100914754D01*
X140043013Y-100936831D01*
X140044257Y-101067806D01*
X140037085Y-101172414D01*
X140090404Y-101159088D01*
X140235987Y-101169855D01*
X140393451Y-101271273D01*
X140546507Y-101388940D01*
X140614764Y-101407680D01*
X140645355Y-101357703D01*
X141507590Y-101357703D01*
X141526196Y-101488954D01*
X141560740Y-101490521D01*
X141584897Y-101355083D01*
X141568729Y-101296564D01*
X141523795Y-101258233D01*
X141507590Y-101357703D01*
X140645355Y-101357703D01*
X140681584Y-101298515D01*
X140764876Y-101163745D01*
X141095467Y-100582063D01*
X141321841Y-100078687D01*
X141407302Y-99797610D01*
X141480757Y-99485644D01*
X141552276Y-99221841D01*
X141554148Y-99215737D01*
X141580839Y-99077272D01*
X141517973Y-99010468D01*
X141320461Y-98989461D01*
X141157221Y-98988048D01*
X140690040Y-98988048D01*
X140690040Y-98583267D01*
X140692187Y-98532669D01*
X140892430Y-98532669D01*
X140945389Y-98667362D01*
X140990449Y-98684462D01*
X141046128Y-98610285D01*
X141030220Y-98532669D01*
X141025671Y-98524236D01*
X141507590Y-98524236D01*
X141526196Y-98655488D01*
X141560740Y-98657055D01*
X141584897Y-98521616D01*
X141568729Y-98463098D01*
X141523795Y-98424767D01*
X141507590Y-98524236D01*
X141025671Y-98524236D01*
X140958393Y-98399520D01*
X140932201Y-98380877D01*
X140896826Y-98463511D01*
X140892430Y-98532669D01*
X140692187Y-98532669D01*
X140701039Y-98324047D01*
X140766857Y-98208841D01*
X140936721Y-98179348D01*
X141031832Y-98178486D01*
X141353298Y-98135216D01*
X141517070Y-97991409D01*
X141534817Y-97726066D01*
X141453977Y-97418815D01*
X141322795Y-97065725D01*
X141257863Y-96913546D01*
X141499601Y-96913546D01*
X141550199Y-96964144D01*
X141600797Y-96913546D01*
X141550199Y-96862948D01*
X141499601Y-96913546D01*
X141257863Y-96913546D01*
X141183907Y-96740217D01*
X141139811Y-96649715D01*
X141083377Y-96508765D01*
X141701992Y-96508765D01*
X141752589Y-96559363D01*
X141803187Y-96508765D01*
X141752589Y-96458167D01*
X141701992Y-96508765D01*
X141083377Y-96508765D01*
X141048606Y-96421920D01*
X141035363Y-96271280D01*
X141038507Y-96265025D01*
X141008927Y-96146413D01*
X140873555Y-95967632D01*
X140689733Y-95788296D01*
X140514803Y-95668021D01*
X140445592Y-95648606D01*
X140302687Y-95722888D01*
X140184063Y-95850996D01*
X140032069Y-96011260D01*
X139873463Y-96029048D01*
X139656956Y-95899892D01*
X139528459Y-95793921D01*
X139398708Y-95682337D01*
X139813014Y-95682337D01*
X139826905Y-95742498D01*
X139880478Y-95749801D01*
X139963773Y-95712775D01*
X139947941Y-95682337D01*
X139827846Y-95670226D01*
X139813014Y-95682337D01*
X139398708Y-95682337D01*
X139227037Y-95534702D01*
X139564008Y-95240493D01*
X139765200Y-95030774D01*
X139801414Y-94868873D01*
X139662196Y-94721760D01*
X139396754Y-94586056D01*
X139779283Y-94586056D01*
X139829880Y-94636653D01*
X139880478Y-94586056D01*
X139829880Y-94535458D01*
X139779283Y-94586056D01*
X139396754Y-94586056D01*
X139349203Y-94561746D01*
X139151628Y-94443568D01*
X139070916Y-94335237D01*
X138985058Y-94253172D01*
X138843227Y-94228287D01*
X138612862Y-94181275D01*
X139779283Y-94181275D01*
X139829880Y-94231873D01*
X139880478Y-94181275D01*
X139829880Y-94130677D01*
X139779283Y-94181275D01*
X138612862Y-94181275D01*
X138582222Y-94175022D01*
X138362550Y-94080080D01*
X138085700Y-93980057D01*
X138077561Y-93978885D01*
X139374502Y-93978885D01*
X139425099Y-94029482D01*
X139475697Y-93978885D01*
X139425099Y-93928287D01*
X139374502Y-93978885D01*
X138077561Y-93978885D01*
X137754692Y-93932391D01*
X137730079Y-93931873D01*
X137350597Y-93928287D01*
X137350597Y-94383665D01*
X137350597Y-94839044D01*
X136945816Y-94839044D01*
X136686597Y-94828044D01*
X136571390Y-94762226D01*
X136541897Y-94592362D01*
X136541036Y-94497251D01*
X136498350Y-94225156D01*
X136394990Y-94034542D01*
X136388694Y-94029027D01*
X136150339Y-93951304D01*
X135792403Y-93982684D01*
X135356614Y-94110037D01*
X134884700Y-94320229D01*
X134418389Y-94600129D01*
X134297117Y-94687251D01*
X134026506Y-94889642D01*
X134340399Y-95216599D01*
X134654292Y-95543555D01*
X134358023Y-95798347D01*
X134122455Y-95984612D01*
X133962406Y-96036444D01*
X133807194Y-95959365D01*
X133684257Y-95850996D01*
X133474662Y-95699203D01*
X134011155Y-95699203D01*
X134061753Y-95749801D01*
X134112350Y-95699203D01*
X134061753Y-95648606D01*
X134011155Y-95699203D01*
X133474662Y-95699203D01*
X133447793Y-95679744D01*
X133270770Y-95690021D01*
X133113478Y-95886918D01*
X133092199Y-95926893D01*
X132946893Y-96172936D01*
X132822111Y-96338902D01*
X132709837Y-96487078D01*
X132687875Y-96541292D01*
X132643041Y-96774023D01*
X132543559Y-97111711D01*
X132446328Y-97401387D01*
X132351785Y-97782134D01*
X132391728Y-98023880D01*
X132577766Y-98148444D01*
X132859801Y-98178486D01*
X133076797Y-98190933D01*
X133174590Y-98266683D01*
X133200635Y-98463347D01*
X133201593Y-98593457D01*
X133201593Y-99008427D01*
X132739005Y-98971636D01*
X132518064Y-98951386D01*
X132384483Y-98957160D01*
X132328615Y-99024834D01*
X131481063Y-99024834D01*
X131422304Y-98655692D01*
X131419899Y-98633865D01*
X132898008Y-98633865D01*
X132948605Y-98684462D01*
X132999203Y-98633865D01*
X132948605Y-98583267D01*
X132898008Y-98633865D01*
X131419899Y-98633865D01*
X131410786Y-98551168D01*
X131405970Y-98482072D01*
X132695617Y-98482072D01*
X132732643Y-98565367D01*
X132763081Y-98549535D01*
X132775192Y-98429440D01*
X132763081Y-98414608D01*
X132702920Y-98428499D01*
X132695617Y-98482072D01*
X131405970Y-98482072D01*
X131390002Y-98252975D01*
X131420601Y-98096488D01*
X131519759Y-98023932D01*
X131572245Y-98008091D01*
X131756480Y-97912253D01*
X131758605Y-97788072D01*
X131683665Y-97723108D01*
X131610172Y-97586016D01*
X131582470Y-97368924D01*
X131614278Y-97137461D01*
X131683665Y-97014741D01*
X131768283Y-96873384D01*
X131792256Y-96730482D01*
X131863724Y-96430979D01*
X132027321Y-96140370D01*
X132234884Y-95929913D01*
X132374377Y-95869257D01*
X132560682Y-95794188D01*
X132577196Y-95675289D01*
X132496262Y-95599884D01*
X132498490Y-95498752D01*
X132499758Y-95496813D01*
X132695617Y-95496813D01*
X132746215Y-95547410D01*
X132796812Y-95496813D01*
X134213546Y-95496813D01*
X134264143Y-95547410D01*
X134314741Y-95496813D01*
X134264143Y-95446215D01*
X134213546Y-95496813D01*
X132796812Y-95496813D01*
X132746215Y-95446215D01*
X132695617Y-95496813D01*
X132499758Y-95496813D01*
X132618866Y-95314691D01*
X132698652Y-95224719D01*
X132885317Y-94999618D01*
X132990596Y-94814906D01*
X132999203Y-94773438D01*
X133077051Y-94649004D01*
X133132063Y-94636653D01*
X133242665Y-94586056D01*
X133808765Y-94586056D01*
X133859362Y-94636653D01*
X133909960Y-94586056D01*
X133859362Y-94535458D01*
X133808765Y-94586056D01*
X133242665Y-94586056D01*
X133280908Y-94568561D01*
X133489762Y-94398688D01*
X133555777Y-94333068D01*
X133772324Y-94141621D01*
X133955695Y-94036442D01*
X133993633Y-94029482D01*
X134171489Y-93954865D01*
X134259993Y-93866251D01*
X134419827Y-93749367D01*
X134717072Y-93607834D01*
X134848120Y-93557238D01*
X138193891Y-93557238D01*
X138207782Y-93617398D01*
X138261354Y-93624701D01*
X138344649Y-93587676D01*
X138328818Y-93557238D01*
X138208723Y-93545127D01*
X138193891Y-93557238D01*
X134848120Y-93557238D01*
X135092058Y-93463057D01*
X135485116Y-93336444D01*
X135836575Y-93249399D01*
X136054386Y-93222533D01*
X136278588Y-93186581D01*
X136389243Y-93118725D01*
X136528348Y-93053208D01*
X136796469Y-93021064D01*
X137123296Y-93020560D01*
X137438524Y-93049960D01*
X137671844Y-93107530D01*
X137741067Y-93152078D01*
X137923811Y-93240280D01*
X138146255Y-93243547D01*
X138378229Y-93246577D01*
X138508331Y-93311389D01*
X138658346Y-93408113D01*
X138753128Y-93422311D01*
X138964946Y-93461159D01*
X139207905Y-93553920D01*
X139403709Y-93664916D01*
X139474907Y-93751195D01*
X139560578Y-93812933D01*
X139678087Y-93827092D01*
X139842526Y-93869470D01*
X139880478Y-93928287D01*
X139962572Y-94017759D01*
X140034145Y-94029482D01*
X140166399Y-94097695D01*
X140392549Y-94276009D01*
X140671660Y-94524938D01*
X140962801Y-94804995D01*
X141225040Y-95076693D01*
X141417444Y-95300545D01*
X141499081Y-95437065D01*
X141499601Y-95443184D01*
X141578735Y-95632408D01*
X141762107Y-95825019D01*
X141968678Y-95942961D01*
X142028067Y-95952191D01*
X142182638Y-95896501D01*
X142177177Y-95742653D01*
X142016091Y-95510478D01*
X141904382Y-95395618D01*
X141896626Y-95387185D01*
X142317152Y-95387185D01*
X142335758Y-95518436D01*
X142370302Y-95520003D01*
X142394459Y-95384565D01*
X142378291Y-95326046D01*
X142333357Y-95287715D01*
X142317152Y-95387185D01*
X141896626Y-95387185D01*
X141713972Y-95188600D01*
X141684112Y-95142630D01*
X142106773Y-95142630D01*
X142143798Y-95225925D01*
X142174236Y-95210093D01*
X142186347Y-95089998D01*
X142174236Y-95075166D01*
X142114076Y-95089057D01*
X142106773Y-95142630D01*
X141684112Y-95142630D01*
X141608357Y-95026004D01*
X141600797Y-94994279D01*
X141533064Y-94877797D01*
X141352008Y-94660370D01*
X141266875Y-94569190D01*
X141533333Y-94569190D01*
X141547224Y-94629350D01*
X141600797Y-94636653D01*
X141684092Y-94599628D01*
X141668260Y-94569190D01*
X141548165Y-94557079D01*
X141533333Y-94569190D01*
X141266875Y-94569190D01*
X141090842Y-94380655D01*
X140961681Y-94250360D01*
X140881537Y-94181275D01*
X141297211Y-94181275D01*
X141347808Y-94231873D01*
X141398406Y-94181275D01*
X141347808Y-94130677D01*
X141297211Y-94181275D01*
X140881537Y-94181275D01*
X140646749Y-93978885D01*
X141094820Y-93978885D01*
X141145418Y-94029482D01*
X141196016Y-93978885D01*
X141145418Y-93928287D01*
X141094820Y-93978885D01*
X140646749Y-93978885D01*
X140411959Y-93776494D01*
X140892430Y-93776494D01*
X140943028Y-93827092D01*
X140993625Y-93776494D01*
X140943028Y-93725896D01*
X140892430Y-93776494D01*
X140411959Y-93776494D01*
X140356874Y-93729010D01*
X140111504Y-93574104D01*
X140487649Y-93574104D01*
X140538247Y-93624701D01*
X140588844Y-93574104D01*
X140538247Y-93523506D01*
X140487649Y-93574104D01*
X140111504Y-93574104D01*
X139790919Y-93371713D01*
X140285259Y-93371713D01*
X140335856Y-93422311D01*
X140386454Y-93371713D01*
X140335856Y-93321116D01*
X140285259Y-93371713D01*
X139790919Y-93371713D01*
X139660564Y-93289418D01*
X139422961Y-93165435D01*
X139021306Y-92972371D01*
X139008834Y-92966932D01*
X139779283Y-92966932D01*
X139829880Y-93017530D01*
X139880478Y-92966932D01*
X139829880Y-92916335D01*
X139779283Y-92966932D01*
X139008834Y-92966932D01*
X138673080Y-92820513D01*
X138426652Y-92730172D01*
X138347730Y-92713944D01*
X138162743Y-92662245D01*
X138109561Y-92612749D01*
X137986518Y-92570030D01*
X137701353Y-92536716D01*
X137294249Y-92516302D01*
X136945816Y-92511554D01*
X136475455Y-92520435D01*
X136097911Y-92544748D01*
X135853367Y-92581000D01*
X135782071Y-92612749D01*
X135644227Y-92687755D01*
X135442708Y-92713944D01*
X135124039Y-92775758D01*
X134697044Y-92944226D01*
X134206719Y-93193885D01*
X133698058Y-93499275D01*
X133216058Y-93834933D01*
X132805714Y-94175399D01*
X132727561Y-94250360D01*
X132441931Y-94545867D01*
X132222171Y-94796861D01*
X132101548Y-94964276D01*
X132088446Y-95000821D01*
X132018072Y-95159007D01*
X131941559Y-95239753D01*
X131800637Y-95415278D01*
X131629024Y-95705903D01*
X131461618Y-96041402D01*
X131333320Y-96351544D01*
X131279030Y-96566100D01*
X131278884Y-96573259D01*
X131227442Y-96758637D01*
X131177689Y-96812351D01*
X131121128Y-96940955D01*
X131084399Y-97204180D01*
X131076494Y-97419522D01*
X131059093Y-97734687D01*
X131014402Y-97959980D01*
X130975299Y-98026693D01*
X130901805Y-98163785D01*
X130874103Y-98380877D01*
X130471094Y-98380877D01*
X130478119Y-97979812D01*
X130502942Y-97612263D01*
X130541440Y-97405285D01*
X130570518Y-97368924D01*
X130637859Y-97280074D01*
X130670998Y-97062063D01*
X130671713Y-97020713D01*
X130698527Y-96768655D01*
X130763980Y-96616831D01*
X130772908Y-96609960D01*
X130860264Y-96466121D01*
X130874103Y-96366547D01*
X130939265Y-96082813D01*
X131103379Y-95749158D01*
X131319390Y-95455816D01*
X131380758Y-95395004D01*
X131518392Y-95196340D01*
X131531872Y-95041434D01*
X131562550Y-94849415D01*
X131693848Y-94678931D01*
X131889473Y-94449496D01*
X131996360Y-94257171D01*
X132112906Y-94081082D01*
X132217197Y-94029482D01*
X132357406Y-93961597D01*
X132576654Y-93786814D01*
X132746215Y-93624701D01*
X132799994Y-93574104D01*
X133100398Y-93574104D01*
X133150996Y-93624701D01*
X133201593Y-93574104D01*
X133150996Y-93523506D01*
X133100398Y-93574104D01*
X132799994Y-93574104D01*
X132983473Y-93401483D01*
X133176720Y-93254469D01*
X133257044Y-93219920D01*
X133405763Y-93151249D01*
X133555777Y-93017530D01*
X133724530Y-92866521D01*
X133834454Y-92815140D01*
X133985332Y-92775361D01*
X134249226Y-92674786D01*
X134557348Y-92541557D01*
X134840913Y-92403816D01*
X134844643Y-92401851D01*
X135075366Y-92332847D01*
X135319348Y-92309163D01*
X135553559Y-92278107D01*
X135680876Y-92207968D01*
X135803886Y-92165082D01*
X136079847Y-92134058D01*
X136459667Y-92114894D01*
X136894257Y-92107592D01*
X137334524Y-92112151D01*
G37*
G36*
X164186673Y-92117447D02*
G01*
X164530811Y-92140032D01*
X164760934Y-92176180D01*
X164825099Y-92207968D01*
X164958114Y-92273314D01*
X165208711Y-92307642D01*
X165276887Y-92309163D01*
X165628365Y-92357983D01*
X165994887Y-92478298D01*
X166055178Y-92506862D01*
X166399791Y-92674559D01*
X166790744Y-92854664D01*
X166908352Y-92906633D01*
X167207870Y-93056515D01*
X167438656Y-93206386D01*
X167502615Y-93265509D01*
X167664015Y-93396268D01*
X167750310Y-93422311D01*
X167878697Y-93491875D01*
X168093279Y-93670455D01*
X168349143Y-93912884D01*
X168601376Y-94173995D01*
X168805063Y-94408620D01*
X168915293Y-94571592D01*
X168923506Y-94602146D01*
X168993619Y-94754695D01*
X169070810Y-94835318D01*
X169190662Y-94989639D01*
X169357745Y-95270716D01*
X169543686Y-95621780D01*
X169720114Y-95986063D01*
X169858654Y-96306798D01*
X169930936Y-96527215D01*
X169935458Y-96565319D01*
X170000567Y-96773808D01*
X170042606Y-96828423D01*
X170085759Y-96973983D01*
X170118802Y-97301753D01*
X170140483Y-97791747D01*
X170149555Y-98423978D01*
X170149754Y-98542989D01*
X170148409Y-99148331D01*
X170141624Y-99584086D01*
X170125272Y-99883054D01*
X170095225Y-100078036D01*
X170047356Y-100201831D01*
X169977537Y-100287239D01*
X169924545Y-100332771D01*
X169738519Y-100598814D01*
X169708269Y-100839440D01*
X169623774Y-101350320D01*
X169351825Y-101835140D01*
X169322013Y-101872112D01*
X169163267Y-102110594D01*
X169015270Y-102401382D01*
X169014413Y-102403387D01*
X168887052Y-102622703D01*
X168758369Y-102730099D01*
X168742303Y-102732271D01*
X168607488Y-102812551D01*
X168453831Y-103008509D01*
X168438122Y-103035217D01*
X168293511Y-103239734D01*
X168168944Y-103337429D01*
X168158175Y-103338802D01*
X168026139Y-103406736D01*
X167827024Y-103575679D01*
X167758698Y-103644137D01*
X167499600Y-103861251D01*
X167145993Y-104089208D01*
X166748891Y-104303035D01*
X166359307Y-104477762D01*
X166028253Y-104588415D01*
X165806742Y-104610024D01*
X165792909Y-104606431D01*
X165625298Y-104595311D01*
X165584063Y-104698758D01*
X165530507Y-104802529D01*
X165343078Y-104849997D01*
X165134657Y-104857371D01*
X164848656Y-104878329D01*
X164656595Y-104931108D01*
X164622709Y-104958566D01*
X164500122Y-105002690D01*
X164222655Y-105037001D01*
X163837753Y-105056781D01*
X163604784Y-105059761D01*
X163153319Y-105049609D01*
X162829302Y-105021364D01*
X162664054Y-104978343D01*
X162649402Y-104958566D01*
X162562987Y-104881834D01*
X162402386Y-104857371D01*
X162188116Y-104820059D01*
X162092828Y-104756175D01*
X161955173Y-104681549D01*
X161749823Y-104654980D01*
X161469685Y-104600527D01*
X161101131Y-104460060D01*
X160718467Y-104267918D01*
X160395994Y-104058440D01*
X160317095Y-103992852D01*
X160173906Y-103891248D01*
X160119522Y-103903521D01*
X160053025Y-103870959D01*
X159962608Y-103794821D01*
X160524303Y-103794821D01*
X160574900Y-103845418D01*
X160625498Y-103794821D01*
X160574900Y-103744223D01*
X160524303Y-103794821D01*
X159962608Y-103794821D01*
X159871288Y-103717922D01*
X159600945Y-103468279D01*
X159268628Y-103145897D01*
X159217502Y-103095151D01*
X159111316Y-102985259D01*
X159613546Y-102985259D01*
X159664143Y-103035857D01*
X159714741Y-102985259D01*
X159664143Y-102934661D01*
X159613546Y-102985259D01*
X159111316Y-102985259D01*
X158915750Y-102782869D01*
X159411155Y-102782869D01*
X159461753Y-102833466D01*
X159512350Y-102782869D01*
X159461753Y-102732271D01*
X159411155Y-102782869D01*
X158915750Y-102782869D01*
X158846818Y-102711532D01*
X158569116Y-102394099D01*
X158499327Y-102297994D01*
X158743956Y-102297994D01*
X158757708Y-102334483D01*
X158855397Y-102424213D01*
X158903200Y-102322013D01*
X158905179Y-102270920D01*
X158855391Y-102166694D01*
X158802333Y-102176717D01*
X158743956Y-102297994D01*
X158499327Y-102297994D01*
X158404142Y-102166918D01*
X158368169Y-102060010D01*
X158359924Y-101938937D01*
X158317605Y-101922709D01*
X158219985Y-101836622D01*
X158076020Y-101612978D01*
X158052227Y-101568526D01*
X158399203Y-101568526D01*
X158449801Y-101619124D01*
X158500398Y-101568526D01*
X158449801Y-101517928D01*
X158399203Y-101568526D01*
X158052227Y-101568526D01*
X157970981Y-101416733D01*
X158196812Y-101416733D01*
X158233838Y-101500028D01*
X158264276Y-101484197D01*
X158276387Y-101364102D01*
X158264276Y-101349270D01*
X158204116Y-101363161D01*
X158196812Y-101416733D01*
X157970981Y-101416733D01*
X157910484Y-101303705D01*
X157748150Y-100960732D01*
X157706539Y-100860159D01*
X157994422Y-100860159D01*
X158045020Y-100910757D01*
X158095617Y-100860159D01*
X158045020Y-100809562D01*
X157994422Y-100860159D01*
X157706539Y-100860159D01*
X157613789Y-100635986D01*
X157532176Y-100381394D01*
X157529608Y-100345750D01*
X157800021Y-100345750D01*
X157818626Y-100477002D01*
X157853170Y-100478569D01*
X157877327Y-100343130D01*
X157861159Y-100284612D01*
X157816226Y-100246281D01*
X157800021Y-100345750D01*
X157529608Y-100345750D01*
X157523259Y-100257631D01*
X157522947Y-100094184D01*
X157484026Y-100047866D01*
X157444708Y-99926599D01*
X157415596Y-99646895D01*
X157396533Y-99252443D01*
X157387361Y-98786931D01*
X157387823Y-98380877D01*
X157792032Y-98380877D01*
X157800912Y-98851238D01*
X157825226Y-99228782D01*
X157861477Y-99473326D01*
X157893227Y-99544622D01*
X157972277Y-99684465D01*
X157994422Y-99848207D01*
X158032621Y-100060110D01*
X158095617Y-100151793D01*
X158184659Y-100296412D01*
X158196812Y-100384558D01*
X158239855Y-100553016D01*
X158353693Y-100843369D01*
X158515398Y-101198131D01*
X158547646Y-101264044D01*
X158793024Y-101675268D01*
X159133686Y-102134819D01*
X159527567Y-102595734D01*
X159932601Y-103011055D01*
X160306723Y-103333818D01*
X160536200Y-103484036D01*
X160764596Y-103549125D01*
X160927823Y-103507480D01*
X160974144Y-103390040D01*
X167405577Y-103390040D01*
X167456175Y-103440638D01*
X167506773Y-103390040D01*
X167456175Y-103339442D01*
X167405577Y-103390040D01*
X160974144Y-103390040D01*
X160975484Y-103386643D01*
X160917940Y-103275418D01*
X160760300Y-103155016D01*
X160689003Y-103136761D01*
X160561863Y-103059651D01*
X160398236Y-102870693D01*
X160372510Y-102833466D01*
X160216019Y-102632840D01*
X160093888Y-102532725D01*
X160080698Y-102530172D01*
X159958422Y-102457317D01*
X159783856Y-102285043D01*
X159617406Y-102082044D01*
X159519476Y-101917011D01*
X159512474Y-101883981D01*
X159445491Y-101752373D01*
X159335259Y-101630993D01*
X159196221Y-101458898D01*
X160937072Y-101458898D01*
X160955678Y-101590150D01*
X160990222Y-101591717D01*
X161014379Y-101456278D01*
X160998211Y-101397759D01*
X160953277Y-101359428D01*
X160937072Y-101458898D01*
X159196221Y-101458898D01*
X159160124Y-101414218D01*
X158981006Y-101115966D01*
X159334563Y-101115966D01*
X159368952Y-101227925D01*
X159446554Y-101304546D01*
X159490821Y-101228333D01*
X159491579Y-101070353D01*
X159472294Y-101039359D01*
X159374971Y-101015780D01*
X159334563Y-101115966D01*
X158981006Y-101115966D01*
X158972879Y-101102433D01*
X158811785Y-100770032D01*
X158791364Y-100711185D01*
X159132172Y-100711185D01*
X159166561Y-100823144D01*
X159244163Y-100899765D01*
X159288431Y-100823552D01*
X159289188Y-100665572D01*
X159269903Y-100634578D01*
X159172581Y-100610999D01*
X159132172Y-100711185D01*
X158791364Y-100711185D01*
X158715100Y-100491410D01*
X158710183Y-100455379D01*
X159006374Y-100455379D01*
X159056972Y-100505976D01*
X159107569Y-100455379D01*
X159056972Y-100404781D01*
X159006374Y-100455379D01*
X158710183Y-100455379D01*
X158702789Y-100401190D01*
X158654054Y-100211467D01*
X158601593Y-100151793D01*
X158528100Y-100014701D01*
X158500398Y-99797610D01*
X158479538Y-99645817D01*
X158823712Y-99645817D01*
X158834650Y-99818640D01*
X158866329Y-99833856D01*
X158870361Y-99824834D01*
X158890380Y-99623943D01*
X158874111Y-99521249D01*
X158841899Y-99479981D01*
X158824379Y-99614392D01*
X158823712Y-99645817D01*
X158479538Y-99645817D01*
X158468590Y-99566146D01*
X158399203Y-99443426D01*
X158352843Y-99319922D01*
X158317657Y-99045579D01*
X158299363Y-98671876D01*
X158298008Y-98532669D01*
X158309324Y-98137091D01*
X158339460Y-97823534D01*
X158382695Y-97643476D01*
X158399203Y-97621912D01*
X158403646Y-97613801D01*
X159109142Y-97613801D01*
X159133431Y-97890623D01*
X159168994Y-98018417D01*
X159320883Y-98143226D01*
X159573775Y-98178486D01*
X159803542Y-98204646D01*
X159915116Y-98268719D01*
X159917131Y-98279681D01*
X159835974Y-98371258D01*
X159776165Y-98380877D01*
X159619167Y-98462355D01*
X159578266Y-98529241D01*
X159578281Y-98626416D01*
X159715360Y-98636024D01*
X159820427Y-98617787D01*
X160029358Y-98596166D01*
X160119442Y-98626825D01*
X160119522Y-98628443D01*
X160030440Y-98794778D01*
X159811097Y-98928855D01*
X159533344Y-98987833D01*
X159516403Y-98988048D01*
X159258325Y-99036746D01*
X159142820Y-99143343D01*
X159132289Y-99358606D01*
X159192231Y-99683562D01*
X159302666Y-100046856D01*
X159443609Y-100377131D01*
X159528785Y-100521598D01*
X159658453Y-100735464D01*
X159714674Y-100880836D01*
X159714741Y-100883440D01*
X159782119Y-101009854D01*
X159946530Y-101194081D01*
X159968410Y-101214983D01*
X160222080Y-101453293D01*
X160418678Y-101264940D01*
X160726693Y-101264940D01*
X160777291Y-101315538D01*
X160827888Y-101264940D01*
X160777291Y-101214343D01*
X160726693Y-101264940D01*
X160418678Y-101264940D01*
X160523479Y-101164534D01*
X160824879Y-100875775D01*
X161079248Y-101171553D01*
X161261980Y-101396404D01*
X161316305Y-101536865D01*
X161248064Y-101660000D01*
X161131474Y-101770916D01*
X160979472Y-101952511D01*
X160929083Y-102083017D01*
X161012184Y-102221387D01*
X161222578Y-102402684D01*
X161501906Y-102589244D01*
X161791808Y-102743405D01*
X162033924Y-102827503D01*
X162091929Y-102833466D01*
X162304190Y-102871529D01*
X162396414Y-102934661D01*
X162525766Y-102992712D01*
X162787083Y-103029316D01*
X162972201Y-103035857D01*
X163485445Y-103035857D01*
X163429571Y-102691543D01*
X163405181Y-102469946D01*
X163462212Y-102365070D01*
X163650694Y-102321616D01*
X163775771Y-102308885D01*
X164040561Y-102294921D01*
X164205121Y-102307340D01*
X164223185Y-102315882D01*
X164250838Y-102435883D01*
X164266892Y-102684266D01*
X164268526Y-102803295D01*
X164275870Y-103072838D01*
X164315222Y-103180399D01*
X164412565Y-103166300D01*
X164480341Y-103132008D01*
X164749825Y-103064407D01*
X164925169Y-103077129D01*
X165143718Y-103070426D01*
X165215547Y-102985259D01*
X167810358Y-102985259D01*
X167860956Y-103035857D01*
X167911554Y-102985259D01*
X167860956Y-102934661D01*
X167810358Y-102985259D01*
X165215547Y-102985259D01*
X165216154Y-102984539D01*
X165353988Y-102856828D01*
X165464145Y-102833466D01*
X165757140Y-102767385D01*
X166084193Y-102606882D01*
X168259029Y-102606882D01*
X168358499Y-102623087D01*
X168489751Y-102604481D01*
X168491318Y-102569937D01*
X168355879Y-102545780D01*
X168297360Y-102561948D01*
X168259029Y-102606882D01*
X166084193Y-102606882D01*
X166097087Y-102600554D01*
X166392745Y-102380093D01*
X166444502Y-102327182D01*
X166562899Y-102175433D01*
X166552858Y-102058597D01*
X166410269Y-101889828D01*
X166221646Y-101578560D01*
X166232943Y-101265975D01*
X166332103Y-101087849D01*
X166502741Y-100937414D01*
X166688509Y-100951133D01*
X166924750Y-101135512D01*
X166996986Y-101210264D01*
X167276767Y-101509770D01*
X167492965Y-101279638D01*
X167645763Y-101086305D01*
X167656438Y-101062550D01*
X168012749Y-101062550D01*
X168063346Y-101113147D01*
X168113944Y-101062550D01*
X168063346Y-101011952D01*
X168012749Y-101062550D01*
X167656438Y-101062550D01*
X167709163Y-100945218D01*
X167777349Y-100803972D01*
X167901222Y-100667119D01*
X168000849Y-100552843D01*
X168079209Y-100389574D01*
X168148194Y-100136532D01*
X168219699Y-99752937D01*
X168280249Y-99367530D01*
X168307790Y-99120267D01*
X168257753Y-99013690D01*
X168084076Y-98988563D01*
X167985171Y-98988048D01*
X167688039Y-98940187D01*
X167492487Y-98818897D01*
X167437341Y-98657613D01*
X167457082Y-98616999D01*
X167641700Y-98616999D01*
X167655591Y-98677159D01*
X167709163Y-98684462D01*
X167792458Y-98647436D01*
X167776627Y-98616999D01*
X167656531Y-98604888D01*
X167641700Y-98616999D01*
X167457082Y-98616999D01*
X167485776Y-98557968D01*
X167523837Y-98482072D01*
X168012749Y-98482072D01*
X168049774Y-98565367D01*
X168080212Y-98549535D01*
X168092323Y-98429440D01*
X168080212Y-98414608D01*
X168020052Y-98428499D01*
X168012749Y-98482072D01*
X167523837Y-98482072D01*
X167570259Y-98389505D01*
X167574064Y-98330279D01*
X167651757Y-98257300D01*
X167865064Y-98204836D01*
X167926100Y-98198317D01*
X168181021Y-98142844D01*
X168324701Y-98014245D01*
X168357185Y-97791515D01*
X168278520Y-97453650D01*
X168088752Y-96979642D01*
X167929489Y-96637580D01*
X167865432Y-96508765D01*
X168822310Y-96508765D01*
X168872908Y-96559363D01*
X168923506Y-96508765D01*
X168872908Y-96458167D01*
X168822310Y-96508765D01*
X167865432Y-96508765D01*
X167730311Y-96237046D01*
X167557420Y-95914556D01*
X167549547Y-95901594D01*
X167810358Y-95901594D01*
X167860956Y-95952191D01*
X167911554Y-95901594D01*
X167860956Y-95850996D01*
X167810358Y-95901594D01*
X167549547Y-95901594D01*
X167431813Y-95707762D01*
X167379358Y-95650926D01*
X167264712Y-95713460D01*
X167070186Y-95872829D01*
X166994893Y-95942609D01*
X166687247Y-96236613D01*
X166439241Y-95988607D01*
X166238666Y-95736373D01*
X166234503Y-95699203D01*
X166798406Y-95699203D01*
X166849004Y-95749801D01*
X166899601Y-95699203D01*
X166849004Y-95648606D01*
X166798406Y-95699203D01*
X166234503Y-95699203D01*
X166215440Y-95528988D01*
X166366483Y-95319607D01*
X166393625Y-95294422D01*
X167203187Y-95294422D01*
X167253785Y-95345020D01*
X167304382Y-95294422D01*
X167253785Y-95243825D01*
X167607968Y-95243825D01*
X167644994Y-95327120D01*
X167675431Y-95311288D01*
X167687542Y-95191193D01*
X167675431Y-95176361D01*
X167615271Y-95190252D01*
X167607968Y-95243825D01*
X167253785Y-95243825D01*
X167203187Y-95294422D01*
X166393625Y-95294422D01*
X166572305Y-95060364D01*
X166568910Y-94833471D01*
X166377624Y-94599654D01*
X166004289Y-94351355D01*
X165811908Y-94270457D01*
X165713172Y-94271423D01*
X165596696Y-94266757D01*
X165385666Y-94183158D01*
X165365871Y-94173104D01*
X165258916Y-94130677D01*
X166545418Y-94130677D01*
X166553441Y-94223927D01*
X166590043Y-94231873D01*
X166693093Y-94158414D01*
X166697211Y-94130677D01*
X166662685Y-94032113D01*
X166652585Y-94029482D01*
X166566188Y-94100393D01*
X166545418Y-94130677D01*
X165258916Y-94130677D01*
X165139487Y-94083302D01*
X164990248Y-94072266D01*
X164985386Y-94074830D01*
X164857722Y-94054655D01*
X164782247Y-93988217D01*
X164762793Y-93978885D01*
X165685259Y-93978885D01*
X165735856Y-94029482D01*
X165786454Y-93978885D01*
X166090040Y-93978885D01*
X166140637Y-94029482D01*
X166191235Y-93978885D01*
X166140637Y-93928287D01*
X166090040Y-93978885D01*
X165786454Y-93978885D01*
X165735856Y-93928287D01*
X165685259Y-93978885D01*
X164762793Y-93978885D01*
X164592495Y-93897195D01*
X164351429Y-93941744D01*
X164165732Y-94082006D01*
X164112282Y-94224656D01*
X164162417Y-94279433D01*
X164244624Y-94421519D01*
X164268526Y-94592028D01*
X164245443Y-94751337D01*
X164138424Y-94822132D01*
X163890808Y-94838990D01*
X163863745Y-94839044D01*
X163604481Y-94827859D01*
X163489249Y-94762262D01*
X163459792Y-94594189D01*
X163459716Y-94586056D01*
X163863745Y-94586056D01*
X163914342Y-94636653D01*
X163964940Y-94586056D01*
X163914342Y-94535458D01*
X163863745Y-94586056D01*
X163459716Y-94586056D01*
X163458964Y-94505100D01*
X163424184Y-94236948D01*
X163340241Y-94052516D01*
X163337530Y-94049721D01*
X163149752Y-93958405D01*
X162896858Y-93931728D01*
X162675900Y-93971989D01*
X162597146Y-94032166D01*
X162452507Y-94119934D01*
X162414082Y-94119857D01*
X162067496Y-94153879D01*
X161671952Y-94315845D01*
X161303248Y-94574330D01*
X161290898Y-94585528D01*
X161031430Y-94860747D01*
X160943261Y-95071232D01*
X161019739Y-95248667D01*
X161131474Y-95345020D01*
X161296406Y-95507008D01*
X161303257Y-95673248D01*
X161146405Y-95887640D01*
X161049608Y-95984270D01*
X160765352Y-96256605D01*
X160474102Y-95952605D01*
X160217525Y-95730088D01*
X160138691Y-95699203D01*
X160726693Y-95699203D01*
X160777291Y-95749801D01*
X160827888Y-95699203D01*
X160777291Y-95648606D01*
X160726693Y-95699203D01*
X160138691Y-95699203D01*
X160027629Y-95655692D01*
X159927177Y-95735090D01*
X159917131Y-95813828D01*
X159847575Y-96009580D01*
X159740040Y-96143793D01*
X159485891Y-96455590D01*
X159333675Y-96794030D01*
X159309960Y-96956798D01*
X159263800Y-97151093D01*
X159208765Y-97217132D01*
X159135699Y-97360179D01*
X159109142Y-97613801D01*
X158403646Y-97613801D01*
X158474897Y-97483726D01*
X158500398Y-97289018D01*
X158545993Y-97043252D01*
X158664647Y-96711633D01*
X158829162Y-96348712D01*
X159012341Y-96009041D01*
X159186985Y-95747173D01*
X159325898Y-95617659D01*
X159335259Y-95614482D01*
X159479840Y-95482918D01*
X159512350Y-95333025D01*
X159579876Y-95147516D01*
X159750989Y-94892974D01*
X159978498Y-94622972D01*
X160128089Y-94476428D01*
X160937072Y-94476428D01*
X160955678Y-94607679D01*
X160990222Y-94609246D01*
X161014379Y-94473808D01*
X160998211Y-94415289D01*
X160953277Y-94376958D01*
X160937072Y-94476428D01*
X160128089Y-94476428D01*
X160215210Y-94391082D01*
X160413930Y-94250876D01*
X160482384Y-94231873D01*
X160596878Y-94181275D01*
X161131474Y-94181275D01*
X161182071Y-94231873D01*
X161232669Y-94181275D01*
X161182071Y-94130677D01*
X161131474Y-94181275D01*
X160596878Y-94181275D01*
X160641759Y-94161441D01*
X160722621Y-94084986D01*
X160898146Y-93944064D01*
X160927660Y-93926636D01*
X161385482Y-93926636D01*
X161407468Y-94014640D01*
X161479685Y-94029482D01*
X161618467Y-94006015D01*
X161637450Y-93984857D01*
X161563297Y-93890400D01*
X161429868Y-93888295D01*
X161385482Y-93926636D01*
X160927660Y-93926636D01*
X161181924Y-93776494D01*
X162143426Y-93776494D01*
X162194024Y-93827092D01*
X162244621Y-93776494D01*
X165280478Y-93776494D01*
X165331075Y-93827092D01*
X165381673Y-93776494D01*
X165331075Y-93725896D01*
X165280478Y-93776494D01*
X162244621Y-93776494D01*
X162194024Y-93725896D01*
X162143426Y-93776494D01*
X161181924Y-93776494D01*
X161188772Y-93772450D01*
X161524270Y-93605045D01*
X161568409Y-93586786D01*
X162736555Y-93586786D01*
X162870965Y-93604306D01*
X162902390Y-93604973D01*
X162972954Y-93600507D01*
X164919587Y-93600507D01*
X165019057Y-93616712D01*
X165150309Y-93598107D01*
X165151876Y-93563562D01*
X165016437Y-93539405D01*
X164957918Y-93555573D01*
X164919587Y-93600507D01*
X162972954Y-93600507D01*
X163075214Y-93594035D01*
X163090430Y-93562356D01*
X163081408Y-93558324D01*
X162880516Y-93538305D01*
X162777822Y-93554574D01*
X162736555Y-93586786D01*
X161568409Y-93586786D01*
X161834412Y-93476747D01*
X162048968Y-93422457D01*
X162056128Y-93422311D01*
X162238464Y-93371713D01*
X163661354Y-93371713D01*
X163711952Y-93422311D01*
X163762550Y-93371713D01*
X163711952Y-93321116D01*
X163661354Y-93371713D01*
X162238464Y-93371713D01*
X162241505Y-93370869D01*
X162295219Y-93321116D01*
X162423823Y-93264554D01*
X162687048Y-93227826D01*
X162902390Y-93219920D01*
X163217555Y-93202520D01*
X163442848Y-93157829D01*
X163509561Y-93118725D01*
X163642450Y-93053630D01*
X163893460Y-93019172D01*
X163964940Y-93017530D01*
X164232389Y-93041399D01*
X164402725Y-93100573D01*
X164420318Y-93118725D01*
X164551571Y-93180562D01*
X164807634Y-93216357D01*
X164926295Y-93219920D01*
X165210384Y-93241152D01*
X165400230Y-93294539D01*
X165432271Y-93321116D01*
X165571761Y-93399449D01*
X165741829Y-93422311D01*
X165929246Y-93449404D01*
X165988844Y-93499634D01*
X166072886Y-93583412D01*
X166284073Y-93702218D01*
X166387143Y-93749513D01*
X166720143Y-93936252D01*
X167053388Y-94186192D01*
X167127539Y-94254062D01*
X167378111Y-94480652D01*
X167602563Y-94656796D01*
X167665296Y-94697184D01*
X167875197Y-94880324D01*
X167962151Y-95006245D01*
X168115841Y-95251555D01*
X168321136Y-95511243D01*
X168538614Y-95744261D01*
X168728852Y-95909561D01*
X168852428Y-95966094D01*
X168872019Y-95953630D01*
X168879035Y-95775226D01*
X168779250Y-95508369D01*
X168602696Y-95213732D01*
X168379404Y-94951991D01*
X168373469Y-94946380D01*
X168199093Y-94755267D01*
X168115258Y-94609742D01*
X168113944Y-94597982D01*
X168044669Y-94462300D01*
X167872649Y-94253408D01*
X167802633Y-94181275D01*
X168215139Y-94181275D01*
X168265737Y-94231873D01*
X168316334Y-94181275D01*
X168265737Y-94130677D01*
X168215139Y-94181275D01*
X167802633Y-94181275D01*
X167651592Y-94025667D01*
X167435207Y-93833437D01*
X167347305Y-93776494D01*
X167607968Y-93776494D01*
X167658565Y-93827092D01*
X167709163Y-93776494D01*
X167658565Y-93725896D01*
X167607968Y-93776494D01*
X167347305Y-93776494D01*
X167277201Y-93731080D01*
X167252329Y-93725896D01*
X167097992Y-93663570D01*
X166977852Y-93574104D01*
X167405577Y-93574104D01*
X167456175Y-93624701D01*
X167506773Y-93574104D01*
X167456175Y-93523506D01*
X167405577Y-93574104D01*
X166977852Y-93574104D01*
X166943879Y-93548805D01*
X166693677Y-93365092D01*
X166365900Y-93176521D01*
X166314931Y-93152457D01*
X166832138Y-93152457D01*
X166846029Y-93212617D01*
X166899601Y-93219920D01*
X166982896Y-93182895D01*
X166967065Y-93152457D01*
X166846970Y-93140346D01*
X166832138Y-93152457D01*
X166314931Y-93152457D01*
X166031338Y-93018563D01*
X165760778Y-92926689D01*
X165681668Y-92916335D01*
X165491945Y-92867600D01*
X165432271Y-92815140D01*
X165292427Y-92736089D01*
X165128685Y-92713944D01*
X164916782Y-92675746D01*
X164825099Y-92612749D01*
X164702329Y-92569062D01*
X164422251Y-92535071D01*
X164029876Y-92515064D01*
X163762550Y-92511554D01*
X163324845Y-92521245D01*
X162972747Y-92547462D01*
X162751267Y-92585917D01*
X162700000Y-92612749D01*
X162565192Y-92681671D01*
X162320865Y-92713665D01*
X162295219Y-92713944D01*
X162043580Y-92743502D01*
X161891131Y-92815453D01*
X161885370Y-92823339D01*
X161747205Y-92885288D01*
X161575812Y-92872009D01*
X161394003Y-92860606D01*
X161333864Y-92911878D01*
X161249823Y-93009779D01*
X161036811Y-93143051D01*
X160903785Y-93208700D01*
X160577936Y-93390993D01*
X160291344Y-93605618D01*
X160228376Y-93666608D01*
X160038705Y-93841722D01*
X159896535Y-93926752D01*
X159884415Y-93928287D01*
X159757542Y-93997771D01*
X159560288Y-94168218D01*
X159348790Y-94382622D01*
X159179187Y-94583975D01*
X159107617Y-94715272D01*
X159107569Y-94717149D01*
X159039472Y-94844567D01*
X158893566Y-95000452D01*
X158698339Y-95229911D01*
X158592485Y-95420916D01*
X158468035Y-95597293D01*
X158351110Y-95648606D01*
X158236854Y-95723412D01*
X158197104Y-95964024D01*
X158196812Y-95996817D01*
X158169998Y-96248875D01*
X158104545Y-96400699D01*
X158095617Y-96407570D01*
X158026695Y-96542378D01*
X157994702Y-96786704D01*
X157994422Y-96812351D01*
X157967156Y-97062295D01*
X157900759Y-97211531D01*
X157893227Y-97217132D01*
X157850507Y-97340175D01*
X157817194Y-97625340D01*
X157796780Y-98032444D01*
X157792032Y-98380877D01*
X157387823Y-98380877D01*
X157387922Y-98294049D01*
X157398060Y-97817483D01*
X157417616Y-97400922D01*
X157446433Y-97088056D01*
X157484353Y-96922572D01*
X157495345Y-96909282D01*
X157564607Y-96770425D01*
X157553850Y-96713251D01*
X157567976Y-96533153D01*
X157599918Y-96488369D01*
X157700469Y-96312910D01*
X157734817Y-96197751D01*
X157860115Y-95784019D01*
X158037757Y-95459545D01*
X158135673Y-95353769D01*
X158269581Y-95188640D01*
X158298008Y-95095325D01*
X158366953Y-94940109D01*
X158500398Y-94788446D01*
X158803984Y-94788446D01*
X158854581Y-94839044D01*
X158905179Y-94788446D01*
X158854581Y-94737849D01*
X158803984Y-94788446D01*
X158500398Y-94788446D01*
X158652004Y-94612031D01*
X158702789Y-94489714D01*
X158772910Y-94354173D01*
X158947048Y-94146492D01*
X159170867Y-93920567D01*
X159390027Y-93730295D01*
X159550191Y-93629574D01*
X159574874Y-93624701D01*
X159709305Y-93557238D01*
X159950863Y-93557238D01*
X159964754Y-93617398D01*
X160018326Y-93624701D01*
X160101622Y-93587676D01*
X160085790Y-93557238D01*
X159965695Y-93545127D01*
X159950863Y-93557238D01*
X159709305Y-93557238D01*
X159709708Y-93557036D01*
X159897525Y-93392283D01*
X159915135Y-93373838D01*
X160178230Y-93159395D01*
X160563933Y-92922739D01*
X161013856Y-92691635D01*
X161469612Y-92493851D01*
X161872811Y-92357153D01*
X162153906Y-92309163D01*
X162417804Y-92284663D01*
X162583913Y-92224127D01*
X162598804Y-92207968D01*
X162723141Y-92162738D01*
X162996755Y-92131070D01*
X163366987Y-92112966D01*
X163781179Y-92108425D01*
X164186673Y-92117447D01*
G37*
G36*
X152784776Y-81076528D02*
G01*
X155392441Y-81076661D01*
X157811897Y-81076941D01*
X160050234Y-81077414D01*
X162114543Y-81078127D01*
X164011913Y-81079128D01*
X165749436Y-81080464D01*
X167334202Y-81082181D01*
X168773302Y-81084327D01*
X170073826Y-81086948D01*
X171242865Y-81090093D01*
X172287508Y-81093807D01*
X173214848Y-81098138D01*
X174031973Y-81103134D01*
X174745975Y-81108840D01*
X175363944Y-81115304D01*
X175892971Y-81122574D01*
X176340145Y-81130696D01*
X176712559Y-81139717D01*
X177017302Y-81149685D01*
X177261464Y-81160646D01*
X177452136Y-81172648D01*
X177596409Y-81185737D01*
X177701373Y-81199961D01*
X177774119Y-81215366D01*
X177821737Y-81232000D01*
X177851318Y-81249911D01*
X177863599Y-81261554D01*
X177911155Y-81332736D01*
X177948875Y-81444082D01*
X177977859Y-81617461D01*
X177999207Y-81874739D01*
X178014018Y-82237785D01*
X178023392Y-82728466D01*
X178028429Y-83368648D01*
X178030230Y-84180200D01*
X178030286Y-84575697D01*
X178029496Y-87704781D01*
X177757123Y-87831275D01*
X177691363Y-87844600D01*
X177549420Y-87857015D01*
X177325229Y-87868548D01*
X177012723Y-87879227D01*
X176605836Y-87889078D01*
X176098505Y-87898128D01*
X175484661Y-87906406D01*
X174758241Y-87913939D01*
X173913178Y-87920752D01*
X172943407Y-87926875D01*
X171842862Y-87932335D01*
X170605477Y-87937158D01*
X169225186Y-87941372D01*
X167695925Y-87945004D01*
X166011627Y-87948081D01*
X164166227Y-87950632D01*
X162153658Y-87952683D01*
X159967856Y-87954261D01*
X157602755Y-87955394D01*
X155052289Y-87956109D01*
X152310392Y-87956433D01*
X149954526Y-87956429D01*
X122424303Y-87955088D01*
X122243022Y-87728739D01*
X122227680Y-87704781D01*
X122677291Y-87704781D01*
X122727888Y-87755379D01*
X122778486Y-87704781D01*
X122727888Y-87654183D01*
X122677291Y-87704781D01*
X122227680Y-87704781D01*
X122087761Y-87486287D01*
X122017526Y-87316252D01*
X123621425Y-87316252D01*
X123758536Y-87329302D01*
X123759167Y-87329334D01*
X124037177Y-87364782D01*
X124219716Y-87427739D01*
X124245816Y-87451793D01*
X124355054Y-87464534D01*
X124666127Y-87476429D01*
X125178481Y-87487476D01*
X125891563Y-87497671D01*
X126804819Y-87507012D01*
X127917695Y-87515498D01*
X129229638Y-87523125D01*
X130740094Y-87529892D01*
X132448510Y-87535795D01*
X134354331Y-87540833D01*
X136457004Y-87545003D01*
X138755976Y-87548303D01*
X141250693Y-87550730D01*
X143940601Y-87552282D01*
X146825146Y-87552957D01*
X147627884Y-87552988D01*
X150575054Y-87553427D01*
X153324717Y-87554743D01*
X155876530Y-87556934D01*
X158230151Y-87559998D01*
X160385237Y-87563935D01*
X162341445Y-87568743D01*
X164098433Y-87574421D01*
X165655857Y-87580966D01*
X167013377Y-87588377D01*
X168170647Y-87596654D01*
X169127327Y-87605793D01*
X169883073Y-87615795D01*
X170437543Y-87626657D01*
X170790394Y-87638378D01*
X170941283Y-87650957D01*
X170947410Y-87654183D01*
X171034011Y-87730254D01*
X171200398Y-87755379D01*
X171390575Y-87720738D01*
X171453386Y-87654183D01*
X171552780Y-87618162D01*
X171843996Y-87589559D01*
X172316585Y-87568854D01*
X172960097Y-87556526D01*
X173659442Y-87552988D01*
X174315990Y-87548837D01*
X174902143Y-87537205D01*
X175387733Y-87519323D01*
X175742590Y-87496422D01*
X175936545Y-87469736D01*
X175961633Y-87459008D01*
X176121041Y-87384254D01*
X176381662Y-87327264D01*
X176411952Y-87323410D01*
X176411854Y-87311795D01*
X176231398Y-87300222D01*
X175892612Y-87289252D01*
X175417529Y-87279449D01*
X174828178Y-87271374D01*
X174147709Y-87265597D01*
X171529283Y-87249402D01*
X171592530Y-86933167D01*
X171638906Y-86591374D01*
X171655777Y-86275398D01*
X171673517Y-86043491D01*
X171767837Y-85950592D01*
X171990878Y-85933865D01*
X172377741Y-85841661D01*
X172504905Y-85735365D01*
X173078587Y-85735365D01*
X173161988Y-86143748D01*
X173282245Y-86375596D01*
X173470113Y-86555408D01*
X173709252Y-86631351D01*
X173933426Y-86642231D01*
X174277319Y-86618962D01*
X174580201Y-86561200D01*
X174637041Y-86542555D01*
X174750672Y-86471987D01*
X175216675Y-86471987D01*
X175319044Y-86621992D01*
X175560281Y-86739169D01*
X175831241Y-86693297D01*
X176062033Y-86497503D01*
X176073771Y-86480219D01*
X176175842Y-86204965D01*
X176121396Y-85993240D01*
X175953458Y-85874763D01*
X175715057Y-85879254D01*
X175449221Y-86036435D01*
X175441570Y-86043541D01*
X175241622Y-86280301D01*
X175216675Y-86471987D01*
X174750672Y-86471987D01*
X174858382Y-86405096D01*
X174981074Y-86228677D01*
X174965159Y-86073705D01*
X174954821Y-86062125D01*
X174826324Y-86026917D01*
X174557507Y-86000852D01*
X174259251Y-85990593D01*
X173913954Y-85981963D01*
X173721907Y-85951094D01*
X173633978Y-85877724D01*
X173601037Y-85741592D01*
X173598202Y-85717977D01*
X173591530Y-85554531D01*
X173656441Y-85485497D01*
X173843981Y-85484021D01*
X174009950Y-85501382D01*
X174304764Y-85517099D01*
X174496980Y-85454754D01*
X174682064Y-85277903D01*
X174723900Y-85228828D01*
X174936206Y-84913432D01*
X174976139Y-84642627D01*
X174847284Y-84361011D01*
X174785484Y-84277791D01*
X174503365Y-84056699D01*
X174169419Y-84002602D01*
X173822537Y-84101572D01*
X173501610Y-84339684D01*
X173245531Y-84703012D01*
X173180143Y-84852604D01*
X173082889Y-85278873D01*
X173078587Y-85735365D01*
X172504905Y-85735365D01*
X172685126Y-85584718D01*
X172890400Y-85192542D01*
X172970933Y-84694638D01*
X172971314Y-84655684D01*
X172903549Y-84210803D01*
X172681334Y-83805167D01*
X172536248Y-83631673D01*
X172233156Y-83435256D01*
X171864748Y-83388614D01*
X171497561Y-83487971D01*
X171216806Y-83706525D01*
X171026683Y-84051385D01*
X170900271Y-84521723D01*
X170850638Y-85047067D01*
X170882517Y-85509288D01*
X170905143Y-85810755D01*
X170902292Y-86216131D01*
X170880333Y-86566335D01*
X170842682Y-86927713D01*
X170798754Y-87132070D01*
X170725887Y-87224112D01*
X170601418Y-87248545D01*
X170534070Y-87249402D01*
X170305837Y-87216669D01*
X170188446Y-87148207D01*
X170077444Y-87132689D01*
X169765091Y-87118437D01*
X169252422Y-87105460D01*
X168540472Y-87093763D01*
X167630278Y-87083354D01*
X166522873Y-87074240D01*
X165219293Y-87066426D01*
X163720574Y-87059921D01*
X162027752Y-87054731D01*
X160141860Y-87050863D01*
X158063935Y-87048323D01*
X155795012Y-87047118D01*
X154839595Y-87047012D01*
X139553287Y-87047012D01*
X139602793Y-86862279D01*
X141067496Y-86862279D01*
X141308848Y-86828151D01*
X141448451Y-86780094D01*
X141552297Y-86653104D01*
X141587970Y-86558693D01*
X158979050Y-86558693D01*
X159220401Y-86524566D01*
X159360005Y-86476508D01*
X159463851Y-86349518D01*
X159558585Y-86098796D01*
X159603142Y-85937147D01*
X160046682Y-85937147D01*
X160101830Y-86135114D01*
X160289440Y-86218250D01*
X160464503Y-86184938D01*
X160672246Y-86019882D01*
X160906351Y-85748169D01*
X161302746Y-85246691D01*
X161481226Y-85548833D01*
X161751935Y-85948927D01*
X162032790Y-86266244D01*
X162289568Y-86467456D01*
X162479327Y-86520817D01*
X162663124Y-86448655D01*
X162720090Y-86381091D01*
X162683669Y-86253524D01*
X162556127Y-86002257D01*
X162360598Y-85670649D01*
X162239876Y-85481072D01*
X161723721Y-84690401D01*
X162245931Y-84161622D01*
X162542108Y-83837792D01*
X162698137Y-83599646D01*
X162736274Y-83412089D01*
X162734071Y-83391919D01*
X162635560Y-83169631D01*
X162439647Y-83108747D01*
X162166775Y-83206130D01*
X161837383Y-83458640D01*
X161751328Y-83542854D01*
X161308684Y-83993876D01*
X160987241Y-83572436D01*
X160702168Y-83271581D01*
X160454028Y-83159952D01*
X160250333Y-83239894D01*
X160185471Y-83322055D01*
X160149130Y-83454904D01*
X160205435Y-83638419D01*
X160370944Y-83916950D01*
X160452729Y-84037827D01*
X160645028Y-84327208D01*
X160780336Y-84550248D01*
X160827888Y-84654008D01*
X160769574Y-84764413D01*
X160617179Y-84982982D01*
X160418091Y-85243908D01*
X160152507Y-85637016D01*
X160046682Y-85937147D01*
X159603142Y-85937147D01*
X159631940Y-85832669D01*
X159773235Y-85156954D01*
X159804520Y-84648135D01*
X159725921Y-84307144D01*
X159537566Y-84134911D01*
X159397735Y-84112351D01*
X159294475Y-84130984D01*
X159218601Y-84207279D01*
X159162498Y-84371827D01*
X159118546Y-84655222D01*
X159079129Y-85088056D01*
X159049064Y-85512613D01*
X158979050Y-86558693D01*
X141587970Y-86558693D01*
X141647031Y-86402382D01*
X141720387Y-86136255D01*
X141861681Y-85460540D01*
X141892966Y-84951721D01*
X141874841Y-84873090D01*
X142106773Y-84873090D01*
X142147668Y-85329660D01*
X142258196Y-85717594D01*
X142420121Y-85985952D01*
X142534723Y-86068526D01*
X142944259Y-86135408D01*
X143441866Y-86059955D01*
X143979992Y-85850060D01*
X144040616Y-85818570D01*
X144343440Y-85637943D01*
X144558006Y-85473261D01*
X144636653Y-85363192D01*
X144595239Y-85258073D01*
X144450779Y-85235942D01*
X144172948Y-85297656D01*
X143904218Y-85383906D01*
X143530876Y-85475368D01*
X143156478Y-85513441D01*
X143051331Y-85510400D01*
X142812298Y-85480254D01*
X142695266Y-85402656D01*
X142650006Y-85218702D01*
X142635820Y-85023108D01*
X142658417Y-84686371D01*
X142750831Y-84373371D01*
X142888746Y-84116493D01*
X143047841Y-83948122D01*
X143203799Y-83900645D01*
X143332298Y-84006448D01*
X143357710Y-84061753D01*
X143494979Y-84186755D01*
X143621525Y-84213546D01*
X143768445Y-84170248D01*
X143823250Y-84004522D01*
X143827091Y-83892630D01*
X143746890Y-83524929D01*
X143519309Y-83287921D01*
X143163877Y-83201646D01*
X143153638Y-83201594D01*
X142780046Y-83295248D01*
X142474470Y-83560120D01*
X142252029Y-83972070D01*
X142127839Y-84506961D01*
X142106773Y-84873090D01*
X141874841Y-84873090D01*
X141814367Y-84610730D01*
X141626012Y-84438497D01*
X141486182Y-84415936D01*
X141382921Y-84434570D01*
X141307047Y-84510864D01*
X141250944Y-84675413D01*
X141206992Y-84958808D01*
X141167575Y-85391641D01*
X141137511Y-85816199D01*
X141067496Y-86862279D01*
X139602793Y-86862279D01*
X139614305Y-86819323D01*
X139656236Y-86562001D01*
X139676434Y-86241026D01*
X139676706Y-86212151D01*
X139691023Y-85963577D01*
X139766990Y-85857185D01*
X139957837Y-85832943D01*
X140013189Y-85832669D01*
X140400052Y-85740465D01*
X140707436Y-85483523D01*
X140912711Y-85091347D01*
X140993244Y-84593443D01*
X140993625Y-84554489D01*
X140925860Y-84109607D01*
X140703645Y-83703972D01*
X140576115Y-83551471D01*
X141339567Y-83551471D01*
X141361351Y-83655773D01*
X141501651Y-83783592D01*
X141727917Y-83793460D01*
X141964958Y-83689861D01*
X142048557Y-83614793D01*
X142151628Y-83382397D01*
X142091310Y-83161449D01*
X141972823Y-83074124D01*
X156562155Y-83074124D01*
X156566501Y-83580807D01*
X156572420Y-84112351D01*
X156581810Y-84782596D01*
X156596151Y-85276900D01*
X156619661Y-85621711D01*
X156656558Y-85843476D01*
X156711058Y-85968644D01*
X156787379Y-86023662D01*
X156879010Y-86035060D01*
X156971262Y-86010749D01*
X157034326Y-85912635D01*
X157078947Y-85702947D01*
X157115871Y-85343913D01*
X157130924Y-85149602D01*
X157169934Y-84734417D01*
X157217373Y-84386717D01*
X157266651Y-84129781D01*
X157311177Y-83986891D01*
X157344360Y-83981329D01*
X157359611Y-84136376D01*
X157356030Y-84354412D01*
X157368457Y-84706807D01*
X157440171Y-84865987D01*
X157570095Y-84831917D01*
X157757154Y-84604561D01*
X157898151Y-84372197D01*
X158078411Y-84069599D01*
X158231381Y-83842335D01*
X158314880Y-83747740D01*
X158353723Y-83815905D01*
X158370071Y-84076257D01*
X158363735Y-84519824D01*
X158341551Y-85012677D01*
X158313453Y-85551068D01*
X158300357Y-85919585D01*
X158305656Y-86150411D01*
X158332745Y-86275730D01*
X158385016Y-86327724D01*
X158465863Y-86338577D01*
X158481373Y-86338645D01*
X158646152Y-86280489D01*
X158761707Y-86077788D01*
X158798663Y-85959163D01*
X158842565Y-85696714D01*
X158874400Y-85300025D01*
X158894142Y-84815739D01*
X158901766Y-84290496D01*
X158897246Y-83770939D01*
X158880559Y-83303709D01*
X158876181Y-83247886D01*
X159251120Y-83247886D01*
X159272905Y-83352187D01*
X159413205Y-83480007D01*
X159639471Y-83489875D01*
X159876511Y-83386275D01*
X159960110Y-83311207D01*
X160061809Y-83081906D01*
X163984174Y-83081906D01*
X164020826Y-83248753D01*
X164118371Y-83324698D01*
X164335308Y-83340336D01*
X164470916Y-83336473D01*
X164814784Y-83318237D01*
X165114587Y-83293475D01*
X165179283Y-83285875D01*
X165432271Y-83252191D01*
X165456841Y-84719522D01*
X165469369Y-85262896D01*
X165486939Y-85749604D01*
X165507514Y-86136084D01*
X165529059Y-86378778D01*
X165536353Y-86421266D01*
X165641256Y-86596473D01*
X165796019Y-86610558D01*
X165942985Y-86473866D01*
X165999619Y-86338114D01*
X166026851Y-86143930D01*
X166050813Y-85794681D01*
X166069109Y-85337691D01*
X166079342Y-84820283D01*
X166079952Y-84751409D01*
X166090047Y-84277693D01*
X167975433Y-84277693D01*
X168027707Y-84547375D01*
X168031010Y-84553356D01*
X168205652Y-84701301D01*
X168442790Y-84675170D01*
X168709097Y-84479157D01*
X168721115Y-84466534D01*
X168953253Y-84290872D01*
X169188094Y-84213706D01*
X169196732Y-84213546D01*
X169351471Y-84225249D01*
X169378879Y-84297476D01*
X169293803Y-84485903D01*
X169277689Y-84517132D01*
X169151240Y-84722613D01*
X169051826Y-84819581D01*
X169044655Y-84820717D01*
X168929615Y-84883317D01*
X168730418Y-85040697D01*
X168642473Y-85118598D01*
X168392265Y-85455805D01*
X168311578Y-85816832D01*
X168384540Y-86158127D01*
X168595279Y-86436137D01*
X168927921Y-86607311D01*
X169197193Y-86640682D01*
X169488621Y-86616368D01*
X169705439Y-86558653D01*
X169726779Y-86547064D01*
X169937823Y-86527057D01*
X170078180Y-86599211D01*
X170327205Y-86715825D01*
X170561509Y-86737649D01*
X170716673Y-86666272D01*
X170745020Y-86582777D01*
X170697818Y-86419076D01*
X170573630Y-86139606D01*
X170398583Y-85802753D01*
X170385191Y-85778695D01*
X170197302Y-85427136D01*
X170096587Y-85170206D01*
X170064647Y-84929864D01*
X170083081Y-84628067D01*
X170092846Y-84538797D01*
X170124235Y-84199520D01*
X170110024Y-83994105D01*
X170033040Y-83856030D01*
X169882453Y-83723756D01*
X169491047Y-83538290D01*
X169036431Y-83533996D01*
X168544457Y-83710304D01*
X168464340Y-83755037D01*
X168120067Y-84015257D01*
X167975433Y-84277693D01*
X166090047Y-84277693D01*
X166091089Y-84228811D01*
X166114266Y-83759689D01*
X166146234Y-83391665D01*
X166183741Y-83172360D01*
X166188730Y-83157584D01*
X166259107Y-83015617D01*
X166369162Y-82937676D01*
X166572936Y-82904795D01*
X166924468Y-82898008D01*
X166928353Y-82898008D01*
X167412671Y-82863883D01*
X167737434Y-82765692D01*
X167889089Y-82609709D01*
X167880574Y-82457263D01*
X167746492Y-82368220D01*
X167452443Y-82313558D01*
X167037458Y-82290762D01*
X166540568Y-82297313D01*
X166000804Y-82330696D01*
X165457197Y-82388394D01*
X164948779Y-82467891D01*
X164514581Y-82566670D01*
X164193633Y-82682215D01*
X164165091Y-82696816D01*
X164001158Y-82867891D01*
X163984174Y-83081906D01*
X160061809Y-83081906D01*
X160063182Y-83078811D01*
X160002864Y-82857863D01*
X159810230Y-82715892D01*
X159676826Y-82695618D01*
X159463175Y-82783501D01*
X159304958Y-82994110D01*
X159251120Y-83247886D01*
X158876181Y-83247886D01*
X158851678Y-82935449D01*
X158810579Y-82712800D01*
X158800423Y-82688965D01*
X158628722Y-82512987D01*
X158419635Y-82523439D01*
X158196419Y-82713660D01*
X158073340Y-82897229D01*
X157896355Y-83169077D01*
X157764018Y-83298434D01*
X157695895Y-83268802D01*
X157690836Y-83219809D01*
X157619534Y-83062769D01*
X157441365Y-82837634D01*
X157209937Y-82598613D01*
X156978855Y-82399916D01*
X156801729Y-82295754D01*
X156772194Y-82290837D01*
X156694048Y-82289755D01*
X156637166Y-82304782D01*
X156598542Y-82363324D01*
X156575169Y-82492791D01*
X156564042Y-82720588D01*
X156562155Y-83074124D01*
X141972823Y-83074124D01*
X141898677Y-83019478D01*
X141765272Y-82999203D01*
X141551621Y-83087086D01*
X141393404Y-83297696D01*
X141339567Y-83551471D01*
X140576115Y-83551471D01*
X140558559Y-83530478D01*
X140255467Y-83334061D01*
X139887059Y-83287419D01*
X139519872Y-83386776D01*
X139239117Y-83605330D01*
X139058393Y-83931297D01*
X138929416Y-84379602D01*
X138868222Y-84873367D01*
X138885440Y-85300752D01*
X138898345Y-85457969D01*
X138848968Y-85543326D01*
X138692019Y-85581874D01*
X138382209Y-85598666D01*
X138344478Y-85599994D01*
X137929664Y-85632789D01*
X137521056Y-85693677D01*
X137344414Y-85733139D01*
X137079143Y-85793636D01*
X136909470Y-85811848D01*
X136884548Y-85805132D01*
X136886634Y-85692333D01*
X136946061Y-85471308D01*
X136955852Y-85442597D01*
X137086385Y-85207710D01*
X137322478Y-85024527D01*
X137563480Y-84907750D01*
X137840117Y-84774943D01*
X138019967Y-84662119D01*
X138058964Y-84614142D01*
X137998379Y-84383505D01*
X137803199Y-84290324D01*
X137610626Y-84294713D01*
X137269283Y-84334563D01*
X137227698Y-83742780D01*
X137223050Y-83320016D01*
X137282573Y-83080601D01*
X137315102Y-83041461D01*
X137474552Y-82968949D01*
X137770889Y-82882517D01*
X138141180Y-82800413D01*
X138156308Y-82797539D01*
X138576645Y-82699328D01*
X138806693Y-82593416D01*
X138858528Y-82468815D01*
X138744226Y-82314535D01*
X138714840Y-82289265D01*
X138538006Y-82217424D01*
X138236266Y-82213309D01*
X137981174Y-82241728D01*
X137558984Y-82288912D01*
X137132621Y-82319573D01*
X136945816Y-82325511D01*
X136656940Y-82347694D01*
X136460937Y-82399217D01*
X136424498Y-82426415D01*
X136414185Y-82571272D01*
X136459019Y-82837736D01*
X136512012Y-83039663D01*
X136620319Y-83714817D01*
X136582754Y-84488710D01*
X136402380Y-85323043D01*
X136305111Y-85625018D01*
X136186767Y-85983751D01*
X136108284Y-86262442D01*
X136083012Y-86412282D01*
X136086604Y-86423922D01*
X136205362Y-86459075D01*
X136457148Y-86498006D01*
X136625284Y-86516540D01*
X137130090Y-86502615D01*
X137711659Y-86390891D01*
X138283023Y-86202535D01*
X138654404Y-86022627D01*
X138996857Y-85823485D01*
X138932691Y-86144312D01*
X138885169Y-86477337D01*
X138868526Y-86754412D01*
X138868526Y-87043684D01*
X133226892Y-87092436D01*
X132138553Y-87103180D01*
X131051850Y-87116419D01*
X129982221Y-87131767D01*
X128945105Y-87148838D01*
X127955939Y-87167245D01*
X127030161Y-87186602D01*
X126183211Y-87206522D01*
X125430527Y-87226620D01*
X124787546Y-87246509D01*
X124269707Y-87265804D01*
X123892448Y-87284116D01*
X123671208Y-87301061D01*
X123621425Y-87316252D01*
X122017526Y-87316252D01*
X122010556Y-87299379D01*
X121987991Y-87099403D01*
X121973950Y-86736160D01*
X121972665Y-86634753D01*
X126939211Y-86634753D01*
X126967365Y-86802572D01*
X127102440Y-86912720D01*
X127331366Y-86945209D01*
X127562171Y-86902581D01*
X127702883Y-86787378D01*
X127705000Y-86782183D01*
X127720129Y-86567987D01*
X127674089Y-86352103D01*
X127550407Y-86150839D01*
X127329605Y-86086701D01*
X127279236Y-86085657D01*
X127058844Y-86116767D01*
X126965805Y-86250535D01*
X126945242Y-86372493D01*
X126939211Y-86634753D01*
X121972665Y-86634753D01*
X121967696Y-86242556D01*
X121968491Y-85651500D01*
X121975598Y-84995901D01*
X121988281Y-84308667D01*
X122005803Y-83622706D01*
X122012642Y-83416561D01*
X123509245Y-83416561D01*
X123645967Y-83612451D01*
X123773130Y-83678829D01*
X123952216Y-83674592D01*
X124241839Y-83595295D01*
X124350875Y-83558983D01*
X124696053Y-83456643D01*
X124909962Y-83437155D01*
X125039307Y-83491841D01*
X125193482Y-83718590D01*
X125317132Y-84081497D01*
X125403063Y-84520449D01*
X125444079Y-84975328D01*
X125432986Y-85386018D01*
X125362588Y-85692405D01*
X125312756Y-85776553D01*
X125177141Y-85883916D01*
X124972933Y-85915623D01*
X124678537Y-85889813D01*
X124372531Y-85862348D01*
X124207842Y-85891981D01*
X124128775Y-85989468D01*
X124125997Y-85996507D01*
X124139215Y-86191945D01*
X124306575Y-86355431D01*
X124580821Y-86475056D01*
X124914698Y-86538909D01*
X125260951Y-86535077D01*
X125572325Y-86451651D01*
X125682886Y-86388929D01*
X125911361Y-86110687D01*
X126038725Y-85686047D01*
X126064068Y-85144460D01*
X125986808Y-84518032D01*
X127982632Y-84518032D01*
X127984819Y-85123439D01*
X127995402Y-85666873D01*
X128013002Y-86112733D01*
X128036236Y-86425422D01*
X128062089Y-86566335D01*
X128218572Y-86734164D01*
X128397595Y-86730763D01*
X128486164Y-86634753D01*
X130784629Y-86634753D01*
X130812783Y-86802572D01*
X130947859Y-86912720D01*
X131176784Y-86945209D01*
X131407589Y-86902581D01*
X131548302Y-86787378D01*
X131550419Y-86782183D01*
X131565547Y-86567987D01*
X131519507Y-86352103D01*
X131512429Y-86340585D01*
X132695617Y-86340585D01*
X132774860Y-86495540D01*
X132986751Y-86546159D01*
X133292533Y-86495727D01*
X133653447Y-86347530D01*
X133832355Y-86244242D01*
X134118816Y-86037831D01*
X134339596Y-85834524D01*
X134412301Y-85738266D01*
X134462890Y-85465639D01*
X134338051Y-85230827D01*
X134064403Y-85083425D01*
X134060283Y-85082379D01*
X133883626Y-84993915D01*
X133885231Y-84894300D01*
X134048750Y-84827973D01*
X134156529Y-84820717D01*
X134424647Y-84742146D01*
X134584354Y-84543958D01*
X134600350Y-84344901D01*
X134488943Y-84176692D01*
X134244459Y-84152852D01*
X133864073Y-84273696D01*
X133467734Y-84470506D01*
X133119648Y-84671177D01*
X132916774Y-84821585D01*
X132821668Y-84958631D01*
X132796882Y-85119218D01*
X132796812Y-85131662D01*
X132836901Y-85357174D01*
X132996704Y-85464824D01*
X133075099Y-85485010D01*
X133396570Y-85564674D01*
X133525014Y-85637172D01*
X133466982Y-85728961D01*
X133229026Y-85866499D01*
X133176295Y-85893698D01*
X132846007Y-86099732D01*
X132703551Y-86286256D01*
X132695617Y-86340585D01*
X131512429Y-86340585D01*
X131395825Y-86150839D01*
X131175024Y-86086701D01*
X131124654Y-86085657D01*
X130904263Y-86116767D01*
X130811224Y-86250535D01*
X130790660Y-86372493D01*
X130784629Y-86634753D01*
X128486164Y-86634753D01*
X128544183Y-86571860D01*
X128592695Y-86414542D01*
X128629701Y-86118046D01*
X128661745Y-85733435D01*
X128673177Y-85532405D01*
X128689294Y-85262390D01*
X128731478Y-85076828D01*
X128834819Y-84940140D01*
X129034406Y-84816744D01*
X129365327Y-84671061D01*
X129628907Y-84563293D01*
X130072935Y-84337105D01*
X130347286Y-84066560D01*
X130484635Y-83703484D01*
X130518109Y-83252398D01*
X130485282Y-82769024D01*
X130373603Y-82451577D01*
X130158395Y-82270981D01*
X129814978Y-82198156D01*
X129618778Y-82192750D01*
X129190683Y-82239952D01*
X128722239Y-82357881D01*
X128546613Y-82421340D01*
X127990040Y-82646822D01*
X127982632Y-84518032D01*
X125986808Y-84518032D01*
X125986480Y-84515374D01*
X125805049Y-83828239D01*
X125765630Y-83712914D01*
X125673143Y-83435509D01*
X125618374Y-83241738D01*
X125611952Y-83202031D01*
X125702354Y-83147320D01*
X125931574Y-83094455D01*
X126076131Y-83074400D01*
X126469492Y-82997111D01*
X126675131Y-82871114D01*
X126703398Y-82689298D01*
X126691115Y-82651822D01*
X126554881Y-82558115D01*
X126265719Y-82510946D01*
X125866560Y-82505855D01*
X125400334Y-82538384D01*
X124909973Y-82604072D01*
X124438408Y-82698460D01*
X124028571Y-82817089D01*
X123723391Y-82955498D01*
X123714542Y-82961019D01*
X123524105Y-83172055D01*
X123509245Y-83416561D01*
X122012642Y-83416561D01*
X122027427Y-82970927D01*
X122052417Y-82386239D01*
X122080034Y-81901549D01*
X122107501Y-81574111D01*
X123558203Y-81574111D01*
X123592310Y-81632263D01*
X123724975Y-81681349D01*
X123969800Y-81722431D01*
X124340388Y-81756564D01*
X124850344Y-81784809D01*
X125513269Y-81808224D01*
X126342767Y-81827868D01*
X127352442Y-81844799D01*
X128090664Y-81854591D01*
X128951214Y-81865623D01*
X129745608Y-81876711D01*
X130451726Y-81887478D01*
X131047449Y-81897547D01*
X131510654Y-81906541D01*
X131819223Y-81914082D01*
X131951034Y-81919793D01*
X131954235Y-81920504D01*
X131945872Y-82020843D01*
X131903854Y-82256376D01*
X131868148Y-82430649D01*
X131816256Y-82891716D01*
X131884287Y-83207699D01*
X132068360Y-83369297D01*
X132266393Y-83385324D01*
X132543824Y-83353387D01*
X132508181Y-82614663D01*
X132472538Y-81875939D01*
X138731687Y-81936025D01*
X141005784Y-81956260D01*
X143223180Y-81972599D01*
X145408920Y-81985045D01*
X147588049Y-81993597D01*
X149785612Y-81998258D01*
X152026656Y-81999028D01*
X154336225Y-81995908D01*
X156739364Y-81988900D01*
X159261120Y-81978004D01*
X161926537Y-81963223D01*
X164760660Y-81944556D01*
X165777408Y-81937249D01*
X175533700Y-81865766D01*
X175470253Y-83477376D01*
X175448455Y-84102991D01*
X175440968Y-84559298D01*
X175449473Y-84878986D01*
X175475653Y-85094743D01*
X175521191Y-85239258D01*
X175564831Y-85314600D01*
X175737906Y-85471595D01*
X175890313Y-85508252D01*
X175953563Y-85471981D01*
X176002989Y-85372098D01*
X176042576Y-85181068D01*
X176076309Y-84871356D01*
X176108175Y-84415427D01*
X176142158Y-83785743D01*
X176143490Y-83759123D01*
X176174052Y-83036200D01*
X176183631Y-82498451D01*
X176172006Y-82129728D01*
X176138952Y-81913881D01*
X176117334Y-81862810D01*
X176063658Y-81731069D01*
X176162177Y-81686617D01*
X176259302Y-81683665D01*
X176467068Y-81651253D01*
X176496397Y-81575320D01*
X176356642Y-81487822D01*
X176188462Y-81441637D01*
X176059921Y-81435945D01*
X175737573Y-81430395D01*
X175230006Y-81425007D01*
X174545802Y-81419802D01*
X173693547Y-81414802D01*
X172681827Y-81410025D01*
X171519225Y-81405494D01*
X170214327Y-81401230D01*
X168775717Y-81397252D01*
X167211981Y-81393583D01*
X165531703Y-81390242D01*
X163743469Y-81387250D01*
X161855862Y-81384628D01*
X159877468Y-81382398D01*
X157816872Y-81380579D01*
X155682659Y-81379193D01*
X153483413Y-81378260D01*
X151227720Y-81377801D01*
X149812932Y-81377764D01*
X147001254Y-81378053D01*
X144385701Y-81378705D01*
X141960006Y-81379749D01*
X139717904Y-81381216D01*
X137653129Y-81383137D01*
X135759416Y-81385543D01*
X134030498Y-81388463D01*
X132460110Y-81391929D01*
X131041985Y-81395972D01*
X129769859Y-81400621D01*
X128637466Y-81405908D01*
X127638539Y-81411863D01*
X126766813Y-81418517D01*
X126016022Y-81425900D01*
X125379900Y-81434043D01*
X124852183Y-81442977D01*
X124426603Y-81452732D01*
X124096895Y-81463339D01*
X123856793Y-81474829D01*
X123700032Y-81487232D01*
X123620345Y-81500578D01*
X123609050Y-81505837D01*
X123558203Y-81574111D01*
X122107501Y-81574111D01*
X122109543Y-81549767D01*
X122140207Y-81363800D01*
X122143662Y-81354781D01*
X122267500Y-81076494D01*
X149981811Y-81076494D01*
X152784776Y-81076528D01*
G37*
G36*
X160671145Y-90084053D02*
G01*
X162855489Y-90084370D01*
X164870836Y-90085082D01*
X166723866Y-90086288D01*
X168421257Y-90088088D01*
X169969688Y-90090581D01*
X171375839Y-90093866D01*
X172646387Y-90098042D01*
X173788012Y-90103210D01*
X174807392Y-90109469D01*
X175711206Y-90116917D01*
X176506134Y-90125654D01*
X177198853Y-90135779D01*
X177796044Y-90147392D01*
X178304383Y-90160593D01*
X178730552Y-90175480D01*
X179081227Y-90192152D01*
X179363088Y-90210710D01*
X179582815Y-90231252D01*
X179747084Y-90253878D01*
X179862577Y-90278688D01*
X179935971Y-90305780D01*
X179973944Y-90335253D01*
X179983177Y-90367208D01*
X179970348Y-90401744D01*
X179942135Y-90438959D01*
X179905218Y-90478954D01*
X179866274Y-90521827D01*
X179861678Y-90527296D01*
X179789218Y-90661505D01*
X179840199Y-90690040D01*
X179861071Y-90788185D01*
X179879982Y-91070440D01*
X179896930Y-91518532D01*
X179911914Y-92114191D01*
X179924931Y-92839144D01*
X179935980Y-93675120D01*
X179945058Y-94603847D01*
X179952165Y-95607055D01*
X179957299Y-96666470D01*
X179960457Y-97763822D01*
X179961638Y-98880839D01*
X179960841Y-99999250D01*
X179958063Y-101100782D01*
X179953303Y-102167165D01*
X179946558Y-103180126D01*
X179937828Y-104121395D01*
X179927111Y-104972699D01*
X179914404Y-105715766D01*
X179899706Y-106332327D01*
X179883015Y-106804107D01*
X179864330Y-107112837D01*
X179843648Y-107240245D01*
X179841785Y-107242135D01*
X179793037Y-107331957D01*
X179860577Y-107392188D01*
X179940271Y-107512152D01*
X179860420Y-107638637D01*
X179660544Y-107741621D01*
X179380162Y-107791084D01*
X179334222Y-107792032D01*
X179076228Y-107763861D01*
X178944778Y-107695605D01*
X178968743Y-107611651D01*
X179065694Y-107565220D01*
X179071070Y-107459413D01*
X178977444Y-107180969D01*
X178786106Y-106733041D01*
X178498345Y-106118786D01*
X178348655Y-105811170D01*
X178061449Y-105224500D01*
X177931961Y-104958566D01*
X178233466Y-104958566D01*
X178270492Y-105041861D01*
X178300929Y-105026029D01*
X178313040Y-104905934D01*
X178300929Y-104891102D01*
X178240769Y-104904993D01*
X178233466Y-104958566D01*
X177931961Y-104958566D01*
X177785156Y-104657068D01*
X177540169Y-104150983D01*
X177346885Y-103748358D01*
X177238139Y-103518199D01*
X177087372Y-103217304D01*
X176961092Y-103006982D01*
X176892629Y-102936326D01*
X176828455Y-102850996D01*
X176817346Y-102757570D01*
X176775084Y-102615304D01*
X176659326Y-102329210D01*
X176487220Y-101936416D01*
X176275912Y-101474053D01*
X176042550Y-100979251D01*
X175804280Y-100489137D01*
X175578249Y-100040843D01*
X175450393Y-99797610D01*
X175424929Y-99748265D01*
X178817495Y-99748265D01*
X178818479Y-100926268D01*
X178821387Y-101927886D01*
X178826433Y-102766118D01*
X178833828Y-103453964D01*
X178843786Y-104004424D01*
X178856520Y-104430497D01*
X178872242Y-104745183D01*
X178891166Y-104961482D01*
X178913503Y-105092394D01*
X178928783Y-105135657D01*
X179031947Y-105157548D01*
X179192100Y-105069791D01*
X179225179Y-105039522D01*
X179288836Y-104865530D01*
X179329474Y-104499167D01*
X179346208Y-103949238D01*
X179346613Y-103831152D01*
X179355600Y-103365307D01*
X179380167Y-102991317D01*
X179416719Y-102749995D01*
X179447808Y-102681673D01*
X179474008Y-102564163D01*
X179496504Y-102250172D01*
X179515170Y-101745579D01*
X179529879Y-101056262D01*
X179540505Y-100188100D01*
X179546921Y-99146971D01*
X179549004Y-97976096D01*
X179546795Y-96772641D01*
X179540255Y-95736446D01*
X179529509Y-94873389D01*
X179514683Y-94189347D01*
X179495905Y-93690200D01*
X179473300Y-93381825D01*
X179447808Y-93270518D01*
X179405642Y-93147386D01*
X179372701Y-92859670D01*
X179352105Y-92445086D01*
X179346613Y-92047027D01*
X179342052Y-91530059D01*
X179325525Y-91182005D01*
X179292769Y-90969534D01*
X179239521Y-90859316D01*
X179190456Y-90826155D01*
X179122776Y-90802009D01*
X179064031Y-90793878D01*
X179013573Y-90814921D01*
X178970754Y-90878297D01*
X178934925Y-90997163D01*
X178905438Y-91184678D01*
X178881645Y-91453999D01*
X178862898Y-91818284D01*
X178848547Y-92290692D01*
X178837946Y-92884381D01*
X178830445Y-93612509D01*
X178825396Y-94488234D01*
X178822151Y-95524714D01*
X178820061Y-96735106D01*
X178818479Y-98132570D01*
X178818223Y-98380877D01*
X178817495Y-99748265D01*
X175424929Y-99748265D01*
X175311965Y-99529362D01*
X175124038Y-99152127D01*
X174923083Y-98740141D01*
X174872438Y-98633865D01*
X175096414Y-98633865D01*
X175147012Y-98684462D01*
X175197609Y-98633865D01*
X175147012Y-98583267D01*
X175096414Y-98633865D01*
X174872438Y-98633865D01*
X174745571Y-98367640D01*
X174704646Y-98279681D01*
X174587182Y-98049945D01*
X174411576Y-97732924D01*
X174288551Y-97520717D01*
X174132814Y-97227981D01*
X174040808Y-96996310D01*
X174031094Y-96913546D01*
X174286852Y-96913546D01*
X174337450Y-96964144D01*
X174388048Y-96913546D01*
X174337450Y-96862948D01*
X174286852Y-96913546D01*
X174031094Y-96913546D01*
X174029427Y-96899347D01*
X173999988Y-96743043D01*
X173899935Y-96590609D01*
X173664257Y-96273808D01*
X173512878Y-95974449D01*
X173477291Y-95810205D01*
X173432348Y-95658156D01*
X173401394Y-95631740D01*
X173298850Y-95515539D01*
X173160745Y-95278545D01*
X173020786Y-94990132D01*
X172912678Y-94719674D01*
X172870119Y-94538286D01*
X172797012Y-94325217D01*
X172713317Y-94227715D01*
X172575971Y-94057847D01*
X172520181Y-93962019D01*
X172701461Y-93962019D01*
X172715352Y-94022179D01*
X172768924Y-94029482D01*
X172852219Y-93992456D01*
X172836387Y-93962019D01*
X172716292Y-93949908D01*
X172701461Y-93962019D01*
X172520181Y-93962019D01*
X172417943Y-93786409D01*
X172364143Y-93675299D01*
X172310736Y-93574104D01*
X172566534Y-93574104D01*
X172617131Y-93624701D01*
X172667729Y-93574104D01*
X172617131Y-93523506D01*
X172566534Y-93574104D01*
X172310736Y-93574104D01*
X172212495Y-93387959D01*
X172060929Y-93169599D01*
X172014969Y-93122883D01*
X171884188Y-92961094D01*
X171858167Y-92874416D01*
X171828045Y-92817958D01*
X172287551Y-92817958D01*
X172321940Y-92929917D01*
X172399542Y-93006538D01*
X172443809Y-92930325D01*
X172444567Y-92772345D01*
X172425282Y-92741351D01*
X172327959Y-92717772D01*
X172287551Y-92817958D01*
X171828045Y-92817958D01*
X171790162Y-92746952D01*
X171612872Y-92532049D01*
X171393475Y-92304934D01*
X171132905Y-92030131D01*
X171113231Y-92005578D01*
X171352191Y-92005578D01*
X171389217Y-92088873D01*
X171419654Y-92073041D01*
X171431766Y-91952946D01*
X171419654Y-91938114D01*
X171359494Y-91952005D01*
X171352191Y-92005578D01*
X171113231Y-92005578D01*
X170928474Y-91775002D01*
X170838716Y-91624281D01*
X170676182Y-91410099D01*
X170503676Y-91301639D01*
X170293497Y-91193735D01*
X170195632Y-91106448D01*
X170081137Y-90995844D01*
X169855061Y-90821682D01*
X169674752Y-90695425D01*
X169266926Y-90420186D01*
X179582735Y-90420186D01*
X179596626Y-90480346D01*
X179650199Y-90487649D01*
X179733494Y-90450624D01*
X179717662Y-90420186D01*
X179597567Y-90408075D01*
X179582735Y-90420186D01*
X169266926Y-90420186D01*
X169216945Y-90386454D01*
X163870239Y-90386454D01*
X162669153Y-90386298D01*
X161653041Y-90386939D01*
X160804485Y-90390038D01*
X160106072Y-90397260D01*
X159540384Y-90410265D01*
X159090007Y-90430718D01*
X158737525Y-90460279D01*
X158465522Y-90500613D01*
X158256582Y-90553382D01*
X158093291Y-90620247D01*
X157958232Y-90702873D01*
X157833990Y-90802921D01*
X157703148Y-90922054D01*
X157638539Y-90981367D01*
X157417357Y-91169474D01*
X157256511Y-91282522D01*
X157218393Y-91297211D01*
X157089578Y-91366758D01*
X156900278Y-91532846D01*
X156713473Y-91731648D01*
X156592143Y-91899333D01*
X156575656Y-91948614D01*
X156507383Y-92071040D01*
X156331399Y-92283551D01*
X156113991Y-92511554D01*
X155816192Y-92848912D01*
X155497202Y-93280035D01*
X155181834Y-93762556D01*
X154894897Y-94254108D01*
X154661201Y-94712322D01*
X154505558Y-95094833D01*
X154452589Y-95348611D01*
X154403855Y-95538334D01*
X154351394Y-95598008D01*
X154282472Y-95732816D01*
X154250478Y-95977143D01*
X154250199Y-96002789D01*
X154222933Y-96252733D01*
X154156536Y-96401969D01*
X154149004Y-96407570D01*
X154080081Y-96542378D01*
X154048088Y-96786704D01*
X154047808Y-96812351D01*
X154020543Y-97062295D01*
X153954145Y-97211531D01*
X153946613Y-97217132D01*
X153907341Y-97340166D01*
X153876264Y-97638188D01*
X153855143Y-98083895D01*
X153845739Y-98649986D01*
X153845418Y-98785657D01*
X153852054Y-99374203D01*
X153870790Y-99848272D01*
X153899862Y-100180562D01*
X153937510Y-100343773D01*
X153946613Y-100354183D01*
X154015536Y-100488991D01*
X154047529Y-100733318D01*
X154047808Y-100758964D01*
X154075074Y-101008908D01*
X154141472Y-101158144D01*
X154149004Y-101163745D01*
X154222497Y-101300837D01*
X154250199Y-101517928D01*
X154282007Y-101749392D01*
X154351394Y-101872112D01*
X154439368Y-102016239D01*
X154452589Y-102111575D01*
X154498704Y-102289526D01*
X154618684Y-102586016D01*
X154784980Y-102944435D01*
X154970043Y-103308173D01*
X155146325Y-103620620D01*
X155286278Y-103825166D01*
X155286757Y-103825726D01*
X155440011Y-104035720D01*
X155503727Y-104149004D01*
X155621546Y-104378112D01*
X155771929Y-104608015D01*
X155981973Y-104872416D01*
X156278776Y-105205022D01*
X156689436Y-105639538D01*
X156766641Y-105719859D01*
X157116150Y-106073111D01*
X157418699Y-106360578D01*
X157646042Y-106556759D01*
X157769932Y-106636151D01*
X157780644Y-106635325D01*
X157898151Y-106666162D01*
X158075216Y-106809605D01*
X158098086Y-106833305D01*
X158325741Y-107022974D01*
X158647882Y-107231461D01*
X158841031Y-107336162D01*
X159349698Y-107589642D01*
X163863439Y-107589642D01*
X165016564Y-107588378D01*
X165983236Y-107583896D01*
X166779381Y-107575160D01*
X167420924Y-107561136D01*
X167923792Y-107540788D01*
X168303910Y-107513081D01*
X168577204Y-107476979D01*
X168759599Y-107431448D01*
X168867022Y-107375452D01*
X168915399Y-107307955D01*
X168922716Y-107260757D01*
X169003941Y-107189935D01*
X169050000Y-107184623D01*
X169198145Y-107122907D01*
X169424790Y-106967424D01*
X169468486Y-106931873D01*
X169834263Y-106931873D01*
X169884860Y-106982470D01*
X169935458Y-106931873D01*
X169884860Y-106881275D01*
X169834263Y-106931873D01*
X169468486Y-106931873D01*
X169530677Y-106881275D01*
X169758698Y-106699911D01*
X169926092Y-106591488D01*
X169965643Y-106577927D01*
X170073761Y-106509468D01*
X170279960Y-106330046D01*
X170499292Y-106122311D01*
X171352191Y-106122311D01*
X171402789Y-106172908D01*
X171453386Y-106122311D01*
X171402789Y-106071713D01*
X171352191Y-106122311D01*
X170499292Y-106122311D01*
X170545882Y-106078184D01*
X170833168Y-105792403D01*
X171099697Y-105515140D01*
X171352191Y-105515140D01*
X171402789Y-105565737D01*
X171453386Y-105515140D01*
X171402789Y-105464542D01*
X171352191Y-105515140D01*
X171099697Y-105515140D01*
X171103459Y-105511226D01*
X171318395Y-105273177D01*
X171439619Y-105116777D01*
X171453386Y-105083829D01*
X171517893Y-104957801D01*
X171679858Y-104754735D01*
X171756972Y-104670910D01*
X171814897Y-104604383D01*
X172161753Y-104604383D01*
X172212350Y-104654980D01*
X172262948Y-104604383D01*
X172212350Y-104553785D01*
X172161753Y-104604383D01*
X171814897Y-104604383D01*
X171943368Y-104456835D01*
X172050467Y-104296977D01*
X172060557Y-104263511D01*
X172129741Y-104130119D01*
X172207861Y-104051534D01*
X172320555Y-103905089D01*
X172483248Y-103632774D01*
X172667508Y-103290378D01*
X172844901Y-102933692D01*
X172986996Y-102618505D01*
X173065357Y-102400607D01*
X173072510Y-102354971D01*
X173119081Y-102194086D01*
X173234898Y-101945752D01*
X173274900Y-101872112D01*
X173408259Y-101561234D01*
X173475387Y-101260949D01*
X173477291Y-101217237D01*
X173508798Y-100984688D01*
X173578486Y-100860159D01*
X173639969Y-100729084D01*
X173675872Y-100472504D01*
X173679681Y-100348211D01*
X173701760Y-100072636D01*
X173758440Y-99915362D01*
X173788614Y-99898805D01*
X173853946Y-99806962D01*
X173871424Y-99561012D01*
X173867043Y-99476314D01*
X173869424Y-99208348D01*
X173911934Y-99042596D01*
X173935201Y-99021798D01*
X174036272Y-99080705D01*
X174156212Y-99258222D01*
X174253341Y-99479836D01*
X174286852Y-99650444D01*
X174335820Y-99837651D01*
X174452526Y-100094667D01*
X174591673Y-100333298D01*
X174704283Y-100463197D01*
X174825627Y-100613679D01*
X174940714Y-100860705D01*
X175006469Y-101101802D01*
X175007856Y-101185366D01*
X175046231Y-101340149D01*
X175166166Y-101584761D01*
X175229914Y-101691342D01*
X175391084Y-101953961D01*
X175483198Y-102138433D01*
X175548071Y-102335931D01*
X175579685Y-102453984D01*
X175660965Y-102604015D01*
X175715388Y-102631076D01*
X175797750Y-102711670D01*
X175804781Y-102762694D01*
X175845401Y-102952974D01*
X175941114Y-103182915D01*
X176052699Y-103371762D01*
X176133665Y-103439848D01*
X176195403Y-103525518D01*
X176209561Y-103643028D01*
X176251939Y-103807467D01*
X176310757Y-103845418D01*
X176394133Y-103929793D01*
X176411952Y-104039376D01*
X176446245Y-104216622D01*
X176487848Y-104267065D01*
X176569810Y-104370525D01*
X176700432Y-104601172D01*
X176802509Y-104806773D01*
X176994106Y-105208130D01*
X177147316Y-105513745D01*
X177307494Y-105812127D01*
X177433420Y-106038058D01*
X177559913Y-106304581D01*
X177624247Y-106520950D01*
X177626295Y-106548946D01*
X177689651Y-106747698D01*
X177809373Y-106925350D01*
X177981572Y-107166045D01*
X178113284Y-107426613D01*
X178175702Y-107640702D01*
X178159274Y-107731297D01*
X178051544Y-107739512D01*
X177752457Y-107747118D01*
X177272600Y-107754124D01*
X176622560Y-107760538D01*
X175812925Y-107766371D01*
X174854281Y-107771630D01*
X173757215Y-107776325D01*
X172532314Y-107780465D01*
X171190166Y-107784059D01*
X169741357Y-107787115D01*
X168196475Y-107789644D01*
X166566106Y-107791653D01*
X164860838Y-107793151D01*
X163091257Y-107794149D01*
X161267951Y-107794654D01*
X159401506Y-107794676D01*
X157502511Y-107794223D01*
X155581551Y-107793305D01*
X153649213Y-107791931D01*
X151716086Y-107790110D01*
X149792755Y-107787850D01*
X147889809Y-107785161D01*
X146017833Y-107782051D01*
X144187415Y-107778530D01*
X142409142Y-107774606D01*
X140693602Y-107770289D01*
X139051380Y-107765588D01*
X137493064Y-107760511D01*
X136029242Y-107755068D01*
X134670500Y-107749267D01*
X133427425Y-107743117D01*
X132310604Y-107736628D01*
X131330625Y-107729809D01*
X130498074Y-107722668D01*
X129823539Y-107715215D01*
X129317606Y-107707457D01*
X128990862Y-107699406D01*
X128853895Y-107691068D01*
X128850199Y-107689441D01*
X128950833Y-107669313D01*
X129250510Y-107651351D01*
X129745894Y-107635593D01*
X130433650Y-107622083D01*
X131310442Y-107610861D01*
X132372934Y-107601968D01*
X133617790Y-107595445D01*
X135041674Y-107591334D01*
X136641249Y-107589676D01*
X136925642Y-107589642D01*
X138437485Y-107589475D01*
X139759822Y-107588547D01*
X140905535Y-107586219D01*
X141887508Y-107581850D01*
X142718626Y-107574801D01*
X143411771Y-107564432D01*
X143979827Y-107550102D01*
X144435677Y-107531172D01*
X144792206Y-107507001D01*
X145062297Y-107476950D01*
X145258833Y-107440380D01*
X145394697Y-107396648D01*
X145482775Y-107345117D01*
X145535948Y-107285146D01*
X145567101Y-107216095D01*
X145583338Y-107159596D01*
X145699167Y-107009109D01*
X145790924Y-106982470D01*
X145931304Y-106916107D01*
X145952191Y-106852172D01*
X146020039Y-106720370D01*
X146198227Y-106498171D01*
X146361992Y-106324701D01*
X146660557Y-106324701D01*
X146711155Y-106375299D01*
X146761753Y-106324701D01*
X146711155Y-106274104D01*
X146660557Y-106324701D01*
X146361992Y-106324701D01*
X146448726Y-106232827D01*
X146458167Y-106223506D01*
X146709664Y-105962870D01*
X146890811Y-105750493D01*
X146963992Y-105630640D01*
X146964143Y-105628107D01*
X147025913Y-105484443D01*
X147129968Y-105347841D01*
X147269436Y-105151895D01*
X147465944Y-104823532D01*
X147503188Y-104756175D01*
X147773705Y-104756175D01*
X147810731Y-104839471D01*
X147841168Y-104823639D01*
X147853279Y-104703544D01*
X147841168Y-104688712D01*
X147781008Y-104702603D01*
X147773705Y-104756175D01*
X147503188Y-104756175D01*
X147692210Y-104414320D01*
X147920952Y-103975830D01*
X148124887Y-103559631D01*
X148276735Y-103217293D01*
X148324817Y-103089290D01*
X148401266Y-102954703D01*
X148470919Y-103001658D01*
X148528038Y-103209311D01*
X148566884Y-103556815D01*
X148581717Y-104022510D01*
X148589341Y-104445432D01*
X148614642Y-104701809D01*
X148664147Y-104827178D01*
X148735059Y-104857371D01*
X148840832Y-104762683D01*
X148898763Y-104477091D01*
X148909149Y-103998296D01*
X148893343Y-103628432D01*
X148906168Y-103368392D01*
X148965881Y-103204853D01*
X148980393Y-103192380D01*
X149026220Y-103060843D01*
X149059989Y-102735832D01*
X149081158Y-102225935D01*
X149089184Y-101539742D01*
X149089243Y-101467331D01*
X149095300Y-100838567D01*
X149112526Y-100330328D01*
X149139501Y-99966748D01*
X149174806Y-99771962D01*
X149190438Y-99747012D01*
X149231948Y-99624774D01*
X149262514Y-99347519D01*
X149278248Y-99038645D01*
X149696414Y-99038645D01*
X149698278Y-100367562D01*
X149703816Y-101524318D01*
X149712942Y-102504306D01*
X149725574Y-103302917D01*
X149741627Y-103915544D01*
X149761019Y-104337578D01*
X149783664Y-104564412D01*
X149797609Y-104604383D01*
X149839882Y-104727501D01*
X149872894Y-105014744D01*
X149893457Y-105427938D01*
X149898804Y-105816264D01*
X149906433Y-106367599D01*
X149930761Y-106737496D01*
X149973948Y-106946383D01*
X150025299Y-107011985D01*
X150189542Y-107013986D01*
X150223683Y-106994065D01*
X150238672Y-106931873D01*
X157792032Y-106931873D01*
X157842629Y-106982470D01*
X157893227Y-106931873D01*
X157842629Y-106881275D01*
X157792032Y-106931873D01*
X150238672Y-106931873D01*
X150252220Y-106875662D01*
X150283740Y-106591265D01*
X150315271Y-106177180D01*
X150341149Y-105717530D01*
X156476494Y-105717530D01*
X156527091Y-105768128D01*
X156577689Y-105717530D01*
X156527091Y-105666932D01*
X156476494Y-105717530D01*
X150341149Y-105717530D01*
X150343841Y-105669717D01*
X150357281Y-105362293D01*
X150379196Y-104717296D01*
X150398979Y-103962393D01*
X150416541Y-103118715D01*
X150431791Y-102207396D01*
X150444642Y-101249567D01*
X150455002Y-100266363D01*
X150462784Y-99278916D01*
X150467898Y-98308357D01*
X150468287Y-98154480D01*
X151105616Y-98154480D01*
X151106635Y-99074037D01*
X151110729Y-99992568D01*
X151117846Y-100887475D01*
X151127936Y-101736161D01*
X151140946Y-102516026D01*
X151156826Y-103204472D01*
X151175524Y-103778900D01*
X151196987Y-104216714D01*
X151221166Y-104495314D01*
X151239641Y-104583418D01*
X151335785Y-104770187D01*
X151414444Y-104866235D01*
X151477818Y-104857460D01*
X151528110Y-104729759D01*
X151567520Y-104469030D01*
X151598251Y-104061170D01*
X151622504Y-103492076D01*
X151642479Y-102747647D01*
X151658944Y-101897410D01*
X151674316Y-101021096D01*
X151686728Y-100313649D01*
X151696080Y-99741569D01*
X151698229Y-99578367D01*
X152331144Y-99578367D01*
X152332150Y-100785650D01*
X152344943Y-101833536D01*
X152369510Y-102707774D01*
X152405549Y-103390040D01*
X152446620Y-103969477D01*
X152476591Y-104376280D01*
X152500523Y-104639559D01*
X152523479Y-104788425D01*
X152550519Y-104851988D01*
X152586706Y-104859358D01*
X152637101Y-104839645D01*
X152656374Y-104832594D01*
X152738625Y-104711947D01*
X152796454Y-104447504D01*
X152810307Y-104292887D01*
X152847039Y-103954645D01*
X152908238Y-103674415D01*
X152939485Y-103592430D01*
X152960499Y-103449334D01*
X152977443Y-103128081D01*
X152990478Y-102652863D01*
X152999764Y-102047870D01*
X153005462Y-101337293D01*
X153007732Y-100545322D01*
X153006735Y-99696147D01*
X153002630Y-98813958D01*
X152995579Y-97922948D01*
X152985741Y-97047304D01*
X152973277Y-96211219D01*
X152958347Y-95438883D01*
X152941112Y-94754486D01*
X152921732Y-94182218D01*
X152900367Y-93746270D01*
X152877178Y-93470832D01*
X152872155Y-93436027D01*
X152817012Y-93130200D01*
X152768120Y-92993228D01*
X152702556Y-92993690D01*
X152613746Y-93081844D01*
X152551645Y-93180220D01*
X152504064Y-93337432D01*
X152468025Y-93582072D01*
X152440546Y-93942730D01*
X152418649Y-94448000D01*
X152399353Y-95126473D01*
X152398958Y-95142630D01*
X152364537Y-96742606D01*
X152341936Y-98225935D01*
X152331144Y-99578367D01*
X151698229Y-99578367D01*
X151702273Y-99271353D01*
X151705208Y-98869499D01*
X151704786Y-98502506D01*
X151700906Y-98136871D01*
X151693469Y-97739092D01*
X151682377Y-97275668D01*
X151667528Y-96713097D01*
X151648825Y-96017876D01*
X151640568Y-95707479D01*
X151615013Y-94836176D01*
X151588872Y-94151123D01*
X151560987Y-93636179D01*
X151530200Y-93275206D01*
X151495352Y-93052062D01*
X151455285Y-92950609D01*
X151442032Y-92941476D01*
X151342831Y-92990641D01*
X151315538Y-93154918D01*
X151279409Y-93372504D01*
X151214342Y-93472908D01*
X151188908Y-93587129D01*
X151166961Y-93881111D01*
X151148448Y-94332256D01*
X151133320Y-94917965D01*
X151121524Y-95615640D01*
X151113009Y-96402683D01*
X151107723Y-97256496D01*
X151105616Y-98154480D01*
X150468287Y-98154480D01*
X150470254Y-97375821D01*
X150469762Y-96502440D01*
X150466335Y-95709346D01*
X150459881Y-95017673D01*
X150450312Y-94448552D01*
X150437538Y-94023118D01*
X150421470Y-93762501D01*
X150406665Y-93687302D01*
X150366144Y-93547742D01*
X150333954Y-93238977D01*
X150312367Y-92794104D01*
X150303660Y-92246219D01*
X150303585Y-92187729D01*
X150298072Y-91682468D01*
X150282940Y-91258645D01*
X150267075Y-91044223D01*
X157184860Y-91044223D01*
X157235458Y-91094821D01*
X157286055Y-91044223D01*
X157235458Y-90993626D01*
X157184860Y-91044223D01*
X150267075Y-91044223D01*
X150260305Y-90952725D01*
X150232280Y-90801174D01*
X150222629Y-90791235D01*
X150089871Y-90832698D01*
X149996933Y-90974236D01*
X149937994Y-91241574D01*
X149907231Y-91660435D01*
X149898804Y-92222235D01*
X149890522Y-92719539D01*
X149867651Y-93118511D01*
X149833160Y-93382478D01*
X149797609Y-93472908D01*
X149773194Y-93589387D01*
X149751986Y-93903624D01*
X149734069Y-94411012D01*
X149719527Y-95106942D01*
X149708445Y-95986807D01*
X149700904Y-97045998D01*
X149696991Y-98279908D01*
X149696414Y-99038645D01*
X149278248Y-99038645D01*
X149282136Y-98962321D01*
X149290814Y-98516256D01*
X149288547Y-98056402D01*
X149275337Y-97629833D01*
X149251183Y-97283627D01*
X149216085Y-97064858D01*
X149190438Y-97014741D01*
X149148242Y-96891612D01*
X149115282Y-96604025D01*
X149094695Y-96189818D01*
X149089243Y-95794426D01*
X149080766Y-95278430D01*
X149056771Y-94898948D01*
X149055179Y-94889642D01*
X149392828Y-94889642D01*
X149443426Y-94940239D01*
X149494024Y-94889642D01*
X149443426Y-94839044D01*
X149392828Y-94889642D01*
X149055179Y-94889642D01*
X149019407Y-94680578D01*
X148988048Y-94636653D01*
X148906961Y-94555674D01*
X148891681Y-94369286D01*
X148938932Y-94162319D01*
X149010812Y-94047195D01*
X149084166Y-93906403D01*
X149010812Y-93724744D01*
X148920291Y-93478698D01*
X148886852Y-93208903D01*
X148873191Y-93001973D01*
X148814728Y-92963523D01*
X148735059Y-93017530D01*
X148629964Y-93200496D01*
X148583397Y-93470990D01*
X148583267Y-93485299D01*
X148547832Y-93742312D01*
X148436122Y-93827022D01*
X148431474Y-93827092D01*
X148307883Y-93742586D01*
X148279681Y-93623328D01*
X148197647Y-93293454D01*
X147967593Y-92905820D01*
X147855729Y-92764542D01*
X147720349Y-92574904D01*
X147669641Y-92460956D01*
X147581430Y-92189895D01*
X147410325Y-91848262D01*
X147203536Y-91520518D01*
X147023432Y-91304870D01*
X146847796Y-91109877D01*
X146811606Y-91044223D01*
X146964143Y-91044223D01*
X147014741Y-91094821D01*
X147065338Y-91044223D01*
X147014741Y-90993626D01*
X146964143Y-91044223D01*
X146811606Y-91044223D01*
X146763132Y-90956283D01*
X146761753Y-90943028D01*
X146693869Y-90797426D01*
X146530326Y-90609109D01*
X146527541Y-90606484D01*
X146293330Y-90386454D01*
X136933847Y-90386454D01*
X127574363Y-90386454D01*
X127250927Y-90720156D01*
X127056541Y-90942797D01*
X126941203Y-91117569D01*
X126927490Y-91163144D01*
X126857304Y-91312368D01*
X126770688Y-91402564D01*
X126634428Y-91571494D01*
X126475834Y-91843717D01*
X126416771Y-91965391D01*
X126279393Y-92235970D01*
X126159230Y-92421379D01*
X126121076Y-92459011D01*
X126024186Y-92584693D01*
X125892070Y-92829725D01*
X125757487Y-93122828D01*
X125653197Y-93392721D01*
X125611952Y-93566793D01*
X125570803Y-93750826D01*
X125474219Y-93976953D01*
X125362494Y-94163787D01*
X125283067Y-94231083D01*
X125225466Y-94318296D01*
X125207171Y-94478888D01*
X125169859Y-94693159D01*
X125105976Y-94788446D01*
X125026926Y-94928290D01*
X125004781Y-95092032D01*
X124966582Y-95303935D01*
X124903585Y-95395618D01*
X124824535Y-95535461D01*
X124802390Y-95699203D01*
X124764192Y-95911106D01*
X124701195Y-96002789D01*
X124622145Y-96142632D01*
X124600000Y-96306375D01*
X124561801Y-96518277D01*
X124498804Y-96609960D01*
X124419754Y-96749803D01*
X124397609Y-96913546D01*
X124359411Y-97125449D01*
X124296414Y-97217132D01*
X124218081Y-97356622D01*
X124195219Y-97526689D01*
X124159817Y-97713990D01*
X124094024Y-97773705D01*
X124004470Y-97855765D01*
X123992828Y-97926871D01*
X123946340Y-98145117D01*
X123898343Y-98255756D01*
X123816063Y-98456331D01*
X123716821Y-98761191D01*
X123673860Y-98912151D01*
X123584313Y-99189359D01*
X123500161Y-99363044D01*
X123464760Y-99392829D01*
X123404745Y-99479371D01*
X123385657Y-99639845D01*
X123348345Y-99854115D01*
X123284462Y-99949402D01*
X123205412Y-100089246D01*
X123183267Y-100252988D01*
X123145068Y-100464891D01*
X123082071Y-100556574D01*
X122997261Y-100699211D01*
X122980876Y-100816907D01*
X122932088Y-101079669D01*
X122885794Y-101190417D01*
X122783473Y-101443180D01*
X122700312Y-101751720D01*
X122660866Y-102016434D01*
X122663490Y-102092170D01*
X122609238Y-102250287D01*
X122578779Y-102275234D01*
X122497594Y-102416508D01*
X122474900Y-102580478D01*
X122436702Y-102792381D01*
X122373705Y-102884064D01*
X122294655Y-103023907D01*
X122272510Y-103187649D01*
X122234311Y-103399552D01*
X122171314Y-103491235D01*
X122092981Y-103630726D01*
X122070119Y-103800793D01*
X122043507Y-103988542D01*
X121994223Y-104048598D01*
X121897432Y-104134459D01*
X121786640Y-104338221D01*
X121697524Y-104581589D01*
X121665338Y-104770378D01*
X121613812Y-104955626D01*
X121564143Y-105009163D01*
X121485093Y-105149007D01*
X121462948Y-105312749D01*
X121424749Y-105524652D01*
X121361753Y-105616335D01*
X121282703Y-105756178D01*
X121260557Y-105919920D01*
X121222359Y-106131823D01*
X121159362Y-106223506D01*
X121080312Y-106363349D01*
X121058167Y-106527092D01*
X121019969Y-106738995D01*
X120956972Y-106830677D01*
X120878639Y-106970168D01*
X120855777Y-107140235D01*
X120801921Y-107339228D01*
X120703984Y-107387251D01*
X120569316Y-107441894D01*
X120552191Y-107488446D01*
X120644023Y-107542793D01*
X120882459Y-107578722D01*
X121134063Y-107587854D01*
X121715936Y-107586066D01*
X121943625Y-107104154D01*
X122012532Y-106931873D01*
X127737052Y-106931873D01*
X127787649Y-106982470D01*
X127838247Y-106931873D01*
X127787649Y-106881275D01*
X127737052Y-106931873D01*
X122012532Y-106931873D01*
X122076554Y-106771806D01*
X122158581Y-106468491D01*
X122171314Y-106352950D01*
X122178263Y-106307835D01*
X126961221Y-106307835D01*
X126975113Y-106367996D01*
X127028685Y-106375299D01*
X127111980Y-106338273D01*
X127096148Y-106307835D01*
X126976053Y-106295724D01*
X126961221Y-106307835D01*
X122178263Y-106307835D01*
X122205657Y-106129988D01*
X122210371Y-106122311D01*
X126421514Y-106122311D01*
X126472111Y-106172908D01*
X126522709Y-106122311D01*
X126472111Y-106071713D01*
X126421514Y-106122311D01*
X122210371Y-106122311D01*
X122272510Y-106021116D01*
X122351560Y-105881272D01*
X122373705Y-105717530D01*
X122411903Y-105505627D01*
X122474900Y-105413944D01*
X122553233Y-105274454D01*
X122576095Y-105104386D01*
X122611497Y-104917086D01*
X122677291Y-104857371D01*
X122748343Y-104769435D01*
X122757425Y-104705578D01*
X126016733Y-104705578D01*
X126067330Y-104756175D01*
X126117928Y-104705578D01*
X126067330Y-104654980D01*
X126016733Y-104705578D01*
X122757425Y-104705578D01*
X122778478Y-104557562D01*
X122778486Y-104553785D01*
X122807798Y-104340628D01*
X122878422Y-104250223D01*
X122879681Y-104250199D01*
X122924608Y-104199602D01*
X123284462Y-104199602D01*
X123335059Y-104250199D01*
X123385657Y-104199602D01*
X123335059Y-104149004D01*
X123284462Y-104199602D01*
X122924608Y-104199602D01*
X122956413Y-104163784D01*
X122980876Y-104003183D01*
X123018188Y-103788913D01*
X123082071Y-103693626D01*
X123161122Y-103553782D01*
X123183267Y-103390040D01*
X123221465Y-103178137D01*
X123284462Y-103086454D01*
X123369925Y-102943506D01*
X123385657Y-102830572D01*
X123433773Y-102620111D01*
X123552939Y-102342333D01*
X123588048Y-102276893D01*
X123718684Y-101998341D01*
X123787369Y-101762216D01*
X123790438Y-101723213D01*
X123837612Y-101530774D01*
X123891633Y-101467331D01*
X123964841Y-101330381D01*
X123992828Y-101110253D01*
X124043296Y-100826326D01*
X124167511Y-100507481D01*
X124195219Y-100455379D01*
X124326429Y-100170138D01*
X124394806Y-99920690D01*
X124397609Y-99880043D01*
X124408509Y-99734245D01*
X124475452Y-99741358D01*
X124600000Y-99848207D01*
X124718000Y-99999727D01*
X124780435Y-100221028D01*
X124801773Y-100571112D01*
X124802390Y-100673453D01*
X124817002Y-101010955D01*
X124855553Y-101241339D01*
X124903585Y-101315538D01*
X124974638Y-101403473D01*
X125004773Y-101615347D01*
X125004781Y-101619124D01*
X125034092Y-101832281D01*
X125104717Y-101922686D01*
X125105976Y-101922709D01*
X125182708Y-102009124D01*
X125207171Y-102169725D01*
X125244483Y-102383995D01*
X125308366Y-102479283D01*
X125387416Y-102619126D01*
X125409561Y-102782869D01*
X125447760Y-102994771D01*
X125510757Y-103086454D01*
X125596431Y-103229502D01*
X125611952Y-103340921D01*
X125666729Y-103540558D01*
X125803961Y-103810113D01*
X125864940Y-103905644D01*
X126019794Y-104159526D01*
X126109198Y-104355845D01*
X126117928Y-104400430D01*
X126186815Y-104554264D01*
X126320318Y-104705578D01*
X126472068Y-104883867D01*
X126522709Y-105009163D01*
X126591543Y-105161751D01*
X126725099Y-105312749D01*
X126876658Y-105488550D01*
X126927490Y-105609888D01*
X126995235Y-105729087D01*
X127175673Y-105947254D01*
X127434603Y-106224129D01*
X127534661Y-106324701D01*
X127812614Y-106612913D01*
X128023666Y-106856810D01*
X128133582Y-107015869D01*
X128141832Y-107043396D01*
X128226714Y-107159661D01*
X128354405Y-107216844D01*
X128495559Y-107301134D01*
X128499784Y-107381155D01*
X128517855Y-107502463D01*
X128590797Y-107550585D01*
X128711535Y-107608605D01*
X128736394Y-107656917D01*
X128652814Y-107696262D01*
X128448236Y-107727382D01*
X128110098Y-107751018D01*
X127625841Y-107767913D01*
X126982904Y-107778807D01*
X126168729Y-107784443D01*
X125170753Y-107785561D01*
X124625299Y-107784717D01*
X123604273Y-107782290D01*
X122766317Y-107779237D01*
X122092109Y-107774528D01*
X121562329Y-107767133D01*
X121157655Y-107756019D01*
X120858767Y-107740158D01*
X120646344Y-107718517D01*
X120501064Y-107690067D01*
X120403608Y-107653777D01*
X120334654Y-107608617D01*
X120274881Y-107553555D01*
X120273904Y-107552598D01*
X120046215Y-107329536D01*
X120046215Y-98978123D01*
X120046215Y-95818335D01*
X120683695Y-95818335D01*
X120684232Y-96742267D01*
X120687097Y-97694262D01*
X120692198Y-98652531D01*
X120699442Y-99595287D01*
X120708737Y-100500741D01*
X120719990Y-101347107D01*
X120733109Y-102112594D01*
X120748000Y-102775417D01*
X120764571Y-103313785D01*
X120782731Y-103705912D01*
X120802385Y-103930010D01*
X120803797Y-103938744D01*
X120889158Y-104285493D01*
X120996504Y-104508309D01*
X121107645Y-104578751D01*
X121177480Y-104522935D01*
X121207376Y-104379864D01*
X121231983Y-104084042D01*
X121247964Y-103685096D01*
X121252046Y-103413476D01*
X121260576Y-102977266D01*
X121278778Y-102615164D01*
X121303589Y-102376304D01*
X121320682Y-102312074D01*
X121332964Y-102193061D01*
X121343055Y-101894799D01*
X121351019Y-101440416D01*
X121356341Y-100910757D01*
X121665338Y-100910757D01*
X121702364Y-100994052D01*
X121732802Y-100978221D01*
X121744913Y-100858125D01*
X121732802Y-100843294D01*
X121672641Y-100857185D01*
X121665338Y-100910757D01*
X121356341Y-100910757D01*
X121356921Y-100853043D01*
X121360826Y-100155809D01*
X121362796Y-99371841D01*
X121362898Y-98524270D01*
X121361194Y-97636224D01*
X121357750Y-96730832D01*
X121352630Y-95831224D01*
X121345898Y-94960528D01*
X121337618Y-94141873D01*
X121327855Y-93398389D01*
X121316674Y-92753205D01*
X121304137Y-92229448D01*
X121291662Y-91879084D01*
X121266593Y-91396729D01*
X121238786Y-91081742D01*
X121200443Y-90899166D01*
X121143765Y-90814042D01*
X121060951Y-90791411D01*
X121048956Y-90791235D01*
X120935261Y-90819178D01*
X120877020Y-90934954D01*
X120856971Y-91186485D01*
X120855777Y-91327570D01*
X120837530Y-91649850D01*
X120790810Y-91890943D01*
X120752914Y-91966767D01*
X120734559Y-92084194D01*
X120719180Y-92382200D01*
X120706685Y-92838997D01*
X120696982Y-93432797D01*
X120689978Y-94141812D01*
X120685580Y-94944254D01*
X120683695Y-95818335D01*
X120046215Y-95818335D01*
X120046215Y-90626710D01*
X120327862Y-90356875D01*
X120609509Y-90087040D01*
X150110231Y-90084748D01*
X153037348Y-90084479D01*
X155768754Y-90084207D01*
X158311126Y-90084032D01*
X160671145Y-90084053D01*
G37*
%TO.C,D7*%
X140435000Y-106764000D02*
X140435000Y-106920000D01*
X140435000Y-109080000D02*
X140435000Y-109236000D01*
X143667334Y-106921392D02*
G75*
G03*
X140435001Y-106764485I-1672334J-1078608D01*
G01*
X143036129Y-106920164D02*
G75*
G03*
X140954040Y-106920001I-1041129J-1079836D01*
G01*
X140954040Y-109079999D02*
G75*
G03*
X143036129Y-109079836I1040960J1079999D01*
G01*
X140435001Y-109235515D02*
G75*
G03*
X143667334Y-109078608I1559999J1235515D01*
G01*
%TO.C,D2*%
X144885175Y-94990914D02*
X145012963Y-94901436D01*
X146782331Y-93662511D02*
X146910119Y-93573033D01*
X143160113Y-92252863D02*
G75*
G03*
X144885572Y-94990635I1842755J-751233D01*
G01*
X143521150Y-92770621D02*
G75*
G03*
X144715254Y-94476264I1481718J-233475D01*
G01*
X146484623Y-93237339D02*
G75*
G03*
X145290251Y-91531883I-1481755J233243D01*
G01*
X146909723Y-93573310D02*
G75*
G03*
X144927200Y-91015535I-1906855J569214D01*
G01*
%TO.C,D1*%
X144593558Y-102191773D02*
X144744243Y-102232149D01*
X146830642Y-102791198D02*
X146981327Y-102831574D01*
X145582177Y-99110314D02*
G75*
G03*
X144594026Y-102191898I609023J-1894515D01*
G01*
X145417623Y-99719693D02*
G75*
G03*
X144878581Y-101730796I773577J-1285136D01*
G01*
X146964980Y-102289845D02*
G75*
G03*
X147503707Y-100278657I-773780J1285016D01*
G01*
X146980859Y-102831449D02*
G75*
G03*
X147665888Y-99668642I-789659J1826620D01*
G01*
%TO.C,D15*%
X156346135Y-100009086D02*
X156218347Y-100098564D01*
X154448979Y-101337489D02*
X154321191Y-101426967D01*
X158071197Y-102747137D02*
G75*
G03*
X156345738Y-100009365I-1842755J751233D01*
G01*
X157710160Y-102229379D02*
G75*
G03*
X156516056Y-100523736I-1481718J233475D01*
G01*
X154746687Y-101762661D02*
G75*
G03*
X155941059Y-103468117I1481755J-233243D01*
G01*
X154321587Y-101426690D02*
G75*
G03*
X156304110Y-103984465I1906855J-569214D01*
G01*
%TO.C,D10*%
X162170000Y-106764000D02*
X162170000Y-106920000D01*
X162170000Y-109080000D02*
X162170000Y-109236000D01*
X165402334Y-106921392D02*
G75*
G03*
X162170001Y-106764485I-1672334J-1078608D01*
G01*
X164771129Y-106920164D02*
G75*
G03*
X162689040Y-106920001I-1041129J-1079836D01*
G01*
X162689040Y-109079999D02*
G75*
G03*
X164771129Y-109079836I1040960J1079999D01*
G01*
X162170001Y-109235515D02*
G75*
G03*
X165402334Y-109078608I1559999J1235515D01*
G01*
%TD*%
M02*
