M48
; DRILL file {KiCad 7.0.9} date Fri Feb 16 19:17:02 2024
; FORMAT={-:-/ absolute / inch / decimal}
; #@! TF.CreationDate,2024-02-16T19:17:02-08:00
; #@! TF.GenerationSoftware,Kicad,Pcbnew,7.0.9
; #@! TF.FileFunction,Plated,1,2,PTH
FMAT,2
INCH
; #@! TA.AperFunction,Plated,PTH,ViaDrill
T1C0.0157
; #@! TA.AperFunction,Plated,PTH,ComponentDrill
T2C0.0315
; #@! TA.AperFunction,Plated,PTH,ComponentDrill
T3C0.0354
; #@! TA.AperFunction,Plated,PTH,ComponentDrill
T4C0.0394
%
G90
G05
T1
X5.2559Y-3.8287
X5.3839Y-3.9272
X5.7087Y-3.5236
X5.8563Y-3.7402
X5.9646Y-3.7894
X6.0335Y-4.0256
X6.0925Y-3.6024
X6.4567Y-4.0453
T2
X6.2598Y-3.3071
X6.5598Y-3.3071
T3
X5.0303Y-3.9943
X5.0502Y-3.7219
X5.0876Y-4.0762
X5.1075Y-3.64
X5.2254Y-4.252
X5.3254Y-4.252
X5.3331Y-3.5236
X5.4331Y-3.5236
X5.5404Y-4.252
X5.6404Y-4.252
X5.6801Y-3.6206
X5.7375Y-3.7025
X5.7426Y-4.0249
X5.7685Y-3.9283
X5.8356Y-4.252
X5.9356Y-4.252
X6.1112Y-4.252
X6.122Y-3.9746
X6.1434Y-3.7416
X6.1794Y-4.0565
X6.2008Y-3.6597
X6.2112Y-4.252
X6.3872Y-3.563
X6.3961Y-4.252
X6.4872Y-3.563
X6.4961Y-4.252
X6.6732Y-4.1142
X6.7037Y-3.6994
X6.7306Y-4.0323
X6.7611Y-3.7813
T4
X5.8258Y-3.2858
X5.8258Y-3.3858
X5.9258Y-3.2858
X5.9258Y-3.3858
X6.0258Y-3.2858
X6.0258Y-3.3858
T0
M30
