%TF.GenerationSoftware,KiCad,Pcbnew,7.0.7*%
%TF.CreationDate,2024-03-11T11:39:52-07:00*%
%TF.ProjectId,DC32_Cassette_SAO,44433332-5f43-4617-9373-657474655f53,rev?*%
%TF.SameCoordinates,Original*%
%TF.FileFunction,Copper,L2,Bot*%
%TF.FilePolarity,Positive*%
%FSLAX46Y46*%
G04 Gerber Fmt 4.6, Leading zero omitted, Abs format (unit mm)*
G04 Created by KiCad (PCBNEW 7.0.7) date 2024-03-11 11:39:52*
%MOMM*%
%LPD*%
G01*
G04 APERTURE LIST*
G04 Aperture macros list*
%AMRotRect*
0 Rectangle, with rotation*
0 The origin of the aperture is its center*
0 $1 length*
0 $2 width*
0 $3 Rotation angle, in degrees counterclockwise*
0 Add horizontal line*
21,1,$1,$2,0,0,$3*%
G04 Aperture macros list end*
%TA.AperFunction,ComponentPad*%
%ADD10R,1.800000X1.800000*%
%TD*%
%TA.AperFunction,ComponentPad*%
%ADD11C,1.800000*%
%TD*%
%TA.AperFunction,ComponentPad*%
%ADD12RotRect,1.800000X1.800000X125.000000*%
%TD*%
%TA.AperFunction,ComponentPad*%
%ADD13RotRect,1.800000X1.800000X305.000000*%
%TD*%
%TA.AperFunction,ComponentPad*%
%ADD14RotRect,1.800000X1.800000X235.000000*%
%TD*%
%TA.AperFunction,ComponentPad*%
%ADD15RotRect,1.800000X1.800000X55.000000*%
%TD*%
%TA.AperFunction,ComponentPad*%
%ADD16RotRect,1.800000X1.800000X75.000000*%
%TD*%
%TA.AperFunction,ComponentPad*%
%ADD17C,1.600000*%
%TD*%
%TA.AperFunction,ComponentPad*%
%ADD18O,1.600000X1.600000*%
%TD*%
%TA.AperFunction,ComponentPad*%
%ADD19R,1.700000X1.700000*%
%TD*%
%TA.AperFunction,ComponentPad*%
%ADD20O,1.700000X1.700000*%
%TD*%
%TA.AperFunction,ViaPad*%
%ADD21C,0.800000*%
%TD*%
%TA.AperFunction,Conductor*%
%ADD22C,0.250000*%
%TD*%
G04 APERTURE END LIST*
D10*
%TO.P,D3,1,K*%
%TO.N,GND*%
X138000000Y-89500000D03*
D11*
%TO.P,D3,2,A*%
%TO.N,Net-(D12-A)*%
X135460000Y-89500000D03*
%TD*%
D12*
%TO.P,D12,1,K*%
%TO.N,GND*%
X171731310Y-96044419D03*
D11*
%TO.P,D12,2,A*%
%TO.N,Net-(D12-A)*%
X170274426Y-93963773D03*
%TD*%
D10*
%TO.P,D8,1,K*%
%TO.N,GND*%
X148225000Y-108000000D03*
D11*
%TO.P,D8,2,A*%
%TO.N,Net-(D11-A)*%
X150765000Y-108000000D03*
%TD*%
D13*
%TO.P,D5,1,K*%
%TO.N,GND*%
X127768690Y-101455581D03*
D11*
%TO.P,D5,2,A*%
%TO.N,Net-(D11-A)*%
X129225574Y-103536227D03*
%TD*%
D14*
%TO.P,D14,1,K*%
%TO.N,GND*%
X157500000Y-92955581D03*
D11*
%TO.P,D14,2,A*%
%TO.N,Net-(D11-A)*%
X156043116Y-95036227D03*
%TD*%
D10*
%TO.P,D6,1,K*%
%TO.N,GND*%
X132725000Y-108000000D03*
D11*
%TO.P,D6,2,A*%
%TO.N,Net-(D12-A)*%
X135265000Y-108000000D03*
%TD*%
D14*
%TO.P,D4,1,K*%
%TO.N,GND*%
X129731310Y-92455581D03*
D11*
%TO.P,D4,2,A*%
%TO.N,Net-(D1-A)*%
X128274426Y-94536227D03*
%TD*%
D15*
%TO.P,D11,1,K*%
%TO.N,GND*%
X169500000Y-104500000D03*
D11*
%TO.P,D11,2,A*%
%TO.N,Net-(D11-A)*%
X170956884Y-102419354D03*
%TD*%
D10*
%TO.P,D9,1,K*%
%TO.N,GND*%
X155225000Y-108000000D03*
D11*
%TO.P,D9,2,A*%
%TO.N,Net-(D12-A)*%
X157765000Y-108000000D03*
%TD*%
D10*
%TO.P,D13,1,K*%
%TO.N,GND*%
X164775000Y-90500000D03*
D11*
%TO.P,D13,2,A*%
%TO.N,Net-(D1-A)*%
X162235000Y-90500000D03*
%TD*%
D10*
%TO.P,D7,1,K*%
%TO.N,GND*%
X140725000Y-108000000D03*
D11*
%TO.P,D7,2,A*%
%TO.N,Net-(D1-A)*%
X143265000Y-108000000D03*
%TD*%
D12*
%TO.P,D2,1,K*%
%TO.N,GND*%
X145731310Y-94044419D03*
D11*
%TO.P,D2,2,A*%
%TO.N,Net-(D11-A)*%
X144274426Y-91963773D03*
%TD*%
D16*
%TO.P,D1,1,K*%
%TO.N,GND*%
X145862500Y-102231555D03*
D11*
%TO.P,D1,2,A*%
%TO.N,Net-(D1-A)*%
X146519900Y-99778103D03*
%TD*%
D13*
%TO.P,D15,1,K*%
%TO.N,GND*%
X155500000Y-100955581D03*
D11*
%TO.P,D15,2,A*%
%TO.N,Net-(D12-A)*%
X156956884Y-103036227D03*
%TD*%
D10*
%TO.P,D10,1,K*%
%TO.N,GND*%
X162460000Y-108000000D03*
D11*
%TO.P,D10,2,A*%
%TO.N,Net-(D1-A)*%
X165000000Y-108000000D03*
%TD*%
D17*
%TO.P,R1,1*%
%TO.N,Net-(J1-Pin_6)*%
X154620000Y-118000000D03*
D18*
%TO.P,R1,2*%
%TO.N,GND*%
X147000000Y-118000000D03*
%TD*%
D19*
%TO.P,J1,1,Pin_1*%
%TO.N,unconnected-(J1-Pin_1-Pad1)*%
X147975000Y-86000000D03*
D20*
%TO.P,J1,2,Pin_2*%
%TO.N,Net-(D12-A)*%
X147975000Y-83460000D03*
%TO.P,J1,3,Pin_3*%
%TO.N,Net-(D1-A)*%
X150515000Y-86000000D03*
%TO.P,J1,4,Pin_4*%
%TO.N,Net-(D11-A)*%
X150515000Y-83460000D03*
%TO.P,J1,5,Pin_5*%
%TO.N,unconnected-(J1-Pin_5-Pad5)*%
X153055000Y-86000000D03*
%TO.P,J1,6,Pin_6*%
%TO.N,Net-(J1-Pin_6)*%
X153055000Y-83460000D03*
%TD*%
D21*
%TO.N,Net-(D1-A)*%
X148750000Y-95000000D03*
X133500000Y-97250000D03*
X154750000Y-91500000D03*
%TO.N,Net-(D11-A)*%
X136750000Y-99750000D03*
%TO.N,Net-(D12-A)*%
X153250000Y-102250000D03*
X151500000Y-96250000D03*
X164000000Y-102750000D03*
X145000000Y-89500000D03*
%TD*%
D22*
%TO.N,GND*%
X127768690Y-104193690D02*
X131575000Y-108000000D01*
X138000000Y-89500000D02*
X138000000Y-88500000D01*
X147000000Y-118000000D02*
X147000000Y-110275000D01*
X135436891Y-86750000D02*
X129731310Y-92455581D01*
X162460000Y-108000000D02*
X162500000Y-108000000D01*
X148750000Y-97063109D02*
X145731310Y-94044419D01*
X153225000Y-110000000D02*
X155225000Y-108000000D01*
X153500000Y-96750000D02*
X153500000Y-95250000D01*
X157500000Y-91500000D02*
X160000000Y-89000000D01*
X145862500Y-102231555D02*
X148750000Y-99344055D01*
X155225000Y-101230581D02*
X155500000Y-100955581D01*
X148750000Y-99344055D02*
X148750000Y-97063109D01*
X164750000Y-110250000D02*
X167250000Y-110250000D01*
X140000000Y-108725000D02*
X140725000Y-108000000D01*
X146475000Y-109750000D02*
X148225000Y-108000000D01*
X133975000Y-109250000D02*
X140000000Y-109250000D01*
X131575000Y-108000000D02*
X132725000Y-108000000D01*
X155225000Y-108000000D02*
X157225000Y-110000000D01*
X169500000Y-104500000D02*
X172250000Y-104500000D01*
X142250000Y-109750000D02*
X146475000Y-109750000D01*
X140725000Y-108225000D02*
X142250000Y-109750000D01*
X162500000Y-108000000D02*
X164750000Y-110250000D01*
X138000000Y-88500000D02*
X136250000Y-86750000D01*
X140725000Y-108000000D02*
X140725000Y-108225000D01*
X155225000Y-108000000D02*
X155225000Y-101230581D01*
X160000000Y-89000000D02*
X163275000Y-89000000D01*
X157225000Y-110000000D02*
X161000000Y-110000000D01*
X140000000Y-109250000D02*
X140000000Y-108725000D01*
X150250000Y-110000000D02*
X153225000Y-110000000D01*
X145127653Y-94648076D02*
X145731310Y-94044419D01*
X155500000Y-100955581D02*
X155500000Y-98750000D01*
X127768690Y-101455581D02*
X127768690Y-104193690D01*
X173044419Y-96044419D02*
X171731310Y-96044419D01*
X148225000Y-108000000D02*
X148225000Y-104594055D01*
X153500000Y-95250000D02*
X155794419Y-92955581D01*
X128294419Y-92455581D02*
X126250000Y-94500000D01*
X155794419Y-92955581D02*
X157500000Y-92955581D01*
X148250000Y-108000000D02*
X150250000Y-110000000D01*
X148225000Y-104594055D02*
X145862500Y-102231555D01*
X129731310Y-92455581D02*
X128294419Y-92455581D01*
X172250000Y-104500000D02*
X173500000Y-103250000D01*
X147000000Y-110275000D02*
X146475000Y-109750000D01*
X155500000Y-98750000D02*
X153500000Y-96750000D01*
X161000000Y-110000000D02*
X162460000Y-108540000D01*
X162460000Y-108540000D02*
X162460000Y-108000000D01*
X155500000Y-107725000D02*
X155225000Y-108000000D01*
X126250000Y-94500000D02*
X126250000Y-99936891D01*
X148225000Y-108000000D02*
X148250000Y-108000000D01*
X126250000Y-99936891D02*
X127768690Y-101455581D01*
X169500000Y-108000000D02*
X169500000Y-104500000D01*
X163275000Y-89000000D02*
X164775000Y-90500000D01*
X173500000Y-96500000D02*
X173044419Y-96044419D01*
X167250000Y-110250000D02*
X169500000Y-108000000D01*
X157500000Y-92955581D02*
X157500000Y-91500000D01*
X132725000Y-108000000D02*
X133975000Y-109250000D01*
X136250000Y-86750000D02*
X135436891Y-86750000D01*
X173500000Y-103250000D02*
X173500000Y-96500000D01*
X145862500Y-102231555D02*
X145127653Y-101496708D01*
%TO.N,Net-(D1-A)*%
X143265000Y-101760211D02*
X145247108Y-99778103D01*
X150515000Y-86000000D02*
X150515000Y-93235000D01*
X128274426Y-94536227D02*
X130786227Y-94536227D01*
X154750000Y-91500000D02*
X152250000Y-91500000D01*
X143265000Y-108000000D02*
X143265000Y-101760211D01*
X150515000Y-93235000D02*
X148750000Y-95000000D01*
X145247108Y-99778103D02*
X146519900Y-99778103D01*
X152250000Y-91500000D02*
X150515000Y-93235000D01*
X130786227Y-94536227D02*
X133500000Y-97250000D01*
%TO.N,Net-(J1-Pin_6)*%
X176000000Y-88000000D02*
X172000000Y-84000000D01*
X176000000Y-110000000D02*
X176000000Y-88000000D01*
X172000000Y-114000000D02*
X176000000Y-110000000D01*
X153595000Y-84000000D02*
X153055000Y-83460000D01*
X154620000Y-118000000D02*
X154620000Y-115380000D01*
X172000000Y-84000000D02*
X153595000Y-84000000D01*
X154620000Y-115380000D02*
X156000000Y-114000000D01*
X156000000Y-114000000D02*
X172000000Y-114000000D01*
%TO.N,Net-(D11-A)*%
X170956884Y-102419354D02*
X163573757Y-95036227D01*
X136750000Y-99488199D02*
X136750000Y-99750000D01*
X150515000Y-83460000D02*
X149340000Y-84635000D01*
X149340000Y-84635000D02*
X149340000Y-86898199D01*
X163573757Y-95036227D02*
X156043116Y-95036227D01*
X144274426Y-91963773D02*
X136750000Y-99488199D01*
X149340000Y-86898199D02*
X144274426Y-91963773D01*
%TO.N,Net-(D12-A)*%
X170449472Y-103644354D02*
X171855646Y-103644354D01*
X135460000Y-89500000D02*
X136685000Y-90725000D01*
X141935000Y-89500000D02*
X140710000Y-90725000D01*
X169500000Y-95747203D02*
X169500000Y-94738199D01*
X153250000Y-98000000D02*
X151500000Y-96250000D01*
X136685000Y-90725000D02*
X140710000Y-90725000D01*
X171855646Y-103644354D02*
X172750000Y-102750000D01*
X153250000Y-102250000D02*
X153250000Y-98000000D01*
X172750000Y-98997203D02*
X169500000Y-95747203D01*
X169555118Y-102750000D02*
X170449472Y-103644354D01*
X140710000Y-90725000D02*
X147975000Y-83460000D01*
X172750000Y-102750000D02*
X172750000Y-98997203D01*
X135460000Y-107805000D02*
X135265000Y-108000000D01*
X135460000Y-89500000D02*
X135460000Y-107805000D01*
X169500000Y-94738199D02*
X170274426Y-93963773D01*
X164000000Y-102750000D02*
X169555118Y-102750000D01*
X145000000Y-89500000D02*
X141935000Y-89500000D01*
%TD*%
M02*
