%TF.GenerationSoftware,KiCad,Pcbnew,7.0.7*%
%TF.CreationDate,2024-03-11T11:39:52-07:00*%
%TF.ProjectId,DC32_Cassette_SAO,44433332-5f43-4617-9373-657474655f53,rev?*%
%TF.SameCoordinates,Original*%
%TF.FileFunction,Profile,NP*%
%FSLAX46Y46*%
G04 Gerber Fmt 4.6, Leading zero omitted, Abs format (unit mm)*
G04 Created by KiCad (PCBNEW 7.0.7) date 2024-03-11 11:39:52*
%MOMM*%
%LPD*%
G01*
G04 APERTURE LIST*
%TA.AperFunction,Profile*%
%ADD10C,0.100000*%
%TD*%
G04 APERTURE END LIST*
D10*
X171300000Y-120300000D02*
X171900000Y-119600000D01*
X128200000Y-119600000D02*
X128800000Y-120500000D01*
X181300000Y-116300000D02*
X182200000Y-115400000D01*
X181300000Y-80200000D02*
X179900000Y-79700000D01*
X179900000Y-79700000D02*
X120400000Y-79600000D01*
X181400000Y-81800000D02*
X181300000Y-80200000D01*
X117900000Y-104400000D02*
X118800000Y-103600000D01*
X182200000Y-115400000D02*
X182200000Y-104400000D01*
X181400000Y-103600000D02*
X181400000Y-81800000D01*
X118700000Y-116300000D02*
X118700000Y-118000000D01*
X128800000Y-120500000D02*
X171300000Y-120300000D01*
X119000000Y-79800000D02*
X120400000Y-79600000D01*
X117700000Y-115500000D02*
X118700000Y-116300000D01*
X118800000Y-81600000D02*
X118800000Y-103600000D01*
X181300000Y-118300000D02*
X181300000Y-116300000D01*
X120100000Y-119600000D02*
X128200000Y-119600000D01*
X171900000Y-119600000D02*
X179500000Y-119600000D01*
X117900000Y-104400000D02*
X117700000Y-115500000D01*
X120100000Y-119600000D02*
X118700000Y-118000000D01*
X118800000Y-81600000D02*
X119000000Y-79800000D01*
X182200000Y-104400000D02*
X181400000Y-103600000D01*
X179500000Y-119600000D02*
X181300000Y-118300000D01*
M02*
