%TF.GenerationSoftware,KiCad,Pcbnew,7.0.9*%
%TF.CreationDate,2024-02-16T19:17:06-08:00*%
%TF.ProjectId,DC32_Cassette_SAO,44433332-5f43-4617-9373-657474655f53,rev?*%
%TF.SameCoordinates,Original*%
%TF.FileFunction,Legend,Top*%
%TF.FilePolarity,Positive*%
%FSLAX46Y46*%
G04 Gerber Fmt 4.6, Leading zero omitted, Abs format (unit mm)*
G04 Created by KiCad (PCBNEW 7.0.9) date 2024-02-16 19:17:06*
%MOMM*%
%LPD*%
G01*
G04 APERTURE LIST*
%ADD10C,0.150000*%
%ADD11C,0.120000*%
G04 APERTURE END LIST*
D10*
X135991905Y-92914819D02*
X135991905Y-91914819D01*
X135991905Y-91914819D02*
X136230000Y-91914819D01*
X136230000Y-91914819D02*
X136372857Y-91962438D01*
X136372857Y-91962438D02*
X136468095Y-92057676D01*
X136468095Y-92057676D02*
X136515714Y-92152914D01*
X136515714Y-92152914D02*
X136563333Y-92343390D01*
X136563333Y-92343390D02*
X136563333Y-92486247D01*
X136563333Y-92486247D02*
X136515714Y-92676723D01*
X136515714Y-92676723D02*
X136468095Y-92771961D01*
X136468095Y-92771961D02*
X136372857Y-92867200D01*
X136372857Y-92867200D02*
X136230000Y-92914819D01*
X136230000Y-92914819D02*
X135991905Y-92914819D01*
X136896667Y-91914819D02*
X137515714Y-91914819D01*
X137515714Y-91914819D02*
X137182381Y-92295771D01*
X137182381Y-92295771D02*
X137325238Y-92295771D01*
X137325238Y-92295771D02*
X137420476Y-92343390D01*
X137420476Y-92343390D02*
X137468095Y-92391009D01*
X137468095Y-92391009D02*
X137515714Y-92486247D01*
X137515714Y-92486247D02*
X137515714Y-92724342D01*
X137515714Y-92724342D02*
X137468095Y-92819580D01*
X137468095Y-92819580D02*
X137420476Y-92867200D01*
X137420476Y-92867200D02*
X137325238Y-92914819D01*
X137325238Y-92914819D02*
X137039524Y-92914819D01*
X137039524Y-92914819D02*
X136944286Y-92867200D01*
X136944286Y-92867200D02*
X136896667Y-92819580D01*
X167509126Y-95968070D02*
X168328278Y-95394494D01*
X168328278Y-95394494D02*
X168464844Y-95589530D01*
X168464844Y-95589530D02*
X168507776Y-95733865D01*
X168507776Y-95733865D02*
X168484388Y-95866506D01*
X168484388Y-95866506D02*
X168433686Y-95960139D01*
X168433686Y-95960139D02*
X168304971Y-96108399D01*
X168304971Y-96108399D02*
X168187949Y-96190339D01*
X168187949Y-96190339D02*
X168004607Y-96260584D01*
X168004607Y-96260584D02*
X167899279Y-96276203D01*
X167899279Y-96276203D02*
X167766638Y-96252815D01*
X167766638Y-96252815D02*
X167645692Y-96163107D01*
X167645692Y-96163107D02*
X167509126Y-95968070D01*
X168383147Y-97216302D02*
X168055389Y-96748215D01*
X168219268Y-96982259D02*
X169038420Y-96408682D01*
X169038420Y-96408682D02*
X168866772Y-96412607D01*
X168866772Y-96412607D02*
X168734131Y-96389219D01*
X168734131Y-96389219D02*
X168640498Y-96338518D01*
X169342790Y-97009410D02*
X169409110Y-97021104D01*
X169409110Y-97021104D02*
X169502744Y-97071805D01*
X169502744Y-97071805D02*
X169639310Y-97266841D01*
X169639310Y-97266841D02*
X169654929Y-97372169D01*
X169654929Y-97372169D02*
X169643235Y-97438490D01*
X169643235Y-97438490D02*
X169592533Y-97532123D01*
X169592533Y-97532123D02*
X169514519Y-97586749D01*
X169514519Y-97586749D02*
X169370184Y-97629682D01*
X169370184Y-97629682D02*
X168574339Y-97489353D01*
X168574339Y-97489353D02*
X168929410Y-97996447D01*
X148756905Y-105494819D02*
X148756905Y-104494819D01*
X148756905Y-104494819D02*
X148995000Y-104494819D01*
X148995000Y-104494819D02*
X149137857Y-104542438D01*
X149137857Y-104542438D02*
X149233095Y-104637676D01*
X149233095Y-104637676D02*
X149280714Y-104732914D01*
X149280714Y-104732914D02*
X149328333Y-104923390D01*
X149328333Y-104923390D02*
X149328333Y-105066247D01*
X149328333Y-105066247D02*
X149280714Y-105256723D01*
X149280714Y-105256723D02*
X149233095Y-105351961D01*
X149233095Y-105351961D02*
X149137857Y-105447200D01*
X149137857Y-105447200D02*
X148995000Y-105494819D01*
X148995000Y-105494819D02*
X148756905Y-105494819D01*
X149899762Y-104923390D02*
X149804524Y-104875771D01*
X149804524Y-104875771D02*
X149756905Y-104828152D01*
X149756905Y-104828152D02*
X149709286Y-104732914D01*
X149709286Y-104732914D02*
X149709286Y-104685295D01*
X149709286Y-104685295D02*
X149756905Y-104590057D01*
X149756905Y-104590057D02*
X149804524Y-104542438D01*
X149804524Y-104542438D02*
X149899762Y-104494819D01*
X149899762Y-104494819D02*
X150090238Y-104494819D01*
X150090238Y-104494819D02*
X150185476Y-104542438D01*
X150185476Y-104542438D02*
X150233095Y-104590057D01*
X150233095Y-104590057D02*
X150280714Y-104685295D01*
X150280714Y-104685295D02*
X150280714Y-104732914D01*
X150280714Y-104732914D02*
X150233095Y-104828152D01*
X150233095Y-104828152D02*
X150185476Y-104875771D01*
X150185476Y-104875771D02*
X150090238Y-104923390D01*
X150090238Y-104923390D02*
X149899762Y-104923390D01*
X149899762Y-104923390D02*
X149804524Y-104971009D01*
X149804524Y-104971009D02*
X149756905Y-105018628D01*
X149756905Y-105018628D02*
X149709286Y-105113866D01*
X149709286Y-105113866D02*
X149709286Y-105304342D01*
X149709286Y-105304342D02*
X149756905Y-105399580D01*
X149756905Y-105399580D02*
X149804524Y-105447200D01*
X149804524Y-105447200D02*
X149899762Y-105494819D01*
X149899762Y-105494819D02*
X150090238Y-105494819D01*
X150090238Y-105494819D02*
X150185476Y-105447200D01*
X150185476Y-105447200D02*
X150233095Y-105399580D01*
X150233095Y-105399580D02*
X150280714Y-105304342D01*
X150280714Y-105304342D02*
X150280714Y-105113866D01*
X150280714Y-105113866D02*
X150233095Y-105018628D01*
X150233095Y-105018628D02*
X150185476Y-104971009D01*
X150185476Y-104971009D02*
X150090238Y-104923390D01*
X130125902Y-100454379D02*
X130945054Y-99880803D01*
X130945054Y-99880803D02*
X131081620Y-100075839D01*
X131081620Y-100075839D02*
X131124552Y-100220174D01*
X131124552Y-100220174D02*
X131101164Y-100352815D01*
X131101164Y-100352815D02*
X131050462Y-100446448D01*
X131050462Y-100446448D02*
X130921747Y-100594708D01*
X130921747Y-100594708D02*
X130804725Y-100676648D01*
X130804725Y-100676648D02*
X130621383Y-100746893D01*
X130621383Y-100746893D02*
X130516055Y-100762512D01*
X130516055Y-100762512D02*
X130383414Y-100739124D01*
X130383414Y-100739124D02*
X130262468Y-100649415D01*
X130262468Y-100649415D02*
X130125902Y-100454379D01*
X131791762Y-101090027D02*
X131518630Y-100699955D01*
X131518630Y-100699955D02*
X131101245Y-100934079D01*
X131101245Y-100934079D02*
X131167565Y-100945773D01*
X131167565Y-100945773D02*
X131261199Y-100996475D01*
X131261199Y-100996475D02*
X131397764Y-101191511D01*
X131397764Y-101191511D02*
X131413384Y-101296838D01*
X131413384Y-101296838D02*
X131401689Y-101363159D01*
X131401689Y-101363159D02*
X131350988Y-101456792D01*
X131350988Y-101456792D02*
X131155952Y-101593358D01*
X131155952Y-101593358D02*
X131050624Y-101608977D01*
X131050624Y-101608977D02*
X130984304Y-101597283D01*
X130984304Y-101597283D02*
X130890670Y-101546582D01*
X130890670Y-101546582D02*
X130754105Y-101351546D01*
X130754105Y-101351546D02*
X130738485Y-101246218D01*
X130738485Y-101246218D02*
X130750180Y-101179898D01*
X158872328Y-96949248D02*
X158053176Y-96375671D01*
X158053176Y-96375671D02*
X158189742Y-96180635D01*
X158189742Y-96180635D02*
X158310688Y-96090926D01*
X158310688Y-96090926D02*
X158443329Y-96067538D01*
X158443329Y-96067538D02*
X158548657Y-96083157D01*
X158548657Y-96083157D02*
X158731999Y-96153403D01*
X158731999Y-96153403D02*
X158849021Y-96235342D01*
X158849021Y-96235342D02*
X158977736Y-96383602D01*
X158977736Y-96383602D02*
X159028438Y-96477236D01*
X159028438Y-96477236D02*
X159051826Y-96609877D01*
X159051826Y-96609877D02*
X159008894Y-96754211D01*
X159008894Y-96754211D02*
X158872328Y-96949248D01*
X159746349Y-95701016D02*
X159418591Y-96169103D01*
X159582470Y-95935059D02*
X158763318Y-95361483D01*
X158763318Y-95361483D02*
X158825713Y-95521437D01*
X158825713Y-95521437D02*
X158849102Y-95654078D01*
X158849102Y-95654078D02*
X158833482Y-95759405D01*
X159691885Y-94616501D02*
X160237986Y-94998886D01*
X159243261Y-94593032D02*
X159691804Y-95197766D01*
X159691804Y-95197766D02*
X160046875Y-94690672D01*
X133256905Y-105494819D02*
X133256905Y-104494819D01*
X133256905Y-104494819D02*
X133495000Y-104494819D01*
X133495000Y-104494819D02*
X133637857Y-104542438D01*
X133637857Y-104542438D02*
X133733095Y-104637676D01*
X133733095Y-104637676D02*
X133780714Y-104732914D01*
X133780714Y-104732914D02*
X133828333Y-104923390D01*
X133828333Y-104923390D02*
X133828333Y-105066247D01*
X133828333Y-105066247D02*
X133780714Y-105256723D01*
X133780714Y-105256723D02*
X133733095Y-105351961D01*
X133733095Y-105351961D02*
X133637857Y-105447200D01*
X133637857Y-105447200D02*
X133495000Y-105494819D01*
X133495000Y-105494819D02*
X133256905Y-105494819D01*
X134685476Y-104494819D02*
X134495000Y-104494819D01*
X134495000Y-104494819D02*
X134399762Y-104542438D01*
X134399762Y-104542438D02*
X134352143Y-104590057D01*
X134352143Y-104590057D02*
X134256905Y-104732914D01*
X134256905Y-104732914D02*
X134209286Y-104923390D01*
X134209286Y-104923390D02*
X134209286Y-105304342D01*
X134209286Y-105304342D02*
X134256905Y-105399580D01*
X134256905Y-105399580D02*
X134304524Y-105447200D01*
X134304524Y-105447200D02*
X134399762Y-105494819D01*
X134399762Y-105494819D02*
X134590238Y-105494819D01*
X134590238Y-105494819D02*
X134685476Y-105447200D01*
X134685476Y-105447200D02*
X134733095Y-105399580D01*
X134733095Y-105399580D02*
X134780714Y-105304342D01*
X134780714Y-105304342D02*
X134780714Y-105066247D01*
X134780714Y-105066247D02*
X134733095Y-104971009D01*
X134733095Y-104971009D02*
X134685476Y-104923390D01*
X134685476Y-104923390D02*
X134590238Y-104875771D01*
X134590238Y-104875771D02*
X134399762Y-104875771D01*
X134399762Y-104875771D02*
X134304524Y-104923390D01*
X134304524Y-104923390D02*
X134256905Y-104971009D01*
X134256905Y-104971009D02*
X134209286Y-105066247D01*
X131376770Y-96059175D02*
X130557618Y-95485598D01*
X130557618Y-95485598D02*
X130694183Y-95290562D01*
X130694183Y-95290562D02*
X130815130Y-95200854D01*
X130815130Y-95200854D02*
X130947771Y-95177465D01*
X130947771Y-95177465D02*
X131053099Y-95193085D01*
X131053099Y-95193085D02*
X131236441Y-95263330D01*
X131236441Y-95263330D02*
X131353462Y-95345269D01*
X131353462Y-95345269D02*
X131482178Y-95493529D01*
X131482178Y-95493529D02*
X131532880Y-95587163D01*
X131532880Y-95587163D02*
X131556268Y-95719804D01*
X131556268Y-95719804D02*
X131513336Y-95864139D01*
X131513336Y-95864139D02*
X131376770Y-96059175D01*
X131650063Y-94506573D02*
X132196165Y-94888958D01*
X131201439Y-94483104D02*
X131649982Y-95087838D01*
X131649982Y-95087838D02*
X132005053Y-94580744D01*
X167479832Y-103017449D02*
X166660680Y-102443872D01*
X166660680Y-102443872D02*
X166797246Y-102248836D01*
X166797246Y-102248836D02*
X166918192Y-102159127D01*
X166918192Y-102159127D02*
X167050833Y-102135739D01*
X167050833Y-102135739D02*
X167156161Y-102151358D01*
X167156161Y-102151358D02*
X167339503Y-102221604D01*
X167339503Y-102221604D02*
X167456525Y-102303543D01*
X167456525Y-102303543D02*
X167585240Y-102451803D01*
X167585240Y-102451803D02*
X167635942Y-102545437D01*
X167635942Y-102545437D02*
X167659330Y-102678078D01*
X167659330Y-102678078D02*
X167616398Y-102822412D01*
X167616398Y-102822412D02*
X167479832Y-103017449D01*
X168353853Y-101769217D02*
X168026095Y-102237304D01*
X168189974Y-102003260D02*
X167370822Y-101429684D01*
X167370822Y-101429684D02*
X167433217Y-101589638D01*
X167433217Y-101589638D02*
X167456606Y-101722279D01*
X167456606Y-101722279D02*
X167440986Y-101827606D01*
X168900116Y-100989072D02*
X168572358Y-101457159D01*
X168736237Y-101223116D02*
X167917085Y-100649539D01*
X167917085Y-100649539D02*
X167979481Y-100809493D01*
X167979481Y-100809493D02*
X168002869Y-100942134D01*
X168002869Y-100942134D02*
X167987250Y-101047462D01*
X155756905Y-105494819D02*
X155756905Y-104494819D01*
X155756905Y-104494819D02*
X155995000Y-104494819D01*
X155995000Y-104494819D02*
X156137857Y-104542438D01*
X156137857Y-104542438D02*
X156233095Y-104637676D01*
X156233095Y-104637676D02*
X156280714Y-104732914D01*
X156280714Y-104732914D02*
X156328333Y-104923390D01*
X156328333Y-104923390D02*
X156328333Y-105066247D01*
X156328333Y-105066247D02*
X156280714Y-105256723D01*
X156280714Y-105256723D02*
X156233095Y-105351961D01*
X156233095Y-105351961D02*
X156137857Y-105447200D01*
X156137857Y-105447200D02*
X155995000Y-105494819D01*
X155995000Y-105494819D02*
X155756905Y-105494819D01*
X156804524Y-105494819D02*
X156995000Y-105494819D01*
X156995000Y-105494819D02*
X157090238Y-105447200D01*
X157090238Y-105447200D02*
X157137857Y-105399580D01*
X157137857Y-105399580D02*
X157233095Y-105256723D01*
X157233095Y-105256723D02*
X157280714Y-105066247D01*
X157280714Y-105066247D02*
X157280714Y-104685295D01*
X157280714Y-104685295D02*
X157233095Y-104590057D01*
X157233095Y-104590057D02*
X157185476Y-104542438D01*
X157185476Y-104542438D02*
X157090238Y-104494819D01*
X157090238Y-104494819D02*
X156899762Y-104494819D01*
X156899762Y-104494819D02*
X156804524Y-104542438D01*
X156804524Y-104542438D02*
X156756905Y-104590057D01*
X156756905Y-104590057D02*
X156709286Y-104685295D01*
X156709286Y-104685295D02*
X156709286Y-104923390D01*
X156709286Y-104923390D02*
X156756905Y-105018628D01*
X156756905Y-105018628D02*
X156804524Y-105066247D01*
X156804524Y-105066247D02*
X156899762Y-105113866D01*
X156899762Y-105113866D02*
X157090238Y-105113866D01*
X157090238Y-105113866D02*
X157185476Y-105066247D01*
X157185476Y-105066247D02*
X157233095Y-105018628D01*
X157233095Y-105018628D02*
X157280714Y-104923390D01*
X162290714Y-93914819D02*
X162290714Y-92914819D01*
X162290714Y-92914819D02*
X162528809Y-92914819D01*
X162528809Y-92914819D02*
X162671666Y-92962438D01*
X162671666Y-92962438D02*
X162766904Y-93057676D01*
X162766904Y-93057676D02*
X162814523Y-93152914D01*
X162814523Y-93152914D02*
X162862142Y-93343390D01*
X162862142Y-93343390D02*
X162862142Y-93486247D01*
X162862142Y-93486247D02*
X162814523Y-93676723D01*
X162814523Y-93676723D02*
X162766904Y-93771961D01*
X162766904Y-93771961D02*
X162671666Y-93867200D01*
X162671666Y-93867200D02*
X162528809Y-93914819D01*
X162528809Y-93914819D02*
X162290714Y-93914819D01*
X163814523Y-93914819D02*
X163243095Y-93914819D01*
X163528809Y-93914819D02*
X163528809Y-92914819D01*
X163528809Y-92914819D02*
X163433571Y-93057676D01*
X163433571Y-93057676D02*
X163338333Y-93152914D01*
X163338333Y-93152914D02*
X163243095Y-93200533D01*
X164147857Y-92914819D02*
X164766904Y-92914819D01*
X164766904Y-92914819D02*
X164433571Y-93295771D01*
X164433571Y-93295771D02*
X164576428Y-93295771D01*
X164576428Y-93295771D02*
X164671666Y-93343390D01*
X164671666Y-93343390D02*
X164719285Y-93391009D01*
X164719285Y-93391009D02*
X164766904Y-93486247D01*
X164766904Y-93486247D02*
X164766904Y-93724342D01*
X164766904Y-93724342D02*
X164719285Y-93819580D01*
X164719285Y-93819580D02*
X164671666Y-93867200D01*
X164671666Y-93867200D02*
X164576428Y-93914819D01*
X164576428Y-93914819D02*
X164290714Y-93914819D01*
X164290714Y-93914819D02*
X164195476Y-93867200D01*
X164195476Y-93867200D02*
X164147857Y-93819580D01*
X141256905Y-105494819D02*
X141256905Y-104494819D01*
X141256905Y-104494819D02*
X141495000Y-104494819D01*
X141495000Y-104494819D02*
X141637857Y-104542438D01*
X141637857Y-104542438D02*
X141733095Y-104637676D01*
X141733095Y-104637676D02*
X141780714Y-104732914D01*
X141780714Y-104732914D02*
X141828333Y-104923390D01*
X141828333Y-104923390D02*
X141828333Y-105066247D01*
X141828333Y-105066247D02*
X141780714Y-105256723D01*
X141780714Y-105256723D02*
X141733095Y-105351961D01*
X141733095Y-105351961D02*
X141637857Y-105447200D01*
X141637857Y-105447200D02*
X141495000Y-105494819D01*
X141495000Y-105494819D02*
X141256905Y-105494819D01*
X142161667Y-104494819D02*
X142828333Y-104494819D01*
X142828333Y-104494819D02*
X142399762Y-105494819D01*
X141782258Y-94358143D02*
X142601410Y-93784567D01*
X142601410Y-93784567D02*
X142737976Y-93979603D01*
X142737976Y-93979603D02*
X142780908Y-94123938D01*
X142780908Y-94123938D02*
X142757520Y-94256579D01*
X142757520Y-94256579D02*
X142706818Y-94350212D01*
X142706818Y-94350212D02*
X142578103Y-94498472D01*
X142578103Y-94498472D02*
X142461081Y-94580412D01*
X142461081Y-94580412D02*
X142277739Y-94650657D01*
X142277739Y-94650657D02*
X142172411Y-94666276D01*
X142172411Y-94666276D02*
X142039770Y-94642888D01*
X142039770Y-94642888D02*
X141918824Y-94553179D01*
X141918824Y-94553179D02*
X141782258Y-94358143D01*
X143069659Y-94619338D02*
X143135979Y-94631032D01*
X143135979Y-94631032D02*
X143229613Y-94681733D01*
X143229613Y-94681733D02*
X143366178Y-94876769D01*
X143366178Y-94876769D02*
X143381797Y-94982097D01*
X143381797Y-94982097D02*
X143370103Y-95048417D01*
X143370103Y-95048417D02*
X143319402Y-95142051D01*
X143319402Y-95142051D02*
X143241388Y-95196677D01*
X143241388Y-95196677D02*
X143097053Y-95239610D01*
X143097053Y-95239610D02*
X142301208Y-95099281D01*
X142301208Y-95099281D02*
X142656279Y-95606375D01*
X143580348Y-101069385D02*
X142614422Y-100810566D01*
X142614422Y-100810566D02*
X142676046Y-100580584D01*
X142676046Y-100580584D02*
X142759016Y-100454919D01*
X142759016Y-100454919D02*
X142875659Y-100387576D01*
X142875659Y-100387576D02*
X142979976Y-100366229D01*
X142979976Y-100366229D02*
X143176287Y-100369531D01*
X143176287Y-100369531D02*
X143314276Y-100406505D01*
X143314276Y-100406505D02*
X143485938Y-100501800D01*
X143485938Y-100501800D02*
X143565606Y-100572446D01*
X143565606Y-100572446D02*
X143632949Y-100689089D01*
X143632949Y-100689089D02*
X143641972Y-100839403D01*
X143641972Y-100839403D02*
X143580348Y-101069385D01*
X143974739Y-99597498D02*
X143826842Y-100149456D01*
X143900791Y-99873477D02*
X142934865Y-99614658D01*
X142934865Y-99614658D02*
X143048205Y-99743625D01*
X143048205Y-99743625D02*
X143115548Y-99860267D01*
X143115548Y-99860267D02*
X143136895Y-99964585D01*
X157584080Y-99564306D02*
X158403232Y-98990730D01*
X158403232Y-98990730D02*
X158539798Y-99185766D01*
X158539798Y-99185766D02*
X158582730Y-99330101D01*
X158582730Y-99330101D02*
X158559342Y-99462742D01*
X158559342Y-99462742D02*
X158508640Y-99556375D01*
X158508640Y-99556375D02*
X158379925Y-99704635D01*
X158379925Y-99704635D02*
X158262903Y-99786575D01*
X158262903Y-99786575D02*
X158079561Y-99856820D01*
X158079561Y-99856820D02*
X157974233Y-99872439D01*
X157974233Y-99872439D02*
X157841592Y-99849051D01*
X157841592Y-99849051D02*
X157720646Y-99759343D01*
X157720646Y-99759343D02*
X157584080Y-99564306D01*
X158458101Y-100812538D02*
X158130343Y-100344451D01*
X158294222Y-100578495D02*
X159113374Y-100004918D01*
X159113374Y-100004918D02*
X158941726Y-100008843D01*
X158941726Y-100008843D02*
X158809085Y-99985455D01*
X158809085Y-99985455D02*
X158715452Y-99934754D01*
X159796203Y-100980099D02*
X159523072Y-100590027D01*
X159523072Y-100590027D02*
X159105686Y-100824151D01*
X159105686Y-100824151D02*
X159172006Y-100835845D01*
X159172006Y-100835845D02*
X159265640Y-100886547D01*
X159265640Y-100886547D02*
X159402206Y-101081583D01*
X159402206Y-101081583D02*
X159417825Y-101186910D01*
X159417825Y-101186910D02*
X159406131Y-101253231D01*
X159406131Y-101253231D02*
X159355430Y-101346864D01*
X159355430Y-101346864D02*
X159160393Y-101483430D01*
X159160393Y-101483430D02*
X159055066Y-101499049D01*
X159055066Y-101499049D02*
X158988745Y-101487355D01*
X158988745Y-101487355D02*
X158895112Y-101436654D01*
X158895112Y-101436654D02*
X158758546Y-101241618D01*
X158758546Y-101241618D02*
X158742927Y-101136290D01*
X158742927Y-101136290D02*
X158754621Y-101069970D01*
X162515714Y-105494819D02*
X162515714Y-104494819D01*
X162515714Y-104494819D02*
X162753809Y-104494819D01*
X162753809Y-104494819D02*
X162896666Y-104542438D01*
X162896666Y-104542438D02*
X162991904Y-104637676D01*
X162991904Y-104637676D02*
X163039523Y-104732914D01*
X163039523Y-104732914D02*
X163087142Y-104923390D01*
X163087142Y-104923390D02*
X163087142Y-105066247D01*
X163087142Y-105066247D02*
X163039523Y-105256723D01*
X163039523Y-105256723D02*
X162991904Y-105351961D01*
X162991904Y-105351961D02*
X162896666Y-105447200D01*
X162896666Y-105447200D02*
X162753809Y-105494819D01*
X162753809Y-105494819D02*
X162515714Y-105494819D01*
X164039523Y-105494819D02*
X163468095Y-105494819D01*
X163753809Y-105494819D02*
X163753809Y-104494819D01*
X163753809Y-104494819D02*
X163658571Y-104637676D01*
X163658571Y-104637676D02*
X163563333Y-104732914D01*
X163563333Y-104732914D02*
X163468095Y-104780533D01*
X164658571Y-104494819D02*
X164753809Y-104494819D01*
X164753809Y-104494819D02*
X164849047Y-104542438D01*
X164849047Y-104542438D02*
X164896666Y-104590057D01*
X164896666Y-104590057D02*
X164944285Y-104685295D01*
X164944285Y-104685295D02*
X164991904Y-104875771D01*
X164991904Y-104875771D02*
X164991904Y-105113866D01*
X164991904Y-105113866D02*
X164944285Y-105304342D01*
X164944285Y-105304342D02*
X164896666Y-105399580D01*
X164896666Y-105399580D02*
X164849047Y-105447200D01*
X164849047Y-105447200D02*
X164753809Y-105494819D01*
X164753809Y-105494819D02*
X164658571Y-105494819D01*
X164658571Y-105494819D02*
X164563333Y-105447200D01*
X164563333Y-105447200D02*
X164515714Y-105399580D01*
X164515714Y-105399580D02*
X164468095Y-105304342D01*
X164468095Y-105304342D02*
X164420476Y-105113866D01*
X164420476Y-105113866D02*
X164420476Y-104875771D01*
X164420476Y-104875771D02*
X164468095Y-104685295D01*
X164468095Y-104685295D02*
X164515714Y-104590057D01*
X164515714Y-104590057D02*
X164563333Y-104542438D01*
X164563333Y-104542438D02*
X164658571Y-104494819D01*
%TO.C,G\u002A\u002A\u002A*%
G36*
X119641434Y-118569323D02*
G01*
X119590836Y-118619920D01*
X119540239Y-118569323D01*
X119590836Y-118518725D01*
X119641434Y-118569323D01*
G37*
G36*
X120653386Y-120289642D02*
G01*
X120602789Y-120340239D01*
X120552191Y-120289642D01*
X120602789Y-120239044D01*
X120653386Y-120289642D01*
G37*
G36*
X121665338Y-120289642D02*
G01*
X121614741Y-120340239D01*
X121564143Y-120289642D01*
X121614741Y-120239044D01*
X121665338Y-120289642D01*
G37*
G36*
X122879681Y-120289642D02*
G01*
X122829083Y-120340239D01*
X122778486Y-120289642D01*
X122829083Y-120239044D01*
X122879681Y-120289642D01*
G37*
G36*
X124498804Y-120289642D02*
G01*
X124448207Y-120340239D01*
X124397609Y-120289642D01*
X124448207Y-120239044D01*
X124498804Y-120289642D01*
G37*
G36*
X125004781Y-120289642D02*
G01*
X124954183Y-120340239D01*
X124903585Y-120289642D01*
X124954183Y-120239044D01*
X125004781Y-120289642D01*
G37*
G36*
X126421514Y-120289642D02*
G01*
X126370916Y-120340239D01*
X126320318Y-120289642D01*
X126370916Y-120239044D01*
X126421514Y-120289642D01*
G37*
G36*
X140791235Y-104806773D02*
G01*
X140740637Y-104857371D01*
X140690040Y-104806773D01*
X140740637Y-104756175D01*
X140791235Y-104806773D01*
G37*
G36*
X140892430Y-98330279D02*
G01*
X140841832Y-98380877D01*
X140791235Y-98330279D01*
X140841832Y-98279681D01*
X140892430Y-98330279D01*
G37*
G36*
X144130677Y-96812351D02*
G01*
X144080079Y-96862948D01*
X144029482Y-96812351D01*
X144080079Y-96761753D01*
X144130677Y-96812351D01*
G37*
G36*
X150910757Y-114723904D02*
G01*
X150860159Y-114774502D01*
X150809561Y-114723904D01*
X150860159Y-114673307D01*
X150910757Y-114723904D01*
G37*
G36*
X161131474Y-105312749D02*
G01*
X161080876Y-105363347D01*
X161030279Y-105312749D01*
X161080876Y-105262151D01*
X161131474Y-105312749D01*
G37*
G36*
X161536255Y-105515140D02*
G01*
X161485657Y-105565737D01*
X161435059Y-105515140D01*
X161485657Y-105464542D01*
X161536255Y-105515140D01*
G37*
G36*
X167203187Y-105110359D02*
G01*
X167152589Y-105160956D01*
X167101992Y-105110359D01*
X167152589Y-105059761D01*
X167203187Y-105110359D01*
G37*
G36*
X169328287Y-111890438D02*
G01*
X169277689Y-111941036D01*
X169227091Y-111890438D01*
X169277689Y-111839841D01*
X169328287Y-111890438D01*
G37*
G36*
X170036653Y-114825100D02*
G01*
X169986055Y-114875697D01*
X169935458Y-114825100D01*
X169986055Y-114774502D01*
X170036653Y-114825100D01*
G37*
G36*
X118192634Y-80349153D02*
G01*
X118204697Y-80507309D01*
X118184644Y-80543111D01*
X118138650Y-80512931D01*
X118131495Y-80410292D01*
X118156209Y-80302314D01*
X118192634Y-80349153D01*
G37*
G36*
X124768658Y-120272776D02*
G01*
X124754767Y-120332936D01*
X124701195Y-120340239D01*
X124617900Y-120303213D01*
X124633731Y-120272776D01*
X124753827Y-120260665D01*
X124768658Y-120272776D01*
G37*
G36*
X128006905Y-117945286D02*
G01*
X128019017Y-118065381D01*
X128006905Y-118080213D01*
X127946745Y-118066322D01*
X127939442Y-118012749D01*
X127976468Y-117929454D01*
X128006905Y-117945286D01*
G37*
G36*
X128208852Y-117177889D02*
G01*
X128222218Y-117385070D01*
X128208852Y-117430877D01*
X128171917Y-117443589D01*
X128157811Y-117304383D01*
X128173714Y-117160723D01*
X128208852Y-117177889D01*
G37*
G36*
X128413351Y-116475847D02*
G01*
X128425415Y-116634003D01*
X128405362Y-116669804D01*
X128359367Y-116639624D01*
X128352212Y-116536985D01*
X128376926Y-116429007D01*
X128413351Y-116475847D01*
G37*
G36*
X128816467Y-115010624D02*
G01*
X128828578Y-115130719D01*
X128816467Y-115145551D01*
X128756307Y-115131660D01*
X128749004Y-115078088D01*
X128786029Y-114994793D01*
X128816467Y-115010624D01*
G37*
G36*
X130740841Y-112124452D02*
G01*
X130752905Y-112282608D01*
X130732852Y-112318410D01*
X130686857Y-112288229D01*
X130679702Y-112185591D01*
X130704416Y-112077612D01*
X130740841Y-112124452D01*
G37*
G36*
X137829166Y-105909379D02*
G01*
X137798986Y-105955374D01*
X137696348Y-105962529D01*
X137588369Y-105937815D01*
X137635209Y-105901390D01*
X137793365Y-105889326D01*
X137829166Y-105909379D01*
G37*
G36*
X139947941Y-95884728D02*
G01*
X139934050Y-95944888D01*
X139880478Y-95952191D01*
X139797183Y-95915166D01*
X139813014Y-95884728D01*
X139933109Y-95872617D01*
X139947941Y-95884728D01*
G37*
G36*
X144096501Y-100480677D02*
G01*
X144109867Y-100687859D01*
X144096501Y-100733665D01*
X144059566Y-100746378D01*
X144045460Y-100607171D01*
X144061363Y-100463512D01*
X144096501Y-100480677D01*
G37*
G36*
X161198937Y-101450465D02*
G01*
X161211048Y-101570560D01*
X161198937Y-101585392D01*
X161138777Y-101571501D01*
X161131474Y-101517928D01*
X161168500Y-101434633D01*
X161198937Y-101450465D01*
G37*
G36*
X163686653Y-105903498D02*
G01*
X163699366Y-105940434D01*
X163560159Y-105954540D01*
X163416499Y-105938637D01*
X163433665Y-105903498D01*
X163640847Y-105890133D01*
X163686653Y-105903498D01*
G37*
G36*
X170610093Y-95783533D02*
G01*
X170622204Y-95903628D01*
X170610093Y-95918460D01*
X170549932Y-95904569D01*
X170542629Y-95850996D01*
X170579655Y-95767701D01*
X170610093Y-95783533D01*
G37*
G36*
X170814148Y-96439193D02*
G01*
X170826211Y-96597349D01*
X170806158Y-96633151D01*
X170760164Y-96602971D01*
X170753009Y-96500332D01*
X170777723Y-96392353D01*
X170814148Y-96439193D01*
G37*
G36*
X171217264Y-98313413D02*
G01*
X171229375Y-98433508D01*
X171217264Y-98448340D01*
X171157104Y-98434449D01*
X171149801Y-98380877D01*
X171186826Y-98297581D01*
X171217264Y-98313413D01*
G37*
G36*
X171419654Y-115213015D02*
G01*
X171431766Y-115333110D01*
X171419654Y-115347942D01*
X171359494Y-115334051D01*
X171352191Y-115280478D01*
X171389217Y-115197183D01*
X171419654Y-115213015D01*
G37*
G36*
X171623709Y-116071066D02*
G01*
X171635773Y-116229222D01*
X171615720Y-116265023D01*
X171569726Y-116234843D01*
X171562570Y-116132205D01*
X171587284Y-116024226D01*
X171623709Y-116071066D01*
G37*
G36*
X171824435Y-116730943D02*
G01*
X171836546Y-116851038D01*
X171824435Y-116865870D01*
X171764275Y-116851979D01*
X171756972Y-116798406D01*
X171793998Y-116715111D01*
X171824435Y-116730943D01*
G37*
G36*
X172026382Y-117582669D02*
G01*
X172039748Y-117789851D01*
X172026382Y-117835657D01*
X171989446Y-117848370D01*
X171975340Y-117709163D01*
X171991243Y-117565504D01*
X172026382Y-117582669D01*
G37*
G36*
X172633997Y-93759628D02*
G01*
X172646108Y-93879723D01*
X172633997Y-93894555D01*
X172573837Y-93880664D01*
X172566534Y-93827092D01*
X172603559Y-93743797D01*
X172633997Y-93759628D01*
G37*
G36*
X173949535Y-99122975D02*
G01*
X173961646Y-99243070D01*
X173949535Y-99257902D01*
X173889374Y-99244011D01*
X173882071Y-99190438D01*
X173919097Y-99107143D01*
X173949535Y-99122975D01*
G37*
G36*
X168722766Y-103998231D02*
G01*
X168781143Y-104119508D01*
X168767391Y-104155996D01*
X168669702Y-104245727D01*
X168621899Y-104143526D01*
X168619920Y-104092434D01*
X168669709Y-103988208D01*
X168722766Y-103998231D01*
G37*
G36*
X119830393Y-117958152D02*
G01*
X119824850Y-118019074D01*
X119696728Y-118172435D01*
X119647759Y-118196165D01*
X119553670Y-118168541D01*
X119559213Y-118107620D01*
X119687335Y-117954258D01*
X119736304Y-117930528D01*
X119830393Y-117958152D01*
G37*
G36*
X120664771Y-118388436D02*
G01*
X120743971Y-118553626D01*
X120738559Y-118617391D01*
X120658192Y-118679577D01*
X120625979Y-118659977D01*
X120558828Y-118501793D01*
X120552191Y-118431023D01*
X120584298Y-118334660D01*
X120664771Y-118388436D01*
G37*
G36*
X127831027Y-118603884D02*
G01*
X127838247Y-118721116D01*
X127799798Y-118885615D01*
X127746525Y-118923506D01*
X127694471Y-118842917D01*
X127707730Y-118721116D01*
X127766476Y-118557631D01*
X127799452Y-118518725D01*
X127831027Y-118603884D01*
G37*
G36*
X133157901Y-98317508D02*
G01*
X133201593Y-98374904D01*
X133135707Y-98511356D01*
X132990245Y-98506907D01*
X132897083Y-98430360D01*
X132833070Y-98314881D01*
X132939199Y-98280470D01*
X132986812Y-98279681D01*
X133157901Y-98317508D01*
G37*
G36*
X135909745Y-105698598D02*
G01*
X135933401Y-105725952D01*
X135788079Y-105741301D01*
X135680876Y-105742608D01*
X135484903Y-105732644D01*
X135455171Y-105709789D01*
X135504964Y-105696556D01*
X135768642Y-105680263D01*
X135909745Y-105698598D01*
G37*
G36*
X136920518Y-105900762D02*
G01*
X136952012Y-105930093D01*
X136812085Y-105946062D01*
X136743426Y-105947040D01*
X136559320Y-105936490D01*
X136537622Y-105910222D01*
X136566334Y-105900762D01*
X136822988Y-105885024D01*
X136920518Y-105900762D01*
G37*
G36*
X140517641Y-105049275D02*
G01*
X140544799Y-105128923D01*
X140396260Y-105157453D01*
X140330797Y-105157879D01*
X140138918Y-105146853D01*
X140128075Y-105105639D01*
X140219115Y-105046198D01*
X140417261Y-104991331D01*
X140517641Y-105049275D01*
G37*
G36*
X143718100Y-101674347D02*
G01*
X143725896Y-101708374D01*
X143652049Y-101851432D01*
X143624701Y-101872112D01*
X143531302Y-101867486D01*
X143523506Y-101833458D01*
X143597353Y-101690401D01*
X143624701Y-101669721D01*
X143718100Y-101674347D01*
G37*
G36*
X150349210Y-114639418D02*
G01*
X150404781Y-114673307D01*
X150484253Y-114747123D01*
X150383746Y-114771827D01*
X150328884Y-114772952D01*
X150151213Y-114736070D01*
X150101195Y-114673307D01*
X150164899Y-114579144D01*
X150349210Y-114639418D01*
G37*
G36*
X162777288Y-105696893D02*
G01*
X162818008Y-105720594D01*
X162685422Y-105735871D01*
X162497609Y-105739184D01*
X162268005Y-105731611D01*
X162200847Y-105713478D01*
X162271311Y-105695512D01*
X162570585Y-105678865D01*
X162777288Y-105696893D01*
G37*
G36*
X166854032Y-92977271D02*
G01*
X166798406Y-93068128D01*
X166646033Y-93195685D01*
X166571234Y-93219920D01*
X166540390Y-93158984D01*
X166596016Y-93068128D01*
X166748389Y-92940571D01*
X166823188Y-92916335D01*
X166854032Y-92977271D01*
G37*
G36*
X167936982Y-104711064D02*
G01*
X167841713Y-104813269D01*
X167642188Y-104936063D01*
X167553655Y-104936549D01*
X167602900Y-104822632D01*
X167656406Y-104758562D01*
X167820797Y-104629819D01*
X167931134Y-104616484D01*
X167936982Y-104711064D01*
G37*
G36*
X167956255Y-98318637D02*
G01*
X167962151Y-98380877D01*
X167815734Y-98473989D01*
X167753788Y-98482072D01*
X167622999Y-98425492D01*
X167607968Y-98380877D01*
X167692979Y-98299452D01*
X167816331Y-98279681D01*
X167956255Y-98318637D01*
G37*
G36*
X171012530Y-97277555D02*
G01*
X171017537Y-97294954D01*
X171032352Y-97515388D01*
X171013788Y-97598540D01*
X170980567Y-97601903D01*
X170966999Y-97443487D01*
X170967138Y-97419522D01*
X170981730Y-97262573D01*
X171012530Y-97277555D01*
G37*
G36*
X119947179Y-80622450D02*
G01*
X119985920Y-80735146D01*
X119885330Y-80884150D01*
X119691950Y-81048913D01*
X119570830Y-81049525D01*
X119540239Y-80937092D01*
X119611386Y-80756540D01*
X119770273Y-80628378D01*
X119935071Y-80615875D01*
X119947179Y-80622450D01*
G37*
G36*
X120753191Y-81257763D02*
G01*
X120754581Y-81297750D01*
X120682376Y-81492689D01*
X120602789Y-81582470D01*
X120482210Y-81647803D01*
X120454214Y-81620160D01*
X120512306Y-81477938D01*
X120606007Y-81335440D01*
X120716200Y-81213555D01*
X120753191Y-81257763D01*
G37*
G36*
X150604087Y-113575739D02*
G01*
X150806478Y-113650194D01*
X150885964Y-113737251D01*
X150862298Y-113843779D01*
X150733597Y-113852940D01*
X150568707Y-113770947D01*
X150497910Y-113702233D01*
X150424306Y-113586572D01*
X150508620Y-113564147D01*
X150604087Y-113575739D01*
G37*
G36*
X159142179Y-94199019D02*
G01*
X159202072Y-94341364D01*
X159065297Y-94445645D01*
X159006374Y-94463584D01*
X158844772Y-94474132D01*
X158803984Y-94437180D01*
X158871586Y-94307198D01*
X159012770Y-94204147D01*
X159135098Y-94193119D01*
X159142179Y-94199019D01*
G37*
G36*
X179792275Y-118445933D02*
G01*
X179873278Y-118594622D01*
X179963130Y-118826885D01*
X179944809Y-118922207D01*
X179831842Y-118859706D01*
X179755429Y-118776575D01*
X179668414Y-118559112D01*
X179670288Y-118447690D01*
X179713369Y-118364851D01*
X179792275Y-118445933D01*
G37*
G36*
X180051895Y-81598050D02*
G01*
X180251718Y-81665927D01*
X180328151Y-81742696D01*
X180296619Y-81835958D01*
X180161255Y-81842563D01*
X179997805Y-81769202D01*
X179931721Y-81707678D01*
X179874939Y-81605304D01*
X179977420Y-81588735D01*
X180051895Y-81598050D01*
G37*
G36*
X159960924Y-93729211D02*
G01*
X159996016Y-93815720D01*
X159945647Y-93827092D01*
X159752925Y-93861350D01*
X159682656Y-93884588D01*
X159519323Y-93884309D01*
X159473127Y-93845495D01*
X159498721Y-93753698D01*
X159644071Y-93691235D01*
X159826776Y-93677749D01*
X159960924Y-93729211D01*
G37*
G36*
X126659377Y-119043011D02*
G01*
X126804388Y-119051653D01*
X126910357Y-119066757D01*
X126833434Y-119078896D01*
X126593110Y-119086711D01*
X126269721Y-119088937D01*
X125910646Y-119085632D01*
X125704622Y-119077026D01*
X125668755Y-119064473D01*
X125792436Y-119051173D01*
X126218806Y-119036318D01*
X126659377Y-119043011D01*
G37*
G36*
X158281152Y-100929855D02*
G01*
X158367593Y-101082691D01*
X158463138Y-101271072D01*
X158500398Y-101352404D01*
X158413490Y-101362741D01*
X158247410Y-101366136D01*
X158057119Y-101339645D01*
X157994422Y-101288866D01*
X158042838Y-101149462D01*
X158114605Y-101019153D01*
X158207560Y-100896543D01*
X158281152Y-100929855D01*
G37*
G36*
X167267173Y-93175584D02*
G01*
X167217986Y-93252687D01*
X167163246Y-93411484D01*
X167225834Y-93505675D01*
X167280643Y-93606061D01*
X167243665Y-93624701D01*
X167089511Y-93560358D01*
X167023443Y-93505675D01*
X166976385Y-93346062D01*
X167063147Y-93187065D01*
X167227969Y-93118725D01*
X167267173Y-93175584D01*
G37*
G36*
X169530664Y-103291683D02*
G01*
X169530677Y-103301564D01*
X169475273Y-103526354D01*
X169344522Y-103684364D01*
X169191613Y-103733145D01*
X169084390Y-103657738D01*
X169113896Y-103538004D01*
X169256767Y-103359743D01*
X169280808Y-103336512D01*
X169448934Y-103187809D01*
X169517389Y-103174940D01*
X169530664Y-103291683D01*
G37*
G36*
X180802499Y-118046832D02*
G01*
X180844364Y-118261435D01*
X180837017Y-118379903D01*
X180803793Y-118532866D01*
X180781137Y-118492030D01*
X180778509Y-118463068D01*
X180709988Y-118232252D01*
X180643599Y-118135870D01*
X180575417Y-117998169D01*
X180594688Y-117945286D01*
X180708914Y-117922869D01*
X180802499Y-118046832D01*
G37*
G36*
X182052412Y-117383671D02*
G01*
X182067268Y-117810042D01*
X182060575Y-118250613D01*
X182051933Y-118395623D01*
X182036829Y-118501593D01*
X182024689Y-118424669D01*
X182016874Y-118184346D01*
X182014649Y-117860956D01*
X182017954Y-117501881D01*
X182026559Y-117295857D01*
X182039112Y-117259990D01*
X182052412Y-117383671D01*
G37*
G36*
X143482040Y-102174877D02*
G01*
X143390091Y-102388322D01*
X143244262Y-102624006D01*
X143081458Y-102814538D01*
X143050688Y-102840837D01*
X142932537Y-102928847D01*
X142934157Y-102895671D01*
X143045037Y-102732271D01*
X143213977Y-102458125D01*
X143324967Y-102237559D01*
X143418585Y-102077735D01*
X143483201Y-102051063D01*
X143482040Y-102174877D01*
G37*
G36*
X133011602Y-93720402D02*
G01*
X132928912Y-93895156D01*
X132715549Y-94158571D01*
X132605759Y-94271303D01*
X132325175Y-94523782D01*
X132128423Y-94651031D01*
X132044341Y-94647160D01*
X132019589Y-94507667D01*
X132117143Y-94327704D01*
X132356007Y-94078792D01*
X132523720Y-93928820D01*
X132804199Y-93717163D01*
X132968429Y-93654380D01*
X133011602Y-93720402D01*
G37*
G36*
X144302345Y-98084550D02*
G01*
X144306797Y-98153187D01*
X144320895Y-98634366D01*
X144316997Y-99160060D01*
X144306797Y-99418128D01*
X144293836Y-99560662D01*
X144282955Y-99517168D01*
X144275081Y-99304004D01*
X144271145Y-98937528D01*
X144270869Y-98785657D01*
X144273301Y-98372157D01*
X144279977Y-98106566D01*
X144289968Y-98005245D01*
X144302345Y-98084550D01*
G37*
G36*
X165251376Y-105675696D02*
G01*
X165229907Y-105731324D01*
X165122728Y-105815507D01*
X164882761Y-105911679D01*
X164539530Y-105950376D01*
X164470916Y-105949620D01*
X164015538Y-105935159D01*
X164445617Y-105896422D01*
X164708345Y-105852762D01*
X164860498Y-105788771D01*
X164875697Y-105762309D01*
X164961282Y-105687162D01*
X165097429Y-105666932D01*
X165251376Y-105675696D01*
G37*
G36*
X131519225Y-111420697D02*
G01*
X131800911Y-111472108D01*
X131917692Y-111538497D01*
X131860227Y-111595701D01*
X131619177Y-111619557D01*
X131596013Y-111619365D01*
X131293392Y-111644730D01*
X131062488Y-111714954D01*
X131025349Y-111739099D01*
X130903421Y-111799581D01*
X130874103Y-111763427D01*
X130963740Y-111587740D01*
X131187139Y-111460414D01*
X131476034Y-111417718D01*
X131519225Y-111420697D01*
G37*
G36*
X158424502Y-101661686D02*
G01*
X158648797Y-101752771D01*
X158754166Y-101969318D01*
X158721830Y-102228358D01*
X158638599Y-102363947D01*
X158530991Y-102317520D01*
X158525108Y-102311722D01*
X158460927Y-102152625D01*
X158508134Y-102065181D01*
X158539124Y-101949079D01*
X158404531Y-101873803D01*
X158223772Y-101778141D01*
X158229726Y-101693575D01*
X158418497Y-101661494D01*
X158424502Y-101661686D01*
G37*
G36*
X172506091Y-118820702D02*
G01*
X172544865Y-118853299D01*
X172699467Y-118938334D01*
X172964771Y-118996777D01*
X173375304Y-119034343D01*
X173733909Y-119050194D01*
X174742231Y-119083538D01*
X173674621Y-119104717D01*
X173090931Y-119104179D01*
X172701759Y-119075134D01*
X172501180Y-119017084D01*
X172485577Y-119004462D01*
X172373454Y-118847829D01*
X172386437Y-118770907D01*
X172506091Y-118820702D01*
G37*
G36*
X180129435Y-80606339D02*
G01*
X180249505Y-80609319D01*
X180544051Y-80643745D01*
X180718173Y-80717839D01*
X180738616Y-80747610D01*
X180713114Y-80862100D01*
X180670584Y-80874104D01*
X180565557Y-80806227D01*
X180560956Y-80779017D01*
X180471562Y-80707708D01*
X180249905Y-80650077D01*
X180181474Y-80640726D01*
X179975801Y-80615449D01*
X179956193Y-80605031D01*
X180129435Y-80606339D01*
G37*
G36*
X161228328Y-92794650D02*
G01*
X161230249Y-92840438D01*
X161147894Y-92955058D01*
X160947701Y-93091720D01*
X160694625Y-93219364D01*
X160453621Y-93306931D01*
X160289647Y-93323360D01*
X160260753Y-93304027D01*
X160227952Y-93196617D01*
X160235882Y-93185541D01*
X160398297Y-93097697D01*
X160641612Y-92973859D01*
X160899390Y-92846810D01*
X161105195Y-92749330D01*
X161191634Y-92713944D01*
X161228328Y-92794650D01*
G37*
G36*
X181850052Y-109369952D02*
G01*
X181850506Y-109380888D01*
X181862856Y-109906935D01*
X181863355Y-110510363D01*
X181851987Y-111066508D01*
X181850718Y-111101207D01*
X181840170Y-111292690D01*
X181830944Y-111295248D01*
X181823592Y-111122342D01*
X181818665Y-110787436D01*
X181816716Y-110303992D01*
X181816706Y-110271315D01*
X181818354Y-109775047D01*
X181823066Y-109422179D01*
X181830290Y-109227308D01*
X181839470Y-109205033D01*
X181850052Y-109369952D01*
G37*
G36*
X139766162Y-105346979D02*
G01*
X139732846Y-105457809D01*
X139589410Y-105542219D01*
X139425099Y-105565737D01*
X139213196Y-105603936D01*
X139121514Y-105666932D01*
X138992683Y-105721102D01*
X138731048Y-105749474D01*
X138533669Y-105749887D01*
X138008366Y-105731647D01*
X138489044Y-105693745D01*
X138769326Y-105653579D01*
X138942552Y-105593964D01*
X138969721Y-105560193D01*
X139055700Y-105486097D01*
X139202470Y-105464542D01*
X139439497Y-105415318D01*
X139554967Y-105344794D01*
X139695456Y-105277215D01*
X139766162Y-105346979D01*
G37*
G36*
X167000797Y-105133305D02*
G01*
X166914393Y-105256114D01*
X166702147Y-105392626D01*
X166434509Y-105507230D01*
X166181927Y-105564315D01*
X166145329Y-105565737D01*
X165911817Y-105619342D01*
X165806693Y-105687171D01*
X165708552Y-105746494D01*
X165685259Y-105636574D01*
X165767799Y-105495022D01*
X165932274Y-105464542D01*
X166146545Y-105427230D01*
X166241832Y-105363347D01*
X166382550Y-105282510D01*
X166531151Y-105262151D01*
X166767341Y-105210834D01*
X166879362Y-105140717D01*
X166981679Y-105076041D01*
X167000797Y-105133305D01*
G37*
G36*
X142056175Y-94636653D02*
G01*
X142183732Y-94789026D01*
X142207968Y-94863826D01*
X142148780Y-94898733D01*
X142065184Y-94846521D01*
X141915369Y-94774641D01*
X141849818Y-94840571D01*
X141875925Y-94994897D01*
X142001086Y-95188206D01*
X142012240Y-95200319D01*
X142154389Y-95379224D01*
X142195544Y-95490417D01*
X142191900Y-95496015D01*
X142097705Y-95466109D01*
X141940712Y-95323730D01*
X141936726Y-95319322D01*
X141711232Y-95002858D01*
X141672350Y-94760673D01*
X141758604Y-94631661D01*
X141920439Y-94563236D01*
X142056175Y-94636653D01*
G37*
G36*
X157892603Y-99773684D02*
G01*
X157838581Y-100050517D01*
X157769267Y-100201238D01*
X157696589Y-100388653D01*
X157766182Y-100520605D01*
X157872802Y-100569327D01*
X157964327Y-100445566D01*
X157984923Y-100396636D01*
X158082788Y-100151793D01*
X158089203Y-100430080D01*
X158064473Y-100631922D01*
X158001842Y-100708367D01*
X157900335Y-100790817D01*
X157875348Y-100858847D01*
X157821439Y-100903910D01*
X157724314Y-100754802D01*
X157716135Y-100737477D01*
X157602793Y-100388343D01*
X157636607Y-100073025D01*
X157740811Y-99834476D01*
X157843300Y-99651174D01*
X157884777Y-99638972D01*
X157892603Y-99773684D01*
G37*
G36*
X142742591Y-103303557D02*
G01*
X142602721Y-103477958D01*
X142371858Y-103729156D01*
X142258565Y-103845418D01*
X141973276Y-104122881D01*
X141736022Y-104333771D01*
X141585884Y-104444056D01*
X141561335Y-104452590D01*
X141419542Y-104513785D01*
X141265096Y-104629681D01*
X141127344Y-104735710D01*
X141101697Y-104697932D01*
X141113326Y-104654980D01*
X141235268Y-104495147D01*
X141393112Y-104386671D01*
X141580531Y-104257969D01*
X141850183Y-104031984D01*
X142144063Y-103757363D01*
X142147267Y-103754201D01*
X142415266Y-103501604D01*
X142633688Y-103317703D01*
X142758935Y-103238938D01*
X142764556Y-103238247D01*
X142742591Y-103303557D01*
G37*
G36*
X117180600Y-106567367D02*
G01*
X117185367Y-106915090D01*
X117187403Y-107116208D01*
X117194258Y-108089238D01*
X117198139Y-109186931D01*
X117199046Y-110338398D01*
X117196979Y-111472750D01*
X117191940Y-112519098D01*
X117187378Y-113086726D01*
X117182502Y-113504970D01*
X117177891Y-113728447D01*
X117173618Y-113764784D01*
X117169752Y-113621603D01*
X117166368Y-113306529D01*
X117163535Y-112827187D01*
X117161326Y-112191201D01*
X117159812Y-111406196D01*
X117159066Y-110479795D01*
X117158998Y-110068924D01*
X117159423Y-109089748D01*
X117160641Y-108250410D01*
X117162580Y-107558345D01*
X117165170Y-107020989D01*
X117168338Y-106645777D01*
X117172014Y-106440146D01*
X117176125Y-106411531D01*
X117180600Y-106567367D01*
G37*
G36*
X140128535Y-92956208D02*
G01*
X140326865Y-93053589D01*
X140354542Y-93067376D01*
X140650449Y-93248560D01*
X140853744Y-93437157D01*
X140932584Y-93596999D01*
X140890724Y-93676353D01*
X140867029Y-93789974D01*
X141015988Y-93999105D01*
X141053085Y-94038732D01*
X141274011Y-94226473D01*
X141425301Y-94246580D01*
X141452737Y-94228774D01*
X141604887Y-94197152D01*
X141690809Y-94268996D01*
X141740040Y-94380753D01*
X141621872Y-94443843D01*
X141557716Y-94457594D01*
X141344858Y-94443717D01*
X141116594Y-94297490D01*
X140973599Y-94160075D01*
X140780317Y-93918606D01*
X140675272Y-93704419D01*
X140668477Y-93634034D01*
X140632773Y-93432002D01*
X140500047Y-93290089D01*
X140335311Y-93260730D01*
X140260731Y-93305165D01*
X140114310Y-93412498D01*
X140045321Y-93342797D01*
X140032271Y-93169323D01*
X140035621Y-92978874D01*
X140042022Y-92916335D01*
X140128535Y-92956208D01*
G37*
G36*
X182043857Y-85031893D02*
G01*
X182046966Y-85268011D01*
X182050223Y-85695665D01*
X182053568Y-86313347D01*
X182058611Y-87627855D01*
X182062145Y-89092080D01*
X182064171Y-90653354D01*
X182064688Y-92259009D01*
X182063696Y-93856378D01*
X182061196Y-95392792D01*
X182057187Y-96815583D01*
X182053568Y-97697809D01*
X182050191Y-98320533D01*
X182046936Y-98746320D01*
X182043828Y-98980622D01*
X182040894Y-99028893D01*
X182038159Y-98896585D01*
X182035650Y-98589152D01*
X182033392Y-98112047D01*
X182031411Y-97470722D01*
X182029733Y-96670631D01*
X182028384Y-95717227D01*
X182027389Y-94615962D01*
X182026775Y-93372290D01*
X182026567Y-92005578D01*
X182026779Y-90626243D01*
X182027397Y-89383914D01*
X182028395Y-88284046D01*
X182029748Y-87332090D01*
X182031429Y-86533500D01*
X182033412Y-85893729D01*
X182035673Y-85418230D01*
X182038185Y-85112455D01*
X182040921Y-84981858D01*
X182043857Y-85031893D01*
G37*
G36*
X171228907Y-99078275D02*
G01*
X171237215Y-99209765D01*
X171213681Y-99433326D01*
X171149801Y-99544622D01*
X171087964Y-99675874D01*
X171052169Y-99931937D01*
X171048605Y-100050598D01*
X171027374Y-100334687D01*
X170973987Y-100524534D01*
X170947410Y-100556574D01*
X170866939Y-100697113D01*
X170846215Y-100848746D01*
X170801670Y-101036074D01*
X170683570Y-101339349D01*
X170515216Y-101712257D01*
X170319909Y-102108484D01*
X170120950Y-102481715D01*
X169941639Y-102785636D01*
X169805278Y-102973932D01*
X169758366Y-103011019D01*
X169646742Y-102971065D01*
X169631872Y-102908181D01*
X169701510Y-102735884D01*
X169832416Y-102582149D01*
X170000697Y-102371497D01*
X170201008Y-102037693D01*
X170404441Y-101640738D01*
X170582084Y-101240630D01*
X170705027Y-100897369D01*
X170745020Y-100688144D01*
X170779104Y-100464364D01*
X170846215Y-100354183D01*
X170907699Y-100223108D01*
X170943601Y-99966528D01*
X170947410Y-99842235D01*
X170966348Y-99572718D01*
X171014195Y-99412312D01*
X171041567Y-99392829D01*
X171131568Y-99307083D01*
X171179579Y-99165140D01*
X171211840Y-99028069D01*
X171228907Y-99078275D01*
G37*
G36*
X158764636Y-94863227D02*
G01*
X158737463Y-95021236D01*
X158662104Y-95131676D01*
X158534942Y-95313176D01*
X158500398Y-95417082D01*
X158415962Y-95525752D01*
X158298008Y-95576732D01*
X158153009Y-95670338D01*
X158098501Y-95884496D01*
X158095617Y-95987343D01*
X158069488Y-96242729D01*
X158005478Y-96398600D01*
X157994422Y-96407570D01*
X157925986Y-96542134D01*
X157893620Y-96787360D01*
X157893227Y-96818323D01*
X157867406Y-97050044D01*
X157804048Y-97164075D01*
X157792032Y-97166534D01*
X157746592Y-97263336D01*
X157712557Y-97536572D01*
X157692291Y-97960489D01*
X157687618Y-98304980D01*
X157677485Y-98869171D01*
X157648482Y-99262368D01*
X157597105Y-99515383D01*
X157535825Y-99639859D01*
X157476562Y-99700012D01*
X157435387Y-99679882D01*
X157409088Y-99553766D01*
X157394454Y-99295958D01*
X157388272Y-98880753D01*
X157387251Y-98450816D01*
X157394397Y-97868403D01*
X157414886Y-97430370D01*
X157447293Y-97156225D01*
X157488446Y-97065339D01*
X157570481Y-96980523D01*
X157589641Y-96861575D01*
X157601560Y-96711481D01*
X157652319Y-96545314D01*
X157764423Y-96301963D01*
X157877427Y-96080058D01*
X157968847Y-95851278D01*
X157994422Y-95716260D01*
X158063830Y-95550023D01*
X158196812Y-95395618D01*
X158348659Y-95216053D01*
X158399203Y-95088739D01*
X158469818Y-94923496D01*
X158541987Y-94846521D01*
X158691404Y-94785822D01*
X158764636Y-94863227D01*
G37*
G36*
X163851020Y-92184074D02*
G01*
X164234718Y-92194114D01*
X164545271Y-92212995D01*
X164727624Y-92240379D01*
X164750660Y-92251590D01*
X164880895Y-92289503D01*
X165127281Y-92308613D01*
X165178998Y-92309163D01*
X165462610Y-92348251D01*
X165782576Y-92448500D01*
X166084787Y-92584387D01*
X166315131Y-92730391D01*
X166419498Y-92860987D01*
X166418069Y-92893600D01*
X166297531Y-93004176D01*
X166124752Y-92991612D01*
X166039442Y-92916335D01*
X165899599Y-92837285D01*
X165735856Y-92815140D01*
X165523953Y-92776941D01*
X165432271Y-92713944D01*
X165292427Y-92634894D01*
X165128685Y-92612749D01*
X164916782Y-92574551D01*
X164825099Y-92511554D01*
X164702154Y-92468412D01*
X164419103Y-92434808D01*
X164018147Y-92414556D01*
X163705980Y-92410359D01*
X163221516Y-92419598D01*
X162869329Y-92445552D01*
X162677040Y-92485576D01*
X162649402Y-92511554D01*
X162559751Y-92575471D01*
X162336328Y-92610487D01*
X162253054Y-92612749D01*
X161991279Y-92640314D01*
X161832313Y-92708838D01*
X161816906Y-92732150D01*
X161713464Y-92794104D01*
X161552505Y-92766398D01*
X161442653Y-92674949D01*
X161435849Y-92641224D01*
X161525678Y-92532683D01*
X161747373Y-92423544D01*
X162032227Y-92340256D01*
X162298528Y-92309163D01*
X162542374Y-92288692D01*
X162685406Y-92239423D01*
X162685818Y-92239016D01*
X162811574Y-92210345D01*
X163084395Y-92191854D01*
X163449228Y-92183209D01*
X163851020Y-92184074D01*
G37*
G36*
X151945725Y-78966121D02*
G01*
X154562928Y-78966768D01*
X157125561Y-78967954D01*
X159601504Y-78969679D01*
X161958636Y-78971944D01*
X164164839Y-78974747D01*
X165406972Y-78976696D01*
X166491911Y-78978688D01*
X167377786Y-78980640D01*
X168067920Y-78982547D01*
X168565641Y-78984403D01*
X168874273Y-78986201D01*
X168997142Y-78987937D01*
X168937573Y-78989605D01*
X168698892Y-78991199D01*
X168284424Y-78992714D01*
X167697495Y-78994144D01*
X166941429Y-78995483D01*
X166019553Y-78996725D01*
X164935192Y-78997866D01*
X163691671Y-78998899D01*
X162292316Y-78999819D01*
X160740452Y-79000620D01*
X159039405Y-79001296D01*
X157192500Y-79001842D01*
X155203063Y-79002252D01*
X153074418Y-79002521D01*
X150809892Y-79002643D01*
X150101195Y-79002650D01*
X147796365Y-79002573D01*
X145626415Y-79002348D01*
X143594669Y-79001980D01*
X141704454Y-79001474D01*
X139959094Y-79000837D01*
X138361915Y-79000073D01*
X136916242Y-78999188D01*
X135625401Y-78998189D01*
X134492718Y-78997080D01*
X133521517Y-78995868D01*
X132715125Y-78994557D01*
X132076866Y-78993154D01*
X131610067Y-78991665D01*
X131318052Y-78990094D01*
X131204147Y-78988448D01*
X131271677Y-78986731D01*
X131523969Y-78984951D01*
X131964346Y-78983112D01*
X132596136Y-78981220D01*
X133422663Y-78979281D01*
X134447252Y-78977300D01*
X134795418Y-78976696D01*
X136895253Y-78973567D01*
X139165357Y-78970978D01*
X141573611Y-78968928D01*
X144087895Y-78967417D01*
X146676088Y-78966446D01*
X149306072Y-78966014D01*
X151945725Y-78966121D01*
G37*
G36*
X133333603Y-116779042D02*
G01*
X133597540Y-116881505D01*
X133757397Y-116920922D01*
X133955521Y-117044939D01*
X134130317Y-117319074D01*
X134253503Y-117691116D01*
X134287022Y-117898658D01*
X134293664Y-118125876D01*
X134235641Y-118195780D01*
X134170297Y-118181365D01*
X134015664Y-118178681D01*
X133942525Y-118261996D01*
X134005688Y-118363554D01*
X134056019Y-118492152D01*
X133980048Y-118683668D01*
X133812701Y-118878676D01*
X133632007Y-118999402D01*
X133210999Y-119109915D01*
X132808771Y-119024438D01*
X132721613Y-118980496D01*
X132349454Y-118720467D01*
X132133261Y-118448089D01*
X132098138Y-118308745D01*
X132209037Y-118308745D01*
X132257886Y-118401019D01*
X132341434Y-118417530D01*
X132467379Y-118366184D01*
X132473831Y-118308745D01*
X132369359Y-118204194D01*
X132341434Y-118199960D01*
X132222779Y-118278743D01*
X132209037Y-118308745D01*
X132098138Y-118308745D01*
X132088446Y-118270292D01*
X132043144Y-118046159D01*
X131984289Y-117949070D01*
X131943074Y-117783284D01*
X132024256Y-117567111D01*
X132145216Y-117398094D01*
X132234092Y-117395878D01*
X132236601Y-117399692D01*
X132345972Y-117471821D01*
X132435811Y-117398414D01*
X132450492Y-117233079D01*
X132442129Y-117201610D01*
X132463041Y-117101992D01*
X133606374Y-117101992D01*
X133683381Y-117200247D01*
X133707569Y-117203187D01*
X133805824Y-117126180D01*
X133808765Y-117101992D01*
X133731758Y-117003738D01*
X133707569Y-117000797D01*
X133609315Y-117077804D01*
X133606374Y-117101992D01*
X132463041Y-117101992D01*
X132478311Y-117029248D01*
X132653884Y-116874744D01*
X132906195Y-116767797D01*
X133172590Y-116738104D01*
X133333603Y-116779042D01*
G37*
G36*
X131888556Y-94892654D02*
G01*
X131957334Y-95039067D01*
X131875425Y-95198090D01*
X131838099Y-95240906D01*
X131671160Y-95470048D01*
X131487916Y-95786442D01*
X131322394Y-96122316D01*
X131208621Y-96409896D01*
X131177689Y-96556274D01*
X131125553Y-96759504D01*
X131085822Y-96817410D01*
X131022279Y-96967891D01*
X130963156Y-97243627D01*
X130939421Y-97419522D01*
X130892073Y-97807672D01*
X130837915Y-98181652D01*
X130819221Y-98293028D01*
X130801027Y-98579804D01*
X130864158Y-98728913D01*
X130864427Y-98729080D01*
X130926459Y-98861271D01*
X130966696Y-99127141D01*
X130975299Y-99342231D01*
X130992699Y-99657396D01*
X131037390Y-99882689D01*
X131076494Y-99949402D01*
X131157330Y-100090120D01*
X131177689Y-100238721D01*
X131224921Y-100470309D01*
X131290306Y-100578115D01*
X131357587Y-100729888D01*
X131342480Y-100788530D01*
X131219869Y-100885324D01*
X131044261Y-100945254D01*
X130904223Y-100945868D01*
X130874103Y-100907255D01*
X130947293Y-100779962D01*
X130977131Y-100757832D01*
X131002438Y-100634495D01*
X130894877Y-100422975D01*
X130753064Y-100128820D01*
X130690064Y-99852677D01*
X130652306Y-99612843D01*
X130594433Y-99477461D01*
X130566028Y-99345615D01*
X130557165Y-99059984D01*
X130564854Y-98667916D01*
X130586107Y-98216758D01*
X130617935Y-97753858D01*
X130657348Y-97326563D01*
X130701359Y-96982221D01*
X130746978Y-96768179D01*
X130768110Y-96726073D01*
X130863632Y-96535939D01*
X130874103Y-96453476D01*
X130943214Y-96167203D01*
X131121611Y-95826748D01*
X131365889Y-95510775D01*
X131429005Y-95447786D01*
X131607533Y-95212597D01*
X131629891Y-95031428D01*
X131630409Y-94845005D01*
X131742589Y-94792834D01*
X131888556Y-94892654D01*
G37*
G36*
X137486695Y-92174850D02*
G01*
X137807536Y-92195757D01*
X137999575Y-92228495D01*
X138026135Y-92242603D01*
X138164612Y-92288613D01*
X138409130Y-92309097D01*
X138424041Y-92309163D01*
X138670092Y-92337293D01*
X138814534Y-92405486D01*
X138817928Y-92410359D01*
X138961480Y-92497101D01*
X139065321Y-92511554D01*
X139369193Y-92577777D01*
X139614593Y-92744208D01*
X139733976Y-92962486D01*
X139736720Y-92992231D01*
X139734288Y-93170145D01*
X139721697Y-93219920D01*
X139627640Y-93176664D01*
X139404449Y-93063634D01*
X139121514Y-92916335D01*
X138791108Y-92757167D01*
X138509749Y-92647247D01*
X138358246Y-92612749D01*
X138168823Y-92563836D01*
X138109561Y-92511554D01*
X137986518Y-92468834D01*
X137701353Y-92435521D01*
X137294249Y-92415107D01*
X136945816Y-92410359D01*
X136475455Y-92419240D01*
X136097911Y-92443553D01*
X135853367Y-92479804D01*
X135782071Y-92511554D01*
X135644227Y-92586560D01*
X135442708Y-92612749D01*
X135234999Y-92657270D01*
X134903362Y-92776921D01*
X134502044Y-92950832D01*
X134259636Y-93067882D01*
X133819526Y-93287318D01*
X133525721Y-93425937D01*
X133344113Y-93494643D01*
X133240594Y-93504342D01*
X133181055Y-93465938D01*
X133150996Y-93422311D01*
X133171528Y-93333742D01*
X133233828Y-93321116D01*
X133417949Y-93249508D01*
X133501107Y-93174229D01*
X133676632Y-93033307D01*
X133967258Y-92861693D01*
X134302756Y-92694288D01*
X134612898Y-92565990D01*
X134827454Y-92511700D01*
X134834614Y-92511554D01*
X135017530Y-92463768D01*
X135069491Y-92417177D01*
X135202674Y-92351982D01*
X135426141Y-92331282D01*
X135686983Y-92307066D01*
X135854462Y-92245364D01*
X136003315Y-92208152D01*
X136295364Y-92182425D01*
X136676210Y-92168254D01*
X137091454Y-92165706D01*
X137486695Y-92174850D01*
G37*
G36*
X169092847Y-111497495D02*
G01*
X169106500Y-111528665D01*
X169011794Y-111541637D01*
X168726919Y-111553840D01*
X168264093Y-111565272D01*
X167635537Y-111575930D01*
X166853469Y-111585811D01*
X165930110Y-111594914D01*
X164877679Y-111603236D01*
X163708396Y-111610773D01*
X162434479Y-111617524D01*
X161068148Y-111623486D01*
X159621623Y-111628657D01*
X158107124Y-111633034D01*
X156536869Y-111636614D01*
X154923078Y-111639396D01*
X153277971Y-111641376D01*
X151613767Y-111642551D01*
X149942686Y-111642921D01*
X148276947Y-111642481D01*
X146628769Y-111641230D01*
X145010372Y-111639165D01*
X143433976Y-111636283D01*
X141911800Y-111632582D01*
X140456064Y-111628059D01*
X139078986Y-111622713D01*
X137792787Y-111616539D01*
X136609685Y-111609537D01*
X135541901Y-111601703D01*
X134601654Y-111593034D01*
X133801164Y-111583529D01*
X133152649Y-111573185D01*
X132668329Y-111561999D01*
X132360424Y-111549968D01*
X132241153Y-111537091D01*
X132240239Y-111536255D01*
X132332173Y-111521872D01*
X132626307Y-111508586D01*
X133122456Y-111496400D01*
X133820431Y-111485314D01*
X134720047Y-111475328D01*
X135821116Y-111466446D01*
X137123452Y-111458666D01*
X138626867Y-111451990D01*
X140331175Y-111446420D01*
X142236189Y-111441957D01*
X144341723Y-111438600D01*
X146647589Y-111436352D01*
X149153600Y-111435213D01*
X150550601Y-111435060D01*
X152464032Y-111435019D01*
X154323148Y-111434898D01*
X156117841Y-111434702D01*
X157838002Y-111434435D01*
X159473523Y-111434100D01*
X161014296Y-111433703D01*
X162450212Y-111433247D01*
X163771163Y-111432737D01*
X164967041Y-111432176D01*
X166027738Y-111431569D01*
X166943145Y-111430920D01*
X167703153Y-111430233D01*
X168297655Y-111429512D01*
X168716542Y-111428761D01*
X168949706Y-111427985D01*
X168996872Y-111427470D01*
X169092847Y-111497495D01*
G37*
G36*
X142804730Y-115896896D02*
G01*
X143264024Y-115924949D01*
X143533049Y-115972280D01*
X143604462Y-116009084D01*
X143670298Y-116179513D01*
X143712413Y-116513322D01*
X143725896Y-116932232D01*
X143722481Y-117327699D01*
X143706608Y-117553863D01*
X143669833Y-117643769D01*
X143603714Y-117630465D01*
X143556555Y-117595060D01*
X143436299Y-117514327D01*
X143423890Y-117590406D01*
X143445885Y-117683865D01*
X143464837Y-117783606D01*
X143437844Y-117848907D01*
X143331431Y-117887061D01*
X143112122Y-117905361D01*
X142746442Y-117911102D01*
X142400884Y-117911554D01*
X141905046Y-117907162D01*
X141579279Y-117891033D01*
X141391395Y-117858743D01*
X141309208Y-117805862D01*
X141297211Y-117759761D01*
X141245039Y-117624296D01*
X141134352Y-117633524D01*
X141033897Y-117774761D01*
X141022946Y-117810359D01*
X140941505Y-117983244D01*
X140825740Y-117970782D01*
X140660914Y-117770067D01*
X140637944Y-117734462D01*
X140555666Y-117584078D01*
X140576657Y-117565990D01*
X140595947Y-117582669D01*
X140778488Y-117700305D01*
X140879109Y-117646754D01*
X140892430Y-117557371D01*
X140809637Y-117429022D01*
X140715338Y-117405527D01*
X140614179Y-117373935D01*
X140560146Y-117249527D01*
X140539895Y-116987746D01*
X140538247Y-116814293D01*
X140541602Y-116657658D01*
X141006045Y-116657658D01*
X141031168Y-116797611D01*
X141061089Y-116832138D01*
X141209205Y-116896598D01*
X141293817Y-116791273D01*
X141297211Y-116747809D01*
X141216207Y-116613647D01*
X141145418Y-116596016D01*
X141006045Y-116657658D01*
X140541602Y-116657658D01*
X140545678Y-116467355D01*
X140558134Y-116393626D01*
X143422310Y-116393626D01*
X143464688Y-116558064D01*
X143523506Y-116596016D01*
X143605725Y-116511260D01*
X143624701Y-116393626D01*
X143582323Y-116229187D01*
X143523506Y-116191235D01*
X143441286Y-116275991D01*
X143422310Y-116393626D01*
X140558134Y-116393626D01*
X140587472Y-116219977D01*
X140609489Y-116185588D01*
X140835810Y-116185588D01*
X140861449Y-116227718D01*
X141008346Y-116289278D01*
X141091883Y-116180965D01*
X141094820Y-116140638D01*
X141043346Y-116005923D01*
X140999597Y-115988845D01*
X140867455Y-116055801D01*
X140835810Y-116185588D01*
X140609489Y-116185588D01*
X140692881Y-116055336D01*
X140891156Y-115956611D01*
X141211549Y-115906978D01*
X141683310Y-115889614D01*
X142149522Y-115887649D01*
X142804730Y-115896896D01*
G37*
G36*
X158585491Y-115891759D02*
G01*
X158942004Y-115901678D01*
X159172093Y-115926674D01*
X159313729Y-115972797D01*
X159404884Y-116046097D01*
X159456015Y-116112556D01*
X159548633Y-116324288D01*
X159602717Y-116601837D01*
X159617280Y-116886537D01*
X159591337Y-117119726D01*
X159523901Y-117242740D01*
X159475052Y-117244886D01*
X159333498Y-117279960D01*
X159272596Y-117374556D01*
X159186622Y-117598758D01*
X159149669Y-117683865D01*
X159147665Y-117792557D01*
X159252958Y-117798549D01*
X159404324Y-117711220D01*
X159479941Y-117633267D01*
X159584865Y-117515682D01*
X159603198Y-117567872D01*
X159591060Y-117658566D01*
X159564469Y-117743281D01*
X159492376Y-117801781D01*
X159341054Y-117840114D01*
X159076776Y-117864327D01*
X158665812Y-117880471D01*
X158303209Y-117889521D01*
X157787976Y-117909649D01*
X157357331Y-117942638D01*
X157051321Y-117984488D01*
X156913007Y-118028406D01*
X156801239Y-118085856D01*
X156780079Y-118025140D01*
X156699612Y-117921413D01*
X156644530Y-117911554D01*
X156506793Y-117828822D01*
X156427317Y-117709163D01*
X156527091Y-117709163D01*
X156673508Y-117802276D01*
X156735454Y-117810359D01*
X156866243Y-117753778D01*
X156881275Y-117709163D01*
X156796264Y-117627739D01*
X156672912Y-117607968D01*
X156532988Y-117646924D01*
X156527091Y-117709163D01*
X156427317Y-117709163D01*
X156393711Y-117658566D01*
X156341952Y-117506773D01*
X157184860Y-117506773D01*
X157261867Y-117605028D01*
X157286055Y-117607968D01*
X157384310Y-117530961D01*
X157387251Y-117506773D01*
X157310244Y-117408518D01*
X157286055Y-117405578D01*
X157187801Y-117482585D01*
X157184860Y-117506773D01*
X156341952Y-117506773D01*
X156329221Y-117469438D01*
X156378664Y-117406661D01*
X156397707Y-117405578D01*
X156464165Y-117373132D01*
X156395538Y-117284144D01*
X156282688Y-117041717D01*
X156291817Y-116715704D01*
X156368592Y-116488849D01*
X159309960Y-116488849D01*
X159383419Y-116591898D01*
X159411155Y-116596016D01*
X159509719Y-116561490D01*
X159512350Y-116551391D01*
X159441439Y-116464993D01*
X159411155Y-116444223D01*
X159317905Y-116452246D01*
X159309960Y-116488849D01*
X156368592Y-116488849D01*
X156408214Y-116371774D01*
X156617165Y-116075596D01*
X156678884Y-116019383D01*
X156867437Y-115954848D01*
X157251166Y-115912684D01*
X157832666Y-115892653D01*
X158064580Y-115890868D01*
X158585491Y-115891759D01*
G37*
G36*
X167089829Y-116714169D02*
G01*
X167379920Y-116804800D01*
X167484099Y-116852861D01*
X167685796Y-116976849D01*
X167764392Y-117128062D01*
X167761160Y-117389936D01*
X167759408Y-117409434D01*
X167754214Y-117679818D01*
X167812795Y-117796493D01*
X167874548Y-117810359D01*
X167980081Y-117746162D01*
X167964854Y-117616484D01*
X167959565Y-117429721D01*
X168008632Y-117357524D01*
X168075351Y-117404930D01*
X168109752Y-117640088D01*
X168113944Y-117816777D01*
X168105754Y-118117097D01*
X168073229Y-118249329D01*
X168004433Y-118247394D01*
X167971160Y-118222616D01*
X167830779Y-118156116D01*
X167755805Y-118221540D01*
X167758175Y-118370171D01*
X167800821Y-118411636D01*
X167876802Y-118542916D01*
X167802367Y-118711807D01*
X167616846Y-118885515D01*
X167359575Y-119031248D01*
X167069884Y-119116212D01*
X166944125Y-119125896D01*
X166777711Y-119087705D01*
X166764401Y-118942399D01*
X166769085Y-118923506D01*
X166766475Y-118753957D01*
X166655694Y-118738258D01*
X166516400Y-118841210D01*
X166395063Y-118891841D01*
X166229282Y-118799875D01*
X166141977Y-118722375D01*
X166083253Y-118653652D01*
X167439309Y-118653652D01*
X167453200Y-118713813D01*
X167506773Y-118721116D01*
X167590068Y-118684090D01*
X167574236Y-118653652D01*
X167454141Y-118641541D01*
X167439309Y-118653652D01*
X166083253Y-118653652D01*
X165989461Y-118543889D01*
X165912721Y-118331051D01*
X165907771Y-118265737D01*
X165988844Y-118265737D01*
X166040191Y-118391682D01*
X166097629Y-118398134D01*
X166179490Y-118316335D01*
X166596016Y-118316335D01*
X166673023Y-118414589D01*
X166697211Y-118417530D01*
X166795465Y-118340523D01*
X166798406Y-118316335D01*
X166721399Y-118218080D01*
X166697211Y-118215140D01*
X166598956Y-118292147D01*
X166596016Y-118316335D01*
X166179490Y-118316335D01*
X166202180Y-118293662D01*
X166206414Y-118265737D01*
X166127632Y-118147082D01*
X166097629Y-118133340D01*
X166005355Y-118182189D01*
X165988844Y-118265737D01*
X165907771Y-118265737D01*
X165888322Y-118009140D01*
X165887649Y-117911554D01*
X165897082Y-117709163D01*
X165988844Y-117709163D01*
X166065851Y-117807418D01*
X166090040Y-117810359D01*
X166188294Y-117733352D01*
X166191235Y-117709163D01*
X166114228Y-117610909D01*
X166090040Y-117607968D01*
X165991785Y-117684975D01*
X165988844Y-117709163D01*
X165897082Y-117709163D01*
X165904581Y-117548269D01*
X165969489Y-117314007D01*
X166103546Y-117137184D01*
X166121861Y-117119632D01*
X166206448Y-117062944D01*
X167114222Y-117062944D01*
X167139229Y-117202660D01*
X167166704Y-117234168D01*
X167292849Y-117254634D01*
X167395130Y-117152067D01*
X167405577Y-117096020D01*
X167323524Y-117011511D01*
X167253785Y-117000797D01*
X167114222Y-117062944D01*
X166206448Y-117062944D01*
X166357492Y-116961718D01*
X166577239Y-116899602D01*
X166751615Y-116860472D01*
X166798406Y-116798406D01*
X166879505Y-116710728D01*
X167089829Y-116714169D01*
G37*
G36*
X124604469Y-100049643D02*
G01*
X124660857Y-100349232D01*
X124681240Y-100615203D01*
X124711216Y-100966935D01*
X124758925Y-101238604D01*
X124807734Y-101361076D01*
X124891215Y-101538426D01*
X124903585Y-101640736D01*
X124956367Y-101878378D01*
X125020751Y-102011873D01*
X125089369Y-102236067D01*
X125074117Y-102365745D01*
X125017995Y-102582823D01*
X125082889Y-102658612D01*
X125163210Y-102651939D01*
X125279954Y-102709435D01*
X125308366Y-102879628D01*
X125342462Y-103071917D01*
X125409561Y-103137052D01*
X125487022Y-103223259D01*
X125510757Y-103377649D01*
X125570284Y-103618782D01*
X125660450Y-103742481D01*
X125840393Y-103949468D01*
X125979105Y-104207226D01*
X126047182Y-104445893D01*
X126018294Y-104592702D01*
X125918796Y-104755121D01*
X125984003Y-104838857D01*
X126114207Y-104829022D01*
X126330779Y-104848481D01*
X126430184Y-104918415D01*
X126491760Y-105034802D01*
X126466862Y-105059761D01*
X126465964Y-105124313D01*
X126574930Y-105280347D01*
X126580966Y-105287450D01*
X126853479Y-105651800D01*
X126967911Y-105932710D01*
X126935257Y-106157988D01*
X126929529Y-106169098D01*
X126881037Y-106364516D01*
X126927216Y-106425727D01*
X127089649Y-106446463D01*
X127175442Y-106324763D01*
X127160851Y-106194966D01*
X127186809Y-106153762D01*
X127325442Y-106243348D01*
X127468526Y-106369531D01*
X127686754Y-106607630D01*
X127746726Y-106756475D01*
X127723756Y-106788297D01*
X127662634Y-106920399D01*
X127682498Y-106976070D01*
X127783658Y-107041362D01*
X127897854Y-106974993D01*
X128011866Y-106931487D01*
X128045437Y-107015450D01*
X127995346Y-107167272D01*
X127914143Y-107276478D01*
X127860149Y-107360378D01*
X127955553Y-107369670D01*
X128094849Y-107344037D01*
X128309920Y-107318257D01*
X128392121Y-107385882D01*
X128402049Y-107489480D01*
X128397931Y-107546846D01*
X128371959Y-107592578D01*
X128303705Y-107627884D01*
X128172744Y-107653972D01*
X127958649Y-107672050D01*
X127640991Y-107683326D01*
X127199344Y-107689008D01*
X126613282Y-107690304D01*
X125862376Y-107688422D01*
X125091255Y-107685278D01*
X124183325Y-107680704D01*
X123458082Y-107674865D01*
X122895826Y-107666661D01*
X122476853Y-107654992D01*
X122181461Y-107638758D01*
X121989948Y-107616859D01*
X121882612Y-107588194D01*
X121839750Y-107551664D01*
X121841659Y-107506168D01*
X121842488Y-107503875D01*
X121932216Y-107304817D01*
X122046563Y-107083665D01*
X122272510Y-107083665D01*
X122309535Y-107166961D01*
X122339973Y-107151129D01*
X122352084Y-107031034D01*
X122339973Y-107016202D01*
X122279813Y-107030093D01*
X122272510Y-107083665D01*
X122046563Y-107083665D01*
X122069758Y-107038806D01*
X122088513Y-107004691D01*
X122214793Y-106694415D01*
X122272188Y-106390613D01*
X122272510Y-106372221D01*
X122279148Y-106324701D01*
X122474900Y-106324701D01*
X122525498Y-106375299D01*
X122576095Y-106324701D01*
X122525498Y-106274104D01*
X122474900Y-106324701D01*
X122279148Y-106324701D01*
X122302098Y-106160398D01*
X122332672Y-106122311D01*
X126320318Y-106122311D01*
X126371665Y-106248255D01*
X126429103Y-106254708D01*
X126533654Y-106150236D01*
X126537888Y-106122311D01*
X126459106Y-106003656D01*
X126429103Y-105989914D01*
X126336830Y-106038763D01*
X126320318Y-106122311D01*
X122332672Y-106122311D01*
X122373286Y-106071716D01*
X122373705Y-106071713D01*
X122444757Y-105983778D01*
X122474892Y-105771905D01*
X122474900Y-105768128D01*
X122502731Y-105565737D01*
X126320318Y-105565737D01*
X126397325Y-105663992D01*
X126421514Y-105666932D01*
X126519768Y-105589925D01*
X126522709Y-105565737D01*
X126445702Y-105467483D01*
X126421514Y-105464542D01*
X126323259Y-105541549D01*
X126320318Y-105565737D01*
X122502731Y-105565737D01*
X122504212Y-105554970D01*
X122574836Y-105464565D01*
X122576095Y-105464542D01*
X122647148Y-105376606D01*
X122677283Y-105164733D01*
X122677291Y-105160956D01*
X126117928Y-105160956D01*
X126194935Y-105259211D01*
X126219123Y-105262151D01*
X126317378Y-105185144D01*
X126320318Y-105160956D01*
X126243311Y-105062702D01*
X126219123Y-105059761D01*
X126120869Y-105136768D01*
X126117928Y-105160956D01*
X122677291Y-105160956D01*
X122706602Y-104947799D01*
X122777227Y-104857394D01*
X122778486Y-104857371D01*
X122855218Y-104770956D01*
X122857469Y-104756175D01*
X123031474Y-104756175D01*
X123039497Y-104849425D01*
X123076099Y-104857371D01*
X123179148Y-104783912D01*
X123183267Y-104756175D01*
X123148740Y-104657611D01*
X123138641Y-104654980D01*
X123052244Y-104725891D01*
X123031474Y-104756175D01*
X122857469Y-104756175D01*
X122879681Y-104610355D01*
X122916993Y-104396084D01*
X122980876Y-104300797D01*
X123033312Y-104208035D01*
X123183267Y-104208035D01*
X123242255Y-104318853D01*
X123363630Y-104301182D01*
X123463662Y-104167978D01*
X123419619Y-104064751D01*
X123343492Y-104047809D01*
X123204091Y-104129287D01*
X123183267Y-104208035D01*
X123033312Y-104208035D01*
X123059926Y-104160954D01*
X123082071Y-103997211D01*
X123120270Y-103785308D01*
X123183267Y-103693626D01*
X123262317Y-103553782D01*
X123284462Y-103390040D01*
X123287502Y-103373174D01*
X124026560Y-103373174D01*
X124040451Y-103433334D01*
X124094024Y-103440638D01*
X124177319Y-103403612D01*
X124161487Y-103373174D01*
X124041392Y-103361063D01*
X124026560Y-103373174D01*
X123287502Y-103373174D01*
X123303615Y-103283788D01*
X125037190Y-103283788D01*
X125137799Y-103417775D01*
X125273136Y-103489273D01*
X125329543Y-103478147D01*
X125350407Y-103369349D01*
X125269889Y-103257596D01*
X125119488Y-103158564D01*
X125043367Y-103165929D01*
X125037190Y-103283788D01*
X123303615Y-103283788D01*
X123322660Y-103178137D01*
X123385657Y-103086454D01*
X123471121Y-102943506D01*
X123486852Y-102830572D01*
X123534968Y-102620111D01*
X123654134Y-102342333D01*
X123689243Y-102276893D01*
X123819880Y-101998341D01*
X123888564Y-101762216D01*
X123891633Y-101723213D01*
X123918463Y-101619124D01*
X124600000Y-101619124D01*
X124677007Y-101717378D01*
X124701195Y-101720319D01*
X124799450Y-101643312D01*
X124802390Y-101619124D01*
X124725383Y-101520869D01*
X124701195Y-101517928D01*
X124602940Y-101594935D01*
X124600000Y-101619124D01*
X123918463Y-101619124D01*
X123941753Y-101528769D01*
X123998804Y-101463638D01*
X124073841Y-101321432D01*
X124078554Y-101179379D01*
X124104792Y-100945250D01*
X124205037Y-100657094D01*
X124224372Y-100616923D01*
X124339868Y-100337250D01*
X124396456Y-100102025D01*
X124397609Y-100077215D01*
X124449563Y-99934685D01*
X124524103Y-99923702D01*
X124604469Y-100049643D01*
G37*
G36*
X174185276Y-99535537D02*
G01*
X174185657Y-99567281D01*
X174231497Y-99793551D01*
X174342535Y-100076062D01*
X174479049Y-100327661D01*
X174590438Y-100455379D01*
X174730712Y-100620148D01*
X174858952Y-100886700D01*
X174938134Y-101161759D01*
X174938954Y-101333394D01*
X174933588Y-101483864D01*
X174980635Y-101517928D01*
X175052911Y-101601970D01*
X175190055Y-101825263D01*
X175369440Y-102144559D01*
X175568439Y-102516610D01*
X175764423Y-102898166D01*
X175934765Y-103245980D01*
X176056837Y-103516803D01*
X176108011Y-103667387D01*
X176108366Y-103673353D01*
X176155938Y-103787235D01*
X176279205Y-104018784D01*
X176411952Y-104250199D01*
X176576590Y-104553135D01*
X176686841Y-104801401D01*
X176715538Y-104912421D01*
X176771612Y-105044206D01*
X176816733Y-105059761D01*
X176901735Y-105143575D01*
X176917928Y-105242339D01*
X176969960Y-105426284D01*
X177103641Y-105703351D01*
X177221514Y-105903623D01*
X177390963Y-106202221D01*
X177501161Y-106456665D01*
X177525099Y-106565520D01*
X177596045Y-106768741D01*
X177727490Y-106931873D01*
X177881176Y-107136514D01*
X177929880Y-107301740D01*
X177975421Y-107457465D01*
X178031075Y-107488446D01*
X178129330Y-107565453D01*
X178132271Y-107589642D01*
X178031673Y-107615902D01*
X177732199Y-107638350D01*
X177237328Y-107656911D01*
X176550541Y-107671513D01*
X175675317Y-107682083D01*
X174615135Y-107688548D01*
X173373476Y-107690833D01*
X173319525Y-107690837D01*
X172051254Y-107688740D01*
X170977314Y-107682469D01*
X170099044Y-107672053D01*
X169417782Y-107657519D01*
X168934864Y-107638897D01*
X168651628Y-107616214D01*
X168569322Y-107589642D01*
X168700394Y-107492276D01*
X168729257Y-107488446D01*
X169125896Y-107488446D01*
X169202903Y-107586701D01*
X169227091Y-107589642D01*
X169325346Y-107512634D01*
X169328287Y-107488446D01*
X169733067Y-107488446D01*
X169810074Y-107586701D01*
X169834263Y-107589642D01*
X169932517Y-107512634D01*
X169935458Y-107488446D01*
X169858451Y-107390192D01*
X169834263Y-107387251D01*
X169736008Y-107464258D01*
X169733067Y-107488446D01*
X169328287Y-107488446D01*
X169251280Y-107390192D01*
X169227091Y-107387251D01*
X169128837Y-107464258D01*
X169125896Y-107488446D01*
X168729257Y-107488446D01*
X168866332Y-107436534D01*
X169099046Y-107305498D01*
X169138862Y-107280084D01*
X177423904Y-107280084D01*
X177497363Y-107383133D01*
X177525099Y-107387251D01*
X177623664Y-107352725D01*
X177626295Y-107342626D01*
X177555383Y-107256228D01*
X177525099Y-107235458D01*
X177431850Y-107243482D01*
X177423904Y-107280084D01*
X169138862Y-107280084D01*
X169213361Y-107232533D01*
X169544685Y-107061643D01*
X169779995Y-107045716D01*
X169784031Y-107047211D01*
X169914906Y-107068139D01*
X169923186Y-106950636D01*
X169914611Y-106915007D01*
X177255245Y-106915007D01*
X177269136Y-106975167D01*
X177322709Y-106982470D01*
X177406004Y-106945444D01*
X177390172Y-106915007D01*
X177270077Y-106902896D01*
X177255245Y-106915007D01*
X169914611Y-106915007D01*
X169910600Y-106898344D01*
X169906418Y-106723770D01*
X169965413Y-106678885D01*
X170100378Y-106613458D01*
X170176004Y-106554092D01*
X177162734Y-106554092D01*
X177176258Y-106586332D01*
X177299111Y-106636469D01*
X177331352Y-106622945D01*
X177381489Y-106500092D01*
X177367965Y-106467851D01*
X177245111Y-106417714D01*
X177212871Y-106431238D01*
X177162734Y-106554092D01*
X170176004Y-106554092D01*
X170310826Y-106448257D01*
X170411318Y-106355448D01*
X170605247Y-106191295D01*
X170725611Y-106135254D01*
X170745020Y-106159030D01*
X170804145Y-106237384D01*
X170847866Y-106222486D01*
X170892522Y-106122311D01*
X171250996Y-106122311D01*
X171331999Y-106256472D01*
X171402789Y-106274104D01*
X171536950Y-106193100D01*
X171554581Y-106122311D01*
X171473578Y-105988149D01*
X171402789Y-105970518D01*
X171268627Y-106051521D01*
X171250996Y-106122311D01*
X170892522Y-106122311D01*
X170903701Y-106097233D01*
X170888550Y-106058344D01*
X170891740Y-105904531D01*
X171023198Y-105748623D01*
X171217504Y-105647239D01*
X171369462Y-105642128D01*
X171519668Y-105652028D01*
X171526873Y-105535863D01*
X171517720Y-105504656D01*
X171517513Y-105363347D01*
X176614342Y-105363347D01*
X176691349Y-105461601D01*
X176715538Y-105464542D01*
X176813792Y-105387535D01*
X176816733Y-105363347D01*
X176739726Y-105265092D01*
X176715538Y-105262151D01*
X176617283Y-105339158D01*
X176614342Y-105363347D01*
X171517513Y-105363347D01*
X171517325Y-105235496D01*
X171641678Y-104980742D01*
X171669243Y-104958566D01*
X176411952Y-104958566D01*
X176488959Y-105056820D01*
X176513147Y-105059761D01*
X176611402Y-104982754D01*
X176614342Y-104958566D01*
X176537335Y-104860311D01*
X176513147Y-104857371D01*
X176414893Y-104934378D01*
X176411952Y-104958566D01*
X171669243Y-104958566D01*
X171844400Y-104817654D01*
X171943756Y-104794967D01*
X172157591Y-104744450D01*
X172309722Y-104644816D01*
X172346896Y-104553785D01*
X172465338Y-104553785D01*
X172542345Y-104652040D01*
X172566534Y-104654980D01*
X172664788Y-104577973D01*
X172667003Y-104559757D01*
X172870119Y-104559757D01*
X172947305Y-104652255D01*
X172971314Y-104654980D01*
X173060125Y-104572611D01*
X173072510Y-104497215D01*
X173023451Y-104392472D01*
X172971314Y-104401992D01*
X172873979Y-104531366D01*
X172870119Y-104559757D01*
X172667003Y-104559757D01*
X172667729Y-104553785D01*
X172590722Y-104455530D01*
X172566534Y-104452590D01*
X172468279Y-104529597D01*
X172465338Y-104553785D01*
X172346896Y-104553785D01*
X172352970Y-104538912D01*
X172288247Y-104482105D01*
X172172323Y-104357225D01*
X172205118Y-104172265D01*
X172303705Y-104055976D01*
X172432043Y-103990530D01*
X172486769Y-104061502D01*
X172589395Y-104131234D01*
X172646330Y-104111632D01*
X172712003Y-103994295D01*
X172657447Y-103866026D01*
X172619205Y-103722792D01*
X172667984Y-103512559D01*
X172815895Y-103190039D01*
X172861910Y-103101477D01*
X173023114Y-102771337D01*
X173135978Y-102494399D01*
X173174328Y-102342513D01*
X173208862Y-102187096D01*
X175030004Y-102187096D01*
X175045816Y-102226295D01*
X175136751Y-102322834D01*
X175152984Y-102327490D01*
X175196449Y-102249196D01*
X175197609Y-102226295D01*
X175119815Y-102128988D01*
X175090442Y-102125100D01*
X175030004Y-102187096D01*
X173208862Y-102187096D01*
X173219927Y-102137298D01*
X173326121Y-101885843D01*
X173436889Y-101581561D01*
X173477291Y-101309943D01*
X173509697Y-101080587D01*
X173578486Y-100961355D01*
X173642709Y-100828904D01*
X173677588Y-100576489D01*
X173679681Y-100493185D01*
X173691443Y-100237137D01*
X173744859Y-100137089D01*
X173867125Y-100147167D01*
X173882071Y-100151793D01*
X174046203Y-100158869D01*
X174084462Y-100057417D01*
X174031875Y-99918430D01*
X173983267Y-99898805D01*
X173891024Y-99829288D01*
X173906281Y-99672635D01*
X174019306Y-99506691D01*
X174033864Y-99494024D01*
X174152323Y-99427553D01*
X174185276Y-99535537D01*
G37*
G36*
X152939753Y-81177878D02*
G01*
X155678340Y-81178462D01*
X158225785Y-81179465D01*
X160587712Y-81180912D01*
X162769743Y-81182827D01*
X164777504Y-81185235D01*
X166616618Y-81188160D01*
X168292709Y-81191628D01*
X169811400Y-81195662D01*
X171178316Y-81200287D01*
X172399081Y-81205527D01*
X173479317Y-81211408D01*
X174424650Y-81217954D01*
X175240703Y-81225190D01*
X175933100Y-81233139D01*
X176507464Y-81241826D01*
X176969420Y-81251277D01*
X177324591Y-81261516D01*
X177578601Y-81272566D01*
X177737075Y-81284454D01*
X177805635Y-81297202D01*
X177808446Y-81299124D01*
X177845647Y-81397246D01*
X177875306Y-81618864D01*
X177897962Y-81978308D01*
X177914152Y-82489913D01*
X177924417Y-83168008D01*
X177929294Y-84026926D01*
X177929880Y-84529959D01*
X177929880Y-87639360D01*
X177610747Y-87798564D01*
X177564567Y-87814873D01*
X177489039Y-87830041D01*
X177377104Y-87844109D01*
X177221700Y-87857119D01*
X177015768Y-87869111D01*
X176752246Y-87880125D01*
X176424075Y-87890202D01*
X176024193Y-87899383D01*
X175545541Y-87907709D01*
X174981057Y-87915220D01*
X174323682Y-87921957D01*
X173566354Y-87927960D01*
X172702014Y-87933270D01*
X171723600Y-87937928D01*
X170624053Y-87941975D01*
X169396311Y-87945450D01*
X168033315Y-87948396D01*
X166528003Y-87950852D01*
X164873316Y-87952858D01*
X163062192Y-87954457D01*
X161087572Y-87955688D01*
X158942394Y-87956592D01*
X156619599Y-87957210D01*
X154112125Y-87957582D01*
X151412913Y-87957750D01*
X149964213Y-87957769D01*
X147061528Y-87957585D01*
X144355550Y-87957017D01*
X141840596Y-87956039D01*
X139510981Y-87954626D01*
X137361023Y-87952752D01*
X135385038Y-87950392D01*
X133577343Y-87947521D01*
X131932255Y-87944113D01*
X130444090Y-87940143D01*
X129107165Y-87935586D01*
X127915796Y-87930416D01*
X126864300Y-87924608D01*
X125946994Y-87918136D01*
X125158195Y-87910975D01*
X124492218Y-87903100D01*
X123943381Y-87894486D01*
X123506000Y-87885106D01*
X123174392Y-87874937D01*
X122942874Y-87863951D01*
X122805762Y-87852124D01*
X122757373Y-87839431D01*
X122758247Y-87836335D01*
X122871899Y-87664006D01*
X122814794Y-87565691D01*
X122727888Y-87552988D01*
X122593689Y-87632366D01*
X122576095Y-87701605D01*
X122527958Y-87808898D01*
X122412245Y-87771804D01*
X122272008Y-87615416D01*
X122196613Y-87480405D01*
X122158515Y-87303834D01*
X123183267Y-87303834D01*
X123248167Y-87402836D01*
X123464177Y-87446990D01*
X123632673Y-87451793D01*
X123918738Y-87472834D01*
X124110923Y-87525820D01*
X124144861Y-87553376D01*
X124250038Y-87562274D01*
X124547298Y-87570529D01*
X125026333Y-87578148D01*
X125676837Y-87585141D01*
X126488502Y-87591517D01*
X127451022Y-87597286D01*
X128554089Y-87602457D01*
X129787397Y-87607038D01*
X131140638Y-87611040D01*
X132603506Y-87614471D01*
X134165694Y-87617341D01*
X135816894Y-87619658D01*
X137546799Y-87621432D01*
X139345104Y-87622672D01*
X141201500Y-87623388D01*
X143105681Y-87623588D01*
X145047339Y-87623282D01*
X147016169Y-87622479D01*
X149001862Y-87621188D01*
X150994112Y-87619419D01*
X152982612Y-87617180D01*
X154957054Y-87614481D01*
X156907133Y-87611330D01*
X158822540Y-87607738D01*
X160692970Y-87603714D01*
X162508114Y-87599266D01*
X164257666Y-87594403D01*
X165931320Y-87589136D01*
X167518767Y-87583473D01*
X169009701Y-87577423D01*
X170393815Y-87570996D01*
X171660803Y-87564201D01*
X172800356Y-87557047D01*
X173802169Y-87549543D01*
X174655934Y-87541698D01*
X175351344Y-87533522D01*
X175878092Y-87525024D01*
X176225871Y-87516213D01*
X176384375Y-87507098D01*
X176386653Y-87506724D01*
X176677695Y-87424000D01*
X176811950Y-87314904D01*
X176816733Y-87289371D01*
X176788610Y-87249717D01*
X176691626Y-87217986D01*
X176506854Y-87193360D01*
X176215372Y-87175023D01*
X175798252Y-87162157D01*
X175236572Y-87153944D01*
X174511405Y-87149568D01*
X173603827Y-87148211D01*
X173548127Y-87148207D01*
X172580030Y-87145047D01*
X171759609Y-87135789D01*
X171097941Y-87120766D01*
X170606099Y-87100314D01*
X170295160Y-87074767D01*
X170177854Y-87046540D01*
X170069243Y-87037655D01*
X169769349Y-87029525D01*
X169289277Y-87022138D01*
X168640131Y-87015482D01*
X167833018Y-87009542D01*
X166879042Y-87004308D01*
X165789309Y-86999765D01*
X164574924Y-86995901D01*
X163246993Y-86992704D01*
X161816620Y-86990161D01*
X160294911Y-86988259D01*
X158692972Y-86986985D01*
X157021907Y-86986327D01*
X155292823Y-86986271D01*
X153516823Y-86986806D01*
X151705015Y-86987919D01*
X149868502Y-86989596D01*
X148018390Y-86991825D01*
X146165785Y-86994594D01*
X144321791Y-86997889D01*
X142497515Y-87001699D01*
X140704061Y-87006010D01*
X138952535Y-87010809D01*
X137254041Y-87016084D01*
X135619686Y-87021822D01*
X134060575Y-87028011D01*
X132587813Y-87034637D01*
X131212504Y-87041688D01*
X129945756Y-87049152D01*
X128798672Y-87057015D01*
X127782358Y-87065265D01*
X126907919Y-87073889D01*
X126186462Y-87082875D01*
X125629090Y-87092209D01*
X125384263Y-87097807D01*
X124647682Y-87119178D01*
X124090422Y-87140728D01*
X123689424Y-87164616D01*
X123421628Y-87193000D01*
X123263975Y-87228038D01*
X123193404Y-87271889D01*
X123183267Y-87303834D01*
X122158515Y-87303834D01*
X122154906Y-87287110D01*
X122121011Y-86925592D01*
X122094930Y-86429866D01*
X122076669Y-85833950D01*
X122066230Y-85171858D01*
X122063618Y-84477608D01*
X122068836Y-83785216D01*
X122081888Y-83128697D01*
X122102778Y-82542068D01*
X122131510Y-82059345D01*
X122168087Y-81714545D01*
X122194240Y-81589095D01*
X123409939Y-81589095D01*
X123426737Y-81657282D01*
X123490185Y-81708229D01*
X123580494Y-81753476D01*
X123709369Y-81793386D01*
X123888516Y-81828320D01*
X124129638Y-81858642D01*
X124444440Y-81884715D01*
X124844628Y-81906900D01*
X125341905Y-81925561D01*
X125947977Y-81941060D01*
X126674548Y-81953760D01*
X127533323Y-81964024D01*
X128536006Y-81972214D01*
X129694302Y-81978692D01*
X131019916Y-81983822D01*
X132524552Y-81987965D01*
X134213546Y-81991474D01*
X135614855Y-81994889D01*
X136967435Y-81999765D01*
X138256428Y-82005961D01*
X139466974Y-82013333D01*
X140584215Y-82021741D01*
X141593291Y-82031043D01*
X142479343Y-82041096D01*
X143227513Y-82051760D01*
X143822940Y-82062892D01*
X144250766Y-82074350D01*
X144496133Y-82085993D01*
X144535458Y-82089983D01*
X144736039Y-82103783D01*
X145119409Y-82115457D01*
X145665978Y-82124892D01*
X146356155Y-82131975D01*
X147170350Y-82136592D01*
X148088970Y-82138630D01*
X149092427Y-82137977D01*
X150161128Y-82134518D01*
X151214342Y-82128563D01*
X152330873Y-82121065D01*
X153617677Y-82112640D01*
X155042639Y-82103488D01*
X156573646Y-82093807D01*
X158178582Y-82083797D01*
X159825333Y-82073657D01*
X161481785Y-82063586D01*
X163115823Y-82053784D01*
X164695333Y-82044448D01*
X166039442Y-82036635D01*
X167644384Y-82027228D01*
X169059997Y-82018449D01*
X170299340Y-82010021D01*
X171375472Y-82001666D01*
X172301454Y-81993107D01*
X173090343Y-81984064D01*
X173755200Y-81974260D01*
X174309083Y-81963418D01*
X174765053Y-81951258D01*
X175136168Y-81937504D01*
X175435487Y-81921877D01*
X175676070Y-81904099D01*
X175870976Y-81883893D01*
X176033265Y-81860979D01*
X176175995Y-81835081D01*
X176251848Y-81819258D01*
X176510284Y-81733618D01*
X176668252Y-81627750D01*
X176699651Y-81533646D01*
X176578384Y-81483302D01*
X176527552Y-81481275D01*
X176330330Y-81436636D01*
X176260159Y-81380080D01*
X176151369Y-81368041D01*
X175840653Y-81356756D01*
X175328474Y-81346226D01*
X174615296Y-81336454D01*
X173701582Y-81327440D01*
X172587794Y-81319188D01*
X171274397Y-81311698D01*
X169761854Y-81304973D01*
X168050627Y-81299013D01*
X166141180Y-81293822D01*
X164033976Y-81289400D01*
X161729478Y-81285750D01*
X159228150Y-81282873D01*
X156530455Y-81280772D01*
X153636855Y-81279447D01*
X150547815Y-81278900D01*
X149905223Y-81278885D01*
X147157756Y-81278974D01*
X144605581Y-81279270D01*
X142241601Y-81279814D01*
X140058719Y-81280648D01*
X138049837Y-81281812D01*
X136207856Y-81283349D01*
X134525681Y-81285299D01*
X132996212Y-81287705D01*
X131612352Y-81290607D01*
X130367004Y-81294047D01*
X129253070Y-81298067D01*
X128263453Y-81302708D01*
X127391054Y-81308011D01*
X126628776Y-81314017D01*
X125969521Y-81320769D01*
X125406193Y-81328308D01*
X124931692Y-81336675D01*
X124538922Y-81345911D01*
X124220785Y-81356059D01*
X123970183Y-81367158D01*
X123780018Y-81379252D01*
X123643194Y-81392381D01*
X123552612Y-81406586D01*
X123501174Y-81421910D01*
X123484823Y-81433123D01*
X123409939Y-81589095D01*
X122194240Y-81589095D01*
X122195953Y-81580876D01*
X122321787Y-81177689D01*
X150004400Y-81177689D01*
X152939753Y-81177878D01*
G37*
G36*
X137376773Y-93134690D02*
G01*
X137618388Y-93176030D01*
X137704781Y-93219920D01*
X137838463Y-93288017D01*
X138087319Y-93325603D01*
X138140833Y-93327530D01*
X138370848Y-93336422D01*
X138417400Y-93362054D01*
X138299411Y-93419762D01*
X138269499Y-93431810D01*
X138107441Y-93525169D01*
X138122511Y-93625429D01*
X138145531Y-93650551D01*
X138287876Y-93720043D01*
X138464897Y-93647466D01*
X138694192Y-93551858D01*
X138915067Y-93528048D01*
X139054341Y-93578785D01*
X139070916Y-93624701D01*
X139152180Y-93716051D01*
X139213235Y-93725896D01*
X139312673Y-93800278D01*
X139302628Y-93928287D01*
X139316548Y-94094835D01*
X139424608Y-94124636D01*
X139526295Y-94029482D01*
X139644499Y-93928110D01*
X139716661Y-93996018D01*
X139707409Y-94130677D01*
X139721329Y-94297226D01*
X139829389Y-94327027D01*
X139931075Y-94231873D01*
X140046891Y-94129481D01*
X140118354Y-94196487D01*
X140110225Y-94358367D01*
X140088127Y-94510218D01*
X140151636Y-94494040D01*
X140191468Y-94458629D01*
X140288355Y-94416631D01*
X140424341Y-94470368D01*
X140633612Y-94640269D01*
X140863004Y-94859953D01*
X141123037Y-95133219D01*
X141313386Y-95364641D01*
X141397245Y-95508933D01*
X141398406Y-95518655D01*
X141453747Y-95638753D01*
X141487799Y-95648606D01*
X141582281Y-95732823D01*
X141630118Y-95850996D01*
X141746144Y-95995758D01*
X141946969Y-96062260D01*
X142155228Y-96047635D01*
X142293558Y-95949012D01*
X142312381Y-95876295D01*
X142373990Y-95657142D01*
X142464174Y-95502770D01*
X142575304Y-95367301D01*
X142610047Y-95396593D01*
X142612749Y-95510919D01*
X142657215Y-95714144D01*
X142771155Y-96012905D01*
X142865313Y-96213328D01*
X143071937Y-96785717D01*
X143118301Y-97185861D01*
X143138430Y-97479852D01*
X143188936Y-97681108D01*
X143219920Y-97723108D01*
X143273620Y-97852907D01*
X143306589Y-98121005D01*
X143319097Y-98464402D01*
X143311418Y-98820099D01*
X143283821Y-99125096D01*
X143236578Y-99316393D01*
X143212925Y-99346554D01*
X143149936Y-99481780D01*
X143129619Y-99733021D01*
X143132906Y-99803594D01*
X143134036Y-100072378D01*
X143101377Y-100247070D01*
X143089304Y-100265543D01*
X143025250Y-100420570D01*
X143017530Y-100502667D01*
X142966986Y-100782259D01*
X142841936Y-101018365D01*
X142682250Y-101150506D01*
X142587450Y-101155062D01*
X142435772Y-101156210D01*
X142429392Y-101266569D01*
X142513115Y-101377817D01*
X142545185Y-101538287D01*
X142463923Y-101783388D01*
X142298534Y-102054066D01*
X142078223Y-102291265D01*
X142050007Y-102314262D01*
X141874158Y-102501346D01*
X141803187Y-102670939D01*
X141718743Y-102806103D01*
X141600797Y-102833466D01*
X141430137Y-102905954D01*
X141398406Y-103018217D01*
X141326350Y-103211058D01*
X141155704Y-103428028D01*
X140954753Y-103595056D01*
X140822402Y-103643028D01*
X140674688Y-103713143D01*
X140584687Y-103799830D01*
X140432961Y-103918748D01*
X140170085Y-104076628D01*
X139869072Y-104234749D01*
X139602936Y-104354391D01*
X139458831Y-104396898D01*
X139331164Y-104463339D01*
X139315471Y-104477889D01*
X139162680Y-104538527D01*
X139009425Y-104553785D01*
X138801881Y-104593715D01*
X138716733Y-104654980D01*
X138585480Y-104716817D01*
X138329417Y-104752612D01*
X138210757Y-104756175D01*
X137926668Y-104777407D01*
X137736821Y-104830794D01*
X137704781Y-104857371D01*
X137579111Y-104908070D01*
X137309124Y-104944376D01*
X136952782Y-104958561D01*
X136945816Y-104958566D01*
X136588434Y-104944858D01*
X136316345Y-104908888D01*
X136187512Y-104858382D01*
X136186852Y-104857371D01*
X136054396Y-104793136D01*
X135801999Y-104758262D01*
X135718849Y-104756175D01*
X135335214Y-104719665D01*
X135077122Y-104620195D01*
X134975617Y-104472859D01*
X134987105Y-104400448D01*
X134968816Y-104273532D01*
X134871314Y-104250199D01*
X134747152Y-104308000D01*
X134756116Y-104401992D01*
X134783650Y-104495765D01*
X134756372Y-104535122D01*
X134645643Y-104511991D01*
X134422823Y-104418300D01*
X134059271Y-104245974D01*
X133860424Y-104149520D01*
X133791063Y-104109956D01*
X135338923Y-104109956D01*
X135363930Y-104249672D01*
X135391405Y-104281180D01*
X135517551Y-104301645D01*
X135619831Y-104199079D01*
X135629166Y-104149004D01*
X139323904Y-104149004D01*
X139331927Y-104242254D01*
X139368529Y-104250199D01*
X139471579Y-104176741D01*
X139475697Y-104149004D01*
X139441171Y-104050440D01*
X139431072Y-104047809D01*
X139344674Y-104118720D01*
X139323904Y-104149004D01*
X135629166Y-104149004D01*
X135630279Y-104143032D01*
X135548225Y-104058523D01*
X135478486Y-104047809D01*
X135338923Y-104109956D01*
X133791063Y-104109956D01*
X133337406Y-103851186D01*
X132844412Y-103490242D01*
X132414765Y-103099130D01*
X132081788Y-102710292D01*
X131878802Y-102356171D01*
X131833459Y-102176112D01*
X131808620Y-101924137D01*
X131773803Y-101834703D01*
X131698334Y-101869021D01*
X131633067Y-101922709D01*
X131512813Y-101995196D01*
X131481337Y-101909605D01*
X131481275Y-101900186D01*
X131411496Y-101725088D01*
X131278884Y-101568526D01*
X131111898Y-101391635D01*
X131116127Y-101275573D01*
X131298598Y-101162830D01*
X131330271Y-101147967D01*
X131529429Y-101086695D01*
X131576439Y-101142820D01*
X131469853Y-101286482D01*
X131403389Y-101435340D01*
X131457205Y-101548316D01*
X131583949Y-101552178D01*
X131624245Y-101525250D01*
X131784105Y-101488322D01*
X131919785Y-101608443D01*
X131986079Y-101841366D01*
X131987251Y-101880575D01*
X132070235Y-102090525D01*
X132300391Y-102371391D01*
X132649529Y-102693054D01*
X133000111Y-102962767D01*
X133163534Y-103084426D01*
X133165752Y-103115037D01*
X133024502Y-103082442D01*
X132840714Y-103081518D01*
X132805624Y-103192043D01*
X132926210Y-103380976D01*
X132955111Y-103411002D01*
X133112858Y-103510213D01*
X133228338Y-103454371D01*
X133383630Y-103347688D01*
X133459292Y-103383582D01*
X133441577Y-103488635D01*
X133458593Y-103674209D01*
X133534569Y-103788069D01*
X133683819Y-103882803D01*
X133873283Y-103849782D01*
X133951998Y-103815969D01*
X134149450Y-103636793D01*
X134166418Y-103541833D01*
X138716733Y-103541833D01*
X138724756Y-103635082D01*
X138761358Y-103643028D01*
X138864407Y-103569569D01*
X138868526Y-103541833D01*
X138833999Y-103443269D01*
X138823900Y-103440638D01*
X138737503Y-103511549D01*
X138716733Y-103541833D01*
X134166418Y-103541833D01*
X134191911Y-103399157D01*
X134178766Y-103373174D01*
X139104648Y-103373174D01*
X139118539Y-103433334D01*
X139172111Y-103440638D01*
X139255406Y-103403612D01*
X139239575Y-103373174D01*
X139119480Y-103361063D01*
X139104648Y-103373174D01*
X134178766Y-103373174D01*
X134080639Y-103179217D01*
X135124303Y-103179217D01*
X135205780Y-103318617D01*
X135284528Y-103339442D01*
X135402551Y-103280603D01*
X135404698Y-103219273D01*
X135303973Y-103085638D01*
X135182714Y-103068647D01*
X135124303Y-103179217D01*
X134080639Y-103179217D01*
X134078756Y-103175496D01*
X133958282Y-103088799D01*
X133906159Y-103035857D01*
X134618326Y-103035857D01*
X134655352Y-103119152D01*
X134685790Y-103103320D01*
X134697901Y-102983225D01*
X134685790Y-102968393D01*
X134625629Y-102982284D01*
X134618326Y-103035857D01*
X133906159Y-103035857D01*
X133806455Y-102934585D01*
X133788611Y-102808167D01*
X133763326Y-102674911D01*
X133587595Y-102631596D01*
X133550806Y-102631076D01*
X133368835Y-102613506D01*
X133357462Y-102541734D01*
X133398127Y-102486340D01*
X133453811Y-102357051D01*
X133340865Y-102247578D01*
X133302703Y-102226295D01*
X133606374Y-102226295D01*
X133640900Y-102324859D01*
X133651000Y-102327490D01*
X133737397Y-102256579D01*
X133758167Y-102226295D01*
X133750144Y-102133045D01*
X133713542Y-102125100D01*
X133610492Y-102198558D01*
X133606374Y-102226295D01*
X133302703Y-102226295D01*
X133300655Y-102225153D01*
X133113421Y-102156878D01*
X133024911Y-102166855D01*
X132932177Y-102140196D01*
X132821767Y-102018003D01*
X132735819Y-101852982D01*
X132788439Y-101722761D01*
X132896782Y-101620186D01*
X133095280Y-101496462D01*
X133239945Y-101476634D01*
X133385288Y-101441674D01*
X133578405Y-101293784D01*
X133603572Y-101267923D01*
X133809981Y-101090443D01*
X133976855Y-101016232D01*
X134062256Y-101055014D01*
X134047255Y-101165034D01*
X134055361Y-101365851D01*
X134109741Y-101464187D01*
X134181395Y-101641408D01*
X134112827Y-101758438D01*
X133957317Y-101755670D01*
X133830590Y-101754139D01*
X133826622Y-101857309D01*
X133944280Y-102009839D01*
X133962842Y-102025801D01*
X134066006Y-102213935D01*
X134059880Y-102333390D01*
X134055851Y-102464893D01*
X134191158Y-102463861D01*
X134405320Y-102493177D01*
X134511292Y-102573443D01*
X134683932Y-102705898D01*
X134782510Y-102732271D01*
X134909026Y-102791094D01*
X134921912Y-102833466D01*
X135009848Y-102904519D01*
X135221721Y-102934654D01*
X135225498Y-102934661D01*
X135438655Y-102963973D01*
X135529060Y-103034598D01*
X135529083Y-103035857D01*
X135616822Y-103107680D01*
X135824236Y-103137052D01*
X136049839Y-103175781D01*
X136163635Y-103263546D01*
X136250164Y-103332315D01*
X136377314Y-103258900D01*
X136508969Y-103088394D01*
X136609013Y-102865890D01*
X136642231Y-102665989D01*
X136649266Y-102580478D01*
X136743426Y-102580478D01*
X136827792Y-102704097D01*
X136945816Y-102732271D01*
X137110642Y-102668997D01*
X137148207Y-102580478D01*
X137063841Y-102456859D01*
X136945816Y-102428685D01*
X136780991Y-102491960D01*
X136743426Y-102580478D01*
X136649266Y-102580478D01*
X136661236Y-102434977D01*
X136755579Y-102342999D01*
X136945816Y-102327490D01*
X137144766Y-102345133D01*
X137230068Y-102437793D01*
X137249279Y-102665067D01*
X137249402Y-102707929D01*
X137290724Y-103014782D01*
X137434505Y-103202013D01*
X137472496Y-103227692D01*
X137657797Y-103308073D01*
X137733917Y-103252034D01*
X137850778Y-103173414D01*
X138083285Y-103137307D01*
X138105604Y-103137052D01*
X138376150Y-103092303D01*
X138565618Y-102984375D01*
X138568041Y-102981523D01*
X138759316Y-102864330D01*
X138878566Y-102855029D01*
X139037038Y-102802684D01*
X139066576Y-102782869D01*
X139475697Y-102782869D01*
X139527043Y-102908813D01*
X139584482Y-102915266D01*
X139689033Y-102810794D01*
X139693267Y-102782869D01*
X139614484Y-102664214D01*
X139584482Y-102650472D01*
X139492208Y-102699320D01*
X139475697Y-102782869D01*
X139066576Y-102782869D01*
X139271336Y-102645508D01*
X139525408Y-102432199D01*
X139743202Y-102211452D01*
X139768196Y-102175697D01*
X140082868Y-102175697D01*
X140137511Y-102310365D01*
X140184063Y-102327490D01*
X140273842Y-102245526D01*
X140285259Y-102175697D01*
X140230616Y-102041030D01*
X140184063Y-102023904D01*
X140094285Y-102105868D01*
X140082868Y-102175697D01*
X139768196Y-102175697D01*
X139868669Y-102031964D01*
X139880478Y-101984590D01*
X139816986Y-101847168D01*
X139790558Y-101813924D01*
X142024973Y-101813924D01*
X142073822Y-101906198D01*
X142157370Y-101922709D01*
X142283315Y-101871363D01*
X142289767Y-101813924D01*
X142185295Y-101709373D01*
X142157370Y-101705140D01*
X142038715Y-101783922D01*
X142024973Y-101813924D01*
X139790558Y-101813924D01*
X139664024Y-101654758D01*
X139661444Y-101652005D01*
X139517864Y-101481401D01*
X139509694Y-101364618D01*
X139626530Y-101215403D01*
X139807117Y-101045805D01*
X139897360Y-101051768D01*
X139911594Y-101241205D01*
X139899684Y-101366136D01*
X139900526Y-101633675D01*
X139982404Y-101720319D01*
X140063635Y-101641119D01*
X140053547Y-101517928D01*
X140058544Y-101355608D01*
X140187565Y-101315538D01*
X140377325Y-101364250D01*
X140437052Y-101416733D01*
X140564792Y-101513516D01*
X140671973Y-101461444D01*
X140690040Y-101381820D01*
X140717172Y-101315538D01*
X141398406Y-101315538D01*
X141461681Y-101480364D01*
X141550199Y-101517928D01*
X141673818Y-101433562D01*
X141701992Y-101315538D01*
X141638717Y-101150712D01*
X141550199Y-101113147D01*
X141426580Y-101197513D01*
X141398406Y-101315538D01*
X140717172Y-101315538D01*
X140759290Y-101212643D01*
X140872685Y-101080419D01*
X141033350Y-100874056D01*
X141182248Y-100590519D01*
X141195158Y-100558759D01*
X141304965Y-100328761D01*
X141400874Y-100207808D01*
X141417294Y-100202391D01*
X141904382Y-100202391D01*
X141941408Y-100285686D01*
X141971846Y-100269854D01*
X141983957Y-100149759D01*
X141971846Y-100134927D01*
X141911685Y-100148818D01*
X141904382Y-100202391D01*
X141417294Y-100202391D01*
X141471441Y-100113298D01*
X141498794Y-99893906D01*
X141499601Y-99843771D01*
X141531470Y-99583330D01*
X141627214Y-99514476D01*
X141629086Y-99514887D01*
X141751638Y-99478825D01*
X141747471Y-99285151D01*
X141692373Y-99114542D01*
X141602033Y-98969456D01*
X141435292Y-98902454D01*
X141147923Y-98886853D01*
X140875454Y-98868725D01*
X140711513Y-98822835D01*
X140690040Y-98795131D01*
X140771295Y-98744977D01*
X140907223Y-98760205D01*
X141059027Y-98775303D01*
X141091784Y-98671516D01*
X141074512Y-98557968D01*
X141416667Y-98557968D01*
X141441200Y-98743523D01*
X141550199Y-98785657D01*
X141675453Y-98715806D01*
X141683731Y-98557968D01*
X141620204Y-98380008D01*
X141550199Y-98330279D01*
X141458882Y-98416347D01*
X141416667Y-98557968D01*
X141074512Y-98557968D01*
X141073048Y-98548340D01*
X141065410Y-98346803D01*
X141165759Y-98280824D01*
X141194365Y-98279681D01*
X141399943Y-98201670D01*
X141596126Y-98021250D01*
X141699604Y-97818837D01*
X141701992Y-97789663D01*
X141651920Y-97613831D01*
X141576454Y-97468746D01*
X141501590Y-97261952D01*
X141576454Y-97066712D01*
X141686442Y-96858780D01*
X141659764Y-96782894D01*
X141499601Y-96812351D01*
X141335470Y-96819427D01*
X141297211Y-96717975D01*
X141244624Y-96578987D01*
X141196016Y-96559363D01*
X141151200Y-96508765D01*
X141600797Y-96508765D01*
X141681800Y-96642927D01*
X141752589Y-96660558D01*
X141886751Y-96579554D01*
X141904382Y-96508765D01*
X141823379Y-96374604D01*
X141752589Y-96356972D01*
X141618428Y-96437976D01*
X141600797Y-96508765D01*
X141151200Y-96508765D01*
X141119437Y-96472904D01*
X141094820Y-96310974D01*
X141002711Y-95997571D01*
X140761454Y-95744270D01*
X140423656Y-95595147D01*
X140214629Y-95573522D01*
X139929708Y-95601780D01*
X139725197Y-95663084D01*
X139704584Y-95676248D01*
X139575256Y-95700246D01*
X139518525Y-95614251D01*
X139513832Y-95383101D01*
X139553233Y-95345020D01*
X140892430Y-95345020D01*
X140926956Y-95443584D01*
X140937055Y-95446215D01*
X141023453Y-95375304D01*
X141044223Y-95345020D01*
X141036200Y-95251770D01*
X140999597Y-95243825D01*
X140896548Y-95317284D01*
X140892430Y-95345020D01*
X139553233Y-95345020D01*
X139701049Y-95202156D01*
X139839710Y-95138892D01*
X140015595Y-95031771D01*
X140086159Y-94914653D01*
X140025022Y-94843255D01*
X139981673Y-94839044D01*
X139897099Y-94755079D01*
X139894279Y-94737849D01*
X140285259Y-94737849D01*
X140362266Y-94836103D01*
X140386454Y-94839044D01*
X140484708Y-94762037D01*
X140487649Y-94737849D01*
X140410642Y-94639594D01*
X140386454Y-94636653D01*
X140288199Y-94713660D01*
X140285259Y-94737849D01*
X139894279Y-94737849D01*
X139880478Y-94653519D01*
X139826362Y-94517635D01*
X139633553Y-94469485D01*
X139565055Y-94467995D01*
X139289732Y-94412507D01*
X139154919Y-94298752D01*
X138998945Y-94178288D01*
X138812573Y-94191661D01*
X138628207Y-94208707D01*
X138564940Y-94166351D01*
X138475448Y-94052331D01*
X138252360Y-93944769D01*
X137963757Y-93867087D01*
X137677722Y-93842709D01*
X137632887Y-93845680D01*
X137416794Y-93884675D01*
X137314367Y-93987870D01*
X137272571Y-94218414D01*
X137267162Y-94281157D01*
X137207620Y-94609235D01*
X137082692Y-94764738D01*
X136869700Y-94772925D01*
X136833419Y-94764240D01*
X136675788Y-94631104D01*
X136668992Y-94592028D01*
X136945816Y-94592028D01*
X136994875Y-94696771D01*
X137047012Y-94687251D01*
X137144347Y-94557877D01*
X137148207Y-94529486D01*
X137071021Y-94436989D01*
X137047012Y-94434263D01*
X136958201Y-94516632D01*
X136945816Y-94592028D01*
X136668992Y-94592028D01*
X136642231Y-94438144D01*
X136576111Y-94167202D01*
X136457171Y-93994569D01*
X136234975Y-93874082D01*
X135970871Y-93829596D01*
X135751363Y-93868497D01*
X135680876Y-93928287D01*
X135536700Y-94016368D01*
X135442091Y-94029482D01*
X135230273Y-94068330D01*
X134987313Y-94161091D01*
X134791509Y-94272087D01*
X134720311Y-94358367D01*
X134637521Y-94426384D01*
X134572329Y-94434263D01*
X134407554Y-94501258D01*
X134194761Y-94665735D01*
X134161500Y-94697899D01*
X133994896Y-94879788D01*
X133961997Y-94998204D01*
X134048127Y-95127316D01*
X134071389Y-95153277D01*
X134187047Y-95310462D01*
X134157353Y-95434769D01*
X134078818Y-95528553D01*
X133973269Y-95697152D01*
X134029727Y-95829060D01*
X134032776Y-95832139D01*
X134105730Y-95935870D01*
X134050950Y-95950568D01*
X133915574Y-95889089D01*
X133746742Y-95764290D01*
X133730882Y-95749801D01*
X133494239Y-95582593D01*
X133293514Y-95580095D01*
X133100830Y-95753425D01*
X132906207Y-96078685D01*
X132781150Y-96273927D01*
X132679716Y-96356945D01*
X132678517Y-96356972D01*
X132614722Y-96443488D01*
X132594422Y-96603988D01*
X132557110Y-96818258D01*
X132493227Y-96913546D01*
X132420319Y-97050346D01*
X132392032Y-97273701D01*
X132362179Y-97484263D01*
X132290836Y-97571315D01*
X132194339Y-97641467D01*
X132203617Y-97809420D01*
X132302540Y-98011417D01*
X132439197Y-98157707D01*
X132593956Y-98309836D01*
X132630104Y-98412024D01*
X132627168Y-98415595D01*
X132618963Y-98533100D01*
X132733487Y-98663358D01*
X132903724Y-98748700D01*
X133017572Y-98751533D01*
X133142959Y-98752261D01*
X133137948Y-98806769D01*
X133005009Y-98860569D01*
X132745193Y-98869747D01*
X132631832Y-98860360D01*
X132358013Y-98837274D01*
X132229751Y-98870358D01*
X132191901Y-98989704D01*
X132189641Y-99101674D01*
X132220102Y-99309396D01*
X132290836Y-99392829D01*
X132354205Y-99482604D01*
X132389451Y-99706874D01*
X132392032Y-99797610D01*
X132414475Y-100051084D01*
X132470543Y-100192069D01*
X132493227Y-100202391D01*
X132568149Y-100289308D01*
X132594422Y-100466113D01*
X132685244Y-100749825D01*
X132847410Y-100928837D01*
X133043917Y-101121262D01*
X133094315Y-101260058D01*
X132988261Y-101315474D01*
X132981872Y-101315538D01*
X132822014Y-101377458D01*
X132663134Y-101492630D01*
X132525094Y-101604218D01*
X132493581Y-101566870D01*
X132532728Y-101382955D01*
X132558801Y-101184542D01*
X132495800Y-101162197D01*
X132492850Y-101163978D01*
X132328601Y-101168543D01*
X132176973Y-101031541D01*
X132092619Y-100809382D01*
X132088446Y-100746573D01*
X132052187Y-100562408D01*
X131987251Y-100505976D01*
X131915655Y-100418179D01*
X131886055Y-100208363D01*
X131854862Y-99974663D01*
X131784860Y-99848207D01*
X131715938Y-99713399D01*
X131683945Y-99469073D01*
X131683665Y-99443426D01*
X131656399Y-99193482D01*
X131590002Y-99044246D01*
X131582470Y-99038645D01*
X131507422Y-98902076D01*
X131477062Y-98663584D01*
X131487948Y-98397296D01*
X131536639Y-98177337D01*
X131619694Y-98077831D01*
X131627095Y-98077291D01*
X131804771Y-98008631D01*
X131855880Y-97856253D01*
X131796282Y-97744649D01*
X131710885Y-97562291D01*
X131687142Y-97312255D01*
X131726591Y-97092969D01*
X131784860Y-97014741D01*
X131863194Y-96875251D01*
X131886055Y-96705183D01*
X131921457Y-96517882D01*
X131987251Y-96458167D01*
X132070963Y-96373906D01*
X132088446Y-96266604D01*
X132167341Y-96081197D01*
X132343953Y-95982721D01*
X132503074Y-96008875D01*
X132607921Y-95978244D01*
X132665371Y-95882709D01*
X132797862Y-95649112D01*
X132870482Y-95562046D01*
X132956369Y-95359568D01*
X132952186Y-95312141D01*
X133345683Y-95312141D01*
X133426670Y-95422058D01*
X133511151Y-95446215D01*
X133604547Y-95378319D01*
X133606374Y-95361886D01*
X133540361Y-95215232D01*
X133403330Y-95194867D01*
X133388218Y-95202971D01*
X133345683Y-95312141D01*
X132952186Y-95312141D01*
X132945221Y-95233162D01*
X132940130Y-95078315D01*
X132992384Y-95041434D01*
X133088171Y-94959579D01*
X133100398Y-94889642D01*
X133175473Y-94755488D01*
X133606374Y-94755488D01*
X133662671Y-94837162D01*
X133816054Y-94765836D01*
X134010780Y-94586455D01*
X134151593Y-94400379D01*
X134186039Y-94274998D01*
X134179814Y-94265604D01*
X134074779Y-94283261D01*
X133903222Y-94399975D01*
X133729700Y-94560594D01*
X133618772Y-94709966D01*
X133606374Y-94755488D01*
X133175473Y-94755488D01*
X133175551Y-94755349D01*
X133240800Y-94737849D01*
X133390513Y-94664205D01*
X133581302Y-94482358D01*
X133620282Y-94435181D01*
X133814340Y-94237194D01*
X133987810Y-94135251D01*
X134014114Y-94131596D01*
X134189003Y-94055279D01*
X134303275Y-93939867D01*
X134573656Y-93939867D01*
X134577500Y-94045292D01*
X134684786Y-94087883D01*
X134749496Y-94039986D01*
X134811914Y-93910548D01*
X134795404Y-93869243D01*
X134672955Y-93848702D01*
X134573656Y-93939867D01*
X134303275Y-93939867D01*
X134314741Y-93928287D01*
X134506441Y-93776494D01*
X138666135Y-93776494D01*
X138717482Y-93902439D01*
X138774920Y-93908891D01*
X138879471Y-93804419D01*
X138883705Y-93776494D01*
X138804922Y-93657839D01*
X138774920Y-93644097D01*
X138682646Y-93692946D01*
X138666135Y-93776494D01*
X134506441Y-93776494D01*
X134515737Y-93769133D01*
X134685292Y-93725896D01*
X134890625Y-93685035D01*
X134972510Y-93624701D01*
X135112353Y-93545651D01*
X135276095Y-93523506D01*
X135487998Y-93485308D01*
X135579681Y-93422311D01*
X135714489Y-93353389D01*
X135958815Y-93321395D01*
X135984462Y-93321116D01*
X136234406Y-93293850D01*
X136383642Y-93227453D01*
X136389243Y-93219920D01*
X136516757Y-93165535D01*
X136782623Y-93128801D01*
X137047012Y-93118725D01*
X137376773Y-93134690D01*
G37*
G36*
X164222172Y-93141483D02*
G01*
X164360443Y-93198239D01*
X164369721Y-93219920D01*
X164460733Y-93277647D01*
X164693437Y-93314287D01*
X164875697Y-93321116D01*
X165164328Y-93339318D01*
X165347527Y-93385859D01*
X165381673Y-93422311D01*
X165465623Y-93506926D01*
X165566913Y-93523506D01*
X165760654Y-93567621D01*
X166049971Y-93680191D01*
X166227236Y-93764024D01*
X166491993Y-93905053D01*
X166594146Y-93987906D01*
X166555111Y-94038661D01*
X166473821Y-94064295D01*
X166330571Y-94143194D01*
X166360710Y-94237945D01*
X166539630Y-94322460D01*
X166755914Y-94363355D01*
X167096068Y-94435286D01*
X167246632Y-94558587D01*
X167240468Y-94685463D01*
X167254864Y-94788317D01*
X167430159Y-94810908D01*
X167466530Y-94808716D01*
X167722916Y-94853207D01*
X167867458Y-95022589D01*
X168017764Y-95251436D01*
X168232888Y-95512124D01*
X168272559Y-95554531D01*
X168448771Y-95767550D01*
X168480499Y-95906034D01*
X168437101Y-95973098D01*
X168323995Y-96145086D01*
X168381640Y-96243205D01*
X168468127Y-96255777D01*
X168602795Y-96201134D01*
X168619920Y-96154582D01*
X168704676Y-96072362D01*
X168822310Y-96053387D01*
X168986477Y-95996585D01*
X169024701Y-95917141D01*
X168959128Y-95662370D01*
X168791803Y-95344836D01*
X168566822Y-95042102D01*
X168470740Y-94942693D01*
X168297980Y-94753314D01*
X168216157Y-94610331D01*
X168215139Y-94600237D01*
X168151492Y-94461710D01*
X167997321Y-94266181D01*
X167987450Y-94255579D01*
X167855252Y-94056526D01*
X167769309Y-93823623D01*
X167745451Y-93624170D01*
X167799504Y-93525463D01*
X167815271Y-93523506D01*
X167960745Y-93605945D01*
X168097979Y-93791657D01*
X168167047Y-93988238D01*
X168160083Y-94055209D01*
X168159808Y-94213181D01*
X168249704Y-94293785D01*
X168361284Y-94240163D01*
X168368949Y-94228609D01*
X168480626Y-94180285D01*
X168579579Y-94240385D01*
X168670403Y-94369911D01*
X168596663Y-94512884D01*
X168527351Y-94620629D01*
X168617426Y-94618107D01*
X168672916Y-94601354D01*
X168878885Y-94612104D01*
X168975708Y-94725026D01*
X169288945Y-95328999D01*
X169541377Y-95840529D01*
X169721993Y-96236027D01*
X169819777Y-96491900D01*
X169834263Y-96564070D01*
X169898124Y-96772076D01*
X169940335Y-96827348D01*
X169980867Y-96963726D01*
X170011824Y-97254600D01*
X170033245Y-97658568D01*
X170045166Y-98134231D01*
X170047622Y-98640187D01*
X170040651Y-99135036D01*
X170024289Y-99577377D01*
X169998573Y-99925809D01*
X169963539Y-100138931D01*
X169937374Y-100184886D01*
X169783518Y-100323454D01*
X169654196Y-100579245D01*
X169583060Y-100867299D01*
X169590098Y-101061677D01*
X169603336Y-101261051D01*
X169541647Y-101315538D01*
X169448663Y-101399604D01*
X169429482Y-101505538D01*
X169355984Y-101729126D01*
X169277689Y-101821514D01*
X169149094Y-101993802D01*
X169125896Y-102086893D01*
X169067073Y-102213408D01*
X169024701Y-102226295D01*
X168942481Y-102311051D01*
X168923506Y-102428685D01*
X168859316Y-102595023D01*
X168706093Y-102615991D01*
X168522859Y-102484211D01*
X168518725Y-102479283D01*
X168335495Y-102343873D01*
X168180907Y-102361381D01*
X168113984Y-102524431D01*
X168113944Y-102529881D01*
X168171364Y-102694034D01*
X168251704Y-102732271D01*
X168348117Y-102812221D01*
X168341102Y-102985259D01*
X168258148Y-103175531D01*
X168156833Y-103238247D01*
X168012955Y-103304727D01*
X167789480Y-103475431D01*
X167627527Y-103623856D01*
X167286983Y-103905532D01*
X166885794Y-104159790D01*
X166477159Y-104360569D01*
X166114275Y-104481807D01*
X165850338Y-104497443D01*
X165846298Y-104496466D01*
X165629572Y-104501355D01*
X165550357Y-104596855D01*
X165404108Y-104717449D01*
X165087236Y-104756175D01*
X164816717Y-104779519D01*
X164642747Y-104837555D01*
X164622709Y-104857371D01*
X164499808Y-104902516D01*
X164224331Y-104937283D01*
X163846026Y-104956435D01*
X163661354Y-104958566D01*
X163253765Y-104947870D01*
X162927293Y-104919274D01*
X162731685Y-104878014D01*
X162700000Y-104857371D01*
X162560157Y-104778320D01*
X162396414Y-104756175D01*
X162184511Y-104717977D01*
X162092828Y-104654980D01*
X161957162Y-104583977D01*
X161715945Y-104552368D01*
X161707374Y-104552293D01*
X161387272Y-104503718D01*
X161131474Y-104404846D01*
X160865074Y-104254641D01*
X160676095Y-104151847D01*
X160308530Y-103946614D01*
X161637450Y-103946614D01*
X161719819Y-104035424D01*
X161795215Y-104047809D01*
X161899958Y-103998750D01*
X161890438Y-103946614D01*
X161761064Y-103849279D01*
X161732673Y-103845418D01*
X161640175Y-103922604D01*
X161637450Y-103946614D01*
X160308530Y-103946614D01*
X160277489Y-103929282D01*
X160035098Y-103758094D01*
X159918782Y-103610708D01*
X159898403Y-103459550D01*
X159900597Y-103442366D01*
X159897728Y-103277416D01*
X159792974Y-103265400D01*
X159756670Y-103278168D01*
X159576574Y-103264651D01*
X159329228Y-103096198D01*
X159198766Y-102975495D01*
X158978748Y-102743061D01*
X158891702Y-102587064D01*
X158913377Y-102456495D01*
X158934424Y-102419462D01*
X159039578Y-102294290D01*
X159153621Y-102331519D01*
X159223750Y-102391650D01*
X159339189Y-102570313D01*
X159342412Y-102692470D01*
X159353338Y-102884593D01*
X159481039Y-103045238D01*
X159657802Y-103098324D01*
X159694991Y-103088620D01*
X159878149Y-103096855D01*
X160047579Y-103211117D01*
X160141171Y-103370819D01*
X160114250Y-103497587D01*
X160069188Y-103637673D01*
X160133934Y-103702533D01*
X160266088Y-103708094D01*
X160299074Y-103660945D01*
X160420748Y-103554456D01*
X160494529Y-103541833D01*
X160594386Y-103572242D01*
X160531779Y-103684616D01*
X160471087Y-103836163D01*
X160518540Y-103892455D01*
X160640443Y-103866588D01*
X160825231Y-103744223D01*
X161080876Y-103744223D01*
X161103817Y-103830856D01*
X161176099Y-103845418D01*
X161314556Y-103792584D01*
X161333864Y-103744223D01*
X161261234Y-103645924D01*
X161238641Y-103643028D01*
X161101589Y-103716587D01*
X161080876Y-103744223D01*
X160825231Y-103744223D01*
X160826744Y-103743221D01*
X160993899Y-103592430D01*
X165381673Y-103592430D01*
X165433019Y-103718375D01*
X165490458Y-103724827D01*
X165595009Y-103620355D01*
X165599243Y-103592430D01*
X165579086Y-103562072D01*
X167203187Y-103562072D01*
X167231788Y-103635228D01*
X167358196Y-103614421D01*
X167447899Y-103581604D01*
X167567275Y-103475753D01*
X167610044Y-103333127D01*
X167555766Y-103242434D01*
X167527012Y-103238247D01*
X167380920Y-103311143D01*
X167242063Y-103462576D01*
X167203187Y-103562072D01*
X165579086Y-103562072D01*
X165520460Y-103473776D01*
X165490458Y-103460033D01*
X165398184Y-103508882D01*
X165381673Y-103592430D01*
X160993899Y-103592430D01*
X161009715Y-103578162D01*
X161121625Y-103427220D01*
X161131474Y-103387411D01*
X161059157Y-103257694D01*
X160930323Y-103137052D01*
X161485657Y-103137052D01*
X161493680Y-103230302D01*
X161530282Y-103238247D01*
X161633332Y-103164788D01*
X161637450Y-103137052D01*
X161602924Y-103038488D01*
X161592825Y-103035857D01*
X161506427Y-103106768D01*
X161485657Y-103137052D01*
X160930323Y-103137052D01*
X160903883Y-103112293D01*
X160758166Y-103036377D01*
X160749605Y-103035857D01*
X160738640Y-103030210D01*
X161074853Y-103030210D01*
X161100493Y-103072340D01*
X161247390Y-103133899D01*
X161330927Y-103025587D01*
X161333864Y-102985259D01*
X161282390Y-102850545D01*
X161238641Y-102833466D01*
X161106499Y-102900423D01*
X161074853Y-103030210D01*
X160738640Y-103030210D01*
X160591164Y-102954257D01*
X160429883Y-102764773D01*
X160330271Y-102550373D01*
X160321912Y-102485787D01*
X160265400Y-102355852D01*
X160180892Y-102359951D01*
X160027980Y-102328021D01*
X159833840Y-102190659D01*
X159670493Y-102010170D01*
X159609433Y-101865589D01*
X159546036Y-101737256D01*
X159390851Y-101523698D01*
X159305847Y-101420556D01*
X159123029Y-101168799D01*
X159017043Y-100949547D01*
X159006374Y-100889281D01*
X158959541Y-100736880D01*
X158905179Y-100708367D01*
X158828447Y-100621952D01*
X158803984Y-100461351D01*
X158770962Y-100250110D01*
X158713969Y-100158703D01*
X158635116Y-100016321D01*
X158562311Y-99722492D01*
X158550203Y-99645817D01*
X158702789Y-99645817D01*
X158730364Y-99905794D01*
X158815017Y-99978288D01*
X158829283Y-99974701D01*
X158921134Y-99853996D01*
X158955777Y-99645817D01*
X158916032Y-99424371D01*
X158829283Y-99316932D01*
X158737520Y-99367232D01*
X158703187Y-99604103D01*
X158702789Y-99645817D01*
X158550203Y-99645817D01*
X158500039Y-99328156D01*
X158452782Y-98884251D01*
X158425023Y-98441714D01*
X158421245Y-98051484D01*
X158445932Y-97764501D01*
X158453498Y-97744209D01*
X158743956Y-97744209D01*
X158757708Y-97780698D01*
X158855397Y-97870428D01*
X158903200Y-97768228D01*
X158905179Y-97717135D01*
X158855391Y-97612909D01*
X158802333Y-97622933D01*
X158743956Y-97744209D01*
X158453498Y-97744209D01*
X158492311Y-97640119D01*
X158574941Y-97462636D01*
X158601593Y-97257766D01*
X158648009Y-97026010D01*
X158768787Y-96696714D01*
X158911974Y-96392547D01*
X159121142Y-96005625D01*
X159264291Y-95778300D01*
X159361220Y-95686873D01*
X159431728Y-95707646D01*
X159456303Y-95740984D01*
X159575936Y-95859080D01*
X159655208Y-95803755D01*
X159671817Y-95603170D01*
X159655972Y-95488845D01*
X159631649Y-95260382D01*
X159663883Y-95145448D01*
X159941734Y-95145448D01*
X159976123Y-95257407D01*
X160053725Y-95334028D01*
X160097992Y-95257815D01*
X160098545Y-95142630D01*
X160271314Y-95142630D01*
X160294255Y-95229263D01*
X160366537Y-95243825D01*
X160504994Y-95190991D01*
X160524303Y-95142630D01*
X160451672Y-95044331D01*
X160429080Y-95041434D01*
X160292027Y-95114993D01*
X160271314Y-95142630D01*
X160098545Y-95142630D01*
X160098750Y-95099835D01*
X160079465Y-95068841D01*
X159982142Y-95045262D01*
X159941734Y-95145448D01*
X159663883Y-95145448D01*
X159682394Y-95079445D01*
X159838379Y-94874370D01*
X159975509Y-94729881D01*
X160219268Y-94508008D01*
X160429511Y-94363989D01*
X160520498Y-94333068D01*
X160693653Y-94254732D01*
X160804403Y-94130677D01*
X160963944Y-93971106D01*
X161085676Y-93928287D01*
X161168488Y-93956700D01*
X161109229Y-94065436D01*
X161034221Y-94149759D01*
X160883705Y-94360605D01*
X160826339Y-94529241D01*
X160810995Y-94633942D01*
X160742909Y-94557976D01*
X160728475Y-94535458D01*
X160640765Y-94451819D01*
X160523902Y-94502239D01*
X160401140Y-94617462D01*
X160170119Y-94851259D01*
X160470108Y-94819853D01*
X160697888Y-94829408D01*
X160797434Y-94943562D01*
X160809095Y-94990837D01*
X160905194Y-95212423D01*
X161058021Y-95420916D01*
X161267949Y-95648606D01*
X161025659Y-95906511D01*
X160783369Y-96164417D01*
X160514015Y-95855914D01*
X160373691Y-95730827D01*
X160648688Y-95730827D01*
X160692731Y-95834054D01*
X160768858Y-95850996D01*
X160908259Y-95769518D01*
X160929083Y-95690770D01*
X160870095Y-95579952D01*
X160748720Y-95597622D01*
X160648688Y-95730827D01*
X160373691Y-95730827D01*
X160243338Y-95614628D01*
X160023392Y-95566489D01*
X159857563Y-95711733D01*
X159813353Y-95807193D01*
X159700718Y-95992118D01*
X159539089Y-96010524D01*
X159512272Y-96002764D01*
X159347002Y-95996238D01*
X159309960Y-96091193D01*
X159370162Y-96267145D01*
X159412987Y-96307507D01*
X159437981Y-96430548D01*
X159329542Y-96642364D01*
X159211378Y-96896270D01*
X159157012Y-97249673D01*
X159150619Y-97569614D01*
X159159072Y-97923611D01*
X159188694Y-98125812D01*
X159261296Y-98226812D01*
X159398690Y-98277205D01*
X159461753Y-98291307D01*
X159633162Y-98338704D01*
X159649394Y-98367489D01*
X159638844Y-98368904D01*
X159536878Y-98464328D01*
X159512350Y-98590086D01*
X159552727Y-98741339D01*
X159706427Y-98737654D01*
X159714741Y-98735060D01*
X159877710Y-98725382D01*
X159917131Y-98778838D01*
X159827374Y-98846471D01*
X159603143Y-98884095D01*
X159512350Y-98886853D01*
X159107569Y-98886853D01*
X159107569Y-99329873D01*
X159145218Y-99710106D01*
X159238058Y-100080322D01*
X159260720Y-100139435D01*
X159342614Y-100396844D01*
X159317682Y-100502627D01*
X159192513Y-100444390D01*
X159129495Y-100386228D01*
X158999134Y-100293366D01*
X158964771Y-100361360D01*
X159025036Y-100573632D01*
X159171938Y-100900359D01*
X159341281Y-101205357D01*
X159463599Y-101336570D01*
X159547888Y-101320479D01*
X159603622Y-101169294D01*
X159535115Y-101010800D01*
X159416413Y-100781930D01*
X159419612Y-100700104D01*
X159521108Y-100771689D01*
X159676980Y-100972532D01*
X159891864Y-101269487D01*
X160064664Y-101428051D01*
X160254404Y-101485157D01*
X160488470Y-101480330D01*
X160761014Y-101524428D01*
X160886071Y-101701468D01*
X160855288Y-101997413D01*
X160833378Y-102060064D01*
X160757763Y-102317894D01*
X160803300Y-102447910D01*
X160992904Y-102499246D01*
X161040238Y-102503612D01*
X161341451Y-102591967D01*
X161558527Y-102731302D01*
X161816487Y-102883612D01*
X162055340Y-102934661D01*
X162281843Y-102967909D01*
X162396414Y-103035857D01*
X162526381Y-103095133D01*
X162786064Y-103131555D01*
X162948133Y-103137052D01*
X163300863Y-103105993D01*
X163483258Y-102997858D01*
X163519858Y-102790207D01*
X163490837Y-102640836D01*
X163491975Y-102466852D01*
X163596277Y-102443404D01*
X163761962Y-102579771D01*
X163762550Y-102580478D01*
X163924486Y-102716512D01*
X164023165Y-102697703D01*
X164016361Y-102532495D01*
X164015538Y-102529881D01*
X164005859Y-102366911D01*
X164059316Y-102327490D01*
X164124994Y-102418297D01*
X164163088Y-102649983D01*
X164167330Y-102776896D01*
X164201477Y-103128555D01*
X164301043Y-103298491D01*
X164461719Y-103281097D01*
X164521802Y-103238008D01*
X164740005Y-103167681D01*
X164972747Y-103186739D01*
X165192893Y-103212504D01*
X165223571Y-103187649D01*
X166191235Y-103187649D01*
X166245877Y-103322317D01*
X166292430Y-103339442D01*
X166382208Y-103257479D01*
X166393625Y-103187649D01*
X166338983Y-103052982D01*
X166292430Y-103035857D01*
X166202652Y-103117820D01*
X166191235Y-103187649D01*
X165223571Y-103187649D01*
X165275168Y-103145846D01*
X165280478Y-103094495D01*
X165329108Y-103016883D01*
X167732354Y-103016883D01*
X167776396Y-103120110D01*
X167852523Y-103137052D01*
X167991924Y-103055574D01*
X168012749Y-102976826D01*
X167953761Y-102866007D01*
X167832385Y-102883678D01*
X167732354Y-103016883D01*
X165329108Y-103016883D01*
X165363716Y-102961651D01*
X165467321Y-102934661D01*
X165770256Y-102864741D01*
X165929519Y-102782869D01*
X166393625Y-102782869D01*
X166448268Y-102917536D01*
X166494820Y-102934661D01*
X166584599Y-102852698D01*
X166596016Y-102782869D01*
X166541373Y-102648201D01*
X166494820Y-102631076D01*
X166405042Y-102713040D01*
X166393625Y-102782869D01*
X165929519Y-102782869D01*
X166121123Y-102684372D01*
X166437165Y-102437645D01*
X166477587Y-102396432D01*
X166570386Y-102241979D01*
X168518725Y-102241979D01*
X168576860Y-102324814D01*
X168722281Y-102265982D01*
X168857445Y-102142186D01*
X168960676Y-101978429D01*
X168957237Y-101888978D01*
X168846889Y-101897884D01*
X168687511Y-102004992D01*
X168554962Y-102149235D01*
X168518725Y-102241979D01*
X166570386Y-102241979D01*
X166629366Y-102143814D01*
X166609731Y-101922656D01*
X166436399Y-101781917D01*
X166312416Y-101642039D01*
X166315323Y-101409583D01*
X166438609Y-101157788D01*
X166541694Y-101039894D01*
X166637522Y-101038046D01*
X166789634Y-101164402D01*
X166866388Y-101239642D01*
X167013977Y-101412064D01*
X167045412Y-101509696D01*
X167023795Y-101517928D01*
X166907896Y-101582853D01*
X166899601Y-101619124D01*
X166969946Y-101710676D01*
X167126711Y-101697352D01*
X167288498Y-101587403D01*
X167295712Y-101578973D01*
X167483344Y-101481156D01*
X167594823Y-101485170D01*
X167723791Y-101479207D01*
X167772650Y-101338050D01*
X167776627Y-101220911D01*
X167836060Y-100972904D01*
X167923784Y-100972904D01*
X167948791Y-101112620D01*
X167976266Y-101144128D01*
X168102411Y-101164594D01*
X168204691Y-101062027D01*
X168215139Y-101005980D01*
X168133086Y-100921471D01*
X168063346Y-100910757D01*
X167923784Y-100972904D01*
X167836060Y-100972904D01*
X167855425Y-100892095D01*
X167995883Y-100675722D01*
X168154381Y-100428837D01*
X168215139Y-100190809D01*
X168255860Y-99953760D01*
X168323238Y-99831184D01*
X168385546Y-99666983D01*
X168402996Y-99397450D01*
X168399134Y-99330268D01*
X168360163Y-99070521D01*
X168261248Y-98943717D01*
X168043467Y-98880411D01*
X168012749Y-98874875D01*
X167817919Y-98831926D01*
X167772993Y-98802789D01*
X167792288Y-98798979D01*
X167956315Y-98730022D01*
X168110479Y-98595916D01*
X168189962Y-98461771D01*
X168178162Y-98411362D01*
X168196488Y-98312533D01*
X168281109Y-98230357D01*
X168378695Y-98069819D01*
X168434859Y-97809708D01*
X168446059Y-97525367D01*
X168408750Y-97292142D01*
X168330134Y-97188000D01*
X168234078Y-97068331D01*
X168215139Y-96955711D01*
X168182009Y-96795362D01*
X168139243Y-96760964D01*
X168022205Y-96673429D01*
X167957695Y-96535765D01*
X168156359Y-96535765D01*
X168169883Y-96568006D01*
X168292737Y-96618142D01*
X168324977Y-96604619D01*
X168364095Y-96508765D01*
X168721115Y-96508765D01*
X168772462Y-96634710D01*
X168829900Y-96641162D01*
X168934451Y-96536690D01*
X168938685Y-96508765D01*
X168859902Y-96390110D01*
X168829900Y-96376368D01*
X168737626Y-96425217D01*
X168721115Y-96508765D01*
X168364095Y-96508765D01*
X168375114Y-96481765D01*
X168361590Y-96449524D01*
X168238737Y-96399388D01*
X168206496Y-96412912D01*
X168156359Y-96535765D01*
X167957695Y-96535765D01*
X167928149Y-96472714D01*
X167886022Y-96247938D01*
X167921843Y-96091586D01*
X167988481Y-95924482D01*
X167928436Y-95816542D01*
X167788530Y-95831562D01*
X167750751Y-95858473D01*
X167636565Y-95918844D01*
X167607968Y-95809613D01*
X167529280Y-95633620D01*
X167348710Y-95570561D01*
X167160310Y-95642198D01*
X167012508Y-95703369D01*
X166952216Y-95651869D01*
X166828158Y-95590357D01*
X166786500Y-95605367D01*
X166750308Y-95721935D01*
X166798406Y-95800398D01*
X166857153Y-95943887D01*
X166778975Y-96010714D01*
X166620476Y-95983453D01*
X166488444Y-95895823D01*
X166317796Y-95677674D01*
X166338489Y-95475617D01*
X166457714Y-95337430D01*
X167121387Y-95337430D01*
X167170236Y-95429704D01*
X167253785Y-95446215D01*
X167379729Y-95394869D01*
X167386182Y-95337430D01*
X167325234Y-95276436D01*
X167514398Y-95276436D01*
X167574236Y-95378752D01*
X167718651Y-95443585D01*
X167802480Y-95329421D01*
X167810358Y-95243825D01*
X167747084Y-95078999D01*
X167658565Y-95041434D01*
X167531144Y-95116607D01*
X167514398Y-95276436D01*
X167325234Y-95276436D01*
X167281710Y-95232879D01*
X167253785Y-95228645D01*
X167135130Y-95307428D01*
X167121387Y-95337430D01*
X166457714Y-95337430D01*
X166494820Y-95294422D01*
X166658683Y-95041964D01*
X166646833Y-94776429D01*
X166480012Y-94533400D01*
X166178963Y-94348461D01*
X165899190Y-94272578D01*
X165642001Y-94212471D01*
X165495670Y-94141481D01*
X165482868Y-94117744D01*
X165396375Y-94050795D01*
X165235852Y-94029482D01*
X165021582Y-93992170D01*
X165001766Y-93978885D01*
X165584063Y-93978885D01*
X165635410Y-94104829D01*
X165692848Y-94111282D01*
X165797399Y-94006810D01*
X165801633Y-93978885D01*
X165988844Y-93978885D01*
X166040191Y-94104829D01*
X166097629Y-94111282D01*
X166202180Y-94006810D01*
X166206414Y-93978885D01*
X166127632Y-93860230D01*
X166097629Y-93846487D01*
X166005355Y-93895336D01*
X165988844Y-93978885D01*
X165801633Y-93978885D01*
X165722851Y-93860230D01*
X165692848Y-93846487D01*
X165600575Y-93895336D01*
X165584063Y-93978885D01*
X165001766Y-93978885D01*
X164926295Y-93928287D01*
X164771276Y-93844695D01*
X164517685Y-93840536D01*
X164250547Y-93910080D01*
X164122172Y-93982482D01*
X163993248Y-94120554D01*
X164035372Y-94241196D01*
X164046275Y-94252491D01*
X164153161Y-94458287D01*
X164143115Y-94678926D01*
X164055294Y-94795147D01*
X163986357Y-94787133D01*
X164011515Y-94649326D01*
X164026913Y-94480088D01*
X163910335Y-94434263D01*
X163789220Y-94494457D01*
X163795931Y-94577681D01*
X163772760Y-94731607D01*
X163715512Y-94773077D01*
X163601629Y-94728719D01*
X163518032Y-94491043D01*
X163510456Y-94452568D01*
X163437285Y-94171877D01*
X163348878Y-93970710D01*
X163336322Y-93953586D01*
X163164781Y-93861079D01*
X162917237Y-93829891D01*
X162691748Y-93863386D01*
X162598804Y-93928287D01*
X162458961Y-94007337D01*
X162295219Y-94029482D01*
X162083316Y-94067681D01*
X161991633Y-94130677D01*
X161850076Y-94213241D01*
X161715342Y-94231873D01*
X161475876Y-94297321D01*
X161301749Y-94408964D01*
X161163893Y-94515061D01*
X161137946Y-94477370D01*
X161149461Y-94434263D01*
X161269275Y-94282394D01*
X161467831Y-94150454D01*
X161675698Y-94012114D01*
X161731146Y-93893789D01*
X161623436Y-93830313D01*
X161567511Y-93827092D01*
X161461955Y-93811239D01*
X161487895Y-93776494D01*
X161941036Y-93776494D01*
X162011293Y-93890171D01*
X162153643Y-93901285D01*
X162265448Y-93809410D01*
X162275265Y-93777880D01*
X162209969Y-93677930D01*
X162118127Y-93643966D01*
X161967633Y-93683434D01*
X161941036Y-93776494D01*
X161487895Y-93776494D01*
X161516231Y-93738539D01*
X161592810Y-93678517D01*
X161670062Y-93640982D01*
X162605448Y-93640982D01*
X162785446Y-93713835D01*
X162969854Y-93725896D01*
X163198421Y-93678416D01*
X163256573Y-93574104D01*
X164774502Y-93574104D01*
X164858379Y-93698324D01*
X164970920Y-93725896D01*
X165165188Y-93773164D01*
X165230900Y-93828742D01*
X165356287Y-93884492D01*
X165395258Y-93869294D01*
X165415854Y-93756823D01*
X165321984Y-93614655D01*
X165123287Y-93469164D01*
X164925651Y-93427946D01*
X164794595Y-93495853D01*
X164774502Y-93574104D01*
X163256573Y-93574104D01*
X163172106Y-93474050D01*
X162977810Y-93422395D01*
X162762342Y-93427978D01*
X162614359Y-93499639D01*
X162607528Y-93509391D01*
X162605448Y-93640982D01*
X161670062Y-93640982D01*
X161841950Y-93557465D01*
X162010960Y-93526724D01*
X162215222Y-93482689D01*
X162295219Y-93422311D01*
X162308058Y-93416664D01*
X163604734Y-93416664D01*
X163630374Y-93458794D01*
X163777270Y-93520353D01*
X163860808Y-93412041D01*
X163863745Y-93371713D01*
X163812271Y-93236999D01*
X163768522Y-93219920D01*
X163636379Y-93286877D01*
X163604734Y-93416664D01*
X162308058Y-93416664D01*
X162423823Y-93365749D01*
X162687048Y-93329021D01*
X162902390Y-93321116D01*
X163217555Y-93303715D01*
X163442848Y-93259024D01*
X163509561Y-93219920D01*
X163642244Y-93155237D01*
X163893921Y-93120574D01*
X163970912Y-93118725D01*
X164222172Y-93141483D01*
G37*
G36*
X144702130Y-90184572D02*
G01*
X146760836Y-90186121D01*
X148626574Y-90188743D01*
X150304051Y-90192473D01*
X151797978Y-90197343D01*
X153113063Y-90203389D01*
X154254017Y-90210644D01*
X155225549Y-90219142D01*
X156032367Y-90228916D01*
X156679182Y-90240001D01*
X157170703Y-90252430D01*
X157511639Y-90266237D01*
X157706699Y-90281456D01*
X157760371Y-90294076D01*
X157882522Y-90349362D01*
X157938375Y-90294076D01*
X158021330Y-90274862D01*
X158248822Y-90257661D01*
X158626322Y-90242417D01*
X159159297Y-90229075D01*
X159853215Y-90217581D01*
X160713547Y-90207878D01*
X161745760Y-90199912D01*
X162955323Y-90193626D01*
X164347705Y-90188967D01*
X165928375Y-90185878D01*
X167702801Y-90184304D01*
X168818809Y-90184064D01*
X170532472Y-90184166D01*
X172054969Y-90184600D01*
X173397523Y-90185559D01*
X174571358Y-90187233D01*
X175587698Y-90189816D01*
X176457767Y-90193499D01*
X177192788Y-90198475D01*
X177803985Y-90204934D01*
X178302582Y-90213070D01*
X178699804Y-90223075D01*
X179006873Y-90235139D01*
X179235013Y-90249457D01*
X179395449Y-90266218D01*
X179499404Y-90285616D01*
X179558102Y-90307843D01*
X179582766Y-90333089D01*
X179584621Y-90361549D01*
X179583092Y-90368225D01*
X179613251Y-90578825D01*
X179693761Y-90684201D01*
X179722687Y-90724053D01*
X179747921Y-90801005D01*
X179769709Y-90927973D01*
X179788298Y-91117871D01*
X179803936Y-91383615D01*
X179816869Y-91738121D01*
X179827344Y-92194302D01*
X179835608Y-92765074D01*
X179841908Y-93463353D01*
X179846490Y-94302053D01*
X179849601Y-95294090D01*
X179851488Y-96452379D01*
X179852399Y-97789835D01*
X179852589Y-98994466D01*
X179851449Y-100676124D01*
X179848003Y-102158517D01*
X179842210Y-103444757D01*
X179834030Y-104537959D01*
X179823423Y-105441233D01*
X179810350Y-106157693D01*
X179794769Y-106690453D01*
X179776642Y-107042623D01*
X179755927Y-107217319D01*
X179746480Y-107238495D01*
X179696983Y-107349359D01*
X179749063Y-107435040D01*
X179792848Y-107562041D01*
X179695103Y-107628421D01*
X179443463Y-107688334D01*
X179256767Y-107670450D01*
X179194272Y-107582673D01*
X179199869Y-107562378D01*
X179172186Y-107434375D01*
X179064983Y-107158249D01*
X178892045Y-106765474D01*
X178667161Y-106287528D01*
X178437729Y-105822444D01*
X178174851Y-105290476D01*
X178013706Y-104950976D01*
X178151666Y-104950976D01*
X178200515Y-105043250D01*
X178284063Y-105059761D01*
X178410008Y-105008415D01*
X178416461Y-104950976D01*
X178311988Y-104846425D01*
X178284063Y-104842191D01*
X178165409Y-104920974D01*
X178151666Y-104950976D01*
X178013706Y-104950976D01*
X177947489Y-104811471D01*
X177770519Y-104418320D01*
X177658816Y-104143918D01*
X177626295Y-104028194D01*
X177591354Y-103874148D01*
X177550398Y-103844629D01*
X177453326Y-103763942D01*
X177363099Y-103616940D01*
X177244766Y-103378958D01*
X177070142Y-103031193D01*
X176874768Y-102644222D01*
X176697058Y-102294262D01*
X176668476Y-102060706D01*
X176724148Y-101962932D01*
X176785330Y-101787744D01*
X176671719Y-101680611D01*
X176585120Y-101669721D01*
X176482354Y-101587143D01*
X176331239Y-101378703D01*
X176165944Y-101103346D01*
X176020638Y-100820016D01*
X175929488Y-100587655D01*
X175915142Y-100513944D01*
X175971161Y-100331811D01*
X176073453Y-100185060D01*
X176183010Y-100047949D01*
X176150421Y-100003325D01*
X176078481Y-100000000D01*
X175897160Y-100079202D01*
X175812886Y-100177092D01*
X175738558Y-100277677D01*
X175710570Y-100205661D01*
X175706663Y-100088287D01*
X175648808Y-99838073D01*
X175549925Y-99694865D01*
X175404955Y-99520229D01*
X175250483Y-99258820D01*
X175230332Y-99217661D01*
X175132382Y-98972076D01*
X175139860Y-98838675D01*
X175194567Y-98787538D01*
X175270893Y-98654050D01*
X175252162Y-98589667D01*
X175151003Y-98524375D01*
X175036807Y-98590744D01*
X174931681Y-98643326D01*
X174895807Y-98533462D01*
X174894024Y-98456256D01*
X174838575Y-98212609D01*
X174747137Y-98081363D01*
X174645903Y-97955328D01*
X178734968Y-97955328D01*
X178735137Y-98958555D01*
X178737875Y-99954008D01*
X178743173Y-100920673D01*
X178751020Y-101837534D01*
X178761405Y-102683578D01*
X178774318Y-103437789D01*
X178789749Y-104079152D01*
X178807686Y-104586654D01*
X178828119Y-104939280D01*
X178851039Y-105116014D01*
X178857403Y-105130560D01*
X179055777Y-105254259D01*
X179251463Y-105187181D01*
X179343053Y-105066414D01*
X179386870Y-104886470D01*
X179421685Y-104556860D01*
X179443116Y-104130255D01*
X179447808Y-103807446D01*
X179456978Y-103349168D01*
X179481975Y-102981108D01*
X179519034Y-102745160D01*
X179549004Y-102681673D01*
X179575203Y-102564163D01*
X179597699Y-102250172D01*
X179616365Y-101745579D01*
X179631074Y-101056262D01*
X179641700Y-100188100D01*
X179648116Y-99146971D01*
X179650199Y-97976096D01*
X179647991Y-96772641D01*
X179641450Y-95736446D01*
X179630704Y-94873389D01*
X179615878Y-94189347D01*
X179597100Y-93690200D01*
X179574495Y-93381825D01*
X179549004Y-93270518D01*
X179506622Y-93147415D01*
X179473537Y-92860663D01*
X179453008Y-92448915D01*
X179447808Y-92070442D01*
X179438255Y-91499760D01*
X179405003Y-91103574D01*
X179341161Y-90854692D01*
X179239841Y-90725918D01*
X179098089Y-90690040D01*
X178988358Y-90773303D01*
X178864947Y-90975971D01*
X178854898Y-90998055D01*
X178771614Y-91276390D01*
X178815120Y-91534986D01*
X178842510Y-91605317D01*
X178913934Y-91860485D01*
X178861916Y-92029866D01*
X178850842Y-92043880D01*
X178827406Y-92171412D01*
X178806635Y-92480302D01*
X178788518Y-92949535D01*
X178773045Y-93558098D01*
X178760206Y-94284974D01*
X178749989Y-95109150D01*
X178742384Y-96009611D01*
X178737381Y-96965342D01*
X178734968Y-97955328D01*
X174645903Y-97955328D01*
X174604695Y-97904025D01*
X174432300Y-97611314D01*
X174264864Y-97273803D01*
X174137301Y-96962062D01*
X174103326Y-96823395D01*
X174198077Y-96823395D01*
X174223199Y-96963349D01*
X174253121Y-96997875D01*
X174401237Y-97062335D01*
X174485849Y-96957010D01*
X174489243Y-96913546D01*
X174408239Y-96779384D01*
X174337450Y-96761753D01*
X174198077Y-96823395D01*
X174103326Y-96823395D01*
X174084526Y-96746665D01*
X174084462Y-96741884D01*
X174043790Y-96588468D01*
X173996030Y-96559363D01*
X173914402Y-96474262D01*
X173799280Y-96289509D01*
X174118194Y-96289509D01*
X174132085Y-96349669D01*
X174185657Y-96356972D01*
X174268952Y-96319946D01*
X174253121Y-96289509D01*
X174133026Y-96277398D01*
X174118194Y-96289509D01*
X173799280Y-96289509D01*
X173774143Y-96249168D01*
X173598004Y-95929396D01*
X173476916Y-95693231D01*
X173679681Y-95693231D01*
X173732515Y-95831688D01*
X173780876Y-95850996D01*
X173879175Y-95778365D01*
X173882071Y-95755773D01*
X173808513Y-95618721D01*
X173780876Y-95598008D01*
X173694243Y-95620949D01*
X173679681Y-95693231D01*
X173476916Y-95693231D01*
X173408737Y-95560259D01*
X173229095Y-95187073D01*
X173081830Y-94855150D01*
X172989693Y-94609806D01*
X172970133Y-94516132D01*
X172915502Y-94331311D01*
X172865205Y-94279433D01*
X172819760Y-94165534D01*
X172877596Y-94071071D01*
X172941072Y-93898442D01*
X172886745Y-93796527D01*
X172822507Y-93600010D01*
X172835559Y-93442344D01*
X172851482Y-93256954D01*
X172762278Y-93242384D01*
X172603052Y-93371336D01*
X172488095Y-93452366D01*
X172374023Y-93410636D01*
X172205500Y-93230234D01*
X172045288Y-93020188D01*
X171962890Y-92873967D01*
X172266041Y-92873967D01*
X172280255Y-93046492D01*
X172366648Y-93118725D01*
X172473941Y-93034699D01*
X172571870Y-92851703D01*
X172638679Y-92618144D01*
X172590142Y-92534520D01*
X172429225Y-92570596D01*
X172318959Y-92686759D01*
X172266041Y-92873967D01*
X171962890Y-92873967D01*
X171962485Y-92873249D01*
X171959362Y-92856666D01*
X171895459Y-92736549D01*
X171738186Y-92545516D01*
X171703227Y-92508269D01*
X171552592Y-92282832D01*
X171509281Y-92070103D01*
X171576898Y-91929490D01*
X171666603Y-91904383D01*
X171755694Y-91855594D01*
X171694536Y-91737444D01*
X171539909Y-91615119D01*
X171387315Y-91532262D01*
X171361399Y-91572064D01*
X171382102Y-91633976D01*
X171366302Y-91824277D01*
X171309005Y-91898232D01*
X171148864Y-91934536D01*
X170999268Y-91768810D01*
X170915115Y-91573979D01*
X170775765Y-91399930D01*
X170616960Y-91306235D01*
X170373019Y-91167609D01*
X170245542Y-91052053D01*
X170084081Y-90901165D01*
X169824567Y-90699794D01*
X169662755Y-90586132D01*
X169216945Y-90285259D01*
X163757476Y-90285259D01*
X162415689Y-90287126D01*
X161257463Y-90292689D01*
X160285702Y-90301896D01*
X159503305Y-90314693D01*
X158913174Y-90331026D01*
X158518209Y-90350840D01*
X158321313Y-90374083D01*
X158298008Y-90386454D01*
X158214415Y-90472077D01*
X158119636Y-90487649D01*
X157935695Y-90563255D01*
X157752308Y-90739266D01*
X157566299Y-90917069D01*
X157355065Y-90937135D01*
X157306869Y-90926510D01*
X157128024Y-90901059D01*
X157096794Y-90973347D01*
X157116135Y-91033475D01*
X157095078Y-91213237D01*
X156902228Y-91447909D01*
X156829189Y-91514483D01*
X156617689Y-91722988D01*
X156490508Y-91892308D01*
X156474171Y-91940164D01*
X156405204Y-92062364D01*
X156224884Y-92279951D01*
X155969472Y-92549848D01*
X155917597Y-92601373D01*
X155652218Y-92879359D01*
X155456119Y-93117059D01*
X155365620Y-93269710D01*
X155363346Y-93284441D01*
X155303961Y-93409919D01*
X155262151Y-93422311D01*
X155173061Y-93504564D01*
X155160956Y-93578335D01*
X155096031Y-93762281D01*
X154958565Y-93951600D01*
X154811155Y-94150862D01*
X154756175Y-94298474D01*
X154709452Y-94464272D01*
X154593305Y-94715584D01*
X154553785Y-94788446D01*
X154423148Y-95066998D01*
X154354463Y-95303122D01*
X154351394Y-95342126D01*
X154304220Y-95534565D01*
X154250199Y-95598008D01*
X154181277Y-95732816D01*
X154149283Y-95977143D01*
X154149004Y-96002789D01*
X154121738Y-96252733D01*
X154055341Y-96401969D01*
X154047808Y-96407570D01*
X153978886Y-96542378D01*
X153946893Y-96786704D01*
X153946613Y-96812351D01*
X153919348Y-97062295D01*
X153852950Y-97211531D01*
X153845418Y-97217132D01*
X153806146Y-97340166D01*
X153775069Y-97638188D01*
X153753948Y-98083895D01*
X153744544Y-98649986D01*
X153744223Y-98785657D01*
X153750859Y-99374203D01*
X153769594Y-99848272D01*
X153798667Y-100180562D01*
X153836315Y-100343773D01*
X153845418Y-100354183D01*
X153914340Y-100488991D01*
X153946334Y-100733318D01*
X153946613Y-100758964D01*
X153973879Y-101008908D01*
X154040276Y-101158144D01*
X154047808Y-101163745D01*
X154121302Y-101300837D01*
X154149004Y-101517928D01*
X154180812Y-101749392D01*
X154250199Y-101872112D01*
X154323107Y-102008912D01*
X154351394Y-102232267D01*
X154381247Y-102442829D01*
X154452589Y-102529881D01*
X154534809Y-102614636D01*
X154553785Y-102732271D01*
X154596163Y-102896710D01*
X154654980Y-102934661D01*
X154737199Y-103019417D01*
X154756175Y-103137052D01*
X154798553Y-103301491D01*
X154857370Y-103339442D01*
X154949769Y-103420203D01*
X154958565Y-103475551D01*
X155027927Y-103640687D01*
X155160956Y-103794821D01*
X155312705Y-103973110D01*
X155363346Y-104098406D01*
X155432181Y-104250994D01*
X155565737Y-104401992D01*
X155717363Y-104578672D01*
X155768127Y-104701411D01*
X155835675Y-104835997D01*
X156006711Y-105043411D01*
X156110611Y-105149617D01*
X156339318Y-105416113D01*
X156407247Y-105628566D01*
X156397930Y-105692512D01*
X156385281Y-105842740D01*
X156491422Y-105845702D01*
X156523652Y-105834048D01*
X156759609Y-105840364D01*
X156973013Y-106021168D01*
X157091702Y-106244646D01*
X157212385Y-106422964D01*
X157325666Y-106476494D01*
X157463184Y-106560390D01*
X157598517Y-106763948D01*
X157605862Y-106780080D01*
X157739368Y-107020144D01*
X157853159Y-107071871D01*
X157948528Y-106974860D01*
X158066687Y-106947313D01*
X158232787Y-107059382D01*
X158471108Y-107230401D01*
X158776724Y-107401093D01*
X158829283Y-107425924D01*
X159064862Y-107540926D01*
X159197830Y-107620330D01*
X159208765Y-107633501D01*
X159123214Y-107670714D01*
X158928216Y-107708271D01*
X158716251Y-107732830D01*
X158579798Y-107731053D01*
X158569067Y-107725774D01*
X158465154Y-107720265D01*
X158175808Y-107714888D01*
X157717988Y-107709741D01*
X157108650Y-107704918D01*
X156364752Y-107700516D01*
X155503253Y-107696630D01*
X154541110Y-107693356D01*
X153495281Y-107690791D01*
X152382723Y-107689029D01*
X151995463Y-107688633D01*
X150863477Y-107686331D01*
X149791924Y-107681623D01*
X148797838Y-107674748D01*
X147898252Y-107665944D01*
X147110202Y-107655450D01*
X146450720Y-107643505D01*
X145936842Y-107630346D01*
X145585600Y-107616213D01*
X145414030Y-107601344D01*
X145399707Y-107596260D01*
X145428882Y-107492434D01*
X145435578Y-107488446D01*
X158399203Y-107488446D01*
X158436229Y-107571741D01*
X158466666Y-107555910D01*
X158478777Y-107435815D01*
X158466666Y-107420983D01*
X158406506Y-107434874D01*
X158399203Y-107488446D01*
X145435578Y-107488446D01*
X145497394Y-107451628D01*
X145631647Y-107316233D01*
X145648605Y-107238634D01*
X145730271Y-107103994D01*
X145809872Y-107083665D01*
X145961447Y-106998434D01*
X146026302Y-106872720D01*
X146091497Y-106740219D01*
X146157307Y-106784490D01*
X146291016Y-106853976D01*
X146350572Y-106834633D01*
X146414218Y-106727110D01*
X146356972Y-106628287D01*
X146310786Y-106482902D01*
X146414796Y-106407497D01*
X146590592Y-106432467D01*
X146749433Y-106429490D01*
X146855972Y-106262501D01*
X146918464Y-105951890D01*
X146977169Y-105766451D01*
X147380386Y-105766451D01*
X147412495Y-105822805D01*
X147571314Y-105744643D01*
X147730240Y-105596628D01*
X147773705Y-105490797D01*
X147721157Y-105372977D01*
X147601115Y-105402355D01*
X147473680Y-105559084D01*
X147380386Y-105766451D01*
X146977169Y-105766451D01*
X147014831Y-105647485D01*
X147163724Y-105416935D01*
X147312020Y-105224763D01*
X147368924Y-105088012D01*
X147448033Y-105018076D01*
X147553085Y-105025673D01*
X147744368Y-105001390D01*
X147898123Y-104874489D01*
X147947110Y-104711088D01*
X147927217Y-104657762D01*
X147805628Y-104595147D01*
X147765925Y-104609191D01*
X147764689Y-104555238D01*
X147843820Y-104360504D01*
X147987469Y-104062269D01*
X148051204Y-103938130D01*
X148431474Y-103208361D01*
X148482071Y-104050153D01*
X148520891Y-104509739D01*
X148577958Y-104790708D01*
X148664581Y-104916715D01*
X148792071Y-104911415D01*
X148873066Y-104867937D01*
X148954492Y-104729274D01*
X149001166Y-104426794D01*
X149016070Y-104005191D01*
X149028759Y-103629208D01*
X149057802Y-103338443D01*
X149097409Y-103186327D01*
X149105752Y-103177446D01*
X149134240Y-103063592D01*
X149158644Y-102782418D01*
X149177212Y-102368980D01*
X149188195Y-101858336D01*
X149190438Y-101481598D01*
X149197109Y-100818087D01*
X149216333Y-100294655D01*
X149246928Y-99930654D01*
X149287709Y-99745438D01*
X149297455Y-99731071D01*
X149328586Y-99600210D01*
X149346253Y-99306225D01*
X149351842Y-98882039D01*
X149346739Y-98360576D01*
X149332327Y-97774759D01*
X149309993Y-97157511D01*
X149281122Y-96541756D01*
X149247099Y-95960417D01*
X149209308Y-95446418D01*
X149169136Y-95032682D01*
X149137734Y-94818690D01*
X149299198Y-94818690D01*
X149314494Y-94961799D01*
X149424650Y-95023041D01*
X149442949Y-95020572D01*
X149478463Y-95033591D01*
X149508615Y-95098521D01*
X149534075Y-95231518D01*
X149555512Y-95448743D01*
X149573595Y-95766352D01*
X149588992Y-96200504D01*
X149602374Y-96767358D01*
X149614409Y-97483072D01*
X149625766Y-98363803D01*
X149637115Y-99425711D01*
X149640768Y-99797610D01*
X149656239Y-101247297D01*
X149672962Y-102505785D01*
X149691367Y-103584264D01*
X149711879Y-104493924D01*
X149734926Y-105245954D01*
X149760936Y-105851545D01*
X149790336Y-106321886D01*
X149823552Y-106668167D01*
X149861013Y-106901578D01*
X149903145Y-107033309D01*
X149917928Y-107056111D01*
X150106939Y-107176793D01*
X150280757Y-107119759D01*
X150348122Y-107012372D01*
X150378470Y-106830675D01*
X150396947Y-106511994D01*
X150399993Y-106121566D01*
X150399219Y-106076317D01*
X150401101Y-105680846D01*
X150420107Y-105348764D01*
X150452241Y-105145886D01*
X150456372Y-105134369D01*
X150471166Y-104923499D01*
X150430351Y-104830783D01*
X150379245Y-104652572D01*
X150385078Y-104383850D01*
X150389893Y-104351395D01*
X150399354Y-104193548D01*
X150408080Y-103853946D01*
X150416011Y-103353223D01*
X150423087Y-102712014D01*
X150429249Y-101950953D01*
X150434436Y-101090673D01*
X150438589Y-100151810D01*
X150441647Y-99154998D01*
X150442011Y-98957557D01*
X151010594Y-98957557D01*
X151011410Y-99877607D01*
X151014724Y-100775039D01*
X151020549Y-101627354D01*
X151028900Y-102412052D01*
X151039793Y-103106633D01*
X151053243Y-103688599D01*
X151069264Y-104135449D01*
X151087871Y-104424685D01*
X151105760Y-104529859D01*
X151218038Y-104779997D01*
X151256052Y-104887033D01*
X151334709Y-105009408D01*
X151487255Y-104974586D01*
X151513354Y-104961014D01*
X151572250Y-104920514D01*
X151619001Y-104854047D01*
X151655526Y-104738823D01*
X151683748Y-104552050D01*
X151705589Y-104270937D01*
X151722971Y-103872695D01*
X151737815Y-103334531D01*
X151752042Y-102633656D01*
X151763307Y-101996690D01*
X151778659Y-101105952D01*
X152244211Y-101105952D01*
X152246433Y-101741439D01*
X152257896Y-102203913D01*
X152278746Y-102503103D01*
X152309130Y-102648737D01*
X152317940Y-102662004D01*
X152369444Y-102814157D01*
X152406870Y-103131018D01*
X152426571Y-103575174D01*
X152428685Y-103798194D01*
X152432720Y-104312412D01*
X152450934Y-104653415D01*
X152492492Y-104850315D01*
X152566555Y-104932227D01*
X152682290Y-104928263D01*
X152774592Y-104897141D01*
X152872930Y-104800290D01*
X152922765Y-104579177D01*
X152934661Y-104259612D01*
X152951719Y-103926230D01*
X152995699Y-103672997D01*
X153037832Y-103580335D01*
X153064831Y-103449348D01*
X153085740Y-103117260D01*
X153100545Y-102585273D01*
X153109231Y-101854584D01*
X153111781Y-100926394D01*
X153108180Y-99801901D01*
X153100574Y-98728024D01*
X153088515Y-97447345D01*
X153075055Y-96355794D01*
X153059034Y-95440110D01*
X153039294Y-94687031D01*
X153014676Y-94083297D01*
X152984022Y-93615644D01*
X152946171Y-93270812D01*
X152936176Y-93219920D01*
X154857370Y-93219920D01*
X154894396Y-93303216D01*
X154924834Y-93287384D01*
X154936945Y-93167289D01*
X154924834Y-93152457D01*
X154864673Y-93166348D01*
X154857370Y-93219920D01*
X152936176Y-93219920D01*
X152899966Y-93035539D01*
X152844247Y-92896564D01*
X152777855Y-92840624D01*
X152699632Y-92854458D01*
X152608418Y-92924805D01*
X152594620Y-92938334D01*
X152547974Y-93015919D01*
X152506746Y-93158900D01*
X152470205Y-93381413D01*
X152437620Y-93697593D01*
X152408260Y-94121576D01*
X152381395Y-94667498D01*
X152356293Y-95349492D01*
X152332223Y-96181696D01*
X152308456Y-97178243D01*
X152284260Y-98353270D01*
X152266904Y-99277024D01*
X152251084Y-100287723D01*
X152244211Y-101105952D01*
X151778659Y-101105952D01*
X151778718Y-101102540D01*
X151790924Y-100374067D01*
X151799925Y-99774583D01*
X151805722Y-99267398D01*
X151808315Y-98815826D01*
X151807704Y-98383177D01*
X151803890Y-97932763D01*
X151796873Y-97427897D01*
X151786653Y-96831889D01*
X151773231Y-96108051D01*
X151763362Y-95582292D01*
X151746746Y-94768965D01*
X151729843Y-94135713D01*
X151710946Y-93660228D01*
X151688347Y-93320200D01*
X151660340Y-93093318D01*
X151625216Y-92957274D01*
X151581268Y-92889758D01*
X151556152Y-92874992D01*
X151336686Y-92862220D01*
X151224362Y-93017373D01*
X151214342Y-93118725D01*
X151166485Y-93309954D01*
X151113147Y-93371713D01*
X151092162Y-93482848D01*
X151073540Y-93773861D01*
X151057296Y-94222251D01*
X151043444Y-94805519D01*
X151031999Y-95501167D01*
X151022977Y-96286694D01*
X151016392Y-97139601D01*
X151012260Y-98037388D01*
X151010594Y-98957557D01*
X150442011Y-98957557D01*
X150443552Y-98120870D01*
X150444242Y-97070062D01*
X150443658Y-96023207D01*
X150441740Y-95000940D01*
X150438429Y-94023894D01*
X150433663Y-93112705D01*
X150427384Y-92288007D01*
X150425492Y-92089881D01*
X150414711Y-91600797D01*
X156172908Y-91600797D01*
X156249915Y-91699051D01*
X156274103Y-91701992D01*
X156372358Y-91624985D01*
X156375299Y-91600797D01*
X156298292Y-91502542D01*
X156274103Y-91499602D01*
X156175849Y-91576609D01*
X156172908Y-91600797D01*
X150414711Y-91600797D01*
X150412323Y-91492462D01*
X150382417Y-91078209D01*
X150364447Y-90993626D01*
X156172908Y-90993626D01*
X156249915Y-91091880D01*
X156274103Y-91094821D01*
X156372358Y-91017814D01*
X156375299Y-90993626D01*
X156298292Y-90895371D01*
X156274103Y-90892430D01*
X156175849Y-90969437D01*
X156172908Y-90993626D01*
X150364447Y-90993626D01*
X150329294Y-90828158D01*
X150246473Y-90723344D01*
X150127474Y-90744804D01*
X149999252Y-90842509D01*
X149942633Y-90901379D01*
X149896387Y-90979515D01*
X149858363Y-91098955D01*
X149826412Y-91281736D01*
X149798381Y-91549896D01*
X149772120Y-91925471D01*
X149745479Y-92430500D01*
X149716306Y-93087019D01*
X149682450Y-93917067D01*
X149670926Y-94206574D01*
X149646856Y-94534308D01*
X149608940Y-94762886D01*
X149569920Y-94839044D01*
X149496814Y-94760622D01*
X149494024Y-94731876D01*
X149432028Y-94671439D01*
X149392828Y-94687251D01*
X149299198Y-94818690D01*
X149137734Y-94818690D01*
X149127967Y-94752133D01*
X149087187Y-94637694D01*
X149083116Y-94636653D01*
X149005832Y-94555642D01*
X148993002Y-94369360D01*
X149040453Y-94162940D01*
X149112008Y-94047195D01*
X149185361Y-93906403D01*
X149112008Y-93724744D01*
X149025869Y-93486344D01*
X149009509Y-93354847D01*
X149122974Y-93354847D01*
X149136866Y-93415008D01*
X149190438Y-93422311D01*
X149273733Y-93385285D01*
X149257901Y-93354847D01*
X149137806Y-93342736D01*
X149122974Y-93354847D01*
X149009509Y-93354847D01*
X148988119Y-93182922D01*
X148988048Y-93170696D01*
X148943566Y-92922622D01*
X148834549Y-92830607D01*
X148697638Y-92875425D01*
X148569475Y-93037849D01*
X148486701Y-93298654D01*
X148474082Y-93440381D01*
X148456400Y-93622196D01*
X148422842Y-93644761D01*
X148414414Y-93624701D01*
X148290467Y-93308908D01*
X148148973Y-93016115D01*
X148023843Y-92812927D01*
X147976676Y-92764901D01*
X147888409Y-92649673D01*
X147753863Y-92415418D01*
X149306812Y-92415418D01*
X149338643Y-92501749D01*
X149387769Y-92496375D01*
X149496353Y-92411234D01*
X149501613Y-92382530D01*
X149435596Y-92303746D01*
X149334381Y-92360778D01*
X149306812Y-92415418D01*
X147753863Y-92415418D01*
X147746372Y-92402376D01*
X147580441Y-92075239D01*
X147571314Y-92056175D01*
X147403647Y-91725137D01*
X147256569Y-91470263D01*
X147160677Y-91344358D01*
X147157746Y-91342378D01*
X147127519Y-91215722D01*
X147219718Y-91026073D01*
X147322437Y-90811908D01*
X147305903Y-90705074D01*
X147188157Y-90738208D01*
X147101742Y-90812657D01*
X146989823Y-90897328D01*
X146880762Y-90874095D01*
X146720210Y-90721484D01*
X146638290Y-90629542D01*
X146336006Y-90285259D01*
X136955871Y-90285259D01*
X127575736Y-90285259D01*
X127215494Y-90664741D01*
X126993875Y-90919982D01*
X126833099Y-91144801D01*
X126790674Y-91228292D01*
X126673774Y-91360803D01*
X126523207Y-91347967D01*
X126352936Y-91339723D01*
X126335810Y-91443353D01*
X126427449Y-91566254D01*
X126468394Y-91731023D01*
X126391058Y-91953118D01*
X126238076Y-92167114D01*
X126052081Y-92307583D01*
X125931004Y-92328101D01*
X125746010Y-92348038D01*
X125732629Y-92465589D01*
X125814363Y-92572292D01*
X125844184Y-92718330D01*
X125794756Y-92935504D01*
X125698126Y-93132782D01*
X125586653Y-93219131D01*
X125533327Y-93307765D01*
X125510761Y-93520168D01*
X125510757Y-93523506D01*
X125481445Y-93736663D01*
X125410820Y-93827068D01*
X125409561Y-93827092D01*
X125327342Y-93911848D01*
X125308366Y-94029482D01*
X125265988Y-94193921D01*
X125207171Y-94231873D01*
X125130439Y-94318288D01*
X125105976Y-94478888D01*
X125068664Y-94693159D01*
X125004781Y-94788446D01*
X124925730Y-94928290D01*
X124903585Y-95092032D01*
X124865387Y-95303935D01*
X124802390Y-95395618D01*
X124723340Y-95535461D01*
X124701195Y-95699203D01*
X124662996Y-95911106D01*
X124600000Y-96002789D01*
X124520950Y-96142632D01*
X124498804Y-96306375D01*
X124460606Y-96518277D01*
X124397609Y-96609960D01*
X124312799Y-96752598D01*
X124296414Y-96870294D01*
X124249906Y-97135106D01*
X124207025Y-97243803D01*
X124141557Y-97378654D01*
X124061846Y-97558835D01*
X123947524Y-97831922D01*
X123779007Y-98243565D01*
X123651470Y-98457142D01*
X123522185Y-98512640D01*
X123517535Y-98511025D01*
X123411663Y-98536087D01*
X123390747Y-98669045D01*
X123465029Y-98829699D01*
X123475363Y-98841315D01*
X123513800Y-99001985D01*
X123482475Y-99139841D01*
X123418933Y-99270104D01*
X123395572Y-99215530D01*
X123392770Y-99165140D01*
X123338820Y-99014767D01*
X123284462Y-98988048D01*
X123203908Y-99015522D01*
X123193268Y-99129481D01*
X123251255Y-99377226D01*
X123271878Y-99450148D01*
X123303725Y-99763016D01*
X123228231Y-99939993D01*
X123142365Y-100139662D01*
X123146518Y-100252588D01*
X123128752Y-100412174D01*
X123088970Y-100451115D01*
X123004428Y-100594639D01*
X122980876Y-100758964D01*
X122942678Y-100970867D01*
X122879681Y-101062550D01*
X122800631Y-101202393D01*
X122778486Y-101366136D01*
X122740287Y-101578038D01*
X122677291Y-101669721D01*
X122598240Y-101809564D01*
X122576095Y-101973307D01*
X122537897Y-102185210D01*
X122474900Y-102276893D01*
X122396567Y-102416383D01*
X122373705Y-102586450D01*
X122338303Y-102773751D01*
X122272510Y-102833466D01*
X122201457Y-102921402D01*
X122171322Y-103133275D01*
X122171314Y-103137052D01*
X122142003Y-103350209D01*
X122071378Y-103440614D01*
X122070119Y-103440638D01*
X121987482Y-103525257D01*
X121968924Y-103639950D01*
X121920675Y-103854659D01*
X121801219Y-104134898D01*
X121766534Y-104199602D01*
X121635897Y-104478153D01*
X121567212Y-104714278D01*
X121564143Y-104753281D01*
X121516969Y-104945720D01*
X121462948Y-105009163D01*
X121383898Y-105149007D01*
X121361753Y-105312749D01*
X121323554Y-105524652D01*
X121260557Y-105616335D01*
X121181507Y-105756178D01*
X121159362Y-105919920D01*
X121121164Y-106131823D01*
X121058167Y-106223506D01*
X120979117Y-106363349D01*
X120956972Y-106527092D01*
X120918773Y-106738995D01*
X120855777Y-106830677D01*
X120776009Y-106970872D01*
X120754581Y-107128433D01*
X120670195Y-107325926D01*
X120476178Y-107447564D01*
X120261247Y-107442756D01*
X120231044Y-107426995D01*
X120218230Y-107320229D01*
X120206014Y-107026087D01*
X120194547Y-106559585D01*
X120183976Y-105935736D01*
X120174451Y-105169557D01*
X120166120Y-104276061D01*
X120159134Y-103270262D01*
X120153640Y-102167176D01*
X120149788Y-100981818D01*
X120148561Y-100236122D01*
X120282337Y-100236122D01*
X120296228Y-100296283D01*
X120349801Y-100303586D01*
X120433096Y-100266560D01*
X120417264Y-100236122D01*
X120297169Y-100224011D01*
X120282337Y-100236122D01*
X120148561Y-100236122D01*
X120147727Y-99729201D01*
X120147410Y-98999715D01*
X120147410Y-95639698D01*
X120582482Y-95639698D01*
X120583221Y-96555015D01*
X120586149Y-97501593D01*
X120591169Y-98458041D01*
X120598183Y-99402970D01*
X120607094Y-100314994D01*
X120617806Y-101172722D01*
X120630223Y-101954765D01*
X120644246Y-102639736D01*
X120659780Y-103206246D01*
X120676727Y-103632906D01*
X120694991Y-103898327D01*
X120701245Y-103946614D01*
X120791756Y-104291526D01*
X120922838Y-104556728D01*
X121067482Y-104699231D01*
X121172887Y-104697219D01*
X121208469Y-104579887D01*
X121237109Y-104303995D01*
X121244399Y-104149004D01*
X121462948Y-104149004D01*
X121499974Y-104232299D01*
X121530411Y-104216468D01*
X121542522Y-104096372D01*
X121530411Y-104081541D01*
X121470251Y-104095432D01*
X121462948Y-104149004D01*
X121244399Y-104149004D01*
X121255483Y-103913337D01*
X121260557Y-103541833D01*
X121267244Y-103187649D01*
X121462948Y-103187649D01*
X121513546Y-103238247D01*
X121564143Y-103187649D01*
X121513546Y-103137052D01*
X121462948Y-103187649D01*
X121267244Y-103187649D01*
X121269438Y-103071471D01*
X121293752Y-102693927D01*
X121330003Y-102449384D01*
X121361753Y-102378088D01*
X121387609Y-102260773D01*
X121409859Y-101946713D01*
X121428387Y-101441522D01*
X121433218Y-101214343D01*
X122070119Y-101214343D01*
X122107145Y-101297638D01*
X122137583Y-101281806D01*
X122149694Y-101161711D01*
X122137583Y-101146879D01*
X122077422Y-101160770D01*
X122070119Y-101214343D01*
X121433218Y-101214343D01*
X121437508Y-101012589D01*
X121586483Y-101012589D01*
X121603199Y-101068964D01*
X121701098Y-101172724D01*
X121807990Y-101119477D01*
X121866628Y-100943458D01*
X121867729Y-100910757D01*
X121842247Y-100809562D01*
X122576095Y-100809562D01*
X122653102Y-100907816D01*
X122677291Y-100910757D01*
X122775545Y-100833750D01*
X122778486Y-100809562D01*
X122701479Y-100711307D01*
X122677291Y-100708367D01*
X122579036Y-100785374D01*
X122576095Y-100809562D01*
X121842247Y-100809562D01*
X121819514Y-100719286D01*
X121765819Y-100657327D01*
X121657036Y-100672713D01*
X121587468Y-100815913D01*
X121586483Y-101012589D01*
X121437508Y-101012589D01*
X121443075Y-100750813D01*
X121449836Y-100202391D01*
X122778486Y-100202391D01*
X122855493Y-100300645D01*
X122879681Y-100303586D01*
X122977936Y-100226579D01*
X122980876Y-100202391D01*
X122903869Y-100104136D01*
X122879681Y-100101195D01*
X122781426Y-100178202D01*
X122778486Y-100202391D01*
X121449836Y-100202391D01*
X121453808Y-99880201D01*
X121460466Y-98835302D01*
X121462832Y-97672510D01*
X123588048Y-97672510D01*
X123665055Y-97770765D01*
X123689243Y-97773705D01*
X123787497Y-97696698D01*
X123790438Y-97672510D01*
X123713431Y-97574255D01*
X123689243Y-97571315D01*
X123590988Y-97648322D01*
X123588048Y-97672510D01*
X121462832Y-97672510D01*
X121462935Y-97621729D01*
X121462948Y-97520717D01*
X121460809Y-96294296D01*
X121454471Y-95236113D01*
X121444051Y-94351783D01*
X121435408Y-93928287D01*
X125004781Y-93928287D01*
X125041806Y-94011582D01*
X125072244Y-93995750D01*
X125084355Y-93875655D01*
X125072244Y-93860823D01*
X125012084Y-93874714D01*
X125004781Y-93928287D01*
X121435408Y-93928287D01*
X121429665Y-93646920D01*
X121411431Y-93127139D01*
X121389465Y-92798054D01*
X121363884Y-92665279D01*
X121361753Y-92663347D01*
X121317698Y-92540728D01*
X121283438Y-92262832D01*
X121263620Y-91876707D01*
X121260557Y-91638384D01*
X121258487Y-91193027D01*
X121249802Y-90993626D01*
X126522709Y-90993626D01*
X126599716Y-91091880D01*
X126623904Y-91094821D01*
X126722159Y-91017814D01*
X126725099Y-90993626D01*
X126648092Y-90895371D01*
X126623904Y-90892430D01*
X126525650Y-90969437D01*
X126522709Y-90993626D01*
X121249802Y-90993626D01*
X121246313Y-90913517D01*
X121215089Y-90763314D01*
X121155871Y-90705879D01*
X121059713Y-90704671D01*
X121032868Y-90708300D01*
X120901940Y-90749791D01*
X120828067Y-90860636D01*
X120790028Y-91091350D01*
X120774830Y-91322510D01*
X120743102Y-91635187D01*
X120692155Y-91846404D01*
X120646712Y-91904383D01*
X120629422Y-92002002D01*
X120614998Y-92280602D01*
X120603343Y-92718793D01*
X120594361Y-93295187D01*
X120587955Y-93988394D01*
X120584027Y-94777028D01*
X120582482Y-95639698D01*
X120147410Y-95639698D01*
X120147410Y-92410359D01*
X120248605Y-92410359D01*
X120283132Y-92508923D01*
X120293231Y-92511554D01*
X120379628Y-92440643D01*
X120400398Y-92410359D01*
X120392375Y-92317109D01*
X120355773Y-92309163D01*
X120252724Y-92382622D01*
X120248605Y-92410359D01*
X120147410Y-92410359D01*
X120147410Y-90847805D01*
X120450996Y-90847805D01*
X120500054Y-90952548D01*
X120552191Y-90943028D01*
X120649526Y-90813654D01*
X120653386Y-90785263D01*
X120576200Y-90692765D01*
X120552191Y-90690040D01*
X120463381Y-90772409D01*
X120450996Y-90847805D01*
X120147410Y-90847805D01*
X120147410Y-90624124D01*
X120386072Y-90399913D01*
X120457743Y-90336822D01*
X120538522Y-90286953D01*
X120651162Y-90248874D01*
X120818417Y-90221156D01*
X121063040Y-90202368D01*
X121407783Y-90191080D01*
X121875400Y-90185862D01*
X122488644Y-90185283D01*
X123270268Y-90187914D01*
X123726127Y-90189962D01*
X124608298Y-90194960D01*
X125309437Y-90201751D01*
X125850901Y-90211543D01*
X126254049Y-90225545D01*
X126540238Y-90244967D01*
X126730825Y-90271017D01*
X126847168Y-90304905D01*
X126910625Y-90347840D01*
X126928102Y-90371235D01*
X127017947Y-90483422D01*
X127098476Y-90419703D01*
X127134909Y-90361155D01*
X127157052Y-90337245D01*
X127199775Y-90315583D01*
X127272630Y-90296057D01*
X127385171Y-90278559D01*
X127546951Y-90262977D01*
X127767523Y-90249200D01*
X128056441Y-90237119D01*
X128423258Y-90226623D01*
X128877528Y-90217601D01*
X129428803Y-90209943D01*
X130086637Y-90203539D01*
X130860583Y-90198277D01*
X131760195Y-90194047D01*
X132795026Y-90190740D01*
X133974628Y-90188243D01*
X135308556Y-90186448D01*
X136806363Y-90185242D01*
X138477602Y-90184517D01*
X140331826Y-90184161D01*
X142378588Y-90184064D01*
X142445745Y-90184064D01*
X144702130Y-90184572D01*
G37*
D11*
%TO.C,D3*%
X138290000Y-90736000D02*
X138290000Y-90580000D01*
X138290000Y-88420000D02*
X138290000Y-88264000D01*
X135057666Y-90578608D02*
G75*
G03*
X138289999Y-90735515I1672334J1078608D01*
G01*
X135688871Y-90579836D02*
G75*
G03*
X137770960Y-90579999I1041129J1079836D01*
G01*
X137770960Y-88420001D02*
G75*
G03*
X135688871Y-88420164I-1040960J-1079999D01*
G01*
X138289999Y-88264485D02*
G75*
G03*
X135057666Y-88421392I-1559999J-1235515D01*
G01*
%TO.C,D12*%
X170885175Y-96990914D02*
X171012963Y-96901436D01*
X172782331Y-95662511D02*
X172910119Y-95573033D01*
X169160113Y-94252863D02*
G75*
G03*
X170885572Y-96990635I1842755J-751233D01*
G01*
X169521150Y-94770621D02*
G75*
G03*
X170715254Y-96476264I1481718J-233475D01*
G01*
X172484623Y-95237339D02*
G75*
G03*
X171290251Y-93531883I-1481755J233243D01*
G01*
X172909723Y-95573310D02*
G75*
G03*
X170927200Y-93015535I-1906855J569214D01*
G01*
%TO.C,D8*%
X147935000Y-106764000D02*
X147935000Y-106920000D01*
X147935000Y-109080000D02*
X147935000Y-109236000D01*
X151167334Y-106921392D02*
G75*
G03*
X147935001Y-106764485I-1672334J-1078608D01*
G01*
X150536129Y-106920164D02*
G75*
G03*
X148454040Y-106920001I-1041129J-1079836D01*
G01*
X148454040Y-109079999D02*
G75*
G03*
X150536129Y-109079836I1040960J1079999D01*
G01*
X147935001Y-109235515D02*
G75*
G03*
X151167334Y-109078608I1559999J1235515D01*
G01*
%TO.C,D5*%
X126590277Y-101926690D02*
G75*
G03*
X128572800Y-104484465I1906855J-569214D01*
G01*
X127015377Y-102262661D02*
G75*
G03*
X128209749Y-103968117I1481755J-233243D01*
G01*
X129978850Y-102729379D02*
G75*
G03*
X128784746Y-101023736I-1481718J233475D01*
G01*
X130339887Y-103247137D02*
G75*
G03*
X128614428Y-100509365I-1842755J751233D01*
G01*
X126717669Y-101837489D02*
X126589881Y-101926967D01*
X128614825Y-100509086D02*
X128487037Y-100598564D01*
%TO.C,D14*%
X158678809Y-93426967D02*
X158551021Y-93337489D01*
X156781653Y-92098564D02*
X156653865Y-92009086D01*
X156695890Y-95984465D02*
G75*
G03*
X158678413Y-93426690I75668J1988561D01*
G01*
X157058941Y-95468117D02*
G75*
G03*
X158253313Y-93762661I-287383J1472213D01*
G01*
X156483944Y-92523737D02*
G75*
G03*
X155289841Y-94229379I287614J-1472167D01*
G01*
X156654262Y-92009364D02*
G75*
G03*
X154928802Y-94747137I117296J-1986540D01*
G01*
%TO.C,D6*%
X132435000Y-106764000D02*
X132435000Y-106920000D01*
X132435000Y-109080000D02*
X132435000Y-109236000D01*
X135667334Y-106921392D02*
G75*
G03*
X132435001Y-106764485I-1672334J-1078608D01*
G01*
X135036129Y-106920164D02*
G75*
G03*
X132954040Y-106920001I-1041129J-1079836D01*
G01*
X132954040Y-109079999D02*
G75*
G03*
X135036129Y-109079836I1040960J1079999D01*
G01*
X132435001Y-109235515D02*
G75*
G03*
X135667334Y-109078608I1559999J1235515D01*
G01*
%TO.C,D4*%
X130910119Y-92926967D02*
X130782331Y-92837489D01*
X129012963Y-91598564D02*
X128885175Y-91509086D01*
X128927200Y-95484465D02*
G75*
G03*
X130909723Y-92926690I75668J1988561D01*
G01*
X129290251Y-94968117D02*
G75*
G03*
X130484623Y-93262661I-287383J1472213D01*
G01*
X128715254Y-92023737D02*
G75*
G03*
X127521151Y-93729379I287614J-1472167D01*
G01*
X128885572Y-91509364D02*
G75*
G03*
X127160112Y-94247137I117296J-1986540D01*
G01*
%TO.C,D11*%
X168321191Y-104028614D02*
X168448979Y-104118092D01*
X170218347Y-105357017D02*
X170346135Y-105446495D01*
X170304110Y-101471116D02*
G75*
G03*
X168321587Y-104028891I-75668J-1988561D01*
G01*
X169941059Y-101987464D02*
G75*
G03*
X168746687Y-103692920I287383J-1472213D01*
G01*
X170516056Y-104931844D02*
G75*
G03*
X171710159Y-103226202I-287614J1472167D01*
G01*
X170345738Y-105446217D02*
G75*
G03*
X172071198Y-102708444I-117296J1986540D01*
G01*
%TO.C,D9*%
X154935000Y-106764000D02*
X154935000Y-106920000D01*
X154935000Y-109080000D02*
X154935000Y-109236000D01*
X158167334Y-106921392D02*
G75*
G03*
X154935001Y-106764485I-1672334J-1078608D01*
G01*
X157536129Y-106920164D02*
G75*
G03*
X155454040Y-106920001I-1041129J-1079836D01*
G01*
X155454040Y-109079999D02*
G75*
G03*
X157536129Y-109079836I1040960J1079999D01*
G01*
X154935001Y-109235515D02*
G75*
G03*
X158167334Y-109078608I1559999J1235515D01*
G01*
%TO.C,D13*%
X165065000Y-91736000D02*
X165065000Y-91580000D01*
X165065000Y-89420000D02*
X165065000Y-89264000D01*
X161832666Y-91578608D02*
G75*
G03*
X165064999Y-91735515I1672334J1078608D01*
G01*
X162463871Y-91579836D02*
G75*
G03*
X164545960Y-91579999I1041129J1079836D01*
G01*
X164545960Y-89420001D02*
G75*
G03*
X162463871Y-89420164I-1040960J-1079999D01*
G01*
X165064999Y-89264485D02*
G75*
G03*
X161832666Y-89421392I-1559999J-1235515D01*
G01*
%TO.C,D7*%
X140435000Y-106764000D02*
X140435000Y-106920000D01*
X140435000Y-109080000D02*
X140435000Y-109236000D01*
X143667334Y-106921392D02*
G75*
G03*
X140435001Y-106764485I-1672334J-1078608D01*
G01*
X143036129Y-106920164D02*
G75*
G03*
X140954040Y-106920001I-1041129J-1079836D01*
G01*
X140954040Y-109079999D02*
G75*
G03*
X143036129Y-109079836I1040960J1079999D01*
G01*
X140435001Y-109235515D02*
G75*
G03*
X143667334Y-109078608I1559999J1235515D01*
G01*
%TO.C,D2*%
X146909723Y-93573310D02*
G75*
G03*
X144927200Y-91015535I-1906855J569214D01*
G01*
X146484623Y-93237339D02*
G75*
G03*
X145290251Y-91531883I-1481755J233243D01*
G01*
X143521150Y-92770621D02*
G75*
G03*
X144715254Y-94476264I1481718J-233475D01*
G01*
X143160113Y-92252863D02*
G75*
G03*
X144885572Y-94990635I1842755J-751233D01*
G01*
X146782331Y-93662511D02*
X146910119Y-93573033D01*
X144885175Y-94990914D02*
X145012963Y-94901436D01*
%TO.C,D1*%
X144593558Y-102191773D02*
X144744243Y-102232149D01*
X146830642Y-102791198D02*
X146981327Y-102831574D01*
X145582177Y-99110314D02*
G75*
G03*
X144594026Y-102191898I609023J-1894515D01*
G01*
X145417623Y-99719693D02*
G75*
G03*
X144878581Y-101730796I773577J-1285136D01*
G01*
X146964980Y-102289845D02*
G75*
G03*
X147503707Y-100278657I-773780J1285016D01*
G01*
X146980859Y-102831449D02*
G75*
G03*
X147665888Y-99668642I-789659J1826620D01*
G01*
%TO.C,D15*%
X156346135Y-100009086D02*
X156218347Y-100098564D01*
X154448979Y-101337489D02*
X154321191Y-101426967D01*
X158071197Y-102747137D02*
G75*
G03*
X156345738Y-100009365I-1842755J751233D01*
G01*
X157710160Y-102229379D02*
G75*
G03*
X156516056Y-100523736I-1481718J233475D01*
G01*
X154746687Y-101762661D02*
G75*
G03*
X155941059Y-103468117I1481755J-233243D01*
G01*
X154321587Y-101426690D02*
G75*
G03*
X156304110Y-103984465I1906855J-569214D01*
G01*
%TO.C,D10*%
X162170000Y-106764000D02*
X162170000Y-106920000D01*
X162170000Y-109080000D02*
X162170000Y-109236000D01*
X165402334Y-106921392D02*
G75*
G03*
X162170001Y-106764485I-1672334J-1078608D01*
G01*
X164771129Y-106920164D02*
G75*
G03*
X162689040Y-106920001I-1041129J-1079836D01*
G01*
X162689040Y-109079999D02*
G75*
G03*
X164771129Y-109079836I1040960J1079999D01*
G01*
X162170001Y-109235515D02*
G75*
G03*
X165402334Y-109078608I1559999J1235515D01*
G01*
%TD*%
M02*
