%TF.GenerationSoftware,KiCad,Pcbnew,7.0.7*%
%TF.CreationDate,2024-03-11T11:39:52-07:00*%
%TF.ProjectId,DC32_Cassette_SAO,44433332-5f43-4617-9373-657474655f53,rev?*%
%TF.SameCoordinates,Original*%
%TF.FileFunction,Soldermask,Top*%
%TF.FilePolarity,Negative*%
%FSLAX46Y46*%
G04 Gerber Fmt 4.6, Leading zero omitted, Abs format (unit mm)*
G04 Created by KiCad (PCBNEW 7.0.7) date 2024-03-11 11:39:52*
%MOMM*%
%LPD*%
G01*
G04 APERTURE LIST*
G04 Aperture macros list*
%AMRotRect*
0 Rectangle, with rotation*
0 The origin of the aperture is its center*
0 $1 length*
0 $2 width*
0 $3 Rotation angle, in degrees counterclockwise*
0 Add horizontal line*
21,1,$1,$2,0,0,$3*%
G04 Aperture macros list end*
%ADD10R,1.800000X1.800000*%
%ADD11C,1.800000*%
%ADD12RotRect,1.800000X1.800000X125.000000*%
%ADD13RotRect,1.800000X1.800000X305.000000*%
%ADD14RotRect,1.800000X1.800000X235.000000*%
%ADD15RotRect,1.800000X1.800000X55.000000*%
%ADD16RotRect,1.800000X1.800000X75.000000*%
%ADD17C,1.600000*%
%ADD18O,1.600000X1.600000*%
%ADD19R,1.700000X1.700000*%
%ADD20O,1.700000X1.700000*%
G04 APERTURE END LIST*
%TO.C,G\u002A\u002A\u002A*%
G36*
X132999203Y-102479283D02*
G01*
X132948605Y-102529881D01*
X132898008Y-102479283D01*
X132948605Y-102428685D01*
X132999203Y-102479283D01*
G37*
G36*
X168113944Y-94788446D02*
G01*
X168063346Y-94839044D01*
X168012749Y-94788446D01*
X168063346Y-94737849D01*
X168113944Y-94788446D01*
G37*
G36*
X151453588Y-94067111D02*
G01*
X151456966Y-94080080D01*
X151481953Y-94281577D01*
X151503456Y-94659309D01*
X151521480Y-95187149D01*
X151536029Y-95838973D01*
X151547107Y-96588654D01*
X151554719Y-97410067D01*
X151558869Y-98277086D01*
X151559562Y-99163585D01*
X151556801Y-100043439D01*
X151550592Y-100890521D01*
X151540938Y-101678707D01*
X151527845Y-102381869D01*
X151511315Y-102973883D01*
X151491355Y-103428623D01*
X151467967Y-103719963D01*
X151455342Y-103794821D01*
X151410813Y-103950350D01*
X151377370Y-103995579D01*
X151350265Y-103909700D01*
X151324751Y-103671905D01*
X151296080Y-103261387D01*
X151282161Y-103035857D01*
X151207803Y-101686268D01*
X151159225Y-100487420D01*
X151135966Y-99389371D01*
X151137564Y-98342180D01*
X151163557Y-97295907D01*
X151213483Y-96200609D01*
X151218173Y-96115214D01*
X151261894Y-95353163D01*
X151298899Y-94776171D01*
X151331200Y-94367096D01*
X151360807Y-94108796D01*
X151389734Y-93984126D01*
X151419990Y-93975946D01*
X151453588Y-94067111D01*
G37*
G36*
X152772839Y-94029561D02*
G01*
X152798768Y-94154317D01*
X152821302Y-94457137D01*
X152840448Y-94913721D01*
X152856210Y-95499771D01*
X152868593Y-96190987D01*
X152877604Y-96963070D01*
X152883247Y-97791723D01*
X152885529Y-98652645D01*
X152884454Y-99521538D01*
X152880029Y-100374104D01*
X152872258Y-101186043D01*
X152861147Y-101933057D01*
X152846702Y-102590847D01*
X152828928Y-103135113D01*
X152807831Y-103541558D01*
X152783416Y-103785882D01*
X152770624Y-103838199D01*
X152715437Y-103934387D01*
X152674643Y-103907374D01*
X152640408Y-103732520D01*
X152604900Y-103385186D01*
X152596855Y-103291656D01*
X152578200Y-102956609D01*
X152562674Y-102450893D01*
X152550282Y-101806089D01*
X152541028Y-101053779D01*
X152534915Y-100225546D01*
X152531948Y-99352971D01*
X152532130Y-98467635D01*
X152535467Y-97601122D01*
X152541961Y-96785014D01*
X152551618Y-96050891D01*
X152564440Y-95430336D01*
X152580433Y-94954932D01*
X152595747Y-94697549D01*
X152639291Y-94291940D01*
X152688099Y-94069890D01*
X152747164Y-94012569D01*
X152772839Y-94029561D01*
G37*
G36*
X150121682Y-92072432D02*
G01*
X150153697Y-92157371D01*
X150173119Y-92319875D01*
X150190140Y-92662344D01*
X150204791Y-93163945D01*
X150217101Y-93803848D01*
X150227100Y-94561221D01*
X150234818Y-95415234D01*
X150240285Y-96345055D01*
X150243531Y-97329854D01*
X150244587Y-98348799D01*
X150243481Y-99381060D01*
X150240245Y-100405805D01*
X150234907Y-101402203D01*
X150227498Y-102349424D01*
X150218049Y-103226636D01*
X150206588Y-104013008D01*
X150193146Y-104687709D01*
X150177753Y-105229908D01*
X150160439Y-105618775D01*
X150141233Y-105833478D01*
X150133974Y-105863857D01*
X150099444Y-105889262D01*
X150066111Y-105784962D01*
X150032711Y-105537669D01*
X149997983Y-105134097D01*
X149960663Y-104560959D01*
X149919489Y-103804969D01*
X149898700Y-103387904D01*
X149860320Y-102362983D01*
X149835750Y-101183084D01*
X149824587Y-99895120D01*
X149826429Y-98546004D01*
X149840872Y-97182648D01*
X149867514Y-95851965D01*
X149905950Y-94600868D01*
X149955778Y-93476270D01*
X149988697Y-92916335D01*
X150022199Y-92454141D01*
X150052508Y-92173332D01*
X150084157Y-92053049D01*
X150121682Y-92072432D01*
G37*
G36*
X179180469Y-91808355D02*
G01*
X179204086Y-91963235D01*
X179225033Y-92296822D01*
X179243303Y-92787198D01*
X179258892Y-93412450D01*
X179271795Y-94150660D01*
X179282006Y-94979913D01*
X179289521Y-95878295D01*
X179294334Y-96823889D01*
X179296441Y-97794780D01*
X179295836Y-98769052D01*
X179292515Y-99724789D01*
X179286472Y-100640077D01*
X179277702Y-101493000D01*
X179266200Y-102261642D01*
X179251962Y-102924087D01*
X179234981Y-103458420D01*
X179215254Y-103842725D01*
X179192775Y-104055088D01*
X179183299Y-104086506D01*
X179125514Y-104145697D01*
X179081809Y-104079897D01*
X179045456Y-103864092D01*
X179009723Y-103473270D01*
X179006313Y-103428737D01*
X178964596Y-102769477D01*
X178930834Y-102012972D01*
X178904744Y-101178087D01*
X178886045Y-100283687D01*
X178874452Y-99348640D01*
X178869684Y-98391809D01*
X178871458Y-97432060D01*
X178879491Y-96488258D01*
X178893500Y-95579270D01*
X178913202Y-94723959D01*
X178938315Y-93941193D01*
X178968557Y-93249836D01*
X179003643Y-92668753D01*
X179043292Y-92216810D01*
X179087221Y-91912873D01*
X179135147Y-91775806D01*
X179180469Y-91808355D01*
G37*
G36*
X121074634Y-91628647D02*
G01*
X121093298Y-91657730D01*
X121118794Y-91800199D01*
X121141351Y-92121046D01*
X121160969Y-92598347D01*
X121177648Y-93210181D01*
X121191389Y-93934624D01*
X121202193Y-94749755D01*
X121210058Y-95633650D01*
X121214987Y-96564388D01*
X121216979Y-97520046D01*
X121216035Y-98478701D01*
X121212154Y-99418431D01*
X121205339Y-100317313D01*
X121195587Y-101153425D01*
X121182901Y-101904845D01*
X121167281Y-102549650D01*
X121148726Y-103065917D01*
X121127238Y-103431724D01*
X121102816Y-103625149D01*
X121093094Y-103648579D01*
X121027529Y-103659485D01*
X120973769Y-103529043D01*
X120924965Y-103233755D01*
X120895507Y-102970571D01*
X120875701Y-102664498D01*
X120858810Y-102183176D01*
X120844831Y-101553724D01*
X120833757Y-100803262D01*
X120825585Y-99958910D01*
X120820308Y-99047788D01*
X120817922Y-98097016D01*
X120818422Y-97133713D01*
X120821803Y-96185000D01*
X120828059Y-95277996D01*
X120837187Y-94439821D01*
X120849180Y-93697594D01*
X120864033Y-93078437D01*
X120881743Y-92609468D01*
X120897471Y-92366097D01*
X120939947Y-91942044D01*
X120978952Y-91694715D01*
X121021508Y-91598715D01*
X121074634Y-91628647D01*
G37*
G36*
X137956201Y-92806104D02*
G01*
X138933824Y-93078275D01*
X139822261Y-93526143D01*
X140538247Y-94079201D01*
X140792743Y-94325139D01*
X140892188Y-94444984D01*
X140839660Y-94438964D01*
X140638237Y-94307305D01*
X140306510Y-94062058D01*
X139453501Y-93537900D01*
X138510173Y-93193528D01*
X137483216Y-93031100D01*
X137068743Y-93017530D01*
X136009672Y-93098678D01*
X135052024Y-93348387D01*
X134173422Y-93776053D01*
X133351486Y-94391074D01*
X132999203Y-94726317D01*
X132311109Y-95530539D01*
X131823502Y-96343340D01*
X131548526Y-97108869D01*
X131478609Y-97553821D01*
X131444991Y-98122198D01*
X131446344Y-98743845D01*
X131481343Y-99348612D01*
X131548663Y-99866344D01*
X131605247Y-100110171D01*
X131772070Y-100571942D01*
X132000627Y-101076954D01*
X132256634Y-101558365D01*
X132505808Y-101949334D01*
X132625527Y-102099402D01*
X132753332Y-102274984D01*
X132775475Y-102382494D01*
X132774519Y-102383515D01*
X132687845Y-102345826D01*
X132539420Y-102182957D01*
X132482298Y-102105627D01*
X132293483Y-101850913D01*
X132128648Y-101650485D01*
X132104527Y-101624645D01*
X131930515Y-101376097D01*
X131733259Y-100986082D01*
X131534966Y-100510354D01*
X131357842Y-100004666D01*
X131224096Y-99524773D01*
X131178250Y-99299112D01*
X131103434Y-98257648D01*
X131223363Y-97233083D01*
X131530584Y-96251173D01*
X132017647Y-95337672D01*
X132509485Y-94698291D01*
X133310304Y-93945117D01*
X134209973Y-93365030D01*
X135193613Y-92964744D01*
X136246344Y-92750977D01*
X136903805Y-92715040D01*
X137956201Y-92806104D01*
G37*
G36*
X164681607Y-92800622D02*
G01*
X165597136Y-93046025D01*
X166459988Y-93431024D01*
X167221360Y-93935285D01*
X167658565Y-94338430D01*
X167799297Y-94510516D01*
X167801362Y-94567350D01*
X167686737Y-94516790D01*
X167477396Y-94366698D01*
X167283676Y-94204337D01*
X167049733Y-94033014D01*
X166709751Y-93824216D01*
X166372919Y-93641686D01*
X165380010Y-93247667D01*
X164365013Y-93047230D01*
X163349637Y-93037035D01*
X162355591Y-93213739D01*
X161404583Y-93574002D01*
X160518320Y-94114483D01*
X159908608Y-94636653D01*
X159245725Y-95377720D01*
X158766973Y-96134086D01*
X158455526Y-96945071D01*
X158294553Y-97849997D01*
X158262868Y-98482072D01*
X158279425Y-99061896D01*
X158335816Y-99609280D01*
X158424069Y-100077582D01*
X158536215Y-100420157D01*
X158616512Y-100551514D01*
X158699433Y-100735968D01*
X158702789Y-100774750D01*
X158754864Y-100931391D01*
X158895470Y-101213882D01*
X159101175Y-101579469D01*
X159348549Y-101985399D01*
X159468133Y-102171233D01*
X159584499Y-102368821D01*
X159583243Y-102419356D01*
X159476940Y-102330739D01*
X159278164Y-102110872D01*
X159174623Y-101986780D01*
X158861175Y-101532324D01*
X158548851Y-100955748D01*
X158275605Y-100333947D01*
X158094018Y-99797610D01*
X158038806Y-99493127D01*
X157997448Y-99059084D01*
X157975873Y-98568155D01*
X157974309Y-98330279D01*
X158048854Y-97334135D01*
X158267449Y-96451248D01*
X158646027Y-95643590D01*
X159200521Y-94873135D01*
X159609178Y-94428162D01*
X160429717Y-93737356D01*
X161350657Y-93218676D01*
X162355859Y-92878780D01*
X163429184Y-92724326D01*
X163762205Y-92715145D01*
X164681607Y-92800622D01*
G37*
G36*
X149328620Y-81442821D02*
G01*
X151168005Y-81445150D01*
X152992569Y-81448904D01*
X154786796Y-81454085D01*
X156535172Y-81460699D01*
X158222182Y-81468749D01*
X159832312Y-81478240D01*
X161350045Y-81489176D01*
X162759869Y-81501560D01*
X164046267Y-81515397D01*
X165193725Y-81530692D01*
X165229880Y-81531234D01*
X166557903Y-81551891D01*
X167689307Y-81570978D01*
X168629854Y-81588685D01*
X169385307Y-81605198D01*
X169961430Y-81620705D01*
X170363987Y-81635393D01*
X170598739Y-81649451D01*
X170671450Y-81663066D01*
X170587884Y-81676426D01*
X170353803Y-81689717D01*
X170239044Y-81694326D01*
X169932717Y-81701792D01*
X169437073Y-81708664D01*
X168765185Y-81714944D01*
X167930124Y-81720636D01*
X166944963Y-81725742D01*
X165822774Y-81730267D01*
X164576629Y-81734213D01*
X163219601Y-81737584D01*
X161764763Y-81740381D01*
X160225186Y-81742610D01*
X158613942Y-81744272D01*
X156944105Y-81745371D01*
X155228747Y-81745910D01*
X153480939Y-81745892D01*
X151713755Y-81745320D01*
X149940266Y-81744198D01*
X148173545Y-81742529D01*
X146426664Y-81740315D01*
X144712696Y-81737560D01*
X143044712Y-81734267D01*
X141435786Y-81730439D01*
X139898990Y-81726080D01*
X138447395Y-81721192D01*
X137094075Y-81715778D01*
X135852101Y-81709842D01*
X134734547Y-81703387D01*
X133754483Y-81696417D01*
X132924984Y-81688933D01*
X132594422Y-81685281D01*
X128192430Y-81633068D01*
X131127091Y-81540267D01*
X131747309Y-81524457D01*
X132554397Y-81510017D01*
X133532842Y-81496952D01*
X134667128Y-81485266D01*
X135941740Y-81474963D01*
X137341165Y-81466047D01*
X138849886Y-81458522D01*
X140452389Y-81452393D01*
X142133160Y-81447663D01*
X143876683Y-81444337D01*
X145667444Y-81442419D01*
X147489928Y-81441912D01*
X149328620Y-81442821D01*
G37*
G36*
X149684194Y-87164485D02*
G01*
X151644855Y-87166178D01*
X153593619Y-87169201D01*
X155514004Y-87173562D01*
X157389526Y-87179273D01*
X159203701Y-87186342D01*
X160940048Y-87194780D01*
X162582081Y-87204596D01*
X164113318Y-87215801D01*
X165078087Y-87224173D01*
X166534629Y-87238169D01*
X167794743Y-87251274D01*
X168864391Y-87263631D01*
X169749532Y-87275384D01*
X170456126Y-87286680D01*
X170990135Y-87297661D01*
X171357518Y-87308473D01*
X171564237Y-87319259D01*
X171616250Y-87330165D01*
X171519520Y-87341335D01*
X171280005Y-87352914D01*
X170903667Y-87365046D01*
X170896812Y-87365238D01*
X170347053Y-87377687D01*
X169610875Y-87389709D01*
X168704251Y-87401263D01*
X167643152Y-87412304D01*
X166443550Y-87422790D01*
X165121417Y-87432678D01*
X163692724Y-87441924D01*
X162173444Y-87450487D01*
X160579549Y-87458322D01*
X158927009Y-87465387D01*
X157231798Y-87471640D01*
X155509885Y-87477036D01*
X153777245Y-87481533D01*
X152049847Y-87485088D01*
X150343665Y-87487658D01*
X148674669Y-87489200D01*
X147058833Y-87489672D01*
X145512126Y-87489029D01*
X144050522Y-87487229D01*
X142689991Y-87484230D01*
X141446507Y-87479987D01*
X140336040Y-87474459D01*
X139374562Y-87467602D01*
X138578045Y-87459373D01*
X138160159Y-87453333D01*
X137084790Y-87435766D01*
X135944820Y-87417886D01*
X134784280Y-87400334D01*
X133647204Y-87383752D01*
X132577624Y-87368780D01*
X131619573Y-87356060D01*
X130817085Y-87346234D01*
X130772908Y-87345728D01*
X127787649Y-87311730D01*
X131228287Y-87244293D01*
X132046003Y-87230798D01*
X133049624Y-87218515D01*
X134222665Y-87207453D01*
X135548642Y-87197623D01*
X137011073Y-87189034D01*
X138593475Y-87181695D01*
X140279363Y-87175618D01*
X142052255Y-87170811D01*
X143895668Y-87167285D01*
X145793117Y-87165048D01*
X147728120Y-87164112D01*
X149684194Y-87164485D01*
G37*
G36*
X136310844Y-94178607D02*
G01*
X136338041Y-94329838D01*
X136338645Y-94400700D01*
X136399799Y-94718213D01*
X136595517Y-94892106D01*
X136907181Y-94940239D01*
X137263999Y-94914343D01*
X137462914Y-94816799D01*
X137544037Y-94617825D01*
X137552988Y-94460710D01*
X137563671Y-94229610D01*
X137635329Y-94139301D01*
X137827371Y-94142075D01*
X137932470Y-94155997D01*
X138235154Y-94228629D01*
X138598450Y-94359690D01*
X138966809Y-94523227D01*
X139284683Y-94693284D01*
X139496525Y-94843907D01*
X139548534Y-94911105D01*
X139522790Y-95075468D01*
X139386622Y-95281329D01*
X139376702Y-95292080D01*
X139240489Y-95472583D01*
X139228160Y-95637230D01*
X139349859Y-95842713D01*
X139508391Y-96028088D01*
X139768926Y-96223421D01*
X140021474Y-96217106D01*
X140234661Y-96053387D01*
X140398042Y-95902804D01*
X140499067Y-95850996D01*
X140619643Y-95939803D01*
X140776757Y-96173524D01*
X140949153Y-96503109D01*
X141115579Y-96879508D01*
X141254781Y-97253670D01*
X141345505Y-97576546D01*
X141366498Y-97799085D01*
X141358196Y-97833724D01*
X141227587Y-97937467D01*
X141017040Y-97976096D01*
X140702670Y-98040203D01*
X140531280Y-98242254D01*
X140487649Y-98532669D01*
X140545249Y-98857319D01*
X140732747Y-99035747D01*
X141064462Y-99089243D01*
X141316676Y-99127164D01*
X141398406Y-99225935D01*
X141353274Y-99484145D01*
X141235258Y-99854413D01*
X141070433Y-100272251D01*
X140884872Y-100673166D01*
X140704649Y-100992670D01*
X140655862Y-101062550D01*
X140543851Y-101193153D01*
X140447120Y-101195020D01*
X140289298Y-101063248D01*
X140261593Y-101037251D01*
X139989476Y-100847987D01*
X139744253Y-100844784D01*
X139483802Y-101030152D01*
X139429195Y-101086815D01*
X139230779Y-101336729D01*
X139190272Y-101522914D01*
X139303120Y-101702336D01*
X139374502Y-101770916D01*
X139526389Y-101951005D01*
X139576892Y-102079144D01*
X139489547Y-102189168D01*
X139259789Y-102341154D01*
X138936035Y-102513488D01*
X138566703Y-102684559D01*
X138200209Y-102832752D01*
X137884969Y-102936455D01*
X137669402Y-102974055D01*
X137609448Y-102957390D01*
X137567796Y-102824435D01*
X137552988Y-102621438D01*
X137468989Y-102294592D01*
X137243200Y-102082817D01*
X136982533Y-102023904D01*
X136615414Y-102085866D01*
X136403084Y-102275593D01*
X136338645Y-102578066D01*
X136315694Y-102853375D01*
X136216879Y-102963110D01*
X135997262Y-102939615D01*
X135883267Y-102905815D01*
X135605939Y-102807286D01*
X135403962Y-102720368D01*
X135204699Y-102644406D01*
X135123665Y-102631076D01*
X134981825Y-102580656D01*
X134741924Y-102452887D01*
X134611138Y-102373550D01*
X134203191Y-102116024D01*
X134461356Y-101809212D01*
X134626116Y-101594194D01*
X134714671Y-101441212D01*
X134719522Y-101419452D01*
X134649609Y-101309299D01*
X134472108Y-101123629D01*
X134356134Y-101017445D01*
X133992746Y-100698386D01*
X133657972Y-100953731D01*
X133421920Y-101108870D01*
X133279979Y-101129029D01*
X133224446Y-101085215D01*
X133056140Y-100817776D01*
X132872442Y-100440585D01*
X132700293Y-100020791D01*
X132566631Y-99625542D01*
X132498399Y-99321987D01*
X132494700Y-99266335D01*
X132548986Y-99138541D01*
X132743761Y-99091226D01*
X132827171Y-99089243D01*
X133163000Y-99034032D01*
X133347591Y-98853369D01*
X133403984Y-98524821D01*
X133350743Y-98217534D01*
X133169310Y-98039468D01*
X132847410Y-97959751D01*
X132607380Y-97884756D01*
X132513253Y-97710480D01*
X132512365Y-97704509D01*
X132540221Y-97512805D01*
X132639682Y-97204182D01*
X132785824Y-96835790D01*
X132953722Y-96464775D01*
X133118451Y-96148287D01*
X133255085Y-95943474D01*
X133297201Y-95905047D01*
X133452616Y-95913708D01*
X133645686Y-96042784D01*
X133913195Y-96224763D01*
X134150546Y-96215425D01*
X134383242Y-96028088D01*
X134598443Y-95765371D01*
X134670887Y-95578538D01*
X134607322Y-95407053D01*
X134470258Y-95247712D01*
X134198885Y-94964460D01*
X134484502Y-94767929D01*
X135019615Y-94460085D01*
X135579152Y-94239774D01*
X135948205Y-94156398D01*
X136200294Y-94132929D01*
X136310844Y-94178607D01*
G37*
G36*
X164856031Y-94173095D02*
G01*
X165184219Y-94283481D01*
X165551044Y-94436532D01*
X165901170Y-94606945D01*
X166179257Y-94769418D01*
X166329970Y-94898650D01*
X166339095Y-94915884D01*
X166317137Y-95098993D01*
X166176800Y-95309788D01*
X166031159Y-95499499D01*
X166025272Y-95658302D01*
X166078973Y-95774734D01*
X166258087Y-96010139D01*
X166443397Y-96179284D01*
X166607568Y-96284149D01*
X166736149Y-96283359D01*
X166909255Y-96164764D01*
X166991670Y-96096135D01*
X167207593Y-95944961D01*
X167366409Y-95887358D01*
X167392543Y-95893538D01*
X167505687Y-96033046D01*
X167656655Y-96307018D01*
X167820059Y-96657653D01*
X167970510Y-97027151D01*
X168082620Y-97357709D01*
X168129482Y-97571315D01*
X168139179Y-97804022D01*
X168069395Y-97909903D01*
X167865778Y-97949873D01*
X167785460Y-97956882D01*
X167500113Y-98030967D01*
X167345949Y-98213862D01*
X167305651Y-98535120D01*
X167321779Y-98748131D01*
X167370035Y-98943437D01*
X167497538Y-99034852D01*
X167734462Y-99070053D01*
X167987272Y-99110545D01*
X168104104Y-99213777D01*
X168125812Y-99435416D01*
X168115391Y-99589091D01*
X168053023Y-99849854D01*
X167919311Y-100209236D01*
X167746866Y-100592205D01*
X167568298Y-100923727D01*
X167475019Y-101062550D01*
X167369733Y-101181821D01*
X167274133Y-101191671D01*
X167126929Y-101079600D01*
X167007837Y-100967264D01*
X166696258Y-100669588D01*
X166342551Y-101012414D01*
X166103513Y-101262409D01*
X166009806Y-101439249D01*
X166051305Y-101599374D01*
X166204037Y-101784544D01*
X166338803Y-101990843D01*
X166360930Y-102165533D01*
X166360855Y-102165730D01*
X166239291Y-102285795D01*
X165981726Y-102441996D01*
X165640001Y-102612006D01*
X165265955Y-102773493D01*
X164911429Y-102904129D01*
X164628263Y-102981583D01*
X164468298Y-102983527D01*
X164465707Y-102982040D01*
X164407361Y-102863723D01*
X164346915Y-102621259D01*
X164331491Y-102533819D01*
X164211769Y-102207234D01*
X163981592Y-102048693D01*
X163637152Y-102056226D01*
X163488605Y-102097831D01*
X163288699Y-102205278D01*
X163188032Y-102399489D01*
X163155378Y-102580478D01*
X163101426Y-102849783D01*
X162999348Y-102970079D01*
X162801772Y-102963406D01*
X162523556Y-102874438D01*
X161996582Y-102667891D01*
X161573133Y-102468709D01*
X161284393Y-102293151D01*
X161164244Y-102165730D01*
X161186163Y-101991168D01*
X161320784Y-101784840D01*
X161321062Y-101784544D01*
X161483947Y-101579248D01*
X161511417Y-101410869D01*
X161392904Y-101225552D01*
X161170076Y-101014995D01*
X160803897Y-100693486D01*
X160515966Y-100969342D01*
X160308266Y-101141234D01*
X160167463Y-101172401D01*
X160082434Y-101124360D01*
X159922739Y-100921529D01*
X159743203Y-100590824D01*
X159573463Y-100200618D01*
X159443160Y-99819286D01*
X159381931Y-99515201D01*
X159381426Y-99507200D01*
X159383464Y-99261603D01*
X159458692Y-99150899D01*
X159653697Y-99109347D01*
X159664143Y-99108246D01*
X159994478Y-98992972D01*
X160180820Y-98737169D01*
X160220717Y-98475121D01*
X160158848Y-98192470D01*
X159955743Y-98026293D01*
X159664143Y-97959751D01*
X159469210Y-97921268D01*
X159390176Y-97823500D01*
X159386713Y-97602824D01*
X159392152Y-97530658D01*
X159451081Y-97252698D01*
X159574797Y-96895649D01*
X159736075Y-96520122D01*
X159907694Y-96186730D01*
X160062430Y-95956085D01*
X160125480Y-95897911D01*
X160262600Y-95916837D01*
X160464278Y-96049728D01*
X160520530Y-96100370D01*
X160803897Y-96371853D01*
X161170076Y-96050344D01*
X161426755Y-95795552D01*
X161519799Y-95602033D01*
X161458660Y-95426166D01*
X161333864Y-95294422D01*
X161173630Y-95102589D01*
X161157281Y-94929526D01*
X161297952Y-94760419D01*
X161608777Y-94580458D01*
X162102890Y-94374832D01*
X162172521Y-94348698D01*
X162607063Y-94197920D01*
X162891254Y-94137018D01*
X163058666Y-94171401D01*
X163142869Y-94306478D01*
X163174568Y-94510159D01*
X163205976Y-94889642D01*
X163728845Y-94919937D01*
X164045957Y-94926661D01*
X164218034Y-94889045D01*
X164300400Y-94791343D01*
X164314211Y-94753325D01*
X164359288Y-94550916D01*
X164361230Y-94470041D01*
X164373198Y-94236168D01*
X164530300Y-94137273D01*
X164621818Y-94130677D01*
X164856031Y-94173095D01*
G37*
G36*
X146756041Y-91188311D02*
G01*
X147072403Y-91651138D01*
X147410620Y-92205371D01*
X147737391Y-92790743D01*
X148019415Y-93346984D01*
X148223391Y-93813828D01*
X148256032Y-93902988D01*
X148379513Y-94158642D01*
X148501123Y-94212412D01*
X148619389Y-94064116D01*
X148663552Y-93953586D01*
X148760704Y-93675299D01*
X148818483Y-93928287D01*
X148869301Y-94264657D01*
X148912104Y-94774573D01*
X148946879Y-95429347D01*
X148973611Y-96200292D01*
X148992288Y-97058723D01*
X149002895Y-97975951D01*
X149005420Y-98923291D01*
X148999848Y-99872055D01*
X148986167Y-100793556D01*
X148964362Y-101659108D01*
X148934420Y-102440023D01*
X148896327Y-103107616D01*
X148850071Y-103633198D01*
X148823163Y-103838417D01*
X148768861Y-104052886D01*
X148708413Y-104088344D01*
X148651360Y-103967562D01*
X148607241Y-103713311D01*
X148585598Y-103348361D01*
X148584816Y-103269518D01*
X148564080Y-102906715D01*
X148511695Y-102658612D01*
X148439341Y-102550340D01*
X148358699Y-102607029D01*
X148320366Y-102700558D01*
X148252808Y-102867657D01*
X148119354Y-103167264D01*
X147942397Y-103549770D01*
X147826381Y-103794821D01*
X147114714Y-105062281D01*
X146216086Y-106281103D01*
X145803503Y-106754781D01*
X145226843Y-107387251D01*
X136949583Y-107387251D01*
X128672324Y-107387251D01*
X128019820Y-106695563D01*
X127260644Y-105789443D01*
X126552654Y-104750508D01*
X126191713Y-104101908D01*
X132218892Y-104101908D01*
X132259093Y-104245278D01*
X132350487Y-104366148D01*
X132715638Y-104692269D01*
X133228712Y-105033308D01*
X133839433Y-105363225D01*
X134497519Y-105655979D01*
X135152694Y-105885530D01*
X135427888Y-105959992D01*
X136057879Y-106063794D01*
X136802192Y-106110817D01*
X137580936Y-106101226D01*
X138314217Y-106035182D01*
X138767330Y-105953199D01*
X139921979Y-105588043D01*
X140989258Y-105062525D01*
X141949871Y-104392908D01*
X142784522Y-103595454D01*
X143473917Y-102686424D01*
X143998761Y-101682079D01*
X144080846Y-101475033D01*
X144210964Y-101069975D01*
X144345400Y-100554519D01*
X144461395Y-100018837D01*
X144494918Y-99834522D01*
X144575114Y-99310901D01*
X144609996Y-98897956D01*
X144601735Y-98509623D01*
X144552502Y-98059837D01*
X144541664Y-97981367D01*
X144307403Y-96802719D01*
X143957964Y-95766071D01*
X143710957Y-95248850D01*
X143498280Y-94885750D01*
X143277283Y-94559201D01*
X143076706Y-94306240D01*
X142925289Y-94163907D01*
X142860501Y-94152779D01*
X142879743Y-94258546D01*
X142971765Y-94497637D01*
X143117956Y-94822795D01*
X143154053Y-94898120D01*
X143691962Y-96236514D01*
X144034911Y-97625882D01*
X144040256Y-97657042D01*
X144107363Y-98612181D01*
X144005524Y-99618068D01*
X143747469Y-100636262D01*
X143345930Y-101628321D01*
X142813638Y-102555801D01*
X142163323Y-103380261D01*
X142134751Y-103410856D01*
X141403227Y-104068867D01*
X140537023Y-104650383D01*
X139600089Y-105117761D01*
X138731076Y-105414460D01*
X138380200Y-105476899D01*
X137899883Y-105523725D01*
X137343266Y-105553959D01*
X136763492Y-105566625D01*
X136213705Y-105560744D01*
X135747046Y-105535339D01*
X135416660Y-105489432D01*
X135367092Y-105476348D01*
X135082356Y-105391589D01*
X134727846Y-105288561D01*
X134618326Y-105257208D01*
X134246634Y-105126717D01*
X133798728Y-104933864D01*
X133335055Y-104708651D01*
X132916056Y-104481084D01*
X132602178Y-104281167D01*
X132518925Y-104215065D01*
X132315941Y-104082474D01*
X132218892Y-104101908D01*
X126191713Y-104101908D01*
X125939219Y-103648184D01*
X125512374Y-102681673D01*
X125415126Y-102432406D01*
X125324024Y-102202946D01*
X125237513Y-101925266D01*
X125135909Y-101507233D01*
X125030797Y-101009122D01*
X124933762Y-100491203D01*
X124856388Y-100013750D01*
X124810262Y-99637035D01*
X124802390Y-99489061D01*
X124771358Y-99181498D01*
X124686516Y-99037437D01*
X124560241Y-99073297D01*
X124520893Y-99115656D01*
X124454920Y-99251086D01*
X124339586Y-99542831D01*
X124188308Y-99954799D01*
X124014502Y-100450896D01*
X123909999Y-100758964D01*
X123417290Y-102224509D01*
X122984907Y-103501521D01*
X122611369Y-104594193D01*
X122295200Y-105506715D01*
X122034922Y-106243280D01*
X121829055Y-106808078D01*
X121676123Y-107205301D01*
X121574646Y-107439141D01*
X121528366Y-107512196D01*
X121306417Y-107583949D01*
X121097180Y-107553278D01*
X121003816Y-107463147D01*
X121019152Y-107327925D01*
X121093149Y-107038763D01*
X121215226Y-106631898D01*
X121374804Y-106143569D01*
X121469145Y-105869323D01*
X121684803Y-105248549D01*
X121939000Y-104510020D01*
X122206310Y-103727996D01*
X122461309Y-102976739D01*
X122577853Y-102631076D01*
X122818247Y-101920042D01*
X123099275Y-101095201D01*
X123394521Y-100233708D01*
X123677570Y-99412716D01*
X123842459Y-98937450D01*
X123887309Y-98808112D01*
X130336830Y-98808112D01*
X130384918Y-99539418D01*
X130464643Y-100000000D01*
X130819847Y-101076729D01*
X131336776Y-102054080D01*
X131996213Y-102919742D01*
X132778940Y-103661404D01*
X133665739Y-104266753D01*
X134637391Y-104723478D01*
X135674678Y-105019269D01*
X136758382Y-105141813D01*
X137869285Y-105078799D01*
X138280037Y-105006683D01*
X139364946Y-104680261D01*
X140362769Y-104178104D01*
X141259052Y-103513384D01*
X142039343Y-102699275D01*
X142689187Y-101748951D01*
X143194132Y-100675584D01*
X143273684Y-100455379D01*
X143379574Y-100019262D01*
X143456111Y-99448772D01*
X143500018Y-98810242D01*
X143508016Y-98170003D01*
X143476827Y-97594386D01*
X143431055Y-97271139D01*
X143113742Y-96156251D01*
X142625230Y-95143467D01*
X141974436Y-94242581D01*
X141170273Y-93463387D01*
X140221658Y-92815679D01*
X139137506Y-92309252D01*
X138809191Y-92193552D01*
X138205774Y-92053476D01*
X137481804Y-91975260D01*
X136709672Y-91959648D01*
X135961766Y-92007384D01*
X135310478Y-92119214D01*
X135174900Y-92156176D01*
X134074993Y-92584684D01*
X133085219Y-93173998D01*
X132220089Y-93909951D01*
X131494115Y-94778375D01*
X130921808Y-95765102D01*
X130580759Y-96641629D01*
X130437540Y-97278542D01*
X130355301Y-98027594D01*
X130336830Y-98808112D01*
X123887309Y-98808112D01*
X124087316Y-98231339D01*
X124346527Y-97479337D01*
X124598648Y-96743953D01*
X124822236Y-96087696D01*
X124964575Y-95666365D01*
X125169329Y-95076454D01*
X125393765Y-94461897D01*
X125610955Y-93894718D01*
X125793974Y-93446937D01*
X125796938Y-93440070D01*
X126043051Y-92927434D01*
X126358116Y-92353037D01*
X126707414Y-91773589D01*
X127056226Y-91245796D01*
X127369832Y-90826367D01*
X127465145Y-90715339D01*
X127671136Y-90487649D01*
X136953877Y-90487649D01*
X146236619Y-90487649D01*
X146756041Y-91188311D01*
G37*
G36*
X161429494Y-90496524D02*
G01*
X162345215Y-90499554D01*
X163438859Y-90505050D01*
X163940282Y-90507896D01*
X169176494Y-90538247D01*
X169631872Y-90857180D01*
X170286274Y-91387686D01*
X170955356Y-92058308D01*
X171594155Y-92815759D01*
X172157710Y-93606753D01*
X172598738Y-94373324D01*
X172781974Y-94744650D01*
X173037661Y-95265810D01*
X173350055Y-95904475D01*
X173703415Y-96628315D01*
X174081996Y-97405000D01*
X174470056Y-98202201D01*
X174851852Y-98987587D01*
X175211641Y-99728830D01*
X175533681Y-100393598D01*
X175802227Y-100949564D01*
X175905324Y-101163745D01*
X176113431Y-101595163D01*
X176390717Y-102167622D01*
X176717385Y-102840381D01*
X177073636Y-103572698D01*
X177439674Y-104323833D01*
X177715381Y-104888670D01*
X178036124Y-105548562D01*
X178325556Y-106150417D01*
X178572245Y-106669943D01*
X178764756Y-107082846D01*
X178891657Y-107364834D01*
X178941514Y-107491617D01*
X178941832Y-107494446D01*
X178853788Y-107560982D01*
X178641301Y-107589619D01*
X178634532Y-107589642D01*
X178537586Y-107584013D01*
X178449888Y-107553192D01*
X178358462Y-107476278D01*
X178250334Y-107332369D01*
X178112527Y-107100562D01*
X177932065Y-106759956D01*
X177695972Y-106289649D01*
X177391273Y-105668740D01*
X177205326Y-105287450D01*
X176813961Y-104484239D01*
X176374253Y-103581624D01*
X175918866Y-102646663D01*
X175480459Y-101746413D01*
X175091693Y-100947933D01*
X175024335Y-100809562D01*
X174722068Y-100192326D01*
X174444250Y-99632030D01*
X174204561Y-99155704D01*
X174016680Y-98790376D01*
X173894288Y-98563072D01*
X173856696Y-98502581D01*
X173733778Y-98431891D01*
X173646634Y-98560083D01*
X173595377Y-98886816D01*
X173580035Y-99342269D01*
X173480007Y-100504640D01*
X173194621Y-101673585D01*
X172738378Y-102823751D01*
X172125778Y-103929786D01*
X171371319Y-104966337D01*
X170489501Y-105908052D01*
X169494824Y-106729578D01*
X169262462Y-106891550D01*
X168527865Y-107387251D01*
X163833406Y-107387251D01*
X159138947Y-107387251D01*
X158519799Y-106987076D01*
X157966086Y-106581982D01*
X157364120Y-106063236D01*
X156767981Y-105483733D01*
X156231750Y-104896368D01*
X155809510Y-104354036D01*
X155773279Y-104300797D01*
X155596453Y-104002708D01*
X158803687Y-104002708D01*
X158917477Y-104151866D01*
X159133045Y-104365399D01*
X159420442Y-104614620D01*
X159749722Y-104870842D01*
X159895017Y-104974834D01*
X160445111Y-105296494D01*
X161122333Y-105600713D01*
X161851692Y-105859612D01*
X162558194Y-106045314D01*
X162952988Y-106111599D01*
X163333042Y-106133651D01*
X163841242Y-106131634D01*
X164409268Y-106109127D01*
X164968796Y-106069711D01*
X165451505Y-106016964D01*
X165746610Y-105965217D01*
X166048466Y-105871157D01*
X166466936Y-105710753D01*
X166938261Y-105509460D01*
X167254510Y-105363132D01*
X168319568Y-104756468D01*
X169224466Y-104030760D01*
X169979582Y-103175956D01*
X170595289Y-102182007D01*
X170649627Y-102074502D01*
X170953666Y-101408574D01*
X171162584Y-100803527D01*
X171291519Y-100191359D01*
X171355604Y-99504068D01*
X171370381Y-98836255D01*
X171308645Y-97684420D01*
X171113946Y-96653754D01*
X170776226Y-95704626D01*
X170387177Y-94962150D01*
X170076716Y-94470775D01*
X169836508Y-94139216D01*
X169674298Y-93968393D01*
X169597832Y-93959225D01*
X169614856Y-94112631D01*
X169733115Y-94429529D01*
X169960355Y-94910839D01*
X169960713Y-94911550D01*
X170290760Y-95612081D01*
X170525150Y-96238179D01*
X170680249Y-96856832D01*
X170772421Y-97535028D01*
X170818031Y-98339754D01*
X170820718Y-98431859D01*
X170832699Y-98988618D01*
X170828663Y-99402177D01*
X170801550Y-99731531D01*
X170744301Y-100035672D01*
X170649856Y-100373593D01*
X170551589Y-100680949D01*
X170210248Y-101522689D01*
X169753858Y-102352126D01*
X169229342Y-103087533D01*
X169052144Y-103292539D01*
X168401681Y-103901037D01*
X167622132Y-104463114D01*
X166774672Y-104942665D01*
X165920476Y-105303582D01*
X165379986Y-105459888D01*
X164958938Y-105520927D01*
X164406648Y-105552165D01*
X163778118Y-105555560D01*
X163128350Y-105533071D01*
X162512347Y-105486655D01*
X161985109Y-105418271D01*
X161601639Y-105329877D01*
X161586852Y-105324837D01*
X161160859Y-105159697D01*
X160677393Y-104946219D01*
X160183268Y-104708093D01*
X159725300Y-104469007D01*
X159350301Y-104252651D01*
X159105087Y-104082712D01*
X159071117Y-104051835D01*
X158881942Y-103953993D01*
X158821623Y-103946614D01*
X158803687Y-104002708D01*
X155596453Y-104002708D01*
X155074417Y-103122670D01*
X154564441Y-101946877D01*
X154233004Y-100740149D01*
X154069758Y-99469218D01*
X154047891Y-98753743D01*
X154059845Y-98570168D01*
X157092633Y-98570168D01*
X157136189Y-99112475D01*
X157234718Y-99660695D01*
X157429267Y-100471564D01*
X157653853Y-101140940D01*
X157934362Y-101729675D01*
X158296682Y-102298626D01*
X158440200Y-102494518D01*
X159105263Y-103265641D01*
X159843581Y-103895546D01*
X160687115Y-104404608D01*
X161667827Y-104813201D01*
X162447012Y-105048745D01*
X162822757Y-105109599D01*
X163330079Y-105140353D01*
X163900538Y-105141813D01*
X164465695Y-105114787D01*
X164957111Y-105060083D01*
X165179283Y-105016509D01*
X166274308Y-104667002D01*
X167233307Y-104185757D01*
X168086970Y-103555782D01*
X168468127Y-103195778D01*
X168987369Y-102617995D01*
X169394627Y-102035125D01*
X169750977Y-101357396D01*
X169816247Y-101214343D01*
X170087649Y-100525330D01*
X170258378Y-99865810D01*
X170343695Y-99157931D01*
X170360287Y-98438654D01*
X170276114Y-97356423D01*
X170033706Y-96372068D01*
X169618437Y-95441397D01*
X169101995Y-94636653D01*
X168364876Y-93794276D01*
X167488450Y-93084481D01*
X166500597Y-92525785D01*
X165429194Y-92136706D01*
X165280478Y-92098382D01*
X164870607Y-92030174D01*
X164342855Y-91987874D01*
X163757879Y-91971496D01*
X163176339Y-91981054D01*
X162658892Y-92016564D01*
X162266198Y-92078039D01*
X162194024Y-92097652D01*
X161024504Y-92540599D01*
X160017524Y-93097062D01*
X159163191Y-93774592D01*
X158451612Y-94580739D01*
X157986417Y-95308925D01*
X157761929Y-95728854D01*
X157598836Y-96079657D01*
X157473571Y-96427390D01*
X157362569Y-96838107D01*
X157242265Y-97377862D01*
X157233448Y-97419522D01*
X157125071Y-98037672D01*
X157092633Y-98570168D01*
X154059845Y-98570168D01*
X154139438Y-97347906D01*
X154417009Y-96015020D01*
X154885319Y-94739437D01*
X155549084Y-93505514D01*
X155700305Y-93270518D01*
X155965628Y-92913829D01*
X156323481Y-92494682D01*
X156738681Y-92048081D01*
X157176044Y-91609027D01*
X157600387Y-91212526D01*
X157976527Y-90893581D01*
X158269280Y-90687195D01*
X158328499Y-90655766D01*
X158424563Y-90616001D01*
X158542220Y-90582822D01*
X158698840Y-90555772D01*
X158911791Y-90534391D01*
X159198446Y-90518223D01*
X159576173Y-90506810D01*
X160062344Y-90499695D01*
X160674327Y-90496418D01*
X161429494Y-90496524D01*
G37*
G36*
X131214739Y-79288484D02*
G01*
X132927889Y-79289717D01*
X134795003Y-79291826D01*
X136822824Y-79294713D01*
X139018095Y-79298279D01*
X141387560Y-79302425D01*
X143937960Y-79307052D01*
X146676040Y-79312060D01*
X149608542Y-79317352D01*
X150162742Y-79318336D01*
X153494776Y-79324531D01*
X156626276Y-79330967D01*
X159559098Y-79337655D01*
X162295099Y-79344603D01*
X164836134Y-79351823D01*
X167184059Y-79359322D01*
X169340732Y-79367111D01*
X171308007Y-79375200D01*
X173087742Y-79383599D01*
X174681792Y-79392316D01*
X176092013Y-79401362D01*
X177320263Y-79410746D01*
X178368396Y-79420478D01*
X179238269Y-79430567D01*
X179931739Y-79441024D01*
X180450662Y-79451858D01*
X180796893Y-79463078D01*
X180972289Y-79474695D01*
X180993661Y-79478856D01*
X181243642Y-79634745D01*
X181479230Y-79873268D01*
X181499637Y-79900815D01*
X181724701Y-80216335D01*
X181724701Y-91787322D01*
X181724701Y-103358308D01*
X182205378Y-103764187D01*
X182686055Y-104170066D01*
X182686055Y-110124903D01*
X182686055Y-116079740D01*
X182306573Y-116363177D01*
X182041690Y-116569183D01*
X181864456Y-116748801D01*
X181757122Y-116949417D01*
X181701939Y-117218417D01*
X181681157Y-117603186D01*
X181677322Y-118043073D01*
X181661356Y-118666679D01*
X181608224Y-119124900D01*
X181503734Y-119453436D01*
X181333689Y-119687984D01*
X181083897Y-119864244D01*
X180921923Y-119942883D01*
X180801624Y-119990967D01*
X180665577Y-120030315D01*
X180493370Y-120061791D01*
X180264596Y-120086258D01*
X179958845Y-120104582D01*
X179555707Y-120117625D01*
X179034775Y-120126251D01*
X178375639Y-120131324D01*
X177557890Y-120133708D01*
X176561118Y-120134267D01*
X176400621Y-120134248D01*
X172313546Y-120133534D01*
X172131024Y-120363380D01*
X171939609Y-120602294D01*
X171803130Y-120770319D01*
X171779170Y-120790532D01*
X171736477Y-120809150D01*
X171667035Y-120826239D01*
X171562830Y-120841863D01*
X171415846Y-120856089D01*
X171218068Y-120868981D01*
X170961482Y-120880605D01*
X170638071Y-120891026D01*
X170239822Y-120900309D01*
X169758718Y-120908520D01*
X169186745Y-120915723D01*
X168515888Y-120921985D01*
X167738132Y-120927370D01*
X166845461Y-120931943D01*
X165829861Y-120935771D01*
X164683316Y-120938917D01*
X163397811Y-120941448D01*
X161965331Y-120943428D01*
X160377862Y-120944924D01*
X158627387Y-120946000D01*
X156705893Y-120946721D01*
X154605363Y-120947153D01*
X152317783Y-120947361D01*
X150056738Y-120947410D01*
X128455718Y-120947410D01*
X128176374Y-120567928D01*
X128002505Y-120331852D01*
X127883630Y-120170668D01*
X127859336Y-120137849D01*
X127753449Y-120126021D01*
X127466118Y-120112836D01*
X127018283Y-120098780D01*
X126430883Y-120084337D01*
X125724856Y-120069991D01*
X124921141Y-120056228D01*
X124040678Y-120043531D01*
X123486572Y-120036653D01*
X119151503Y-119986056D01*
X118881656Y-119733068D01*
X118642501Y-119461067D01*
X118479373Y-119144062D01*
X118449558Y-119022286D01*
X123404984Y-119022286D01*
X123416833Y-119091286D01*
X123436255Y-119125896D01*
X123558180Y-119161145D01*
X123864918Y-119189692D01*
X124338977Y-119210727D01*
X124962867Y-119223438D01*
X125615591Y-119227092D01*
X126321136Y-119226460D01*
X126851646Y-119222731D01*
X127234478Y-119213153D01*
X127496987Y-119194973D01*
X127666530Y-119165442D01*
X127770462Y-119121806D01*
X127836139Y-119061315D01*
X127879219Y-118999402D01*
X127976830Y-118787122D01*
X128091276Y-118449996D01*
X128197180Y-118063347D01*
X128250077Y-117858516D01*
X131769270Y-117858516D01*
X131843599Y-118328388D01*
X132005533Y-118655813D01*
X132242350Y-118948616D01*
X132517578Y-119119880D01*
X132893142Y-119199250D01*
X133172773Y-119214667D01*
X133521006Y-119203588D01*
X133767729Y-119127720D01*
X134011383Y-118953611D01*
X134056820Y-118914262D01*
X134399242Y-118504133D01*
X134559087Y-118049966D01*
X134528722Y-117580388D01*
X134461858Y-117395208D01*
X134209980Y-116975040D01*
X140287025Y-116975040D01*
X140295628Y-117369668D01*
X140318533Y-117692349D01*
X140351001Y-117863933D01*
X140505199Y-118039958D01*
X140773716Y-118188446D01*
X141068828Y-118270042D01*
X141246613Y-118265735D01*
X141431030Y-118245237D01*
X141763348Y-118228830D01*
X142189089Y-118218696D01*
X142475044Y-118216521D01*
X143051520Y-118204671D01*
X143457675Y-118155811D01*
X143725070Y-118047263D01*
X143885266Y-117856349D01*
X143969826Y-117560389D01*
X144010309Y-117136707D01*
X144011709Y-117112347D01*
X144011128Y-116982086D01*
X156073205Y-116982086D01*
X156124654Y-117538573D01*
X156278580Y-117929003D01*
X156539355Y-118164344D01*
X156545833Y-118167616D01*
X156765243Y-118223890D01*
X157131512Y-118264814D01*
X157589622Y-118289444D01*
X158084554Y-118296840D01*
X158561292Y-118286058D01*
X158964816Y-118256157D01*
X159215502Y-118213325D01*
X159507101Y-118089161D01*
X159707002Y-117920840D01*
X159715147Y-117907902D01*
X165584063Y-117907902D01*
X165669728Y-118435833D01*
X165924479Y-118854830D01*
X166241832Y-119104075D01*
X166511032Y-119186803D01*
X166885480Y-119219652D01*
X167274176Y-119202237D01*
X167586124Y-119134169D01*
X167639919Y-119110011D01*
X167986465Y-118841725D01*
X168232897Y-118439560D01*
X168310074Y-118234109D01*
X168378552Y-117980727D01*
X168373883Y-117775853D01*
X168284974Y-117531074D01*
X168199725Y-117354571D01*
X167882682Y-116892371D01*
X167485640Y-116615486D01*
X167010046Y-116524777D01*
X166822939Y-116537470D01*
X166287898Y-116686475D01*
X165898010Y-116973715D01*
X165660895Y-117390760D01*
X165584063Y-117907902D01*
X159715147Y-117907902D01*
X159725483Y-117891482D01*
X159777937Y-117686946D01*
X159811434Y-117348468D01*
X159824828Y-116943713D01*
X159816975Y-116540345D01*
X159786731Y-116206028D01*
X159756398Y-116063631D01*
X159631708Y-115866381D01*
X159386304Y-115725884D01*
X158998635Y-115636274D01*
X158447146Y-115591684D01*
X157994422Y-115584064D01*
X157319528Y-115601381D01*
X156820030Y-115665444D01*
X156470960Y-115794420D01*
X156247353Y-116006479D01*
X156124241Y-116319786D01*
X156076657Y-116752510D01*
X156073205Y-116982086D01*
X144011128Y-116982086D01*
X144009070Y-116520650D01*
X143919890Y-116094626D01*
X143737758Y-115814098D01*
X143562502Y-115698386D01*
X143359062Y-115651385D01*
X143003970Y-115614011D01*
X142547888Y-115590357D01*
X142147583Y-115584064D01*
X141478444Y-115600830D01*
X140985623Y-115655151D01*
X140645518Y-115753058D01*
X140434525Y-115900584D01*
X140348119Y-116043976D01*
X140313163Y-116243744D01*
X140292834Y-116576915D01*
X140287025Y-116975040D01*
X134209980Y-116975040D01*
X134194553Y-116949305D01*
X133855642Y-116673212D01*
X133408206Y-116537344D01*
X133387685Y-116534429D01*
X132871937Y-116550076D01*
X132430238Y-116724049D01*
X132084573Y-117022607D01*
X131856923Y-117412009D01*
X131769270Y-117858516D01*
X128250077Y-117858516D01*
X128294754Y-117685517D01*
X128332411Y-117557371D01*
X129356175Y-117557371D01*
X129406773Y-117607968D01*
X129457370Y-117557371D01*
X129406773Y-117506773D01*
X129356175Y-117557371D01*
X128332411Y-117557371D01*
X128387672Y-117369319D01*
X128456200Y-117181782D01*
X128457461Y-117179262D01*
X128498209Y-117053169D01*
X129464650Y-117053169D01*
X129519130Y-117192929D01*
X129551746Y-117203187D01*
X129655801Y-117120169D01*
X129697730Y-117026096D01*
X130283420Y-114935520D01*
X130388307Y-114524038D01*
X149753240Y-114524038D01*
X149831275Y-114680940D01*
X150130231Y-114948741D01*
X150481296Y-115060439D01*
X150829650Y-115005714D01*
X151000159Y-114900996D01*
X151138888Y-114737469D01*
X151106708Y-114607251D01*
X150893195Y-114500435D01*
X150487927Y-114407110D01*
X150479016Y-114405529D01*
X150060854Y-114359780D01*
X149817700Y-114399806D01*
X149753240Y-114524038D01*
X130388307Y-114524038D01*
X130594899Y-113713561D01*
X149949402Y-113713561D01*
X149990996Y-113838941D01*
X150143956Y-113931442D01*
X150450546Y-114014842D01*
X150505976Y-114026694D01*
X150887877Y-114099606D01*
X151116633Y-114115452D01*
X151235181Y-114067313D01*
X151286454Y-113948268D01*
X151294862Y-113899543D01*
X151234963Y-113694665D01*
X151030502Y-113523913D01*
X150739200Y-113414795D01*
X150418778Y-113394818D01*
X150288432Y-113419904D01*
X150029358Y-113542314D01*
X149949402Y-113713561D01*
X130594899Y-113713561D01*
X130781792Y-112980367D01*
X130912481Y-112428790D01*
X131018919Y-112162086D01*
X131134472Y-111998710D01*
X131167859Y-111979162D01*
X131232899Y-111961267D01*
X131338102Y-111944954D01*
X131491978Y-111930151D01*
X131703037Y-111916785D01*
X131979790Y-111904786D01*
X132330747Y-111894080D01*
X132764419Y-111884597D01*
X133289317Y-111876264D01*
X133913950Y-111869009D01*
X134646829Y-111862762D01*
X135496465Y-111857449D01*
X136471368Y-111852999D01*
X137580049Y-111849340D01*
X138831017Y-111846400D01*
X140232784Y-111844107D01*
X141793860Y-111842391D01*
X143522754Y-111841177D01*
X145427979Y-111840396D01*
X147518044Y-111839975D01*
X149801459Y-111839841D01*
X149950043Y-111839841D01*
X152143689Y-111840344D01*
X154235302Y-111841829D01*
X156217655Y-111844260D01*
X158083525Y-111847602D01*
X159825687Y-111851820D01*
X161436915Y-111856877D01*
X162909987Y-111862738D01*
X164237677Y-111869368D01*
X165412761Y-111876730D01*
X166428014Y-111884789D01*
X167276212Y-111893509D01*
X167950129Y-111902855D01*
X168442543Y-111912792D01*
X168746227Y-111923283D01*
X168851948Y-111933067D01*
X168978868Y-112008217D01*
X169080215Y-112149854D01*
X169175088Y-112398870D01*
X169282586Y-112796154D01*
X169312775Y-112919721D01*
X169493794Y-113656019D01*
X169678928Y-114384432D01*
X169860608Y-115077459D01*
X170031270Y-115707599D01*
X170183346Y-116247349D01*
X170309269Y-116669209D01*
X170401473Y-116945678D01*
X170448173Y-117046335D01*
X170522061Y-117214382D01*
X170545706Y-117400518D01*
X170558418Y-117569322D01*
X170606063Y-117554546D01*
X170651301Y-117482599D01*
X170702051Y-117204645D01*
X170655350Y-116926025D01*
X170579911Y-116608995D01*
X170491732Y-116202833D01*
X170438087Y-115938247D01*
X170356295Y-115538336D01*
X170249372Y-115039748D01*
X170138470Y-114540833D01*
X170122540Y-114470916D01*
X170007887Y-113969798D01*
X169887570Y-113444105D01*
X169834989Y-113214456D01*
X170676246Y-113214456D01*
X170698632Y-113338617D01*
X170776656Y-113576830D01*
X170880135Y-113984049D01*
X171012533Y-114574134D01*
X171044616Y-114723904D01*
X171099641Y-114959798D01*
X171195469Y-115347487D01*
X171321037Y-115843135D01*
X171465285Y-116402905D01*
X171555281Y-116747809D01*
X171701918Y-117311685D01*
X171833102Y-117824756D01*
X171938826Y-118247211D01*
X172009081Y-118539241D01*
X172030772Y-118639119D01*
X172087377Y-118843177D01*
X172186990Y-119001451D01*
X172352794Y-119119262D01*
X172607972Y-119201931D01*
X172975705Y-119254778D01*
X173479177Y-119283124D01*
X174141570Y-119292292D01*
X174861495Y-119288841D01*
X175381930Y-119278959D01*
X175829003Y-119261099D01*
X176164194Y-119237514D01*
X176348984Y-119210455D01*
X176370990Y-119200590D01*
X176410603Y-119138594D01*
X176374584Y-119089629D01*
X176239812Y-119050061D01*
X175983164Y-119016260D01*
X175581518Y-118984592D01*
X175011752Y-118951426D01*
X174673944Y-118934018D01*
X174098844Y-118898838D01*
X173582172Y-118855555D01*
X173163409Y-118808377D01*
X172882036Y-118761510D01*
X172792050Y-118733492D01*
X172614544Y-118549727D01*
X172475440Y-118249868D01*
X179343114Y-118249868D01*
X179422041Y-118610095D01*
X179662309Y-118951184D01*
X179863103Y-119139686D01*
X179981181Y-119196085D01*
X180070719Y-119137350D01*
X180106990Y-119090480D01*
X180170172Y-118952856D01*
X180155446Y-118771865D01*
X180055084Y-118486866D01*
X180018984Y-118400013D01*
X179827337Y-118023379D01*
X179653284Y-117839022D01*
X179500882Y-117850285D01*
X179439145Y-117922107D01*
X179343114Y-118249868D01*
X172475440Y-118249868D01*
X172471573Y-118241533D01*
X172455737Y-118188190D01*
X172357652Y-117846864D01*
X172261479Y-117526828D01*
X180203583Y-117526828D01*
X180204750Y-117643150D01*
X180260512Y-117885056D01*
X180351463Y-118189754D01*
X180458199Y-118494450D01*
X180561315Y-118736353D01*
X180597758Y-118802354D01*
X180733355Y-118902140D01*
X180874455Y-118819267D01*
X180993981Y-118570825D01*
X181000748Y-118547997D01*
X181019774Y-118171856D01*
X180881980Y-117834844D01*
X180617317Y-117600426D01*
X180537396Y-117566183D01*
X180320910Y-117514054D01*
X180203583Y-117526828D01*
X172261479Y-117526828D01*
X172231193Y-117426046D01*
X172146361Y-117152590D01*
X172043818Y-116825067D01*
X171959161Y-116546552D01*
X171873563Y-116252689D01*
X171768198Y-115879122D01*
X171657921Y-115482869D01*
X171563675Y-115160140D01*
X171477437Y-114891626D01*
X171453386Y-114825100D01*
X171378909Y-114603901D01*
X171284933Y-114289496D01*
X171250794Y-114167331D01*
X171095958Y-113623556D01*
X170929210Y-113093888D01*
X170899493Y-113003586D01*
X170838868Y-112862480D01*
X170773687Y-112909171D01*
X170729746Y-112984433D01*
X170676246Y-113214456D01*
X169834989Y-113214456D01*
X169785476Y-112998208D01*
X169775119Y-112952988D01*
X169677753Y-112548207D01*
X170542629Y-112548207D01*
X170579655Y-112631502D01*
X170610093Y-112615671D01*
X170622204Y-112495576D01*
X170610093Y-112480744D01*
X170549932Y-112494635D01*
X170542629Y-112548207D01*
X169677753Y-112548207D01*
X169633551Y-112364443D01*
X169513407Y-111941437D01*
X169402414Y-111649946D01*
X169288298Y-111455944D01*
X169200759Y-111360626D01*
X169169265Y-111338851D01*
X169119223Y-111318886D01*
X169042018Y-111300639D01*
X168929029Y-111284015D01*
X168771640Y-111268922D01*
X168561232Y-111255268D01*
X168289187Y-111242959D01*
X167946888Y-111231902D01*
X167525715Y-111222006D01*
X167017052Y-111213176D01*
X166412279Y-111205320D01*
X165702780Y-111198346D01*
X164879936Y-111192159D01*
X163935128Y-111186668D01*
X162859740Y-111181780D01*
X161645152Y-111177401D01*
X160282748Y-111173439D01*
X158763908Y-111169800D01*
X157080014Y-111166393D01*
X155222450Y-111163124D01*
X153182596Y-111159901D01*
X150951835Y-111156630D01*
X150166474Y-111155516D01*
X147651949Y-111152370D01*
X145335159Y-111150318D01*
X143211455Y-111149382D01*
X141276183Y-111149582D01*
X139524692Y-111150938D01*
X137952331Y-111153471D01*
X136554448Y-111157202D01*
X135326392Y-111162151D01*
X134263510Y-111168339D01*
X133361152Y-111175787D01*
X132614666Y-111184514D01*
X132019400Y-111194542D01*
X131570703Y-111205891D01*
X131263923Y-111218582D01*
X131094408Y-111232635D01*
X131059876Y-111240093D01*
X130820877Y-111416894D01*
X130686758Y-111620833D01*
X130609423Y-111866848D01*
X130500529Y-112275057D01*
X130368674Y-112809288D01*
X130222454Y-113433367D01*
X130070469Y-114111122D01*
X129921314Y-114806381D01*
X129865026Y-115078088D01*
X129764847Y-115552841D01*
X129668578Y-115984439D01*
X129589442Y-116314810D01*
X129552345Y-116451408D01*
X129475736Y-116789175D01*
X129464650Y-117053169D01*
X128498209Y-117053169D01*
X128535044Y-116939185D01*
X128546613Y-116832263D01*
X128575325Y-116614926D01*
X128640951Y-116350213D01*
X128728191Y-116044980D01*
X128824349Y-115684083D01*
X128843342Y-115609363D01*
X128943452Y-115210896D01*
X129046896Y-114799157D01*
X129059446Y-114749203D01*
X129150419Y-114397918D01*
X129238897Y-114072494D01*
X129255106Y-114015538D01*
X129313561Y-113744603D01*
X129370781Y-113370415D01*
X129401160Y-113104781D01*
X129427344Y-112786623D01*
X129423763Y-112647742D01*
X129387035Y-112666754D01*
X129345164Y-112750598D01*
X129224363Y-113028032D01*
X129122969Y-113293315D01*
X129018681Y-113610720D01*
X128889195Y-114044520D01*
X128853558Y-114167331D01*
X128736348Y-114568393D01*
X128630623Y-114923020D01*
X128557216Y-115161427D01*
X128551447Y-115179283D01*
X128472980Y-115435724D01*
X128376059Y-115772743D01*
X128344223Y-115887649D01*
X128248642Y-116225760D01*
X128159647Y-116523242D01*
X128136450Y-116596016D01*
X128070181Y-116805134D01*
X127964184Y-117147536D01*
X127837135Y-117562725D01*
X127782921Y-117741180D01*
X127641530Y-118180908D01*
X127525236Y-118463858D01*
X127412545Y-118630204D01*
X127281961Y-118720122D01*
X127252776Y-118732102D01*
X127068743Y-118769744D01*
X126721364Y-118812228D01*
X126249505Y-118855870D01*
X125692030Y-118896984D01*
X125214654Y-118925360D01*
X124637723Y-118956061D01*
X124135323Y-118982873D01*
X123740464Y-119004029D01*
X123486157Y-119017760D01*
X123404984Y-119022286D01*
X118449558Y-119022286D01*
X118431017Y-118946555D01*
X120271721Y-118946555D01*
X120363400Y-119016526D01*
X120468254Y-119021521D01*
X120701289Y-118938143D01*
X120891035Y-118761592D01*
X121010922Y-118459054D01*
X121009975Y-118112165D01*
X120895304Y-117809791D01*
X120806934Y-117710620D01*
X120634782Y-117634442D01*
X120508079Y-117740365D01*
X120417542Y-118037171D01*
X120408409Y-118087528D01*
X120348337Y-118424866D01*
X120291146Y-118728951D01*
X120287702Y-118746414D01*
X120271721Y-118946555D01*
X118431017Y-118946555D01*
X118380417Y-118739879D01*
X118359759Y-118503554D01*
X119361702Y-118503554D01*
X119442604Y-118727768D01*
X119599571Y-118892751D01*
X119769762Y-118903169D01*
X119877797Y-118778546D01*
X119918291Y-118605033D01*
X119966772Y-118302264D01*
X120004161Y-118008346D01*
X120039388Y-117669158D01*
X120040074Y-117493083D01*
X119995816Y-117442291D01*
X119896210Y-117478950D01*
X119863356Y-117496320D01*
X119545303Y-117763763D01*
X119371754Y-118118038D01*
X119361702Y-118503554D01*
X118359759Y-118503554D01*
X118333778Y-118206345D01*
X118325896Y-117755906D01*
X118325896Y-116714218D01*
X117921115Y-116393626D01*
X117516334Y-116073033D01*
X117516334Y-110213462D01*
X118258385Y-110213462D01*
X118263540Y-110976843D01*
X118275893Y-111704990D01*
X118295436Y-112368235D01*
X118322160Y-112936910D01*
X118356056Y-113381349D01*
X118397116Y-113671884D01*
X118426662Y-113762550D01*
X118508552Y-113887305D01*
X118559839Y-113901971D01*
X118595200Y-113779022D01*
X118629315Y-113490935D01*
X118642523Y-113357769D01*
X118659917Y-113079352D01*
X118675759Y-112633181D01*
X118689371Y-112053889D01*
X118700072Y-111376110D01*
X118707184Y-110634478D01*
X118708019Y-110420435D01*
X181677871Y-110420435D01*
X181678727Y-111198684D01*
X181682545Y-111936606D01*
X181689402Y-112607234D01*
X181699379Y-113183600D01*
X181712554Y-113638737D01*
X181729007Y-113945678D01*
X181744303Y-114065379D01*
X181811739Y-114317610D01*
X181904704Y-114014781D01*
X181927200Y-113843442D01*
X181948471Y-113495753D01*
X181967782Y-112997754D01*
X181984400Y-112375486D01*
X181997593Y-111654987D01*
X182006626Y-110862297D01*
X182010108Y-110271315D01*
X182010919Y-109110279D01*
X182003932Y-108143466D01*
X181988694Y-107362845D01*
X181964752Y-106760380D01*
X181931653Y-106328040D01*
X181888944Y-106057790D01*
X181836173Y-105941598D01*
X181772886Y-105971430D01*
X181768085Y-105978725D01*
X181748111Y-106108772D01*
X181730463Y-106414230D01*
X181715221Y-106868131D01*
X181702464Y-107443508D01*
X181692271Y-108113395D01*
X181684722Y-108850823D01*
X181679895Y-109628825D01*
X181677871Y-110420435D01*
X118708019Y-110420435D01*
X118709984Y-109917132D01*
X118708251Y-109157509D01*
X118701853Y-108438887D01*
X118691449Y-107793747D01*
X118683896Y-107497646D01*
X119945020Y-107497646D01*
X120193408Y-107746034D01*
X120441796Y-107994422D01*
X150096595Y-107994422D01*
X152997086Y-107994411D01*
X155702058Y-107994348D01*
X158218386Y-107994184D01*
X160552941Y-107993875D01*
X162712596Y-107993373D01*
X164704223Y-107992631D01*
X166534696Y-107991604D01*
X168210887Y-107990244D01*
X169739668Y-107988505D01*
X171127913Y-107986341D01*
X172382493Y-107983704D01*
X173510282Y-107980549D01*
X174518152Y-107976828D01*
X175412976Y-107972495D01*
X176201625Y-107967504D01*
X176890974Y-107961807D01*
X177487894Y-107955359D01*
X177999259Y-107948112D01*
X178431940Y-107940021D01*
X178792810Y-107931038D01*
X179088743Y-107921117D01*
X179326610Y-107910211D01*
X179513285Y-107898274D01*
X179655639Y-107885260D01*
X179760546Y-107871120D01*
X179834878Y-107855810D01*
X179885508Y-107839282D01*
X179919308Y-107821490D01*
X179943151Y-107802387D01*
X179953785Y-107792032D01*
X179989386Y-107752695D01*
X180020548Y-107701901D01*
X180047566Y-107626716D01*
X180070735Y-107514206D01*
X180090351Y-107351438D01*
X180106710Y-107125477D01*
X180120107Y-106823390D01*
X180130838Y-106432243D01*
X180139199Y-105939103D01*
X180145484Y-105331034D01*
X180149990Y-104595104D01*
X180153012Y-103718378D01*
X180154846Y-102687924D01*
X180155787Y-101490806D01*
X180156131Y-100114091D01*
X180156175Y-98935963D01*
X180156175Y-90282284D01*
X179827291Y-90081759D01*
X179792971Y-90062105D01*
X179752104Y-90043778D01*
X179697773Y-90026732D01*
X179623059Y-90010922D01*
X179521047Y-89996300D01*
X179384819Y-89982820D01*
X179207458Y-89970435D01*
X178982049Y-89959098D01*
X178701673Y-89948764D01*
X178359413Y-89939386D01*
X177948354Y-89930916D01*
X177461578Y-89923310D01*
X176892167Y-89916519D01*
X176233206Y-89910498D01*
X175477777Y-89905200D01*
X174618964Y-89900578D01*
X173649849Y-89896586D01*
X172563515Y-89893177D01*
X171353047Y-89890305D01*
X170011526Y-89887923D01*
X168532035Y-89885985D01*
X166907659Y-89884445D01*
X165131480Y-89883254D01*
X163196580Y-89882368D01*
X161096044Y-89881740D01*
X158822955Y-89881322D01*
X156370394Y-89881069D01*
X153731447Y-89880933D01*
X150899194Y-89880869D01*
X149970101Y-89880856D01*
X120441796Y-89880478D01*
X120193408Y-90128866D01*
X119945020Y-90377255D01*
X119945020Y-98937450D01*
X119945020Y-107497646D01*
X118683896Y-107497646D01*
X118677695Y-107254568D01*
X118661250Y-106853830D01*
X118643373Y-106628287D01*
X118599621Y-106334960D01*
X118560670Y-106216609D01*
X118504368Y-106247623D01*
X118424549Y-106375299D01*
X118379082Y-106554632D01*
X118340872Y-106906403D01*
X118309911Y-107400944D01*
X118286190Y-108008588D01*
X118269701Y-108699667D01*
X118260435Y-109444514D01*
X118258385Y-110213462D01*
X117516334Y-110213462D01*
X117516334Y-110033712D01*
X117516334Y-103994392D01*
X117908919Y-103751761D01*
X118301503Y-103509130D01*
X118374526Y-93785442D01*
X118384620Y-92360474D01*
X118393334Y-90965537D01*
X118400626Y-89617550D01*
X118406457Y-88333436D01*
X118410784Y-87130115D01*
X118413567Y-86024508D01*
X118414766Y-85033537D01*
X118414480Y-84457230D01*
X121968924Y-84457230D01*
X121969301Y-85335940D01*
X121971416Y-86034865D01*
X121976747Y-86576609D01*
X121986771Y-86983775D01*
X122002963Y-87278968D01*
X122026802Y-87484793D01*
X122059764Y-87623854D01*
X122103326Y-87718755D01*
X122158966Y-87792100D01*
X122188954Y-87824753D01*
X122408984Y-88058964D01*
X150114893Y-88058964D01*
X177820801Y-88058964D01*
X178027133Y-87837492D01*
X178084820Y-87767923D01*
X178130626Y-87681842D01*
X178165918Y-87556837D01*
X178192063Y-87370496D01*
X178210428Y-87100405D01*
X178222382Y-86724153D01*
X178229289Y-86219326D01*
X178232519Y-85563511D01*
X178233437Y-84734297D01*
X178233466Y-84454797D01*
X178233466Y-81398856D01*
X179447808Y-81398856D01*
X179511921Y-81551545D01*
X179666254Y-81751350D01*
X179667839Y-81753040D01*
X179973868Y-81942883D01*
X180347894Y-81980638D01*
X180668804Y-81882495D01*
X180841585Y-81734441D01*
X180815544Y-81588195D01*
X180594154Y-81451759D01*
X180461354Y-81404719D01*
X180083968Y-81314036D01*
X179757174Y-81283506D01*
X179529128Y-81313407D01*
X179447808Y-81398856D01*
X178233466Y-81398856D01*
X178233466Y-81293574D01*
X177966831Y-81083839D01*
X177700196Y-80874104D01*
X149992091Y-80874104D01*
X122283986Y-80874104D01*
X122126455Y-81099011D01*
X122081293Y-81188291D01*
X122045443Y-81327369D01*
X122017887Y-81537935D01*
X121997609Y-81841675D01*
X121983592Y-82260276D01*
X121974817Y-82815428D01*
X121970267Y-83528818D01*
X121968925Y-84422133D01*
X121968924Y-84457230D01*
X118414480Y-84457230D01*
X118414340Y-84174122D01*
X118412247Y-83463185D01*
X118408448Y-82917646D01*
X118402902Y-82554427D01*
X118401676Y-82508412D01*
X118390329Y-81876617D01*
X119888588Y-81876617D01*
X120059153Y-81982426D01*
X120316617Y-81960784D01*
X120601730Y-81824245D01*
X120762366Y-81691450D01*
X120957645Y-81433774D01*
X121053220Y-81179314D01*
X121042175Y-80977439D01*
X120917596Y-80877515D01*
X120876846Y-80874104D01*
X120712971Y-80940298D01*
X120488931Y-81108354D01*
X120249864Y-81332479D01*
X120040914Y-81566881D01*
X119907220Y-81765768D01*
X119888588Y-81876617D01*
X118390329Y-81876617D01*
X118387178Y-81701187D01*
X118396683Y-81206685D01*
X119370104Y-81206685D01*
X119433799Y-81358252D01*
X119497720Y-81380080D01*
X119603279Y-81319880D01*
X119814339Y-81162843D01*
X120057470Y-80965876D01*
X120384651Y-80665010D01*
X120409988Y-80629511D01*
X179549004Y-80629511D01*
X179642659Y-80745165D01*
X179895624Y-80864261D01*
X180265897Y-80969367D01*
X180459761Y-81007484D01*
X180801223Y-81038583D01*
X180989138Y-80980866D01*
X181040921Y-80901682D01*
X181000247Y-80744110D01*
X180835874Y-80553267D01*
X180607939Y-80380529D01*
X180376579Y-80277274D01*
X180297953Y-80266932D01*
X180015671Y-80309886D01*
X179753000Y-80416050D01*
X179580267Y-80551376D01*
X179549004Y-80629511D01*
X120409988Y-80629511D01*
X120534694Y-80454791D01*
X120508187Y-80329038D01*
X120305719Y-80281573D01*
X120122111Y-80286413D01*
X119829197Y-80330552D01*
X119649461Y-80445420D01*
X119497740Y-80680403D01*
X119391418Y-80960880D01*
X119370104Y-81206685D01*
X118396683Y-81206685D01*
X118399340Y-81068443D01*
X118441617Y-80583607D01*
X118517464Y-80220105D01*
X118630336Y-79951362D01*
X118756539Y-79779136D01*
X118797455Y-79729647D01*
X118830502Y-79683410D01*
X118862424Y-79640325D01*
X118899964Y-79600294D01*
X118949865Y-79563216D01*
X119018870Y-79528994D01*
X119113721Y-79497529D01*
X119241162Y-79468721D01*
X119407936Y-79442471D01*
X119620786Y-79418682D01*
X119886455Y-79397253D01*
X120211685Y-79378085D01*
X120603221Y-79361081D01*
X121067804Y-79346140D01*
X121612179Y-79333165D01*
X122243087Y-79322055D01*
X122967273Y-79312713D01*
X123791478Y-79305038D01*
X124722446Y-79298933D01*
X125766921Y-79294299D01*
X126931644Y-79291035D01*
X128223360Y-79289044D01*
X129648811Y-79288227D01*
X131214739Y-79288484D01*
G37*
%TD*%
D10*
%TO.C,D3*%
X138000000Y-89500000D03*
D11*
X135460000Y-89500000D03*
%TD*%
D12*
%TO.C,D12*%
X171731310Y-96044419D03*
D11*
X170274426Y-93963773D03*
%TD*%
D10*
%TO.C,D8*%
X148225000Y-108000000D03*
D11*
X150765000Y-108000000D03*
%TD*%
D13*
%TO.C,D5*%
X127768690Y-101455581D03*
D11*
X129225574Y-103536227D03*
%TD*%
D14*
%TO.C,D14*%
X157500000Y-92955581D03*
D11*
X156043116Y-95036227D03*
%TD*%
D10*
%TO.C,D6*%
X132725000Y-108000000D03*
D11*
X135265000Y-108000000D03*
%TD*%
D14*
%TO.C,D4*%
X129731310Y-92455581D03*
D11*
X128274426Y-94536227D03*
%TD*%
D15*
%TO.C,D11*%
X169500000Y-104500000D03*
D11*
X170956884Y-102419354D03*
%TD*%
D10*
%TO.C,D9*%
X155225000Y-108000000D03*
D11*
X157765000Y-108000000D03*
%TD*%
D10*
%TO.C,D13*%
X164775000Y-90500000D03*
D11*
X162235000Y-90500000D03*
%TD*%
D10*
%TO.C,D7*%
X140725000Y-108000000D03*
D11*
X143265000Y-108000000D03*
%TD*%
D12*
%TO.C,D2*%
X145731310Y-94044419D03*
D11*
X144274426Y-91963773D03*
%TD*%
D16*
%TO.C,D1*%
X145862500Y-102231555D03*
D11*
X146519900Y-99778103D03*
%TD*%
D13*
%TO.C,D15*%
X155500000Y-100955581D03*
D11*
X156956884Y-103036227D03*
%TD*%
D10*
%TO.C,D10*%
X162460000Y-108000000D03*
D11*
X165000000Y-108000000D03*
%TD*%
D17*
%TO.C,R1*%
X154620000Y-118000000D03*
D18*
X147000000Y-118000000D03*
%TD*%
D19*
%TO.C,J1*%
X147975000Y-86000000D03*
D20*
X147975000Y-83460000D03*
X150515000Y-86000000D03*
X150515000Y-83460000D03*
X153055000Y-86000000D03*
X153055000Y-83460000D03*
%TD*%
M02*
