%TF.GenerationSoftware,KiCad,Pcbnew,7.0.7*%
%TF.CreationDate,2024-03-11T11:39:52-07:00*%
%TF.ProjectId,DC32_Cassette_SAO,44433332-5f43-4617-9373-657474655f53,rev?*%
%TF.SameCoordinates,Original*%
%TF.FileFunction,Soldermask,Bot*%
%TF.FilePolarity,Negative*%
%FSLAX46Y46*%
G04 Gerber Fmt 4.6, Leading zero omitted, Abs format (unit mm)*
G04 Created by KiCad (PCBNEW 7.0.7) date 2024-03-11 11:39:52*
%MOMM*%
%LPD*%
G01*
G04 APERTURE LIST*
G04 Aperture macros list*
%AMRotRect*
0 Rectangle, with rotation*
0 The origin of the aperture is its center*
0 $1 length*
0 $2 width*
0 $3 Rotation angle, in degrees counterclockwise*
0 Add horizontal line*
21,1,$1,$2,0,0,$3*%
G04 Aperture macros list end*
%ADD10R,1.800000X1.800000*%
%ADD11C,1.800000*%
%ADD12RotRect,1.800000X1.800000X125.000000*%
%ADD13RotRect,1.800000X1.800000X305.000000*%
%ADD14RotRect,1.800000X1.800000X235.000000*%
%ADD15RotRect,1.800000X1.800000X55.000000*%
%ADD16RotRect,1.800000X1.800000X75.000000*%
%ADD17C,1.600000*%
%ADD18O,1.600000X1.600000*%
%ADD19R,1.700000X1.700000*%
%ADD20O,1.700000X1.700000*%
G04 APERTURE END LIST*
D10*
%TO.C,D3*%
X138000000Y-89500000D03*
D11*
X135460000Y-89500000D03*
%TD*%
D12*
%TO.C,D12*%
X171731310Y-96044419D03*
D11*
X170274426Y-93963773D03*
%TD*%
D10*
%TO.C,D8*%
X148225000Y-108000000D03*
D11*
X150765000Y-108000000D03*
%TD*%
D13*
%TO.C,D5*%
X127768690Y-101455581D03*
D11*
X129225574Y-103536227D03*
%TD*%
D14*
%TO.C,D14*%
X157500000Y-92955581D03*
D11*
X156043116Y-95036227D03*
%TD*%
D10*
%TO.C,D6*%
X132725000Y-108000000D03*
D11*
X135265000Y-108000000D03*
%TD*%
D14*
%TO.C,D4*%
X129731310Y-92455581D03*
D11*
X128274426Y-94536227D03*
%TD*%
D15*
%TO.C,D11*%
X169500000Y-104500000D03*
D11*
X170956884Y-102419354D03*
%TD*%
D10*
%TO.C,D9*%
X155225000Y-108000000D03*
D11*
X157765000Y-108000000D03*
%TD*%
D10*
%TO.C,D13*%
X164775000Y-90500000D03*
D11*
X162235000Y-90500000D03*
%TD*%
D10*
%TO.C,D7*%
X140725000Y-108000000D03*
D11*
X143265000Y-108000000D03*
%TD*%
D12*
%TO.C,D2*%
X145731310Y-94044419D03*
D11*
X144274426Y-91963773D03*
%TD*%
D16*
%TO.C,D1*%
X145862500Y-102231555D03*
D11*
X146519900Y-99778103D03*
%TD*%
D13*
%TO.C,D15*%
X155500000Y-100955581D03*
D11*
X156956884Y-103036227D03*
%TD*%
D10*
%TO.C,D10*%
X162460000Y-108000000D03*
D11*
X165000000Y-108000000D03*
%TD*%
D17*
%TO.C,R1*%
X154620000Y-118000000D03*
D18*
X147000000Y-118000000D03*
%TD*%
D19*
%TO.C,J1*%
X147975000Y-86000000D03*
D20*
X147975000Y-83460000D03*
X150515000Y-86000000D03*
X150515000Y-83460000D03*
X153055000Y-86000000D03*
X153055000Y-83460000D03*
%TD*%
M02*
