<?xml version="1.0" encoding="UTF-8" standalone="no"?>
<!-- Created with Inkscape (http://www.inkscape.org/) -->

<svg
   width="210mm"
   height="297mm"
   viewBox="0 0 210 297"
   version="1.1"
   id="svg5"
   xml:space="preserve"
   inkscape:version="1.2.2 (732a01da63, 2022-12-09)"
   sodipodi:docname="dc32-logo-2color-halftonegradient.svg"
   xmlns:inkscape="http://www.inkscape.org/namespaces/inkscape"
   xmlns:sodipodi="http://sodipodi.sourceforge.net/DTD/sodipodi-0.dtd"
   xmlns="http://www.w3.org/2000/svg"
   xmlns:svg="http://www.w3.org/2000/svg"><sodipodi:namedview
     id="namedview7"
     pagecolor="#ffffff"
     bordercolor="#000000"
     borderopacity="0.25"
     inkscape:showpageshadow="2"
     inkscape:pageopacity="0.0"
     inkscape:pagecheckerboard="0"
     inkscape:deskcolor="#d1d1d1"
     inkscape:document-units="mm"
     showgrid="false"
     inkscape:zoom="0.914906"
     inkscape:cx="395.12256"
     inkscape:cy="561.80635"
     inkscape:window-width="3440"
     inkscape:window-height="1379"
     inkscape:window-x="-8"
     inkscape:window-y="30"
     inkscape:window-maximized="1"
     inkscape:current-layer="layer1" /><defs
     id="defs2" /><g
     inkscape:label="Layer 1"
     inkscape:groupmode="layer"
     id="layer1"><path
       style="fill:#000000;stroke-width:0.101899"
       d="m 32.831358,41.827513 c -0.2319,-0.23749 -0.377325,-0.484792 -0.377325,-0.641662 0,-0.320478 0.682659,-1.009898 0.999995,-1.009898 0.337189,0 0.479423,0.38436 0.282614,0.763708 -0.140036,0.269919 -0.139756,0.324574 0.0029,0.542076 0.09431,0.143941 0.13358,0.341163 0.09697,0.487042 -0.09809,0.390833 -0.547044,0.327726 -1.005005,-0.141266 z m 1.732281,0 c -0.491213,-0.503047 -0.489182,-0.787686 0.0091,-1.274234 0.449168,-0.438599 0.790701,-0.487146 0.951063,-0.135189 0.08725,0.191477 0.07368,0.298076 -0.06485,0.509494 -0.164998,0.25182 -0.165113,0.282718 -0.002,0.531701 0.106484,0.162514 0.149504,0.358782 0.111677,0.509494 -0.09809,0.390833 -0.547044,0.327726 -1.005003,-0.141266 z m 1.686098,-0.0462 c -0.238174,-0.242681 -0.433045,-0.533371 -0.433045,-0.645975 0,-0.26675 0.711372,-0.959387 0.985332,-0.959387 0.372023,0 0.491219,0.253137 0.337916,0.717646 -0.108187,0.327812 -0.109175,0.451306 -0.0052,0.645645 0.184951,0.345582 0.102292,0.618282 -0.198088,0.653521 -0.186887,0.02192 -0.368196,-0.08667 -0.686945,-0.41145 z m 1.880971,0.36899 c -0.03973,-0.03973 -0.07224,-0.502311 -0.07224,-1.027954 V 40.16664 l 0.687816,0.03013 c 0.530072,0.02322 0.687817,0.06518 0.687817,0.182979 0,0.103069 -0.124444,0.163146 -0.382119,0.184475 -0.279242,0.02311 -0.382121,0.07824 -0.382121,0.20478 0,0.127627 0.08708,0.172898 0.331172,0.172173 0.266221,-8.66e-4 0.337558,0.04398 0.363733,0.228285 0.02854,0.201026 -0.01225,0.229272 -0.331172,0.229272 -0.514352,0 -0.498385,0.28225 0.0184,0.325022 0.303644,0.02513 0.382118,0.07348 0.382118,0.235422 0,0.178022 -0.07786,0.207565 -0.615573,0.233582 -0.338566,0.01638 -0.648083,-0.0026 -0.687816,-0.04246 z m 1.604238,-0.06512 c -0.03019,-0.07867 -0.04145,-0.528968 -0.02501,-1.00066 0.0273,-0.783824 0.04838,-0.860264 0.244994,-0.888329 0.150926,-0.02155 0.353231,0.122899 0.677907,0.484018 0.254531,0.283102 0.49017,0.514728 0.523641,0.514728 0.03347,0 0.06086,-0.229272 0.06086,-0.509494 0,-0.475529 0.01698,-0.509494 0.254746,-0.509494 0.253914,0 0.254746,0.0032 0.254746,0.971236 0,1.257431 -0.115432,1.328173 -0.875917,0.536804 l -0.540984,-0.562956 -0.03032,0.520973 c -0.02631,0.452022 -0.06072,0.525288 -0.260043,0.553592 -0.128386,0.01823 -0.253939,-0.03048 -0.284615,-0.110418 z m 2.728101,-0.06954 c -0.620322,-0.389245 -0.67024,-1.110371 -0.109525,-1.582185 0.206942,-0.174128 0.427216,-0.257051 0.680327,-0.256109 0.623747,0.0023 0.832846,0.09622 0.832846,0.374005 0,0.214755 -0.03211,0.238524 -0.229272,0.169712 -0.579721,-0.202323 -1.095411,0.02652 -1.095411,0.486077 0,0.253088 0.278789,0.497296 0.567719,0.497296 0.274275,0 0.332937,-0.149198 0.09462,-0.240647 -0.08407,-0.03226 -0.152846,-0.128875 -0.152846,-0.2147 0,-0.11412 0.109507,-0.156046 0.407594,-0.156046 h 0.407595 v 0.45253 c 0,0.518746 -0.02968,0.5482 -0.628418,0.623754 -0.337794,0.04263 -0.519918,0.0065 -0.77523,-0.153687 z m 1.563366,0.107506 c -0.03086,-0.04993 0.134149,-0.508475 0.366685,-1.018989 0.376925,-0.827503 0.451892,-0.928203 0.691014,-0.928203 0.240971,0 0.307495,0.09275 0.654825,0.913007 0.212631,0.502155 0.357127,0.960699 0.321105,1.018988 -0.113086,0.182973 -0.34793,0.115967 -0.521389,-0.148767 -0.12092,-0.18455 -0.257455,-0.254746 -0.495485,-0.254746 -0.251591,0 -0.355764,0.05969 -0.444642,0.254746 -0.113791,0.249748 -0.458108,0.348427 -0.572113,0.163964 z m 1.164965,-0.984041 c 0,-0.206933 -0.174322,-0.269852 -0.244069,-0.08809 -0.09956,0.259439 -0.07186,0.345258 0.09122,0.282677 0.08407,-0.03226 0.152849,-0.119823 0.152849,-0.194585 z m 1.458562,0.876099 c -1.195145,-0.728732 -0.20514,-2.248717 1.133224,-1.739872 0.254384,0.09671 0.349658,0.343531 0.174414,0.451837 -0.04783,0.02956 -0.22662,0.0012 -0.397312,-0.06339 -0.602326,-0.227355 -1.119174,0.441638 -0.68028,0.880532 0.176786,0.176786 0.655064,0.219301 0.655064,0.05823 0,-0.05604 -0.06878,-0.1019 -0.152849,-0.1019 -0.08492,0 -0.152846,-0.09058 -0.152846,-0.203796 0,-0.169833 0.06793,-0.203798 0.407595,-0.203798 h 0.407594 v 0.448576 c 0,0.411529 -0.02652,0.457816 -0.320903,0.560444 -0.456389,0.159097 -0.70305,0.139143 -1.073701,-0.08686 z m 1.772543,0.135102 c -0.03973,-0.03973 -0.07224,-0.502311 -0.07224,-1.027954 V 40.16664 l 0.686762,0.03013 c 0.558711,0.02452 0.693105,0.06338 0.720765,0.208452 0.02787,0.146211 -0.04075,0.178323 -0.381067,0.178323 -0.32824,0 -0.415067,0.03751 -0.415067,0.179307 0,0.134568 0.08264,0.179062 0.331172,0.178325 0.266221,-8.66e-4 0.337555,0.04398 0.36373,0.228285 0.02854,0.201026 -0.01225,0.229272 -0.331169,0.229272 -0.514355,0 -0.498385,0.28225 0.0184,0.325022 0.303644,0.02513 0.382118,0.07348 0.382118,0.235422 0,0.178022 -0.07786,0.207565 -0.615573,0.233582 -0.338566,0.01638 -0.648083,-0.0026 -0.687816,-0.04246 z M 22.764459,39.322948 c -0.201211,-0.07192 -0.52652,-0.253331 -0.72291,-0.403124 -0.196389,-0.149793 -0.427374,-0.272354 -0.513299,-0.272354 -0.08593,0 -0.212893,-0.06827 -0.28215,-0.151725 -0.153086,-0.184458 -0.306627,-0.10891 -0.306627,0.150873 0,0.219599 -0.39652,0.387445 -0.504096,0.213386 -0.03908,-0.06323 -0.153029,-0.462681 -0.253217,-0.887655 L 20,37.199666 20.491381,36.700784 c 0.270259,-0.274384 0.540283,-0.498882 0.600053,-0.498882 0.173093,0 1.386894,1.272498 1.41837,1.486958 0.01568,0.106859 0.184637,0.286016 0.375453,0.398126 0.331903,0.195007 0.530203,0.203839 4.575737,0.203839 h 4.228799 l 0.422923,-0.254745 c 0.232608,-0.140111 0.799814,-0.598655 1.260455,-1.018988 1.012114,-0.923542 1.156587,-1.010754 1.682083,-1.015378 0.513943,-0.0045 0.685911,0.112073 1.885974,1.278708 0.53443,0.519537 1.084684,0.971048 1.222787,1.00335 0.138104,0.0323 2.54382,0.07003 5.346035,0.08384 5.082058,0.02504 5.096437,0.02571 5.687868,0.264327 0.652662,0.263316 0.816519,0.479471 0.525037,0.692609 -0.271793,0.198738 -26.402376,0.197184 -26.958496,-0.0017 z m 4.425991,-4.878801 c -0.918605,-0.614799 -0.956153,-0.622869 -3.176583,-0.682828 l -2.071493,-0.05594 -0.348602,-0.380622 -0.348603,-0.380625 v -1.83717 -1.83717 l 0.348603,-0.380625 0.348602,-0.380621 2.071493,-0.05594 c 2.201708,-0.05945 2.354417,-0.09084 3.054846,-0.627919 0.849656,-0.651502 1.384045,-0.3839 1.285312,0.643638 -0.03668,0.381707 -0.120547,0.587828 -0.320655,0.788056 l -0.270987,0.271147 -2.468891,0.03307 c -3.0883,0.04137 -2.927436,-0.0436 -2.927436,1.546362 0,1.589966 -0.160864,1.504993 2.927436,1.546362 l 2.468891,0.03307 0.270987,0.271146 c 0.520102,0.520416 0.408129,1.817777 -0.15689,1.817777 -0.105165,0 -0.413878,-0.149028 -0.68603,-0.331172 z m 13.499831,0.01872 c -0.09372,-0.05303 -0.270216,-0.257915 -0.39221,-0.455304 -0.318451,-0.515262 -0.164707,-0.659186 0.702461,-0.657597 0.870131,0.0017 4.352063,-0.18685 5.666761,-0.306692 0.819081,-0.07466 1.134761,-0.153283 1.619663,-0.403366 0.799329,-0.412245 0.878473,-0.342994 0.878473,0.768662 0,0.706092 -0.0302,0.865893 -0.178323,0.943452 -0.106431,0.05573 -1.041001,0.05966 -2.318195,0.0097 -3.746187,-0.146411 -5.297471,-0.134704 -5.569172,0.04202 -0.165165,0.107428 -0.291729,0.125689 -0.409458,0.05908 z m -4.649412,-4.089572 c -0.182938,-0.182939 -0.1615,-1.552494 0.02675,-1.708727 0.116862,-0.09699 0.719842,-0.09654 2.793687,0.002 l 2.644659,0.125745 0.57144,-0.322499 c 0.458879,-0.258978 0.611099,-0.301279 0.772769,-0.214755 0.382161,0.204527 0.217684,0.50611 -0.535236,0.981408 -0.423672,0.267452 -0.866691,0.335718 -3.492231,0.538107 -1.163073,0.08966 -1.397912,0.139863 -1.924916,0.411523 -0.681745,0.351431 -0.690673,0.353381 -0.856922,0.187132 z m -1.905506,-4.250444 c -0.224177,-0.104719 -0.77443,-0.565588 -1.222784,-1.024156 -0.448356,-0.458564 -0.952755,-0.91067 -1.120888,-1.004673 -0.27107,-0.151558 -0.882797,-0.176687 -5.400634,-0.221866 -5.036043,-0.05036 -5.101712,-0.05368 -5.680856,-0.287544 -0.606115,-0.244749 -0.701758,-0.397248 -0.423595,-0.675414 0.147127,-0.147127 1.408705,-0.159732 13.47611,-0.134651 l 13.31379,0.02767 0.414411,0.221826 c 0.227926,0.122003 0.474278,0.293956 0.547446,0.382121 0.07317,0.08816 0.231932,0.160296 0.352809,0.160296 0.120874,0 0.285875,0.09171 0.366662,0.203796 0.203692,0.282607 0.340614,0.254887 0.263264,-0.05329 -0.05155,-0.205411 -0.01794,-0.275228 0.167277,-0.347293 0.312703,-0.121673 0.419186,0.033 0.635541,0.923169 L 50,25.017313 49.510121,25.51467 c -0.269433,0.273547 -0.538684,0.497357 -0.59834,0.497357 -0.16968,0 -1.510637,-1.394252 -1.444257,-1.501657 0.03258,-0.05272 -0.124652,-0.199206 -0.349407,-0.325525 -0.407164,-0.228839 -0.424238,-0.229624 -4.702813,-0.216323 -5.033041,0.01566 -4.665501,-0.05918 -6.052662,1.232276 -0.830747,0.773431 -1.356471,1.120385 -1.689038,1.114689 -0.07185,-0.0012 -0.314064,-0.08792 -0.538241,-0.192635 z m -7.45625,-4.154857 C 26.557323,21.943757 26.339514,21.805796 26.195094,21.661375 25.593593,21.059874 26.058717,20 26.924186,20 c 0.46955,0 0.778334,0.190708 0.688372,0.425145 -0.04833,0.125957 -0.154914,0.152739 -0.450218,0.11313 -0.316533,-0.04246 -0.415164,-0.01152 -0.54235,0.170053 -0.310243,0.442935 0.04596,0.87217 0.627295,0.755903 0.237697,-0.04754 0.328274,-0.02132 0.378518,0.109626 0.03633,0.09467 0.02557,0.210061 -0.02391,0.256436 -0.120939,0.113355 -0.648972,0.192149 -0.922785,0.137699 z m 1.738518,-0.02988 c -0.118359,-0.04782 -0.317606,-0.216869 -0.442772,-0.37566 -0.501229,-0.635885 -0.0014,-1.560845 0.844132,-1.561943 1.041452,-0.0014 1.36282,1.432877 0.421187,1.879712 -0.369845,0.175503 -0.507485,0.185191 -0.822547,0.05789 z m -0.03955,-0.409626 c 0,-0.05605 -0.04856,-0.101899 -0.107913,-0.101899 -0.05935,0 -0.07957,0.04585 -0.04494,0.101899 0.03464,0.05605 0.0832,0.1019 0.107913,0.1019 0.02471,0 0.04494,-0.04585 0.04494,-0.1019 z m 0.968038,0 c 0.03464,-0.05605 0.01442,-0.101899 -0.04494,-0.101899 -0.05935,0 -0.107912,0.04585 -0.107912,0.101899 0,0.05605 0.02022,0.1019 0.04493,0.1019 0.02471,0 0.07328,-0.04585 0.107913,-0.1019 z m -0.05035,-0.560634 c 0.111757,-0.03547 0.203194,-0.105709 0.203194,-0.156087 0,-0.05038 -0.16049,0.0031 -0.356645,0.118831 l -0.356646,0.210425 -0.356646,-0.210425 c -0.196155,-0.115735 -0.356522,-0.177583 -0.35637,-0.137439 1.53e-4,0.04014 0.172105,0.166032 0.38212,0.279754 0.300395,0.162664 0.409144,0.180391 0.509822,0.0831 0.07039,-0.06802 0.219414,-0.152691 0.331171,-0.188161 z m -0.381522,-0.342211 c -0.02489,-0.223556 0.119123,-0.300745 0.211936,-0.113595 0.02849,0.05745 0.03995,0.04598 0.02547,-0.02548 -0.01513,-0.07469 -0.173746,-0.12992 -0.373083,-0.12992 -0.257561,0 -0.351002,0.04638 -0.363257,0.180321 -0.01154,0.126091 -0.0021,0.133751 0.03155,0.02548 0.02643,-0.08517 0.113469,-0.154848 0.193426,-0.154848 0.175114,0 0.19424,0.170526 0.02544,0.226796 -0.06733,0.02244 -0.08558,0.09557 -0.04161,0.166717 0.118697,0.192054 0.317646,0.07173 0.290127,-0.175471 z m 3.718103,1.302277 c -0.20321,-0.118358 -0.236657,-0.504136 -0.0591,-0.681687 0.09103,-0.09103 0.08743,-0.215552 -0.01522,-0.526571 -0.108902,-0.329976 -0.109821,-0.437011 -0.0048,-0.563502 0.198269,-0.2389 0.348932,-0.191899 0.805645,0.251328 0.528234,0.512634 0.534933,0.7635 0.03347,1.253168 -0.413563,0.403834 -0.483339,0.428371 -0.759945,0.267264 z m 1.509578,-0.08648 c -0.155723,-0.172072 -0.161647,-0.24138 -0.04758,-0.556816 0.107878,-0.298338 0.105894,-0.405844 -0.01155,-0.62529 -0.166174,-0.310493 -0.04568,-0.590486 0.274829,-0.638663 0.222554,-0.03345 1.051464,0.785377 1.051464,1.038676 0,0.193111 -0.757929,0.97863 -0.944256,0.97863 -0.07978,0 -0.225084,-0.08844 -0.322907,-0.196537 z m 1.674758,-0.0073 c -0.246398,-0.246398 -0.249714,-0.296695 -0.03937,-0.597006 0.152226,-0.217328 0.150816,-0.26004 -0.01898,-0.575302 -0.152797,-0.283728 -0.161148,-0.367347 -0.05005,-0.501204 0.07334,-0.08837 0.206234,-0.160665 0.295328,-0.160665 0.209778,0 1.035843,0.809666 1.035843,1.015282 0,0.176864 -0.75833,1.022694 -0.916895,1.022694 -0.05615,0 -0.193802,-0.09171 -0.305892,-0.203799 z m -15.466961,-0.840663 0.0293,-0.942565 0.646904,0.0014 c 0.580836,0.0012 0.671895,0.03047 0.891614,0.285904 0.348438,0.405085 0.337214,1.012322 -0.02492,1.34793 -0.227732,0.211057 -0.370822,0.249881 -0.920913,0.249881 h -0.651286 z m 1.214706,0.203912 c 0.163106,-0.304765 -0.04188,-0.687932 -0.368033,-0.687932 -0.239408,0 -0.256931,0.03379 -0.256931,0.495363 0,0.475024 0.01059,0.493339 0.257835,0.446075 0.141809,-0.02712 0.307017,-0.141185 0.367129,-0.253506 z m 1.005416,-0.229388 v -0.968038 h 0.662342 c 0.638566,0 0.662342,0.0092 0.662342,0.254748 0,0.229272 -0.04076,0.254746 -0.407595,0.254746 -0.51575,0 -0.536396,0.180835 -0.02547,0.223122 0.306941,0.02539 0.388526,0.07673 0.414682,0.260898 0.02919,0.205538 -0.01036,0.229273 -0.38212,0.229273 -0.300674,0 -0.414683,0.04202 -0.414683,0.152846 0,0.110391 0.113221,0.152849 0.407596,0.152849 0.339662,0 0.407595,0.03397 0.407595,0.203796 0,0.182898 -0.06793,0.203799 -0.662343,0.203799 h -0.662342 z m 1.732279,0 v -0.968038 h 0.764241 c 0.420332,0 0.764241,0.02594 0.764241,0.05765 0,0.253151 -0.248026,0.451846 -0.564029,0.451846 -0.469949,0 -0.488804,0.279696 -0.02189,0.324716 0.252595,0.02435 0.331171,0.08028 0.331171,0.235727 0,0.155443 -0.07858,0.211373 -0.331171,0.235728 -0.291198,0.02808 -0.331171,0.06805 -0.331171,0.331172 0,0.264555 -0.03543,0.29924 -0.305696,0.29924 h -0.305696 z m 5.727981,0.02548 c 0.02659,-0.855295 0.04817,-0.944809 0.233097,-0.966816 0.136932,-0.01629 0.320811,0.126405 0.560443,0.43494 l 0.356646,0.459194 0.03106,-0.460416 c 0.02779,-0.411957 0.05728,-0.460414 0.280222,-0.460414 0.246801,0 0.249164,0.0092 0.249164,0.968039 0,0.936603 -0.0075,0.967966 -0.229272,0.965861 -0.152047,-0.0014 -0.332241,-0.147315 -0.534969,-0.433069 l -0.305696,-0.430893 -0.03133,0.433068 c -0.02935,0.405602 -0.05059,0.433071 -0.334994,0.433071 h -0.303662 z"
       id="path321" /></g></svg>
