<?xml version="1.0" encoding="UTF-8" standalone="no"?>
<!-- Created with Inkscape (http://www.inkscape.org/) -->

<svg
   width="30mm"
   height="20mm"
   viewBox="0 0 30 20"
   version="1.1"
   id="svg292"
   xml:space="preserve"
   inkscape:version="1.2.2 (732a01da63, 2022-12-09)"
   sodipodi:docname="defcon31-logo.svg"
   xmlns:inkscape="http://www.inkscape.org/namespaces/inkscape"
   xmlns:sodipodi="http://sodipodi.sourceforge.net/DTD/sodipodi-0.dtd"
   xmlns="http://www.w3.org/2000/svg"
   xmlns:svg="http://www.w3.org/2000/svg"><sodipodi:namedview
     id="namedview294"
     pagecolor="#ffffff"
     bordercolor="#000000"
     borderopacity="0.25"
     inkscape:showpageshadow="2"
     inkscape:pageopacity="0.0"
     inkscape:pagecheckerboard="0"
     inkscape:deskcolor="#d1d1d1"
     inkscape:document-units="mm"
     showgrid="false"
     inkscape:zoom="15.663333"
     inkscape:cx="56.660992"
     inkscape:cy="32.687806"
     inkscape:window-width="3440"
     inkscape:window-height="1387"
     inkscape:window-x="-8"
     inkscape:window-y="22"
     inkscape:window-maximized="1"
     inkscape:current-layer="g460" /><defs
     id="defs289" /><g
     inkscape:label="[fixed] BG"
     inkscape:groupmode="layer"
     sodipodi:insensitive="true"
     id="g450" /><g
     inkscape:label="Edge.Cuts"
     inkscape:groupmode="layer"
     id="g452" /><g
     inkscape:label="B.Cu"
     inkscape:groupmode="layer"
     id="g454" /><g
     inkscape:label="B.Mask"
     inkscape:groupmode="layer"
     id="g456" /><g
     inkscape:label="B.SilkS"
     inkscape:groupmode="layer"
     id="g458" /><g
     inkscape:label="F.Cu"
     inkscape:groupmode="layer"
     id="g460"><path
       style="fill:#000000;stroke-width:0.0999101"
       d="M 0.62500002,19.644847 0,19.291235 v -3.438018 c 0,-2.225466 0.035269,-3.438019 0.1,-3.438019 0.06461,0 0.10091261,1.174604 0.10257861,3.319024 l 0.00258,3.319024 0.47940672,0.324415 c 0.26367372,0.178429 0.49876327,0.324438 0.52242147,0.324464 0.023658,2.6e-5 0.030576,-1.482305 0.015372,-3.294068 -0.016083,-1.916611 0.010159,-3.294117 0.062755,-3.294117 0.2154222,0 0.3285056,0.318458 0.3036072,0.854997 -0.024618,0.530484 -0.00576,0.583773 0.2933875,0.829207 0.3177667,0.260709 0.31969,0.267861 0.318794,1.185628 -5e-4,0.507836 0.032849,0.92331 0.074098,0.923275 0.04125,-3.4e-5 0.3337501,-0.202827 0.65,-0.450651 l 0.575,-0.450588 v -1.745394 c 0,-0.959968 -0.020089,-1.745396 -0.044642,-1.745396 -0.024553,0 -0.3170532,0.159369 -0.6499999,0.354153 l -0.6053563,0.354153 v 0.693959 c 0,0.381679 -0.03375,0.693273 -0.075,0.692433 -0.2249683,-0.0046 -0.3173044,-0.216639 -0.3446487,-0.791495 l -0.030353,-0.638116 -0.87500001,-0.5422 C 0.39375001,12.339694 0,12.04177 0,11.975851 0,11.909931 0.34875001,11.659377 0.77500008,11.419062 1.20125,11.178747 1.6850001,10.881393 1.8500002,10.758274 c 0.165,-0.123119 0.656092,-0.424144 1.0913155,-0.668944 L 3.7326311,9.6442384 4.6413159,10.193297 c 0.4997766,0.301983 0.9417456,0.599785 0.9821534,0.661783 0.040408,0.062 0.074158,0.258711 0.075,0.43714 8.4e-4,0.178429 0.029804,0.324416 0.064359,0.324416 0.093611,0 1.017441,-0.537696 1.7551432,-1.021546 0.3570993,-0.234216 0.8591422,-0.548269 1.1156508,-0.6978957 0.3118614,-0.181915 0.4663792,-0.339006 0.4663792,-0.4741462 0,-0.111154 -0.024687,-0.202098 -0.05486,-0.202098 -0.045431,0 -1.2521424,0.6948183 -1.9876307,1.1444679 -0.1621869,0.09915 -0.2999384,0.05559 -0.8750002,-0.276752 L 5.5000007,9.6942328 V 9.1767499 8.6592671 l 1.025,-0.6524245 C 7.0887508,7.6480092 8.0783547,7.052159 8.7241205,6.6827312 L 9.89824,6.0110442 10.44912,6.3256596 11.000001,6.640275 V 5.994458 c 0,-0.6143117 0.01724,-0.6609302 0.35348,-0.9556184 0.194413,-0.1703908 0.428337,-0.3098013 0.51983,-0.3098013 0.09149,0 0.472428,0.2049854 0.846521,0.4555231 C 13.340878,5.6004894 13.4,5.6700788 13.4,5.9851523 V 6.33022 L 13.793216,6.1299771 C 14.009484,6.0198435 14.209752,5.8920686 14.238255,5.8460328 14.266755,5.7999968 14.056061,5.6292151 13.77004,5.4665174 L 13.25,5.1707036 13.22309,4.5755449 13.19619,3.9803863 14.161489,3.4313748 c 0.530914,-0.3019563 1.218022,-0.7161883 1.526906,-0.9205155 0.308883,-0.2043273 0.622337,-0.372774 0.696563,-0.374326 0.07423,-0.00156 0.422976,0.1831093 0.775,0.4103585 l 0.640043,0.4131806 v 0.5309041 c 0,0.5254596 -0.0047,0.5336667 -0.460453,0.8002628 -0.38026,0.2224463 -0.506527,0.2519386 -0.725,0.1693379 -0.219187,-0.082871 -0.353635,-0.05059 -0.784122,0.1882682 -0.449302,0.2492971 -0.547359,0.2709684 -0.725,0.1602293 -0.112985,-0.070432 -0.203846,-0.1734031 -0.201914,-0.2288232 0.0019,-0.05542 0.434967,-0.347819 0.962301,-0.6497753 0.527333,-0.3019563 1.096139,-0.6317472 1.264014,-0.7328686 L 17.435053,3.0137504 16.967822,2.7234613 c -0.256977,-0.159659 -0.518637,-0.2902891 -0.581466,-0.2902891 -0.201845,0 -2.675972,1.5753794 -2.683077,1.7084271 -0.0018,0.033766 0.365319,0.2751777 0.815827,0.5364704 0.649983,0.3769863 0.851296,0.4521201 0.975001,0.3638888 0.08574,-0.061154 0.316701,-0.1983657 0.513243,-0.3049152 l 0.35735,-0.1937261 0.401283,0.2275231 c 0.93326,0.5291489 1.034018,0.6473986 1.034018,1.2135271 v 0.5190432 l -0.575,0.3511044 c -0.31625,0.1931074 -1.260799,0.7484048 -2.098998,1.2339944 -0.8382,0.4855895 -1.524293,0.9053496 -1.524651,0.9328002 -4e-4,0.027451 0.240419,0.1797058 0.535062,0.338345 l 0.535715,0.2884351 1.359216,-0.7713847 c 1.235443,-0.7011416 1.568656,-0.8179004 1.568656,-0.5496624 0,0.050882 -0.18,0.2114171 -0.4,0.3567445 -0.349467,0.2308505 -0.4,0.311913 -0.4,0.6416568 0,0.3607614 -0.0287,0.3934455 -0.65,0.7402731 l -0.65,0.362846 v 1.999838 c 0,1.099912 0.03375,1.983694 0.075,1.963962 0.04125,-0.01973 0.236047,-0.117968 0.432883,-0.218299 0.357127,-0.182036 0.359028,-0.181845 0.9,0.09027 1.013765,0.509937 1.106147,0.607084 1.072171,1.127475 l -0.03005,0.460327 -1.34816,0.777036 c -0.741487,0.427372 -1.382737,0.777038 -1.425,0.777038 -0.04226,0 -0.07684,-0.850924 -0.07684,-1.890941 V 13.62433 l -0.300001,-0.176896 -0.3,-0.176896 V 11.610035 9.9495333 L 13.993356,9.6351519 C 13.714702,9.462242 13.467201,9.3207704 13.443355,9.3207704 c -0.02384,0 -0.04336,1.6581536 -0.04336,3.6847876 v 3.684787 l 0.501503,0.308024 c 0.275827,0.169412 0.523327,0.308022 0.55,0.308022 0.02667,0 0.0485,-0.831004 0.0485,-1.846675 0,-1.574942 0.02207,-1.846675 0.15,-1.846675 0.128455,0 0.15,0.293915 0.15,2.046316 0,1.125473 -0.03904,2.046315 -0.08677,2.046315 -0.04772,0 -0.407721,-0.185486 -0.8,-0.412191 L 13.2,16.881291 v -1.941727 -1.941727 l -0.340845,0.210275 -0.340845,0.210276 -0.584155,-0.351825 -0.584154,-0.351824 -0.05,0.750063 c -0.04793,0.718954 -0.06358,0.758283 -0.377417,0.948253 -0.180079,0.109003 -0.346113,0.198189 -0.368963,0.198189 -0.02285,0 -0.05551,-0.167683 -0.07258,-0.37263 -0.02823,-0.338965 -0.08725,-0.406495 -0.6532459,-0.747467 l -0.622212,-0.374838 -1.2277912,0.707603 c -1.3588769,0.783149 -1.9777912,1.182209 -1.9777912,1.275225 0,0.0338 0.2008396,0.167815 0.4463106,0.297803 L 6.892622,15.633282 8.4111807,14.75781 c 1.6269903,-0.937985 1.8083383,-0.975273 1.8684313,-0.38418 0.04098,0.403063 -0.243294,0.638698 -1.9601685,1.624801 L 6.8888863,16.820086 6.3459583,16.514227 C 6.047348,16.346004 5.7798486,16.208368 5.7515156,16.208368 c -0.028333,0 -0.051515,0.140519 -0.051515,0.312265 0,0.418733 -0.5136409,1.283471 -0.9209501,1.550461 C 4.1454472,18.48642 1.453959,20.001523 1.3524689,19.999999 1.296111,19.999152 0.96874999,19.839334 0.62500002,19.644847 Z M 4.1968063,17.206571 C 4.1984462,17.17912 3.98367,17.035495 3.7195145,16.887403 L 3.2392319,16.618146 2.719616,16.914378 2.2000003,17.210609 v 0.591377 0.591376 L 3.196908,17.824921 c 0.5482991,-0.312642 0.9982535,-0.5909 0.9998983,-0.61835 z M 4.597443,16.81206 c 0.090853,-0.169456 0.044683,-0.229851 -0.3540013,-0.463075 -0.4135289,-0.241909 -0.4736328,-0.25308 -0.6130241,-0.11394 -0.1393911,0.139142 -0.1126715,0.184544 0.2725236,0.463075 0.5016482,0.362739 0.556301,0.371706 0.6945018,0.11394 z m 2.2025577,-0.632568 c 0,-0.172221 -0.135495,-0.306202 -0.5500001,-0.543853 -0.5494928,-0.315045 -0.55,-0.315124 -0.55,-0.08531 0,0.165043 0.1341891,0.31623 0.4749999,0.535169 0.5825732,0.37425 0.6250002,0.380631 0.6250002,0.09399 z M 4.8000005,14.10901 c 0,-2.469288 -0.019327,-2.530123 -0.6510205,-2.049173 l -0.3489795,0.265701 v 1.683424 1.683424 l 0.4749999,0.300955 c 0.2612501,0.165526 0.4862502,0.304082 0.5000002,0.307902 0.01375,0.0038 0.025,-0.982685 0.025,-2.192233 z m 12.1250015,1.033283 c 0.20625,-0.128751 0.374954,-0.267218 0.374898,-0.307705 -5.6e-5,-0.04049 -0.216158,-0.19474 -0.480227,-0.342783 l -0.480126,-0.269169 -0.43162,0.256924 c -0.428204,0.254891 -0.43113,0.260488 -0.369772,0.707337 0.03402,0.247727 0.06185,0.515792 0.06185,0.595697 0,0.145332 0.294282,0.0031 1.325,-0.640301 z M 6.5325534,14.39547 c 1.5017448,-0.869535 2.5674475,-1.616415 2.5674475,-1.799354 0,-0.0995 -0.018937,-0.180918 -0.042082,-0.180918 -0.023145,0 -0.4733255,0.248535 -1.000401,0.552298 -0.5270755,0.303764 -1.024683,0.577718 -1.1057947,0.608787 -0.081112,0.03107 -0.3741073,-0.08271 -0.6511015,-0.252836 C 6.0236275,13.153317 5.775172,13.01412 5.7484982,13.01412 c -0.026674,0 -0.048498,0.404272 -0.048498,0.898382 0,0.49411 0.025899,0.898382 0.057553,0.898382 0.031654,0 0.380404,-0.186936 0.7750002,-0.415414 z m 3.7285516,-2.751113 c -0.02588,-0.02583 -0.25527,0.09604 -0.5097623,0.270818 -0.4036483,0.277218 -0.4587962,0.35734 -0.4320275,0.627668 0.024536,0.247783 0.1208674,0.362449 0.4806858,0.572173 l 0.45,0.262287 0.02908,-0.84299 c 0.01599,-0.463646 0.0079,-0.864125 -0.01797,-0.889956 z m -3.5611044,1.337584 c 0,-0.161187 -0.1246084,-0.313256 -0.4089742,-0.499102 -0.4859001,-0.317556 -0.5910258,-0.331089 -0.5910258,-0.07608 0,0.119313 0.1785917,0.304355 0.475,0.492156 0.26125,0.165526 0.48625,0.304082 0.5,0.307902 0.01375,0.0038 0.025,-0.09737 0.025,-0.224874 z M 12.825284,12.31592 13.2,11.71754 v -1.3907 -1.390699 l 0.56066,-0.3201999 0.560659,-0.3202 L 13.88566,8.0241877 13.45,7.7526343 13.41927,8.136969 c -0.02054,0.2569583 -0.09511,0.4187311 -0.225,0.4881193 -0.178041,0.095114 -0.194272,0.2195649 -0.194272,1.4895537 0,1.316171 -0.01381,1.412503 -0.275,1.918029 l -0.275,0.532257 L 12.421948,9.3706805 12.393908,6.1764321 11.846955,5.8567353 11.300001,5.5370386 V 8.9179689 12.298899 L 11.825,12.604397 c 0.28875,0.168024 0.547628,0.30649 0.575284,0.3077 0.02766,0.0012 0.218906,-0.267069 0.425,-0.596177 z M 2.717841,11.741411 C 3.4539427,11.315927 4.1842873,10.874355 4.3408287,10.760137 L 4.6254494,10.55247 4.1599253,10.280145 3.6944011,10.007821 2.0992005,10.91835 c -0.8773605,0.500793 -1.61847748,0.948125 -1.64692668,0.994074 -0.045706,0.07382 0.69598288,0.588682 0.86246308,0.598699 0.035605,0.0021 0.667002,-0.344228 1.4031041,-0.769712 z m 5.4937662,-0.04157 C 8.8927239,11.306398 9.5984977,10.872624 9.7799938,10.735902 L 10.109986,10.487315 9.6461311,10.216896 9.1822757,9.9464774 7.6095034,10.856422 c -0.8650248,0.50047 -1.5855092,0.951031 -1.6010766,1.001248 -0.030609,0.09874 0.6700478,0.556178 0.8531803,0.557017 0.061384,2.99e-4 0.6688836,-0.321399 1.3500001,-0.714844 z M 10.300001,9.3109105 V 8.4026683 L 9.9463867,8.6109309 C 9.6448133,8.7885436 9.5842868,8.7971203 9.5351143,8.669209 9.5034023,8.5867175 9.5008162,8.4300577 9.5293642,8.3210758 9.5579152,8.2120939 9.5607532,8.122927 9.5356742,8.122927 c -0.082115,0 -0.6722659,0.3209877 -1.4036753,0.7634706 -0.3949019,0.2389049 -0.766152,0.4343726 -0.8250002,0.4343726 -0.219592,0 -0.096872,-0.2794266 0.1714429,-0.3903666 C 7.6315822,8.8670845 8.3041913,8.4685926 8.9731268,8.0448664 9.6420625,7.62114 10.332591,7.1945979 10.507635,7.0969946 L 10.825896,6.9195342 10.356255,6.6090161 9.8866141,6.2984979 9.6183076,6.4925958 C 9.470739,6.5993496 8.573751,7.1324583 7.6250007,7.677282 6.6762506,8.2221056 5.9009714,8.6912453 5.9021581,8.7198146 c 0.00119,0.02857 0.3391839,0.239602 0.7511051,0.4689615 L 7.402211,9.6057933 8.3261061,9.0660332 9.250001,8.5262732 9.279154,9.0993825 C 9.308064,9.6676975 9.312246,9.6747544 9.7791541,9.9429601 10.038119,10.091717 10.26125,10.214716 10.275,10.21629 c 0.01375,0.0016 0.025,-0.4058463 0.025,-0.9053795 z M 6.6978654,9.7949166 C 6.6964756,9.6489688 6.5595673,9.474196 6.3068879,9.2958153 5.8348507,8.9625778 5.6995528,8.9514245 5.7014398,9.2459052 c 0.00104,0.1628038 0.1317275,0.2984562 0.4749999,0.493058 0.2604586,0.1476544 0.4848108,0.2711818 0.4985608,0.2745058 0.01375,0.0033 0.024039,-0.095025 0.022865,-0.2185524 z M 14.422882,7.7341861 C 14.389863,7.5096182 14.271216,7.3859462 13.890201,7.1789446 L 13.4,6.9126241 v 0.2330813 c 0,0.1736961 0.133714,0.3151621 0.524814,0.5552414 0.288647,0.1771881 0.528353,0.3221601 0.53268,0.3221601 0.0043,0 -0.01125,-0.1300144 -0.03461,-0.2889208 z M 16.287659,6.1759668 17.425316,5.5052392 16.937659,5.2186611 C 16.669448,5.0610432 16.413751,4.9313171 16.369444,4.9303809 16.263224,4.9281309 14.45613,5.9885617 13.967067,6.3401255 l -0.382933,0.2752729 0.480709,0.2986634 c 0.479636,0.2979964 0.481385,0.2982547 0.782934,0.1156481 0.166224,-0.1006585 0.814171,-0.4848428 1.439882,-0.8537431 z M 12.828419,5.7854313 C 12.991393,5.6620262 12.958826,5.6232824 12.45223,5.3378915 11.921503,5.0389059 11.886868,5.0324858 11.647885,5.1887928 l -0.249738,0.1633405 0.375926,0.1977638 c 0.20676,0.1087701 0.418677,0.2380883 0.470927,0.287374 0.13475,0.1271049 0.375329,0.1057282 0.583419,-0.05184 z m 1.671582,-0.4988196 c 0,-0.1817891 -0.123195,-0.3166552 -0.501502,-0.5490115 -0.275827,-0.1694125 -0.523328,-0.3080227 -0.550001,-0.3080227 -0.02667,0 -0.0485,0.1080648 -0.0485,0.240144 0,0.175295 0.126149,0.323551 0.467145,0.5490114 0.562608,0.3719857 0.632856,0.3795204 0.632856,0.067879 z m 4.075001,9.4988693 c -0.500032,-0.359956 -0.575,-0.456862 -0.575,-0.743271 0,-0.181141 0.04413,-0.329348 0.09806,-0.329348 0.149136,0 1.178216,0.6776 1.22025,0.803478 0.0219,0.06556 0.308383,-0.04485 0.704824,-0.271641 0.601967,-0.344368 0.700622,-0.447339 0.998893,-1.042583 l 0.330957,-0.660476 -0.274069,-0.157011 c -0.265352,-0.152017 -0.29961,-0.142567 -1.076969,0.297063 L 19.19905,13.135768 18.624527,12.79619 c -0.539765,-0.319033 -0.576383,-0.364987 -0.605273,-0.759565 -0.01691,-0.230994 -0.0014,-0.419989 0.03437,-0.419989 0.173212,0 1.146377,0.662393 1.146377,0.780291 0,0.164302 0.0035,0.163075 0.927768,-0.327193 l 0.745389,-0.395374 0.638421,0.333945 c 0.351132,0.18367 0.773422,0.414035 0.938422,0.511923 0.295021,0.175024 0.307305,0.173656 0.740208,-0.08245 l 0.440208,-0.260425 -0.315208,-0.262674 c -0.209589,-0.174654 -0.315208,-0.352214 -0.315208,-0.529907 0,-0.343438 0.113127,-0.336489 0.662318,0.04069 0.418639,0.287514 0.446343,0.334203 0.418018,0.704486 -0.02891,0.377916 -0.06223,0.413828 -0.708523,0.763654 l -0.678186,0.367087 -0.471814,-0.261264 -0.471813,-0.261262 -0.35,0.695911 c -0.284791,0.566254 -0.433841,0.743212 -0.8,0.949794 -0.2475,0.139636 -0.637356,0.382677 -0.866348,0.540093 -0.228991,0.157415 -0.453991,0.283788 -0.5,0.280828 -0.04601,-0.003 -0.342402,-0.191646 -0.658652,-0.419303 z m 0.025,-1.003718 c -0.515823,-0.309074 -0.551942,-0.356217 -0.581259,-0.75864 -0.01719,-0.235998 0.0058,-0.413176 0.05102,-0.393731 0.04526,0.01945 0.318073,0.166023 0.606259,0.325727 0.435088,0.241112 0.523975,0.337094 0.523975,0.565802 0,0.151488 0.02731,0.346485 0.0607,0.433327 0.08881,0.23103 -0.046,0.195834 -0.660699,-0.172485 z m -0.0722,-2.102348 -0.622197,-0.41215 -0.0028,-1.073068 c -0.0015,-0.5901867 -0.03655,-1.0728993 -0.0778,-1.072694 -0.04125,2.096e-4 -0.226325,0.092465 -0.411278,0.2050195 C 17.228774,9.439078 17.061809,9.5155569 17.042693,9.4964757 16.930214,9.3841988 17.172432,8.9929104 17.466848,8.8112783 17.756794,8.6324035 17.806159,8.5499391 17.78048,8.2873466 17.75605,8.037522 17.6657,7.9294191 17.325005,7.7423753 c -0.23375,-0.1283302 -0.425,-0.2973408 -0.425,-0.375579 0,-0.1935434 0.135109,-0.1788024 0.522583,0.057016 0.180079,0.1095971 0.36443,0.1994353 0.409667,0.1996406 0.04524,2.096e-4 0.07515,-0.2354523 0.06648,-0.5236833 -0.0087,-0.288231 -0.01194,-0.5937275 -0.0072,-0.6788813 0.0047,-0.085154 0.357275,-0.352281 0.783525,-0.5936163 0.42625,-0.2413353 0.9775,-0.5811866 1.225,-0.7552252 0.618829,-0.4351541 2.562541,-1.5408516 2.708669,-1.5408516 0.06556,0 0.338611,0.1347574 0.60677,0.2994608 0.26816,0.1647034 0.50733,0.2994608 0.531491,0.2994608 0.02416,0 0.05723,-0.2984544 0.0735,-0.663232 l 0.02957,-0.6632321 0.45,-0.2474394 0.45,-0.2474396 0.700602,0.4061579 c 0.60244,0.3492506 0.805601,0.5476672 1.45,1.4161375 L 27.65006,5.141049 27.67684,2.8018371 27.70362,0.46262529 28.140433,0.2313126 28.577248,0 l 0.686407,0.39445933 0.686407,0.39445934 0.02691,2.28138253 c 0.02684,2.2757168 0.02628,2.2824998 -0.225,2.7312846 -0.211735,0.3781542 -0.251826,0.5792272 -0.251396,1.2608466 4e-4,0.6866839 0.03826,0.8721262 0.246879,1.2102256 0.135502,0.2196046 0.247772,0.4285335 0.249488,0.4642864 0.0051,0.1052055 -0.693072,0.4846388 -0.877595,0.476977 -0.09311,-0.00386 -0.439284,-0.1749739 -0.769285,-0.3802398 -0.449932,-0.2798662 -0.787584,-0.6185837 -1.35,-1.3542602 l -0.75,-0.9810492 -0.05,2.313504 -0.05,2.3135048 -0.4,0.231112 -0.4,0.231114 -0.469185,-0.247741 c -0.258052,-0.136257 -0.49289,-0.309403 -0.521862,-0.384766 -0.07404,-0.192594 0.07239,-0.170727 0.485331,0.07248 l 0.355716,0.209499 V 7.5361666 3.8352582 l -0.275,-0.1756924 C 24.773813,3.5629348 24.590599,3.4271421 24.51792,3.3578038 24.44524,3.2884658 24.322067,3.2317343 24.244199,3.2317343 c -0.118918,0 -0.145784,0.5612058 -0.167857,3.50641 l -0.02628,3.5064097 -0.7,0.37991 c -0.604146,0.327887 -0.74108,0.45579 -1,0.934045 -0.165,0.304774 -0.357662,0.554831 -0.428138,0.555681 -0.253447,0.0031 -0.227347,-0.279843 0.07268,-0.787774 0.168002,-0.28442 0.305458,-0.557551 0.305458,-0.606959 0,-0.04941 0.2475,-0.237602 0.55,-0.41821 0.3025,-0.180607 0.55,-0.366545 0.55,-0.4131946 0,-0.04665 -0.03518,-0.069844 -0.07818,-0.051544 -0.236584,0.1006938 -3.409412,1.9436766 -3.610309,2.0970996 -0.32761,0.250193 -0.467681,0.220114 -1.18371,-0.254193 z m 0.6722,-2.1577519 V 7.3268695 L 18.792391,7.0700184 c -0.7447,-0.4692636 -0.692389,-0.6077008 -0.692389,1.8323509 v 2.1982847 l 0.475,0.300955 c 0.26125,0.165526 0.50875,0.304082 0.55,0.307902 0.04125,0.0038 0.075,-0.980711 0.075,-2.1878479 z m 2.589451,-0.00917 c 1.277022,-0.730141 1.410549,-0.8325081 1.410549,-1.0813856 0,-0.1805656 -0.05266,-0.2749004 -0.153462,-0.2749004 -0.09445,0 -0.142518,0.073536 -0.125,0.1912327 0.0204,0.1370951 -0.117051,0.2807448 -0.485541,0.5074197 -1.616923,0.9946442 -1.904036,1.1646595 -1.966814,1.1646595 -0.03805,0 -0.07223,-0.1010683 -0.07595,-0.2245959 l -0.0068,-0.2245956 -0.10605,0.219084 c -0.09395,0.1940866 -0.05853,0.5295685 0.0559,0.5295685 0.02342,0 0.677337,-0.3629192 1.453139,-0.8064864 z M 20.700002,8.185962 c 0,-0.3050917 -0.08726,-0.3763273 -0.313148,-0.2556512 -0.178494,0.095355 -0.256788,0.488814 -0.123704,0.6216589 0.123088,0.1228664 0.436852,-0.1400145 0.436852,-0.3660077 z M 27.805328,7.5489607 C 27.363367,6.9587734 26.731366,6.1097546 26.400882,5.6622523 L 25.800002,4.8486119 25.799652,4.015218 25.799303,3.1818242 25.27337,2.8986714 C 24.803628,2.6457704 24.717721,2.629034 24.469295,2.742021 l -0.278143,0.1265024 0.529425,0.3282908 c 0.291184,0.1805599 0.603494,0.3056576 0.694022,0.2779948 0.141876,-0.043353 0.169485,0.064948 0.2,0.7845399 0.03011,0.7100196 0.07388,0.8858908 0.292765,1.1763189 0.141549,0.1878158 0.282503,0.4088619 0.313231,0.4912136 0.03073,0.082352 0.376166,0.5671868 0.767639,1.0774113 0.391472,0.5102245 0.711768,0.9690261 0.711768,1.0195591 0,0.098216 0.691764,0.5981767 0.827661,0.5981767 0.04468,0 -0.280373,-0.4828805 -0.722335,-1.0730678 z M 22.877751,7.0691542 c 0.127623,-0.089229 0.222251,-0.260324 0.222251,-0.4018444 0,-0.2417035 -0.0058,-0.243469 -0.3,-0.091597 -0.210704,0.1087635 -0.3,0.2283737 -0.3,0.4018445 0,0.2874867 0.07245,0.3050539 0.377749,0.091597 z M 20.850002,6.1265335 c 1.132691,-0.6497655 2.65,-1.6188261 2.65,-1.6924765 0,-0.030714 -0.202075,-0.1776821 -0.449057,-0.326596 L 22.601889,3.8367084 20.525945,5.0371887 c -1.141768,0.6602642 -2.113044,1.2372121 -2.158389,1.2821062 -0.04535,0.044894 0.156346,0.2192442 0.448203,0.3874441 l 0.53065,0.3058181 0.301797,-0.1848702 C 19.814194,6.7260082 20.355002,6.4104892 20.850002,6.1265335 Z M 28.998562,4.2049819 28.997162,1.4848797 28.49855,1.210374 C 28.224314,1.0593958 27.977462,0.93586827 27.949991,0.93586827 c -0.02747,0 -0.04995,1.03669803 -0.04995,2.30377333 v 2.3037733 l 0.525,0.687504 c 0.288751,0.3781272 0.536251,0.6890027 0.550001,0.6908345 0.01375,0.00183 0.02435,-1.2207153 0.02356,-2.7167715 z m 0.501441,-3.25489443 c 0,-0.12274429 -0.797195,-0.61314077 -0.99673,-0.61314077 -0.09833,0 -0.230589,0.0623118 -0.293909,0.13847006 -0.162009,0.19485754 0.854167,0.78250534 1.115639,0.64516674 0.09625,-0.050556 0.175,-0.12727865 0.175,-0.17049603 z M 23.760821,11.16787 c -0.10405,-0.07863 -0.23905,-0.163716 -0.3,-0.18909 -0.127619,-0.05312 0.3231,-0.454554 0.514181,-0.457947 0.07954,-0.0014 0.125,0.143 0.125,0.397061 0,0.432381 -0.04951,0.468869 -0.339181,0.249976 z M 29.86667,8.0563803 C 29.759606,7.9495089 29.79,6.144477 29.9,6.0766118 29.96425,6.0369708 30,6.3916727 30,7.0689233 c 0,1.052787 -0.0081,1.1125021 -0.133333,0.987457 z"
       id="path494-4" /></g><g
     inkscape:label="F.Mask"
     inkscape:groupmode="layer"
     id="g462"><path
       style="fill:#000000;stroke-width:0.0999101"
       d="M 0.62500002,19.644847 0,19.291235 v -3.438018 c 0,-2.225466 0.035269,-3.438019 0.1,-3.438019 0.06461,0 0.10091261,1.174604 0.10257861,3.319024 l 0.00258,3.319024 0.47940672,0.324415 c 0.26367372,0.178429 0.49876337,0.324438 0.52242147,0.324464 0.023658,2.6e-5 0.030576,-1.482305 0.015372,-3.294068 -0.016083,-1.916611 0.010159,-3.294117 0.062755,-3.294117 0.2154222,0 0.3285056,0.318458 0.3036072,0.854997 -0.024618,0.530484 -0.00576,0.583773 0.2933874,0.829207 0.3177667,0.260709 0.3196899,0.267861 0.3187939,1.185628 -5e-4,0.507836 0.032849,0.92331 0.074098,0.923275 0.04125,-3.4e-5 0.33375,-0.202827 0.65,-0.450651 l 0.575,-0.450588 v -1.745394 c 0,-0.959968 -0.020089,-1.745396 -0.044642,-1.745396 -0.024553,0 -0.3170533,0.159369 -0.65,0.354153 l -0.6053562,0.354153 v 0.693959 c 0,0.381679 -0.03375,0.693273 -0.075,0.692433 -0.2249682,-0.0046 -0.3173043,-0.216639 -0.3446486,-0.791495 l -0.030353,-0.638116 -0.87500011,-0.5422 C 0.39375001,12.339694 0,12.04177 0,11.975851 0,11.909932 0.34875001,11.659377 0.77500008,11.419062 1.2012501,11.178747 1.6850002,10.881393 1.8500002,10.758274 c 0.165,-0.123119 0.656092,-0.424144 1.0913155,-0.668944 L 3.7326311,9.6442384 4.6413159,10.193297 c 0.4997765,0.301983 0.9417456,0.599785 0.9821534,0.661783 0.040408,0.062 0.074158,0.258711 0.075,0.43714 8.4e-4,0.178429 0.029804,0.324416 0.064359,0.324416 0.093611,0 1.017441,-0.537696 1.7551432,-1.021546 0.3570993,-0.234216 0.8591421,-0.548269 1.1156506,-0.6978957 0.3118615,-0.181915 0.4663792,-0.339006 0.4663792,-0.4741462 0,-0.111154 -0.024687,-0.202098 -0.05486,-0.202098 -0.045431,0 -1.2521423,0.6948183 -1.9876307,1.1444679 -0.1621868,0.09915 -0.2999383,0.05559 -0.8750001,-0.276752 L 5.5000006,9.6942328 V 9.1767499 8.6592671 l 1.025,-0.6524245 C 7.0887507,7.6480092 8.0783546,7.052159 8.7241204,6.6827312 L 9.89824,6.0110442 10.44912,6.3256596 11.000001,6.640275 V 5.994458 c 0,-0.6143117 0.01724,-0.6609302 0.35348,-0.9556184 0.194413,-0.1703908 0.428337,-0.3098013 0.51983,-0.3098013 0.09149,0 0.472428,0.2049854 0.846521,0.4555231 C 13.340878,5.6004894 13.4,5.6700788 13.4,5.9851523 V 6.33022 L 13.793216,6.1299771 C 14.009484,6.0198435 14.209752,5.8920686 14.238255,5.8460328 14.266755,5.7999967 14.056061,5.6292151 13.77004,5.4665174 L 13.25,5.1707036 13.22309,4.5755449 13.19619,3.9803863 14.161489,3.4313748 c 0.530914,-0.3019563 1.218022,-0.7161883 1.526906,-0.9205155 0.308883,-0.2043273 0.622337,-0.372774 0.696563,-0.374326 0.07423,-0.00156 0.422976,0.1831093 0.775,0.4103585 l 0.640043,0.4131806 v 0.5309041 c 0,0.5254596 -0.0047,0.5336667 -0.460453,0.8002628 -0.38026,0.2224463 -0.506527,0.2519386 -0.725,0.1693379 -0.219187,-0.082871 -0.353635,-0.05059 -0.784122,0.1882682 -0.449302,0.2492971 -0.547359,0.2709684 -0.725,0.1602293 -0.112985,-0.070432 -0.203846,-0.1734031 -0.201914,-0.2288232 0.0019,-0.05542 0.434967,-0.347819 0.962301,-0.6497753 0.527333,-0.3019563 1.096139,-0.6317472 1.264014,-0.7328686 L 17.435053,3.0137504 16.967822,2.7234613 c -0.256977,-0.159659 -0.518637,-0.2902891 -0.581466,-0.2902891 -0.201845,0 -2.675972,1.5753794 -2.683077,1.7084271 -0.0018,0.033766 0.365319,0.2751777 0.815827,0.5364704 0.649983,0.3769863 0.851296,0.4521201 0.975001,0.3638888 0.08574,-0.061154 0.316701,-0.1983657 0.513243,-0.3049152 l 0.35735,-0.1937261 0.401283,0.2275231 c 0.93326,0.5291489 1.034018,0.6473986 1.034018,1.2135271 v 0.5190432 l -0.575,0.3511044 c -0.31625,0.1931074 -1.260799,0.7484048 -2.098998,1.2339944 -0.8382,0.4855895 -1.524293,0.9053496 -1.524651,0.9328002 -4e-4,0.027451 0.240419,0.1797058 0.535062,0.338345 l 0.535715,0.2884351 1.359216,-0.7713847 c 1.235443,-0.7011416 1.568656,-0.8179004 1.568656,-0.5496624 0,0.050882 -0.18,0.2114171 -0.4,0.3567445 -0.349467,0.2308505 -0.4,0.311913 -0.4,0.6416568 0,0.3607614 -0.0287,0.3934455 -0.65,0.7402731 l -0.65,0.362846 v 1.999838 c 0,1.099912 0.03375,1.983694 0.075,1.963962 0.04125,-0.01973 0.236047,-0.117968 0.432883,-0.218299 0.357127,-0.182036 0.359028,-0.181845 0.9,0.09027 1.013765,0.509937 1.106147,0.607084 1.072171,1.127475 l -0.03005,0.460327 -1.34816,0.777036 c -0.741487,0.427372 -1.382737,0.777038 -1.425,0.777038 -0.04226,0 -0.07684,-0.850924 -0.07684,-1.890941 V 13.62433 l -0.300001,-0.176896 -0.3,-0.176896 V 11.610035 9.9495333 L 13.993356,9.6351519 C 13.714702,9.462242 13.467201,9.3207704 13.443355,9.3207704 c -0.02384,0 -0.04336,1.6581536 -0.04336,3.6847876 v 3.684787 l 0.501503,0.308024 c 0.275827,0.169412 0.523327,0.308022 0.55,0.308022 0.02667,0 0.0485,-0.831004 0.0485,-1.846675 0,-1.574942 0.02207,-1.846675 0.15,-1.846675 0.128455,0 0.15,0.293915 0.15,2.046316 0,1.125473 -0.03904,2.046315 -0.08677,2.046315 -0.04772,0 -0.407721,-0.185486 -0.8,-0.412191 L 13.2,16.881291 v -1.941727 -1.941727 l -0.340845,0.210275 -0.340845,0.210276 -0.584155,-0.351825 -0.584154,-0.351824 -0.05,0.750063 c -0.04793,0.718954 -0.06358,0.758283 -0.377417,0.948253 -0.180079,0.109003 -0.346113,0.198189 -0.368963,0.198189 -0.02285,0 -0.05551,-0.167683 -0.07258,-0.37263 -0.02823,-0.338965 -0.08725,-0.406495 -0.6532459,-0.747467 L 9.205583,13.116309 7.9777919,13.823912 c -1.3588768,0.783149 -1.9777913,1.182209 -1.9777913,1.275225 0,0.0338 0.2008398,0.167815 0.4463107,0.297803 l 0.4463108,0.236342 1.5185586,-0.875472 c 1.6269903,-0.937985 1.8083383,-0.975273 1.8684313,-0.38418 0.04098,0.403063 -0.243294,0.638698 -1.9601684,1.624801 L 6.8888862,16.820086 6.3459582,16.514227 C 6.0473479,16.346004 5.7798486,16.208368 5.7515155,16.208368 c -0.028333,0 -0.051515,0.140519 -0.051515,0.312265 0,0.418733 -0.5136408,1.283471 -0.92095,1.550461 C 4.1454473,18.48642 1.453959,20.001523 1.352469,19.999999 1.296111,19.999152 0.96874999,19.839334 0.62500002,19.644847 Z M 4.1968063,17.206571 C 4.1984463,17.17912 3.9836699,17.035495 3.7195144,16.887403 L 3.2392318,16.618146 2.719616,16.914378 2.2000003,17.210609 v 0.591377 0.591376 l 0.9969076,-0.568441 c 0.5482991,-0.312642 0.9982535,-0.5909 0.9998984,-0.61835 z M 4.5974431,16.81206 c 0.090853,-0.169456 0.044683,-0.229851 -0.3540013,-0.463075 -0.4135289,-0.241909 -0.4736328,-0.25308 -0.6130241,-0.11394 -0.1393911,0.139142 -0.1126715,0.184544 0.2725236,0.463075 0.5016482,0.362739 0.556301,0.371706 0.6945018,0.11394 z m 2.2025576,-0.632568 c 0,-0.172221 -0.1354949,-0.306202 -0.5500001,-0.543853 -0.5494927,-0.315045 -0.55,-0.315124 -0.55,-0.08531 0,0.165043 0.1341891,0.31623 0.475,0.535169 0.5825731,0.37425 0.6250001,0.380631 0.6250001,0.09399 z M 4.8000005,14.10901 c 0,-2.469288 -0.019327,-2.530123 -0.6510206,-2.049173 l -0.3489795,0.265701 v 1.683424 1.683424 l 0.475,0.300955 c 0.2612501,0.165526 0.4862501,0.304082 0.5000001,0.307902 0.01375,0.0038 0.025,-0.982685 0.025,-2.192233 z m 12.1250015,1.033283 c 0.20625,-0.128751 0.374954,-0.267218 0.374898,-0.307705 -5.6e-5,-0.04049 -0.216158,-0.19474 -0.480227,-0.342783 l -0.480126,-0.269169 -0.43162,0.256924 c -0.428204,0.254891 -0.43113,0.260488 -0.369772,0.707337 0.03402,0.247727 0.06185,0.515792 0.06185,0.595697 0,0.145332 0.294282,0.0031 1.325,-0.640301 z M 6.5325533,14.39547 c 1.5017448,-0.869535 2.5674476,-1.616415 2.5674476,-1.799354 0,-0.0995 -0.018937,-0.180918 -0.042082,-0.180918 -0.023145,0 -0.4733255,0.248535 -1.000401,0.552298 -0.5270754,0.303764 -1.024683,0.577718 -1.1057946,0.608787 -0.081112,0.03107 -0.3741073,-0.08271 -0.6511015,-0.252836 -0.2769942,-0.17013 -0.5254497,-0.309327 -0.5521235,-0.309327 -0.026674,0 -0.048498,0.404272 -0.048498,0.898382 0,0.49411 0.025899,0.898382 0.057553,0.898382 0.031654,0 0.380404,-0.186936 0.775,-0.415414 z m 3.7285517,-2.751113 c -0.02588,-0.02583 -0.25527,0.09604 -0.5097623,0.270818 -0.4036483,0.277218 -0.4587963,0.35734 -0.4320276,0.627668 0.024536,0.247783 0.1208675,0.362449 0.4806859,0.572173 l 0.45,0.262287 0.02908,-0.84299 c 0.01599,-0.463646 0.0079,-0.864125 -0.01797,-0.889956 z m -3.5611044,1.337584 c 0,-0.161187 -0.1246084,-0.313256 -0.4089743,-0.499102 -0.4859001,-0.317556 -0.5910257,-0.331089 -0.5910257,-0.07608 0,0.119313 0.1785917,0.304355 0.475,0.492156 0.26125,0.165526 0.48625,0.304082 0.5,0.307902 0.01375,0.0038 0.025,-0.09737 0.025,-0.224874 z M 12.825284,12.31592 13.2,11.71754 v -1.3907 -1.390699 l 0.56066,-0.3201999 0.560659,-0.3202 L 13.88566,8.0241877 13.45,7.7526343 13.41927,8.136969 c -0.02054,0.2569583 -0.09511,0.4187311 -0.225,0.4881193 -0.178041,0.095114 -0.194272,0.2195649 -0.194272,1.4895537 0,1.316171 -0.01381,1.412503 -0.275,1.918029 l -0.275,0.532257 L 12.421948,9.3706805 12.393908,6.1764321 11.846955,5.8567353 11.300001,5.5370386 V 8.9179689 12.298899 L 11.825,12.604397 c 0.28875,0.168024 0.547628,0.30649 0.575284,0.3077 0.02766,0.0012 0.218906,-0.267069 0.425,-0.596177 z M 2.7178409,11.741411 C 3.4539427,11.315927 4.1842873,10.874355 4.3408287,10.760137 L 4.6254494,10.55247 4.1599252,10.280145 3.6944011,10.007821 2.0992004,10.91835 c -0.8773604,0.500793 -1.61847738,0.948125 -1.64692658,0.994074 -0.045706,0.07382 0.69598288,0.588682 0.86246308,0.598699 0.035605,0.0021 0.667002,-0.344228 1.403104,-0.769712 z m 5.4937663,-0.04157 C 8.8927238,11.306398 9.5984976,10.872624 9.7799937,10.735902 L 10.109986,10.487315 9.646131,10.216896 9.1822756,9.9464774 7.6095034,10.856422 c -0.8650248,0.50047 -1.5855092,0.951031 -1.6010766,1.001248 -0.030609,0.09874 0.6700477,0.556178 0.8531803,0.557017 0.061384,2.99e-4 0.6688836,-0.321399 1.3500001,-0.714844 z M 10.300001,9.3109105 V 8.4026683 L 9.9463867,8.6109309 C 9.6448133,8.7885436 9.5842868,8.7971203 9.5351142,8.669209 9.5034022,8.5867175 9.5008162,8.4300577 9.5293642,8.3210758 9.5579152,8.2120939 9.5607532,8.122927 9.5356742,8.122927 c -0.082115,0 -0.6722659,0.3209877 -1.4036753,0.7634706 -0.3949018,0.2389049 -0.7661519,0.4343726 -0.8250001,0.4343726 -0.219592,0 -0.096872,-0.2794266 0.1714429,-0.3903666 C 7.6315823,8.8670845 8.3041912,8.4685926 8.9731268,8.0448664 9.6420624,7.62114 10.332591,7.1945979 10.507635,7.0969946 L 10.825896,6.9195342 10.356255,6.6090161 9.8866141,6.2984979 9.6183075,6.4925958 C 9.4707389,6.5993496 8.5737509,7.1324583 7.6250008,7.677282 6.6762506,8.2221056 5.9009715,8.6912453 5.9021581,8.7198146 c 0.00119,0.02857 0.3391839,0.239602 0.7511051,0.4689615 l 0.7489478,0.4170172 0.923895,-0.5397601 0.9238949,-0.53976 0.029153,0.5731093 c 0.02891,0.568315 0.033092,0.5753719 0.5000001,0.8435776 0.258965,0.1487569 0.482096,0.2717559 0.495846,0.2733299 0.01375,0.0016 0.025,-0.4058463 0.025,-0.9053795 z M 6.6978655,9.7949166 C 6.6964755,9.6489688 6.5595674,9.474196 6.3068879,9.2958153 5.8348508,8.9625778 5.6995528,8.9514245 5.7014398,9.2459052 c 0.00104,0.1628038 0.1317275,0.2984562 0.475,0.493058 0.2604584,0.1476544 0.4848108,0.2711818 0.4985608,0.2745058 0.01375,0.0033 0.024039,-0.095025 0.022865,-0.2185524 z M 14.422882,7.7341861 C 14.389863,7.5096182 14.271216,7.3859462 13.890201,7.1789446 L 13.4,6.9126241 v 0.2330813 c 0,0.1736961 0.133714,0.3151621 0.524814,0.5552414 0.288647,0.1771881 0.528353,0.3221601 0.53268,0.3221601 0.0043,0 -0.01125,-0.1300144 -0.03461,-0.2889208 z M 16.287659,6.1759668 17.425316,5.5052392 16.937659,5.2186611 C 16.669448,5.0610432 16.413751,4.9313171 16.369444,4.9303809 16.263224,4.928135 14.45613,5.9885617 13.967067,6.3401255 l -0.382933,0.2752729 0.480709,0.2986634 c 0.479636,0.2979964 0.481385,0.2982547 0.782934,0.1156481 0.166224,-0.1006585 0.814171,-0.4848428 1.439882,-0.8537431 z M 12.828419,5.7854313 C 12.991393,5.6620262 12.958826,5.6232824 12.45223,5.3378915 11.921503,5.0389059 11.886868,5.0324858 11.647885,5.1887928 l -0.249738,0.1633405 0.375926,0.1977638 c 0.20676,0.1087701 0.418677,0.2380883 0.470927,0.287374 0.13475,0.1271049 0.375329,0.1057282 0.583419,-0.05184 z m 1.671582,-0.4988196 c 0,-0.1817891 -0.123195,-0.3166552 -0.501502,-0.5490115 -0.275827,-0.1694125 -0.523328,-0.3080227 -0.550001,-0.3080227 -0.02667,0 -0.0485,0.1080648 -0.0485,0.240144 0,0.175295 0.126149,0.323551 0.467145,0.5490114 0.562608,0.3719857 0.632856,0.3795204 0.632856,0.067879 z m 4.075001,9.4988693 c -0.500032,-0.359956 -0.575,-0.456862 -0.575,-0.743271 0,-0.181141 0.04413,-0.329348 0.09806,-0.329348 0.149136,0 1.178216,0.6776 1.22025,0.803478 0.0219,0.06556 0.308383,-0.04485 0.704824,-0.271641 0.601967,-0.344368 0.700622,-0.447339 0.998893,-1.042583 l 0.330957,-0.660476 -0.274069,-0.157011 c -0.265352,-0.152017 -0.29961,-0.142567 -1.076969,0.297063 L 19.19905,13.135768 18.624527,12.79619 c -0.539765,-0.319033 -0.576383,-0.364987 -0.605273,-0.759565 -0.01691,-0.230994 -0.0014,-0.419989 0.03437,-0.419989 0.173212,0 1.146377,0.662393 1.146377,0.780291 0,0.164302 0.0035,0.163075 0.927768,-0.327193 l 0.745389,-0.395374 0.638421,0.333945 c 0.351132,0.18367 0.773422,0.414035 0.938422,0.511923 0.295021,0.175024 0.307305,0.173656 0.740208,-0.08245 l 0.440208,-0.260425 -0.315208,-0.262674 c -0.209589,-0.174654 -0.315208,-0.352214 -0.315208,-0.529907 0,-0.343438 0.113127,-0.336489 0.662318,0.04069 0.418639,0.287514 0.446343,0.334203 0.418018,0.704486 -0.02891,0.377916 -0.06223,0.413828 -0.708523,0.763654 l -0.678186,0.367087 -0.471814,-0.261264 -0.471813,-0.261262 -0.35,0.695911 c -0.284791,0.566254 -0.433841,0.743212 -0.8,0.949794 -0.2475,0.139636 -0.637356,0.382677 -0.866348,0.540093 -0.228991,0.157415 -0.453991,0.283788 -0.5,0.280828 -0.04601,-0.003 -0.342402,-0.191646 -0.658652,-0.419303 z m 0.025,-1.003718 c -0.515823,-0.309074 -0.551942,-0.356217 -0.581259,-0.75864 -0.01719,-0.235998 0.0058,-0.413176 0.05102,-0.393731 0.04526,0.01945 0.318073,0.166023 0.606259,0.325727 0.435088,0.241112 0.523975,0.337094 0.523975,0.565802 0,0.151488 0.02731,0.346485 0.0607,0.433327 0.08881,0.23103 -0.046,0.195834 -0.660699,-0.172485 z m -0.0722,-2.102348 -0.622197,-0.41215 -0.0028,-1.073068 c -0.0015,-0.5901867 -0.03655,-1.0728993 -0.0778,-1.072694 -0.04125,2.096e-4 -0.226325,0.092465 -0.411278,0.2050195 C 17.228774,9.439078 17.061809,9.5155569 17.042693,9.4964757 16.930214,9.3841988 17.172432,8.9929104 17.466848,8.8112783 17.756794,8.6324035 17.806159,8.5499391 17.78048,8.2873466 17.75605,8.037522 17.6657,7.9294191 17.325005,7.7423753 c -0.23375,-0.1283302 -0.425,-0.2973408 -0.425,-0.375579 0,-0.1935434 0.135109,-0.1788024 0.522583,0.057016 0.180079,0.1095971 0.36443,0.1994353 0.409667,0.1996406 0.04524,2.096e-4 0.07515,-0.2354523 0.06648,-0.5236833 -0.0087,-0.288231 -0.01194,-0.5937275 -0.0072,-0.6788813 0.0047,-0.085154 0.357275,-0.352281 0.783525,-0.5936163 0.42625,-0.2413353 0.9775,-0.5811866 1.225,-0.7552252 0.618829,-0.4351541 2.562541,-1.5408516 2.708669,-1.5408516 0.06556,0 0.338611,0.1347574 0.60677,0.2994608 0.26816,0.1647034 0.50733,0.2994608 0.531491,0.2994608 0.02416,0 0.05723,-0.2984544 0.0735,-0.663232 l 0.02957,-0.6632321 0.45,-0.2474394 0.45,-0.2474396 0.700602,0.4061579 c 0.60244,0.3492506 0.805601,0.5476672 1.45,1.4161375 L 27.65006,5.141049 27.67684,2.8018371 27.70362,0.46262529 28.140433,0.2313126 28.577248,0 l 0.686407,0.39445933 0.686407,0.39445934 0.02691,2.28138253 c 0.02684,2.2757168 0.02628,2.2824998 -0.225,2.7312846 -0.211735,0.3781542 -0.251826,0.5792272 -0.251396,1.2608466 4e-4,0.6866839 0.03826,0.8721262 0.246879,1.2102256 0.135502,0.2196046 0.247772,0.4285335 0.249488,0.4642864 0.0051,0.1052055 -0.693072,0.4846388 -0.877595,0.476977 -0.09311,-0.00386 -0.439284,-0.1749739 -0.769285,-0.3802398 -0.449932,-0.2798662 -0.787584,-0.6185837 -1.35,-1.3542602 l -0.75,-0.9810492 -0.05,2.313504 -0.05,2.3135048 -0.4,0.231112 -0.4,0.231114 -0.469185,-0.247741 c -0.258052,-0.136257 -0.49289,-0.309403 -0.521862,-0.384766 -0.07404,-0.192594 0.07239,-0.170727 0.485331,0.07248 l 0.355716,0.209499 V 7.5361666 3.8352582 l -0.275,-0.1756924 C 24.773813,3.562935 24.590599,3.4271421 24.51792,3.3578038 24.44524,3.2884656 24.322067,3.2317343 24.244199,3.2317343 c -0.118918,0 -0.145784,0.5612058 -0.167857,3.50641 l -0.02628,3.5064097 -0.7,0.37991 c -0.604146,0.327887 -0.74108,0.45579 -1,0.934045 -0.165,0.304774 -0.357662,0.554831 -0.428138,0.555681 -0.253447,0.0031 -0.227347,-0.279843 0.07268,-0.787774 0.168002,-0.28442 0.305458,-0.557551 0.305458,-0.606959 0,-0.04941 0.2475,-0.237602 0.55,-0.41821 0.3025,-0.180607 0.55,-0.366545 0.55,-0.4131946 0,-0.04665 -0.03518,-0.069844 -0.07818,-0.051544 -0.236584,0.1006938 -3.409412,1.9436766 -3.610309,2.0970996 -0.32761,0.250193 -0.467681,0.220114 -1.18371,-0.254193 z m 0.6722,-2.1577519 V 7.3268695 L 18.792391,7.0700184 c -0.7447,-0.4692636 -0.692389,-0.6077008 -0.692389,1.8323509 v 2.1982847 l 0.475,0.300955 c 0.26125,0.165526 0.50875,0.304082 0.55,0.307902 0.04125,0.0038 0.075,-0.980711 0.075,-2.1878479 z m 2.589451,-0.00917 c 1.277022,-0.730141 1.410549,-0.8325081 1.410549,-1.0813856 0,-0.1805656 -0.05266,-0.2749004 -0.153462,-0.2749004 -0.09445,0 -0.142518,0.073536 -0.125,0.1912327 0.0204,0.1370951 -0.117051,0.2807448 -0.485541,0.5074197 -1.616923,0.9946442 -1.904036,1.1646595 -1.966814,1.1646595 -0.03805,0 -0.07223,-0.1010683 -0.07595,-0.2245959 l -0.0068,-0.2245956 -0.10605,0.219084 c -0.09395,0.1940866 -0.05853,0.5295685 0.0559,0.5295685 0.02342,0 0.677337,-0.3629192 1.453139,-0.8064864 z M 20.700002,8.185962 c 0,-0.3050917 -0.08726,-0.3763273 -0.313148,-0.2556512 -0.178494,0.095355 -0.256788,0.488814 -0.123704,0.6216589 0.123088,0.1228664 0.436852,-0.1400145 0.436852,-0.3660077 z M 27.805328,7.5489607 C 27.363367,6.9587734 26.731366,6.1097546 26.400882,5.6622523 L 25.800002,4.8486119 25.799652,4.015218 25.799303,3.1818242 25.27337,2.8986714 C 24.803628,2.6457704 24.717721,2.629034 24.469295,2.742021 l -0.278143,0.1265024 0.529425,0.3282908 c 0.291184,0.1805599 0.603494,0.3056576 0.694022,0.2779948 0.141876,-0.043353 0.169485,0.064948 0.2,0.7845399 0.03011,0.7100196 0.07388,0.8858908 0.292765,1.1763189 0.141549,0.1878158 0.282503,0.4088619 0.313231,0.4912136 0.03073,0.082352 0.376166,0.5671868 0.767639,1.0774113 0.391472,0.5102245 0.711768,0.9690261 0.711768,1.0195591 0,0.098216 0.691764,0.5981767 0.827661,0.5981767 0.04468,0 -0.280373,-0.4828805 -0.722335,-1.0730678 z M 22.877751,7.0691542 c 0.127623,-0.089229 0.222251,-0.260324 0.222251,-0.4018444 0,-0.2417035 -0.0058,-0.243469 -0.3,-0.091597 -0.210704,0.1087635 -0.3,0.2283737 -0.3,0.4018445 0,0.2874867 0.07245,0.3050539 0.377749,0.091597 z M 20.850002,6.1265335 c 1.132691,-0.6497655 2.65,-1.6188261 2.65,-1.6924765 0,-0.030714 -0.202075,-0.1776821 -0.449057,-0.326596 L 22.601889,3.8367084 20.525945,5.0371887 c -1.141768,0.6602642 -2.113044,1.2372121 -2.158389,1.2821062 -0.04535,0.044894 0.156346,0.2192442 0.448203,0.3874441 l 0.53065,0.3058181 0.301797,-0.1848702 C 19.814194,6.7260082 20.355002,6.4104892 20.850002,6.1265335 Z M 28.998562,4.2049819 28.997162,1.4848797 28.49855,1.210374 C 28.224314,1.0593958 27.977462,0.93586827 27.949991,0.93586827 c -0.02747,0 -0.04995,1.03669803 -0.04995,2.30377333 v 2.3037733 l 0.525,0.687504 c 0.288751,0.3781272 0.536251,0.6890027 0.550001,0.6908345 0.01375,0.00183 0.02435,-1.2207153 0.02356,-2.7167715 z m 0.501441,-3.25489443 c 0,-0.12274429 -0.797195,-0.61314078 -0.99673,-0.61314078 -0.09833,0 -0.230589,0.0623118 -0.293909,0.13847007 -0.162009,0.19485754 0.854167,0.78250534 1.115639,0.64516674 0.09625,-0.050556 0.175,-0.12727865 0.175,-0.17049603 z M 23.760821,11.16787 c -0.10405,-0.07863 -0.23905,-0.163716 -0.3,-0.18909 -0.127619,-0.05312 0.3231,-0.454554 0.514181,-0.457947 0.07954,-0.0014 0.125,0.143 0.125,0.397061 0,0.432381 -0.04951,0.468869 -0.339181,0.249976 z M 29.86667,8.0563803 C 29.759606,7.9495089 29.79,6.144477 29.9,6.0766118 29.96425,6.0369712 30,6.3916727 30,7.0689233 c 0,1.052787 -0.0081,1.1125021 -0.133333,0.987457 z"
       id="path494" /></g><g
     inkscape:label="F.SilkS"
     inkscape:groupmode="layer"
     id="g464" /><g
     inkscape:label="Dwgs.User"
     inkscape:groupmode="layer"
     id="g466" /><g
     inkscape:label="Drill"
     inkscape:groupmode="layer"
     id="g468" /></svg>
