M48
; DRILL file {KiCad 7.0.9} date Thu Feb  1 20:28:58 2024
; FORMAT={-:-/ absolute / inch / decimal}
; #@! TF.CreationDate,2024-02-01T20:28:58-08:00
; #@! TF.GenerationSoftware,Kicad,Pcbnew,7.0.9
; #@! TF.FileFunction,Plated,1,2,PTH
FMAT,2
INCH
; #@! TA.AperFunction,Plated,PTH,ViaDrill
T1C0.0157
; #@! TA.AperFunction,Plated,PTH,ComponentDrill
T2C0.0295
; #@! TA.AperFunction,Plated,PTH,ComponentDrill
T3C0.0394
; #@! TA.AperFunction,Plated,PTH,ComponentDrill
T4C0.0591
%
G90
G05
T1
X5.5709Y-4.5276
X5.7283Y-3.8189
X5.9843Y-3.1693
X6.063Y-4.5866
X6.2992Y-3.2677
X6.3111Y-3.8189
X6.5945Y-4.311
X6.6339Y-3.6024
X6.6535Y-3.2677
X6.7717Y-4.4094
X6.8504Y-4.5079
X7.2244Y-4.1535
X7.5787Y-3.1496
X8.0059Y-5.1969
T2
X3.622Y-5.2756
X3.622Y-5.3543
T3
X2.0591Y-3.5827
X2.0591Y-3.6811
X2.0591Y-3.7795
X2.185Y-3.5827
X2.185Y-3.6811
X2.185Y-3.7795
X3.8976Y-5.6055
X3.8976Y-5.7055
X3.8976Y-5.8055
X3.8976Y-5.9055
X3.8976Y-6.0055
X3.8976Y-6.1055
X4.3307Y-2.7953
X4.9606Y-2.7953
X5.2449Y-3.3976
X5.2449Y-4.3976
X5.3449Y-3.3976
X5.3449Y-4.3976
X5.4449Y-3.3976
X5.4449Y-4.3976
X5.5449Y-3.3976
X5.5449Y-4.3976
X5.5906Y-2.7953
X5.6449Y-3.3976
X5.6449Y-4.3976
X5.7449Y-3.3976
X5.7449Y-4.3976
X5.8268Y-5.8055
X5.8268Y-5.9055
X5.8449Y-3.3976
X5.8449Y-4.3976
X5.9268Y-5.8055
X5.9268Y-5.9055
X5.9449Y-3.3976
X5.9449Y-4.3976
X6.0268Y-5.8055
X6.0268Y-5.9055
X6.0449Y-3.3976
X6.0449Y-4.3976
X6.1449Y-3.3976
X6.1449Y-4.3976
X6.2205Y-2.7953
X6.2449Y-3.3976
X6.2449Y-4.3976
X6.3449Y-3.3976
X6.3449Y-4.3976
X6.4449Y-3.3976
X6.4449Y-4.3976
X6.5449Y-3.3976
X6.5449Y-4.3976
X6.6449Y-3.3976
X6.6449Y-4.3976
X6.8504Y-2.7953
X7.3772Y-6.1018
X7.4772Y-6.1018
X7.4803Y-2.7953
X7.5772Y-6.1018
X7.6122Y-5.5906
X7.6772Y-6.1018
X7.7422Y-5.5906
X7.7772Y-6.1018
X7.8772Y-6.1018
X7.9772Y-6.1018
T4
X3.3465Y-2.4803
X3.5039Y-2.4803
X9.4488Y-2.4803
X9.6063Y-2.4803
T0
M30
