%TF.GenerationSoftware,KiCad,Pcbnew,7.0.9*%
%TF.CreationDate,2024-02-01T20:29:03-08:00*%
%TF.ProjectId,DC32_Cnet_Badge_Main,44433332-5f43-46e6-9574-5f4261646765,rev?*%
%TF.SameCoordinates,Original*%
%TF.FileFunction,Legend,Top*%
%TF.FilePolarity,Positive*%
%FSLAX46Y46*%
G04 Gerber Fmt 4.6, Leading zero omitted, Abs format (unit mm)*
G04 Created by KiCad (PCBNEW 7.0.9) date 2024-02-01 20:29:03*
%MOMM*%
%LPD*%
G01*
G04 APERTURE LIST*
%ADD10C,0.150000*%
%ADD11C,0.187500*%
%ADD12C,0.300000*%
%ADD13C,0.010000*%
%ADD14C,0.120000*%
G04 APERTURE END LIST*
D10*
X205000000Y-59000000D02*
X250000000Y-59000000D01*
X250000000Y-159000000D01*
X205000000Y-159000000D01*
X205000000Y-59000000D01*
X50000000Y-59000000D02*
X95000000Y-59000000D01*
X95000000Y-159000000D01*
X50000000Y-159000000D01*
X50000000Y-59000000D01*
D11*
G36*
X108213073Y-73310089D02*
G01*
X108234800Y-73311605D01*
X108256144Y-73314131D01*
X108277104Y-73317667D01*
X108297680Y-73322214D01*
X108317873Y-73327771D01*
X108337683Y-73334338D01*
X108357109Y-73341916D01*
X108376151Y-73350504D01*
X108394810Y-73360102D01*
X108413085Y-73370711D01*
X108430977Y-73382330D01*
X108448485Y-73394960D01*
X108465610Y-73408600D01*
X108482351Y-73423250D01*
X108498709Y-73438911D01*
X108514369Y-73455224D01*
X108529019Y-73471924D01*
X108542659Y-73489010D01*
X108555289Y-73506482D01*
X108566908Y-73524341D01*
X108577517Y-73542586D01*
X108587115Y-73561218D01*
X108595703Y-73580236D01*
X108603281Y-73599640D01*
X108609849Y-73619431D01*
X108615406Y-73639608D01*
X108619952Y-73660172D01*
X108623488Y-73681122D01*
X108626014Y-73702458D01*
X108627530Y-73724181D01*
X108628035Y-73746290D01*
X108627530Y-73768397D01*
X108626014Y-73790111D01*
X108623488Y-73811433D01*
X108619952Y-73832363D01*
X108615406Y-73852901D01*
X108609849Y-73873047D01*
X108603281Y-73892800D01*
X108595703Y-73912162D01*
X108587115Y-73931131D01*
X108577517Y-73949709D01*
X108566908Y-73967894D01*
X108555289Y-73985687D01*
X108542659Y-74003088D01*
X108529019Y-74020096D01*
X108514369Y-74036713D01*
X108498709Y-74052937D01*
X108482351Y-74068465D01*
X108465610Y-74082991D01*
X108448485Y-74096515D01*
X108430977Y-74109037D01*
X108413085Y-74120557D01*
X108394810Y-74131076D01*
X108376151Y-74140593D01*
X108357109Y-74149108D01*
X108337683Y-74156621D01*
X108317873Y-74163133D01*
X108297680Y-74168643D01*
X108277104Y-74173151D01*
X108256144Y-74176657D01*
X108234800Y-74179161D01*
X108213073Y-74180664D01*
X108190963Y-74181165D01*
X107807745Y-74181165D01*
X107807745Y-74745000D01*
X107500000Y-74745000D01*
X107500000Y-73616964D01*
X107807745Y-73616964D01*
X107807745Y-73873419D01*
X108190963Y-73873419D01*
X108207293Y-73872516D01*
X108222855Y-73869805D01*
X108237647Y-73865288D01*
X108251670Y-73858965D01*
X108264924Y-73850834D01*
X108277409Y-73840897D01*
X108282187Y-73836416D01*
X108293164Y-73824459D01*
X108302280Y-73811715D01*
X108309536Y-73798184D01*
X108314931Y-73783866D01*
X108318466Y-73768760D01*
X108320140Y-73752868D01*
X108320289Y-73746290D01*
X108319359Y-73729960D01*
X108316568Y-73714398D01*
X108311917Y-73699606D01*
X108305406Y-73685583D01*
X108297034Y-73672329D01*
X108286801Y-73659844D01*
X108282187Y-73655066D01*
X108270010Y-73644089D01*
X108257064Y-73634973D01*
X108243349Y-73627717D01*
X108228864Y-73622322D01*
X108213610Y-73618787D01*
X108197587Y-73617113D01*
X108190963Y-73616964D01*
X107807745Y-73616964D01*
X107500000Y-73616964D01*
X107500000Y-73309584D01*
X108190963Y-73309584D01*
X108213073Y-73310089D01*
G37*
G36*
X108729518Y-73309584D02*
G01*
X109037264Y-73309584D01*
X109037264Y-74334672D01*
X109038346Y-74350407D01*
X109041592Y-74365189D01*
X109047001Y-74379017D01*
X109054575Y-74391893D01*
X109064312Y-74403816D01*
X109068039Y-74407578D01*
X109079940Y-74417663D01*
X109092562Y-74425662D01*
X109108200Y-74432356D01*
X109124819Y-74436210D01*
X109139846Y-74437254D01*
X109857554Y-74437254D01*
X109857554Y-74745000D01*
X109037264Y-74745000D01*
X109021735Y-74744647D01*
X109006472Y-74743591D01*
X108991476Y-74741831D01*
X108976745Y-74739367D01*
X108962281Y-74736198D01*
X108948083Y-74732326D01*
X108934151Y-74727749D01*
X108913752Y-74719564D01*
X108900486Y-74713227D01*
X108887486Y-74706186D01*
X108874752Y-74698440D01*
X108862284Y-74689991D01*
X108850082Y-74680838D01*
X108838147Y-74670980D01*
X108826478Y-74660419D01*
X108820743Y-74654874D01*
X108809696Y-74643419D01*
X108799362Y-74631678D01*
X108789741Y-74619651D01*
X108780832Y-74607338D01*
X108772636Y-74594739D01*
X108765153Y-74581853D01*
X108758382Y-74568681D01*
X108752324Y-74555223D01*
X108746979Y-74541478D01*
X108742346Y-74527448D01*
X108738427Y-74513131D01*
X108735220Y-74498528D01*
X108732725Y-74483639D01*
X108730943Y-74468463D01*
X108729874Y-74453001D01*
X108729518Y-74437254D01*
X108729518Y-73309584D01*
G37*
G36*
X111087072Y-74745000D02*
G01*
X110779326Y-74745000D01*
X110779326Y-73873419D01*
X110778666Y-73854092D01*
X110776686Y-73835268D01*
X110773385Y-73816947D01*
X110768764Y-73799127D01*
X110762824Y-73781810D01*
X110755562Y-73764995D01*
X110746981Y-73748683D01*
X110737080Y-73732872D01*
X110725858Y-73717565D01*
X110713316Y-73702759D01*
X110704221Y-73693168D01*
X110689928Y-73679549D01*
X110675074Y-73667270D01*
X110659660Y-73656331D01*
X110643685Y-73646731D01*
X110627151Y-73638471D01*
X110610056Y-73631550D01*
X110592401Y-73625968D01*
X110574185Y-73621727D01*
X110555409Y-73618824D01*
X110536073Y-73617262D01*
X110522871Y-73616964D01*
X110503545Y-73617634D01*
X110484721Y-73619643D01*
X110466399Y-73622992D01*
X110448579Y-73627680D01*
X110431262Y-73633708D01*
X110414447Y-73641075D01*
X110398135Y-73649782D01*
X110382325Y-73659829D01*
X110367017Y-73671214D01*
X110352211Y-73683940D01*
X110342620Y-73693168D01*
X110329067Y-73707638D01*
X110316847Y-73722611D01*
X110305960Y-73738087D01*
X110296406Y-73754064D01*
X110288186Y-73770544D01*
X110281298Y-73787527D01*
X110275744Y-73805011D01*
X110271522Y-73822998D01*
X110268634Y-73841487D01*
X110267079Y-73860479D01*
X110266782Y-73873419D01*
X110266782Y-74745000D01*
X109959036Y-74745000D01*
X109959036Y-73873419D01*
X109959685Y-73844688D01*
X109961630Y-73816472D01*
X109964871Y-73788772D01*
X109969409Y-73761586D01*
X109975244Y-73734916D01*
X109982375Y-73708761D01*
X109990803Y-73683121D01*
X110000527Y-73657997D01*
X110011548Y-73633387D01*
X110023866Y-73609293D01*
X110037480Y-73585714D01*
X110052391Y-73562650D01*
X110068598Y-73540102D01*
X110086102Y-73518068D01*
X110104902Y-73496550D01*
X110125000Y-73475547D01*
X110146045Y-73455450D01*
X110167601Y-73436650D01*
X110189666Y-73419146D01*
X110212240Y-73402938D01*
X110235324Y-73388028D01*
X110258917Y-73374414D01*
X110283020Y-73362096D01*
X110307632Y-73351075D01*
X110332754Y-73341351D01*
X110358385Y-73332923D01*
X110384526Y-73325792D01*
X110411176Y-73319957D01*
X110438335Y-73315419D01*
X110466004Y-73312177D01*
X110494183Y-73310233D01*
X110522871Y-73309584D01*
X110551821Y-73310233D01*
X110580236Y-73312177D01*
X110608115Y-73315419D01*
X110635459Y-73319957D01*
X110662268Y-73325792D01*
X110688542Y-73332923D01*
X110714281Y-73341351D01*
X110739484Y-73351075D01*
X110764152Y-73362096D01*
X110788285Y-73374414D01*
X110811882Y-73388028D01*
X110834945Y-73402938D01*
X110857472Y-73419146D01*
X110879464Y-73436650D01*
X110900920Y-73455450D01*
X110921842Y-73475547D01*
X110941850Y-73496550D01*
X110960568Y-73518068D01*
X110977994Y-73540102D01*
X110994130Y-73562650D01*
X111008975Y-73585714D01*
X111022529Y-73609293D01*
X111034792Y-73633387D01*
X111045765Y-73657997D01*
X111055446Y-73683121D01*
X111063837Y-73708761D01*
X111070936Y-73734916D01*
X111076745Y-73761586D01*
X111081263Y-73788772D01*
X111084490Y-73816472D01*
X111086427Y-73844688D01*
X111087072Y-73873419D01*
X111087072Y-74745000D01*
G37*
G36*
X110287299Y-74283747D02*
G01*
X110287901Y-74265850D01*
X110289707Y-74248430D01*
X110292718Y-74231486D01*
X110296933Y-74215019D01*
X110302352Y-74199029D01*
X110308976Y-74183515D01*
X110316804Y-74168477D01*
X110325836Y-74153917D01*
X110336072Y-74139832D01*
X110347513Y-74126225D01*
X110355809Y-74117418D01*
X110368981Y-74104978D01*
X110382668Y-74093761D01*
X110396870Y-74083769D01*
X110411588Y-74074999D01*
X110426821Y-74067454D01*
X110442569Y-74061132D01*
X110458832Y-74056034D01*
X110475610Y-74052159D01*
X110492904Y-74049508D01*
X110510712Y-74048080D01*
X110522871Y-74047808D01*
X110540702Y-74048420D01*
X110558064Y-74050255D01*
X110574955Y-74053314D01*
X110591375Y-74057597D01*
X110607326Y-74063103D01*
X110622807Y-74069833D01*
X110637818Y-74077786D01*
X110652358Y-74086963D01*
X110666428Y-74097364D01*
X110680028Y-74108988D01*
X110688834Y-74117418D01*
X110701340Y-74130708D01*
X110712615Y-74144474D01*
X110722660Y-74158717D01*
X110731475Y-74173437D01*
X110739061Y-74188633D01*
X110745416Y-74204306D01*
X110750541Y-74220455D01*
X110754436Y-74237081D01*
X110757101Y-74254184D01*
X110758536Y-74271763D01*
X110758810Y-74283747D01*
X110758195Y-74301899D01*
X110756350Y-74319536D01*
X110753275Y-74336658D01*
X110748969Y-74353265D01*
X110743434Y-74369356D01*
X110736669Y-74384932D01*
X110728674Y-74399993D01*
X110719448Y-74414539D01*
X110708993Y-74428570D01*
X110697308Y-74442085D01*
X110688834Y-74450809D01*
X110675547Y-74463052D01*
X110661790Y-74474092D01*
X110647563Y-74483927D01*
X110632866Y-74492557D01*
X110617699Y-74499984D01*
X110602062Y-74506206D01*
X110585954Y-74511224D01*
X110569376Y-74515037D01*
X110552329Y-74517646D01*
X110534811Y-74519051D01*
X110522871Y-74519319D01*
X110504719Y-74518717D01*
X110487082Y-74516911D01*
X110469960Y-74513900D01*
X110453353Y-74509685D01*
X110437262Y-74504266D01*
X110421686Y-74497642D01*
X110406625Y-74489814D01*
X110392079Y-74480782D01*
X110378048Y-74470546D01*
X110364533Y-74459105D01*
X110355809Y-74450809D01*
X110343565Y-74437637D01*
X110332526Y-74423950D01*
X110322691Y-74409748D01*
X110314061Y-74395030D01*
X110306634Y-74379797D01*
X110300412Y-74364049D01*
X110295394Y-74347786D01*
X110291581Y-74331008D01*
X110288971Y-74313714D01*
X110287566Y-74295906D01*
X110287299Y-74283747D01*
G37*
G36*
X111879518Y-73873419D02*
G01*
X111895849Y-73872516D01*
X111911410Y-73869805D01*
X111926203Y-73865288D01*
X111940226Y-73858965D01*
X111953480Y-73850834D01*
X111965964Y-73840897D01*
X111970743Y-73836416D01*
X111981719Y-73824459D01*
X111990835Y-73811715D01*
X111998091Y-73798184D01*
X112003487Y-73783866D01*
X112007021Y-73768760D01*
X112008696Y-73752868D01*
X112008845Y-73746290D01*
X112008845Y-73309584D01*
X112316591Y-73309584D01*
X112316591Y-73746290D01*
X112316137Y-73768397D01*
X112314776Y-73790111D01*
X112312508Y-73811433D01*
X112309332Y-73832363D01*
X112305249Y-73852901D01*
X112300259Y-73873047D01*
X112294361Y-73892800D01*
X112287556Y-73912162D01*
X112279844Y-73931131D01*
X112271224Y-73949709D01*
X112261697Y-73967894D01*
X112251263Y-73985687D01*
X112239922Y-74003088D01*
X112227673Y-74020096D01*
X112214517Y-74036713D01*
X112200453Y-74052937D01*
X112185737Y-74068465D01*
X112170531Y-74082991D01*
X112154836Y-74096515D01*
X112138652Y-74109037D01*
X112121978Y-74120557D01*
X112104815Y-74131076D01*
X112087162Y-74140593D01*
X112069020Y-74149108D01*
X112050388Y-74156621D01*
X112031267Y-74163133D01*
X112011657Y-74168643D01*
X111991557Y-74173151D01*
X111970967Y-74176657D01*
X111949889Y-74179161D01*
X111928320Y-74180664D01*
X111906263Y-74181165D01*
X111906263Y-74745000D01*
X111598883Y-74745000D01*
X111598883Y-74181165D01*
X111576824Y-74180664D01*
X111555251Y-74179161D01*
X111534165Y-74176657D01*
X111513566Y-74173151D01*
X111493453Y-74168643D01*
X111473827Y-74163133D01*
X111454687Y-74156621D01*
X111436034Y-74149108D01*
X111417868Y-74140593D01*
X111400188Y-74131076D01*
X111382994Y-74120557D01*
X111366287Y-74109037D01*
X111350067Y-74096515D01*
X111334334Y-74082991D01*
X111319087Y-74068465D01*
X111304326Y-74052937D01*
X111290307Y-74036713D01*
X111277192Y-74020096D01*
X111264982Y-74003088D01*
X111253676Y-73985687D01*
X111243275Y-73967894D01*
X111233778Y-73949709D01*
X111225186Y-73931131D01*
X111217498Y-73912162D01*
X111210714Y-73892800D01*
X111204835Y-73873047D01*
X111199861Y-73852901D01*
X111195791Y-73832363D01*
X111192625Y-73811433D01*
X111190364Y-73790111D01*
X111189007Y-73768397D01*
X111188555Y-73746290D01*
X111188555Y-73309584D01*
X111496301Y-73309584D01*
X111496301Y-73746290D01*
X111497222Y-73762498D01*
X111499986Y-73777918D01*
X111504592Y-73792551D01*
X111511041Y-73806397D01*
X111519333Y-73819456D01*
X111529467Y-73831728D01*
X111534036Y-73836416D01*
X111546310Y-73847076D01*
X111559317Y-73855929D01*
X111573058Y-73862976D01*
X111587531Y-73868215D01*
X111602739Y-73871648D01*
X111618680Y-73873274D01*
X111625261Y-73873419D01*
X111879518Y-73873419D01*
G37*
G36*
X141128035Y-73309584D02*
G01*
X141128035Y-73616964D01*
X140434874Y-73616964D01*
X140418561Y-73617894D01*
X140403053Y-73620685D01*
X140388350Y-73625336D01*
X140374452Y-73631847D01*
X140361360Y-73640219D01*
X140349072Y-73650452D01*
X140344382Y-73655066D01*
X140333827Y-73667243D01*
X140325062Y-73680189D01*
X140318085Y-73693904D01*
X140312897Y-73708389D01*
X140309499Y-73723643D01*
X140307889Y-73739666D01*
X140307745Y-73746290D01*
X140307745Y-73873419D01*
X141128035Y-73873419D01*
X141128035Y-74181165D01*
X140307745Y-74181165D01*
X140307745Y-74745000D01*
X140000000Y-74745000D01*
X140000000Y-73616964D01*
X140000090Y-73601000D01*
X140000910Y-73585348D01*
X140002460Y-73570008D01*
X140004739Y-73554980D01*
X140007749Y-73540264D01*
X140011488Y-73525859D01*
X140015958Y-73511767D01*
X140021157Y-73497987D01*
X140027086Y-73484519D01*
X140033745Y-73471363D01*
X140041134Y-73458519D01*
X140049253Y-73445986D01*
X140058101Y-73433766D01*
X140067680Y-73421858D01*
X140077988Y-73410261D01*
X140089026Y-73398977D01*
X140100614Y-73388152D01*
X140112479Y-73378026D01*
X140124622Y-73368598D01*
X140137043Y-73359868D01*
X140149741Y-73351836D01*
X140162717Y-73344503D01*
X140175970Y-73337869D01*
X140189501Y-73331933D01*
X140203310Y-73326695D01*
X140217397Y-73322155D01*
X140231761Y-73318314D01*
X140246402Y-73315171D01*
X140261322Y-73312727D01*
X140276519Y-73310981D01*
X140291993Y-73309933D01*
X140307745Y-73309584D01*
X141128035Y-73309584D01*
G37*
G36*
X141537264Y-73309584D02*
G01*
X141537264Y-74334672D01*
X141538449Y-74351295D01*
X141542004Y-74367095D01*
X141547929Y-74382070D01*
X141556223Y-74396221D01*
X141566888Y-74409547D01*
X141570969Y-74413806D01*
X141584021Y-74425261D01*
X141597897Y-74434345D01*
X141612598Y-74441060D01*
X141628122Y-74445405D01*
X141644471Y-74447380D01*
X141650104Y-74447512D01*
X141667187Y-74446327D01*
X141683266Y-74442772D01*
X141698340Y-74436847D01*
X141712409Y-74428552D01*
X141725474Y-74417888D01*
X141729605Y-74413806D01*
X141740811Y-74400754D01*
X141749698Y-74386878D01*
X141756267Y-74372178D01*
X141760517Y-74356653D01*
X141762449Y-74340304D01*
X141762578Y-74334672D01*
X141762578Y-73309584D01*
X142070324Y-73309584D01*
X142070324Y-74334672D01*
X142071470Y-74351295D01*
X142074909Y-74367095D01*
X142080641Y-74382070D01*
X142088665Y-74396221D01*
X142098982Y-74409547D01*
X142102930Y-74413806D01*
X142115875Y-74425261D01*
X142129978Y-74434345D01*
X142145241Y-74441060D01*
X142161663Y-74445405D01*
X142176234Y-74447215D01*
X142185362Y-74447512D01*
X142202523Y-74446327D01*
X142218833Y-74442772D01*
X142234293Y-74436847D01*
X142248904Y-74428552D01*
X142262664Y-74417888D01*
X142267062Y-74413806D01*
X142277194Y-74402987D01*
X142287086Y-74389248D01*
X142294505Y-74374685D01*
X142299450Y-74359298D01*
X142301923Y-74343086D01*
X142302233Y-74334672D01*
X142302233Y-73309584D01*
X142613642Y-73309584D01*
X142613642Y-74334672D01*
X142613170Y-74355508D01*
X142611753Y-74375979D01*
X142609392Y-74396083D01*
X142606086Y-74415821D01*
X142601836Y-74435193D01*
X142596641Y-74454198D01*
X142590501Y-74472837D01*
X142583417Y-74491109D01*
X142575389Y-74509015D01*
X142566416Y-74526555D01*
X142556498Y-74543728D01*
X142545636Y-74560535D01*
X142533829Y-74576976D01*
X142521078Y-74593050D01*
X142507382Y-74608758D01*
X142492742Y-74624099D01*
X142477445Y-74638740D01*
X142461778Y-74652435D01*
X142445743Y-74665186D01*
X142429338Y-74676993D01*
X142412564Y-74687855D01*
X142395421Y-74697773D01*
X142377908Y-74706746D01*
X142360027Y-74714774D01*
X142341776Y-74721858D01*
X142323155Y-74727998D01*
X142304166Y-74733193D01*
X142284807Y-74737443D01*
X142265080Y-74740749D01*
X142244982Y-74743110D01*
X142224516Y-74744527D01*
X142203681Y-74745000D01*
X142182595Y-74744599D01*
X142161927Y-74743397D01*
X142141676Y-74741393D01*
X142121844Y-74738588D01*
X142102430Y-74734982D01*
X142083433Y-74730574D01*
X142064854Y-74725365D01*
X142046693Y-74719354D01*
X142028951Y-74712542D01*
X142011626Y-74704928D01*
X141994718Y-74696513D01*
X141978229Y-74687297D01*
X141962158Y-74677279D01*
X141946504Y-74666460D01*
X141931269Y-74654840D01*
X141916451Y-74642418D01*
X141902662Y-74654840D01*
X141888407Y-74666460D01*
X141873685Y-74677279D01*
X141858497Y-74687297D01*
X141842842Y-74696513D01*
X141826720Y-74704928D01*
X141810132Y-74712542D01*
X141793078Y-74719354D01*
X141775557Y-74725365D01*
X141757569Y-74730574D01*
X141739115Y-74734982D01*
X141720194Y-74738588D01*
X141700807Y-74741393D01*
X141680953Y-74743397D01*
X141660633Y-74744599D01*
X141639846Y-74745000D01*
X141618747Y-74744527D01*
X141598040Y-74743110D01*
X141577726Y-74740749D01*
X141557803Y-74737443D01*
X141538273Y-74733193D01*
X141519135Y-74727998D01*
X141500389Y-74721858D01*
X141482035Y-74714774D01*
X141464073Y-74706746D01*
X141446503Y-74697773D01*
X141429325Y-74687855D01*
X141412540Y-74676993D01*
X141396146Y-74665186D01*
X141380145Y-74652435D01*
X141364536Y-74638740D01*
X141349319Y-74624099D01*
X141334812Y-74608758D01*
X141321241Y-74593050D01*
X141308605Y-74576976D01*
X141296906Y-74560535D01*
X141286143Y-74543728D01*
X141276315Y-74526555D01*
X141267424Y-74509015D01*
X141259468Y-74491109D01*
X141252449Y-74472837D01*
X141246365Y-74454198D01*
X141241217Y-74435193D01*
X141237006Y-74415821D01*
X141233730Y-74396083D01*
X141231390Y-74375979D01*
X141229986Y-74355508D01*
X141229518Y-74334672D01*
X141229518Y-73309584D01*
X141537264Y-73309584D01*
G37*
G36*
X143428565Y-73310089D02*
G01*
X143450292Y-73311605D01*
X143471636Y-73314131D01*
X143492596Y-73317667D01*
X143513172Y-73322214D01*
X143533365Y-73327771D01*
X143553175Y-73334338D01*
X143572601Y-73341916D01*
X143591643Y-73350504D01*
X143610302Y-73360102D01*
X143628577Y-73370711D01*
X143646469Y-73382330D01*
X143663977Y-73394960D01*
X143681102Y-73408600D01*
X143697843Y-73423250D01*
X143714200Y-73438911D01*
X143729861Y-73455224D01*
X143744511Y-73471924D01*
X143758151Y-73489010D01*
X143770781Y-73506482D01*
X143782400Y-73524341D01*
X143793009Y-73542586D01*
X143802607Y-73561218D01*
X143811195Y-73580236D01*
X143818773Y-73599640D01*
X143825341Y-73619431D01*
X143830898Y-73639608D01*
X143835444Y-73660172D01*
X143838980Y-73681122D01*
X143841506Y-73702458D01*
X143843022Y-73724181D01*
X143843527Y-73746290D01*
X143843527Y-74310125D01*
X143843022Y-74332231D01*
X143841506Y-74353946D01*
X143838980Y-74375268D01*
X143835444Y-74396198D01*
X143830898Y-74416736D01*
X143825341Y-74436881D01*
X143818773Y-74456635D01*
X143811195Y-74475997D01*
X143802607Y-74494966D01*
X143793009Y-74513543D01*
X143782400Y-74531728D01*
X143770781Y-74549521D01*
X143758151Y-74566922D01*
X143744511Y-74583931D01*
X143729861Y-74600548D01*
X143714200Y-74616772D01*
X143697843Y-74632300D01*
X143681102Y-74646825D01*
X143663977Y-74660349D01*
X143646469Y-74672872D01*
X143628577Y-74684392D01*
X143610302Y-74694911D01*
X143591643Y-74704428D01*
X143572601Y-74712943D01*
X143553175Y-74720456D01*
X143533365Y-74726968D01*
X143513172Y-74732477D01*
X143492596Y-74736985D01*
X143471636Y-74740492D01*
X143450292Y-74742996D01*
X143428565Y-74744499D01*
X143406454Y-74745000D01*
X142715491Y-74745000D01*
X142715491Y-73616964D01*
X143023237Y-73616964D01*
X143023237Y-74437254D01*
X143406454Y-74437254D01*
X143422785Y-74436359D01*
X143438347Y-74433676D01*
X143453139Y-74429204D01*
X143467162Y-74422942D01*
X143480416Y-74414892D01*
X143492901Y-74405054D01*
X143497679Y-74400617D01*
X143508656Y-74388651D01*
X143517772Y-74375880D01*
X143525028Y-74362304D01*
X143530423Y-74347924D01*
X143533958Y-74332738D01*
X143535632Y-74316747D01*
X143535781Y-74310125D01*
X143535781Y-73746290D01*
X143534851Y-73729960D01*
X143532060Y-73714398D01*
X143527409Y-73699606D01*
X143520898Y-73685583D01*
X143512526Y-73672329D01*
X143502293Y-73659844D01*
X143497679Y-73655066D01*
X143485502Y-73644089D01*
X143472556Y-73634973D01*
X143458841Y-73627717D01*
X143444356Y-73622322D01*
X143429102Y-73618787D01*
X143413079Y-73617113D01*
X143406454Y-73616964D01*
X143023237Y-73616964D01*
X142715491Y-73616964D01*
X142715491Y-73309584D01*
X143406454Y-73309584D01*
X143428565Y-73310089D01*
G37*
G36*
X187807745Y-74745000D02*
G01*
X187500000Y-74745000D01*
X187500000Y-73719546D01*
X187500467Y-73698710D01*
X187501871Y-73678244D01*
X187504211Y-73658147D01*
X187507487Y-73638419D01*
X187511699Y-73619060D01*
X187516847Y-73600071D01*
X187522930Y-73581451D01*
X187529950Y-73563200D01*
X187537905Y-73545318D01*
X187546797Y-73527806D01*
X187556624Y-73510662D01*
X187567388Y-73493888D01*
X187579087Y-73477484D01*
X187591722Y-73461448D01*
X187605293Y-73445782D01*
X187619801Y-73430484D01*
X187635018Y-73415844D01*
X187650627Y-73402149D01*
X187666628Y-73389397D01*
X187683021Y-73377591D01*
X187699807Y-73366729D01*
X187716984Y-73356811D01*
X187734554Y-73347838D01*
X187752516Y-73339809D01*
X187770870Y-73332725D01*
X187789616Y-73326586D01*
X187808754Y-73321391D01*
X187828285Y-73317141D01*
X187848207Y-73313835D01*
X187868522Y-73311473D01*
X187889229Y-73310057D01*
X187910327Y-73309584D01*
X187931114Y-73309985D01*
X187951435Y-73311187D01*
X187971288Y-73313191D01*
X187990676Y-73315996D01*
X188009596Y-73319602D01*
X188028051Y-73324010D01*
X188046038Y-73329219D01*
X188063559Y-73335230D01*
X188080614Y-73342042D01*
X188097202Y-73349655D01*
X188113323Y-73358070D01*
X188128978Y-73367287D01*
X188144167Y-73377304D01*
X188158888Y-73388124D01*
X188173144Y-73399744D01*
X188186933Y-73412166D01*
X188201750Y-73399744D01*
X188216986Y-73388124D01*
X188232639Y-73377304D01*
X188248711Y-73367287D01*
X188265200Y-73358070D01*
X188282107Y-73349655D01*
X188299432Y-73342042D01*
X188317175Y-73335230D01*
X188335336Y-73329219D01*
X188353914Y-73324010D01*
X188372911Y-73319602D01*
X188392325Y-73315996D01*
X188412158Y-73313191D01*
X188432408Y-73311187D01*
X188453076Y-73309985D01*
X188474162Y-73309584D01*
X188494998Y-73310057D01*
X188515464Y-73311473D01*
X188535561Y-73313835D01*
X188555289Y-73317141D01*
X188574648Y-73321391D01*
X188593637Y-73326586D01*
X188612257Y-73332725D01*
X188630508Y-73339809D01*
X188648390Y-73347838D01*
X188665902Y-73356811D01*
X188683046Y-73366729D01*
X188699820Y-73377591D01*
X188716224Y-73389397D01*
X188732260Y-73402149D01*
X188747926Y-73415844D01*
X188763224Y-73430484D01*
X188777864Y-73445782D01*
X188791559Y-73461448D01*
X188804311Y-73477484D01*
X188816117Y-73493888D01*
X188826979Y-73510662D01*
X188836897Y-73527806D01*
X188845870Y-73545318D01*
X188853899Y-73563200D01*
X188860983Y-73581451D01*
X188867122Y-73600071D01*
X188872317Y-73619060D01*
X188876567Y-73638419D01*
X188879873Y-73658147D01*
X188882235Y-73678244D01*
X188883651Y-73698710D01*
X188884124Y-73719546D01*
X188884124Y-74745000D01*
X188572714Y-74745000D01*
X188572714Y-73719546D01*
X188571478Y-73703047D01*
X188567768Y-73687346D01*
X188561586Y-73672444D01*
X188552930Y-73658340D01*
X188541802Y-73645035D01*
X188537543Y-73640778D01*
X188526372Y-73630962D01*
X188512186Y-73621379D01*
X188497151Y-73614192D01*
X188481266Y-73609401D01*
X188464530Y-73607005D01*
X188455844Y-73606706D01*
X188440790Y-73607538D01*
X188423789Y-73610732D01*
X188407946Y-73616322D01*
X188393263Y-73624307D01*
X188379739Y-73634689D01*
X188373412Y-73640778D01*
X188362331Y-73653816D01*
X188353542Y-73667654D01*
X188347047Y-73682290D01*
X188342843Y-73697724D01*
X188340933Y-73713957D01*
X188340806Y-73719546D01*
X188340806Y-74745000D01*
X188033060Y-74745000D01*
X188033060Y-73719546D01*
X188031900Y-73703047D01*
X188028423Y-73687346D01*
X188022627Y-73672444D01*
X188014512Y-73658340D01*
X188004080Y-73645035D01*
X188000087Y-73640778D01*
X187987357Y-73629198D01*
X187973623Y-73620015D01*
X187958884Y-73613227D01*
X187943140Y-73608835D01*
X187926392Y-73606839D01*
X187920586Y-73606706D01*
X187903962Y-73607904D01*
X187888162Y-73611497D01*
X187873187Y-73617486D01*
X187859036Y-73625871D01*
X187845710Y-73636652D01*
X187841451Y-73640778D01*
X187829996Y-73653816D01*
X187820912Y-73667654D01*
X187814197Y-73682290D01*
X187809852Y-73697724D01*
X187807877Y-73713957D01*
X187807745Y-73719546D01*
X187807745Y-74745000D01*
G37*
G36*
X190114009Y-73309584D02*
G01*
X190114009Y-74181165D01*
X190113363Y-74209853D01*
X190111427Y-74238031D01*
X190108200Y-74265701D01*
X190103682Y-74292860D01*
X190097873Y-74319510D01*
X190090773Y-74345651D01*
X190082382Y-74371282D01*
X190072701Y-74396404D01*
X190061729Y-74421016D01*
X190049465Y-74445119D01*
X190035911Y-74468712D01*
X190021067Y-74491796D01*
X190004931Y-74514370D01*
X189987504Y-74536435D01*
X189968787Y-74557991D01*
X189948778Y-74579036D01*
X189927857Y-74599134D01*
X189906400Y-74617934D01*
X189884408Y-74635438D01*
X189861881Y-74651645D01*
X189838819Y-74666556D01*
X189815221Y-74680170D01*
X189791089Y-74692488D01*
X189766420Y-74703509D01*
X189741217Y-74713233D01*
X189715479Y-74721661D01*
X189689205Y-74728792D01*
X189662396Y-74734627D01*
X189635052Y-74739165D01*
X189607172Y-74742406D01*
X189578758Y-74744351D01*
X189549808Y-74745000D01*
X189521120Y-74744351D01*
X189492941Y-74742406D01*
X189465272Y-74739165D01*
X189438112Y-74734627D01*
X189411462Y-74728792D01*
X189385321Y-74721661D01*
X189359690Y-74713233D01*
X189334569Y-74703509D01*
X189309956Y-74692488D01*
X189285854Y-74680170D01*
X189262260Y-74666556D01*
X189239176Y-74651645D01*
X189216602Y-74635438D01*
X189194537Y-74617934D01*
X189172982Y-74599134D01*
X189151936Y-74579036D01*
X189131839Y-74557991D01*
X189113038Y-74536435D01*
X189095535Y-74514370D01*
X189079327Y-74491796D01*
X189064416Y-74468712D01*
X189050802Y-74445119D01*
X189038485Y-74421016D01*
X189027464Y-74396404D01*
X189017739Y-74371282D01*
X189009312Y-74345651D01*
X189002180Y-74319510D01*
X188996346Y-74292860D01*
X188991808Y-74265701D01*
X188988566Y-74238031D01*
X188986621Y-74209853D01*
X188985973Y-74181165D01*
X188985973Y-73309584D01*
X189293719Y-73309584D01*
X189293719Y-74181165D01*
X189294386Y-74200491D01*
X189296385Y-74219315D01*
X189299718Y-74237637D01*
X189304384Y-74255457D01*
X189310382Y-74272774D01*
X189317714Y-74289589D01*
X189326379Y-74305901D01*
X189336378Y-74321711D01*
X189347709Y-74337019D01*
X189360373Y-74351825D01*
X189369556Y-74361416D01*
X189384027Y-74374969D01*
X189399000Y-74387189D01*
X189414475Y-74398076D01*
X189430453Y-74407630D01*
X189446933Y-74415850D01*
X189463915Y-74422738D01*
X189481400Y-74428292D01*
X189499387Y-74432514D01*
X189517876Y-74435402D01*
X189536867Y-74436957D01*
X189549808Y-74437254D01*
X189569517Y-74436587D01*
X189588667Y-74434587D01*
X189607256Y-74431255D01*
X189625284Y-74426589D01*
X189642753Y-74420590D01*
X189659661Y-74413258D01*
X189676009Y-74404593D01*
X189691797Y-74394595D01*
X189707024Y-74383264D01*
X189721691Y-74370600D01*
X189731158Y-74361416D01*
X189744580Y-74346945D01*
X189756682Y-74331972D01*
X189767463Y-74316497D01*
X189776925Y-74300519D01*
X189785066Y-74284040D01*
X189791887Y-74267057D01*
X189797388Y-74249573D01*
X189801569Y-74231586D01*
X189804429Y-74213097D01*
X189805969Y-74194105D01*
X189806263Y-74181165D01*
X189806263Y-73309584D01*
X190114009Y-73309584D01*
G37*
G36*
X190215491Y-73309584D02*
G01*
X191343527Y-73309584D01*
X191343527Y-73616964D01*
X190933199Y-73616964D01*
X190933199Y-74745000D01*
X190625819Y-74745000D01*
X190625819Y-73616964D01*
X190215491Y-73616964D01*
X190215491Y-73309584D01*
G37*
G36*
X192573046Y-73309584D02*
G01*
X192573046Y-73616964D01*
X191879884Y-73616964D01*
X191863571Y-73617894D01*
X191848064Y-73620685D01*
X191833361Y-73625336D01*
X191819463Y-73631847D01*
X191806370Y-73640219D01*
X191794082Y-73650452D01*
X191789392Y-73655066D01*
X191778838Y-73667243D01*
X191770072Y-73680189D01*
X191763096Y-73693904D01*
X191757908Y-73708389D01*
X191754509Y-73723643D01*
X191752899Y-73739666D01*
X191752756Y-73746290D01*
X191752756Y-73873419D01*
X192573046Y-73873419D01*
X192573046Y-74181165D01*
X191752756Y-74181165D01*
X191752756Y-74310125D01*
X191753650Y-74326438D01*
X191756334Y-74341946D01*
X191760806Y-74356649D01*
X191767067Y-74370547D01*
X191775117Y-74383639D01*
X191784956Y-74395927D01*
X191789392Y-74400617D01*
X191801358Y-74411172D01*
X191814129Y-74419937D01*
X191827705Y-74426914D01*
X191842086Y-74432102D01*
X191857272Y-74435500D01*
X191873263Y-74437110D01*
X191879884Y-74437254D01*
X192573046Y-74437254D01*
X192573046Y-74745000D01*
X191752756Y-74745000D01*
X191737004Y-74744647D01*
X191721529Y-74743591D01*
X191706332Y-74741831D01*
X191691413Y-74739367D01*
X191676771Y-74736198D01*
X191662407Y-74732326D01*
X191648321Y-74727749D01*
X191634512Y-74722468D01*
X191620981Y-74716483D01*
X191607727Y-74709794D01*
X191594751Y-74702401D01*
X191582053Y-74694304D01*
X191569632Y-74685503D01*
X191557490Y-74675997D01*
X191545624Y-74665788D01*
X191534036Y-74654874D01*
X191522998Y-74643419D01*
X191512690Y-74631678D01*
X191503112Y-74619651D01*
X191494263Y-74607338D01*
X191486144Y-74594739D01*
X191478756Y-74581853D01*
X191472097Y-74568681D01*
X191466168Y-74555223D01*
X191460968Y-74541478D01*
X191456499Y-74527448D01*
X191452759Y-74513131D01*
X191449750Y-74498528D01*
X191447470Y-74483639D01*
X191445920Y-74468463D01*
X191445100Y-74453001D01*
X191445010Y-74437254D01*
X191445010Y-73616964D01*
X191445100Y-73601000D01*
X191445920Y-73585348D01*
X191447470Y-73570008D01*
X191449750Y-73554980D01*
X191452759Y-73540264D01*
X191456499Y-73525859D01*
X191460968Y-73511767D01*
X191466168Y-73497987D01*
X191472097Y-73484519D01*
X191478756Y-73471363D01*
X191486144Y-73458519D01*
X191494263Y-73445986D01*
X191503112Y-73433766D01*
X191512690Y-73421858D01*
X191522998Y-73410261D01*
X191534036Y-73398977D01*
X191545624Y-73388152D01*
X191557490Y-73378026D01*
X191569632Y-73368598D01*
X191582053Y-73359868D01*
X191594751Y-73351836D01*
X191607727Y-73344503D01*
X191620981Y-73337869D01*
X191634512Y-73331933D01*
X191648321Y-73326695D01*
X191662407Y-73322155D01*
X191676771Y-73318314D01*
X191691413Y-73315171D01*
X191706332Y-73312727D01*
X191721529Y-73310981D01*
X191737004Y-73309933D01*
X191752756Y-73309584D01*
X192573046Y-73309584D01*
G37*
D10*
X70812969Y-139259819D02*
X70336779Y-139259819D01*
X70336779Y-139259819D02*
X70336779Y-138259819D01*
X71146303Y-138736009D02*
X71479636Y-138736009D01*
X71622493Y-139259819D02*
X71146303Y-139259819D01*
X71146303Y-139259819D02*
X71146303Y-138259819D01*
X71146303Y-138259819D02*
X71622493Y-138259819D01*
X72384398Y-138736009D02*
X72051065Y-138736009D01*
X72051065Y-139259819D02*
X72051065Y-138259819D01*
X72051065Y-138259819D02*
X72527255Y-138259819D01*
X72765351Y-138259819D02*
X73336779Y-138259819D01*
X73051065Y-139259819D02*
X73051065Y-138259819D01*
X70289160Y-140822200D02*
X70432017Y-140869819D01*
X70432017Y-140869819D02*
X70670112Y-140869819D01*
X70670112Y-140869819D02*
X70765350Y-140822200D01*
X70765350Y-140822200D02*
X70812969Y-140774580D01*
X70812969Y-140774580D02*
X70860588Y-140679342D01*
X70860588Y-140679342D02*
X70860588Y-140584104D01*
X70860588Y-140584104D02*
X70812969Y-140488866D01*
X70812969Y-140488866D02*
X70765350Y-140441247D01*
X70765350Y-140441247D02*
X70670112Y-140393628D01*
X70670112Y-140393628D02*
X70479636Y-140346009D01*
X70479636Y-140346009D02*
X70384398Y-140298390D01*
X70384398Y-140298390D02*
X70336779Y-140250771D01*
X70336779Y-140250771D02*
X70289160Y-140155533D01*
X70289160Y-140155533D02*
X70289160Y-140060295D01*
X70289160Y-140060295D02*
X70336779Y-139965057D01*
X70336779Y-139965057D02*
X70384398Y-139917438D01*
X70384398Y-139917438D02*
X70479636Y-139869819D01*
X70479636Y-139869819D02*
X70717731Y-139869819D01*
X70717731Y-139869819D02*
X70860588Y-139917438D01*
X71289160Y-140869819D02*
X71289160Y-139869819D01*
X71289160Y-139869819D02*
X71670112Y-139869819D01*
X71670112Y-139869819D02*
X71765350Y-139917438D01*
X71765350Y-139917438D02*
X71812969Y-139965057D01*
X71812969Y-139965057D02*
X71860588Y-140060295D01*
X71860588Y-140060295D02*
X71860588Y-140203152D01*
X71860588Y-140203152D02*
X71812969Y-140298390D01*
X71812969Y-140298390D02*
X71765350Y-140346009D01*
X71765350Y-140346009D02*
X71670112Y-140393628D01*
X71670112Y-140393628D02*
X71289160Y-140393628D01*
X72289160Y-140869819D02*
X72289160Y-139869819D01*
X72860588Y-140869819D02*
X72432017Y-140298390D01*
X72860588Y-139869819D02*
X72289160Y-140441247D01*
X73860588Y-140869819D02*
X73527255Y-140393628D01*
X73289160Y-140869819D02*
X73289160Y-139869819D01*
X73289160Y-139869819D02*
X73670112Y-139869819D01*
X73670112Y-139869819D02*
X73765350Y-139917438D01*
X73765350Y-139917438D02*
X73812969Y-139965057D01*
X73812969Y-139965057D02*
X73860588Y-140060295D01*
X73860588Y-140060295D02*
X73860588Y-140203152D01*
X73860588Y-140203152D02*
X73812969Y-140298390D01*
X73812969Y-140298390D02*
X73765350Y-140346009D01*
X73765350Y-140346009D02*
X73670112Y-140393628D01*
X73670112Y-140393628D02*
X73289160Y-140393628D01*
D11*
G36*
X172307745Y-74310125D02*
G01*
X172308640Y-74326438D01*
X172311323Y-74341946D01*
X172315795Y-74356649D01*
X172322057Y-74370547D01*
X172330107Y-74383639D01*
X172339945Y-74395927D01*
X172344382Y-74400617D01*
X172355749Y-74411172D01*
X172368869Y-74421476D01*
X172381423Y-74429204D01*
X172395352Y-74434964D01*
X172410327Y-74437254D01*
X172820289Y-73309584D01*
X173128035Y-73309584D01*
X172615125Y-74745000D01*
X172307745Y-74745000D01*
X172291993Y-74744647D01*
X172276519Y-74743591D01*
X172261322Y-74741831D01*
X172246402Y-74739367D01*
X172231761Y-74736198D01*
X172217397Y-74732326D01*
X172203310Y-74727749D01*
X172189501Y-74722468D01*
X172175970Y-74716483D01*
X172162717Y-74709794D01*
X172149741Y-74702401D01*
X172137043Y-74694304D01*
X172124622Y-74685503D01*
X172112479Y-74675997D01*
X172100614Y-74665788D01*
X172089026Y-74654874D01*
X172077988Y-74643419D01*
X172067680Y-74631678D01*
X172058101Y-74619651D01*
X172049253Y-74607338D01*
X172041134Y-74594739D01*
X172033745Y-74581853D01*
X172027086Y-74568681D01*
X172021157Y-74555223D01*
X172015958Y-74541478D01*
X172011488Y-74527448D01*
X172007749Y-74513131D01*
X172004739Y-74498528D01*
X172002460Y-74483639D01*
X172000910Y-74468463D01*
X172000090Y-74453001D01*
X172000000Y-74437254D01*
X172000000Y-73309584D01*
X172307745Y-73309584D01*
X172307745Y-74310125D01*
G37*
G36*
X173965487Y-73309791D02*
G01*
X173983590Y-73310413D01*
X174001534Y-73311449D01*
X174019319Y-73312899D01*
X174036945Y-73314763D01*
X174054413Y-73317042D01*
X174071721Y-73319735D01*
X174088871Y-73322842D01*
X174105862Y-73326364D01*
X174122694Y-73330300D01*
X174139367Y-73334650D01*
X174155882Y-73339414D01*
X174172237Y-73344593D01*
X174188434Y-73350186D01*
X174204471Y-73356194D01*
X174220350Y-73362616D01*
X174236070Y-73369452D01*
X174251631Y-73376702D01*
X174267034Y-73384367D01*
X174282277Y-73392446D01*
X174297362Y-73400939D01*
X174312288Y-73409846D01*
X174327054Y-73419168D01*
X174341663Y-73428905D01*
X174356112Y-73439055D01*
X174370402Y-73449620D01*
X174384534Y-73460599D01*
X174398506Y-73471992D01*
X174412320Y-73483800D01*
X174425975Y-73496022D01*
X174439471Y-73508659D01*
X174452808Y-73521709D01*
X174465859Y-73535046D01*
X174478495Y-73548543D01*
X174490717Y-73562197D01*
X174502525Y-73576011D01*
X174513918Y-73589984D01*
X174524898Y-73604115D01*
X174535462Y-73618406D01*
X174545613Y-73632855D01*
X174555349Y-73647463D01*
X174564671Y-73662230D01*
X174573579Y-73677156D01*
X174582072Y-73692240D01*
X174590151Y-73707484D01*
X174597816Y-73722886D01*
X174605066Y-73738447D01*
X174611902Y-73754167D01*
X174618324Y-73770046D01*
X174624331Y-73786084D01*
X174629924Y-73802281D01*
X174635103Y-73818636D01*
X174639868Y-73835150D01*
X174644218Y-73851823D01*
X174648154Y-73868655D01*
X174651675Y-73885646D01*
X174654783Y-73902796D01*
X174657476Y-73920105D01*
X174659754Y-73937572D01*
X174661619Y-73955198D01*
X174663069Y-73972983D01*
X174664105Y-73990927D01*
X174664726Y-74009030D01*
X174664933Y-74027292D01*
X174664726Y-74045666D01*
X174664105Y-74063875D01*
X174663069Y-74081921D01*
X174661619Y-74099803D01*
X174659754Y-74117522D01*
X174657476Y-74135076D01*
X174654783Y-74152466D01*
X174651675Y-74169693D01*
X174648154Y-74186756D01*
X174644218Y-74203655D01*
X174639868Y-74220390D01*
X174635103Y-74236961D01*
X174629924Y-74253368D01*
X174624331Y-74269612D01*
X174618324Y-74285691D01*
X174611902Y-74301607D01*
X174605066Y-74317359D01*
X174597816Y-74332947D01*
X174590151Y-74348371D01*
X174582072Y-74363631D01*
X174573579Y-74378728D01*
X174564671Y-74393660D01*
X174555349Y-74408429D01*
X174545613Y-74423034D01*
X174535462Y-74437475D01*
X174524898Y-74451752D01*
X174513918Y-74465865D01*
X174502525Y-74479815D01*
X174490717Y-74493600D01*
X174478495Y-74507222D01*
X174465859Y-74520680D01*
X174452808Y-74533974D01*
X174439471Y-74546957D01*
X174425975Y-74559528D01*
X174412320Y-74571686D01*
X174398506Y-74583433D01*
X174384534Y-74594767D01*
X174370402Y-74605689D01*
X174356112Y-74616200D01*
X174341663Y-74626297D01*
X174327054Y-74635983D01*
X174312288Y-74645257D01*
X174297362Y-74654118D01*
X174282277Y-74662568D01*
X174267034Y-74670605D01*
X174251631Y-74678230D01*
X174236070Y-74685442D01*
X174220350Y-74692243D01*
X174204471Y-74698632D01*
X174188434Y-74704608D01*
X174172237Y-74710172D01*
X174155882Y-74715324D01*
X174139367Y-74720064D01*
X174122694Y-74724392D01*
X174105862Y-74728307D01*
X174088871Y-74731810D01*
X174071721Y-74734902D01*
X174054413Y-74737581D01*
X174036945Y-74739848D01*
X174019319Y-74741702D01*
X174001534Y-74743145D01*
X173983590Y-74744175D01*
X173965487Y-74744793D01*
X173947226Y-74745000D01*
X173928852Y-74744793D01*
X173910642Y-74744175D01*
X173892596Y-74743145D01*
X173874714Y-74741702D01*
X173856996Y-74739848D01*
X173839442Y-74737581D01*
X173822051Y-74734902D01*
X173804824Y-74731810D01*
X173787762Y-74728307D01*
X173770863Y-74724392D01*
X173754128Y-74720064D01*
X173737556Y-74715324D01*
X173721149Y-74710172D01*
X173704906Y-74704608D01*
X173688826Y-74698632D01*
X173672910Y-74692243D01*
X173657158Y-74685442D01*
X173641570Y-74678230D01*
X173626146Y-74670605D01*
X173610886Y-74662568D01*
X173595790Y-74654118D01*
X173580857Y-74645257D01*
X173566088Y-74635983D01*
X173551483Y-74626297D01*
X173537043Y-74616200D01*
X173522765Y-74605689D01*
X173508652Y-74594767D01*
X173494703Y-74583433D01*
X173480917Y-74571686D01*
X173467296Y-74559528D01*
X173453838Y-74546957D01*
X173440544Y-74533974D01*
X173427561Y-74520680D01*
X173414990Y-74507222D01*
X173402831Y-74493600D01*
X173391085Y-74479815D01*
X173379750Y-74465865D01*
X173368828Y-74451752D01*
X173358318Y-74437475D01*
X173348220Y-74423034D01*
X173338534Y-74408429D01*
X173329261Y-74393660D01*
X173320399Y-74378728D01*
X173311950Y-74363631D01*
X173303913Y-74348371D01*
X173296288Y-74332947D01*
X173289075Y-74317359D01*
X173282274Y-74301607D01*
X173275886Y-74285691D01*
X173269910Y-74269612D01*
X173264345Y-74253368D01*
X173259193Y-74236961D01*
X173254454Y-74220390D01*
X173250126Y-74203655D01*
X173246210Y-74186756D01*
X173242707Y-74169693D01*
X173239616Y-74152466D01*
X173236937Y-74135076D01*
X173234670Y-74117522D01*
X173232815Y-74099803D01*
X173231373Y-74081921D01*
X173230342Y-74063875D01*
X173229724Y-74045666D01*
X173229518Y-74027292D01*
X173537264Y-74027292D01*
X173537732Y-74048346D01*
X173539136Y-74069012D01*
X173541476Y-74089288D01*
X173544752Y-74109174D01*
X173548963Y-74128672D01*
X173554111Y-74147780D01*
X173560195Y-74166499D01*
X173567214Y-74184829D01*
X173575170Y-74202769D01*
X173584061Y-74220320D01*
X173593889Y-74237482D01*
X173604652Y-74254255D01*
X173616351Y-74270638D01*
X173628987Y-74286632D01*
X173642558Y-74302237D01*
X173657065Y-74317452D01*
X173672281Y-74331960D01*
X173687885Y-74345531D01*
X173703880Y-74358166D01*
X173720263Y-74369865D01*
X173737036Y-74380629D01*
X173754197Y-74390456D01*
X173771749Y-74399348D01*
X173789689Y-74407303D01*
X173808019Y-74414323D01*
X173826738Y-74420406D01*
X173845846Y-74425554D01*
X173865343Y-74429766D01*
X173885230Y-74433042D01*
X173905506Y-74435382D01*
X173926171Y-74436786D01*
X173947226Y-74437254D01*
X173968061Y-74436786D01*
X173988527Y-74435382D01*
X174008625Y-74433042D01*
X174028352Y-74429766D01*
X174047711Y-74425554D01*
X174066700Y-74420406D01*
X174085321Y-74414323D01*
X174103572Y-74407303D01*
X174121453Y-74399348D01*
X174138966Y-74390456D01*
X174156109Y-74380629D01*
X174172883Y-74369865D01*
X174189288Y-74358166D01*
X174205324Y-74345531D01*
X174220990Y-74331960D01*
X174236287Y-74317452D01*
X174250972Y-74302237D01*
X174264709Y-74286632D01*
X174277499Y-74270638D01*
X174289341Y-74254255D01*
X174300236Y-74237482D01*
X174310184Y-74220320D01*
X174319184Y-74202769D01*
X174327237Y-74184829D01*
X174334342Y-74166499D01*
X174340500Y-74147780D01*
X174345711Y-74128672D01*
X174349974Y-74109174D01*
X174353290Y-74089288D01*
X174355659Y-74069012D01*
X174357080Y-74048346D01*
X174357554Y-74027292D01*
X174357080Y-74006456D01*
X174355659Y-73985990D01*
X174353290Y-73965893D01*
X174349974Y-73946165D01*
X174345711Y-73926806D01*
X174340500Y-73907817D01*
X174334342Y-73889197D01*
X174327237Y-73870946D01*
X174319184Y-73853064D01*
X174310184Y-73835552D01*
X174300236Y-73818408D01*
X174289341Y-73801634D01*
X174277499Y-73785230D01*
X174264709Y-73769194D01*
X174250972Y-73753528D01*
X174236287Y-73738230D01*
X174220990Y-73723546D01*
X174205324Y-73709809D01*
X174189288Y-73697019D01*
X174172883Y-73685176D01*
X174156109Y-73674281D01*
X174138966Y-73664334D01*
X174121453Y-73655333D01*
X174103572Y-73647281D01*
X174085321Y-73640175D01*
X174066700Y-73634017D01*
X174047711Y-73628806D01*
X174028352Y-73624543D01*
X174008625Y-73621227D01*
X173988527Y-73618859D01*
X173968061Y-73617438D01*
X173947226Y-73616964D01*
X173926171Y-73617438D01*
X173905506Y-73618859D01*
X173885230Y-73621227D01*
X173865343Y-73624543D01*
X173845846Y-73628806D01*
X173826738Y-73634017D01*
X173808019Y-73640175D01*
X173789689Y-73647281D01*
X173771749Y-73655333D01*
X173754197Y-73664334D01*
X173737036Y-73674281D01*
X173720263Y-73685176D01*
X173703880Y-73697019D01*
X173687885Y-73709809D01*
X173672281Y-73723546D01*
X173657065Y-73738230D01*
X173642558Y-73753528D01*
X173628987Y-73769194D01*
X173616351Y-73785230D01*
X173604652Y-73801634D01*
X173593889Y-73818408D01*
X173584061Y-73835552D01*
X173575170Y-73853064D01*
X173567214Y-73870946D01*
X173560195Y-73889197D01*
X173554111Y-73907817D01*
X173548963Y-73926806D01*
X173544752Y-73946165D01*
X173541476Y-73965893D01*
X173539136Y-73985990D01*
X173537732Y-74006456D01*
X173537264Y-74027292D01*
X173229518Y-74027292D01*
X173229724Y-74009030D01*
X173230342Y-73990927D01*
X173231373Y-73972983D01*
X173232815Y-73955198D01*
X173234670Y-73937572D01*
X173236937Y-73920105D01*
X173239616Y-73902796D01*
X173242707Y-73885646D01*
X173246210Y-73868655D01*
X173250126Y-73851823D01*
X173254454Y-73835150D01*
X173259193Y-73818636D01*
X173264345Y-73802281D01*
X173269910Y-73786084D01*
X173275886Y-73770046D01*
X173282274Y-73754167D01*
X173289075Y-73738447D01*
X173296288Y-73722886D01*
X173303913Y-73707484D01*
X173311950Y-73692240D01*
X173320399Y-73677156D01*
X173329261Y-73662230D01*
X173338534Y-73647463D01*
X173348220Y-73632855D01*
X173358318Y-73618406D01*
X173368828Y-73604115D01*
X173379750Y-73589984D01*
X173391085Y-73576011D01*
X173402831Y-73562197D01*
X173414990Y-73548543D01*
X173427561Y-73535046D01*
X173440544Y-73521709D01*
X173453838Y-73508659D01*
X173467296Y-73496022D01*
X173480917Y-73483800D01*
X173494703Y-73471992D01*
X173508652Y-73460599D01*
X173522765Y-73449620D01*
X173537043Y-73439055D01*
X173551483Y-73428905D01*
X173566088Y-73419168D01*
X173580857Y-73409846D01*
X173595790Y-73400939D01*
X173610886Y-73392446D01*
X173626146Y-73384367D01*
X173641570Y-73376702D01*
X173657158Y-73369452D01*
X173672910Y-73362616D01*
X173688826Y-73356194D01*
X173704906Y-73350186D01*
X173721149Y-73344593D01*
X173737556Y-73339414D01*
X173754128Y-73334650D01*
X173770863Y-73330300D01*
X173787762Y-73326364D01*
X173804824Y-73322842D01*
X173822051Y-73319735D01*
X173839442Y-73317042D01*
X173856996Y-73314763D01*
X173874714Y-73312899D01*
X173892596Y-73311449D01*
X173910642Y-73310413D01*
X173928852Y-73309791D01*
X173947226Y-73309584D01*
X173965487Y-73309791D01*
G37*
G36*
X174766782Y-73309584D02*
G01*
X175074528Y-73309584D01*
X175074528Y-74334672D01*
X175075610Y-74350407D01*
X175078856Y-74365189D01*
X175084266Y-74379017D01*
X175091839Y-74391893D01*
X175101576Y-74403816D01*
X175105303Y-74407578D01*
X175117204Y-74417663D01*
X175129827Y-74425662D01*
X175145464Y-74432356D01*
X175162084Y-74436210D01*
X175177110Y-74437254D01*
X175894818Y-74437254D01*
X175894818Y-74745000D01*
X175074528Y-74745000D01*
X175058999Y-74744647D01*
X175043737Y-74743591D01*
X175028740Y-74741831D01*
X175014010Y-74739367D01*
X174999545Y-74736198D01*
X174985347Y-74732326D01*
X174971416Y-74727749D01*
X174951017Y-74719564D01*
X174937750Y-74713227D01*
X174924750Y-74706186D01*
X174912016Y-74698440D01*
X174899548Y-74689991D01*
X174887347Y-74680838D01*
X174875411Y-74670980D01*
X174863742Y-74660419D01*
X174858007Y-74654874D01*
X174846960Y-74643419D01*
X174836626Y-74631678D01*
X174827005Y-74619651D01*
X174818096Y-74607338D01*
X174809900Y-74594739D01*
X174802417Y-74581853D01*
X174795647Y-74568681D01*
X174789589Y-74555223D01*
X174784243Y-74541478D01*
X174779611Y-74527448D01*
X174775691Y-74513131D01*
X174772484Y-74498528D01*
X174769990Y-74483639D01*
X174768208Y-74468463D01*
X174767139Y-74453001D01*
X174766782Y-74437254D01*
X174766782Y-73309584D01*
G37*
G36*
X176433007Y-73565673D02*
G01*
X176433007Y-73900163D01*
X176098883Y-73900163D01*
X176098883Y-74154420D01*
X176433007Y-74154420D01*
X176433007Y-74488545D01*
X176687264Y-74488545D01*
X176687264Y-74154420D01*
X177021755Y-74154420D01*
X177021755Y-73900163D01*
X176687264Y-73900163D01*
X176687264Y-73565673D01*
X176433007Y-73565673D01*
G37*
G36*
X156307745Y-74310125D02*
G01*
X156308640Y-74326438D01*
X156311323Y-74341946D01*
X156315795Y-74356649D01*
X156322057Y-74370547D01*
X156330107Y-74383639D01*
X156339945Y-74395927D01*
X156344382Y-74400617D01*
X156355749Y-74411172D01*
X156368869Y-74421476D01*
X156381423Y-74429204D01*
X156395352Y-74434964D01*
X156410327Y-74437254D01*
X156820289Y-73309584D01*
X157128035Y-73309584D01*
X156615125Y-74745000D01*
X156307745Y-74745000D01*
X156291993Y-74744647D01*
X156276519Y-74743591D01*
X156261322Y-74741831D01*
X156246402Y-74739367D01*
X156231761Y-74736198D01*
X156217397Y-74732326D01*
X156203310Y-74727749D01*
X156189501Y-74722468D01*
X156175970Y-74716483D01*
X156162717Y-74709794D01*
X156149741Y-74702401D01*
X156137043Y-74694304D01*
X156124622Y-74685503D01*
X156112479Y-74675997D01*
X156100614Y-74665788D01*
X156089026Y-74654874D01*
X156077988Y-74643419D01*
X156067680Y-74631678D01*
X156058101Y-74619651D01*
X156049253Y-74607338D01*
X156041134Y-74594739D01*
X156033745Y-74581853D01*
X156027086Y-74568681D01*
X156021157Y-74555223D01*
X156015958Y-74541478D01*
X156011488Y-74527448D01*
X156007749Y-74513131D01*
X156004739Y-74498528D01*
X156002460Y-74483639D01*
X156000910Y-74468463D01*
X156000090Y-74453001D01*
X156000000Y-74437254D01*
X156000000Y-73309584D01*
X156307745Y-73309584D01*
X156307745Y-74310125D01*
G37*
G36*
X157965487Y-73309791D02*
G01*
X157983590Y-73310413D01*
X158001534Y-73311449D01*
X158019319Y-73312899D01*
X158036945Y-73314763D01*
X158054413Y-73317042D01*
X158071721Y-73319735D01*
X158088871Y-73322842D01*
X158105862Y-73326364D01*
X158122694Y-73330300D01*
X158139367Y-73334650D01*
X158155882Y-73339414D01*
X158172237Y-73344593D01*
X158188434Y-73350186D01*
X158204471Y-73356194D01*
X158220350Y-73362616D01*
X158236070Y-73369452D01*
X158251631Y-73376702D01*
X158267034Y-73384367D01*
X158282277Y-73392446D01*
X158297362Y-73400939D01*
X158312288Y-73409846D01*
X158327054Y-73419168D01*
X158341663Y-73428905D01*
X158356112Y-73439055D01*
X158370402Y-73449620D01*
X158384534Y-73460599D01*
X158398506Y-73471992D01*
X158412320Y-73483800D01*
X158425975Y-73496022D01*
X158439471Y-73508659D01*
X158452808Y-73521709D01*
X158465859Y-73535046D01*
X158478495Y-73548543D01*
X158490717Y-73562197D01*
X158502525Y-73576011D01*
X158513918Y-73589984D01*
X158524898Y-73604115D01*
X158535462Y-73618406D01*
X158545613Y-73632855D01*
X158555349Y-73647463D01*
X158564671Y-73662230D01*
X158573579Y-73677156D01*
X158582072Y-73692240D01*
X158590151Y-73707484D01*
X158597816Y-73722886D01*
X158605066Y-73738447D01*
X158611902Y-73754167D01*
X158618324Y-73770046D01*
X158624331Y-73786084D01*
X158629924Y-73802281D01*
X158635103Y-73818636D01*
X158639868Y-73835150D01*
X158644218Y-73851823D01*
X158648154Y-73868655D01*
X158651675Y-73885646D01*
X158654783Y-73902796D01*
X158657476Y-73920105D01*
X158659754Y-73937572D01*
X158661619Y-73955198D01*
X158663069Y-73972983D01*
X158664105Y-73990927D01*
X158664726Y-74009030D01*
X158664933Y-74027292D01*
X158664726Y-74045666D01*
X158664105Y-74063875D01*
X158663069Y-74081921D01*
X158661619Y-74099803D01*
X158659754Y-74117522D01*
X158657476Y-74135076D01*
X158654783Y-74152466D01*
X158651675Y-74169693D01*
X158648154Y-74186756D01*
X158644218Y-74203655D01*
X158639868Y-74220390D01*
X158635103Y-74236961D01*
X158629924Y-74253368D01*
X158624331Y-74269612D01*
X158618324Y-74285691D01*
X158611902Y-74301607D01*
X158605066Y-74317359D01*
X158597816Y-74332947D01*
X158590151Y-74348371D01*
X158582072Y-74363631D01*
X158573579Y-74378728D01*
X158564671Y-74393660D01*
X158555349Y-74408429D01*
X158545613Y-74423034D01*
X158535462Y-74437475D01*
X158524898Y-74451752D01*
X158513918Y-74465865D01*
X158502525Y-74479815D01*
X158490717Y-74493600D01*
X158478495Y-74507222D01*
X158465859Y-74520680D01*
X158452808Y-74533974D01*
X158439471Y-74546957D01*
X158425975Y-74559528D01*
X158412320Y-74571686D01*
X158398506Y-74583433D01*
X158384534Y-74594767D01*
X158370402Y-74605689D01*
X158356112Y-74616200D01*
X158341663Y-74626297D01*
X158327054Y-74635983D01*
X158312288Y-74645257D01*
X158297362Y-74654118D01*
X158282277Y-74662568D01*
X158267034Y-74670605D01*
X158251631Y-74678230D01*
X158236070Y-74685442D01*
X158220350Y-74692243D01*
X158204471Y-74698632D01*
X158188434Y-74704608D01*
X158172237Y-74710172D01*
X158155882Y-74715324D01*
X158139367Y-74720064D01*
X158122694Y-74724392D01*
X158105862Y-74728307D01*
X158088871Y-74731810D01*
X158071721Y-74734902D01*
X158054413Y-74737581D01*
X158036945Y-74739848D01*
X158019319Y-74741702D01*
X158001534Y-74743145D01*
X157983590Y-74744175D01*
X157965487Y-74744793D01*
X157947226Y-74745000D01*
X157928852Y-74744793D01*
X157910642Y-74744175D01*
X157892596Y-74743145D01*
X157874714Y-74741702D01*
X157856996Y-74739848D01*
X157839442Y-74737581D01*
X157822051Y-74734902D01*
X157804824Y-74731810D01*
X157787762Y-74728307D01*
X157770863Y-74724392D01*
X157754128Y-74720064D01*
X157737556Y-74715324D01*
X157721149Y-74710172D01*
X157704906Y-74704608D01*
X157688826Y-74698632D01*
X157672910Y-74692243D01*
X157657158Y-74685442D01*
X157641570Y-74678230D01*
X157626146Y-74670605D01*
X157610886Y-74662568D01*
X157595790Y-74654118D01*
X157580857Y-74645257D01*
X157566088Y-74635983D01*
X157551483Y-74626297D01*
X157537043Y-74616200D01*
X157522765Y-74605689D01*
X157508652Y-74594767D01*
X157494703Y-74583433D01*
X157480917Y-74571686D01*
X157467296Y-74559528D01*
X157453838Y-74546957D01*
X157440544Y-74533974D01*
X157427561Y-74520680D01*
X157414990Y-74507222D01*
X157402831Y-74493600D01*
X157391085Y-74479815D01*
X157379750Y-74465865D01*
X157368828Y-74451752D01*
X157358318Y-74437475D01*
X157348220Y-74423034D01*
X157338534Y-74408429D01*
X157329261Y-74393660D01*
X157320399Y-74378728D01*
X157311950Y-74363631D01*
X157303913Y-74348371D01*
X157296288Y-74332947D01*
X157289075Y-74317359D01*
X157282274Y-74301607D01*
X157275886Y-74285691D01*
X157269910Y-74269612D01*
X157264345Y-74253368D01*
X157259193Y-74236961D01*
X157254454Y-74220390D01*
X157250126Y-74203655D01*
X157246210Y-74186756D01*
X157242707Y-74169693D01*
X157239616Y-74152466D01*
X157236937Y-74135076D01*
X157234670Y-74117522D01*
X157232815Y-74099803D01*
X157231373Y-74081921D01*
X157230342Y-74063875D01*
X157229724Y-74045666D01*
X157229518Y-74027292D01*
X157537264Y-74027292D01*
X157537732Y-74048346D01*
X157539136Y-74069012D01*
X157541476Y-74089288D01*
X157544752Y-74109174D01*
X157548963Y-74128672D01*
X157554111Y-74147780D01*
X157560195Y-74166499D01*
X157567214Y-74184829D01*
X157575170Y-74202769D01*
X157584061Y-74220320D01*
X157593889Y-74237482D01*
X157604652Y-74254255D01*
X157616351Y-74270638D01*
X157628987Y-74286632D01*
X157642558Y-74302237D01*
X157657065Y-74317452D01*
X157672281Y-74331960D01*
X157687885Y-74345531D01*
X157703880Y-74358166D01*
X157720263Y-74369865D01*
X157737036Y-74380629D01*
X157754197Y-74390456D01*
X157771749Y-74399348D01*
X157789689Y-74407303D01*
X157808019Y-74414323D01*
X157826738Y-74420406D01*
X157845846Y-74425554D01*
X157865343Y-74429766D01*
X157885230Y-74433042D01*
X157905506Y-74435382D01*
X157926171Y-74436786D01*
X157947226Y-74437254D01*
X157968061Y-74436786D01*
X157988527Y-74435382D01*
X158008625Y-74433042D01*
X158028352Y-74429766D01*
X158047711Y-74425554D01*
X158066700Y-74420406D01*
X158085321Y-74414323D01*
X158103572Y-74407303D01*
X158121453Y-74399348D01*
X158138966Y-74390456D01*
X158156109Y-74380629D01*
X158172883Y-74369865D01*
X158189288Y-74358166D01*
X158205324Y-74345531D01*
X158220990Y-74331960D01*
X158236287Y-74317452D01*
X158250972Y-74302237D01*
X158264709Y-74286632D01*
X158277499Y-74270638D01*
X158289341Y-74254255D01*
X158300236Y-74237482D01*
X158310184Y-74220320D01*
X158319184Y-74202769D01*
X158327237Y-74184829D01*
X158334342Y-74166499D01*
X158340500Y-74147780D01*
X158345711Y-74128672D01*
X158349974Y-74109174D01*
X158353290Y-74089288D01*
X158355659Y-74069012D01*
X158357080Y-74048346D01*
X158357554Y-74027292D01*
X158357080Y-74006456D01*
X158355659Y-73985990D01*
X158353290Y-73965893D01*
X158349974Y-73946165D01*
X158345711Y-73926806D01*
X158340500Y-73907817D01*
X158334342Y-73889197D01*
X158327237Y-73870946D01*
X158319184Y-73853064D01*
X158310184Y-73835552D01*
X158300236Y-73818408D01*
X158289341Y-73801634D01*
X158277499Y-73785230D01*
X158264709Y-73769194D01*
X158250972Y-73753528D01*
X158236287Y-73738230D01*
X158220990Y-73723546D01*
X158205324Y-73709809D01*
X158189288Y-73697019D01*
X158172883Y-73685176D01*
X158156109Y-73674281D01*
X158138966Y-73664334D01*
X158121453Y-73655333D01*
X158103572Y-73647281D01*
X158085321Y-73640175D01*
X158066700Y-73634017D01*
X158047711Y-73628806D01*
X158028352Y-73624543D01*
X158008625Y-73621227D01*
X157988527Y-73618859D01*
X157968061Y-73617438D01*
X157947226Y-73616964D01*
X157926171Y-73617438D01*
X157905506Y-73618859D01*
X157885230Y-73621227D01*
X157865343Y-73624543D01*
X157845846Y-73628806D01*
X157826738Y-73634017D01*
X157808019Y-73640175D01*
X157789689Y-73647281D01*
X157771749Y-73655333D01*
X157754197Y-73664334D01*
X157737036Y-73674281D01*
X157720263Y-73685176D01*
X157703880Y-73697019D01*
X157687885Y-73709809D01*
X157672281Y-73723546D01*
X157657065Y-73738230D01*
X157642558Y-73753528D01*
X157628987Y-73769194D01*
X157616351Y-73785230D01*
X157604652Y-73801634D01*
X157593889Y-73818408D01*
X157584061Y-73835552D01*
X157575170Y-73853064D01*
X157567214Y-73870946D01*
X157560195Y-73889197D01*
X157554111Y-73907817D01*
X157548963Y-73926806D01*
X157544752Y-73946165D01*
X157541476Y-73965893D01*
X157539136Y-73985990D01*
X157537732Y-74006456D01*
X157537264Y-74027292D01*
X157229518Y-74027292D01*
X157229724Y-74009030D01*
X157230342Y-73990927D01*
X157231373Y-73972983D01*
X157232815Y-73955198D01*
X157234670Y-73937572D01*
X157236937Y-73920105D01*
X157239616Y-73902796D01*
X157242707Y-73885646D01*
X157246210Y-73868655D01*
X157250126Y-73851823D01*
X157254454Y-73835150D01*
X157259193Y-73818636D01*
X157264345Y-73802281D01*
X157269910Y-73786084D01*
X157275886Y-73770046D01*
X157282274Y-73754167D01*
X157289075Y-73738447D01*
X157296288Y-73722886D01*
X157303913Y-73707484D01*
X157311950Y-73692240D01*
X157320399Y-73677156D01*
X157329261Y-73662230D01*
X157338534Y-73647463D01*
X157348220Y-73632855D01*
X157358318Y-73618406D01*
X157368828Y-73604115D01*
X157379750Y-73589984D01*
X157391085Y-73576011D01*
X157402831Y-73562197D01*
X157414990Y-73548543D01*
X157427561Y-73535046D01*
X157440544Y-73521709D01*
X157453838Y-73508659D01*
X157467296Y-73496022D01*
X157480917Y-73483800D01*
X157494703Y-73471992D01*
X157508652Y-73460599D01*
X157522765Y-73449620D01*
X157537043Y-73439055D01*
X157551483Y-73428905D01*
X157566088Y-73419168D01*
X157580857Y-73409846D01*
X157595790Y-73400939D01*
X157610886Y-73392446D01*
X157626146Y-73384367D01*
X157641570Y-73376702D01*
X157657158Y-73369452D01*
X157672910Y-73362616D01*
X157688826Y-73356194D01*
X157704906Y-73350186D01*
X157721149Y-73344593D01*
X157737556Y-73339414D01*
X157754128Y-73334650D01*
X157770863Y-73330300D01*
X157787762Y-73326364D01*
X157804824Y-73322842D01*
X157822051Y-73319735D01*
X157839442Y-73317042D01*
X157856996Y-73314763D01*
X157874714Y-73312899D01*
X157892596Y-73311449D01*
X157910642Y-73310413D01*
X157928852Y-73309791D01*
X157947226Y-73309584D01*
X157965487Y-73309791D01*
G37*
G36*
X158766782Y-73309584D02*
G01*
X159074528Y-73309584D01*
X159074528Y-74334672D01*
X159075610Y-74350407D01*
X159078856Y-74365189D01*
X159084266Y-74379017D01*
X159091839Y-74391893D01*
X159101576Y-74403816D01*
X159105303Y-74407578D01*
X159117204Y-74417663D01*
X159129827Y-74425662D01*
X159145464Y-74432356D01*
X159162084Y-74436210D01*
X159177110Y-74437254D01*
X159894818Y-74437254D01*
X159894818Y-74745000D01*
X159074528Y-74745000D01*
X159058999Y-74744647D01*
X159043737Y-74743591D01*
X159028740Y-74741831D01*
X159014010Y-74739367D01*
X158999545Y-74736198D01*
X158985347Y-74732326D01*
X158971416Y-74727749D01*
X158951017Y-74719564D01*
X158937750Y-74713227D01*
X158924750Y-74706186D01*
X158912016Y-74698440D01*
X158899548Y-74689991D01*
X158887347Y-74680838D01*
X158875411Y-74670980D01*
X158863742Y-74660419D01*
X158858007Y-74654874D01*
X158846960Y-74643419D01*
X158836626Y-74631678D01*
X158827005Y-74619651D01*
X158818096Y-74607338D01*
X158809900Y-74594739D01*
X158802417Y-74581853D01*
X158795647Y-74568681D01*
X158789589Y-74555223D01*
X158784243Y-74541478D01*
X158779611Y-74527448D01*
X158775691Y-74513131D01*
X158772484Y-74498528D01*
X158769990Y-74483639D01*
X158768208Y-74468463D01*
X158767139Y-74453001D01*
X158766782Y-74437254D01*
X158766782Y-73309584D01*
G37*
G36*
X159996301Y-74181165D02*
G01*
X159996301Y-73873419D01*
X160970464Y-73873419D01*
X160970464Y-74181165D01*
X159996301Y-74181165D01*
G37*
D12*
X116554510Y-98300828D02*
X116554510Y-96800828D01*
X116554510Y-96800828D02*
X117125939Y-96800828D01*
X117125939Y-96800828D02*
X117268796Y-96872257D01*
X117268796Y-96872257D02*
X117340225Y-96943685D01*
X117340225Y-96943685D02*
X117411653Y-97086542D01*
X117411653Y-97086542D02*
X117411653Y-97300828D01*
X117411653Y-97300828D02*
X117340225Y-97443685D01*
X117340225Y-97443685D02*
X117268796Y-97515114D01*
X117268796Y-97515114D02*
X117125939Y-97586542D01*
X117125939Y-97586542D02*
X116554510Y-97586542D01*
X117911653Y-96800828D02*
X118268796Y-98300828D01*
X118268796Y-98300828D02*
X118554510Y-97229400D01*
X118554510Y-97229400D02*
X118840225Y-98300828D01*
X118840225Y-98300828D02*
X119197368Y-96800828D01*
X119768796Y-98300828D02*
X119768796Y-96800828D01*
X119768796Y-96800828D02*
X120625939Y-98300828D01*
X120625939Y-98300828D02*
X120625939Y-96800828D01*
D10*
X225908207Y-139259819D02*
X225574874Y-138783628D01*
X225336779Y-139259819D02*
X225336779Y-138259819D01*
X225336779Y-138259819D02*
X225717731Y-138259819D01*
X225717731Y-138259819D02*
X225812969Y-138307438D01*
X225812969Y-138307438D02*
X225860588Y-138355057D01*
X225860588Y-138355057D02*
X225908207Y-138450295D01*
X225908207Y-138450295D02*
X225908207Y-138593152D01*
X225908207Y-138593152D02*
X225860588Y-138688390D01*
X225860588Y-138688390D02*
X225812969Y-138736009D01*
X225812969Y-138736009D02*
X225717731Y-138783628D01*
X225717731Y-138783628D02*
X225336779Y-138783628D01*
X226860588Y-138307438D02*
X226765350Y-138259819D01*
X226765350Y-138259819D02*
X226622493Y-138259819D01*
X226622493Y-138259819D02*
X226479636Y-138307438D01*
X226479636Y-138307438D02*
X226384398Y-138402676D01*
X226384398Y-138402676D02*
X226336779Y-138497914D01*
X226336779Y-138497914D02*
X226289160Y-138688390D01*
X226289160Y-138688390D02*
X226289160Y-138831247D01*
X226289160Y-138831247D02*
X226336779Y-139021723D01*
X226336779Y-139021723D02*
X226384398Y-139116961D01*
X226384398Y-139116961D02*
X226479636Y-139212200D01*
X226479636Y-139212200D02*
X226622493Y-139259819D01*
X226622493Y-139259819D02*
X226717731Y-139259819D01*
X226717731Y-139259819D02*
X226860588Y-139212200D01*
X226860588Y-139212200D02*
X226908207Y-139164580D01*
X226908207Y-139164580D02*
X226908207Y-138831247D01*
X226908207Y-138831247D02*
X226717731Y-138831247D01*
X227336779Y-139259819D02*
X227336779Y-138259819D01*
X227336779Y-138736009D02*
X227908207Y-138736009D01*
X227908207Y-139259819D02*
X227908207Y-138259819D01*
X228241541Y-138259819D02*
X228812969Y-138259819D01*
X228527255Y-139259819D02*
X228527255Y-138259819D01*
X225289160Y-140822200D02*
X225432017Y-140869819D01*
X225432017Y-140869819D02*
X225670112Y-140869819D01*
X225670112Y-140869819D02*
X225765350Y-140822200D01*
X225765350Y-140822200D02*
X225812969Y-140774580D01*
X225812969Y-140774580D02*
X225860588Y-140679342D01*
X225860588Y-140679342D02*
X225860588Y-140584104D01*
X225860588Y-140584104D02*
X225812969Y-140488866D01*
X225812969Y-140488866D02*
X225765350Y-140441247D01*
X225765350Y-140441247D02*
X225670112Y-140393628D01*
X225670112Y-140393628D02*
X225479636Y-140346009D01*
X225479636Y-140346009D02*
X225384398Y-140298390D01*
X225384398Y-140298390D02*
X225336779Y-140250771D01*
X225336779Y-140250771D02*
X225289160Y-140155533D01*
X225289160Y-140155533D02*
X225289160Y-140060295D01*
X225289160Y-140060295D02*
X225336779Y-139965057D01*
X225336779Y-139965057D02*
X225384398Y-139917438D01*
X225384398Y-139917438D02*
X225479636Y-139869819D01*
X225479636Y-139869819D02*
X225717731Y-139869819D01*
X225717731Y-139869819D02*
X225860588Y-139917438D01*
X226289160Y-140869819D02*
X226289160Y-139869819D01*
X226289160Y-139869819D02*
X226670112Y-139869819D01*
X226670112Y-139869819D02*
X226765350Y-139917438D01*
X226765350Y-139917438D02*
X226812969Y-139965057D01*
X226812969Y-139965057D02*
X226860588Y-140060295D01*
X226860588Y-140060295D02*
X226860588Y-140203152D01*
X226860588Y-140203152D02*
X226812969Y-140298390D01*
X226812969Y-140298390D02*
X226765350Y-140346009D01*
X226765350Y-140346009D02*
X226670112Y-140393628D01*
X226670112Y-140393628D02*
X226289160Y-140393628D01*
X227289160Y-140869819D02*
X227289160Y-139869819D01*
X227860588Y-140869819D02*
X227432017Y-140298390D01*
X227860588Y-139869819D02*
X227289160Y-140441247D01*
X228860588Y-140869819D02*
X228527255Y-140393628D01*
X228289160Y-140869819D02*
X228289160Y-139869819D01*
X228289160Y-139869819D02*
X228670112Y-139869819D01*
X228670112Y-139869819D02*
X228765350Y-139917438D01*
X228765350Y-139917438D02*
X228812969Y-139965057D01*
X228812969Y-139965057D02*
X228860588Y-140060295D01*
X228860588Y-140060295D02*
X228860588Y-140203152D01*
X228860588Y-140203152D02*
X228812969Y-140298390D01*
X228812969Y-140298390D02*
X228765350Y-140346009D01*
X228765350Y-140346009D02*
X228670112Y-140393628D01*
X228670112Y-140393628D02*
X228289160Y-140393628D01*
D11*
G36*
X124713073Y-73310089D02*
G01*
X124734800Y-73311605D01*
X124756144Y-73314131D01*
X124777104Y-73317667D01*
X124797680Y-73322214D01*
X124817873Y-73327771D01*
X124837683Y-73334338D01*
X124857109Y-73341916D01*
X124876151Y-73350504D01*
X124894810Y-73360102D01*
X124913085Y-73370711D01*
X124930977Y-73382330D01*
X124948485Y-73394960D01*
X124965610Y-73408600D01*
X124982351Y-73423250D01*
X124998709Y-73438911D01*
X125014369Y-73455224D01*
X125029019Y-73471924D01*
X125042659Y-73489010D01*
X125055289Y-73506482D01*
X125066908Y-73524341D01*
X125077517Y-73542586D01*
X125087115Y-73561218D01*
X125095703Y-73580236D01*
X125103281Y-73599640D01*
X125109849Y-73619431D01*
X125115406Y-73639608D01*
X125119952Y-73660172D01*
X125123488Y-73681122D01*
X125126014Y-73702458D01*
X125127530Y-73724181D01*
X125128035Y-73746290D01*
X125127634Y-73768264D01*
X125126432Y-73789579D01*
X125124429Y-73810235D01*
X125121624Y-73830234D01*
X125118017Y-73849574D01*
X125113609Y-73868255D01*
X125108400Y-73886279D01*
X125102390Y-73903644D01*
X125095578Y-73920351D01*
X125087964Y-73936399D01*
X125079549Y-73951789D01*
X125070333Y-73966521D01*
X125060315Y-73980595D01*
X125049496Y-73994010D01*
X125037875Y-74006767D01*
X125025453Y-74018866D01*
X125037875Y-74033227D01*
X125049496Y-74048100D01*
X125060315Y-74063486D01*
X125070333Y-74079384D01*
X125079549Y-74095795D01*
X125087964Y-74112718D01*
X125095578Y-74130153D01*
X125102390Y-74148101D01*
X125108400Y-74166560D01*
X125113609Y-74185533D01*
X125118017Y-74205017D01*
X125121624Y-74225014D01*
X125124429Y-74245523D01*
X125126432Y-74266545D01*
X125127634Y-74288079D01*
X125128035Y-74310125D01*
X125128035Y-74745000D01*
X124820289Y-74745000D01*
X124820289Y-74310125D01*
X124819359Y-74293900D01*
X124816568Y-74278426D01*
X124811917Y-74263703D01*
X124805406Y-74249732D01*
X124797034Y-74236512D01*
X124786801Y-74224044D01*
X124782187Y-74219267D01*
X124770010Y-74208290D01*
X124757064Y-74199174D01*
X124743349Y-74191918D01*
X124728864Y-74186523D01*
X124713610Y-74182988D01*
X124697587Y-74181314D01*
X124690963Y-74181165D01*
X124307745Y-74181165D01*
X124307745Y-74745000D01*
X124000000Y-74745000D01*
X124000000Y-73616964D01*
X124307745Y-73616964D01*
X124307745Y-73873419D01*
X124690963Y-73873419D01*
X124707293Y-73872516D01*
X124722855Y-73869805D01*
X124737647Y-73865288D01*
X124751670Y-73858965D01*
X124764924Y-73850834D01*
X124777409Y-73840897D01*
X124782187Y-73836416D01*
X124793164Y-73824459D01*
X124802280Y-73811715D01*
X124809536Y-73798184D01*
X124814931Y-73783866D01*
X124818466Y-73768760D01*
X124820140Y-73752868D01*
X124820289Y-73746290D01*
X124819359Y-73729960D01*
X124816568Y-73714398D01*
X124811917Y-73699606D01*
X124805406Y-73685583D01*
X124797034Y-73672329D01*
X124786801Y-73659844D01*
X124782187Y-73655066D01*
X124770010Y-73644089D01*
X124757064Y-73634973D01*
X124743349Y-73627717D01*
X124728864Y-73622322D01*
X124713610Y-73618787D01*
X124697587Y-73617113D01*
X124690963Y-73616964D01*
X124307745Y-73616964D01*
X124000000Y-73616964D01*
X124000000Y-73309584D01*
X124690963Y-73309584D01*
X124713073Y-73310089D01*
G37*
G36*
X125537264Y-73309584D02*
G01*
X125537264Y-74334672D01*
X125538449Y-74351295D01*
X125542004Y-74367095D01*
X125547929Y-74382070D01*
X125556223Y-74396221D01*
X125566888Y-74409547D01*
X125570969Y-74413806D01*
X125584021Y-74425261D01*
X125597897Y-74434345D01*
X125612598Y-74441060D01*
X125628122Y-74445405D01*
X125644471Y-74447380D01*
X125650104Y-74447512D01*
X125667187Y-74446327D01*
X125683266Y-74442772D01*
X125698340Y-74436847D01*
X125712409Y-74428552D01*
X125725474Y-74417888D01*
X125729605Y-74413806D01*
X125740811Y-74400754D01*
X125749698Y-74386878D01*
X125756267Y-74372178D01*
X125760517Y-74356653D01*
X125762449Y-74340304D01*
X125762578Y-74334672D01*
X125762578Y-73309584D01*
X126070324Y-73309584D01*
X126070324Y-74334672D01*
X126071470Y-74351295D01*
X126074909Y-74367095D01*
X126080641Y-74382070D01*
X126088665Y-74396221D01*
X126098982Y-74409547D01*
X126102930Y-74413806D01*
X126115875Y-74425261D01*
X126129978Y-74434345D01*
X126145241Y-74441060D01*
X126161663Y-74445405D01*
X126176234Y-74447215D01*
X126185362Y-74447512D01*
X126202523Y-74446327D01*
X126218833Y-74442772D01*
X126234293Y-74436847D01*
X126248904Y-74428552D01*
X126262664Y-74417888D01*
X126267062Y-74413806D01*
X126277194Y-74402987D01*
X126287086Y-74389248D01*
X126294505Y-74374685D01*
X126299450Y-74359298D01*
X126301923Y-74343086D01*
X126302233Y-74334672D01*
X126302233Y-73309584D01*
X126613642Y-73309584D01*
X126613642Y-74334672D01*
X126613170Y-74355508D01*
X126611753Y-74375979D01*
X126609392Y-74396083D01*
X126606086Y-74415821D01*
X126601836Y-74435193D01*
X126596641Y-74454198D01*
X126590501Y-74472837D01*
X126583417Y-74491109D01*
X126575389Y-74509015D01*
X126566416Y-74526555D01*
X126556498Y-74543728D01*
X126545636Y-74560535D01*
X126533829Y-74576976D01*
X126521078Y-74593050D01*
X126507382Y-74608758D01*
X126492742Y-74624099D01*
X126477445Y-74638740D01*
X126461778Y-74652435D01*
X126445743Y-74665186D01*
X126429338Y-74676993D01*
X126412564Y-74687855D01*
X126395421Y-74697773D01*
X126377908Y-74706746D01*
X126360027Y-74714774D01*
X126341776Y-74721858D01*
X126323155Y-74727998D01*
X126304166Y-74733193D01*
X126284807Y-74737443D01*
X126265080Y-74740749D01*
X126244982Y-74743110D01*
X126224516Y-74744527D01*
X126203681Y-74745000D01*
X126182595Y-74744599D01*
X126161927Y-74743397D01*
X126141676Y-74741393D01*
X126121844Y-74738588D01*
X126102430Y-74734982D01*
X126083433Y-74730574D01*
X126064854Y-74725365D01*
X126046693Y-74719354D01*
X126028951Y-74712542D01*
X126011626Y-74704928D01*
X125994718Y-74696513D01*
X125978229Y-74687297D01*
X125962158Y-74677279D01*
X125946504Y-74666460D01*
X125931269Y-74654840D01*
X125916451Y-74642418D01*
X125902662Y-74654840D01*
X125888407Y-74666460D01*
X125873685Y-74677279D01*
X125858497Y-74687297D01*
X125842842Y-74696513D01*
X125826720Y-74704928D01*
X125810132Y-74712542D01*
X125793078Y-74719354D01*
X125775557Y-74725365D01*
X125757569Y-74730574D01*
X125739115Y-74734982D01*
X125720194Y-74738588D01*
X125700807Y-74741393D01*
X125680953Y-74743397D01*
X125660633Y-74744599D01*
X125639846Y-74745000D01*
X125618747Y-74744527D01*
X125598040Y-74743110D01*
X125577726Y-74740749D01*
X125557803Y-74737443D01*
X125538273Y-74733193D01*
X125519135Y-74727998D01*
X125500389Y-74721858D01*
X125482035Y-74714774D01*
X125464073Y-74706746D01*
X125446503Y-74697773D01*
X125429325Y-74687855D01*
X125412540Y-74676993D01*
X125396146Y-74665186D01*
X125380145Y-74652435D01*
X125364536Y-74638740D01*
X125349319Y-74624099D01*
X125334812Y-74608758D01*
X125321241Y-74593050D01*
X125308605Y-74576976D01*
X125296906Y-74560535D01*
X125286143Y-74543728D01*
X125276315Y-74526555D01*
X125267424Y-74509015D01*
X125259468Y-74491109D01*
X125252449Y-74472837D01*
X125246365Y-74454198D01*
X125241217Y-74435193D01*
X125237006Y-74415821D01*
X125233730Y-74396083D01*
X125231390Y-74375979D01*
X125229986Y-74355508D01*
X125229518Y-74334672D01*
X125229518Y-73309584D01*
X125537264Y-73309584D01*
G37*
G36*
X127428565Y-73310089D02*
G01*
X127450292Y-73311605D01*
X127471636Y-73314131D01*
X127492596Y-73317667D01*
X127513172Y-73322214D01*
X127533365Y-73327771D01*
X127553175Y-73334338D01*
X127572601Y-73341916D01*
X127591643Y-73350504D01*
X127610302Y-73360102D01*
X127628577Y-73370711D01*
X127646469Y-73382330D01*
X127663977Y-73394960D01*
X127681102Y-73408600D01*
X127697843Y-73423250D01*
X127714200Y-73438911D01*
X127729861Y-73455224D01*
X127744511Y-73471924D01*
X127758151Y-73489010D01*
X127770781Y-73506482D01*
X127782400Y-73524341D01*
X127793009Y-73542586D01*
X127802607Y-73561218D01*
X127811195Y-73580236D01*
X127818773Y-73599640D01*
X127825341Y-73619431D01*
X127830898Y-73639608D01*
X127835444Y-73660172D01*
X127838980Y-73681122D01*
X127841506Y-73702458D01*
X127843022Y-73724181D01*
X127843527Y-73746290D01*
X127843527Y-74310125D01*
X127843022Y-74332231D01*
X127841506Y-74353946D01*
X127838980Y-74375268D01*
X127835444Y-74396198D01*
X127830898Y-74416736D01*
X127825341Y-74436881D01*
X127818773Y-74456635D01*
X127811195Y-74475997D01*
X127802607Y-74494966D01*
X127793009Y-74513543D01*
X127782400Y-74531728D01*
X127770781Y-74549521D01*
X127758151Y-74566922D01*
X127744511Y-74583931D01*
X127729861Y-74600548D01*
X127714200Y-74616772D01*
X127697843Y-74632300D01*
X127681102Y-74646825D01*
X127663977Y-74660349D01*
X127646469Y-74672872D01*
X127628577Y-74684392D01*
X127610302Y-74694911D01*
X127591643Y-74704428D01*
X127572601Y-74712943D01*
X127553175Y-74720456D01*
X127533365Y-74726968D01*
X127513172Y-74732477D01*
X127492596Y-74736985D01*
X127471636Y-74740492D01*
X127450292Y-74742996D01*
X127428565Y-74744499D01*
X127406454Y-74745000D01*
X126715491Y-74745000D01*
X126715491Y-73616964D01*
X127023237Y-73616964D01*
X127023237Y-74437254D01*
X127406454Y-74437254D01*
X127422785Y-74436359D01*
X127438347Y-74433676D01*
X127453139Y-74429204D01*
X127467162Y-74422942D01*
X127480416Y-74414892D01*
X127492901Y-74405054D01*
X127497679Y-74400617D01*
X127508656Y-74388651D01*
X127517772Y-74375880D01*
X127525028Y-74362304D01*
X127530423Y-74347924D01*
X127533958Y-74332738D01*
X127535632Y-74316747D01*
X127535781Y-74310125D01*
X127535781Y-73746290D01*
X127534851Y-73729960D01*
X127532060Y-73714398D01*
X127527409Y-73699606D01*
X127520898Y-73685583D01*
X127512526Y-73672329D01*
X127502293Y-73659844D01*
X127497679Y-73655066D01*
X127485502Y-73644089D01*
X127472556Y-73634973D01*
X127458841Y-73627717D01*
X127444356Y-73622322D01*
X127429102Y-73618787D01*
X127413079Y-73617113D01*
X127406454Y-73616964D01*
X127023237Y-73616964D01*
X126715491Y-73616964D01*
X126715491Y-73309584D01*
X127406454Y-73309584D01*
X127428565Y-73310089D01*
G37*
D12*
X181268796Y-97800828D02*
X180554510Y-97800828D01*
X180554510Y-97800828D02*
X180554510Y-96300828D01*
X181625939Y-96300828D02*
X182554511Y-96300828D01*
X182554511Y-96300828D02*
X182054511Y-96872257D01*
X182054511Y-96872257D02*
X182268796Y-96872257D01*
X182268796Y-96872257D02*
X182411654Y-96943685D01*
X182411654Y-96943685D02*
X182483082Y-97015114D01*
X182483082Y-97015114D02*
X182554511Y-97157971D01*
X182554511Y-97157971D02*
X182554511Y-97515114D01*
X182554511Y-97515114D02*
X182483082Y-97657971D01*
X182483082Y-97657971D02*
X182411654Y-97729400D01*
X182411654Y-97729400D02*
X182268796Y-97800828D01*
X182268796Y-97800828D02*
X181840225Y-97800828D01*
X181840225Y-97800828D02*
X181697368Y-97729400D01*
X181697368Y-97729400D02*
X181625939Y-97657971D01*
X183054510Y-96300828D02*
X183983082Y-96300828D01*
X183983082Y-96300828D02*
X183483082Y-96872257D01*
X183483082Y-96872257D02*
X183697367Y-96872257D01*
X183697367Y-96872257D02*
X183840225Y-96943685D01*
X183840225Y-96943685D02*
X183911653Y-97015114D01*
X183911653Y-97015114D02*
X183983082Y-97157971D01*
X183983082Y-97157971D02*
X183983082Y-97515114D01*
X183983082Y-97515114D02*
X183911653Y-97657971D01*
X183911653Y-97657971D02*
X183840225Y-97729400D01*
X183840225Y-97729400D02*
X183697367Y-97800828D01*
X183697367Y-97800828D02*
X183268796Y-97800828D01*
X183268796Y-97800828D02*
X183125939Y-97729400D01*
X183125939Y-97729400D02*
X183054510Y-97657971D01*
X184411653Y-96300828D02*
X185268796Y-96300828D01*
X184840224Y-97800828D02*
X184840224Y-96300828D01*
D10*
X147366666Y-144154819D02*
X147366666Y-144869104D01*
X147366666Y-144869104D02*
X147319047Y-145011961D01*
X147319047Y-145011961D02*
X147223809Y-145107200D01*
X147223809Y-145107200D02*
X147080952Y-145154819D01*
X147080952Y-145154819D02*
X146985714Y-145154819D01*
X148366666Y-145154819D02*
X147795238Y-145154819D01*
X148080952Y-145154819D02*
X148080952Y-144154819D01*
X148080952Y-144154819D02*
X147985714Y-144297676D01*
X147985714Y-144297676D02*
X147890476Y-144392914D01*
X147890476Y-144392914D02*
X147795238Y-144440533D01*
%TO.C,Ref\u002A\u002A*%
D13*
X118402487Y-83661937D02*
X118405215Y-83663233D01*
X118412026Y-83688246D01*
X118423433Y-83749766D01*
X118438577Y-83842317D01*
X118456604Y-83960427D01*
X118476656Y-84098621D01*
X118497878Y-84251423D01*
X118501994Y-84281822D01*
X118526140Y-84461640D01*
X118544531Y-84603917D01*
X118557025Y-84713071D01*
X118563480Y-84793520D01*
X118563752Y-84849683D01*
X118557700Y-84885978D01*
X118545181Y-84906823D01*
X118526053Y-84916637D01*
X118500174Y-84919838D01*
X118481417Y-84920421D01*
X118442311Y-84923772D01*
X118373344Y-84931839D01*
X118286539Y-84943171D01*
X118243618Y-84949124D01*
X118048153Y-84976758D01*
X118037133Y-84911337D01*
X118027684Y-84850755D01*
X118014810Y-84761807D01*
X117999347Y-84650909D01*
X117982134Y-84524478D01*
X117964010Y-84388931D01*
X117945813Y-84250683D01*
X117928382Y-84116152D01*
X117912554Y-83991754D01*
X117899169Y-83883905D01*
X117889063Y-83799021D01*
X117883077Y-83743521D01*
X117881979Y-83723843D01*
X117908135Y-83715273D01*
X117965531Y-83704609D01*
X118044106Y-83693018D01*
X118133796Y-83681664D01*
X118224542Y-83671713D01*
X118306280Y-83664332D01*
X118368949Y-83660684D01*
X118402487Y-83661937D01*
G36*
X118402487Y-83661937D02*
G01*
X118405215Y-83663233D01*
X118412026Y-83688246D01*
X118423433Y-83749766D01*
X118438577Y-83842317D01*
X118456604Y-83960427D01*
X118476656Y-84098621D01*
X118497878Y-84251423D01*
X118501994Y-84281822D01*
X118526140Y-84461640D01*
X118544531Y-84603917D01*
X118557025Y-84713071D01*
X118563480Y-84793520D01*
X118563752Y-84849683D01*
X118557700Y-84885978D01*
X118545181Y-84906823D01*
X118526053Y-84916637D01*
X118500174Y-84919838D01*
X118481417Y-84920421D01*
X118442311Y-84923772D01*
X118373344Y-84931839D01*
X118286539Y-84943171D01*
X118243618Y-84949124D01*
X118048153Y-84976758D01*
X118037133Y-84911337D01*
X118027684Y-84850755D01*
X118014810Y-84761807D01*
X117999347Y-84650909D01*
X117982134Y-84524478D01*
X117964010Y-84388931D01*
X117945813Y-84250683D01*
X117928382Y-84116152D01*
X117912554Y-83991754D01*
X117899169Y-83883905D01*
X117889063Y-83799021D01*
X117883077Y-83743521D01*
X117881979Y-83723843D01*
X117908135Y-83715273D01*
X117965531Y-83704609D01*
X118044106Y-83693018D01*
X118133796Y-83681664D01*
X118224542Y-83671713D01*
X118306280Y-83664332D01*
X118368949Y-83660684D01*
X118402487Y-83661937D01*
G37*
X187774493Y-91368666D02*
X187828796Y-91388103D01*
X187910047Y-91419464D01*
X188012310Y-91460267D01*
X188129651Y-91508032D01*
X188256133Y-91560275D01*
X188385821Y-91614516D01*
X188512780Y-91668272D01*
X188631073Y-91719062D01*
X188734766Y-91764405D01*
X188817923Y-91801818D01*
X188874608Y-91828820D01*
X188898523Y-91842559D01*
X188895979Y-91865258D01*
X188880760Y-91917814D01*
X188856305Y-91990934D01*
X188826052Y-92075329D01*
X188793440Y-92161708D01*
X188761907Y-92240779D01*
X188734892Y-92303253D01*
X188715835Y-92339838D01*
X188713172Y-92343355D01*
X188693598Y-92336412D01*
X188639976Y-92314844D01*
X188557176Y-92280676D01*
X188450071Y-92235937D01*
X188323532Y-92182652D01*
X188182430Y-92122850D01*
X188143784Y-92106410D01*
X187998637Y-92044492D01*
X187865943Y-91987651D01*
X187750766Y-91938074D01*
X187658167Y-91897949D01*
X187593210Y-91869464D01*
X187560957Y-91854806D01*
X187558657Y-91853595D01*
X187560540Y-91832004D01*
X187575991Y-91780890D01*
X187601376Y-91709412D01*
X187633062Y-91626729D01*
X187667413Y-91542000D01*
X187700796Y-91464382D01*
X187729577Y-91403034D01*
X187750121Y-91367114D01*
X187753073Y-91363635D01*
X187774493Y-91368666D01*
G36*
X187774493Y-91368666D02*
G01*
X187828796Y-91388103D01*
X187910047Y-91419464D01*
X188012310Y-91460267D01*
X188129651Y-91508032D01*
X188256133Y-91560275D01*
X188385821Y-91614516D01*
X188512780Y-91668272D01*
X188631073Y-91719062D01*
X188734766Y-91764405D01*
X188817923Y-91801818D01*
X188874608Y-91828820D01*
X188898523Y-91842559D01*
X188895979Y-91865258D01*
X188880760Y-91917814D01*
X188856305Y-91990934D01*
X188826052Y-92075329D01*
X188793440Y-92161708D01*
X188761907Y-92240779D01*
X188734892Y-92303253D01*
X188715835Y-92339838D01*
X188713172Y-92343355D01*
X188693598Y-92336412D01*
X188639976Y-92314844D01*
X188557176Y-92280676D01*
X188450071Y-92235937D01*
X188323532Y-92182652D01*
X188182430Y-92122850D01*
X188143784Y-92106410D01*
X187998637Y-92044492D01*
X187865943Y-91987651D01*
X187750766Y-91938074D01*
X187658167Y-91897949D01*
X187593210Y-91869464D01*
X187560957Y-91854806D01*
X187558657Y-91853595D01*
X187560540Y-91832004D01*
X187575991Y-91780890D01*
X187601376Y-91709412D01*
X187633062Y-91626729D01*
X187667413Y-91542000D01*
X187700796Y-91464382D01*
X187729577Y-91403034D01*
X187750121Y-91367114D01*
X187753073Y-91363635D01*
X187774493Y-91368666D01*
G37*
D14*
%TO.C,J1*%
X146670000Y-151330000D02*
X154410000Y-151330000D01*
X146670000Y-151330000D02*
X146670000Y-148730000D01*
X154410000Y-151330000D02*
X154410000Y-146130000D01*
X146670000Y-148730000D02*
X149270000Y-148730000D01*
X149270000Y-148730000D02*
X149270000Y-146130000D01*
X146670000Y-147460000D02*
X146670000Y-146130000D01*
X146670000Y-146130000D02*
X148000000Y-146130000D01*
X149270000Y-146130000D02*
X154410000Y-146130000D01*
X149300000Y-145560000D02*
X149300000Y-145560000D01*
X149300000Y-145560000D02*
X149300000Y-144060000D01*
X149300000Y-144060000D02*
X149300000Y-144060000D01*
X149300000Y-144060000D02*
X149300000Y-145560000D01*
X149300000Y-144060000D02*
X151800000Y-144060000D01*
X151800000Y-144060000D02*
X151800000Y-144060000D01*
X151800000Y-144060000D02*
X149300000Y-144060000D01*
X149300000Y-144060000D02*
X149300000Y-144060000D01*
X151800000Y-144060000D02*
X151800000Y-144060000D01*
X151800000Y-144060000D02*
X151800000Y-145560000D01*
X151800000Y-145560000D02*
X151800000Y-145560000D01*
X151800000Y-145560000D02*
X151800000Y-144060000D01*
%TD*%
M02*
