%TF.GenerationSoftware,KiCad,Pcbnew,7.0.9*%
%TF.CreationDate,2024-02-01T20:29:03-08:00*%
%TF.ProjectId,DC32_Cnet_Badge_Main,44433332-5f43-46e6-9574-5f4261646765,rev?*%
%TF.SameCoordinates,Original*%
%TF.FileFunction,Soldermask,Top*%
%TF.FilePolarity,Negative*%
%FSLAX46Y46*%
G04 Gerber Fmt 4.6, Leading zero omitted, Abs format (unit mm)*
G04 Created by KiCad (PCBNEW 7.0.9) date 2024-02-01 20:29:03*
%MOMM*%
%LPD*%
G01*
G04 APERTURE LIST*
G04 Aperture macros list*
%AMRoundRect*
0 Rectangle with rounded corners*
0 $1 Rounding radius*
0 $2 $3 $4 $5 $6 $7 $8 $9 X,Y pos of 4 corners*
0 Add a 4 corners polygon primitive as box body*
4,1,4,$2,$3,$4,$5,$6,$7,$8,$9,$2,$3,0*
0 Add four circle primitives for the rounded corners*
1,1,$1+$1,$2,$3*
1,1,$1+$1,$4,$5*
1,1,$1+$1,$6,$7*
1,1,$1+$1,$8,$9*
0 Add four rect primitives between the rounded corners*
20,1,$1+$1,$2,$3,$4,$5,0*
20,1,$1+$1,$4,$5,$6,$7,0*
20,1,$1+$1,$6,$7,$8,$9,0*
20,1,$1+$1,$8,$9,$2,$3,0*%
G04 Aperture macros list end*
%ADD10C,0.150000*%
%ADD11C,0.010000*%
%ADD12C,1.800000*%
%ADD13R,1.500000X5.000000*%
%ADD14C,2.000000*%
%ADD15C,3.000000*%
%ADD16R,1.700000X1.700000*%
%ADD17O,1.700000X1.700000*%
%ADD18RoundRect,0.250000X-0.625000X0.350000X-0.625000X-0.350000X0.625000X-0.350000X0.625000X0.350000X0*%
%ADD19O,1.750000X1.200000*%
%ADD20O,1.400000X2.000000*%
%ADD21C,1.524000*%
G04 APERTURE END LIST*
D10*
X191000000Y-65000000D02*
X190000000Y-66000000D01*
X191000000Y-69000000D02*
X191000000Y-65000000D01*
X108000000Y-69000000D02*
X108000000Y-65000000D01*
X111500000Y-67000000D02*
X111500000Y-69000000D01*
X125500000Y-69000000D02*
X125500000Y-65000000D01*
X144500000Y-67000000D02*
X142500000Y-69000000D01*
X175000000Y-67000000D02*
X176000000Y-67000000D01*
X142500000Y-65000000D02*
X144500000Y-67000000D01*
X158000000Y-65000000D02*
X157000000Y-66000000D01*
X125500000Y-65000000D02*
X123500000Y-67000000D01*
X158000000Y-69000000D02*
X158000000Y-65000000D01*
X174000000Y-65000000D02*
X173000000Y-66000000D01*
X157000000Y-66000000D02*
X156000000Y-66000000D01*
X156000000Y-66000000D02*
X156000000Y-68000000D01*
X140500000Y-69000000D02*
X142500000Y-67000000D01*
X189000000Y-66000000D02*
X189000000Y-68000000D01*
X111500000Y-67000000D02*
X111500000Y-65000000D01*
X177000000Y-67000000D02*
X176000000Y-67000000D01*
X176000000Y-67000000D02*
X177000000Y-67000000D01*
X173000000Y-68000000D02*
X174000000Y-69000000D01*
X190000000Y-66000000D02*
X189000000Y-66000000D01*
X142500000Y-69000000D02*
X142500000Y-65000000D01*
X157000000Y-68000000D02*
X158000000Y-69000000D01*
X174000000Y-69000000D02*
X174000000Y-65000000D01*
X127500000Y-65000000D02*
X125500000Y-67000000D01*
X189000000Y-68000000D02*
X190000000Y-68000000D01*
X172000000Y-66000000D02*
X172000000Y-68000000D01*
X160000000Y-67000000D02*
X159000000Y-67000000D01*
X125500000Y-67000000D02*
X127500000Y-69000000D01*
X111500000Y-69000000D02*
X111500000Y-67000000D01*
X123500000Y-67000000D02*
X125500000Y-69000000D01*
X142500000Y-67000000D02*
X140500000Y-65000000D01*
X176000000Y-66000000D02*
X176000000Y-68000000D01*
X156000000Y-68000000D02*
X157000000Y-68000000D01*
X172000000Y-68000000D02*
X173000000Y-68000000D01*
X111500000Y-67000000D02*
X108000000Y-69000000D01*
X108000000Y-65000000D02*
X111500000Y-67000000D01*
X127500000Y-69000000D02*
X127500000Y-65000000D01*
X173000000Y-66000000D02*
X172000000Y-66000000D01*
X192000000Y-65000000D02*
X188000000Y-69000000D01*
X140500000Y-65000000D02*
X140500000Y-69000000D01*
X160000000Y-67000000D02*
X161000000Y-67000000D01*
X190000000Y-68000000D02*
X191000000Y-69000000D01*
X188000000Y-65000000D02*
X192000000Y-69000000D01*
G36*
X133753824Y-99233933D02*
G01*
X133898671Y-99244036D01*
X134040962Y-99260876D01*
X134180696Y-99284451D01*
X134317872Y-99314762D01*
X134452492Y-99351808D01*
X134584555Y-99395591D01*
X134714061Y-99446109D01*
X134841010Y-99503363D01*
X134965402Y-99567353D01*
X135087237Y-99638078D01*
X135206516Y-99715539D01*
X135323237Y-99799736D01*
X135437401Y-99890669D01*
X135549009Y-99988338D01*
X135658060Y-100092742D01*
X135762464Y-100201497D01*
X135860132Y-100312828D01*
X135951065Y-100426735D01*
X136035262Y-100543217D01*
X136112723Y-100662276D01*
X136183449Y-100783911D01*
X136247438Y-100908122D01*
X136304692Y-101034909D01*
X136355211Y-101164272D01*
X136398993Y-101296210D01*
X136436040Y-101430725D01*
X136466351Y-101567816D01*
X136489926Y-101707483D01*
X136506765Y-101849726D01*
X136516869Y-101994545D01*
X136520237Y-102141939D01*
X136517565Y-102288428D01*
X136509551Y-102430528D01*
X136496194Y-102568239D01*
X136477494Y-102701561D01*
X136453452Y-102830494D01*
X136424066Y-102955039D01*
X136389338Y-103075195D01*
X136349267Y-103190963D01*
X136303853Y-103302341D01*
X136253096Y-103409331D01*
X136196997Y-103511932D01*
X136135554Y-103610144D01*
X136068769Y-103703968D01*
X135996641Y-103793403D01*
X135919170Y-103878449D01*
X135836357Y-103959106D01*
X135919170Y-104054848D01*
X135996641Y-104154004D01*
X136068769Y-104256577D01*
X136135554Y-104362565D01*
X136196997Y-104471969D01*
X136253096Y-104584788D01*
X136303853Y-104701023D01*
X136349267Y-104820673D01*
X136389338Y-104943739D01*
X136424066Y-105070220D01*
X136453452Y-105200118D01*
X136477494Y-105333430D01*
X136496194Y-105470159D01*
X136509551Y-105610302D01*
X136517565Y-105753862D01*
X136520237Y-105900837D01*
X136516869Y-106048213D01*
X136506765Y-106192974D01*
X136489926Y-106335122D01*
X136466351Y-106474655D01*
X136436040Y-106611574D01*
X136398993Y-106745879D01*
X136355211Y-106877570D01*
X136304692Y-107006646D01*
X136247438Y-107133109D01*
X136183449Y-107256957D01*
X136112723Y-107378191D01*
X136035262Y-107496811D01*
X135951065Y-107612817D01*
X135860132Y-107726209D01*
X135762464Y-107836986D01*
X135658060Y-107945150D01*
X135549009Y-108048667D01*
X135437401Y-108145505D01*
X135323237Y-108235665D01*
X135206516Y-108319146D01*
X135087237Y-108395949D01*
X134965402Y-108466074D01*
X134841010Y-108529520D01*
X134714061Y-108586287D01*
X134584555Y-108636376D01*
X134452492Y-108679786D01*
X134317872Y-108716518D01*
X134180696Y-108746571D01*
X134040962Y-108769946D01*
X133898671Y-108786642D01*
X133753824Y-108796660D01*
X133606420Y-108800000D01*
X129000000Y-108800000D01*
X129000000Y-105041102D01*
X131051639Y-105041102D01*
X131051639Y-106748360D01*
X133606420Y-106748360D01*
X133715291Y-106742397D01*
X133819035Y-106724508D01*
X133917650Y-106694693D01*
X134011138Y-106652952D01*
X134099497Y-106599286D01*
X134182728Y-106533693D01*
X134214584Y-106504117D01*
X134287762Y-106424344D01*
X134348536Y-106339205D01*
X134396908Y-106248699D01*
X134432876Y-106152827D01*
X134456442Y-106051588D01*
X134467605Y-105944982D01*
X134468597Y-105900837D01*
X134462395Y-105792669D01*
X134443791Y-105689510D01*
X134412784Y-105591359D01*
X134369373Y-105498218D01*
X134313560Y-105410085D01*
X134245344Y-105326962D01*
X134214584Y-105295115D01*
X134133405Y-105221937D01*
X134047097Y-105161163D01*
X133955661Y-105112791D01*
X133859096Y-105076823D01*
X133757404Y-105053257D01*
X133650584Y-105042094D01*
X133606420Y-105041102D01*
X131051639Y-105041102D01*
X129000000Y-105041102D01*
X129000000Y-101279762D01*
X131051639Y-101279762D01*
X131051639Y-102989462D01*
X133606420Y-102989462D01*
X133715291Y-102983440D01*
X133819035Y-102965372D01*
X133917650Y-102935259D01*
X134011138Y-102893101D01*
X134099497Y-102838897D01*
X134182728Y-102772649D01*
X134214584Y-102742777D01*
X134287762Y-102663064D01*
X134348536Y-102578104D01*
X134396908Y-102487896D01*
X134432876Y-102392441D01*
X134456442Y-102291739D01*
X134467605Y-102185789D01*
X134468597Y-102141939D01*
X134462395Y-102033068D01*
X134443791Y-101929324D01*
X134412784Y-101830709D01*
X134369373Y-101737221D01*
X134313560Y-101648862D01*
X134245344Y-101565631D01*
X134214584Y-101533775D01*
X134133405Y-101460597D01*
X134047097Y-101399823D01*
X133955661Y-101351451D01*
X133859096Y-101315483D01*
X133757404Y-101291917D01*
X133650584Y-101280754D01*
X133606420Y-101279762D01*
X131051639Y-101279762D01*
X129000000Y-101279762D01*
X129000000Y-99230565D01*
X133606420Y-99230565D01*
X133753824Y-99233933D01*
G37*
G36*
X137196789Y-99230565D02*
G01*
X139248429Y-99230565D01*
X139248429Y-108800000D01*
X137196789Y-108800000D01*
X137196789Y-99230565D01*
G37*
G36*
X139932309Y-99230565D02*
G01*
X147452547Y-99230565D01*
X147452547Y-101279762D01*
X144717027Y-101279762D01*
X144717027Y-108800000D01*
X142667829Y-108800000D01*
X142667829Y-101279762D01*
X139932309Y-101279762D01*
X139932309Y-99230565D01*
G37*
G36*
X150180739Y-108800000D02*
G01*
X148129099Y-108800000D01*
X148129099Y-101963642D01*
X148132219Y-101824739D01*
X148141579Y-101688297D01*
X148157178Y-101554316D01*
X148179016Y-101422797D01*
X148207095Y-101293739D01*
X148241413Y-101167143D01*
X148281971Y-101043009D01*
X148328768Y-100921336D01*
X148381805Y-100802124D01*
X148441081Y-100685374D01*
X148506598Y-100571086D01*
X148578353Y-100459259D01*
X148656349Y-100349893D01*
X148740584Y-100242990D01*
X148831059Y-100138547D01*
X148927773Y-100036566D01*
X149029220Y-99938964D01*
X149133281Y-99847660D01*
X149239956Y-99762652D01*
X149349245Y-99683941D01*
X149461148Y-99611526D01*
X149575666Y-99545409D01*
X149692797Y-99485589D01*
X149812543Y-99432065D01*
X149934903Y-99384838D01*
X150059877Y-99343909D01*
X150187465Y-99309276D01*
X150317668Y-99280940D01*
X150450484Y-99258901D01*
X150585915Y-99243159D01*
X150723960Y-99233713D01*
X150864619Y-99230565D01*
X151003198Y-99233236D01*
X151138667Y-99241250D01*
X151271026Y-99254607D01*
X151400274Y-99273307D01*
X151526412Y-99297350D01*
X151649440Y-99326735D01*
X151769358Y-99361464D01*
X151886165Y-99401535D01*
X151999862Y-99446949D01*
X152110449Y-99497705D01*
X152217925Y-99553805D01*
X152322291Y-99615247D01*
X152423547Y-99682032D01*
X152521692Y-99754160D01*
X152616728Y-99831631D01*
X152708653Y-99914445D01*
X152807437Y-99831631D01*
X152909008Y-99754160D01*
X153013365Y-99682032D01*
X153120507Y-99615247D01*
X153230436Y-99553805D01*
X153343150Y-99497705D01*
X153458650Y-99446949D01*
X153576936Y-99401535D01*
X153698008Y-99361464D01*
X153821866Y-99326735D01*
X153948510Y-99297350D01*
X154077939Y-99273307D01*
X154210155Y-99254607D01*
X154345156Y-99241250D01*
X154482943Y-99233236D01*
X154623517Y-99230565D01*
X154762420Y-99233713D01*
X154898862Y-99243159D01*
X155032843Y-99258901D01*
X155164362Y-99280940D01*
X155293419Y-99309276D01*
X155420015Y-99343909D01*
X155544150Y-99384838D01*
X155665823Y-99432065D01*
X155785034Y-99485589D01*
X155901784Y-99545409D01*
X156016073Y-99611526D01*
X156127900Y-99683941D01*
X156237265Y-99762652D01*
X156344169Y-99847660D01*
X156448612Y-99938964D01*
X156550593Y-100036566D01*
X156648194Y-100138547D01*
X156739499Y-100242990D01*
X156824507Y-100349893D01*
X156903218Y-100459259D01*
X156975632Y-100571086D01*
X157041750Y-100685374D01*
X157101570Y-100802124D01*
X157155094Y-100921336D01*
X157202320Y-101043009D01*
X157243250Y-101167143D01*
X157277883Y-101293739D01*
X157306219Y-101422797D01*
X157328258Y-101554316D01*
X157344000Y-101688297D01*
X157353446Y-101824739D01*
X157356594Y-101963642D01*
X157356594Y-108800000D01*
X155280530Y-108800000D01*
X155280530Y-101963642D01*
X155272287Y-101853647D01*
X155247557Y-101748976D01*
X155206341Y-101649628D01*
X155148639Y-101555604D01*
X155074450Y-101466904D01*
X155046057Y-101438520D01*
X154971579Y-101373083D01*
X154877012Y-101309198D01*
X154776777Y-101261284D01*
X154670874Y-101229342D01*
X154559305Y-101213371D01*
X154501395Y-101211374D01*
X154401039Y-101216920D01*
X154287695Y-101238215D01*
X154182079Y-101275481D01*
X154084191Y-101328718D01*
X153994031Y-101397927D01*
X153951849Y-101438520D01*
X153877975Y-101525446D01*
X153819385Y-101617695D01*
X153776080Y-101715268D01*
X153748059Y-101818165D01*
X153735322Y-101926386D01*
X153734473Y-101963642D01*
X153734473Y-108800000D01*
X151682833Y-108800000D01*
X151682833Y-101963642D01*
X151675105Y-101853647D01*
X151651921Y-101748976D01*
X151613281Y-101649628D01*
X151559185Y-101555604D01*
X151489633Y-101466904D01*
X151463014Y-101438520D01*
X151378149Y-101361326D01*
X151286587Y-101300103D01*
X151188327Y-101254851D01*
X151083369Y-101225571D01*
X150971714Y-101212262D01*
X150933007Y-101211374D01*
X150822182Y-101219360D01*
X150716852Y-101243317D01*
X150617018Y-101283245D01*
X150522679Y-101339144D01*
X150433836Y-101411014D01*
X150405443Y-101438520D01*
X150329079Y-101525446D01*
X150268514Y-101617695D01*
X150223749Y-101715268D01*
X150194783Y-101818165D01*
X150181617Y-101926386D01*
X150180739Y-101963642D01*
X150180739Y-108800000D01*
G37*
G36*
X165555826Y-108800000D02*
G01*
X163504187Y-108800000D01*
X163504187Y-102989462D01*
X163499786Y-102860619D01*
X163486584Y-102735125D01*
X163464581Y-102612980D01*
X163433776Y-102494183D01*
X163394170Y-102378736D01*
X163345763Y-102266637D01*
X163288554Y-102157887D01*
X163222544Y-102052486D01*
X163147733Y-101950433D01*
X163064120Y-101851729D01*
X163003489Y-101787787D01*
X162908198Y-101696998D01*
X162809173Y-101615138D01*
X162706412Y-101542209D01*
X162599916Y-101478210D01*
X162489684Y-101423140D01*
X162375718Y-101377001D01*
X162258016Y-101339793D01*
X162136579Y-101311514D01*
X162011407Y-101292165D01*
X161882500Y-101281747D01*
X161794487Y-101279762D01*
X161665644Y-101284227D01*
X161540150Y-101297622D01*
X161418004Y-101319948D01*
X161299208Y-101351203D01*
X161183760Y-101391389D01*
X161071661Y-101440505D01*
X160962911Y-101498550D01*
X160857510Y-101565526D01*
X160755457Y-101641432D01*
X160656754Y-101726269D01*
X160592812Y-101787787D01*
X160502459Y-101884259D01*
X160420993Y-101984078D01*
X160348414Y-102087247D01*
X160284722Y-102193765D01*
X160229918Y-102303631D01*
X160184001Y-102416846D01*
X160146971Y-102533410D01*
X160118828Y-102653323D01*
X160099572Y-102776584D01*
X160089204Y-102903195D01*
X160087229Y-102989462D01*
X160087229Y-108800000D01*
X158035589Y-108800000D01*
X158035589Y-102989462D01*
X158039911Y-102797922D01*
X158052877Y-102609817D01*
X158074487Y-102425147D01*
X158104740Y-102243911D01*
X158143638Y-102066110D01*
X158191179Y-101891743D01*
X158247365Y-101720811D01*
X158312194Y-101553314D01*
X158385667Y-101389252D01*
X158467785Y-101228624D01*
X158558546Y-101071431D01*
X158657950Y-100917672D01*
X158765999Y-100767348D01*
X158882692Y-100620459D01*
X159008029Y-100477005D01*
X159142009Y-100336985D01*
X159282315Y-100203004D01*
X159426018Y-100077668D01*
X159573117Y-99960975D01*
X159723613Y-99852926D01*
X159877505Y-99753521D01*
X160034793Y-99662760D01*
X160195478Y-99580643D01*
X160359560Y-99507170D01*
X160527038Y-99442340D01*
X160697913Y-99386155D01*
X160872184Y-99338614D01*
X161049851Y-99299716D01*
X161230915Y-99269462D01*
X161415376Y-99247853D01*
X161603233Y-99234887D01*
X161794487Y-99230565D01*
X161987486Y-99234887D01*
X162176917Y-99247853D01*
X162362781Y-99269462D01*
X162545075Y-99299716D01*
X162723802Y-99338614D01*
X162898960Y-99386155D01*
X163070551Y-99442340D01*
X163238572Y-99507170D01*
X163403026Y-99580643D01*
X163563912Y-99662760D01*
X163721229Y-99753521D01*
X163874978Y-99852926D01*
X164025158Y-99960975D01*
X164171771Y-100077668D01*
X164314815Y-100203004D01*
X164454291Y-100336985D01*
X164587680Y-100477005D01*
X164712464Y-100620459D01*
X164828641Y-100767348D01*
X164936213Y-100917672D01*
X165035179Y-101071431D01*
X165125539Y-101228624D01*
X165207294Y-101389252D01*
X165280443Y-101553314D01*
X165344986Y-101720811D01*
X165400923Y-101891743D01*
X165448255Y-102066110D01*
X165486980Y-102243911D01*
X165517101Y-102425147D01*
X165538615Y-102609817D01*
X165551524Y-102797922D01*
X165555826Y-102989462D01*
X165555826Y-108800000D01*
G37*
G36*
X160224005Y-105724982D02*
G01*
X160228019Y-105605670D01*
X160240062Y-105489536D01*
X160260133Y-105376578D01*
X160288233Y-105266798D01*
X160324362Y-105160194D01*
X160368519Y-105056768D01*
X160420704Y-104956519D01*
X160480918Y-104859446D01*
X160549161Y-104765551D01*
X160625432Y-104674833D01*
X160680739Y-104616120D01*
X160768552Y-104533187D01*
X160859800Y-104458411D01*
X160954482Y-104391793D01*
X161052599Y-104333332D01*
X161154151Y-104283029D01*
X161259137Y-104240882D01*
X161367558Y-104206893D01*
X161479413Y-104181062D01*
X161594704Y-104163388D01*
X161713428Y-104153871D01*
X161794487Y-104152058D01*
X161913362Y-104156137D01*
X162029103Y-104168373D01*
X162141710Y-104188766D01*
X162251183Y-104217317D01*
X162357521Y-104254025D01*
X162460726Y-104298890D01*
X162560796Y-104351913D01*
X162657732Y-104413093D01*
X162751535Y-104482430D01*
X162842203Y-104559925D01*
X162900907Y-104616120D01*
X162984276Y-104704720D01*
X163059445Y-104796497D01*
X163126414Y-104891451D01*
X163185182Y-104989582D01*
X163235751Y-105090890D01*
X163278119Y-105195376D01*
X163312287Y-105303038D01*
X163338254Y-105413878D01*
X163356021Y-105527894D01*
X163365588Y-105645088D01*
X163367411Y-105724982D01*
X163363310Y-105845997D01*
X163351010Y-105963577D01*
X163330509Y-106077722D01*
X163301808Y-106188433D01*
X163264907Y-106295709D01*
X163219806Y-106399550D01*
X163166504Y-106499957D01*
X163105002Y-106596929D01*
X163035300Y-106690466D01*
X162957397Y-106780569D01*
X162900907Y-106838729D01*
X162812328Y-106920353D01*
X162720615Y-106993948D01*
X162625769Y-107059514D01*
X162527788Y-107117052D01*
X162426672Y-107166561D01*
X162322423Y-107208042D01*
X162215040Y-107241494D01*
X162104522Y-107266918D01*
X161990871Y-107284313D01*
X161874085Y-107293679D01*
X161794487Y-107295464D01*
X161673472Y-107291449D01*
X161555892Y-107279407D01*
X161441746Y-107259335D01*
X161331036Y-107231235D01*
X161223760Y-107195107D01*
X161119918Y-107150950D01*
X161019512Y-107098765D01*
X160922540Y-107038551D01*
X160829002Y-106970308D01*
X160738900Y-106894037D01*
X160680739Y-106838729D01*
X160599116Y-106750917D01*
X160525521Y-106659669D01*
X160459955Y-106564987D01*
X160402417Y-106466870D01*
X160352908Y-106365318D01*
X160311427Y-106260332D01*
X160277975Y-106151911D01*
X160252551Y-106040055D01*
X160235156Y-105924765D01*
X160225789Y-105806040D01*
X160224005Y-105724982D01*
G37*
G36*
X173752616Y-108800000D02*
G01*
X171700976Y-108800000D01*
X171700976Y-102989462D01*
X171696576Y-102860619D01*
X171683374Y-102735125D01*
X171661370Y-102612980D01*
X171630566Y-102494183D01*
X171590960Y-102378736D01*
X171542553Y-102266637D01*
X171485344Y-102157887D01*
X171419334Y-102052486D01*
X171344523Y-101950433D01*
X171260910Y-101851729D01*
X171200279Y-101787787D01*
X171104988Y-101696998D01*
X171005962Y-101615138D01*
X170903202Y-101542209D01*
X170796705Y-101478210D01*
X170686474Y-101423140D01*
X170572508Y-101377001D01*
X170454806Y-101339793D01*
X170333369Y-101311514D01*
X170208197Y-101292165D01*
X170079290Y-101281747D01*
X169991277Y-101279762D01*
X169862434Y-101284227D01*
X169736940Y-101297622D01*
X169614794Y-101319948D01*
X169495998Y-101351203D01*
X169380550Y-101391389D01*
X169268451Y-101440505D01*
X169159701Y-101498550D01*
X169054300Y-101565526D01*
X168952247Y-101641432D01*
X168853544Y-101726269D01*
X168789602Y-101787787D01*
X168699249Y-101884259D01*
X168617783Y-101984078D01*
X168545204Y-102087247D01*
X168481512Y-102193765D01*
X168426708Y-102303631D01*
X168380791Y-102416846D01*
X168343761Y-102533410D01*
X168315618Y-102653323D01*
X168296362Y-102776584D01*
X168285994Y-102903195D01*
X168284019Y-102989462D01*
X168284019Y-108800000D01*
X166232379Y-108800000D01*
X166232379Y-102989462D01*
X166236701Y-102797922D01*
X166249667Y-102609817D01*
X166271277Y-102425147D01*
X166301530Y-102243911D01*
X166340428Y-102066110D01*
X166387969Y-101891743D01*
X166444155Y-101720811D01*
X166508984Y-101553314D01*
X166582457Y-101389252D01*
X166664574Y-101228624D01*
X166755335Y-101071431D01*
X166854740Y-100917672D01*
X166962789Y-100767348D01*
X167079482Y-100620459D01*
X167204819Y-100477005D01*
X167338799Y-100336985D01*
X167479105Y-100203004D01*
X167622808Y-100077668D01*
X167769907Y-99960975D01*
X167920403Y-99852926D01*
X168074295Y-99753521D01*
X168231583Y-99662760D01*
X168392268Y-99580643D01*
X168556350Y-99507170D01*
X168723828Y-99442340D01*
X168894702Y-99386155D01*
X169068974Y-99338614D01*
X169246641Y-99299716D01*
X169427705Y-99269462D01*
X169612166Y-99247853D01*
X169800023Y-99234887D01*
X169991277Y-99230565D01*
X170184276Y-99234887D01*
X170373707Y-99247853D01*
X170559570Y-99269462D01*
X170741865Y-99299716D01*
X170920592Y-99338614D01*
X171095750Y-99386155D01*
X171267340Y-99442340D01*
X171435362Y-99507170D01*
X171599816Y-99580643D01*
X171760701Y-99662760D01*
X171918019Y-99753521D01*
X172071768Y-99852926D01*
X172221948Y-99960975D01*
X172368561Y-100077668D01*
X172511605Y-100203004D01*
X172651081Y-100336985D01*
X172784470Y-100477005D01*
X172909253Y-100620459D01*
X173025431Y-100767348D01*
X173133003Y-100917672D01*
X173231969Y-101071431D01*
X173322329Y-101228624D01*
X173404084Y-101389252D01*
X173477233Y-101553314D01*
X173541776Y-101720811D01*
X173597713Y-101891743D01*
X173645045Y-102066110D01*
X173683770Y-102243911D01*
X173713891Y-102425147D01*
X173735405Y-102609817D01*
X173748314Y-102797922D01*
X173752616Y-102989462D01*
X173752616Y-108800000D01*
G37*
G36*
X140069609Y-90127843D02*
G01*
X140664340Y-90127843D01*
X140715020Y-90127843D01*
X140733949Y-90127843D01*
X140792434Y-90135088D01*
X140841959Y-90145231D01*
X140895265Y-90165267D01*
X140935549Y-90195263D01*
X140964469Y-90237967D01*
X140983686Y-90296127D01*
X140992731Y-90351544D01*
X140997951Y-90418359D01*
X140999653Y-90469807D01*
X141000174Y-90527180D01*
X141000174Y-93481297D01*
X141000174Y-93734089D01*
X140999733Y-93791260D01*
X140998252Y-93842557D01*
X140993552Y-93909223D01*
X140985162Y-93964563D01*
X140966836Y-94022693D01*
X140938591Y-94065394D01*
X140898512Y-94095360D01*
X140844680Y-94115278D01*
X140794126Y-94125243D01*
X140733949Y-94132205D01*
X140683270Y-94138119D01*
X140664340Y-94139532D01*
X140076936Y-94139532D01*
X140076936Y-94650000D01*
X142946789Y-94650000D01*
X142946789Y-94139532D01*
X142414340Y-94139532D01*
X142364308Y-94134850D01*
X142330076Y-94132205D01*
X142271784Y-94127921D01*
X142219859Y-94122611D01*
X142153122Y-94111915D01*
X142098688Y-94096835D01*
X142043148Y-94067761D01*
X142004446Y-94025735D01*
X141979704Y-93967810D01*
X141968578Y-93912158D01*
X141962474Y-93844661D01*
X141960595Y-93792468D01*
X141960048Y-93734089D01*
X141960048Y-92348011D01*
X142708653Y-92348011D01*
X142799477Y-92350009D01*
X142882950Y-92356156D01*
X142959279Y-92366679D01*
X143028668Y-92381804D01*
X143091324Y-92401759D01*
X143147453Y-92426772D01*
X143197259Y-92457069D01*
X143240949Y-92492877D01*
X143278729Y-92534424D01*
X143310804Y-92581938D01*
X143337380Y-92635644D01*
X143358663Y-92695771D01*
X143374858Y-92762545D01*
X143386171Y-92836193D01*
X143392808Y-92916944D01*
X143394975Y-93005024D01*
X143394975Y-93243161D01*
X143843161Y-93243161D01*
X143843161Y-90926517D01*
X143380321Y-90926517D01*
X143380321Y-91178087D01*
X143380072Y-91228512D01*
X143378336Y-91279234D01*
X143374214Y-91325854D01*
X143363401Y-91397359D01*
X143349528Y-91462721D01*
X143332285Y-91522151D01*
X143311360Y-91575860D01*
X143286443Y-91624059D01*
X143257221Y-91666960D01*
X143223384Y-91704772D01*
X143184621Y-91737709D01*
X143140620Y-91765980D01*
X143091069Y-91789797D01*
X143035658Y-91809370D01*
X142974076Y-91824911D01*
X142906011Y-91836631D01*
X142831151Y-91844742D01*
X142749186Y-91849453D01*
X142659804Y-91850976D01*
X141960048Y-91850976D01*
X141960048Y-90127843D01*
X143479239Y-90127843D01*
X143558940Y-90128567D01*
X143635508Y-90130761D01*
X143709003Y-90134453D01*
X143779481Y-90139676D01*
X143847003Y-90146460D01*
X143911626Y-90154835D01*
X143973409Y-90164832D01*
X144032411Y-90176482D01*
X144088690Y-90189815D01*
X144142305Y-90204862D01*
X144193315Y-90221654D01*
X144241777Y-90240221D01*
X144287752Y-90260594D01*
X144331296Y-90282804D01*
X144411331Y-90332855D01*
X144482349Y-90390619D01*
X144544820Y-90456343D01*
X144599212Y-90530270D01*
X144645995Y-90612646D01*
X144666679Y-90657079D01*
X144685636Y-90703716D01*
X144702925Y-90752588D01*
X144718604Y-90803726D01*
X144732733Y-90857159D01*
X144745369Y-90912919D01*
X144756571Y-90971036D01*
X144766399Y-91031542D01*
X144774814Y-91081133D01*
X144781623Y-91136413D01*
X144785656Y-91191522D01*
X144787087Y-91240681D01*
X144787159Y-91255024D01*
X144794487Y-91584752D01*
X145270760Y-91584752D01*
X145270760Y-89610048D01*
X140069609Y-89610048D01*
X140069609Y-90127843D01*
G37*
G36*
X148080624Y-89474010D02*
G01*
X148229637Y-89483474D01*
X148375071Y-89499110D01*
X148516836Y-89520804D01*
X148654841Y-89548445D01*
X148788997Y-89581920D01*
X148919213Y-89621115D01*
X149045400Y-89665919D01*
X149167467Y-89716218D01*
X149285323Y-89771900D01*
X149398880Y-89832852D01*
X149508047Y-89898961D01*
X149612733Y-89970115D01*
X149712849Y-90046201D01*
X149808305Y-90127106D01*
X149899009Y-90212718D01*
X149984874Y-90302923D01*
X150065807Y-90397610D01*
X150141719Y-90496665D01*
X150212520Y-90599976D01*
X150278120Y-90707430D01*
X150338429Y-90818914D01*
X150393357Y-90934317D01*
X150442812Y-91053524D01*
X150486706Y-91176423D01*
X150524949Y-91302902D01*
X150557449Y-91432847D01*
X150584118Y-91566147D01*
X150604864Y-91702689D01*
X150619598Y-91842359D01*
X150628230Y-91985045D01*
X150630669Y-92130635D01*
X150626258Y-92274833D01*
X150615828Y-92416098D01*
X150599466Y-92554320D01*
X150577256Y-92689393D01*
X150549284Y-92821208D01*
X150515635Y-92949657D01*
X150476395Y-93074634D01*
X150431650Y-93196029D01*
X150381484Y-93313736D01*
X150325983Y-93427647D01*
X150265233Y-93537653D01*
X150199318Y-93643647D01*
X150128325Y-93745522D01*
X150052339Y-93843169D01*
X149971445Y-93936480D01*
X149885729Y-94025348D01*
X149795275Y-94109666D01*
X149700170Y-94189324D01*
X149600499Y-94264217D01*
X149496347Y-94334235D01*
X149387800Y-94399270D01*
X149274943Y-94459216D01*
X149157862Y-94513965D01*
X149036641Y-94563408D01*
X148911367Y-94607438D01*
X148782125Y-94645946D01*
X148649000Y-94678827D01*
X148512077Y-94705970D01*
X148371443Y-94727270D01*
X148227182Y-94742617D01*
X148079380Y-94751904D01*
X147928122Y-94755024D01*
X147775624Y-94751844D01*
X147626621Y-94742380D01*
X147481203Y-94726744D01*
X147339459Y-94705050D01*
X147201479Y-94677409D01*
X147067352Y-94643934D01*
X146937168Y-94604739D01*
X146811017Y-94559935D01*
X146688986Y-94509636D01*
X146571167Y-94453954D01*
X146457649Y-94393002D01*
X146348520Y-94326893D01*
X146243871Y-94255739D01*
X146143790Y-94179653D01*
X146048368Y-94098748D01*
X145957693Y-94013136D01*
X145871856Y-93922931D01*
X145790945Y-93828244D01*
X145715050Y-93729189D01*
X145644261Y-93625878D01*
X145578667Y-93518424D01*
X145518357Y-93406939D01*
X145463420Y-93291537D01*
X145413948Y-93172330D01*
X145370027Y-93049431D01*
X145331749Y-92922952D01*
X145299203Y-92793006D01*
X145272477Y-92659707D01*
X145251663Y-92523165D01*
X145236848Y-92383495D01*
X145228122Y-92240809D01*
X145226589Y-92153181D01*
X146241389Y-92153181D01*
X146242048Y-92210298D01*
X146243600Y-92266581D01*
X146246038Y-92322043D01*
X146249358Y-92376698D01*
X146253556Y-92430558D01*
X146258625Y-92483636D01*
X146264561Y-92535944D01*
X146271360Y-92587496D01*
X146279016Y-92638303D01*
X146287525Y-92688380D01*
X146296881Y-92737738D01*
X146307079Y-92786390D01*
X146318115Y-92834349D01*
X146342681Y-92928240D01*
X146370538Y-93019512D01*
X146401647Y-93108267D01*
X146435970Y-93194606D01*
X146473465Y-93278633D01*
X146514095Y-93360449D01*
X146557820Y-93440155D01*
X146604600Y-93517855D01*
X146654396Y-93593649D01*
X146715360Y-93676943D01*
X146779940Y-93754864D01*
X146847895Y-93827410D01*
X146918982Y-93894583D01*
X146992961Y-93956382D01*
X147069591Y-94012807D01*
X147148629Y-94063858D01*
X147229836Y-94109536D01*
X147312969Y-94149840D01*
X147397788Y-94184769D01*
X147484050Y-94214325D01*
X147571516Y-94238508D01*
X147659943Y-94257316D01*
X147749090Y-94270750D01*
X147838716Y-94278811D01*
X147928580Y-94281498D01*
X148018441Y-94278811D01*
X148108056Y-94270750D01*
X148197186Y-94257316D01*
X148285587Y-94238508D01*
X148373021Y-94214325D01*
X148459244Y-94184769D01*
X148544016Y-94149840D01*
X148627096Y-94109536D01*
X148708242Y-94063858D01*
X148787212Y-94012807D01*
X148863767Y-93956382D01*
X148937663Y-93894583D01*
X149008661Y-93827410D01*
X149076519Y-93754864D01*
X149140995Y-93676943D01*
X149201849Y-93593649D01*
X149251645Y-93517855D01*
X149298427Y-93440155D01*
X149342158Y-93360449D01*
X149382798Y-93278633D01*
X149420312Y-93194606D01*
X149454662Y-93108267D01*
X149485809Y-93019512D01*
X149513716Y-92928240D01*
X149538347Y-92834349D01*
X149549421Y-92786390D01*
X149559662Y-92737738D01*
X149569065Y-92688380D01*
X149577625Y-92638303D01*
X149585338Y-92587496D01*
X149592198Y-92535944D01*
X149598202Y-92483636D01*
X149603344Y-92430558D01*
X149607620Y-92376698D01*
X149611025Y-92322043D01*
X149613554Y-92266581D01*
X149615203Y-92210298D01*
X149615966Y-92153181D01*
X149615840Y-92095219D01*
X149612936Y-91969575D01*
X149605674Y-91847291D01*
X149594169Y-91728411D01*
X149578534Y-91612973D01*
X149558884Y-91501021D01*
X149535332Y-91392594D01*
X149507995Y-91287735D01*
X149476985Y-91186483D01*
X149442416Y-91088881D01*
X149404404Y-90994970D01*
X149363063Y-90904790D01*
X149318506Y-90818383D01*
X149270848Y-90735789D01*
X149220203Y-90657051D01*
X149166686Y-90582209D01*
X149110410Y-90511304D01*
X149051491Y-90444378D01*
X148990042Y-90381472D01*
X148926177Y-90322626D01*
X148860011Y-90267882D01*
X148791659Y-90217281D01*
X148721233Y-90170865D01*
X148648850Y-90128674D01*
X148574622Y-90090749D01*
X148498664Y-90057132D01*
X148421091Y-90027863D01*
X148342016Y-90002985D01*
X148261554Y-89982538D01*
X148179820Y-89966563D01*
X148096927Y-89955101D01*
X148012990Y-89948194D01*
X147928122Y-89945882D01*
X147843255Y-89948194D01*
X147759318Y-89955101D01*
X147676426Y-89966563D01*
X147594693Y-89982538D01*
X147514233Y-90002985D01*
X147435162Y-90027863D01*
X147357593Y-90057132D01*
X147281642Y-90090749D01*
X147207422Y-90128674D01*
X147135049Y-90170865D01*
X147064636Y-90217281D01*
X146996298Y-90267882D01*
X146930149Y-90322626D01*
X146866305Y-90381472D01*
X146804880Y-90444378D01*
X146745987Y-90511304D01*
X146689742Y-90582209D01*
X146636259Y-90657051D01*
X146585652Y-90735789D01*
X146538037Y-90818383D01*
X146493527Y-90904790D01*
X146452237Y-90994970D01*
X146414282Y-91088881D01*
X146379775Y-91186483D01*
X146348832Y-91287735D01*
X146321567Y-91392594D01*
X146298095Y-91501021D01*
X146278529Y-91612973D01*
X146262985Y-91728411D01*
X146251576Y-91847291D01*
X146244419Y-91969575D01*
X146241625Y-92095219D01*
X146241389Y-92153181D01*
X145226589Y-92153181D01*
X145225575Y-92095219D01*
X145229345Y-91951021D01*
X145239222Y-91809756D01*
X145255116Y-91671534D01*
X145276935Y-91536461D01*
X145304591Y-91404646D01*
X145337993Y-91276197D01*
X145377052Y-91151220D01*
X145421676Y-91029824D01*
X145471775Y-90912117D01*
X145527261Y-90798207D01*
X145588042Y-90688201D01*
X145654028Y-90582206D01*
X145725130Y-90480332D01*
X145801257Y-90382685D01*
X145882319Y-90289374D01*
X145968226Y-90200505D01*
X146058888Y-90116188D01*
X146154215Y-90036529D01*
X146254116Y-89961637D01*
X146358502Y-89891619D01*
X146467282Y-89826583D01*
X146580367Y-89766637D01*
X146697665Y-89711889D01*
X146819088Y-89662446D01*
X146944545Y-89618416D01*
X147073945Y-89579907D01*
X147207200Y-89547027D01*
X147344217Y-89519884D01*
X147484909Y-89498584D01*
X147629183Y-89483237D01*
X147776951Y-89473950D01*
X147928122Y-89470830D01*
X148080624Y-89474010D01*
G37*
G36*
X150909106Y-94650000D02*
G01*
X153233077Y-94650000D01*
X153233077Y-94139532D01*
X152644452Y-94139532D01*
X152593613Y-94137680D01*
X152537886Y-94128166D01*
X152485556Y-94101407D01*
X152449817Y-94053540D01*
X152431256Y-93996741D01*
X152422229Y-93941695D01*
X152416711Y-93874800D01*
X152414679Y-93823095D01*
X152413750Y-93765337D01*
X152413642Y-93734089D01*
X152413642Y-90646859D01*
X155431263Y-94650000D01*
X156264131Y-94650000D01*
X156264131Y-90527180D01*
X156265664Y-90477149D01*
X156271458Y-90442916D01*
X156274037Y-90389803D01*
X156278557Y-90321614D01*
X156284681Y-90266088D01*
X156296939Y-90209595D01*
X156321916Y-90163003D01*
X156371694Y-90134691D01*
X156420303Y-90127913D01*
X156483808Y-90127357D01*
X156502267Y-90127843D01*
X157062805Y-90127843D01*
X157062805Y-89610048D01*
X154962316Y-89610048D01*
X154962316Y-90127843D01*
X155549720Y-90127843D01*
X155600236Y-90135239D01*
X155626657Y-90142498D01*
X155667157Y-90173884D01*
X155694778Y-90219849D01*
X155707600Y-90271627D01*
X155710921Y-90303698D01*
X155718248Y-90442916D01*
X155718248Y-90527180D01*
X155718248Y-93432449D01*
X152841067Y-89610048D01*
X150916434Y-89610048D01*
X150916434Y-90127843D01*
X151545359Y-90127843D01*
X151580774Y-90127843D01*
X151642180Y-90136353D01*
X151693096Y-90146975D01*
X151746343Y-90166743D01*
X151792615Y-90204925D01*
X151816210Y-90250122D01*
X151830371Y-90311784D01*
X151836186Y-90370747D01*
X151838962Y-90442099D01*
X151839605Y-90497212D01*
X151839672Y-90527180D01*
X151839672Y-93734089D01*
X151839672Y-93786102D01*
X151839672Y-93837238D01*
X151839672Y-93852547D01*
X151834890Y-93912955D01*
X151827825Y-93964739D01*
X151814131Y-94021383D01*
X151788757Y-94074208D01*
X151752410Y-94109586D01*
X151703160Y-94130228D01*
X151653174Y-94137953D01*
X151608862Y-94139532D01*
X150909106Y-94139532D01*
X150909106Y-94650000D01*
G37*
G36*
X156921144Y-90127843D02*
G01*
X157103105Y-90127843D01*
X157151953Y-90127843D01*
X157218538Y-90136849D01*
X157277748Y-90148754D01*
X157331034Y-90164592D01*
X157379843Y-90185395D01*
X157425626Y-90212195D01*
X157469832Y-90246025D01*
X157513908Y-90287917D01*
X157559305Y-90338903D01*
X157591018Y-90378457D01*
X157624392Y-90422817D01*
X157659855Y-90472289D01*
X157697836Y-90527180D01*
X159014305Y-92507990D01*
X159014305Y-93467864D01*
X159014305Y-93734089D01*
X159013914Y-93793675D01*
X159012495Y-93846765D01*
X159007627Y-93915093D01*
X158998362Y-93971057D01*
X158977008Y-94028778D01*
X158942652Y-94070128D01*
X158892333Y-94098311D01*
X158842334Y-94112737D01*
X158780440Y-94122912D01*
X158705401Y-94130189D01*
X158677250Y-94132205D01*
X158628803Y-94139308D01*
X158607641Y-94139532D01*
X158075191Y-94139532D01*
X158075191Y-94650000D01*
X160890090Y-94650000D01*
X160890090Y-94139532D01*
X160357641Y-94139532D01*
X160307609Y-94134850D01*
X160273377Y-94132205D01*
X160223835Y-94128002D01*
X160159860Y-94119909D01*
X160107311Y-94108467D01*
X160053108Y-94085665D01*
X160014632Y-94051299D01*
X159989266Y-94002164D01*
X159977268Y-93953693D01*
X159970067Y-93893758D01*
X159966556Y-93821007D01*
X159965720Y-93764719D01*
X159965631Y-93734089D01*
X159965631Y-92536078D01*
X161310188Y-90527180D01*
X161338135Y-90484950D01*
X161369585Y-90443078D01*
X161379797Y-90429483D01*
X161414255Y-90384368D01*
X161446804Y-90343681D01*
X161492569Y-90290494D01*
X161535378Y-90246091D01*
X161576034Y-90209766D01*
X161628279Y-90172678D01*
X161680027Y-90147022D01*
X161733182Y-90131122D01*
X161789645Y-90123304D01*
X161835310Y-90121737D01*
X161897592Y-90127843D01*
X162086880Y-90127843D01*
X162086880Y-89610048D01*
X160106071Y-89610048D01*
X160106071Y-90121737D01*
X160588450Y-90121737D01*
X160637540Y-90126427D01*
X160659281Y-90127843D01*
X160708721Y-90138131D01*
X160757448Y-90163456D01*
X160783775Y-90206662D01*
X160781036Y-90255654D01*
X160764305Y-90296371D01*
X160742018Y-90340711D01*
X160713256Y-90389765D01*
X160683924Y-90436182D01*
X160653191Y-90483152D01*
X160623866Y-90527180D01*
X159734822Y-91905931D01*
X158838450Y-90527180D01*
X158810668Y-90483358D01*
X158780950Y-90435494D01*
X158755000Y-90391961D01*
X158729228Y-90345486D01*
X158705338Y-90296371D01*
X158687649Y-90245795D01*
X158695454Y-90191986D01*
X158733025Y-90157675D01*
X158789042Y-90137754D01*
X158839004Y-90129339D01*
X158853105Y-90127843D01*
X158903785Y-90127843D01*
X158922714Y-90127843D01*
X159391660Y-90127843D01*
X159391660Y-89610048D01*
X156921144Y-89610048D01*
X156921144Y-90127843D01*
G37*
%TO.C,Ref\u002A\u002A*%
D11*
X119444500Y-80475000D02*
X118873000Y-80475000D01*
X118873000Y-78379500D01*
X119444500Y-78379500D01*
X119444500Y-80475000D01*
G36*
X119444500Y-80475000D02*
G01*
X118873000Y-80475000D01*
X118873000Y-78379500D01*
X119444500Y-78379500D01*
X119444500Y-80475000D01*
G37*
X131136694Y-89793694D02*
X131162282Y-89794273D01*
X131162609Y-89794367D01*
X131165258Y-89815954D01*
X131169482Y-89872034D01*
X131174760Y-89954821D01*
X131180572Y-90056524D01*
X131182362Y-90089958D01*
X131197712Y-90381000D01*
X130607481Y-90381052D01*
X130420742Y-90381642D01*
X130218149Y-90383268D01*
X130012410Y-90385761D01*
X129816234Y-90388954D01*
X129642330Y-90392676D01*
X129556875Y-90395006D01*
X129096500Y-90408908D01*
X129096500Y-89816352D01*
X130127353Y-89803084D01*
X130331914Y-89800543D01*
X130523157Y-89798345D01*
X130696999Y-89796523D01*
X130849357Y-89795113D01*
X130976148Y-89794148D01*
X131073288Y-89793664D01*
X131136694Y-89793694D01*
G36*
X131136694Y-89793694D02*
G01*
X131162282Y-89794273D01*
X131162609Y-89794367D01*
X131165258Y-89815954D01*
X131169482Y-89872034D01*
X131174760Y-89954821D01*
X131180572Y-90056524D01*
X131182362Y-90089958D01*
X131197712Y-90381000D01*
X130607481Y-90381052D01*
X130420742Y-90381642D01*
X130218149Y-90383268D01*
X130012410Y-90385761D01*
X129816234Y-90388954D01*
X129642330Y-90392676D01*
X129556875Y-90395006D01*
X129096500Y-90408908D01*
X129096500Y-89816352D01*
X130127353Y-89803084D01*
X130331914Y-89800543D01*
X130523157Y-89798345D01*
X130696999Y-89796523D01*
X130849357Y-89795113D01*
X130976148Y-89794148D01*
X131073288Y-89793664D01*
X131136694Y-89793694D01*
G37*
X108967000Y-90423333D02*
X108377746Y-90423333D01*
X108192356Y-90423905D01*
X107992226Y-90425508D01*
X107789785Y-90427975D01*
X107597462Y-90431142D01*
X107427686Y-90434840D01*
X107342901Y-90437210D01*
X106897309Y-90451087D01*
X106881895Y-90183848D01*
X106876961Y-90079445D01*
X106874693Y-89988709D01*
X106875185Y-89920921D01*
X106878529Y-89885362D01*
X106878910Y-89884221D01*
X106887493Y-89874322D01*
X106907840Y-89866625D01*
X106944611Y-89860865D01*
X107002466Y-89856779D01*
X107086066Y-89854102D01*
X107200070Y-89852568D01*
X107349140Y-89851914D01*
X107449498Y-89851833D01*
X107635425Y-89851210D01*
X107840591Y-89849469D01*
X108050896Y-89846798D01*
X108252239Y-89843387D01*
X108430521Y-89839426D01*
X108487329Y-89837873D01*
X108967000Y-89823914D01*
X108967000Y-90423333D01*
G36*
X108967000Y-90423333D02*
G01*
X108377746Y-90423333D01*
X108192356Y-90423905D01*
X107992226Y-90425508D01*
X107789785Y-90427975D01*
X107597462Y-90431142D01*
X107427686Y-90434840D01*
X107342901Y-90437210D01*
X106897309Y-90451087D01*
X106881895Y-90183848D01*
X106876961Y-90079445D01*
X106874693Y-89988709D01*
X106875185Y-89920921D01*
X106878529Y-89885362D01*
X106878910Y-89884221D01*
X106887493Y-89874322D01*
X106907840Y-89866625D01*
X106944611Y-89860865D01*
X107002466Y-89856779D01*
X107086066Y-89854102D01*
X107200070Y-89852568D01*
X107349140Y-89851914D01*
X107449498Y-89851833D01*
X107635425Y-89851210D01*
X107840591Y-89849469D01*
X108050896Y-89846798D01*
X108252239Y-89843387D01*
X108430521Y-89839426D01*
X108487329Y-89837873D01*
X108967000Y-89823914D01*
X108967000Y-90423333D01*
G37*
X126904346Y-96565237D02*
X126949758Y-96605394D01*
X127018285Y-96668093D01*
X127106304Y-96749876D01*
X127210194Y-96847284D01*
X127326335Y-96956857D01*
X127451104Y-97075136D01*
X127580881Y-97198662D01*
X127712044Y-97323976D01*
X127840971Y-97447618D01*
X127964041Y-97566130D01*
X128077634Y-97676051D01*
X128178127Y-97773923D01*
X128261899Y-97856287D01*
X128325329Y-97919683D01*
X128364795Y-97960652D01*
X128376833Y-97975488D01*
X128362923Y-97997337D01*
X128325747Y-98041577D01*
X128272138Y-98101065D01*
X128208927Y-98168656D01*
X128142948Y-98237206D01*
X128081031Y-98299572D01*
X128030010Y-98348608D01*
X127996717Y-98377172D01*
X127988483Y-98381568D01*
X127968173Y-98367253D01*
X127921053Y-98326692D01*
X127850661Y-98263152D01*
X127760536Y-98179902D01*
X127654214Y-98080211D01*
X127535234Y-97967348D01*
X127407133Y-97844581D01*
X127403167Y-97840760D01*
X127266124Y-97708578D01*
X127130894Y-97577850D01*
X127002436Y-97453392D01*
X126885707Y-97340018D01*
X126785666Y-97242542D01*
X126707272Y-97165778D01*
X126663886Y-97122927D01*
X126485522Y-96945469D01*
X126673176Y-96748276D01*
X126745628Y-96674071D01*
X126809121Y-96612622D01*
X126857356Y-96569775D01*
X126884035Y-96551376D01*
X126885669Y-96551083D01*
X126904346Y-96565237D01*
G36*
X126904346Y-96565237D02*
G01*
X126949758Y-96605394D01*
X127018285Y-96668093D01*
X127106304Y-96749876D01*
X127210194Y-96847284D01*
X127326335Y-96956857D01*
X127451104Y-97075136D01*
X127580881Y-97198662D01*
X127712044Y-97323976D01*
X127840971Y-97447618D01*
X127964041Y-97566130D01*
X128077634Y-97676051D01*
X128178127Y-97773923D01*
X128261899Y-97856287D01*
X128325329Y-97919683D01*
X128364795Y-97960652D01*
X128376833Y-97975488D01*
X128362923Y-97997337D01*
X128325747Y-98041577D01*
X128272138Y-98101065D01*
X128208927Y-98168656D01*
X128142948Y-98237206D01*
X128081031Y-98299572D01*
X128030010Y-98348608D01*
X127996717Y-98377172D01*
X127988483Y-98381568D01*
X127968173Y-98367253D01*
X127921053Y-98326692D01*
X127850661Y-98263152D01*
X127760536Y-98179902D01*
X127654214Y-98080211D01*
X127535234Y-97967348D01*
X127407133Y-97844581D01*
X127403167Y-97840760D01*
X127266124Y-97708578D01*
X127130894Y-97577850D01*
X127002436Y-97453392D01*
X126885707Y-97340018D01*
X126785666Y-97242542D01*
X126707272Y-97165778D01*
X126663886Y-97122927D01*
X126485522Y-96945469D01*
X126673176Y-96748276D01*
X126745628Y-96674071D01*
X126809121Y-96612622D01*
X126857356Y-96569775D01*
X126884035Y-96551376D01*
X126885669Y-96551083D01*
X126904346Y-96565237D01*
G37*
X110311325Y-81870301D02*
X110357579Y-81911485D01*
X110426848Y-81975087D01*
X110515436Y-82057587D01*
X110619652Y-82155464D01*
X110735800Y-82265198D01*
X110860187Y-82383268D01*
X110989118Y-82506155D01*
X111118901Y-82630337D01*
X111245841Y-82752294D01*
X111366244Y-82868507D01*
X111476416Y-82975454D01*
X111572663Y-83069615D01*
X111651292Y-83147470D01*
X111706444Y-83203265D01*
X111789472Y-83288849D01*
X111600712Y-83485300D01*
X111528109Y-83559565D01*
X111464993Y-83621713D01*
X111417590Y-83665783D01*
X111392126Y-83685815D01*
X111390685Y-83686358D01*
X111371681Y-83672990D01*
X111325421Y-83632887D01*
X111254938Y-83568886D01*
X111163268Y-83483825D01*
X111053446Y-83380541D01*
X110928506Y-83261872D01*
X110791482Y-83130655D01*
X110645410Y-82989727D01*
X110639167Y-82983681D01*
X110493176Y-82841863D01*
X110356916Y-82708688D01*
X110233336Y-82587098D01*
X110125389Y-82480035D01*
X110036024Y-82390440D01*
X109968194Y-82321256D01*
X109924849Y-82275424D01*
X109908940Y-82255887D01*
X109908917Y-82255695D01*
X109922832Y-82229404D01*
X109959989Y-82181966D01*
X110013507Y-82120582D01*
X110076503Y-82052453D01*
X110142096Y-81984781D01*
X110203403Y-81924768D01*
X110253542Y-81879615D01*
X110285632Y-81856523D01*
X110291780Y-81855055D01*
X110311325Y-81870301D01*
G36*
X110311325Y-81870301D02*
G01*
X110357579Y-81911485D01*
X110426848Y-81975087D01*
X110515436Y-82057587D01*
X110619652Y-82155464D01*
X110735800Y-82265198D01*
X110860187Y-82383268D01*
X110989118Y-82506155D01*
X111118901Y-82630337D01*
X111245841Y-82752294D01*
X111366244Y-82868507D01*
X111476416Y-82975454D01*
X111572663Y-83069615D01*
X111651292Y-83147470D01*
X111706444Y-83203265D01*
X111789472Y-83288849D01*
X111600712Y-83485300D01*
X111528109Y-83559565D01*
X111464993Y-83621713D01*
X111417590Y-83665783D01*
X111392126Y-83685815D01*
X111390685Y-83686358D01*
X111371681Y-83672990D01*
X111325421Y-83632887D01*
X111254938Y-83568886D01*
X111163268Y-83483825D01*
X111053446Y-83380541D01*
X110928506Y-83261872D01*
X110791482Y-83130655D01*
X110645410Y-82989727D01*
X110639167Y-82983681D01*
X110493176Y-82841863D01*
X110356916Y-82708688D01*
X110233336Y-82587098D01*
X110125389Y-82480035D01*
X110036024Y-82390440D01*
X109968194Y-82321256D01*
X109924849Y-82275424D01*
X109908940Y-82255887D01*
X109908917Y-82255695D01*
X109922832Y-82229404D01*
X109959989Y-82181966D01*
X110013507Y-82120582D01*
X110076503Y-82052453D01*
X110142096Y-81984781D01*
X110203403Y-81924768D01*
X110253542Y-81879615D01*
X110285632Y-81856523D01*
X110291780Y-81855055D01*
X110311325Y-81870301D01*
G37*
X127540927Y-81973455D02*
X127583936Y-82010442D01*
X127641498Y-82064854D01*
X127706740Y-82129659D01*
X127772789Y-82197829D01*
X127832773Y-82262331D01*
X127879819Y-82316135D01*
X127907055Y-82352210D01*
X127911108Y-82361698D01*
X127896351Y-82379367D01*
X127854448Y-82422624D01*
X127788997Y-82488021D01*
X127703595Y-82572105D01*
X127601841Y-82671429D01*
X127487334Y-82782540D01*
X127363672Y-82901989D01*
X127234452Y-83026326D01*
X127103274Y-83152101D01*
X126973736Y-83275862D01*
X126849435Y-83394161D01*
X126733971Y-83503546D01*
X126630941Y-83600569D01*
X126543944Y-83681777D01*
X126476577Y-83743722D01*
X126432440Y-83782953D01*
X126415208Y-83796040D01*
X126394877Y-83780672D01*
X126351731Y-83740169D01*
X126291779Y-83680400D01*
X126221029Y-83607236D01*
X126208978Y-83594542D01*
X126020207Y-83395171D01*
X126081978Y-83329903D01*
X126125853Y-83285097D01*
X126193084Y-83218461D01*
X126279976Y-83133513D01*
X126382837Y-83033771D01*
X126497973Y-82922751D01*
X126621692Y-82803972D01*
X126750299Y-82680951D01*
X126880103Y-82557205D01*
X127007409Y-82436252D01*
X127128525Y-82321610D01*
X127239758Y-82216795D01*
X127337413Y-82125326D01*
X127417798Y-82050720D01*
X127477220Y-81996494D01*
X127511985Y-81966166D01*
X127519343Y-81960923D01*
X127540927Y-81973455D01*
G36*
X127540927Y-81973455D02*
G01*
X127583936Y-82010442D01*
X127641498Y-82064854D01*
X127706740Y-82129659D01*
X127772789Y-82197829D01*
X127832773Y-82262331D01*
X127879819Y-82316135D01*
X127907055Y-82352210D01*
X127911108Y-82361698D01*
X127896351Y-82379367D01*
X127854448Y-82422624D01*
X127788997Y-82488021D01*
X127703595Y-82572105D01*
X127601841Y-82671429D01*
X127487334Y-82782540D01*
X127363672Y-82901989D01*
X127234452Y-83026326D01*
X127103274Y-83152101D01*
X126973736Y-83275862D01*
X126849435Y-83394161D01*
X126733971Y-83503546D01*
X126630941Y-83600569D01*
X126543944Y-83681777D01*
X126476577Y-83743722D01*
X126432440Y-83782953D01*
X126415208Y-83796040D01*
X126394877Y-83780672D01*
X126351731Y-83740169D01*
X126291779Y-83680400D01*
X126221029Y-83607236D01*
X126208978Y-83594542D01*
X126020207Y-83395171D01*
X126081978Y-83329903D01*
X126125853Y-83285097D01*
X126193084Y-83218461D01*
X126279976Y-83133513D01*
X126382837Y-83033771D01*
X126497973Y-82922751D01*
X126621692Y-82803972D01*
X126750299Y-82680951D01*
X126880103Y-82557205D01*
X127007409Y-82436252D01*
X127128525Y-82321610D01*
X127239758Y-82216795D01*
X127337413Y-82125326D01*
X127417798Y-82050720D01*
X127477220Y-81996494D01*
X127511985Y-81966166D01*
X127519343Y-81960923D01*
X127540927Y-81973455D01*
G37*
X110866113Y-96470519D02*
X110907674Y-96509789D01*
X110963234Y-96566534D01*
X111026284Y-96633638D01*
X111090316Y-96703982D01*
X111148820Y-96770449D01*
X111195288Y-96825919D01*
X111223209Y-96863276D01*
X111228225Y-96874855D01*
X111211037Y-96894455D01*
X111166801Y-96939447D01*
X111099170Y-97006346D01*
X111011797Y-97091668D01*
X110908334Y-97191928D01*
X110792433Y-97303645D01*
X110667748Y-97423332D01*
X110537930Y-97547508D01*
X110406633Y-97672687D01*
X110277509Y-97795385D01*
X110154211Y-97912120D01*
X110040391Y-98019406D01*
X109939702Y-98113761D01*
X109855796Y-98191700D01*
X109792326Y-98249740D01*
X109752944Y-98284396D01*
X109741477Y-98292934D01*
X109717826Y-98280485D01*
X109672410Y-98242034D01*
X109611468Y-98183329D01*
X109541239Y-98110115D01*
X109531342Y-98099384D01*
X109462475Y-98023627D01*
X109405411Y-97959458D01*
X109365553Y-97913056D01*
X109348304Y-97890600D01*
X109348000Y-97889695D01*
X109362773Y-97872761D01*
X109404695Y-97830173D01*
X109470169Y-97765376D01*
X109555595Y-97681816D01*
X109657378Y-97582939D01*
X109771920Y-97472191D01*
X109895623Y-97353015D01*
X110024890Y-97228860D01*
X110156124Y-97103169D01*
X110285726Y-96979388D01*
X110410099Y-96860964D01*
X110525647Y-96751341D01*
X110628771Y-96653965D01*
X110715874Y-96572282D01*
X110783359Y-96509737D01*
X110827628Y-96469776D01*
X110845061Y-96455844D01*
X110866113Y-96470519D01*
G36*
X110866113Y-96470519D02*
G01*
X110907674Y-96509789D01*
X110963234Y-96566534D01*
X111026284Y-96633638D01*
X111090316Y-96703982D01*
X111148820Y-96770449D01*
X111195288Y-96825919D01*
X111223209Y-96863276D01*
X111228225Y-96874855D01*
X111211037Y-96894455D01*
X111166801Y-96939447D01*
X111099170Y-97006346D01*
X111011797Y-97091668D01*
X110908334Y-97191928D01*
X110792433Y-97303645D01*
X110667748Y-97423332D01*
X110537930Y-97547508D01*
X110406633Y-97672687D01*
X110277509Y-97795385D01*
X110154211Y-97912120D01*
X110040391Y-98019406D01*
X109939702Y-98113761D01*
X109855796Y-98191700D01*
X109792326Y-98249740D01*
X109752944Y-98284396D01*
X109741477Y-98292934D01*
X109717826Y-98280485D01*
X109672410Y-98242034D01*
X109611468Y-98183329D01*
X109541239Y-98110115D01*
X109531342Y-98099384D01*
X109462475Y-98023627D01*
X109405411Y-97959458D01*
X109365553Y-97913056D01*
X109348304Y-97890600D01*
X109348000Y-97889695D01*
X109362773Y-97872761D01*
X109404695Y-97830173D01*
X109470169Y-97765376D01*
X109555595Y-97681816D01*
X109657378Y-97582939D01*
X109771920Y-97472191D01*
X109895623Y-97353015D01*
X110024890Y-97228860D01*
X110156124Y-97103169D01*
X110285726Y-96979388D01*
X110410099Y-96860964D01*
X110525647Y-96751341D01*
X110628771Y-96653965D01*
X110715874Y-96572282D01*
X110783359Y-96509737D01*
X110827628Y-96469776D01*
X110845061Y-96455844D01*
X110866113Y-96470519D01*
G37*
X119203820Y-85015859D02*
X119403984Y-85023163D01*
X119583604Y-85035437D01*
X119732251Y-85052680D01*
X119740079Y-85053892D01*
X120192324Y-85145764D01*
X120628420Y-85275379D01*
X121046536Y-85441031D01*
X121444840Y-85641013D01*
X121821502Y-85873620D01*
X122174690Y-86137145D01*
X122502573Y-86429881D01*
X122803321Y-86750122D01*
X123075102Y-87096161D01*
X123316084Y-87466293D01*
X123524438Y-87858811D01*
X123698332Y-88272008D01*
X123835935Y-88704178D01*
X123889146Y-88920500D01*
X123960217Y-89325835D01*
X123997585Y-89746245D01*
X124001375Y-90172690D01*
X123971714Y-90596128D01*
X123908730Y-91007518D01*
X123856672Y-91238250D01*
X123724414Y-91673945D01*
X123554611Y-92093053D01*
X123349110Y-92493251D01*
X123109758Y-92872217D01*
X122838401Y-93227629D01*
X122536888Y-93557165D01*
X122207064Y-93858503D01*
X121850777Y-94129321D01*
X121469873Y-94367297D01*
X121292228Y-94462391D01*
X120864596Y-94657080D01*
X120427349Y-94811047D01*
X119981941Y-94923817D01*
X119762000Y-94963757D01*
X119654979Y-94976829D01*
X119516538Y-94987964D01*
X119356077Y-94996936D01*
X119182997Y-95003520D01*
X119006699Y-95007494D01*
X118836585Y-95008633D01*
X118682053Y-95006712D01*
X118552507Y-95001508D01*
X118470833Y-94994551D01*
X118005336Y-94918149D01*
X117555522Y-94803507D01*
X117123119Y-94651621D01*
X116709857Y-94463490D01*
X116317464Y-94240113D01*
X115947669Y-93982487D01*
X115602200Y-93691612D01*
X115282786Y-93368486D01*
X114991157Y-93014106D01*
X114953577Y-92963333D01*
X114703281Y-92586092D01*
X114491011Y-92193447D01*
X114316571Y-91787983D01*
X114179765Y-91372288D01*
X114080399Y-90948946D01*
X114018276Y-90520542D01*
X113993201Y-90089664D01*
X114004978Y-89658897D01*
X114053411Y-89230825D01*
X114138306Y-88808036D01*
X114259467Y-88393115D01*
X114416697Y-87988647D01*
X114609802Y-87597219D01*
X114838586Y-87221416D01*
X115102853Y-86863824D01*
X115402407Y-86527028D01*
X115443548Y-86485292D01*
X115786234Y-86171145D01*
X116152098Y-85892158D01*
X116539639Y-85649093D01*
X116947357Y-85442712D01*
X117373753Y-85273777D01*
X117817326Y-85143050D01*
X118259921Y-85053892D01*
X118406342Y-85036346D01*
X118584373Y-85023769D01*
X118783584Y-85016162D01*
X118993543Y-85013526D01*
X119203820Y-85015859D01*
G36*
X119203820Y-85015859D02*
G01*
X119403984Y-85023163D01*
X119583604Y-85035437D01*
X119732251Y-85052680D01*
X119740079Y-85053892D01*
X120192324Y-85145764D01*
X120628420Y-85275379D01*
X121046536Y-85441031D01*
X121444840Y-85641013D01*
X121821502Y-85873620D01*
X122174690Y-86137145D01*
X122502573Y-86429881D01*
X122803321Y-86750122D01*
X123075102Y-87096161D01*
X123316084Y-87466293D01*
X123524438Y-87858811D01*
X123698332Y-88272008D01*
X123835935Y-88704178D01*
X123889146Y-88920500D01*
X123960217Y-89325835D01*
X123997585Y-89746245D01*
X124001375Y-90172690D01*
X123971714Y-90596128D01*
X123908730Y-91007518D01*
X123856672Y-91238250D01*
X123724414Y-91673945D01*
X123554611Y-92093053D01*
X123349110Y-92493251D01*
X123109758Y-92872217D01*
X122838401Y-93227629D01*
X122536888Y-93557165D01*
X122207064Y-93858503D01*
X121850777Y-94129321D01*
X121469873Y-94367297D01*
X121292228Y-94462391D01*
X120864596Y-94657080D01*
X120427349Y-94811047D01*
X119981941Y-94923817D01*
X119762000Y-94963757D01*
X119654979Y-94976829D01*
X119516538Y-94987964D01*
X119356077Y-94996936D01*
X119182997Y-95003520D01*
X119006699Y-95007494D01*
X118836585Y-95008633D01*
X118682053Y-95006712D01*
X118552507Y-95001508D01*
X118470833Y-94994551D01*
X118005336Y-94918149D01*
X117555522Y-94803507D01*
X117123119Y-94651621D01*
X116709857Y-94463490D01*
X116317464Y-94240113D01*
X115947669Y-93982487D01*
X115602200Y-93691612D01*
X115282786Y-93368486D01*
X114991157Y-93014106D01*
X114953577Y-92963333D01*
X114703281Y-92586092D01*
X114491011Y-92193447D01*
X114316571Y-91787983D01*
X114179765Y-91372288D01*
X114080399Y-90948946D01*
X114018276Y-90520542D01*
X113993201Y-90089664D01*
X114004978Y-89658897D01*
X114053411Y-89230825D01*
X114138306Y-88808036D01*
X114259467Y-88393115D01*
X114416697Y-87988647D01*
X114609802Y-87597219D01*
X114838586Y-87221416D01*
X115102853Y-86863824D01*
X115402407Y-86527028D01*
X115443548Y-86485292D01*
X115786234Y-86171145D01*
X116152098Y-85892158D01*
X116539639Y-85649093D01*
X116947357Y-85442712D01*
X117373753Y-85273777D01*
X117817326Y-85143050D01*
X118259921Y-85053892D01*
X118406342Y-85036346D01*
X118584373Y-85023769D01*
X118783584Y-85016162D01*
X118993543Y-85013526D01*
X119203820Y-85015859D01*
G37*
X119647721Y-80610224D02*
X119941917Y-80635868D01*
X120575270Y-80721631D01*
X121199956Y-80847742D01*
X121813685Y-81013311D01*
X122414168Y-81217449D01*
X122999116Y-81459266D01*
X123566239Y-81737874D01*
X124113249Y-82052383D01*
X124637855Y-82401905D01*
X124806590Y-82525469D01*
X125016390Y-82685549D01*
X125202963Y-82834709D01*
X125376669Y-82981964D01*
X125547869Y-83136330D01*
X125726924Y-83306821D01*
X125890488Y-83468598D01*
X126304335Y-83907329D01*
X126680794Y-84357686D01*
X127024318Y-84825858D01*
X127339357Y-85318031D01*
X127630364Y-85840393D01*
X127711441Y-85999500D01*
X127980271Y-86584839D01*
X128209703Y-87185595D01*
X128399656Y-87801490D01*
X128550049Y-88432247D01*
X128660801Y-89077590D01*
X128698007Y-89375583D01*
X128708497Y-89500790D01*
X128716662Y-89660389D01*
X128722538Y-89846970D01*
X128726164Y-90053126D01*
X128727577Y-90271448D01*
X128726815Y-90494526D01*
X128723917Y-90714954D01*
X128718919Y-90925321D01*
X128711859Y-91118219D01*
X128702776Y-91286239D01*
X128691707Y-91421974D01*
X128687368Y-91460500D01*
X128585848Y-92120671D01*
X128447274Y-92760451D01*
X128271474Y-93380228D01*
X128058273Y-93980393D01*
X127807500Y-94561337D01*
X127518980Y-95123450D01*
X127192542Y-95667123D01*
X126828011Y-96192745D01*
X126425215Y-96700707D01*
X126299435Y-96846808D01*
X126229971Y-96923795D01*
X126144572Y-97014914D01*
X126047485Y-97115977D01*
X125942953Y-97222796D01*
X125835225Y-97331180D01*
X125728545Y-97436943D01*
X125627160Y-97535894D01*
X125535316Y-97623847D01*
X125457258Y-97696612D01*
X125397233Y-97750000D01*
X125359486Y-97779823D01*
X125348831Y-97784560D01*
X125331575Y-97767268D01*
X125288281Y-97719433D01*
X125220390Y-97642714D01*
X125129345Y-97538768D01*
X125016589Y-97409253D01*
X124883564Y-97255828D01*
X124731713Y-97080150D01*
X124562478Y-96883878D01*
X124377301Y-96668670D01*
X124319478Y-96601388D01*
X124313342Y-96588460D01*
X124316619Y-96570285D01*
X124332291Y-96543379D01*
X124363339Y-96504262D01*
X124412745Y-96449450D01*
X124483490Y-96375462D01*
X124578556Y-96278816D01*
X124700065Y-96156888D01*
X124823044Y-96031729D01*
X124948879Y-95899784D01*
X125070453Y-95768796D01*
X125180650Y-95646503D01*
X125272354Y-95540648D01*
X125320388Y-95482167D01*
X125676023Y-95001610D01*
X125993445Y-94503471D01*
X126272315Y-93988477D01*
X126512293Y-93457357D01*
X126713039Y-92910837D01*
X126874212Y-92349646D01*
X126957247Y-91979083D01*
X127052533Y-91396161D01*
X127105768Y-90812848D01*
X127117169Y-90230782D01*
X127086956Y-89651602D01*
X127015347Y-89076948D01*
X126902560Y-88508460D01*
X126748814Y-87947776D01*
X126554327Y-87396535D01*
X126319318Y-86856377D01*
X126257499Y-86729750D01*
X125979311Y-86218596D01*
X125667426Y-85731852D01*
X125323624Y-85270827D01*
X124949685Y-84836835D01*
X124547389Y-84431185D01*
X124118515Y-84055189D01*
X123664844Y-83710160D01*
X123188156Y-83397407D01*
X122690231Y-83118243D01*
X122172849Y-82873978D01*
X121637789Y-82665925D01*
X121086831Y-82495394D01*
X120521756Y-82363697D01*
X120270000Y-82318536D01*
X120078190Y-82288645D01*
X119905924Y-82265364D01*
X119743073Y-82247947D01*
X119579506Y-82235650D01*
X119405092Y-82227727D01*
X119209700Y-82223432D01*
X118983201Y-82222022D01*
X118957667Y-82222011D01*
X118727383Y-82223166D01*
X118529251Y-82227128D01*
X118353142Y-82234643D01*
X118188924Y-82246455D01*
X118026468Y-82263309D01*
X117855642Y-82285951D01*
X117666316Y-82315126D01*
X117645333Y-82318536D01*
X117075093Y-82432926D01*
X116515137Y-82587971D01*
X115967273Y-82782851D01*
X115433310Y-83016744D01*
X114915054Y-83288831D01*
X114414315Y-83598289D01*
X113932899Y-83944299D01*
X113757166Y-84083759D01*
X113634133Y-84189128D01*
X113491394Y-84319804D01*
X113336201Y-84468454D01*
X113175802Y-84627741D01*
X113017448Y-84790332D01*
X112868389Y-84948890D01*
X112735875Y-85096083D01*
X112627156Y-85224574D01*
X112616762Y-85237500D01*
X112260937Y-85715587D01*
X111942714Y-86211408D01*
X111662508Y-86723278D01*
X111420735Y-87249511D01*
X111217809Y-87788421D01*
X111054144Y-88338323D01*
X110930155Y-88897533D01*
X110846258Y-89464363D01*
X110802865Y-90037130D01*
X110800393Y-90614147D01*
X110839256Y-91193729D01*
X110919868Y-91774191D01*
X110958268Y-91978468D01*
X111093513Y-92548013D01*
X111267194Y-93100523D01*
X111479842Y-93637281D01*
X111731988Y-94159568D01*
X112024161Y-94668668D01*
X112155756Y-94874054D01*
X112314650Y-95107345D01*
X112471771Y-95321959D01*
X112634264Y-95526510D01*
X112809278Y-95729615D01*
X113003958Y-95939887D01*
X113225450Y-96165943D01*
X113236847Y-96177307D01*
X113362573Y-96302915D01*
X113460958Y-96402336D01*
X113534938Y-96478972D01*
X113587450Y-96536224D01*
X113621429Y-96577493D01*
X113639812Y-96606179D01*
X113645533Y-96625686D01*
X113641530Y-96639412D01*
X113638819Y-96642973D01*
X113618376Y-96666934D01*
X113573903Y-96719212D01*
X113508763Y-96795848D01*
X113426321Y-96892884D01*
X113329939Y-97006362D01*
X113222982Y-97132322D01*
X113128648Y-97243437D01*
X113016211Y-97375599D01*
X112912076Y-97497447D01*
X112819493Y-97605224D01*
X112741711Y-97695167D01*
X112681979Y-97763519D01*
X112643547Y-97806519D01*
X112630028Y-97820345D01*
X112606541Y-97812757D01*
X112561055Y-97782265D01*
X112502408Y-97734971D01*
X112487791Y-97722183D01*
X112016395Y-97275689D01*
X111578283Y-96803591D01*
X111174185Y-96307350D01*
X110804832Y-95788421D01*
X110470952Y-95248266D01*
X110173277Y-94688340D01*
X109912535Y-94110104D01*
X109689456Y-93515014D01*
X109504771Y-92904530D01*
X109359210Y-92280110D01*
X109253501Y-91643212D01*
X109200421Y-91153583D01*
X109184788Y-90899709D01*
X109177138Y-90615534D01*
X109177180Y-90312275D01*
X109184624Y-90001150D01*
X109199179Y-89693375D01*
X109220554Y-89400166D01*
X109248458Y-89132741D01*
X109253938Y-89089833D01*
X109356862Y-88467969D01*
X109500231Y-87854357D01*
X109682843Y-87251378D01*
X109903499Y-86661413D01*
X110160997Y-86086845D01*
X110454137Y-85530054D01*
X110781718Y-84993422D01*
X111142540Y-84479330D01*
X111535402Y-83990160D01*
X111959104Y-83528293D01*
X112156226Y-83333150D01*
X112633189Y-82903615D01*
X113133505Y-82508404D01*
X113655318Y-82148159D01*
X114196774Y-81823522D01*
X114756018Y-81535137D01*
X115331195Y-81283646D01*
X115920449Y-81069691D01*
X116521926Y-80893916D01*
X117133770Y-80756963D01*
X117754127Y-80659475D01*
X118381141Y-80602094D01*
X119012957Y-80585462D01*
X119647721Y-80610224D01*
G36*
X119647721Y-80610224D02*
G01*
X119941917Y-80635868D01*
X120575270Y-80721631D01*
X121199956Y-80847742D01*
X121813685Y-81013311D01*
X122414168Y-81217449D01*
X122999116Y-81459266D01*
X123566239Y-81737874D01*
X124113249Y-82052383D01*
X124637855Y-82401905D01*
X124806590Y-82525469D01*
X125016390Y-82685549D01*
X125202963Y-82834709D01*
X125376669Y-82981964D01*
X125547869Y-83136330D01*
X125726924Y-83306821D01*
X125890488Y-83468598D01*
X126304335Y-83907329D01*
X126680794Y-84357686D01*
X127024318Y-84825858D01*
X127339357Y-85318031D01*
X127630364Y-85840393D01*
X127711441Y-85999500D01*
X127980271Y-86584839D01*
X128209703Y-87185595D01*
X128399656Y-87801490D01*
X128550049Y-88432247D01*
X128660801Y-89077590D01*
X128698007Y-89375583D01*
X128708497Y-89500790D01*
X128716662Y-89660389D01*
X128722538Y-89846970D01*
X128726164Y-90053126D01*
X128727577Y-90271448D01*
X128726815Y-90494526D01*
X128723917Y-90714954D01*
X128718919Y-90925321D01*
X128711859Y-91118219D01*
X128702776Y-91286239D01*
X128691707Y-91421974D01*
X128687368Y-91460500D01*
X128585848Y-92120671D01*
X128447274Y-92760451D01*
X128271474Y-93380228D01*
X128058273Y-93980393D01*
X127807500Y-94561337D01*
X127518980Y-95123450D01*
X127192542Y-95667123D01*
X126828011Y-96192745D01*
X126425215Y-96700707D01*
X126299435Y-96846808D01*
X126229971Y-96923795D01*
X126144572Y-97014914D01*
X126047485Y-97115977D01*
X125942953Y-97222796D01*
X125835225Y-97331180D01*
X125728545Y-97436943D01*
X125627160Y-97535894D01*
X125535316Y-97623847D01*
X125457258Y-97696612D01*
X125397233Y-97750000D01*
X125359486Y-97779823D01*
X125348831Y-97784560D01*
X125331575Y-97767268D01*
X125288281Y-97719433D01*
X125220390Y-97642714D01*
X125129345Y-97538768D01*
X125016589Y-97409253D01*
X124883564Y-97255828D01*
X124731713Y-97080150D01*
X124562478Y-96883878D01*
X124377301Y-96668670D01*
X124319478Y-96601388D01*
X124313342Y-96588460D01*
X124316619Y-96570285D01*
X124332291Y-96543379D01*
X124363339Y-96504262D01*
X124412745Y-96449450D01*
X124483490Y-96375462D01*
X124578556Y-96278816D01*
X124700065Y-96156888D01*
X124823044Y-96031729D01*
X124948879Y-95899784D01*
X125070453Y-95768796D01*
X125180650Y-95646503D01*
X125272354Y-95540648D01*
X125320388Y-95482167D01*
X125676023Y-95001610D01*
X125993445Y-94503471D01*
X126272315Y-93988477D01*
X126512293Y-93457357D01*
X126713039Y-92910837D01*
X126874212Y-92349646D01*
X126957247Y-91979083D01*
X127052533Y-91396161D01*
X127105768Y-90812848D01*
X127117169Y-90230782D01*
X127086956Y-89651602D01*
X127015347Y-89076948D01*
X126902560Y-88508460D01*
X126748814Y-87947776D01*
X126554327Y-87396535D01*
X126319318Y-86856377D01*
X126257499Y-86729750D01*
X125979311Y-86218596D01*
X125667426Y-85731852D01*
X125323624Y-85270827D01*
X124949685Y-84836835D01*
X124547389Y-84431185D01*
X124118515Y-84055189D01*
X123664844Y-83710160D01*
X123188156Y-83397407D01*
X122690231Y-83118243D01*
X122172849Y-82873978D01*
X121637789Y-82665925D01*
X121086831Y-82495394D01*
X120521756Y-82363697D01*
X120270000Y-82318536D01*
X120078190Y-82288645D01*
X119905924Y-82265364D01*
X119743073Y-82247947D01*
X119579506Y-82235650D01*
X119405092Y-82227727D01*
X119209700Y-82223432D01*
X118983201Y-82222022D01*
X118957667Y-82222011D01*
X118727383Y-82223166D01*
X118529251Y-82227128D01*
X118353142Y-82234643D01*
X118188924Y-82246455D01*
X118026468Y-82263309D01*
X117855642Y-82285951D01*
X117666316Y-82315126D01*
X117645333Y-82318536D01*
X117075093Y-82432926D01*
X116515137Y-82587971D01*
X115967273Y-82782851D01*
X115433310Y-83016744D01*
X114915054Y-83288831D01*
X114414315Y-83598289D01*
X113932899Y-83944299D01*
X113757166Y-84083759D01*
X113634133Y-84189128D01*
X113491394Y-84319804D01*
X113336201Y-84468454D01*
X113175802Y-84627741D01*
X113017448Y-84790332D01*
X112868389Y-84948890D01*
X112735875Y-85096083D01*
X112627156Y-85224574D01*
X112616762Y-85237500D01*
X112260937Y-85715587D01*
X111942714Y-86211408D01*
X111662508Y-86723278D01*
X111420735Y-87249511D01*
X111217809Y-87788421D01*
X111054144Y-88338323D01*
X110930155Y-88897533D01*
X110846258Y-89464363D01*
X110802865Y-90037130D01*
X110800393Y-90614147D01*
X110839256Y-91193729D01*
X110919868Y-91774191D01*
X110958268Y-91978468D01*
X111093513Y-92548013D01*
X111267194Y-93100523D01*
X111479842Y-93637281D01*
X111731988Y-94159568D01*
X112024161Y-94668668D01*
X112155756Y-94874054D01*
X112314650Y-95107345D01*
X112471771Y-95321959D01*
X112634264Y-95526510D01*
X112809278Y-95729615D01*
X113003958Y-95939887D01*
X113225450Y-96165943D01*
X113236847Y-96177307D01*
X113362573Y-96302915D01*
X113460958Y-96402336D01*
X113534938Y-96478972D01*
X113587450Y-96536224D01*
X113621429Y-96577493D01*
X113639812Y-96606179D01*
X113645533Y-96625686D01*
X113641530Y-96639412D01*
X113638819Y-96642973D01*
X113618376Y-96666934D01*
X113573903Y-96719212D01*
X113508763Y-96795848D01*
X113426321Y-96892884D01*
X113329939Y-97006362D01*
X113222982Y-97132322D01*
X113128648Y-97243437D01*
X113016211Y-97375599D01*
X112912076Y-97497447D01*
X112819493Y-97605224D01*
X112741711Y-97695167D01*
X112681979Y-97763519D01*
X112643547Y-97806519D01*
X112630028Y-97820345D01*
X112606541Y-97812757D01*
X112561055Y-97782265D01*
X112502408Y-97734971D01*
X112487791Y-97722183D01*
X112016395Y-97275689D01*
X111578283Y-96803591D01*
X111174185Y-96307350D01*
X110804832Y-95788421D01*
X110470952Y-95248266D01*
X110173277Y-94688340D01*
X109912535Y-94110104D01*
X109689456Y-93515014D01*
X109504771Y-92904530D01*
X109359210Y-92280110D01*
X109253501Y-91643212D01*
X109200421Y-91153583D01*
X109184788Y-90899709D01*
X109177138Y-90615534D01*
X109177180Y-90312275D01*
X109184624Y-90001150D01*
X109199179Y-89693375D01*
X109220554Y-89400166D01*
X109248458Y-89132741D01*
X109253938Y-89089833D01*
X109356862Y-88467969D01*
X109500231Y-87854357D01*
X109682843Y-87251378D01*
X109903499Y-86661413D01*
X110160997Y-86086845D01*
X110454137Y-85530054D01*
X110781718Y-84993422D01*
X111142540Y-84479330D01*
X111535402Y-83990160D01*
X111959104Y-83528293D01*
X112156226Y-83333150D01*
X112633189Y-82903615D01*
X113133505Y-82508404D01*
X113655318Y-82148159D01*
X114196774Y-81823522D01*
X114756018Y-81535137D01*
X115331195Y-81283646D01*
X115920449Y-81069691D01*
X116521926Y-80893916D01*
X117133770Y-80756963D01*
X117754127Y-80659475D01*
X118381141Y-80602094D01*
X119012957Y-80585462D01*
X119647721Y-80610224D01*
G37*
X189507334Y-123686308D02*
X189507333Y-131375117D01*
X179770667Y-141111715D01*
X179770667Y-156002500D01*
X124250500Y-156002500D01*
X124250500Y-141111715D01*
X114513834Y-131375117D01*
X114513834Y-115997500D01*
X189507334Y-115997500D01*
X189507334Y-123686308D01*
G36*
X189507334Y-123686308D02*
G01*
X189507333Y-131375117D01*
X179770667Y-141111715D01*
X179770667Y-156002500D01*
X124250500Y-156002500D01*
X124250500Y-141111715D01*
X114513834Y-131375117D01*
X114513834Y-115997500D01*
X189507334Y-115997500D01*
X189507334Y-123686308D01*
G37*
X183408298Y-80094466D02*
X182836798Y-80094466D01*
X182836798Y-77998966D01*
X183408298Y-77998966D01*
X183408298Y-80094466D01*
G36*
X183408298Y-80094466D02*
G01*
X182836798Y-80094466D01*
X182836798Y-77998966D01*
X183408298Y-77998966D01*
X183408298Y-80094466D01*
G37*
X195100492Y-89413160D02*
X195126080Y-89413739D01*
X195126407Y-89413833D01*
X195129056Y-89435420D01*
X195133280Y-89491500D01*
X195138558Y-89574287D01*
X195144370Y-89675990D01*
X195146160Y-89709424D01*
X195161510Y-90000466D01*
X194571279Y-90000518D01*
X194384540Y-90001108D01*
X194181947Y-90002734D01*
X193976208Y-90005227D01*
X193780032Y-90008420D01*
X193606128Y-90012142D01*
X193520673Y-90014472D01*
X193060298Y-90028374D01*
X193060298Y-89435818D01*
X194091151Y-89422550D01*
X194295712Y-89420009D01*
X194486955Y-89417811D01*
X194660797Y-89415989D01*
X194813155Y-89414579D01*
X194939946Y-89413614D01*
X195037086Y-89413130D01*
X195100492Y-89413160D01*
G36*
X195100492Y-89413160D02*
G01*
X195126080Y-89413739D01*
X195126407Y-89413833D01*
X195129056Y-89435420D01*
X195133280Y-89491500D01*
X195138558Y-89574287D01*
X195144370Y-89675990D01*
X195146160Y-89709424D01*
X195161510Y-90000466D01*
X194571279Y-90000518D01*
X194384540Y-90001108D01*
X194181947Y-90002734D01*
X193976208Y-90005227D01*
X193780032Y-90008420D01*
X193606128Y-90012142D01*
X193520673Y-90014472D01*
X193060298Y-90028374D01*
X193060298Y-89435818D01*
X194091151Y-89422550D01*
X194295712Y-89420009D01*
X194486955Y-89417811D01*
X194660797Y-89415989D01*
X194813155Y-89414579D01*
X194939946Y-89413614D01*
X195037086Y-89413130D01*
X195100492Y-89413160D01*
G37*
X172930798Y-90042799D02*
X172341544Y-90042799D01*
X172156154Y-90043371D01*
X171956024Y-90044974D01*
X171753583Y-90047441D01*
X171561260Y-90050608D01*
X171391484Y-90054306D01*
X171306699Y-90056676D01*
X170861107Y-90070553D01*
X170845693Y-89803314D01*
X170840759Y-89698911D01*
X170838491Y-89608175D01*
X170838983Y-89540387D01*
X170842327Y-89504828D01*
X170842708Y-89503687D01*
X170851291Y-89493788D01*
X170871638Y-89486091D01*
X170908409Y-89480331D01*
X170966264Y-89476245D01*
X171049864Y-89473568D01*
X171163868Y-89472034D01*
X171312938Y-89471380D01*
X171413296Y-89471299D01*
X171599223Y-89470676D01*
X171804389Y-89468935D01*
X172014694Y-89466264D01*
X172216037Y-89462853D01*
X172394319Y-89458892D01*
X172451127Y-89457339D01*
X172930798Y-89443380D01*
X172930798Y-90042799D01*
G36*
X172930798Y-90042799D02*
G01*
X172341544Y-90042799D01*
X172156154Y-90043371D01*
X171956024Y-90044974D01*
X171753583Y-90047441D01*
X171561260Y-90050608D01*
X171391484Y-90054306D01*
X171306699Y-90056676D01*
X170861107Y-90070553D01*
X170845693Y-89803314D01*
X170840759Y-89698911D01*
X170838491Y-89608175D01*
X170838983Y-89540387D01*
X170842327Y-89504828D01*
X170842708Y-89503687D01*
X170851291Y-89493788D01*
X170871638Y-89486091D01*
X170908409Y-89480331D01*
X170966264Y-89476245D01*
X171049864Y-89473568D01*
X171163868Y-89472034D01*
X171312938Y-89471380D01*
X171413296Y-89471299D01*
X171599223Y-89470676D01*
X171804389Y-89468935D01*
X172014694Y-89466264D01*
X172216037Y-89462853D01*
X172394319Y-89458892D01*
X172451127Y-89457339D01*
X172930798Y-89443380D01*
X172930798Y-90042799D01*
G37*
X190868144Y-96184703D02*
X190913556Y-96224860D01*
X190982083Y-96287559D01*
X191070102Y-96369342D01*
X191173992Y-96466750D01*
X191290133Y-96576323D01*
X191414902Y-96694602D01*
X191544679Y-96818128D01*
X191675842Y-96943442D01*
X191804769Y-97067084D01*
X191927839Y-97185596D01*
X192041432Y-97295517D01*
X192141925Y-97393389D01*
X192225697Y-97475753D01*
X192289127Y-97539149D01*
X192328593Y-97580118D01*
X192340631Y-97594954D01*
X192326721Y-97616803D01*
X192289545Y-97661043D01*
X192235936Y-97720531D01*
X192172725Y-97788122D01*
X192106746Y-97856672D01*
X192044829Y-97919038D01*
X191993808Y-97968074D01*
X191960515Y-97996638D01*
X191952281Y-98001034D01*
X191931971Y-97986719D01*
X191884851Y-97946158D01*
X191814459Y-97882618D01*
X191724334Y-97799368D01*
X191618012Y-97699677D01*
X191499032Y-97586814D01*
X191370931Y-97464047D01*
X191366965Y-97460226D01*
X191229922Y-97328044D01*
X191094692Y-97197316D01*
X190966234Y-97072858D01*
X190849505Y-96959484D01*
X190749464Y-96862008D01*
X190671070Y-96785244D01*
X190627684Y-96742393D01*
X190449320Y-96564935D01*
X190636974Y-96367742D01*
X190709426Y-96293537D01*
X190772919Y-96232088D01*
X190821154Y-96189241D01*
X190847833Y-96170842D01*
X190849467Y-96170549D01*
X190868144Y-96184703D01*
G36*
X190868144Y-96184703D02*
G01*
X190913556Y-96224860D01*
X190982083Y-96287559D01*
X191070102Y-96369342D01*
X191173992Y-96466750D01*
X191290133Y-96576323D01*
X191414902Y-96694602D01*
X191544679Y-96818128D01*
X191675842Y-96943442D01*
X191804769Y-97067084D01*
X191927839Y-97185596D01*
X192041432Y-97295517D01*
X192141925Y-97393389D01*
X192225697Y-97475753D01*
X192289127Y-97539149D01*
X192328593Y-97580118D01*
X192340631Y-97594954D01*
X192326721Y-97616803D01*
X192289545Y-97661043D01*
X192235936Y-97720531D01*
X192172725Y-97788122D01*
X192106746Y-97856672D01*
X192044829Y-97919038D01*
X191993808Y-97968074D01*
X191960515Y-97996638D01*
X191952281Y-98001034D01*
X191931971Y-97986719D01*
X191884851Y-97946158D01*
X191814459Y-97882618D01*
X191724334Y-97799368D01*
X191618012Y-97699677D01*
X191499032Y-97586814D01*
X191370931Y-97464047D01*
X191366965Y-97460226D01*
X191229922Y-97328044D01*
X191094692Y-97197316D01*
X190966234Y-97072858D01*
X190849505Y-96959484D01*
X190749464Y-96862008D01*
X190671070Y-96785244D01*
X190627684Y-96742393D01*
X190449320Y-96564935D01*
X190636974Y-96367742D01*
X190709426Y-96293537D01*
X190772919Y-96232088D01*
X190821154Y-96189241D01*
X190847833Y-96170842D01*
X190849467Y-96170549D01*
X190868144Y-96184703D01*
G37*
X174275123Y-81489767D02*
X174321377Y-81530951D01*
X174390646Y-81594553D01*
X174479234Y-81677053D01*
X174583450Y-81774930D01*
X174699598Y-81884664D01*
X174823985Y-82002734D01*
X174952916Y-82125621D01*
X175082699Y-82249803D01*
X175209639Y-82371760D01*
X175330042Y-82487973D01*
X175440214Y-82594920D01*
X175536461Y-82689081D01*
X175615090Y-82766936D01*
X175670242Y-82822731D01*
X175753270Y-82908315D01*
X175564510Y-83104766D01*
X175491907Y-83179031D01*
X175428791Y-83241179D01*
X175381388Y-83285249D01*
X175355924Y-83305281D01*
X175354483Y-83305824D01*
X175335479Y-83292456D01*
X175289219Y-83252353D01*
X175218736Y-83188352D01*
X175127066Y-83103291D01*
X175017244Y-83000007D01*
X174892304Y-82881338D01*
X174755280Y-82750121D01*
X174609208Y-82609193D01*
X174602965Y-82603147D01*
X174456974Y-82461329D01*
X174320714Y-82328154D01*
X174197134Y-82206564D01*
X174089187Y-82099501D01*
X173999822Y-82009906D01*
X173931992Y-81940722D01*
X173888647Y-81894890D01*
X173872738Y-81875353D01*
X173872715Y-81875161D01*
X173886630Y-81848870D01*
X173923787Y-81801432D01*
X173977305Y-81740048D01*
X174040301Y-81671919D01*
X174105894Y-81604247D01*
X174167201Y-81544234D01*
X174217340Y-81499081D01*
X174249430Y-81475989D01*
X174255578Y-81474521D01*
X174275123Y-81489767D01*
G36*
X174275123Y-81489767D02*
G01*
X174321377Y-81530951D01*
X174390646Y-81594553D01*
X174479234Y-81677053D01*
X174583450Y-81774930D01*
X174699598Y-81884664D01*
X174823985Y-82002734D01*
X174952916Y-82125621D01*
X175082699Y-82249803D01*
X175209639Y-82371760D01*
X175330042Y-82487973D01*
X175440214Y-82594920D01*
X175536461Y-82689081D01*
X175615090Y-82766936D01*
X175670242Y-82822731D01*
X175753270Y-82908315D01*
X175564510Y-83104766D01*
X175491907Y-83179031D01*
X175428791Y-83241179D01*
X175381388Y-83285249D01*
X175355924Y-83305281D01*
X175354483Y-83305824D01*
X175335479Y-83292456D01*
X175289219Y-83252353D01*
X175218736Y-83188352D01*
X175127066Y-83103291D01*
X175017244Y-83000007D01*
X174892304Y-82881338D01*
X174755280Y-82750121D01*
X174609208Y-82609193D01*
X174602965Y-82603147D01*
X174456974Y-82461329D01*
X174320714Y-82328154D01*
X174197134Y-82206564D01*
X174089187Y-82099501D01*
X173999822Y-82009906D01*
X173931992Y-81940722D01*
X173888647Y-81894890D01*
X173872738Y-81875353D01*
X173872715Y-81875161D01*
X173886630Y-81848870D01*
X173923787Y-81801432D01*
X173977305Y-81740048D01*
X174040301Y-81671919D01*
X174105894Y-81604247D01*
X174167201Y-81544234D01*
X174217340Y-81499081D01*
X174249430Y-81475989D01*
X174255578Y-81474521D01*
X174275123Y-81489767D01*
G37*
X191504725Y-81592921D02*
X191547734Y-81629908D01*
X191605296Y-81684320D01*
X191670538Y-81749125D01*
X191736587Y-81817295D01*
X191796571Y-81881797D01*
X191843617Y-81935601D01*
X191870853Y-81971676D01*
X191874906Y-81981164D01*
X191860149Y-81998833D01*
X191818246Y-82042090D01*
X191752795Y-82107487D01*
X191667393Y-82191571D01*
X191565639Y-82290895D01*
X191451132Y-82402006D01*
X191327470Y-82521455D01*
X191198250Y-82645792D01*
X191067072Y-82771567D01*
X190937534Y-82895328D01*
X190813233Y-83013627D01*
X190697769Y-83123012D01*
X190594739Y-83220035D01*
X190507742Y-83301243D01*
X190440375Y-83363188D01*
X190396238Y-83402419D01*
X190379006Y-83415506D01*
X190358675Y-83400138D01*
X190315529Y-83359635D01*
X190255577Y-83299866D01*
X190184827Y-83226702D01*
X190172776Y-83214008D01*
X189984005Y-83014637D01*
X190045776Y-82949369D01*
X190089651Y-82904563D01*
X190156882Y-82837927D01*
X190243774Y-82752979D01*
X190346635Y-82653237D01*
X190461771Y-82542217D01*
X190585490Y-82423438D01*
X190714097Y-82300417D01*
X190843901Y-82176671D01*
X190971207Y-82055718D01*
X191092323Y-81941076D01*
X191203556Y-81836261D01*
X191301211Y-81744792D01*
X191381596Y-81670186D01*
X191441018Y-81615960D01*
X191475783Y-81585632D01*
X191483141Y-81580389D01*
X191504725Y-81592921D01*
G36*
X191504725Y-81592921D02*
G01*
X191547734Y-81629908D01*
X191605296Y-81684320D01*
X191670538Y-81749125D01*
X191736587Y-81817295D01*
X191796571Y-81881797D01*
X191843617Y-81935601D01*
X191870853Y-81971676D01*
X191874906Y-81981164D01*
X191860149Y-81998833D01*
X191818246Y-82042090D01*
X191752795Y-82107487D01*
X191667393Y-82191571D01*
X191565639Y-82290895D01*
X191451132Y-82402006D01*
X191327470Y-82521455D01*
X191198250Y-82645792D01*
X191067072Y-82771567D01*
X190937534Y-82895328D01*
X190813233Y-83013627D01*
X190697769Y-83123012D01*
X190594739Y-83220035D01*
X190507742Y-83301243D01*
X190440375Y-83363188D01*
X190396238Y-83402419D01*
X190379006Y-83415506D01*
X190358675Y-83400138D01*
X190315529Y-83359635D01*
X190255577Y-83299866D01*
X190184827Y-83226702D01*
X190172776Y-83214008D01*
X189984005Y-83014637D01*
X190045776Y-82949369D01*
X190089651Y-82904563D01*
X190156882Y-82837927D01*
X190243774Y-82752979D01*
X190346635Y-82653237D01*
X190461771Y-82542217D01*
X190585490Y-82423438D01*
X190714097Y-82300417D01*
X190843901Y-82176671D01*
X190971207Y-82055718D01*
X191092323Y-81941076D01*
X191203556Y-81836261D01*
X191301211Y-81744792D01*
X191381596Y-81670186D01*
X191441018Y-81615960D01*
X191475783Y-81585632D01*
X191483141Y-81580389D01*
X191504725Y-81592921D01*
G37*
X174829911Y-96089985D02*
X174871472Y-96129255D01*
X174927032Y-96186000D01*
X174990082Y-96253104D01*
X175054114Y-96323448D01*
X175112618Y-96389915D01*
X175159086Y-96445385D01*
X175187007Y-96482742D01*
X175192023Y-96494321D01*
X175174835Y-96513921D01*
X175130599Y-96558913D01*
X175062968Y-96625812D01*
X174975595Y-96711134D01*
X174872132Y-96811394D01*
X174756231Y-96923111D01*
X174631546Y-97042798D01*
X174501728Y-97166974D01*
X174370431Y-97292153D01*
X174241307Y-97414851D01*
X174118009Y-97531586D01*
X174004189Y-97638872D01*
X173903500Y-97733227D01*
X173819594Y-97811166D01*
X173756124Y-97869206D01*
X173716742Y-97903862D01*
X173705275Y-97912400D01*
X173681624Y-97899951D01*
X173636208Y-97861500D01*
X173575266Y-97802795D01*
X173505037Y-97729581D01*
X173495140Y-97718850D01*
X173426273Y-97643093D01*
X173369209Y-97578924D01*
X173329351Y-97532522D01*
X173312102Y-97510066D01*
X173311798Y-97509161D01*
X173326571Y-97492227D01*
X173368493Y-97449639D01*
X173433967Y-97384842D01*
X173519393Y-97301282D01*
X173621176Y-97202405D01*
X173735718Y-97091657D01*
X173859421Y-96972481D01*
X173988688Y-96848326D01*
X174119922Y-96722635D01*
X174249524Y-96598854D01*
X174373897Y-96480430D01*
X174489445Y-96370807D01*
X174592569Y-96273431D01*
X174679672Y-96191748D01*
X174747157Y-96129203D01*
X174791426Y-96089242D01*
X174808859Y-96075310D01*
X174829911Y-96089985D01*
G36*
X174829911Y-96089985D02*
G01*
X174871472Y-96129255D01*
X174927032Y-96186000D01*
X174990082Y-96253104D01*
X175054114Y-96323448D01*
X175112618Y-96389915D01*
X175159086Y-96445385D01*
X175187007Y-96482742D01*
X175192023Y-96494321D01*
X175174835Y-96513921D01*
X175130599Y-96558913D01*
X175062968Y-96625812D01*
X174975595Y-96711134D01*
X174872132Y-96811394D01*
X174756231Y-96923111D01*
X174631546Y-97042798D01*
X174501728Y-97166974D01*
X174370431Y-97292153D01*
X174241307Y-97414851D01*
X174118009Y-97531586D01*
X174004189Y-97638872D01*
X173903500Y-97733227D01*
X173819594Y-97811166D01*
X173756124Y-97869206D01*
X173716742Y-97903862D01*
X173705275Y-97912400D01*
X173681624Y-97899951D01*
X173636208Y-97861500D01*
X173575266Y-97802795D01*
X173505037Y-97729581D01*
X173495140Y-97718850D01*
X173426273Y-97643093D01*
X173369209Y-97578924D01*
X173329351Y-97532522D01*
X173312102Y-97510066D01*
X173311798Y-97509161D01*
X173326571Y-97492227D01*
X173368493Y-97449639D01*
X173433967Y-97384842D01*
X173519393Y-97301282D01*
X173621176Y-97202405D01*
X173735718Y-97091657D01*
X173859421Y-96972481D01*
X173988688Y-96848326D01*
X174119922Y-96722635D01*
X174249524Y-96598854D01*
X174373897Y-96480430D01*
X174489445Y-96370807D01*
X174592569Y-96273431D01*
X174679672Y-96191748D01*
X174747157Y-96129203D01*
X174791426Y-96089242D01*
X174808859Y-96075310D01*
X174829911Y-96089985D01*
G37*
X183167618Y-84635325D02*
X183367782Y-84642629D01*
X183547402Y-84654903D01*
X183696049Y-84672146D01*
X183703877Y-84673358D01*
X184156122Y-84765230D01*
X184592218Y-84894845D01*
X185010334Y-85060497D01*
X185408638Y-85260479D01*
X185785300Y-85493086D01*
X186138488Y-85756611D01*
X186466371Y-86049347D01*
X186767119Y-86369588D01*
X187038900Y-86715627D01*
X187279882Y-87085759D01*
X187488236Y-87478277D01*
X187662130Y-87891474D01*
X187799733Y-88323644D01*
X187852944Y-88539966D01*
X187924015Y-88945301D01*
X187961383Y-89365711D01*
X187965173Y-89792156D01*
X187935512Y-90215594D01*
X187872528Y-90626984D01*
X187820470Y-90857716D01*
X187688212Y-91293411D01*
X187518409Y-91712519D01*
X187312908Y-92112717D01*
X187073556Y-92491683D01*
X186802199Y-92847095D01*
X186500686Y-93176631D01*
X186170862Y-93477969D01*
X185814575Y-93748787D01*
X185433671Y-93986763D01*
X185256026Y-94081857D01*
X184828394Y-94276546D01*
X184391147Y-94430513D01*
X183945739Y-94543283D01*
X183725798Y-94583223D01*
X183618777Y-94596295D01*
X183480336Y-94607430D01*
X183319875Y-94616402D01*
X183146795Y-94622986D01*
X182970497Y-94626960D01*
X182800383Y-94628099D01*
X182645851Y-94626178D01*
X182516305Y-94620974D01*
X182434631Y-94614017D01*
X181969134Y-94537615D01*
X181519320Y-94422973D01*
X181086917Y-94271087D01*
X180673655Y-94082956D01*
X180281262Y-93859579D01*
X179911467Y-93601953D01*
X179565998Y-93311078D01*
X179246584Y-92987952D01*
X178954955Y-92633572D01*
X178917375Y-92582799D01*
X178667079Y-92205558D01*
X178454809Y-91812913D01*
X178280369Y-91407449D01*
X178143563Y-90991754D01*
X178044197Y-90568412D01*
X177982074Y-90140008D01*
X177956999Y-89709130D01*
X177968776Y-89278363D01*
X178017209Y-88850291D01*
X178102104Y-88427502D01*
X178223265Y-88012581D01*
X178380495Y-87608113D01*
X178573600Y-87216685D01*
X178802384Y-86840882D01*
X179066651Y-86483290D01*
X179366205Y-86146494D01*
X179407346Y-86104758D01*
X179750032Y-85790611D01*
X180115896Y-85511624D01*
X180503437Y-85268559D01*
X180911155Y-85062178D01*
X181337551Y-84893243D01*
X181781124Y-84762516D01*
X182223719Y-84673358D01*
X182370140Y-84655812D01*
X182548171Y-84643235D01*
X182747382Y-84635628D01*
X182957341Y-84632992D01*
X183167618Y-84635325D01*
G36*
X183167618Y-84635325D02*
G01*
X183367782Y-84642629D01*
X183547402Y-84654903D01*
X183696049Y-84672146D01*
X183703877Y-84673358D01*
X184156122Y-84765230D01*
X184592218Y-84894845D01*
X185010334Y-85060497D01*
X185408638Y-85260479D01*
X185785300Y-85493086D01*
X186138488Y-85756611D01*
X186466371Y-86049347D01*
X186767119Y-86369588D01*
X187038900Y-86715627D01*
X187279882Y-87085759D01*
X187488236Y-87478277D01*
X187662130Y-87891474D01*
X187799733Y-88323644D01*
X187852944Y-88539966D01*
X187924015Y-88945301D01*
X187961383Y-89365711D01*
X187965173Y-89792156D01*
X187935512Y-90215594D01*
X187872528Y-90626984D01*
X187820470Y-90857716D01*
X187688212Y-91293411D01*
X187518409Y-91712519D01*
X187312908Y-92112717D01*
X187073556Y-92491683D01*
X186802199Y-92847095D01*
X186500686Y-93176631D01*
X186170862Y-93477969D01*
X185814575Y-93748787D01*
X185433671Y-93986763D01*
X185256026Y-94081857D01*
X184828394Y-94276546D01*
X184391147Y-94430513D01*
X183945739Y-94543283D01*
X183725798Y-94583223D01*
X183618777Y-94596295D01*
X183480336Y-94607430D01*
X183319875Y-94616402D01*
X183146795Y-94622986D01*
X182970497Y-94626960D01*
X182800383Y-94628099D01*
X182645851Y-94626178D01*
X182516305Y-94620974D01*
X182434631Y-94614017D01*
X181969134Y-94537615D01*
X181519320Y-94422973D01*
X181086917Y-94271087D01*
X180673655Y-94082956D01*
X180281262Y-93859579D01*
X179911467Y-93601953D01*
X179565998Y-93311078D01*
X179246584Y-92987952D01*
X178954955Y-92633572D01*
X178917375Y-92582799D01*
X178667079Y-92205558D01*
X178454809Y-91812913D01*
X178280369Y-91407449D01*
X178143563Y-90991754D01*
X178044197Y-90568412D01*
X177982074Y-90140008D01*
X177956999Y-89709130D01*
X177968776Y-89278363D01*
X178017209Y-88850291D01*
X178102104Y-88427502D01*
X178223265Y-88012581D01*
X178380495Y-87608113D01*
X178573600Y-87216685D01*
X178802384Y-86840882D01*
X179066651Y-86483290D01*
X179366205Y-86146494D01*
X179407346Y-86104758D01*
X179750032Y-85790611D01*
X180115896Y-85511624D01*
X180503437Y-85268559D01*
X180911155Y-85062178D01*
X181337551Y-84893243D01*
X181781124Y-84762516D01*
X182223719Y-84673358D01*
X182370140Y-84655812D01*
X182548171Y-84643235D01*
X182747382Y-84635628D01*
X182957341Y-84632992D01*
X183167618Y-84635325D01*
G37*
X183611519Y-80229690D02*
X183905715Y-80255334D01*
X184539068Y-80341097D01*
X185163754Y-80467208D01*
X185777483Y-80632777D01*
X186377966Y-80836915D01*
X186962914Y-81078732D01*
X187530037Y-81357340D01*
X188077047Y-81671849D01*
X188601653Y-82021371D01*
X188770388Y-82144935D01*
X188980188Y-82305015D01*
X189166761Y-82454175D01*
X189340467Y-82601430D01*
X189511667Y-82755796D01*
X189690722Y-82926287D01*
X189854286Y-83088064D01*
X190268133Y-83526795D01*
X190644592Y-83977152D01*
X190988116Y-84445324D01*
X191303155Y-84937497D01*
X191594162Y-85459859D01*
X191675239Y-85618966D01*
X191944069Y-86204305D01*
X192173501Y-86805061D01*
X192363454Y-87420956D01*
X192513847Y-88051713D01*
X192624599Y-88697056D01*
X192661805Y-88995049D01*
X192672295Y-89120256D01*
X192680460Y-89279855D01*
X192686336Y-89466436D01*
X192689962Y-89672592D01*
X192691375Y-89890914D01*
X192690613Y-90113992D01*
X192687715Y-90334420D01*
X192682717Y-90544787D01*
X192675657Y-90737685D01*
X192666574Y-90905705D01*
X192655505Y-91041440D01*
X192651166Y-91079966D01*
X192549646Y-91740137D01*
X192411072Y-92379917D01*
X192235272Y-92999694D01*
X192022071Y-93599859D01*
X191771298Y-94180803D01*
X191482778Y-94742916D01*
X191156340Y-95286589D01*
X190791809Y-95812211D01*
X190389013Y-96320173D01*
X190263233Y-96466274D01*
X190193769Y-96543261D01*
X190108370Y-96634380D01*
X190011283Y-96735443D01*
X189906751Y-96842262D01*
X189799023Y-96950646D01*
X189692343Y-97056409D01*
X189590958Y-97155360D01*
X189499114Y-97243313D01*
X189421056Y-97316078D01*
X189361031Y-97369466D01*
X189323284Y-97399289D01*
X189312629Y-97404026D01*
X189295373Y-97386734D01*
X189252079Y-97338899D01*
X189184188Y-97262180D01*
X189093143Y-97158234D01*
X188980387Y-97028719D01*
X188847362Y-96875294D01*
X188695511Y-96699616D01*
X188526276Y-96503344D01*
X188341099Y-96288136D01*
X188283276Y-96220854D01*
X188277140Y-96207926D01*
X188280417Y-96189751D01*
X188296089Y-96162845D01*
X188327137Y-96123728D01*
X188376543Y-96068916D01*
X188447288Y-95994928D01*
X188542354Y-95898282D01*
X188663863Y-95776354D01*
X188786842Y-95651195D01*
X188912677Y-95519250D01*
X189034251Y-95388262D01*
X189144448Y-95265969D01*
X189236152Y-95160114D01*
X189284186Y-95101633D01*
X189639821Y-94621076D01*
X189957243Y-94122937D01*
X190236113Y-93607943D01*
X190476091Y-93076823D01*
X190676837Y-92530303D01*
X190838010Y-91969112D01*
X190921045Y-91598549D01*
X191016331Y-91015627D01*
X191069566Y-90432314D01*
X191080967Y-89850248D01*
X191050754Y-89271068D01*
X190979145Y-88696414D01*
X190866358Y-88127926D01*
X190712612Y-87567242D01*
X190518125Y-87016001D01*
X190283116Y-86475843D01*
X190221297Y-86349216D01*
X189943109Y-85838062D01*
X189631224Y-85351318D01*
X189287422Y-84890293D01*
X188913483Y-84456301D01*
X188511187Y-84050651D01*
X188082313Y-83674655D01*
X187628642Y-83329626D01*
X187151954Y-83016873D01*
X186654029Y-82737709D01*
X186136647Y-82493444D01*
X185601587Y-82285391D01*
X185050629Y-82114860D01*
X184485554Y-81983163D01*
X184233798Y-81938002D01*
X184041988Y-81908111D01*
X183869722Y-81884830D01*
X183706871Y-81867413D01*
X183543304Y-81855116D01*
X183368890Y-81847193D01*
X183173498Y-81842898D01*
X182946999Y-81841488D01*
X182921465Y-81841477D01*
X182691181Y-81842632D01*
X182493049Y-81846594D01*
X182316940Y-81854109D01*
X182152722Y-81865921D01*
X181990266Y-81882775D01*
X181819440Y-81905417D01*
X181630114Y-81934592D01*
X181609131Y-81938002D01*
X181038891Y-82052392D01*
X180478935Y-82207437D01*
X179931071Y-82402317D01*
X179397108Y-82636210D01*
X178878852Y-82908297D01*
X178378113Y-83217755D01*
X177896697Y-83563765D01*
X177720964Y-83703225D01*
X177597931Y-83808594D01*
X177455192Y-83939270D01*
X177299999Y-84087920D01*
X177139600Y-84247207D01*
X176981246Y-84409798D01*
X176832187Y-84568356D01*
X176699673Y-84715549D01*
X176590954Y-84844040D01*
X176580560Y-84856966D01*
X176224735Y-85335053D01*
X175906512Y-85830874D01*
X175626306Y-86342744D01*
X175384533Y-86868977D01*
X175181607Y-87407887D01*
X175017942Y-87957789D01*
X174893953Y-88516999D01*
X174810056Y-89083829D01*
X174766663Y-89656596D01*
X174764191Y-90233613D01*
X174803054Y-90813195D01*
X174883666Y-91393657D01*
X174922066Y-91597934D01*
X175057311Y-92167479D01*
X175230992Y-92719989D01*
X175443640Y-93256747D01*
X175695786Y-93779034D01*
X175987959Y-94288134D01*
X176119554Y-94493520D01*
X176278448Y-94726811D01*
X176435569Y-94941425D01*
X176598062Y-95145976D01*
X176773076Y-95349081D01*
X176967756Y-95559353D01*
X177189248Y-95785409D01*
X177200645Y-95796773D01*
X177326371Y-95922381D01*
X177424756Y-96021802D01*
X177498736Y-96098438D01*
X177551248Y-96155690D01*
X177585227Y-96196959D01*
X177603610Y-96225645D01*
X177609331Y-96245152D01*
X177605328Y-96258878D01*
X177602617Y-96262439D01*
X177582174Y-96286400D01*
X177537701Y-96338678D01*
X177472561Y-96415314D01*
X177390119Y-96512350D01*
X177293737Y-96625828D01*
X177186780Y-96751788D01*
X177092446Y-96862903D01*
X176980009Y-96995065D01*
X176875874Y-97116913D01*
X176783291Y-97224690D01*
X176705509Y-97314633D01*
X176645777Y-97382985D01*
X176607345Y-97425985D01*
X176593826Y-97439811D01*
X176570339Y-97432223D01*
X176524853Y-97401731D01*
X176466206Y-97354437D01*
X176451589Y-97341649D01*
X175980193Y-96895155D01*
X175542081Y-96423057D01*
X175137983Y-95926816D01*
X174768630Y-95407887D01*
X174434750Y-94867732D01*
X174137075Y-94307806D01*
X173876333Y-93729570D01*
X173653254Y-93134480D01*
X173468569Y-92523996D01*
X173323008Y-91899576D01*
X173217299Y-91262678D01*
X173164219Y-90773049D01*
X173148586Y-90519175D01*
X173140936Y-90235000D01*
X173140978Y-89931741D01*
X173148422Y-89620616D01*
X173162977Y-89312841D01*
X173184352Y-89019632D01*
X173212256Y-88752207D01*
X173217736Y-88709299D01*
X173320660Y-88087435D01*
X173464029Y-87473823D01*
X173646641Y-86870844D01*
X173867297Y-86280879D01*
X174124795Y-85706311D01*
X174417935Y-85149520D01*
X174745516Y-84612888D01*
X175106338Y-84098796D01*
X175499200Y-83609626D01*
X175922902Y-83147759D01*
X176120024Y-82952616D01*
X176596987Y-82523081D01*
X177097303Y-82127870D01*
X177619116Y-81767625D01*
X178160572Y-81442988D01*
X178719816Y-81154603D01*
X179294993Y-80903112D01*
X179884247Y-80689157D01*
X180485724Y-80513382D01*
X181097568Y-80376429D01*
X181717925Y-80278941D01*
X182344939Y-80221560D01*
X182976755Y-80204928D01*
X183611519Y-80229690D01*
G36*
X183611519Y-80229690D02*
G01*
X183905715Y-80255334D01*
X184539068Y-80341097D01*
X185163754Y-80467208D01*
X185777483Y-80632777D01*
X186377966Y-80836915D01*
X186962914Y-81078732D01*
X187530037Y-81357340D01*
X188077047Y-81671849D01*
X188601653Y-82021371D01*
X188770388Y-82144935D01*
X188980188Y-82305015D01*
X189166761Y-82454175D01*
X189340467Y-82601430D01*
X189511667Y-82755796D01*
X189690722Y-82926287D01*
X189854286Y-83088064D01*
X190268133Y-83526795D01*
X190644592Y-83977152D01*
X190988116Y-84445324D01*
X191303155Y-84937497D01*
X191594162Y-85459859D01*
X191675239Y-85618966D01*
X191944069Y-86204305D01*
X192173501Y-86805061D01*
X192363454Y-87420956D01*
X192513847Y-88051713D01*
X192624599Y-88697056D01*
X192661805Y-88995049D01*
X192672295Y-89120256D01*
X192680460Y-89279855D01*
X192686336Y-89466436D01*
X192689962Y-89672592D01*
X192691375Y-89890914D01*
X192690613Y-90113992D01*
X192687715Y-90334420D01*
X192682717Y-90544787D01*
X192675657Y-90737685D01*
X192666574Y-90905705D01*
X192655505Y-91041440D01*
X192651166Y-91079966D01*
X192549646Y-91740137D01*
X192411072Y-92379917D01*
X192235272Y-92999694D01*
X192022071Y-93599859D01*
X191771298Y-94180803D01*
X191482778Y-94742916D01*
X191156340Y-95286589D01*
X190791809Y-95812211D01*
X190389013Y-96320173D01*
X190263233Y-96466274D01*
X190193769Y-96543261D01*
X190108370Y-96634380D01*
X190011283Y-96735443D01*
X189906751Y-96842262D01*
X189799023Y-96950646D01*
X189692343Y-97056409D01*
X189590958Y-97155360D01*
X189499114Y-97243313D01*
X189421056Y-97316078D01*
X189361031Y-97369466D01*
X189323284Y-97399289D01*
X189312629Y-97404026D01*
X189295373Y-97386734D01*
X189252079Y-97338899D01*
X189184188Y-97262180D01*
X189093143Y-97158234D01*
X188980387Y-97028719D01*
X188847362Y-96875294D01*
X188695511Y-96699616D01*
X188526276Y-96503344D01*
X188341099Y-96288136D01*
X188283276Y-96220854D01*
X188277140Y-96207926D01*
X188280417Y-96189751D01*
X188296089Y-96162845D01*
X188327137Y-96123728D01*
X188376543Y-96068916D01*
X188447288Y-95994928D01*
X188542354Y-95898282D01*
X188663863Y-95776354D01*
X188786842Y-95651195D01*
X188912677Y-95519250D01*
X189034251Y-95388262D01*
X189144448Y-95265969D01*
X189236152Y-95160114D01*
X189284186Y-95101633D01*
X189639821Y-94621076D01*
X189957243Y-94122937D01*
X190236113Y-93607943D01*
X190476091Y-93076823D01*
X190676837Y-92530303D01*
X190838010Y-91969112D01*
X190921045Y-91598549D01*
X191016331Y-91015627D01*
X191069566Y-90432314D01*
X191080967Y-89850248D01*
X191050754Y-89271068D01*
X190979145Y-88696414D01*
X190866358Y-88127926D01*
X190712612Y-87567242D01*
X190518125Y-87016001D01*
X190283116Y-86475843D01*
X190221297Y-86349216D01*
X189943109Y-85838062D01*
X189631224Y-85351318D01*
X189287422Y-84890293D01*
X188913483Y-84456301D01*
X188511187Y-84050651D01*
X188082313Y-83674655D01*
X187628642Y-83329626D01*
X187151954Y-83016873D01*
X186654029Y-82737709D01*
X186136647Y-82493444D01*
X185601587Y-82285391D01*
X185050629Y-82114860D01*
X184485554Y-81983163D01*
X184233798Y-81938002D01*
X184041988Y-81908111D01*
X183869722Y-81884830D01*
X183706871Y-81867413D01*
X183543304Y-81855116D01*
X183368890Y-81847193D01*
X183173498Y-81842898D01*
X182946999Y-81841488D01*
X182921465Y-81841477D01*
X182691181Y-81842632D01*
X182493049Y-81846594D01*
X182316940Y-81854109D01*
X182152722Y-81865921D01*
X181990266Y-81882775D01*
X181819440Y-81905417D01*
X181630114Y-81934592D01*
X181609131Y-81938002D01*
X181038891Y-82052392D01*
X180478935Y-82207437D01*
X179931071Y-82402317D01*
X179397108Y-82636210D01*
X178878852Y-82908297D01*
X178378113Y-83217755D01*
X177896697Y-83563765D01*
X177720964Y-83703225D01*
X177597931Y-83808594D01*
X177455192Y-83939270D01*
X177299999Y-84087920D01*
X177139600Y-84247207D01*
X176981246Y-84409798D01*
X176832187Y-84568356D01*
X176699673Y-84715549D01*
X176590954Y-84844040D01*
X176580560Y-84856966D01*
X176224735Y-85335053D01*
X175906512Y-85830874D01*
X175626306Y-86342744D01*
X175384533Y-86868977D01*
X175181607Y-87407887D01*
X175017942Y-87957789D01*
X174893953Y-88516999D01*
X174810056Y-89083829D01*
X174766663Y-89656596D01*
X174764191Y-90233613D01*
X174803054Y-90813195D01*
X174883666Y-91393657D01*
X174922066Y-91597934D01*
X175057311Y-92167479D01*
X175230992Y-92719989D01*
X175443640Y-93256747D01*
X175695786Y-93779034D01*
X175987959Y-94288134D01*
X176119554Y-94493520D01*
X176278448Y-94726811D01*
X176435569Y-94941425D01*
X176598062Y-95145976D01*
X176773076Y-95349081D01*
X176967756Y-95559353D01*
X177189248Y-95785409D01*
X177200645Y-95796773D01*
X177326371Y-95922381D01*
X177424756Y-96021802D01*
X177498736Y-96098438D01*
X177551248Y-96155690D01*
X177585227Y-96196959D01*
X177603610Y-96225645D01*
X177609331Y-96245152D01*
X177605328Y-96258878D01*
X177602617Y-96262439D01*
X177582174Y-96286400D01*
X177537701Y-96338678D01*
X177472561Y-96415314D01*
X177390119Y-96512350D01*
X177293737Y-96625828D01*
X177186780Y-96751788D01*
X177092446Y-96862903D01*
X176980009Y-96995065D01*
X176875874Y-97116913D01*
X176783291Y-97224690D01*
X176705509Y-97314633D01*
X176645777Y-97382985D01*
X176607345Y-97425985D01*
X176593826Y-97439811D01*
X176570339Y-97432223D01*
X176524853Y-97401731D01*
X176466206Y-97354437D01*
X176451589Y-97341649D01*
X175980193Y-96895155D01*
X175542081Y-96423057D01*
X175137983Y-95926816D01*
X174768630Y-95407887D01*
X174434750Y-94867732D01*
X174137075Y-94307806D01*
X173876333Y-93729570D01*
X173653254Y-93134480D01*
X173468569Y-92523996D01*
X173323008Y-91899576D01*
X173217299Y-91262678D01*
X173164219Y-90773049D01*
X173148586Y-90519175D01*
X173140936Y-90235000D01*
X173140978Y-89931741D01*
X173148422Y-89620616D01*
X173162977Y-89312841D01*
X173184352Y-89019632D01*
X173212256Y-88752207D01*
X173217736Y-88709299D01*
X173320660Y-88087435D01*
X173464029Y-87473823D01*
X173646641Y-86870844D01*
X173867297Y-86280879D01*
X174124795Y-85706311D01*
X174417935Y-85149520D01*
X174745516Y-84612888D01*
X175106338Y-84098796D01*
X175499200Y-83609626D01*
X175922902Y-83147759D01*
X176120024Y-82952616D01*
X176596987Y-82523081D01*
X177097303Y-82127870D01*
X177619116Y-81767625D01*
X178160572Y-81442988D01*
X178719816Y-81154603D01*
X179294993Y-80903112D01*
X179884247Y-80689157D01*
X180485724Y-80513382D01*
X181097568Y-80376429D01*
X181717925Y-80278941D01*
X182344939Y-80221560D01*
X182976755Y-80204928D01*
X183611519Y-80229690D01*
G37*
%TD*%
D12*
%TO.C,S1*%
X55500000Y-96000000D03*
X55500000Y-93500000D03*
X55500000Y-91000000D03*
X52300000Y-96000000D03*
X52300000Y-93500000D03*
X52300000Y-91000000D03*
%TD*%
D13*
%TO.C,U4*%
X194750000Y-80000000D03*
X197500000Y-80000000D03*
X200500000Y-80000000D03*
X203250000Y-80000000D03*
%TD*%
D14*
%TO.C,Ref\u002A\u002A*%
X190000000Y-71000000D03*
%TD*%
%TO.C,Ref\u002A\u002A*%
X126000000Y-71000000D03*
%TD*%
D15*
%TO.C,REF\u002A\u002A*%
X240000000Y-63000000D03*
X244000000Y-63000000D03*
%TD*%
D13*
%TO.C,U5*%
X96500000Y-80000000D03*
X99250000Y-80000000D03*
X102250000Y-80000000D03*
X105000000Y-80000000D03*
%TD*%
D14*
%TO.C,Ref\u002A\u002A*%
X142000000Y-71000000D03*
%TD*%
%TO.C,Ref\u002A\u002A*%
X174000000Y-71000000D03*
%TD*%
D16*
%TO.C,J1*%
X148000000Y-147460000D03*
D17*
X148000000Y-150000000D03*
X150540000Y-147460000D03*
X150540000Y-150000000D03*
X153080000Y-147460000D03*
X153080000Y-150000000D03*
%TD*%
D14*
%TO.C,Ref\u002A\u002A*%
X110000000Y-71000000D03*
%TD*%
%TO.C,Ref\u002A\u002A*%
X158000000Y-71000000D03*
%TD*%
D18*
%TO.C,J3*%
X92000000Y-134000000D03*
D19*
X92000000Y-136000000D03*
%TD*%
D20*
%TO.C,U1*%
X168780000Y-111700000D03*
X166240000Y-111700000D03*
X163700000Y-111700000D03*
X161160000Y-111700000D03*
X158620000Y-111700000D03*
X156080000Y-111700000D03*
X153540000Y-111700000D03*
X151000000Y-111700000D03*
X148460000Y-111700000D03*
X145920000Y-111700000D03*
X143380000Y-111700000D03*
X140840000Y-111700000D03*
X138300000Y-111700000D03*
X135760000Y-111700000D03*
X133220000Y-111700000D03*
X133220000Y-86300000D03*
X135760000Y-86300000D03*
X138300000Y-86300000D03*
X140840000Y-86300000D03*
X143380000Y-86300000D03*
X145920000Y-86300000D03*
X148460000Y-86300000D03*
X151000000Y-86300000D03*
X153540000Y-86300000D03*
X156080000Y-86300000D03*
X158620000Y-86300000D03*
X161160000Y-86300000D03*
X163700000Y-86300000D03*
X166240000Y-86300000D03*
X168780000Y-86300000D03*
%TD*%
D21*
%TO.C,U3*%
X202620000Y-154985000D03*
X200080000Y-154985000D03*
X197540000Y-154985000D03*
X195000000Y-154985000D03*
X192460000Y-154985000D03*
X189920000Y-154985000D03*
X187380000Y-154985000D03*
X196651000Y-142000000D03*
X193349000Y-142000000D03*
%TD*%
D15*
%TO.C,REF\u002A\u002A*%
X89000000Y-63000000D03*
X85000000Y-63000000D03*
%TD*%
D16*
%TO.C,U2*%
X99000000Y-155080000D03*
D17*
X99000000Y-152540000D03*
X99000000Y-150000000D03*
X99000000Y-147460000D03*
X99000000Y-144920000D03*
X99000000Y-142380000D03*
%TD*%
M02*
