M48
; DRILL file {KiCad 7.0.7} date Fri Feb  2 14:59:28 2024
; FORMAT={-:-/ absolute / inch / decimal}
; #@! TF.CreationDate,2024-02-02T14:59:28-08:00
; #@! TF.GenerationSoftware,Kicad,Pcbnew,7.0.7
; #@! TF.FileFunction,Plated,1,2,PTH
FMAT,2
INCH
; #@! TA.AperFunction,Plated,PTH,ViaDrill
T1C0.0157
; #@! TA.AperFunction,Plated,PTH,ComponentDrill
T2C0.0295
; #@! TA.AperFunction,Plated,PTH,ComponentDrill
T3C0.0394
; #@! TA.AperFunction,Plated,PTH,ComponentDrill
T4C0.0591
%
G90
G05
T1
X1.6142Y-3.4646
X1.7323Y-3.7402
X2.126Y-3.5827
X2.4409Y-3.5827
X3.1102Y-4.9606
X3.1102Y-5.0787
X3.3071Y-4.9606
X3.3071Y-5.0787
X3.937Y-3.0709
X3.9764Y-4.6063
X4.0945Y-4.4882
X5.2756Y-4.5276
X7.4409Y-5.7874
X7.9528Y-4.3307
X7.9528Y-4.4094
X7.9921Y-3.7402
X9.9213Y-3.5433
X10.0787Y-3.5827
X10.1575Y-3.5827
T2
X3.5039Y-4.4882
X3.5827Y-4.4882
T3
X3.2283Y-2.4016
X3.2283Y-2.5276
X3.3268Y-2.4016
X3.3268Y-2.5276
X3.4252Y-2.4016
X3.4252Y-2.5276
X3.8976Y-5.6055
X3.8976Y-5.7055
X3.8976Y-5.8055
X3.8976Y-5.9055
X3.8976Y-6.0055
X3.8976Y-6.1055
X4.3307Y-2.7953
X4.9606Y-2.7953
X5.2449Y-3.3976
X5.2449Y-4.3976
X5.3449Y-3.3976
X5.3449Y-4.3976
X5.4449Y-3.3976
X5.4449Y-4.3976
X5.5449Y-3.3976
X5.5449Y-4.3976
X5.5906Y-2.7953
X5.6449Y-3.3976
X5.6449Y-4.3976
X5.7449Y-3.3976
X5.7449Y-4.3976
X5.8055Y-5.8661
X5.8055Y-5.9661
X5.8449Y-3.3976
X5.8449Y-4.3976
X5.9055Y-5.8661
X5.9055Y-5.9661
X5.9449Y-3.3976
X5.9449Y-4.3976
X6.0055Y-5.8661
X6.0055Y-5.9661
X6.0449Y-3.3976
X6.0449Y-4.3976
X6.1449Y-3.3976
X6.1449Y-4.3976
X6.2205Y-2.7953
X6.2449Y-3.3976
X6.2449Y-4.3976
X6.3449Y-3.3976
X6.3449Y-4.3976
X6.4449Y-3.3976
X6.4449Y-4.3976
X6.5449Y-3.3976
X6.5449Y-4.3976
X6.6449Y-3.3976
X6.6449Y-4.3976
X6.8504Y-2.7953
X7.3772Y-6.1018
X7.4772Y-6.1018
X7.4803Y-2.7953
X7.5772Y-6.1018
X7.6122Y-5.5906
X7.6772Y-6.1018
X7.7422Y-5.5906
X7.7772Y-6.1018
X7.8772Y-6.1018
X7.9772Y-6.1018
T4
X1.6142Y-2.4803
X1.7717Y-2.4803
X10.0394Y-2.4803
X10.1969Y-2.4803
T0
M30
