%TF.GenerationSoftware,KiCad,Pcbnew,7.0.7*%
%TF.CreationDate,2024-03-11T11:41:55-07:00*%
%TF.ProjectId,DC32_Cnet_Badge_Main,44433332-5f43-46e6-9574-5f4261646765,rev?*%
%TF.SameCoordinates,Original*%
%TF.FileFunction,Soldermask,Top*%
%TF.FilePolarity,Negative*%
%FSLAX46Y46*%
G04 Gerber Fmt 4.6, Leading zero omitted, Abs format (unit mm)*
G04 Created by KiCad (PCBNEW 7.0.7) date 2024-03-11 11:41:55*
%MOMM*%
%LPD*%
G01*
G04 APERTURE LIST*
G04 Aperture macros list*
%AMRoundRect*
0 Rectangle with rounded corners*
0 $1 Rounding radius*
0 $2 $3 $4 $5 $6 $7 $8 $9 X,Y pos of 4 corners*
0 Add a 4 corners polygon primitive as box body*
4,1,4,$2,$3,$4,$5,$6,$7,$8,$9,$2,$3,0*
0 Add four circle primitives for the rounded corners*
1,1,$1+$1,$2,$3*
1,1,$1+$1,$4,$5*
1,1,$1+$1,$6,$7*
1,1,$1+$1,$8,$9*
0 Add four rect primitives between the rounded corners*
20,1,$1+$1,$2,$3,$4,$5,0*
20,1,$1+$1,$4,$5,$6,$7,0*
20,1,$1+$1,$6,$7,$8,$9,0*
20,1,$1+$1,$8,$9,$2,$3,0*%
G04 Aperture macros list end*
%ADD10C,0.150000*%
%ADD11C,0.010000*%
%ADD12C,2.000000*%
%ADD13R,1.500000X5.000000*%
%ADD14C,3.000000*%
%ADD15R,1.700000X1.700000*%
%ADD16O,1.700000X1.700000*%
%ADD17C,1.800000*%
%ADD18RoundRect,0.250000X-0.350000X-0.625000X0.350000X-0.625000X0.350000X0.625000X-0.350000X0.625000X0*%
%ADD19O,1.200000X1.750000*%
%ADD20O,1.400000X2.000000*%
%ADD21C,1.524000*%
G04 APERTURE END LIST*
D10*
X191000000Y-65000000D02*
X190000000Y-66000000D01*
X191000000Y-69000000D02*
X191000000Y-65000000D01*
X108000000Y-69000000D02*
X108000000Y-65000000D01*
X111500000Y-67000000D02*
X111500000Y-69000000D01*
X125500000Y-69000000D02*
X125500000Y-65000000D01*
X144500000Y-67000000D02*
X142500000Y-69000000D01*
X175000000Y-67000000D02*
X176000000Y-67000000D01*
X142500000Y-65000000D02*
X144500000Y-67000000D01*
X158000000Y-65000000D02*
X157000000Y-66000000D01*
X125500000Y-65000000D02*
X123500000Y-67000000D01*
X158000000Y-69000000D02*
X158000000Y-65000000D01*
X174000000Y-65000000D02*
X173000000Y-66000000D01*
X157000000Y-66000000D02*
X156000000Y-66000000D01*
X156000000Y-66000000D02*
X156000000Y-68000000D01*
X140500000Y-69000000D02*
X142500000Y-67000000D01*
X189000000Y-66000000D02*
X189000000Y-68000000D01*
X111500000Y-67000000D02*
X111500000Y-65000000D01*
X177000000Y-67000000D02*
X176000000Y-67000000D01*
X176000000Y-67000000D02*
X177000000Y-67000000D01*
X173000000Y-68000000D02*
X174000000Y-69000000D01*
X190000000Y-66000000D02*
X189000000Y-66000000D01*
X142500000Y-69000000D02*
X142500000Y-65000000D01*
X157000000Y-68000000D02*
X158000000Y-69000000D01*
X174000000Y-69000000D02*
X174000000Y-65000000D01*
X127500000Y-65000000D02*
X125500000Y-67000000D01*
X189000000Y-68000000D02*
X190000000Y-68000000D01*
X172000000Y-66000000D02*
X172000000Y-68000000D01*
X160000000Y-67000000D02*
X159000000Y-67000000D01*
X125500000Y-67000000D02*
X127500000Y-69000000D01*
X111500000Y-69000000D02*
X111500000Y-67000000D01*
X123500000Y-67000000D02*
X125500000Y-69000000D01*
X142500000Y-67000000D02*
X140500000Y-65000000D01*
X176000000Y-66000000D02*
X176000000Y-68000000D01*
X156000000Y-68000000D02*
X157000000Y-68000000D01*
X172000000Y-68000000D02*
X173000000Y-68000000D01*
X111500000Y-67000000D02*
X108000000Y-69000000D01*
X108000000Y-65000000D02*
X111500000Y-67000000D01*
X127500000Y-69000000D02*
X127500000Y-65000000D01*
X173000000Y-66000000D02*
X172000000Y-66000000D01*
X192000000Y-65000000D02*
X188000000Y-69000000D01*
X140500000Y-65000000D02*
X140500000Y-69000000D01*
X160000000Y-67000000D02*
X161000000Y-67000000D01*
X190000000Y-68000000D02*
X191000000Y-69000000D01*
X188000000Y-65000000D02*
X192000000Y-69000000D01*
G36*
X133753824Y-99233933D02*
G01*
X133898671Y-99244036D01*
X134040962Y-99260876D01*
X134180696Y-99284451D01*
X134317872Y-99314762D01*
X134452492Y-99351808D01*
X134584555Y-99395591D01*
X134714061Y-99446109D01*
X134841010Y-99503363D01*
X134965402Y-99567353D01*
X135087237Y-99638078D01*
X135206516Y-99715539D01*
X135323237Y-99799736D01*
X135437401Y-99890669D01*
X135549009Y-99988338D01*
X135658060Y-100092742D01*
X135762464Y-100201497D01*
X135860132Y-100312828D01*
X135951065Y-100426735D01*
X136035262Y-100543217D01*
X136112723Y-100662276D01*
X136183449Y-100783911D01*
X136247438Y-100908122D01*
X136304692Y-101034909D01*
X136355211Y-101164272D01*
X136398993Y-101296210D01*
X136436040Y-101430725D01*
X136466351Y-101567816D01*
X136489926Y-101707483D01*
X136506765Y-101849726D01*
X136516869Y-101994545D01*
X136520237Y-102141939D01*
X136517565Y-102288428D01*
X136509551Y-102430528D01*
X136496194Y-102568239D01*
X136477494Y-102701561D01*
X136453452Y-102830494D01*
X136424066Y-102955039D01*
X136389338Y-103075195D01*
X136349267Y-103190963D01*
X136303853Y-103302341D01*
X136253096Y-103409331D01*
X136196997Y-103511932D01*
X136135554Y-103610144D01*
X136068769Y-103703968D01*
X135996641Y-103793403D01*
X135919170Y-103878449D01*
X135836357Y-103959106D01*
X135919170Y-104054848D01*
X135996641Y-104154004D01*
X136068769Y-104256577D01*
X136135554Y-104362565D01*
X136196997Y-104471969D01*
X136253096Y-104584788D01*
X136303853Y-104701023D01*
X136349267Y-104820673D01*
X136389338Y-104943739D01*
X136424066Y-105070220D01*
X136453452Y-105200118D01*
X136477494Y-105333430D01*
X136496194Y-105470159D01*
X136509551Y-105610302D01*
X136517565Y-105753862D01*
X136520237Y-105900837D01*
X136516869Y-106048213D01*
X136506765Y-106192974D01*
X136489926Y-106335122D01*
X136466351Y-106474655D01*
X136436040Y-106611574D01*
X136398993Y-106745879D01*
X136355211Y-106877570D01*
X136304692Y-107006646D01*
X136247438Y-107133109D01*
X136183449Y-107256957D01*
X136112723Y-107378191D01*
X136035262Y-107496811D01*
X135951065Y-107612817D01*
X135860132Y-107726209D01*
X135762464Y-107836986D01*
X135658060Y-107945150D01*
X135549009Y-108048667D01*
X135437401Y-108145505D01*
X135323237Y-108235665D01*
X135206516Y-108319146D01*
X135087237Y-108395949D01*
X134965402Y-108466074D01*
X134841010Y-108529520D01*
X134714061Y-108586287D01*
X134584555Y-108636376D01*
X134452492Y-108679786D01*
X134317872Y-108716518D01*
X134180696Y-108746571D01*
X134040962Y-108769946D01*
X133898671Y-108786642D01*
X133753824Y-108796660D01*
X133606420Y-108800000D01*
X129000000Y-108800000D01*
X129000000Y-105041102D01*
X131051639Y-105041102D01*
X131051639Y-106748360D01*
X133606420Y-106748360D01*
X133715291Y-106742397D01*
X133819035Y-106724508D01*
X133917650Y-106694693D01*
X134011138Y-106652952D01*
X134099497Y-106599286D01*
X134182728Y-106533693D01*
X134214584Y-106504117D01*
X134287762Y-106424344D01*
X134348536Y-106339205D01*
X134396908Y-106248699D01*
X134432876Y-106152827D01*
X134456442Y-106051588D01*
X134467605Y-105944982D01*
X134468597Y-105900837D01*
X134462395Y-105792669D01*
X134443791Y-105689510D01*
X134412784Y-105591359D01*
X134369373Y-105498218D01*
X134313560Y-105410085D01*
X134245344Y-105326962D01*
X134214584Y-105295115D01*
X134133405Y-105221937D01*
X134047097Y-105161163D01*
X133955661Y-105112791D01*
X133859096Y-105076823D01*
X133757404Y-105053257D01*
X133650584Y-105042094D01*
X133606420Y-105041102D01*
X131051639Y-105041102D01*
X129000000Y-105041102D01*
X129000000Y-101279762D01*
X131051639Y-101279762D01*
X131051639Y-102989462D01*
X133606420Y-102989462D01*
X133715291Y-102983440D01*
X133819035Y-102965372D01*
X133917650Y-102935259D01*
X134011138Y-102893101D01*
X134099497Y-102838897D01*
X134182728Y-102772649D01*
X134214584Y-102742777D01*
X134287762Y-102663064D01*
X134348536Y-102578104D01*
X134396908Y-102487896D01*
X134432876Y-102392441D01*
X134456442Y-102291739D01*
X134467605Y-102185789D01*
X134468597Y-102141939D01*
X134462395Y-102033068D01*
X134443791Y-101929324D01*
X134412784Y-101830709D01*
X134369373Y-101737221D01*
X134313560Y-101648862D01*
X134245344Y-101565631D01*
X134214584Y-101533775D01*
X134133405Y-101460597D01*
X134047097Y-101399823D01*
X133955661Y-101351451D01*
X133859096Y-101315483D01*
X133757404Y-101291917D01*
X133650584Y-101280754D01*
X133606420Y-101279762D01*
X131051639Y-101279762D01*
X129000000Y-101279762D01*
X129000000Y-99230565D01*
X133606420Y-99230565D01*
X133753824Y-99233933D01*
G37*
G36*
X137196789Y-99230565D02*
G01*
X139248429Y-99230565D01*
X139248429Y-108800000D01*
X137196789Y-108800000D01*
X137196789Y-99230565D01*
G37*
G36*
X139932309Y-99230565D02*
G01*
X147452547Y-99230565D01*
X147452547Y-101279762D01*
X144717027Y-101279762D01*
X144717027Y-108800000D01*
X142667829Y-108800000D01*
X142667829Y-101279762D01*
X139932309Y-101279762D01*
X139932309Y-99230565D01*
G37*
G36*
X150180739Y-108800000D02*
G01*
X148129099Y-108800000D01*
X148129099Y-101963642D01*
X148132219Y-101824739D01*
X148141579Y-101688297D01*
X148157178Y-101554316D01*
X148179016Y-101422797D01*
X148207095Y-101293739D01*
X148241413Y-101167143D01*
X148281971Y-101043009D01*
X148328768Y-100921336D01*
X148381805Y-100802124D01*
X148441081Y-100685374D01*
X148506598Y-100571086D01*
X148578353Y-100459259D01*
X148656349Y-100349893D01*
X148740584Y-100242990D01*
X148831059Y-100138547D01*
X148927773Y-100036566D01*
X149029220Y-99938964D01*
X149133281Y-99847660D01*
X149239956Y-99762652D01*
X149349245Y-99683941D01*
X149461148Y-99611526D01*
X149575666Y-99545409D01*
X149692797Y-99485589D01*
X149812543Y-99432065D01*
X149934903Y-99384838D01*
X150059877Y-99343909D01*
X150187465Y-99309276D01*
X150317668Y-99280940D01*
X150450484Y-99258901D01*
X150585915Y-99243159D01*
X150723960Y-99233713D01*
X150864619Y-99230565D01*
X151003198Y-99233236D01*
X151138667Y-99241250D01*
X151271026Y-99254607D01*
X151400274Y-99273307D01*
X151526412Y-99297350D01*
X151649440Y-99326735D01*
X151769358Y-99361464D01*
X151886165Y-99401535D01*
X151999862Y-99446949D01*
X152110449Y-99497705D01*
X152217925Y-99553805D01*
X152322291Y-99615247D01*
X152423547Y-99682032D01*
X152521692Y-99754160D01*
X152616728Y-99831631D01*
X152708653Y-99914445D01*
X152807437Y-99831631D01*
X152909008Y-99754160D01*
X153013365Y-99682032D01*
X153120507Y-99615247D01*
X153230436Y-99553805D01*
X153343150Y-99497705D01*
X153458650Y-99446949D01*
X153576936Y-99401535D01*
X153698008Y-99361464D01*
X153821866Y-99326735D01*
X153948510Y-99297350D01*
X154077939Y-99273307D01*
X154210155Y-99254607D01*
X154345156Y-99241250D01*
X154482943Y-99233236D01*
X154623517Y-99230565D01*
X154762420Y-99233713D01*
X154898862Y-99243159D01*
X155032843Y-99258901D01*
X155164362Y-99280940D01*
X155293419Y-99309276D01*
X155420015Y-99343909D01*
X155544150Y-99384838D01*
X155665823Y-99432065D01*
X155785034Y-99485589D01*
X155901784Y-99545409D01*
X156016073Y-99611526D01*
X156127900Y-99683941D01*
X156237265Y-99762652D01*
X156344169Y-99847660D01*
X156448612Y-99938964D01*
X156550593Y-100036566D01*
X156648194Y-100138547D01*
X156739499Y-100242990D01*
X156824507Y-100349893D01*
X156903218Y-100459259D01*
X156975632Y-100571086D01*
X157041750Y-100685374D01*
X157101570Y-100802124D01*
X157155094Y-100921336D01*
X157202320Y-101043009D01*
X157243250Y-101167143D01*
X157277883Y-101293739D01*
X157306219Y-101422797D01*
X157328258Y-101554316D01*
X157344000Y-101688297D01*
X157353446Y-101824739D01*
X157356594Y-101963642D01*
X157356594Y-108800000D01*
X155280530Y-108800000D01*
X155280530Y-101963642D01*
X155272287Y-101853647D01*
X155247557Y-101748976D01*
X155206341Y-101649628D01*
X155148639Y-101555604D01*
X155074450Y-101466904D01*
X155046057Y-101438520D01*
X154971579Y-101373083D01*
X154877012Y-101309198D01*
X154776777Y-101261284D01*
X154670874Y-101229342D01*
X154559305Y-101213371D01*
X154501395Y-101211374D01*
X154401039Y-101216920D01*
X154287695Y-101238215D01*
X154182079Y-101275481D01*
X154084191Y-101328718D01*
X153994031Y-101397927D01*
X153951849Y-101438520D01*
X153877975Y-101525446D01*
X153819385Y-101617695D01*
X153776080Y-101715268D01*
X153748059Y-101818165D01*
X153735322Y-101926386D01*
X153734473Y-101963642D01*
X153734473Y-108800000D01*
X151682833Y-108800000D01*
X151682833Y-101963642D01*
X151675105Y-101853647D01*
X151651921Y-101748976D01*
X151613281Y-101649628D01*
X151559185Y-101555604D01*
X151489633Y-101466904D01*
X151463014Y-101438520D01*
X151378149Y-101361326D01*
X151286587Y-101300103D01*
X151188327Y-101254851D01*
X151083369Y-101225571D01*
X150971714Y-101212262D01*
X150933007Y-101211374D01*
X150822182Y-101219360D01*
X150716852Y-101243317D01*
X150617018Y-101283245D01*
X150522679Y-101339144D01*
X150433836Y-101411014D01*
X150405443Y-101438520D01*
X150329079Y-101525446D01*
X150268514Y-101617695D01*
X150223749Y-101715268D01*
X150194783Y-101818165D01*
X150181617Y-101926386D01*
X150180739Y-101963642D01*
X150180739Y-108800000D01*
G37*
G36*
X165555826Y-108800000D02*
G01*
X163504187Y-108800000D01*
X163504187Y-102989462D01*
X163499786Y-102860619D01*
X163486584Y-102735125D01*
X163464581Y-102612980D01*
X163433776Y-102494183D01*
X163394170Y-102378736D01*
X163345763Y-102266637D01*
X163288554Y-102157887D01*
X163222544Y-102052486D01*
X163147733Y-101950433D01*
X163064120Y-101851729D01*
X163003489Y-101787787D01*
X162908198Y-101696998D01*
X162809173Y-101615138D01*
X162706412Y-101542209D01*
X162599916Y-101478210D01*
X162489684Y-101423140D01*
X162375718Y-101377001D01*
X162258016Y-101339793D01*
X162136579Y-101311514D01*
X162011407Y-101292165D01*
X161882500Y-101281747D01*
X161794487Y-101279762D01*
X161665644Y-101284227D01*
X161540150Y-101297622D01*
X161418004Y-101319948D01*
X161299208Y-101351203D01*
X161183760Y-101391389D01*
X161071661Y-101440505D01*
X160962911Y-101498550D01*
X160857510Y-101565526D01*
X160755457Y-101641432D01*
X160656754Y-101726269D01*
X160592812Y-101787787D01*
X160502459Y-101884259D01*
X160420993Y-101984078D01*
X160348414Y-102087247D01*
X160284722Y-102193765D01*
X160229918Y-102303631D01*
X160184001Y-102416846D01*
X160146971Y-102533410D01*
X160118828Y-102653323D01*
X160099572Y-102776584D01*
X160089204Y-102903195D01*
X160087229Y-102989462D01*
X160087229Y-108800000D01*
X158035589Y-108800000D01*
X158035589Y-102989462D01*
X158039911Y-102797922D01*
X158052877Y-102609817D01*
X158074487Y-102425147D01*
X158104740Y-102243911D01*
X158143638Y-102066110D01*
X158191179Y-101891743D01*
X158247365Y-101720811D01*
X158312194Y-101553314D01*
X158385667Y-101389252D01*
X158467785Y-101228624D01*
X158558546Y-101071431D01*
X158657950Y-100917672D01*
X158765999Y-100767348D01*
X158882692Y-100620459D01*
X159008029Y-100477005D01*
X159142009Y-100336985D01*
X159282315Y-100203004D01*
X159426018Y-100077668D01*
X159573117Y-99960975D01*
X159723613Y-99852926D01*
X159877505Y-99753521D01*
X160034793Y-99662760D01*
X160195478Y-99580643D01*
X160359560Y-99507170D01*
X160527038Y-99442340D01*
X160697913Y-99386155D01*
X160872184Y-99338614D01*
X161049851Y-99299716D01*
X161230915Y-99269462D01*
X161415376Y-99247853D01*
X161603233Y-99234887D01*
X161794487Y-99230565D01*
X161987486Y-99234887D01*
X162176917Y-99247853D01*
X162362781Y-99269462D01*
X162545075Y-99299716D01*
X162723802Y-99338614D01*
X162898960Y-99386155D01*
X163070551Y-99442340D01*
X163238572Y-99507170D01*
X163403026Y-99580643D01*
X163563912Y-99662760D01*
X163721229Y-99753521D01*
X163874978Y-99852926D01*
X164025158Y-99960975D01*
X164171771Y-100077668D01*
X164314815Y-100203004D01*
X164454291Y-100336985D01*
X164587680Y-100477005D01*
X164712464Y-100620459D01*
X164828641Y-100767348D01*
X164936213Y-100917672D01*
X165035179Y-101071431D01*
X165125539Y-101228624D01*
X165207294Y-101389252D01*
X165280443Y-101553314D01*
X165344986Y-101720811D01*
X165400923Y-101891743D01*
X165448255Y-102066110D01*
X165486980Y-102243911D01*
X165517101Y-102425147D01*
X165538615Y-102609817D01*
X165551524Y-102797922D01*
X165555826Y-102989462D01*
X165555826Y-108800000D01*
G37*
G36*
X160224005Y-105724982D02*
G01*
X160228019Y-105605670D01*
X160240062Y-105489536D01*
X160260133Y-105376578D01*
X160288233Y-105266798D01*
X160324362Y-105160194D01*
X160368519Y-105056768D01*
X160420704Y-104956519D01*
X160480918Y-104859446D01*
X160549161Y-104765551D01*
X160625432Y-104674833D01*
X160680739Y-104616120D01*
X160768552Y-104533187D01*
X160859800Y-104458411D01*
X160954482Y-104391793D01*
X161052599Y-104333332D01*
X161154151Y-104283029D01*
X161259137Y-104240882D01*
X161367558Y-104206893D01*
X161479413Y-104181062D01*
X161594704Y-104163388D01*
X161713428Y-104153871D01*
X161794487Y-104152058D01*
X161913362Y-104156137D01*
X162029103Y-104168373D01*
X162141710Y-104188766D01*
X162251183Y-104217317D01*
X162357521Y-104254025D01*
X162460726Y-104298890D01*
X162560796Y-104351913D01*
X162657732Y-104413093D01*
X162751535Y-104482430D01*
X162842203Y-104559925D01*
X162900907Y-104616120D01*
X162984276Y-104704720D01*
X163059445Y-104796497D01*
X163126414Y-104891451D01*
X163185182Y-104989582D01*
X163235751Y-105090890D01*
X163278119Y-105195376D01*
X163312287Y-105303038D01*
X163338254Y-105413878D01*
X163356021Y-105527894D01*
X163365588Y-105645088D01*
X163367411Y-105724982D01*
X163363310Y-105845997D01*
X163351010Y-105963577D01*
X163330509Y-106077722D01*
X163301808Y-106188433D01*
X163264907Y-106295709D01*
X163219806Y-106399550D01*
X163166504Y-106499957D01*
X163105002Y-106596929D01*
X163035300Y-106690466D01*
X162957397Y-106780569D01*
X162900907Y-106838729D01*
X162812328Y-106920353D01*
X162720615Y-106993948D01*
X162625769Y-107059514D01*
X162527788Y-107117052D01*
X162426672Y-107166561D01*
X162322423Y-107208042D01*
X162215040Y-107241494D01*
X162104522Y-107266918D01*
X161990871Y-107284313D01*
X161874085Y-107293679D01*
X161794487Y-107295464D01*
X161673472Y-107291449D01*
X161555892Y-107279407D01*
X161441746Y-107259335D01*
X161331036Y-107231235D01*
X161223760Y-107195107D01*
X161119918Y-107150950D01*
X161019512Y-107098765D01*
X160922540Y-107038551D01*
X160829002Y-106970308D01*
X160738900Y-106894037D01*
X160680739Y-106838729D01*
X160599116Y-106750917D01*
X160525521Y-106659669D01*
X160459955Y-106564987D01*
X160402417Y-106466870D01*
X160352908Y-106365318D01*
X160311427Y-106260332D01*
X160277975Y-106151911D01*
X160252551Y-106040055D01*
X160235156Y-105924765D01*
X160225789Y-105806040D01*
X160224005Y-105724982D01*
G37*
G36*
X173752616Y-108800000D02*
G01*
X171700976Y-108800000D01*
X171700976Y-102989462D01*
X171696576Y-102860619D01*
X171683374Y-102735125D01*
X171661370Y-102612980D01*
X171630566Y-102494183D01*
X171590960Y-102378736D01*
X171542553Y-102266637D01*
X171485344Y-102157887D01*
X171419334Y-102052486D01*
X171344523Y-101950433D01*
X171260910Y-101851729D01*
X171200279Y-101787787D01*
X171104988Y-101696998D01*
X171005962Y-101615138D01*
X170903202Y-101542209D01*
X170796705Y-101478210D01*
X170686474Y-101423140D01*
X170572508Y-101377001D01*
X170454806Y-101339793D01*
X170333369Y-101311514D01*
X170208197Y-101292165D01*
X170079290Y-101281747D01*
X169991277Y-101279762D01*
X169862434Y-101284227D01*
X169736940Y-101297622D01*
X169614794Y-101319948D01*
X169495998Y-101351203D01*
X169380550Y-101391389D01*
X169268451Y-101440505D01*
X169159701Y-101498550D01*
X169054300Y-101565526D01*
X168952247Y-101641432D01*
X168853544Y-101726269D01*
X168789602Y-101787787D01*
X168699249Y-101884259D01*
X168617783Y-101984078D01*
X168545204Y-102087247D01*
X168481512Y-102193765D01*
X168426708Y-102303631D01*
X168380791Y-102416846D01*
X168343761Y-102533410D01*
X168315618Y-102653323D01*
X168296362Y-102776584D01*
X168285994Y-102903195D01*
X168284019Y-102989462D01*
X168284019Y-108800000D01*
X166232379Y-108800000D01*
X166232379Y-102989462D01*
X166236701Y-102797922D01*
X166249667Y-102609817D01*
X166271277Y-102425147D01*
X166301530Y-102243911D01*
X166340428Y-102066110D01*
X166387969Y-101891743D01*
X166444155Y-101720811D01*
X166508984Y-101553314D01*
X166582457Y-101389252D01*
X166664574Y-101228624D01*
X166755335Y-101071431D01*
X166854740Y-100917672D01*
X166962789Y-100767348D01*
X167079482Y-100620459D01*
X167204819Y-100477005D01*
X167338799Y-100336985D01*
X167479105Y-100203004D01*
X167622808Y-100077668D01*
X167769907Y-99960975D01*
X167920403Y-99852926D01*
X168074295Y-99753521D01*
X168231583Y-99662760D01*
X168392268Y-99580643D01*
X168556350Y-99507170D01*
X168723828Y-99442340D01*
X168894702Y-99386155D01*
X169068974Y-99338614D01*
X169246641Y-99299716D01*
X169427705Y-99269462D01*
X169612166Y-99247853D01*
X169800023Y-99234887D01*
X169991277Y-99230565D01*
X170184276Y-99234887D01*
X170373707Y-99247853D01*
X170559570Y-99269462D01*
X170741865Y-99299716D01*
X170920592Y-99338614D01*
X171095750Y-99386155D01*
X171267340Y-99442340D01*
X171435362Y-99507170D01*
X171599816Y-99580643D01*
X171760701Y-99662760D01*
X171918019Y-99753521D01*
X172071768Y-99852926D01*
X172221948Y-99960975D01*
X172368561Y-100077668D01*
X172511605Y-100203004D01*
X172651081Y-100336985D01*
X172784470Y-100477005D01*
X172909253Y-100620459D01*
X173025431Y-100767348D01*
X173133003Y-100917672D01*
X173231969Y-101071431D01*
X173322329Y-101228624D01*
X173404084Y-101389252D01*
X173477233Y-101553314D01*
X173541776Y-101720811D01*
X173597713Y-101891743D01*
X173645045Y-102066110D01*
X173683770Y-102243911D01*
X173713891Y-102425147D01*
X173735405Y-102609817D01*
X173748314Y-102797922D01*
X173752616Y-102989462D01*
X173752616Y-108800000D01*
G37*
G36*
X140069609Y-90127843D02*
G01*
X140664340Y-90127843D01*
X140715020Y-90127843D01*
X140733949Y-90127843D01*
X140792434Y-90135088D01*
X140841959Y-90145231D01*
X140895265Y-90165267D01*
X140935549Y-90195263D01*
X140964469Y-90237967D01*
X140983686Y-90296127D01*
X140992731Y-90351544D01*
X140997951Y-90418359D01*
X140999653Y-90469807D01*
X141000174Y-90527180D01*
X141000174Y-93481297D01*
X141000174Y-93734089D01*
X140999733Y-93791260D01*
X140998252Y-93842557D01*
X140993552Y-93909223D01*
X140985162Y-93964563D01*
X140966836Y-94022693D01*
X140938591Y-94065394D01*
X140898512Y-94095360D01*
X140844680Y-94115278D01*
X140794126Y-94125243D01*
X140733949Y-94132205D01*
X140683270Y-94138119D01*
X140664340Y-94139532D01*
X140076936Y-94139532D01*
X140076936Y-94650000D01*
X142946789Y-94650000D01*
X142946789Y-94139532D01*
X142414340Y-94139532D01*
X142364308Y-94134850D01*
X142330076Y-94132205D01*
X142271784Y-94127921D01*
X142219859Y-94122611D01*
X142153122Y-94111915D01*
X142098688Y-94096835D01*
X142043148Y-94067761D01*
X142004446Y-94025735D01*
X141979704Y-93967810D01*
X141968578Y-93912158D01*
X141962474Y-93844661D01*
X141960595Y-93792468D01*
X141960048Y-93734089D01*
X141960048Y-92348011D01*
X142708653Y-92348011D01*
X142799477Y-92350009D01*
X142882950Y-92356156D01*
X142959279Y-92366679D01*
X143028668Y-92381804D01*
X143091324Y-92401759D01*
X143147453Y-92426772D01*
X143197259Y-92457069D01*
X143240949Y-92492877D01*
X143278729Y-92534424D01*
X143310804Y-92581938D01*
X143337380Y-92635644D01*
X143358663Y-92695771D01*
X143374858Y-92762545D01*
X143386171Y-92836193D01*
X143392808Y-92916944D01*
X143394975Y-93005024D01*
X143394975Y-93243161D01*
X143843161Y-93243161D01*
X143843161Y-90926517D01*
X143380321Y-90926517D01*
X143380321Y-91178087D01*
X143380072Y-91228512D01*
X143378336Y-91279234D01*
X143374214Y-91325854D01*
X143363401Y-91397359D01*
X143349528Y-91462721D01*
X143332285Y-91522151D01*
X143311360Y-91575860D01*
X143286443Y-91624059D01*
X143257221Y-91666960D01*
X143223384Y-91704772D01*
X143184621Y-91737709D01*
X143140620Y-91765980D01*
X143091069Y-91789797D01*
X143035658Y-91809370D01*
X142974076Y-91824911D01*
X142906011Y-91836631D01*
X142831151Y-91844742D01*
X142749186Y-91849453D01*
X142659804Y-91850976D01*
X141960048Y-91850976D01*
X141960048Y-90127843D01*
X143479239Y-90127843D01*
X143558940Y-90128567D01*
X143635508Y-90130761D01*
X143709003Y-90134453D01*
X143779481Y-90139676D01*
X143847003Y-90146460D01*
X143911626Y-90154835D01*
X143973409Y-90164832D01*
X144032411Y-90176482D01*
X144088690Y-90189815D01*
X144142305Y-90204862D01*
X144193315Y-90221654D01*
X144241777Y-90240221D01*
X144287752Y-90260594D01*
X144331296Y-90282804D01*
X144411331Y-90332855D01*
X144482349Y-90390619D01*
X144544820Y-90456343D01*
X144599212Y-90530270D01*
X144645995Y-90612646D01*
X144666679Y-90657079D01*
X144685636Y-90703716D01*
X144702925Y-90752588D01*
X144718604Y-90803726D01*
X144732733Y-90857159D01*
X144745369Y-90912919D01*
X144756571Y-90971036D01*
X144766399Y-91031542D01*
X144774814Y-91081133D01*
X144781623Y-91136413D01*
X144785656Y-91191522D01*
X144787087Y-91240681D01*
X144787159Y-91255024D01*
X144794487Y-91584752D01*
X145270760Y-91584752D01*
X145270760Y-89610048D01*
X140069609Y-89610048D01*
X140069609Y-90127843D01*
G37*
G36*
X148080624Y-89474010D02*
G01*
X148229637Y-89483474D01*
X148375071Y-89499110D01*
X148516836Y-89520804D01*
X148654841Y-89548445D01*
X148788997Y-89581920D01*
X148919213Y-89621115D01*
X149045400Y-89665919D01*
X149167467Y-89716218D01*
X149285323Y-89771900D01*
X149398880Y-89832852D01*
X149508047Y-89898961D01*
X149612733Y-89970115D01*
X149712849Y-90046201D01*
X149808305Y-90127106D01*
X149899009Y-90212718D01*
X149984874Y-90302923D01*
X150065807Y-90397610D01*
X150141719Y-90496665D01*
X150212520Y-90599976D01*
X150278120Y-90707430D01*
X150338429Y-90818914D01*
X150393357Y-90934317D01*
X150442812Y-91053524D01*
X150486706Y-91176423D01*
X150524949Y-91302902D01*
X150557449Y-91432847D01*
X150584118Y-91566147D01*
X150604864Y-91702689D01*
X150619598Y-91842359D01*
X150628230Y-91985045D01*
X150630669Y-92130635D01*
X150626258Y-92274833D01*
X150615828Y-92416098D01*
X150599466Y-92554320D01*
X150577256Y-92689393D01*
X150549284Y-92821208D01*
X150515635Y-92949657D01*
X150476395Y-93074634D01*
X150431650Y-93196029D01*
X150381484Y-93313736D01*
X150325983Y-93427647D01*
X150265233Y-93537653D01*
X150199318Y-93643647D01*
X150128325Y-93745522D01*
X150052339Y-93843169D01*
X149971445Y-93936480D01*
X149885729Y-94025348D01*
X149795275Y-94109666D01*
X149700170Y-94189324D01*
X149600499Y-94264217D01*
X149496347Y-94334235D01*
X149387800Y-94399270D01*
X149274943Y-94459216D01*
X149157862Y-94513965D01*
X149036641Y-94563408D01*
X148911367Y-94607438D01*
X148782125Y-94645946D01*
X148649000Y-94678827D01*
X148512077Y-94705970D01*
X148371443Y-94727270D01*
X148227182Y-94742617D01*
X148079380Y-94751904D01*
X147928122Y-94755024D01*
X147775624Y-94751844D01*
X147626621Y-94742380D01*
X147481203Y-94726744D01*
X147339459Y-94705050D01*
X147201479Y-94677409D01*
X147067352Y-94643934D01*
X146937168Y-94604739D01*
X146811017Y-94559935D01*
X146688986Y-94509636D01*
X146571167Y-94453954D01*
X146457649Y-94393002D01*
X146348520Y-94326893D01*
X146243871Y-94255739D01*
X146143790Y-94179653D01*
X146048368Y-94098748D01*
X145957693Y-94013136D01*
X145871856Y-93922931D01*
X145790945Y-93828244D01*
X145715050Y-93729189D01*
X145644261Y-93625878D01*
X145578667Y-93518424D01*
X145518357Y-93406939D01*
X145463420Y-93291537D01*
X145413948Y-93172330D01*
X145370027Y-93049431D01*
X145331749Y-92922952D01*
X145299203Y-92793006D01*
X145272477Y-92659707D01*
X145251663Y-92523165D01*
X145236848Y-92383495D01*
X145228122Y-92240809D01*
X145226589Y-92153181D01*
X146241389Y-92153181D01*
X146242048Y-92210298D01*
X146243600Y-92266581D01*
X146246038Y-92322043D01*
X146249358Y-92376698D01*
X146253556Y-92430558D01*
X146258625Y-92483636D01*
X146264561Y-92535944D01*
X146271360Y-92587496D01*
X146279016Y-92638303D01*
X146287525Y-92688380D01*
X146296881Y-92737738D01*
X146307079Y-92786390D01*
X146318115Y-92834349D01*
X146342681Y-92928240D01*
X146370538Y-93019512D01*
X146401647Y-93108267D01*
X146435970Y-93194606D01*
X146473465Y-93278633D01*
X146514095Y-93360449D01*
X146557820Y-93440155D01*
X146604600Y-93517855D01*
X146654396Y-93593649D01*
X146715360Y-93676943D01*
X146779940Y-93754864D01*
X146847895Y-93827410D01*
X146918982Y-93894583D01*
X146992961Y-93956382D01*
X147069591Y-94012807D01*
X147148629Y-94063858D01*
X147229836Y-94109536D01*
X147312969Y-94149840D01*
X147397788Y-94184769D01*
X147484050Y-94214325D01*
X147571516Y-94238508D01*
X147659943Y-94257316D01*
X147749090Y-94270750D01*
X147838716Y-94278811D01*
X147928580Y-94281498D01*
X148018441Y-94278811D01*
X148108056Y-94270750D01*
X148197186Y-94257316D01*
X148285587Y-94238508D01*
X148373021Y-94214325D01*
X148459244Y-94184769D01*
X148544016Y-94149840D01*
X148627096Y-94109536D01*
X148708242Y-94063858D01*
X148787212Y-94012807D01*
X148863767Y-93956382D01*
X148937663Y-93894583D01*
X149008661Y-93827410D01*
X149076519Y-93754864D01*
X149140995Y-93676943D01*
X149201849Y-93593649D01*
X149251645Y-93517855D01*
X149298427Y-93440155D01*
X149342158Y-93360449D01*
X149382798Y-93278633D01*
X149420312Y-93194606D01*
X149454662Y-93108267D01*
X149485809Y-93019512D01*
X149513716Y-92928240D01*
X149538347Y-92834349D01*
X149549421Y-92786390D01*
X149559662Y-92737738D01*
X149569065Y-92688380D01*
X149577625Y-92638303D01*
X149585338Y-92587496D01*
X149592198Y-92535944D01*
X149598202Y-92483636D01*
X149603344Y-92430558D01*
X149607620Y-92376698D01*
X149611025Y-92322043D01*
X149613554Y-92266581D01*
X149615203Y-92210298D01*
X149615966Y-92153181D01*
X149615840Y-92095219D01*
X149612936Y-91969575D01*
X149605674Y-91847291D01*
X149594169Y-91728411D01*
X149578534Y-91612973D01*
X149558884Y-91501021D01*
X149535332Y-91392594D01*
X149507995Y-91287735D01*
X149476985Y-91186483D01*
X149442416Y-91088881D01*
X149404404Y-90994970D01*
X149363063Y-90904790D01*
X149318506Y-90818383D01*
X149270848Y-90735789D01*
X149220203Y-90657051D01*
X149166686Y-90582209D01*
X149110410Y-90511304D01*
X149051491Y-90444378D01*
X148990042Y-90381472D01*
X148926177Y-90322626D01*
X148860011Y-90267882D01*
X148791659Y-90217281D01*
X148721233Y-90170865D01*
X148648850Y-90128674D01*
X148574622Y-90090749D01*
X148498664Y-90057132D01*
X148421091Y-90027863D01*
X148342016Y-90002985D01*
X148261554Y-89982538D01*
X148179820Y-89966563D01*
X148096927Y-89955101D01*
X148012990Y-89948194D01*
X147928122Y-89945882D01*
X147843255Y-89948194D01*
X147759318Y-89955101D01*
X147676426Y-89966563D01*
X147594693Y-89982538D01*
X147514233Y-90002985D01*
X147435162Y-90027863D01*
X147357593Y-90057132D01*
X147281642Y-90090749D01*
X147207422Y-90128674D01*
X147135049Y-90170865D01*
X147064636Y-90217281D01*
X146996298Y-90267882D01*
X146930149Y-90322626D01*
X146866305Y-90381472D01*
X146804880Y-90444378D01*
X146745987Y-90511304D01*
X146689742Y-90582209D01*
X146636259Y-90657051D01*
X146585652Y-90735789D01*
X146538037Y-90818383D01*
X146493527Y-90904790D01*
X146452237Y-90994970D01*
X146414282Y-91088881D01*
X146379775Y-91186483D01*
X146348832Y-91287735D01*
X146321567Y-91392594D01*
X146298095Y-91501021D01*
X146278529Y-91612973D01*
X146262985Y-91728411D01*
X146251576Y-91847291D01*
X146244419Y-91969575D01*
X146241625Y-92095219D01*
X146241389Y-92153181D01*
X145226589Y-92153181D01*
X145225575Y-92095219D01*
X145229345Y-91951021D01*
X145239222Y-91809756D01*
X145255116Y-91671534D01*
X145276935Y-91536461D01*
X145304591Y-91404646D01*
X145337993Y-91276197D01*
X145377052Y-91151220D01*
X145421676Y-91029824D01*
X145471775Y-90912117D01*
X145527261Y-90798207D01*
X145588042Y-90688201D01*
X145654028Y-90582206D01*
X145725130Y-90480332D01*
X145801257Y-90382685D01*
X145882319Y-90289374D01*
X145968226Y-90200505D01*
X146058888Y-90116188D01*
X146154215Y-90036529D01*
X146254116Y-89961637D01*
X146358502Y-89891619D01*
X146467282Y-89826583D01*
X146580367Y-89766637D01*
X146697665Y-89711889D01*
X146819088Y-89662446D01*
X146944545Y-89618416D01*
X147073945Y-89579907D01*
X147207200Y-89547027D01*
X147344217Y-89519884D01*
X147484909Y-89498584D01*
X147629183Y-89483237D01*
X147776951Y-89473950D01*
X147928122Y-89470830D01*
X148080624Y-89474010D01*
G37*
G36*
X150909106Y-94650000D02*
G01*
X153233077Y-94650000D01*
X153233077Y-94139532D01*
X152644452Y-94139532D01*
X152593613Y-94137680D01*
X152537886Y-94128166D01*
X152485556Y-94101407D01*
X152449817Y-94053540D01*
X152431256Y-93996741D01*
X152422229Y-93941695D01*
X152416711Y-93874800D01*
X152414679Y-93823095D01*
X152413750Y-93765337D01*
X152413642Y-93734089D01*
X152413642Y-90646859D01*
X155431263Y-94650000D01*
X156264131Y-94650000D01*
X156264131Y-90527180D01*
X156265664Y-90477149D01*
X156271458Y-90442916D01*
X156274037Y-90389803D01*
X156278557Y-90321614D01*
X156284681Y-90266088D01*
X156296939Y-90209595D01*
X156321916Y-90163003D01*
X156371694Y-90134691D01*
X156420303Y-90127913D01*
X156483808Y-90127357D01*
X156502267Y-90127843D01*
X157062805Y-90127843D01*
X157062805Y-89610048D01*
X154962316Y-89610048D01*
X154962316Y-90127843D01*
X155549720Y-90127843D01*
X155600236Y-90135239D01*
X155626657Y-90142498D01*
X155667157Y-90173884D01*
X155694778Y-90219849D01*
X155707600Y-90271627D01*
X155710921Y-90303698D01*
X155718248Y-90442916D01*
X155718248Y-90527180D01*
X155718248Y-93432449D01*
X152841067Y-89610048D01*
X150916434Y-89610048D01*
X150916434Y-90127843D01*
X151545359Y-90127843D01*
X151580774Y-90127843D01*
X151642180Y-90136353D01*
X151693096Y-90146975D01*
X151746343Y-90166743D01*
X151792615Y-90204925D01*
X151816210Y-90250122D01*
X151830371Y-90311784D01*
X151836186Y-90370747D01*
X151838962Y-90442099D01*
X151839605Y-90497212D01*
X151839672Y-90527180D01*
X151839672Y-93734089D01*
X151839672Y-93786102D01*
X151839672Y-93837238D01*
X151839672Y-93852547D01*
X151834890Y-93912955D01*
X151827825Y-93964739D01*
X151814131Y-94021383D01*
X151788757Y-94074208D01*
X151752410Y-94109586D01*
X151703160Y-94130228D01*
X151653174Y-94137953D01*
X151608862Y-94139532D01*
X150909106Y-94139532D01*
X150909106Y-94650000D01*
G37*
G36*
X156921144Y-90127843D02*
G01*
X157103105Y-90127843D01*
X157151953Y-90127843D01*
X157218538Y-90136849D01*
X157277748Y-90148754D01*
X157331034Y-90164592D01*
X157379843Y-90185395D01*
X157425626Y-90212195D01*
X157469832Y-90246025D01*
X157513908Y-90287917D01*
X157559305Y-90338903D01*
X157591018Y-90378457D01*
X157624392Y-90422817D01*
X157659855Y-90472289D01*
X157697836Y-90527180D01*
X159014305Y-92507990D01*
X159014305Y-93467864D01*
X159014305Y-93734089D01*
X159013914Y-93793675D01*
X159012495Y-93846765D01*
X159007627Y-93915093D01*
X158998362Y-93971057D01*
X158977008Y-94028778D01*
X158942652Y-94070128D01*
X158892333Y-94098311D01*
X158842334Y-94112737D01*
X158780440Y-94122912D01*
X158705401Y-94130189D01*
X158677250Y-94132205D01*
X158628803Y-94139308D01*
X158607641Y-94139532D01*
X158075191Y-94139532D01*
X158075191Y-94650000D01*
X160890090Y-94650000D01*
X160890090Y-94139532D01*
X160357641Y-94139532D01*
X160307609Y-94134850D01*
X160273377Y-94132205D01*
X160223835Y-94128002D01*
X160159860Y-94119909D01*
X160107311Y-94108467D01*
X160053108Y-94085665D01*
X160014632Y-94051299D01*
X159989266Y-94002164D01*
X159977268Y-93953693D01*
X159970067Y-93893758D01*
X159966556Y-93821007D01*
X159965720Y-93764719D01*
X159965631Y-93734089D01*
X159965631Y-92536078D01*
X161310188Y-90527180D01*
X161338135Y-90484950D01*
X161369585Y-90443078D01*
X161379797Y-90429483D01*
X161414255Y-90384368D01*
X161446804Y-90343681D01*
X161492569Y-90290494D01*
X161535378Y-90246091D01*
X161576034Y-90209766D01*
X161628279Y-90172678D01*
X161680027Y-90147022D01*
X161733182Y-90131122D01*
X161789645Y-90123304D01*
X161835310Y-90121737D01*
X161897592Y-90127843D01*
X162086880Y-90127843D01*
X162086880Y-89610048D01*
X160106071Y-89610048D01*
X160106071Y-90121737D01*
X160588450Y-90121737D01*
X160637540Y-90126427D01*
X160659281Y-90127843D01*
X160708721Y-90138131D01*
X160757448Y-90163456D01*
X160783775Y-90206662D01*
X160781036Y-90255654D01*
X160764305Y-90296371D01*
X160742018Y-90340711D01*
X160713256Y-90389765D01*
X160683924Y-90436182D01*
X160653191Y-90483152D01*
X160623866Y-90527180D01*
X159734822Y-91905931D01*
X158838450Y-90527180D01*
X158810668Y-90483358D01*
X158780950Y-90435494D01*
X158755000Y-90391961D01*
X158729228Y-90345486D01*
X158705338Y-90296371D01*
X158687649Y-90245795D01*
X158695454Y-90191986D01*
X158733025Y-90157675D01*
X158789042Y-90137754D01*
X158839004Y-90129339D01*
X158853105Y-90127843D01*
X158903785Y-90127843D01*
X158922714Y-90127843D01*
X159391660Y-90127843D01*
X159391660Y-89610048D01*
X156921144Y-89610048D01*
X156921144Y-90127843D01*
G37*
%TO.C,Ref\u002A\u002A*%
D11*
X113444500Y-91475000D02*
X112873000Y-91475000D01*
X112873000Y-89379500D01*
X113444500Y-89379500D01*
X113444500Y-91475000D01*
G36*
X113444500Y-91475000D02*
G01*
X112873000Y-91475000D01*
X112873000Y-89379500D01*
X113444500Y-89379500D01*
X113444500Y-91475000D01*
G37*
X125136694Y-100793694D02*
X125162282Y-100794273D01*
X125162609Y-100794367D01*
X125165258Y-100815954D01*
X125169482Y-100872034D01*
X125174760Y-100954821D01*
X125180572Y-101056524D01*
X125182362Y-101089958D01*
X125197712Y-101381000D01*
X124607481Y-101381052D01*
X124420742Y-101381642D01*
X124218149Y-101383268D01*
X124012410Y-101385761D01*
X123816234Y-101388954D01*
X123642330Y-101392676D01*
X123556875Y-101395006D01*
X123096500Y-101408908D01*
X123096500Y-100816352D01*
X124127353Y-100803084D01*
X124331914Y-100800543D01*
X124523157Y-100798345D01*
X124696999Y-100796523D01*
X124849357Y-100795113D01*
X124976148Y-100794148D01*
X125073288Y-100793664D01*
X125136694Y-100793694D01*
G36*
X125136694Y-100793694D02*
G01*
X125162282Y-100794273D01*
X125162609Y-100794367D01*
X125165258Y-100815954D01*
X125169482Y-100872034D01*
X125174760Y-100954821D01*
X125180572Y-101056524D01*
X125182362Y-101089958D01*
X125197712Y-101381000D01*
X124607481Y-101381052D01*
X124420742Y-101381642D01*
X124218149Y-101383268D01*
X124012410Y-101385761D01*
X123816234Y-101388954D01*
X123642330Y-101392676D01*
X123556875Y-101395006D01*
X123096500Y-101408908D01*
X123096500Y-100816352D01*
X124127353Y-100803084D01*
X124331914Y-100800543D01*
X124523157Y-100798345D01*
X124696999Y-100796523D01*
X124849357Y-100795113D01*
X124976148Y-100794148D01*
X125073288Y-100793664D01*
X125136694Y-100793694D01*
G37*
X102967000Y-101423333D02*
X102377746Y-101423333D01*
X102192356Y-101423905D01*
X101992226Y-101425508D01*
X101789785Y-101427975D01*
X101597462Y-101431142D01*
X101427686Y-101434840D01*
X101342901Y-101437210D01*
X100897309Y-101451087D01*
X100881895Y-101183848D01*
X100876961Y-101079445D01*
X100874693Y-100988709D01*
X100875185Y-100920921D01*
X100878529Y-100885362D01*
X100878910Y-100884221D01*
X100887493Y-100874322D01*
X100907840Y-100866625D01*
X100944611Y-100860865D01*
X101002466Y-100856779D01*
X101086066Y-100854102D01*
X101200070Y-100852568D01*
X101349140Y-100851914D01*
X101449498Y-100851833D01*
X101635425Y-100851210D01*
X101840591Y-100849469D01*
X102050896Y-100846798D01*
X102252239Y-100843387D01*
X102430521Y-100839426D01*
X102487329Y-100837873D01*
X102967000Y-100823914D01*
X102967000Y-101423333D01*
G36*
X102967000Y-101423333D02*
G01*
X102377746Y-101423333D01*
X102192356Y-101423905D01*
X101992226Y-101425508D01*
X101789785Y-101427975D01*
X101597462Y-101431142D01*
X101427686Y-101434840D01*
X101342901Y-101437210D01*
X100897309Y-101451087D01*
X100881895Y-101183848D01*
X100876961Y-101079445D01*
X100874693Y-100988709D01*
X100875185Y-100920921D01*
X100878529Y-100885362D01*
X100878910Y-100884221D01*
X100887493Y-100874322D01*
X100907840Y-100866625D01*
X100944611Y-100860865D01*
X101002466Y-100856779D01*
X101086066Y-100854102D01*
X101200070Y-100852568D01*
X101349140Y-100851914D01*
X101449498Y-100851833D01*
X101635425Y-100851210D01*
X101840591Y-100849469D01*
X102050896Y-100846798D01*
X102252239Y-100843387D01*
X102430521Y-100839426D01*
X102487329Y-100837873D01*
X102967000Y-100823914D01*
X102967000Y-101423333D01*
G37*
X120904346Y-107565237D02*
X120949758Y-107605394D01*
X121018285Y-107668093D01*
X121106304Y-107749876D01*
X121210194Y-107847284D01*
X121326335Y-107956857D01*
X121451104Y-108075136D01*
X121580881Y-108198662D01*
X121712044Y-108323976D01*
X121840971Y-108447618D01*
X121964041Y-108566130D01*
X122077634Y-108676051D01*
X122178127Y-108773923D01*
X122261899Y-108856287D01*
X122325329Y-108919683D01*
X122364795Y-108960652D01*
X122376833Y-108975488D01*
X122362923Y-108997337D01*
X122325747Y-109041577D01*
X122272138Y-109101065D01*
X122208927Y-109168656D01*
X122142948Y-109237206D01*
X122081031Y-109299572D01*
X122030010Y-109348608D01*
X121996717Y-109377172D01*
X121988483Y-109381568D01*
X121968173Y-109367253D01*
X121921053Y-109326692D01*
X121850661Y-109263152D01*
X121760536Y-109179902D01*
X121654214Y-109080211D01*
X121535234Y-108967348D01*
X121407133Y-108844581D01*
X121403167Y-108840760D01*
X121266124Y-108708578D01*
X121130894Y-108577850D01*
X121002436Y-108453392D01*
X120885707Y-108340018D01*
X120785666Y-108242542D01*
X120707272Y-108165778D01*
X120663886Y-108122927D01*
X120485522Y-107945469D01*
X120673176Y-107748276D01*
X120745628Y-107674071D01*
X120809121Y-107612622D01*
X120857356Y-107569775D01*
X120884035Y-107551376D01*
X120885669Y-107551083D01*
X120904346Y-107565237D01*
G36*
X120904346Y-107565237D02*
G01*
X120949758Y-107605394D01*
X121018285Y-107668093D01*
X121106304Y-107749876D01*
X121210194Y-107847284D01*
X121326335Y-107956857D01*
X121451104Y-108075136D01*
X121580881Y-108198662D01*
X121712044Y-108323976D01*
X121840971Y-108447618D01*
X121964041Y-108566130D01*
X122077634Y-108676051D01*
X122178127Y-108773923D01*
X122261899Y-108856287D01*
X122325329Y-108919683D01*
X122364795Y-108960652D01*
X122376833Y-108975488D01*
X122362923Y-108997337D01*
X122325747Y-109041577D01*
X122272138Y-109101065D01*
X122208927Y-109168656D01*
X122142948Y-109237206D01*
X122081031Y-109299572D01*
X122030010Y-109348608D01*
X121996717Y-109377172D01*
X121988483Y-109381568D01*
X121968173Y-109367253D01*
X121921053Y-109326692D01*
X121850661Y-109263152D01*
X121760536Y-109179902D01*
X121654214Y-109080211D01*
X121535234Y-108967348D01*
X121407133Y-108844581D01*
X121403167Y-108840760D01*
X121266124Y-108708578D01*
X121130894Y-108577850D01*
X121002436Y-108453392D01*
X120885707Y-108340018D01*
X120785666Y-108242542D01*
X120707272Y-108165778D01*
X120663886Y-108122927D01*
X120485522Y-107945469D01*
X120673176Y-107748276D01*
X120745628Y-107674071D01*
X120809121Y-107612622D01*
X120857356Y-107569775D01*
X120884035Y-107551376D01*
X120885669Y-107551083D01*
X120904346Y-107565237D01*
G37*
X104311325Y-92870301D02*
X104357579Y-92911485D01*
X104426848Y-92975087D01*
X104515436Y-93057587D01*
X104619652Y-93155464D01*
X104735800Y-93265198D01*
X104860187Y-93383268D01*
X104989118Y-93506155D01*
X105118901Y-93630337D01*
X105245841Y-93752294D01*
X105366244Y-93868507D01*
X105476416Y-93975454D01*
X105572663Y-94069615D01*
X105651292Y-94147470D01*
X105706444Y-94203265D01*
X105789472Y-94288849D01*
X105600712Y-94485300D01*
X105528109Y-94559565D01*
X105464993Y-94621713D01*
X105417590Y-94665783D01*
X105392126Y-94685815D01*
X105390685Y-94686358D01*
X105371681Y-94672990D01*
X105325421Y-94632887D01*
X105254938Y-94568886D01*
X105163268Y-94483825D01*
X105053446Y-94380541D01*
X104928506Y-94261872D01*
X104791482Y-94130655D01*
X104645410Y-93989727D01*
X104639167Y-93983681D01*
X104493176Y-93841863D01*
X104356916Y-93708688D01*
X104233336Y-93587098D01*
X104125389Y-93480035D01*
X104036024Y-93390440D01*
X103968194Y-93321256D01*
X103924849Y-93275424D01*
X103908940Y-93255887D01*
X103908917Y-93255695D01*
X103922832Y-93229404D01*
X103959989Y-93181966D01*
X104013507Y-93120582D01*
X104076503Y-93052453D01*
X104142096Y-92984781D01*
X104203403Y-92924768D01*
X104253542Y-92879615D01*
X104285632Y-92856523D01*
X104291780Y-92855055D01*
X104311325Y-92870301D01*
G36*
X104311325Y-92870301D02*
G01*
X104357579Y-92911485D01*
X104426848Y-92975087D01*
X104515436Y-93057587D01*
X104619652Y-93155464D01*
X104735800Y-93265198D01*
X104860187Y-93383268D01*
X104989118Y-93506155D01*
X105118901Y-93630337D01*
X105245841Y-93752294D01*
X105366244Y-93868507D01*
X105476416Y-93975454D01*
X105572663Y-94069615D01*
X105651292Y-94147470D01*
X105706444Y-94203265D01*
X105789472Y-94288849D01*
X105600712Y-94485300D01*
X105528109Y-94559565D01*
X105464993Y-94621713D01*
X105417590Y-94665783D01*
X105392126Y-94685815D01*
X105390685Y-94686358D01*
X105371681Y-94672990D01*
X105325421Y-94632887D01*
X105254938Y-94568886D01*
X105163268Y-94483825D01*
X105053446Y-94380541D01*
X104928506Y-94261872D01*
X104791482Y-94130655D01*
X104645410Y-93989727D01*
X104639167Y-93983681D01*
X104493176Y-93841863D01*
X104356916Y-93708688D01*
X104233336Y-93587098D01*
X104125389Y-93480035D01*
X104036024Y-93390440D01*
X103968194Y-93321256D01*
X103924849Y-93275424D01*
X103908940Y-93255887D01*
X103908917Y-93255695D01*
X103922832Y-93229404D01*
X103959989Y-93181966D01*
X104013507Y-93120582D01*
X104076503Y-93052453D01*
X104142096Y-92984781D01*
X104203403Y-92924768D01*
X104253542Y-92879615D01*
X104285632Y-92856523D01*
X104291780Y-92855055D01*
X104311325Y-92870301D01*
G37*
X121540927Y-92973455D02*
X121583936Y-93010442D01*
X121641498Y-93064854D01*
X121706740Y-93129659D01*
X121772789Y-93197829D01*
X121832773Y-93262331D01*
X121879819Y-93316135D01*
X121907055Y-93352210D01*
X121911108Y-93361698D01*
X121896351Y-93379367D01*
X121854448Y-93422624D01*
X121788997Y-93488021D01*
X121703595Y-93572105D01*
X121601841Y-93671429D01*
X121487334Y-93782540D01*
X121363672Y-93901989D01*
X121234452Y-94026326D01*
X121103274Y-94152101D01*
X120973736Y-94275862D01*
X120849435Y-94394161D01*
X120733971Y-94503546D01*
X120630941Y-94600569D01*
X120543944Y-94681777D01*
X120476577Y-94743722D01*
X120432440Y-94782953D01*
X120415208Y-94796040D01*
X120394877Y-94780672D01*
X120351731Y-94740169D01*
X120291779Y-94680400D01*
X120221029Y-94607236D01*
X120208978Y-94594542D01*
X120020207Y-94395171D01*
X120081978Y-94329903D01*
X120125853Y-94285097D01*
X120193084Y-94218461D01*
X120279976Y-94133513D01*
X120382837Y-94033771D01*
X120497973Y-93922751D01*
X120621692Y-93803972D01*
X120750299Y-93680951D01*
X120880103Y-93557205D01*
X121007409Y-93436252D01*
X121128525Y-93321610D01*
X121239758Y-93216795D01*
X121337413Y-93125326D01*
X121417798Y-93050720D01*
X121477220Y-92996494D01*
X121511985Y-92966166D01*
X121519343Y-92960923D01*
X121540927Y-92973455D01*
G36*
X121540927Y-92973455D02*
G01*
X121583936Y-93010442D01*
X121641498Y-93064854D01*
X121706740Y-93129659D01*
X121772789Y-93197829D01*
X121832773Y-93262331D01*
X121879819Y-93316135D01*
X121907055Y-93352210D01*
X121911108Y-93361698D01*
X121896351Y-93379367D01*
X121854448Y-93422624D01*
X121788997Y-93488021D01*
X121703595Y-93572105D01*
X121601841Y-93671429D01*
X121487334Y-93782540D01*
X121363672Y-93901989D01*
X121234452Y-94026326D01*
X121103274Y-94152101D01*
X120973736Y-94275862D01*
X120849435Y-94394161D01*
X120733971Y-94503546D01*
X120630941Y-94600569D01*
X120543944Y-94681777D01*
X120476577Y-94743722D01*
X120432440Y-94782953D01*
X120415208Y-94796040D01*
X120394877Y-94780672D01*
X120351731Y-94740169D01*
X120291779Y-94680400D01*
X120221029Y-94607236D01*
X120208978Y-94594542D01*
X120020207Y-94395171D01*
X120081978Y-94329903D01*
X120125853Y-94285097D01*
X120193084Y-94218461D01*
X120279976Y-94133513D01*
X120382837Y-94033771D01*
X120497973Y-93922751D01*
X120621692Y-93803972D01*
X120750299Y-93680951D01*
X120880103Y-93557205D01*
X121007409Y-93436252D01*
X121128525Y-93321610D01*
X121239758Y-93216795D01*
X121337413Y-93125326D01*
X121417798Y-93050720D01*
X121477220Y-92996494D01*
X121511985Y-92966166D01*
X121519343Y-92960923D01*
X121540927Y-92973455D01*
G37*
X104866113Y-107470519D02*
X104907674Y-107509789D01*
X104963234Y-107566534D01*
X105026284Y-107633638D01*
X105090316Y-107703982D01*
X105148820Y-107770449D01*
X105195288Y-107825919D01*
X105223209Y-107863276D01*
X105228225Y-107874855D01*
X105211037Y-107894455D01*
X105166801Y-107939447D01*
X105099170Y-108006346D01*
X105011797Y-108091668D01*
X104908334Y-108191928D01*
X104792433Y-108303645D01*
X104667748Y-108423332D01*
X104537930Y-108547508D01*
X104406633Y-108672687D01*
X104277509Y-108795385D01*
X104154211Y-108912120D01*
X104040391Y-109019406D01*
X103939702Y-109113761D01*
X103855796Y-109191700D01*
X103792326Y-109249740D01*
X103752944Y-109284396D01*
X103741477Y-109292934D01*
X103717826Y-109280485D01*
X103672410Y-109242034D01*
X103611468Y-109183329D01*
X103541239Y-109110115D01*
X103531342Y-109099384D01*
X103462475Y-109023627D01*
X103405411Y-108959458D01*
X103365553Y-108913056D01*
X103348304Y-108890600D01*
X103348000Y-108889695D01*
X103362773Y-108872761D01*
X103404695Y-108830173D01*
X103470169Y-108765376D01*
X103555595Y-108681816D01*
X103657378Y-108582939D01*
X103771920Y-108472191D01*
X103895623Y-108353015D01*
X104024890Y-108228860D01*
X104156124Y-108103169D01*
X104285726Y-107979388D01*
X104410099Y-107860964D01*
X104525647Y-107751341D01*
X104628771Y-107653965D01*
X104715874Y-107572282D01*
X104783359Y-107509737D01*
X104827628Y-107469776D01*
X104845061Y-107455844D01*
X104866113Y-107470519D01*
G36*
X104866113Y-107470519D02*
G01*
X104907674Y-107509789D01*
X104963234Y-107566534D01*
X105026284Y-107633638D01*
X105090316Y-107703982D01*
X105148820Y-107770449D01*
X105195288Y-107825919D01*
X105223209Y-107863276D01*
X105228225Y-107874855D01*
X105211037Y-107894455D01*
X105166801Y-107939447D01*
X105099170Y-108006346D01*
X105011797Y-108091668D01*
X104908334Y-108191928D01*
X104792433Y-108303645D01*
X104667748Y-108423332D01*
X104537930Y-108547508D01*
X104406633Y-108672687D01*
X104277509Y-108795385D01*
X104154211Y-108912120D01*
X104040391Y-109019406D01*
X103939702Y-109113761D01*
X103855796Y-109191700D01*
X103792326Y-109249740D01*
X103752944Y-109284396D01*
X103741477Y-109292934D01*
X103717826Y-109280485D01*
X103672410Y-109242034D01*
X103611468Y-109183329D01*
X103541239Y-109110115D01*
X103531342Y-109099384D01*
X103462475Y-109023627D01*
X103405411Y-108959458D01*
X103365553Y-108913056D01*
X103348304Y-108890600D01*
X103348000Y-108889695D01*
X103362773Y-108872761D01*
X103404695Y-108830173D01*
X103470169Y-108765376D01*
X103555595Y-108681816D01*
X103657378Y-108582939D01*
X103771920Y-108472191D01*
X103895623Y-108353015D01*
X104024890Y-108228860D01*
X104156124Y-108103169D01*
X104285726Y-107979388D01*
X104410099Y-107860964D01*
X104525647Y-107751341D01*
X104628771Y-107653965D01*
X104715874Y-107572282D01*
X104783359Y-107509737D01*
X104827628Y-107469776D01*
X104845061Y-107455844D01*
X104866113Y-107470519D01*
G37*
X113203820Y-96015859D02*
X113403984Y-96023163D01*
X113583604Y-96035437D01*
X113732251Y-96052680D01*
X113740079Y-96053892D01*
X114192324Y-96145764D01*
X114628420Y-96275379D01*
X115046536Y-96441031D01*
X115444840Y-96641013D01*
X115821502Y-96873620D01*
X116174690Y-97137145D01*
X116502573Y-97429881D01*
X116803321Y-97750122D01*
X117075102Y-98096161D01*
X117316084Y-98466293D01*
X117524438Y-98858811D01*
X117698332Y-99272008D01*
X117835935Y-99704178D01*
X117889146Y-99920500D01*
X117960217Y-100325835D01*
X117997585Y-100746245D01*
X118001375Y-101172690D01*
X117971714Y-101596128D01*
X117908730Y-102007518D01*
X117856672Y-102238250D01*
X117724414Y-102673945D01*
X117554611Y-103093053D01*
X117349110Y-103493251D01*
X117109758Y-103872217D01*
X116838401Y-104227629D01*
X116536888Y-104557165D01*
X116207064Y-104858503D01*
X115850777Y-105129321D01*
X115469873Y-105367297D01*
X115292228Y-105462391D01*
X114864596Y-105657080D01*
X114427349Y-105811047D01*
X113981941Y-105923817D01*
X113762000Y-105963757D01*
X113654979Y-105976829D01*
X113516538Y-105987964D01*
X113356077Y-105996936D01*
X113182997Y-106003520D01*
X113006699Y-106007494D01*
X112836585Y-106008633D01*
X112682053Y-106006712D01*
X112552507Y-106001508D01*
X112470833Y-105994551D01*
X112005336Y-105918149D01*
X111555522Y-105803507D01*
X111123119Y-105651621D01*
X110709857Y-105463490D01*
X110317464Y-105240113D01*
X109947669Y-104982487D01*
X109602200Y-104691612D01*
X109282786Y-104368486D01*
X108991157Y-104014106D01*
X108953577Y-103963333D01*
X108703281Y-103586092D01*
X108491011Y-103193447D01*
X108316571Y-102787983D01*
X108179765Y-102372288D01*
X108080399Y-101948946D01*
X108018276Y-101520542D01*
X107993201Y-101089664D01*
X108004978Y-100658897D01*
X108053411Y-100230825D01*
X108138306Y-99808036D01*
X108259467Y-99393115D01*
X108416697Y-98988647D01*
X108609802Y-98597219D01*
X108838586Y-98221416D01*
X109102853Y-97863824D01*
X109402407Y-97527028D01*
X109443548Y-97485292D01*
X109786234Y-97171145D01*
X110152098Y-96892158D01*
X110539639Y-96649093D01*
X110947357Y-96442712D01*
X111373753Y-96273777D01*
X111817326Y-96143050D01*
X112259921Y-96053892D01*
X112406342Y-96036346D01*
X112584373Y-96023769D01*
X112783584Y-96016162D01*
X112993543Y-96013526D01*
X113203820Y-96015859D01*
G36*
X113203820Y-96015859D02*
G01*
X113403984Y-96023163D01*
X113583604Y-96035437D01*
X113732251Y-96052680D01*
X113740079Y-96053892D01*
X114192324Y-96145764D01*
X114628420Y-96275379D01*
X115046536Y-96441031D01*
X115444840Y-96641013D01*
X115821502Y-96873620D01*
X116174690Y-97137145D01*
X116502573Y-97429881D01*
X116803321Y-97750122D01*
X117075102Y-98096161D01*
X117316084Y-98466293D01*
X117524438Y-98858811D01*
X117698332Y-99272008D01*
X117835935Y-99704178D01*
X117889146Y-99920500D01*
X117960217Y-100325835D01*
X117997585Y-100746245D01*
X118001375Y-101172690D01*
X117971714Y-101596128D01*
X117908730Y-102007518D01*
X117856672Y-102238250D01*
X117724414Y-102673945D01*
X117554611Y-103093053D01*
X117349110Y-103493251D01*
X117109758Y-103872217D01*
X116838401Y-104227629D01*
X116536888Y-104557165D01*
X116207064Y-104858503D01*
X115850777Y-105129321D01*
X115469873Y-105367297D01*
X115292228Y-105462391D01*
X114864596Y-105657080D01*
X114427349Y-105811047D01*
X113981941Y-105923817D01*
X113762000Y-105963757D01*
X113654979Y-105976829D01*
X113516538Y-105987964D01*
X113356077Y-105996936D01*
X113182997Y-106003520D01*
X113006699Y-106007494D01*
X112836585Y-106008633D01*
X112682053Y-106006712D01*
X112552507Y-106001508D01*
X112470833Y-105994551D01*
X112005336Y-105918149D01*
X111555522Y-105803507D01*
X111123119Y-105651621D01*
X110709857Y-105463490D01*
X110317464Y-105240113D01*
X109947669Y-104982487D01*
X109602200Y-104691612D01*
X109282786Y-104368486D01*
X108991157Y-104014106D01*
X108953577Y-103963333D01*
X108703281Y-103586092D01*
X108491011Y-103193447D01*
X108316571Y-102787983D01*
X108179765Y-102372288D01*
X108080399Y-101948946D01*
X108018276Y-101520542D01*
X107993201Y-101089664D01*
X108004978Y-100658897D01*
X108053411Y-100230825D01*
X108138306Y-99808036D01*
X108259467Y-99393115D01*
X108416697Y-98988647D01*
X108609802Y-98597219D01*
X108838586Y-98221416D01*
X109102853Y-97863824D01*
X109402407Y-97527028D01*
X109443548Y-97485292D01*
X109786234Y-97171145D01*
X110152098Y-96892158D01*
X110539639Y-96649093D01*
X110947357Y-96442712D01*
X111373753Y-96273777D01*
X111817326Y-96143050D01*
X112259921Y-96053892D01*
X112406342Y-96036346D01*
X112584373Y-96023769D01*
X112783584Y-96016162D01*
X112993543Y-96013526D01*
X113203820Y-96015859D01*
G37*
X113647721Y-91610224D02*
X113941917Y-91635868D01*
X114575270Y-91721631D01*
X115199956Y-91847742D01*
X115813685Y-92013311D01*
X116414168Y-92217449D01*
X116999116Y-92459266D01*
X117566239Y-92737874D01*
X118113249Y-93052383D01*
X118637855Y-93401905D01*
X118806590Y-93525469D01*
X119016390Y-93685549D01*
X119202963Y-93834709D01*
X119376669Y-93981964D01*
X119547869Y-94136330D01*
X119726924Y-94306821D01*
X119890488Y-94468598D01*
X120304335Y-94907329D01*
X120680794Y-95357686D01*
X121024318Y-95825858D01*
X121339357Y-96318031D01*
X121630364Y-96840393D01*
X121711441Y-96999500D01*
X121980271Y-97584839D01*
X122209703Y-98185595D01*
X122399656Y-98801490D01*
X122550049Y-99432247D01*
X122660801Y-100077590D01*
X122698007Y-100375583D01*
X122708497Y-100500790D01*
X122716662Y-100660389D01*
X122722538Y-100846970D01*
X122726164Y-101053126D01*
X122727577Y-101271448D01*
X122726815Y-101494526D01*
X122723917Y-101714954D01*
X122718919Y-101925321D01*
X122711859Y-102118219D01*
X122702776Y-102286239D01*
X122691707Y-102421974D01*
X122687368Y-102460500D01*
X122585848Y-103120671D01*
X122447274Y-103760451D01*
X122271474Y-104380228D01*
X122058273Y-104980393D01*
X121807500Y-105561337D01*
X121518980Y-106123450D01*
X121192542Y-106667123D01*
X120828011Y-107192745D01*
X120425215Y-107700707D01*
X120299435Y-107846808D01*
X120229971Y-107923795D01*
X120144572Y-108014914D01*
X120047485Y-108115977D01*
X119942953Y-108222796D01*
X119835225Y-108331180D01*
X119728545Y-108436943D01*
X119627160Y-108535894D01*
X119535316Y-108623847D01*
X119457258Y-108696612D01*
X119397233Y-108750000D01*
X119359486Y-108779823D01*
X119348831Y-108784560D01*
X119331575Y-108767268D01*
X119288281Y-108719433D01*
X119220390Y-108642714D01*
X119129345Y-108538768D01*
X119016589Y-108409253D01*
X118883564Y-108255828D01*
X118731713Y-108080150D01*
X118562478Y-107883878D01*
X118377301Y-107668670D01*
X118319478Y-107601388D01*
X118313342Y-107588460D01*
X118316619Y-107570285D01*
X118332291Y-107543379D01*
X118363339Y-107504262D01*
X118412745Y-107449450D01*
X118483490Y-107375462D01*
X118578556Y-107278816D01*
X118700065Y-107156888D01*
X118823044Y-107031729D01*
X118948879Y-106899784D01*
X119070453Y-106768796D01*
X119180650Y-106646503D01*
X119272354Y-106540648D01*
X119320388Y-106482167D01*
X119676023Y-106001610D01*
X119993445Y-105503471D01*
X120272315Y-104988477D01*
X120512293Y-104457357D01*
X120713039Y-103910837D01*
X120874212Y-103349646D01*
X120957247Y-102979083D01*
X121052533Y-102396161D01*
X121105768Y-101812848D01*
X121117169Y-101230782D01*
X121086956Y-100651602D01*
X121015347Y-100076948D01*
X120902560Y-99508460D01*
X120748814Y-98947776D01*
X120554327Y-98396535D01*
X120319318Y-97856377D01*
X120257499Y-97729750D01*
X119979311Y-97218596D01*
X119667426Y-96731852D01*
X119323624Y-96270827D01*
X118949685Y-95836835D01*
X118547389Y-95431185D01*
X118118515Y-95055189D01*
X117664844Y-94710160D01*
X117188156Y-94397407D01*
X116690231Y-94118243D01*
X116172849Y-93873978D01*
X115637789Y-93665925D01*
X115086831Y-93495394D01*
X114521756Y-93363697D01*
X114270000Y-93318536D01*
X114078190Y-93288645D01*
X113905924Y-93265364D01*
X113743073Y-93247947D01*
X113579506Y-93235650D01*
X113405092Y-93227727D01*
X113209700Y-93223432D01*
X112983201Y-93222022D01*
X112957667Y-93222011D01*
X112727383Y-93223166D01*
X112529251Y-93227128D01*
X112353142Y-93234643D01*
X112188924Y-93246455D01*
X112026468Y-93263309D01*
X111855642Y-93285951D01*
X111666316Y-93315126D01*
X111645333Y-93318536D01*
X111075093Y-93432926D01*
X110515137Y-93587971D01*
X109967273Y-93782851D01*
X109433310Y-94016744D01*
X108915054Y-94288831D01*
X108414315Y-94598289D01*
X107932899Y-94944299D01*
X107757166Y-95083759D01*
X107634133Y-95189128D01*
X107491394Y-95319804D01*
X107336201Y-95468454D01*
X107175802Y-95627741D01*
X107017448Y-95790332D01*
X106868389Y-95948890D01*
X106735875Y-96096083D01*
X106627156Y-96224574D01*
X106616762Y-96237500D01*
X106260937Y-96715587D01*
X105942714Y-97211408D01*
X105662508Y-97723278D01*
X105420735Y-98249511D01*
X105217809Y-98788421D01*
X105054144Y-99338323D01*
X104930155Y-99897533D01*
X104846258Y-100464363D01*
X104802865Y-101037130D01*
X104800393Y-101614147D01*
X104839256Y-102193729D01*
X104919868Y-102774191D01*
X104958268Y-102978468D01*
X105093513Y-103548013D01*
X105267194Y-104100523D01*
X105479842Y-104637281D01*
X105731988Y-105159568D01*
X106024161Y-105668668D01*
X106155756Y-105874054D01*
X106314650Y-106107345D01*
X106471771Y-106321959D01*
X106634264Y-106526510D01*
X106809278Y-106729615D01*
X107003958Y-106939887D01*
X107225450Y-107165943D01*
X107236847Y-107177307D01*
X107362573Y-107302915D01*
X107460958Y-107402336D01*
X107534938Y-107478972D01*
X107587450Y-107536224D01*
X107621429Y-107577493D01*
X107639812Y-107606179D01*
X107645533Y-107625686D01*
X107641530Y-107639412D01*
X107638819Y-107642973D01*
X107618376Y-107666934D01*
X107573903Y-107719212D01*
X107508763Y-107795848D01*
X107426321Y-107892884D01*
X107329939Y-108006362D01*
X107222982Y-108132322D01*
X107128648Y-108243437D01*
X107016211Y-108375599D01*
X106912076Y-108497447D01*
X106819493Y-108605224D01*
X106741711Y-108695167D01*
X106681979Y-108763519D01*
X106643547Y-108806519D01*
X106630028Y-108820345D01*
X106606541Y-108812757D01*
X106561055Y-108782265D01*
X106502408Y-108734971D01*
X106487791Y-108722183D01*
X106016395Y-108275689D01*
X105578283Y-107803591D01*
X105174185Y-107307350D01*
X104804832Y-106788421D01*
X104470952Y-106248266D01*
X104173277Y-105688340D01*
X103912535Y-105110104D01*
X103689456Y-104515014D01*
X103504771Y-103904530D01*
X103359210Y-103280110D01*
X103253501Y-102643212D01*
X103200421Y-102153583D01*
X103184788Y-101899709D01*
X103177138Y-101615534D01*
X103177180Y-101312275D01*
X103184624Y-101001150D01*
X103199179Y-100693375D01*
X103220554Y-100400166D01*
X103248458Y-100132741D01*
X103253938Y-100089833D01*
X103356862Y-99467969D01*
X103500231Y-98854357D01*
X103682843Y-98251378D01*
X103903499Y-97661413D01*
X104160997Y-97086845D01*
X104454137Y-96530054D01*
X104781718Y-95993422D01*
X105142540Y-95479330D01*
X105535402Y-94990160D01*
X105959104Y-94528293D01*
X106156226Y-94333150D01*
X106633189Y-93903615D01*
X107133505Y-93508404D01*
X107655318Y-93148159D01*
X108196774Y-92823522D01*
X108756018Y-92535137D01*
X109331195Y-92283646D01*
X109920449Y-92069691D01*
X110521926Y-91893916D01*
X111133770Y-91756963D01*
X111754127Y-91659475D01*
X112381141Y-91602094D01*
X113012957Y-91585462D01*
X113647721Y-91610224D01*
G36*
X113647721Y-91610224D02*
G01*
X113941917Y-91635868D01*
X114575270Y-91721631D01*
X115199956Y-91847742D01*
X115813685Y-92013311D01*
X116414168Y-92217449D01*
X116999116Y-92459266D01*
X117566239Y-92737874D01*
X118113249Y-93052383D01*
X118637855Y-93401905D01*
X118806590Y-93525469D01*
X119016390Y-93685549D01*
X119202963Y-93834709D01*
X119376669Y-93981964D01*
X119547869Y-94136330D01*
X119726924Y-94306821D01*
X119890488Y-94468598D01*
X120304335Y-94907329D01*
X120680794Y-95357686D01*
X121024318Y-95825858D01*
X121339357Y-96318031D01*
X121630364Y-96840393D01*
X121711441Y-96999500D01*
X121980271Y-97584839D01*
X122209703Y-98185595D01*
X122399656Y-98801490D01*
X122550049Y-99432247D01*
X122660801Y-100077590D01*
X122698007Y-100375583D01*
X122708497Y-100500790D01*
X122716662Y-100660389D01*
X122722538Y-100846970D01*
X122726164Y-101053126D01*
X122727577Y-101271448D01*
X122726815Y-101494526D01*
X122723917Y-101714954D01*
X122718919Y-101925321D01*
X122711859Y-102118219D01*
X122702776Y-102286239D01*
X122691707Y-102421974D01*
X122687368Y-102460500D01*
X122585848Y-103120671D01*
X122447274Y-103760451D01*
X122271474Y-104380228D01*
X122058273Y-104980393D01*
X121807500Y-105561337D01*
X121518980Y-106123450D01*
X121192542Y-106667123D01*
X120828011Y-107192745D01*
X120425215Y-107700707D01*
X120299435Y-107846808D01*
X120229971Y-107923795D01*
X120144572Y-108014914D01*
X120047485Y-108115977D01*
X119942953Y-108222796D01*
X119835225Y-108331180D01*
X119728545Y-108436943D01*
X119627160Y-108535894D01*
X119535316Y-108623847D01*
X119457258Y-108696612D01*
X119397233Y-108750000D01*
X119359486Y-108779823D01*
X119348831Y-108784560D01*
X119331575Y-108767268D01*
X119288281Y-108719433D01*
X119220390Y-108642714D01*
X119129345Y-108538768D01*
X119016589Y-108409253D01*
X118883564Y-108255828D01*
X118731713Y-108080150D01*
X118562478Y-107883878D01*
X118377301Y-107668670D01*
X118319478Y-107601388D01*
X118313342Y-107588460D01*
X118316619Y-107570285D01*
X118332291Y-107543379D01*
X118363339Y-107504262D01*
X118412745Y-107449450D01*
X118483490Y-107375462D01*
X118578556Y-107278816D01*
X118700065Y-107156888D01*
X118823044Y-107031729D01*
X118948879Y-106899784D01*
X119070453Y-106768796D01*
X119180650Y-106646503D01*
X119272354Y-106540648D01*
X119320388Y-106482167D01*
X119676023Y-106001610D01*
X119993445Y-105503471D01*
X120272315Y-104988477D01*
X120512293Y-104457357D01*
X120713039Y-103910837D01*
X120874212Y-103349646D01*
X120957247Y-102979083D01*
X121052533Y-102396161D01*
X121105768Y-101812848D01*
X121117169Y-101230782D01*
X121086956Y-100651602D01*
X121015347Y-100076948D01*
X120902560Y-99508460D01*
X120748814Y-98947776D01*
X120554327Y-98396535D01*
X120319318Y-97856377D01*
X120257499Y-97729750D01*
X119979311Y-97218596D01*
X119667426Y-96731852D01*
X119323624Y-96270827D01*
X118949685Y-95836835D01*
X118547389Y-95431185D01*
X118118515Y-95055189D01*
X117664844Y-94710160D01*
X117188156Y-94397407D01*
X116690231Y-94118243D01*
X116172849Y-93873978D01*
X115637789Y-93665925D01*
X115086831Y-93495394D01*
X114521756Y-93363697D01*
X114270000Y-93318536D01*
X114078190Y-93288645D01*
X113905924Y-93265364D01*
X113743073Y-93247947D01*
X113579506Y-93235650D01*
X113405092Y-93227727D01*
X113209700Y-93223432D01*
X112983201Y-93222022D01*
X112957667Y-93222011D01*
X112727383Y-93223166D01*
X112529251Y-93227128D01*
X112353142Y-93234643D01*
X112188924Y-93246455D01*
X112026468Y-93263309D01*
X111855642Y-93285951D01*
X111666316Y-93315126D01*
X111645333Y-93318536D01*
X111075093Y-93432926D01*
X110515137Y-93587971D01*
X109967273Y-93782851D01*
X109433310Y-94016744D01*
X108915054Y-94288831D01*
X108414315Y-94598289D01*
X107932899Y-94944299D01*
X107757166Y-95083759D01*
X107634133Y-95189128D01*
X107491394Y-95319804D01*
X107336201Y-95468454D01*
X107175802Y-95627741D01*
X107017448Y-95790332D01*
X106868389Y-95948890D01*
X106735875Y-96096083D01*
X106627156Y-96224574D01*
X106616762Y-96237500D01*
X106260937Y-96715587D01*
X105942714Y-97211408D01*
X105662508Y-97723278D01*
X105420735Y-98249511D01*
X105217809Y-98788421D01*
X105054144Y-99338323D01*
X104930155Y-99897533D01*
X104846258Y-100464363D01*
X104802865Y-101037130D01*
X104800393Y-101614147D01*
X104839256Y-102193729D01*
X104919868Y-102774191D01*
X104958268Y-102978468D01*
X105093513Y-103548013D01*
X105267194Y-104100523D01*
X105479842Y-104637281D01*
X105731988Y-105159568D01*
X106024161Y-105668668D01*
X106155756Y-105874054D01*
X106314650Y-106107345D01*
X106471771Y-106321959D01*
X106634264Y-106526510D01*
X106809278Y-106729615D01*
X107003958Y-106939887D01*
X107225450Y-107165943D01*
X107236847Y-107177307D01*
X107362573Y-107302915D01*
X107460958Y-107402336D01*
X107534938Y-107478972D01*
X107587450Y-107536224D01*
X107621429Y-107577493D01*
X107639812Y-107606179D01*
X107645533Y-107625686D01*
X107641530Y-107639412D01*
X107638819Y-107642973D01*
X107618376Y-107666934D01*
X107573903Y-107719212D01*
X107508763Y-107795848D01*
X107426321Y-107892884D01*
X107329939Y-108006362D01*
X107222982Y-108132322D01*
X107128648Y-108243437D01*
X107016211Y-108375599D01*
X106912076Y-108497447D01*
X106819493Y-108605224D01*
X106741711Y-108695167D01*
X106681979Y-108763519D01*
X106643547Y-108806519D01*
X106630028Y-108820345D01*
X106606541Y-108812757D01*
X106561055Y-108782265D01*
X106502408Y-108734971D01*
X106487791Y-108722183D01*
X106016395Y-108275689D01*
X105578283Y-107803591D01*
X105174185Y-107307350D01*
X104804832Y-106788421D01*
X104470952Y-106248266D01*
X104173277Y-105688340D01*
X103912535Y-105110104D01*
X103689456Y-104515014D01*
X103504771Y-103904530D01*
X103359210Y-103280110D01*
X103253501Y-102643212D01*
X103200421Y-102153583D01*
X103184788Y-101899709D01*
X103177138Y-101615534D01*
X103177180Y-101312275D01*
X103184624Y-101001150D01*
X103199179Y-100693375D01*
X103220554Y-100400166D01*
X103248458Y-100132741D01*
X103253938Y-100089833D01*
X103356862Y-99467969D01*
X103500231Y-98854357D01*
X103682843Y-98251378D01*
X103903499Y-97661413D01*
X104160997Y-97086845D01*
X104454137Y-96530054D01*
X104781718Y-95993422D01*
X105142540Y-95479330D01*
X105535402Y-94990160D01*
X105959104Y-94528293D01*
X106156226Y-94333150D01*
X106633189Y-93903615D01*
X107133505Y-93508404D01*
X107655318Y-93148159D01*
X108196774Y-92823522D01*
X108756018Y-92535137D01*
X109331195Y-92283646D01*
X109920449Y-92069691D01*
X110521926Y-91893916D01*
X111133770Y-91756963D01*
X111754127Y-91659475D01*
X112381141Y-91602094D01*
X113012957Y-91585462D01*
X113647721Y-91610224D01*
G37*
X189507334Y-123686308D02*
X189507333Y-131375117D01*
X179770667Y-141111715D01*
X179770667Y-156002500D01*
X124250500Y-156002500D01*
X124250500Y-141111715D01*
X114513834Y-131375117D01*
X114513834Y-115997500D01*
X189507334Y-115997500D01*
X189507334Y-123686308D01*
G36*
X189507334Y-123686308D02*
G01*
X189507333Y-131375117D01*
X179770667Y-141111715D01*
X179770667Y-156002500D01*
X124250500Y-156002500D01*
X124250500Y-141111715D01*
X114513834Y-131375117D01*
X114513834Y-115997500D01*
X189507334Y-115997500D01*
X189507334Y-123686308D01*
G37*
X190444500Y-91475000D02*
X189873000Y-91475000D01*
X189873000Y-89379500D01*
X190444500Y-89379500D01*
X190444500Y-91475000D01*
G36*
X190444500Y-91475000D02*
G01*
X189873000Y-91475000D01*
X189873000Y-89379500D01*
X190444500Y-89379500D01*
X190444500Y-91475000D01*
G37*
X202136694Y-100793694D02*
X202162282Y-100794273D01*
X202162609Y-100794367D01*
X202165258Y-100815954D01*
X202169482Y-100872034D01*
X202174760Y-100954821D01*
X202180572Y-101056524D01*
X202182362Y-101089958D01*
X202197712Y-101381000D01*
X201607481Y-101381052D01*
X201420742Y-101381642D01*
X201218149Y-101383268D01*
X201012410Y-101385761D01*
X200816234Y-101388954D01*
X200642330Y-101392676D01*
X200556875Y-101395006D01*
X200096500Y-101408908D01*
X200096500Y-100816352D01*
X201127353Y-100803084D01*
X201331914Y-100800543D01*
X201523157Y-100798345D01*
X201696999Y-100796523D01*
X201849357Y-100795113D01*
X201976148Y-100794148D01*
X202073288Y-100793664D01*
X202136694Y-100793694D01*
G36*
X202136694Y-100793694D02*
G01*
X202162282Y-100794273D01*
X202162609Y-100794367D01*
X202165258Y-100815954D01*
X202169482Y-100872034D01*
X202174760Y-100954821D01*
X202180572Y-101056524D01*
X202182362Y-101089958D01*
X202197712Y-101381000D01*
X201607481Y-101381052D01*
X201420742Y-101381642D01*
X201218149Y-101383268D01*
X201012410Y-101385761D01*
X200816234Y-101388954D01*
X200642330Y-101392676D01*
X200556875Y-101395006D01*
X200096500Y-101408908D01*
X200096500Y-100816352D01*
X201127353Y-100803084D01*
X201331914Y-100800543D01*
X201523157Y-100798345D01*
X201696999Y-100796523D01*
X201849357Y-100795113D01*
X201976148Y-100794148D01*
X202073288Y-100793664D01*
X202136694Y-100793694D01*
G37*
X179967000Y-101423333D02*
X179377746Y-101423333D01*
X179192356Y-101423905D01*
X178992226Y-101425508D01*
X178789785Y-101427975D01*
X178597462Y-101431142D01*
X178427686Y-101434840D01*
X178342901Y-101437210D01*
X177897309Y-101451087D01*
X177881895Y-101183848D01*
X177876961Y-101079445D01*
X177874693Y-100988709D01*
X177875185Y-100920921D01*
X177878529Y-100885362D01*
X177878910Y-100884221D01*
X177887493Y-100874322D01*
X177907840Y-100866625D01*
X177944611Y-100860865D01*
X178002466Y-100856779D01*
X178086066Y-100854102D01*
X178200070Y-100852568D01*
X178349140Y-100851914D01*
X178449498Y-100851833D01*
X178635425Y-100851210D01*
X178840591Y-100849469D01*
X179050896Y-100846798D01*
X179252239Y-100843387D01*
X179430521Y-100839426D01*
X179487329Y-100837873D01*
X179967000Y-100823914D01*
X179967000Y-101423333D01*
G36*
X179967000Y-101423333D02*
G01*
X179377746Y-101423333D01*
X179192356Y-101423905D01*
X178992226Y-101425508D01*
X178789785Y-101427975D01*
X178597462Y-101431142D01*
X178427686Y-101434840D01*
X178342901Y-101437210D01*
X177897309Y-101451087D01*
X177881895Y-101183848D01*
X177876961Y-101079445D01*
X177874693Y-100988709D01*
X177875185Y-100920921D01*
X177878529Y-100885362D01*
X177878910Y-100884221D01*
X177887493Y-100874322D01*
X177907840Y-100866625D01*
X177944611Y-100860865D01*
X178002466Y-100856779D01*
X178086066Y-100854102D01*
X178200070Y-100852568D01*
X178349140Y-100851914D01*
X178449498Y-100851833D01*
X178635425Y-100851210D01*
X178840591Y-100849469D01*
X179050896Y-100846798D01*
X179252239Y-100843387D01*
X179430521Y-100839426D01*
X179487329Y-100837873D01*
X179967000Y-100823914D01*
X179967000Y-101423333D01*
G37*
X197904346Y-107565237D02*
X197949758Y-107605394D01*
X198018285Y-107668093D01*
X198106304Y-107749876D01*
X198210194Y-107847284D01*
X198326335Y-107956857D01*
X198451104Y-108075136D01*
X198580881Y-108198662D01*
X198712044Y-108323976D01*
X198840971Y-108447618D01*
X198964041Y-108566130D01*
X199077634Y-108676051D01*
X199178127Y-108773923D01*
X199261899Y-108856287D01*
X199325329Y-108919683D01*
X199364795Y-108960652D01*
X199376833Y-108975488D01*
X199362923Y-108997337D01*
X199325747Y-109041577D01*
X199272138Y-109101065D01*
X199208927Y-109168656D01*
X199142948Y-109237206D01*
X199081031Y-109299572D01*
X199030010Y-109348608D01*
X198996717Y-109377172D01*
X198988483Y-109381568D01*
X198968173Y-109367253D01*
X198921053Y-109326692D01*
X198850661Y-109263152D01*
X198760536Y-109179902D01*
X198654214Y-109080211D01*
X198535234Y-108967348D01*
X198407133Y-108844581D01*
X198403167Y-108840760D01*
X198266124Y-108708578D01*
X198130894Y-108577850D01*
X198002436Y-108453392D01*
X197885707Y-108340018D01*
X197785666Y-108242542D01*
X197707272Y-108165778D01*
X197663886Y-108122927D01*
X197485522Y-107945469D01*
X197673176Y-107748276D01*
X197745628Y-107674071D01*
X197809121Y-107612622D01*
X197857356Y-107569775D01*
X197884035Y-107551376D01*
X197885669Y-107551083D01*
X197904346Y-107565237D01*
G36*
X197904346Y-107565237D02*
G01*
X197949758Y-107605394D01*
X198018285Y-107668093D01*
X198106304Y-107749876D01*
X198210194Y-107847284D01*
X198326335Y-107956857D01*
X198451104Y-108075136D01*
X198580881Y-108198662D01*
X198712044Y-108323976D01*
X198840971Y-108447618D01*
X198964041Y-108566130D01*
X199077634Y-108676051D01*
X199178127Y-108773923D01*
X199261899Y-108856287D01*
X199325329Y-108919683D01*
X199364795Y-108960652D01*
X199376833Y-108975488D01*
X199362923Y-108997337D01*
X199325747Y-109041577D01*
X199272138Y-109101065D01*
X199208927Y-109168656D01*
X199142948Y-109237206D01*
X199081031Y-109299572D01*
X199030010Y-109348608D01*
X198996717Y-109377172D01*
X198988483Y-109381568D01*
X198968173Y-109367253D01*
X198921053Y-109326692D01*
X198850661Y-109263152D01*
X198760536Y-109179902D01*
X198654214Y-109080211D01*
X198535234Y-108967348D01*
X198407133Y-108844581D01*
X198403167Y-108840760D01*
X198266124Y-108708578D01*
X198130894Y-108577850D01*
X198002436Y-108453392D01*
X197885707Y-108340018D01*
X197785666Y-108242542D01*
X197707272Y-108165778D01*
X197663886Y-108122927D01*
X197485522Y-107945469D01*
X197673176Y-107748276D01*
X197745628Y-107674071D01*
X197809121Y-107612622D01*
X197857356Y-107569775D01*
X197884035Y-107551376D01*
X197885669Y-107551083D01*
X197904346Y-107565237D01*
G37*
X181311325Y-92870301D02*
X181357579Y-92911485D01*
X181426848Y-92975087D01*
X181515436Y-93057587D01*
X181619652Y-93155464D01*
X181735800Y-93265198D01*
X181860187Y-93383268D01*
X181989118Y-93506155D01*
X182118901Y-93630337D01*
X182245841Y-93752294D01*
X182366244Y-93868507D01*
X182476416Y-93975454D01*
X182572663Y-94069615D01*
X182651292Y-94147470D01*
X182706444Y-94203265D01*
X182789472Y-94288849D01*
X182600712Y-94485300D01*
X182528109Y-94559565D01*
X182464993Y-94621713D01*
X182417590Y-94665783D01*
X182392126Y-94685815D01*
X182390685Y-94686358D01*
X182371681Y-94672990D01*
X182325421Y-94632887D01*
X182254938Y-94568886D01*
X182163268Y-94483825D01*
X182053446Y-94380541D01*
X181928506Y-94261872D01*
X181791482Y-94130655D01*
X181645410Y-93989727D01*
X181639167Y-93983681D01*
X181493176Y-93841863D01*
X181356916Y-93708688D01*
X181233336Y-93587098D01*
X181125389Y-93480035D01*
X181036024Y-93390440D01*
X180968194Y-93321256D01*
X180924849Y-93275424D01*
X180908940Y-93255887D01*
X180908917Y-93255695D01*
X180922832Y-93229404D01*
X180959989Y-93181966D01*
X181013507Y-93120582D01*
X181076503Y-93052453D01*
X181142096Y-92984781D01*
X181203403Y-92924768D01*
X181253542Y-92879615D01*
X181285632Y-92856523D01*
X181291780Y-92855055D01*
X181311325Y-92870301D01*
G36*
X181311325Y-92870301D02*
G01*
X181357579Y-92911485D01*
X181426848Y-92975087D01*
X181515436Y-93057587D01*
X181619652Y-93155464D01*
X181735800Y-93265198D01*
X181860187Y-93383268D01*
X181989118Y-93506155D01*
X182118901Y-93630337D01*
X182245841Y-93752294D01*
X182366244Y-93868507D01*
X182476416Y-93975454D01*
X182572663Y-94069615D01*
X182651292Y-94147470D01*
X182706444Y-94203265D01*
X182789472Y-94288849D01*
X182600712Y-94485300D01*
X182528109Y-94559565D01*
X182464993Y-94621713D01*
X182417590Y-94665783D01*
X182392126Y-94685815D01*
X182390685Y-94686358D01*
X182371681Y-94672990D01*
X182325421Y-94632887D01*
X182254938Y-94568886D01*
X182163268Y-94483825D01*
X182053446Y-94380541D01*
X181928506Y-94261872D01*
X181791482Y-94130655D01*
X181645410Y-93989727D01*
X181639167Y-93983681D01*
X181493176Y-93841863D01*
X181356916Y-93708688D01*
X181233336Y-93587098D01*
X181125389Y-93480035D01*
X181036024Y-93390440D01*
X180968194Y-93321256D01*
X180924849Y-93275424D01*
X180908940Y-93255887D01*
X180908917Y-93255695D01*
X180922832Y-93229404D01*
X180959989Y-93181966D01*
X181013507Y-93120582D01*
X181076503Y-93052453D01*
X181142096Y-92984781D01*
X181203403Y-92924768D01*
X181253542Y-92879615D01*
X181285632Y-92856523D01*
X181291780Y-92855055D01*
X181311325Y-92870301D01*
G37*
X198540927Y-92973455D02*
X198583936Y-93010442D01*
X198641498Y-93064854D01*
X198706740Y-93129659D01*
X198772789Y-93197829D01*
X198832773Y-93262331D01*
X198879819Y-93316135D01*
X198907055Y-93352210D01*
X198911108Y-93361698D01*
X198896351Y-93379367D01*
X198854448Y-93422624D01*
X198788997Y-93488021D01*
X198703595Y-93572105D01*
X198601841Y-93671429D01*
X198487334Y-93782540D01*
X198363672Y-93901989D01*
X198234452Y-94026326D01*
X198103274Y-94152101D01*
X197973736Y-94275862D01*
X197849435Y-94394161D01*
X197733971Y-94503546D01*
X197630941Y-94600569D01*
X197543944Y-94681777D01*
X197476577Y-94743722D01*
X197432440Y-94782953D01*
X197415208Y-94796040D01*
X197394877Y-94780672D01*
X197351731Y-94740169D01*
X197291779Y-94680400D01*
X197221029Y-94607236D01*
X197208978Y-94594542D01*
X197020207Y-94395171D01*
X197081978Y-94329903D01*
X197125853Y-94285097D01*
X197193084Y-94218461D01*
X197279976Y-94133513D01*
X197382837Y-94033771D01*
X197497973Y-93922751D01*
X197621692Y-93803972D01*
X197750299Y-93680951D01*
X197880103Y-93557205D01*
X198007409Y-93436252D01*
X198128525Y-93321610D01*
X198239758Y-93216795D01*
X198337413Y-93125326D01*
X198417798Y-93050720D01*
X198477220Y-92996494D01*
X198511985Y-92966166D01*
X198519343Y-92960923D01*
X198540927Y-92973455D01*
G36*
X198540927Y-92973455D02*
G01*
X198583936Y-93010442D01*
X198641498Y-93064854D01*
X198706740Y-93129659D01*
X198772789Y-93197829D01*
X198832773Y-93262331D01*
X198879819Y-93316135D01*
X198907055Y-93352210D01*
X198911108Y-93361698D01*
X198896351Y-93379367D01*
X198854448Y-93422624D01*
X198788997Y-93488021D01*
X198703595Y-93572105D01*
X198601841Y-93671429D01*
X198487334Y-93782540D01*
X198363672Y-93901989D01*
X198234452Y-94026326D01*
X198103274Y-94152101D01*
X197973736Y-94275862D01*
X197849435Y-94394161D01*
X197733971Y-94503546D01*
X197630941Y-94600569D01*
X197543944Y-94681777D01*
X197476577Y-94743722D01*
X197432440Y-94782953D01*
X197415208Y-94796040D01*
X197394877Y-94780672D01*
X197351731Y-94740169D01*
X197291779Y-94680400D01*
X197221029Y-94607236D01*
X197208978Y-94594542D01*
X197020207Y-94395171D01*
X197081978Y-94329903D01*
X197125853Y-94285097D01*
X197193084Y-94218461D01*
X197279976Y-94133513D01*
X197382837Y-94033771D01*
X197497973Y-93922751D01*
X197621692Y-93803972D01*
X197750299Y-93680951D01*
X197880103Y-93557205D01*
X198007409Y-93436252D01*
X198128525Y-93321610D01*
X198239758Y-93216795D01*
X198337413Y-93125326D01*
X198417798Y-93050720D01*
X198477220Y-92996494D01*
X198511985Y-92966166D01*
X198519343Y-92960923D01*
X198540927Y-92973455D01*
G37*
X181866113Y-107470519D02*
X181907674Y-107509789D01*
X181963234Y-107566534D01*
X182026284Y-107633638D01*
X182090316Y-107703982D01*
X182148820Y-107770449D01*
X182195288Y-107825919D01*
X182223209Y-107863276D01*
X182228225Y-107874855D01*
X182211037Y-107894455D01*
X182166801Y-107939447D01*
X182099170Y-108006346D01*
X182011797Y-108091668D01*
X181908334Y-108191928D01*
X181792433Y-108303645D01*
X181667748Y-108423332D01*
X181537930Y-108547508D01*
X181406633Y-108672687D01*
X181277509Y-108795385D01*
X181154211Y-108912120D01*
X181040391Y-109019406D01*
X180939702Y-109113761D01*
X180855796Y-109191700D01*
X180792326Y-109249740D01*
X180752944Y-109284396D01*
X180741477Y-109292934D01*
X180717826Y-109280485D01*
X180672410Y-109242034D01*
X180611468Y-109183329D01*
X180541239Y-109110115D01*
X180531342Y-109099384D01*
X180462475Y-109023627D01*
X180405411Y-108959458D01*
X180365553Y-108913056D01*
X180348304Y-108890600D01*
X180348000Y-108889695D01*
X180362773Y-108872761D01*
X180404695Y-108830173D01*
X180470169Y-108765376D01*
X180555595Y-108681816D01*
X180657378Y-108582939D01*
X180771920Y-108472191D01*
X180895623Y-108353015D01*
X181024890Y-108228860D01*
X181156124Y-108103169D01*
X181285726Y-107979388D01*
X181410099Y-107860964D01*
X181525647Y-107751341D01*
X181628771Y-107653965D01*
X181715874Y-107572282D01*
X181783359Y-107509737D01*
X181827628Y-107469776D01*
X181845061Y-107455844D01*
X181866113Y-107470519D01*
G36*
X181866113Y-107470519D02*
G01*
X181907674Y-107509789D01*
X181963234Y-107566534D01*
X182026284Y-107633638D01*
X182090316Y-107703982D01*
X182148820Y-107770449D01*
X182195288Y-107825919D01*
X182223209Y-107863276D01*
X182228225Y-107874855D01*
X182211037Y-107894455D01*
X182166801Y-107939447D01*
X182099170Y-108006346D01*
X182011797Y-108091668D01*
X181908334Y-108191928D01*
X181792433Y-108303645D01*
X181667748Y-108423332D01*
X181537930Y-108547508D01*
X181406633Y-108672687D01*
X181277509Y-108795385D01*
X181154211Y-108912120D01*
X181040391Y-109019406D01*
X180939702Y-109113761D01*
X180855796Y-109191700D01*
X180792326Y-109249740D01*
X180752944Y-109284396D01*
X180741477Y-109292934D01*
X180717826Y-109280485D01*
X180672410Y-109242034D01*
X180611468Y-109183329D01*
X180541239Y-109110115D01*
X180531342Y-109099384D01*
X180462475Y-109023627D01*
X180405411Y-108959458D01*
X180365553Y-108913056D01*
X180348304Y-108890600D01*
X180348000Y-108889695D01*
X180362773Y-108872761D01*
X180404695Y-108830173D01*
X180470169Y-108765376D01*
X180555595Y-108681816D01*
X180657378Y-108582939D01*
X180771920Y-108472191D01*
X180895623Y-108353015D01*
X181024890Y-108228860D01*
X181156124Y-108103169D01*
X181285726Y-107979388D01*
X181410099Y-107860964D01*
X181525647Y-107751341D01*
X181628771Y-107653965D01*
X181715874Y-107572282D01*
X181783359Y-107509737D01*
X181827628Y-107469776D01*
X181845061Y-107455844D01*
X181866113Y-107470519D01*
G37*
X190203820Y-96015859D02*
X190403984Y-96023163D01*
X190583604Y-96035437D01*
X190732251Y-96052680D01*
X190740079Y-96053892D01*
X191192324Y-96145764D01*
X191628420Y-96275379D01*
X192046536Y-96441031D01*
X192444840Y-96641013D01*
X192821502Y-96873620D01*
X193174690Y-97137145D01*
X193502573Y-97429881D01*
X193803321Y-97750122D01*
X194075102Y-98096161D01*
X194316084Y-98466293D01*
X194524438Y-98858811D01*
X194698332Y-99272008D01*
X194835935Y-99704178D01*
X194889146Y-99920500D01*
X194960217Y-100325835D01*
X194997585Y-100746245D01*
X195001375Y-101172690D01*
X194971714Y-101596128D01*
X194908730Y-102007518D01*
X194856672Y-102238250D01*
X194724414Y-102673945D01*
X194554611Y-103093053D01*
X194349110Y-103493251D01*
X194109758Y-103872217D01*
X193838401Y-104227629D01*
X193536888Y-104557165D01*
X193207064Y-104858503D01*
X192850777Y-105129321D01*
X192469873Y-105367297D01*
X192292228Y-105462391D01*
X191864596Y-105657080D01*
X191427349Y-105811047D01*
X190981941Y-105923817D01*
X190762000Y-105963757D01*
X190654979Y-105976829D01*
X190516538Y-105987964D01*
X190356077Y-105996936D01*
X190182997Y-106003520D01*
X190006699Y-106007494D01*
X189836585Y-106008633D01*
X189682053Y-106006712D01*
X189552507Y-106001508D01*
X189470833Y-105994551D01*
X189005336Y-105918149D01*
X188555522Y-105803507D01*
X188123119Y-105651621D01*
X187709857Y-105463490D01*
X187317464Y-105240113D01*
X186947669Y-104982487D01*
X186602200Y-104691612D01*
X186282786Y-104368486D01*
X185991157Y-104014106D01*
X185953577Y-103963333D01*
X185703281Y-103586092D01*
X185491011Y-103193447D01*
X185316571Y-102787983D01*
X185179765Y-102372288D01*
X185080399Y-101948946D01*
X185018276Y-101520542D01*
X184993201Y-101089664D01*
X185004978Y-100658897D01*
X185053411Y-100230825D01*
X185138306Y-99808036D01*
X185259467Y-99393115D01*
X185416697Y-98988647D01*
X185609802Y-98597219D01*
X185838586Y-98221416D01*
X186102853Y-97863824D01*
X186402407Y-97527028D01*
X186443548Y-97485292D01*
X186786234Y-97171145D01*
X187152098Y-96892158D01*
X187539639Y-96649093D01*
X187947357Y-96442712D01*
X188373753Y-96273777D01*
X188817326Y-96143050D01*
X189259921Y-96053892D01*
X189406342Y-96036346D01*
X189584373Y-96023769D01*
X189783584Y-96016162D01*
X189993543Y-96013526D01*
X190203820Y-96015859D01*
G36*
X190203820Y-96015859D02*
G01*
X190403984Y-96023163D01*
X190583604Y-96035437D01*
X190732251Y-96052680D01*
X190740079Y-96053892D01*
X191192324Y-96145764D01*
X191628420Y-96275379D01*
X192046536Y-96441031D01*
X192444840Y-96641013D01*
X192821502Y-96873620D01*
X193174690Y-97137145D01*
X193502573Y-97429881D01*
X193803321Y-97750122D01*
X194075102Y-98096161D01*
X194316084Y-98466293D01*
X194524438Y-98858811D01*
X194698332Y-99272008D01*
X194835935Y-99704178D01*
X194889146Y-99920500D01*
X194960217Y-100325835D01*
X194997585Y-100746245D01*
X195001375Y-101172690D01*
X194971714Y-101596128D01*
X194908730Y-102007518D01*
X194856672Y-102238250D01*
X194724414Y-102673945D01*
X194554611Y-103093053D01*
X194349110Y-103493251D01*
X194109758Y-103872217D01*
X193838401Y-104227629D01*
X193536888Y-104557165D01*
X193207064Y-104858503D01*
X192850777Y-105129321D01*
X192469873Y-105367297D01*
X192292228Y-105462391D01*
X191864596Y-105657080D01*
X191427349Y-105811047D01*
X190981941Y-105923817D01*
X190762000Y-105963757D01*
X190654979Y-105976829D01*
X190516538Y-105987964D01*
X190356077Y-105996936D01*
X190182997Y-106003520D01*
X190006699Y-106007494D01*
X189836585Y-106008633D01*
X189682053Y-106006712D01*
X189552507Y-106001508D01*
X189470833Y-105994551D01*
X189005336Y-105918149D01*
X188555522Y-105803507D01*
X188123119Y-105651621D01*
X187709857Y-105463490D01*
X187317464Y-105240113D01*
X186947669Y-104982487D01*
X186602200Y-104691612D01*
X186282786Y-104368486D01*
X185991157Y-104014106D01*
X185953577Y-103963333D01*
X185703281Y-103586092D01*
X185491011Y-103193447D01*
X185316571Y-102787983D01*
X185179765Y-102372288D01*
X185080399Y-101948946D01*
X185018276Y-101520542D01*
X184993201Y-101089664D01*
X185004978Y-100658897D01*
X185053411Y-100230825D01*
X185138306Y-99808036D01*
X185259467Y-99393115D01*
X185416697Y-98988647D01*
X185609802Y-98597219D01*
X185838586Y-98221416D01*
X186102853Y-97863824D01*
X186402407Y-97527028D01*
X186443548Y-97485292D01*
X186786234Y-97171145D01*
X187152098Y-96892158D01*
X187539639Y-96649093D01*
X187947357Y-96442712D01*
X188373753Y-96273777D01*
X188817326Y-96143050D01*
X189259921Y-96053892D01*
X189406342Y-96036346D01*
X189584373Y-96023769D01*
X189783584Y-96016162D01*
X189993543Y-96013526D01*
X190203820Y-96015859D01*
G37*
X190647721Y-91610224D02*
X190941917Y-91635868D01*
X191575270Y-91721631D01*
X192199956Y-91847742D01*
X192813685Y-92013311D01*
X193414168Y-92217449D01*
X193999116Y-92459266D01*
X194566239Y-92737874D01*
X195113249Y-93052383D01*
X195637855Y-93401905D01*
X195806590Y-93525469D01*
X196016390Y-93685549D01*
X196202963Y-93834709D01*
X196376669Y-93981964D01*
X196547869Y-94136330D01*
X196726924Y-94306821D01*
X196890488Y-94468598D01*
X197304335Y-94907329D01*
X197680794Y-95357686D01*
X198024318Y-95825858D01*
X198339357Y-96318031D01*
X198630364Y-96840393D01*
X198711441Y-96999500D01*
X198980271Y-97584839D01*
X199209703Y-98185595D01*
X199399656Y-98801490D01*
X199550049Y-99432247D01*
X199660801Y-100077590D01*
X199698007Y-100375583D01*
X199708497Y-100500790D01*
X199716662Y-100660389D01*
X199722538Y-100846970D01*
X199726164Y-101053126D01*
X199727577Y-101271448D01*
X199726815Y-101494526D01*
X199723917Y-101714954D01*
X199718919Y-101925321D01*
X199711859Y-102118219D01*
X199702776Y-102286239D01*
X199691707Y-102421974D01*
X199687368Y-102460500D01*
X199585848Y-103120671D01*
X199447274Y-103760451D01*
X199271474Y-104380228D01*
X199058273Y-104980393D01*
X198807500Y-105561337D01*
X198518980Y-106123450D01*
X198192542Y-106667123D01*
X197828011Y-107192745D01*
X197425215Y-107700707D01*
X197299435Y-107846808D01*
X197229971Y-107923795D01*
X197144572Y-108014914D01*
X197047485Y-108115977D01*
X196942953Y-108222796D01*
X196835225Y-108331180D01*
X196728545Y-108436943D01*
X196627160Y-108535894D01*
X196535316Y-108623847D01*
X196457258Y-108696612D01*
X196397233Y-108750000D01*
X196359486Y-108779823D01*
X196348831Y-108784560D01*
X196331575Y-108767268D01*
X196288281Y-108719433D01*
X196220390Y-108642714D01*
X196129345Y-108538768D01*
X196016589Y-108409253D01*
X195883564Y-108255828D01*
X195731713Y-108080150D01*
X195562478Y-107883878D01*
X195377301Y-107668670D01*
X195319478Y-107601388D01*
X195313342Y-107588460D01*
X195316619Y-107570285D01*
X195332291Y-107543379D01*
X195363339Y-107504262D01*
X195412745Y-107449450D01*
X195483490Y-107375462D01*
X195578556Y-107278816D01*
X195700065Y-107156888D01*
X195823044Y-107031729D01*
X195948879Y-106899784D01*
X196070453Y-106768796D01*
X196180650Y-106646503D01*
X196272354Y-106540648D01*
X196320388Y-106482167D01*
X196676023Y-106001610D01*
X196993445Y-105503471D01*
X197272315Y-104988477D01*
X197512293Y-104457357D01*
X197713039Y-103910837D01*
X197874212Y-103349646D01*
X197957247Y-102979083D01*
X198052533Y-102396161D01*
X198105768Y-101812848D01*
X198117169Y-101230782D01*
X198086956Y-100651602D01*
X198015347Y-100076948D01*
X197902560Y-99508460D01*
X197748814Y-98947776D01*
X197554327Y-98396535D01*
X197319318Y-97856377D01*
X197257499Y-97729750D01*
X196979311Y-97218596D01*
X196667426Y-96731852D01*
X196323624Y-96270827D01*
X195949685Y-95836835D01*
X195547389Y-95431185D01*
X195118515Y-95055189D01*
X194664844Y-94710160D01*
X194188156Y-94397407D01*
X193690231Y-94118243D01*
X193172849Y-93873978D01*
X192637789Y-93665925D01*
X192086831Y-93495394D01*
X191521756Y-93363697D01*
X191270000Y-93318536D01*
X191078190Y-93288645D01*
X190905924Y-93265364D01*
X190743073Y-93247947D01*
X190579506Y-93235650D01*
X190405092Y-93227727D01*
X190209700Y-93223432D01*
X189983201Y-93222022D01*
X189957667Y-93222011D01*
X189727383Y-93223166D01*
X189529251Y-93227128D01*
X189353142Y-93234643D01*
X189188924Y-93246455D01*
X189026468Y-93263309D01*
X188855642Y-93285951D01*
X188666316Y-93315126D01*
X188645333Y-93318536D01*
X188075093Y-93432926D01*
X187515137Y-93587971D01*
X186967273Y-93782851D01*
X186433310Y-94016744D01*
X185915054Y-94288831D01*
X185414315Y-94598289D01*
X184932899Y-94944299D01*
X184757166Y-95083759D01*
X184634133Y-95189128D01*
X184491394Y-95319804D01*
X184336201Y-95468454D01*
X184175802Y-95627741D01*
X184017448Y-95790332D01*
X183868389Y-95948890D01*
X183735875Y-96096083D01*
X183627156Y-96224574D01*
X183616762Y-96237500D01*
X183260937Y-96715587D01*
X182942714Y-97211408D01*
X182662508Y-97723278D01*
X182420735Y-98249511D01*
X182217809Y-98788421D01*
X182054144Y-99338323D01*
X181930155Y-99897533D01*
X181846258Y-100464363D01*
X181802865Y-101037130D01*
X181800393Y-101614147D01*
X181839256Y-102193729D01*
X181919868Y-102774191D01*
X181958268Y-102978468D01*
X182093513Y-103548013D01*
X182267194Y-104100523D01*
X182479842Y-104637281D01*
X182731988Y-105159568D01*
X183024161Y-105668668D01*
X183155756Y-105874054D01*
X183314650Y-106107345D01*
X183471771Y-106321959D01*
X183634264Y-106526510D01*
X183809278Y-106729615D01*
X184003958Y-106939887D01*
X184225450Y-107165943D01*
X184236847Y-107177307D01*
X184362573Y-107302915D01*
X184460958Y-107402336D01*
X184534938Y-107478972D01*
X184587450Y-107536224D01*
X184621429Y-107577493D01*
X184639812Y-107606179D01*
X184645533Y-107625686D01*
X184641530Y-107639412D01*
X184638819Y-107642973D01*
X184618376Y-107666934D01*
X184573903Y-107719212D01*
X184508763Y-107795848D01*
X184426321Y-107892884D01*
X184329939Y-108006362D01*
X184222982Y-108132322D01*
X184128648Y-108243437D01*
X184016211Y-108375599D01*
X183912076Y-108497447D01*
X183819493Y-108605224D01*
X183741711Y-108695167D01*
X183681979Y-108763519D01*
X183643547Y-108806519D01*
X183630028Y-108820345D01*
X183606541Y-108812757D01*
X183561055Y-108782265D01*
X183502408Y-108734971D01*
X183487791Y-108722183D01*
X183016395Y-108275689D01*
X182578283Y-107803591D01*
X182174185Y-107307350D01*
X181804832Y-106788421D01*
X181470952Y-106248266D01*
X181173277Y-105688340D01*
X180912535Y-105110104D01*
X180689456Y-104515014D01*
X180504771Y-103904530D01*
X180359210Y-103280110D01*
X180253501Y-102643212D01*
X180200421Y-102153583D01*
X180184788Y-101899709D01*
X180177138Y-101615534D01*
X180177180Y-101312275D01*
X180184624Y-101001150D01*
X180199179Y-100693375D01*
X180220554Y-100400166D01*
X180248458Y-100132741D01*
X180253938Y-100089833D01*
X180356862Y-99467969D01*
X180500231Y-98854357D01*
X180682843Y-98251378D01*
X180903499Y-97661413D01*
X181160997Y-97086845D01*
X181454137Y-96530054D01*
X181781718Y-95993422D01*
X182142540Y-95479330D01*
X182535402Y-94990160D01*
X182959104Y-94528293D01*
X183156226Y-94333150D01*
X183633189Y-93903615D01*
X184133505Y-93508404D01*
X184655318Y-93148159D01*
X185196774Y-92823522D01*
X185756018Y-92535137D01*
X186331195Y-92283646D01*
X186920449Y-92069691D01*
X187521926Y-91893916D01*
X188133770Y-91756963D01*
X188754127Y-91659475D01*
X189381141Y-91602094D01*
X190012957Y-91585462D01*
X190647721Y-91610224D01*
G36*
X190647721Y-91610224D02*
G01*
X190941917Y-91635868D01*
X191575270Y-91721631D01*
X192199956Y-91847742D01*
X192813685Y-92013311D01*
X193414168Y-92217449D01*
X193999116Y-92459266D01*
X194566239Y-92737874D01*
X195113249Y-93052383D01*
X195637855Y-93401905D01*
X195806590Y-93525469D01*
X196016390Y-93685549D01*
X196202963Y-93834709D01*
X196376669Y-93981964D01*
X196547869Y-94136330D01*
X196726924Y-94306821D01*
X196890488Y-94468598D01*
X197304335Y-94907329D01*
X197680794Y-95357686D01*
X198024318Y-95825858D01*
X198339357Y-96318031D01*
X198630364Y-96840393D01*
X198711441Y-96999500D01*
X198980271Y-97584839D01*
X199209703Y-98185595D01*
X199399656Y-98801490D01*
X199550049Y-99432247D01*
X199660801Y-100077590D01*
X199698007Y-100375583D01*
X199708497Y-100500790D01*
X199716662Y-100660389D01*
X199722538Y-100846970D01*
X199726164Y-101053126D01*
X199727577Y-101271448D01*
X199726815Y-101494526D01*
X199723917Y-101714954D01*
X199718919Y-101925321D01*
X199711859Y-102118219D01*
X199702776Y-102286239D01*
X199691707Y-102421974D01*
X199687368Y-102460500D01*
X199585848Y-103120671D01*
X199447274Y-103760451D01*
X199271474Y-104380228D01*
X199058273Y-104980393D01*
X198807500Y-105561337D01*
X198518980Y-106123450D01*
X198192542Y-106667123D01*
X197828011Y-107192745D01*
X197425215Y-107700707D01*
X197299435Y-107846808D01*
X197229971Y-107923795D01*
X197144572Y-108014914D01*
X197047485Y-108115977D01*
X196942953Y-108222796D01*
X196835225Y-108331180D01*
X196728545Y-108436943D01*
X196627160Y-108535894D01*
X196535316Y-108623847D01*
X196457258Y-108696612D01*
X196397233Y-108750000D01*
X196359486Y-108779823D01*
X196348831Y-108784560D01*
X196331575Y-108767268D01*
X196288281Y-108719433D01*
X196220390Y-108642714D01*
X196129345Y-108538768D01*
X196016589Y-108409253D01*
X195883564Y-108255828D01*
X195731713Y-108080150D01*
X195562478Y-107883878D01*
X195377301Y-107668670D01*
X195319478Y-107601388D01*
X195313342Y-107588460D01*
X195316619Y-107570285D01*
X195332291Y-107543379D01*
X195363339Y-107504262D01*
X195412745Y-107449450D01*
X195483490Y-107375462D01*
X195578556Y-107278816D01*
X195700065Y-107156888D01*
X195823044Y-107031729D01*
X195948879Y-106899784D01*
X196070453Y-106768796D01*
X196180650Y-106646503D01*
X196272354Y-106540648D01*
X196320388Y-106482167D01*
X196676023Y-106001610D01*
X196993445Y-105503471D01*
X197272315Y-104988477D01*
X197512293Y-104457357D01*
X197713039Y-103910837D01*
X197874212Y-103349646D01*
X197957247Y-102979083D01*
X198052533Y-102396161D01*
X198105768Y-101812848D01*
X198117169Y-101230782D01*
X198086956Y-100651602D01*
X198015347Y-100076948D01*
X197902560Y-99508460D01*
X197748814Y-98947776D01*
X197554327Y-98396535D01*
X197319318Y-97856377D01*
X197257499Y-97729750D01*
X196979311Y-97218596D01*
X196667426Y-96731852D01*
X196323624Y-96270827D01*
X195949685Y-95836835D01*
X195547389Y-95431185D01*
X195118515Y-95055189D01*
X194664844Y-94710160D01*
X194188156Y-94397407D01*
X193690231Y-94118243D01*
X193172849Y-93873978D01*
X192637789Y-93665925D01*
X192086831Y-93495394D01*
X191521756Y-93363697D01*
X191270000Y-93318536D01*
X191078190Y-93288645D01*
X190905924Y-93265364D01*
X190743073Y-93247947D01*
X190579506Y-93235650D01*
X190405092Y-93227727D01*
X190209700Y-93223432D01*
X189983201Y-93222022D01*
X189957667Y-93222011D01*
X189727383Y-93223166D01*
X189529251Y-93227128D01*
X189353142Y-93234643D01*
X189188924Y-93246455D01*
X189026468Y-93263309D01*
X188855642Y-93285951D01*
X188666316Y-93315126D01*
X188645333Y-93318536D01*
X188075093Y-93432926D01*
X187515137Y-93587971D01*
X186967273Y-93782851D01*
X186433310Y-94016744D01*
X185915054Y-94288831D01*
X185414315Y-94598289D01*
X184932899Y-94944299D01*
X184757166Y-95083759D01*
X184634133Y-95189128D01*
X184491394Y-95319804D01*
X184336201Y-95468454D01*
X184175802Y-95627741D01*
X184017448Y-95790332D01*
X183868389Y-95948890D01*
X183735875Y-96096083D01*
X183627156Y-96224574D01*
X183616762Y-96237500D01*
X183260937Y-96715587D01*
X182942714Y-97211408D01*
X182662508Y-97723278D01*
X182420735Y-98249511D01*
X182217809Y-98788421D01*
X182054144Y-99338323D01*
X181930155Y-99897533D01*
X181846258Y-100464363D01*
X181802865Y-101037130D01*
X181800393Y-101614147D01*
X181839256Y-102193729D01*
X181919868Y-102774191D01*
X181958268Y-102978468D01*
X182093513Y-103548013D01*
X182267194Y-104100523D01*
X182479842Y-104637281D01*
X182731988Y-105159568D01*
X183024161Y-105668668D01*
X183155756Y-105874054D01*
X183314650Y-106107345D01*
X183471771Y-106321959D01*
X183634264Y-106526510D01*
X183809278Y-106729615D01*
X184003958Y-106939887D01*
X184225450Y-107165943D01*
X184236847Y-107177307D01*
X184362573Y-107302915D01*
X184460958Y-107402336D01*
X184534938Y-107478972D01*
X184587450Y-107536224D01*
X184621429Y-107577493D01*
X184639812Y-107606179D01*
X184645533Y-107625686D01*
X184641530Y-107639412D01*
X184638819Y-107642973D01*
X184618376Y-107666934D01*
X184573903Y-107719212D01*
X184508763Y-107795848D01*
X184426321Y-107892884D01*
X184329939Y-108006362D01*
X184222982Y-108132322D01*
X184128648Y-108243437D01*
X184016211Y-108375599D01*
X183912076Y-108497447D01*
X183819493Y-108605224D01*
X183741711Y-108695167D01*
X183681979Y-108763519D01*
X183643547Y-108806519D01*
X183630028Y-108820345D01*
X183606541Y-108812757D01*
X183561055Y-108782265D01*
X183502408Y-108734971D01*
X183487791Y-108722183D01*
X183016395Y-108275689D01*
X182578283Y-107803591D01*
X182174185Y-107307350D01*
X181804832Y-106788421D01*
X181470952Y-106248266D01*
X181173277Y-105688340D01*
X180912535Y-105110104D01*
X180689456Y-104515014D01*
X180504771Y-103904530D01*
X180359210Y-103280110D01*
X180253501Y-102643212D01*
X180200421Y-102153583D01*
X180184788Y-101899709D01*
X180177138Y-101615534D01*
X180177180Y-101312275D01*
X180184624Y-101001150D01*
X180199179Y-100693375D01*
X180220554Y-100400166D01*
X180248458Y-100132741D01*
X180253938Y-100089833D01*
X180356862Y-99467969D01*
X180500231Y-98854357D01*
X180682843Y-98251378D01*
X180903499Y-97661413D01*
X181160997Y-97086845D01*
X181454137Y-96530054D01*
X181781718Y-95993422D01*
X182142540Y-95479330D01*
X182535402Y-94990160D01*
X182959104Y-94528293D01*
X183156226Y-94333150D01*
X183633189Y-93903615D01*
X184133505Y-93508404D01*
X184655318Y-93148159D01*
X185196774Y-92823522D01*
X185756018Y-92535137D01*
X186331195Y-92283646D01*
X186920449Y-92069691D01*
X187521926Y-91893916D01*
X188133770Y-91756963D01*
X188754127Y-91659475D01*
X189381141Y-91602094D01*
X190012957Y-91585462D01*
X190647721Y-91610224D01*
G37*
%TD*%
D12*
%TO.C,Ref\u002A\u002A*%
X190000000Y-71000000D03*
%TD*%
%TO.C,Ref\u002A\u002A*%
X126000000Y-71000000D03*
%TD*%
D13*
%TO.C,U4*%
X38000000Y-76000000D03*
X40750000Y-76000000D03*
X43750000Y-76000000D03*
X46500000Y-76000000D03*
%TD*%
D14*
%TO.C,REF\u002A\u002A*%
X255000000Y-63000000D03*
X259000000Y-63000000D03*
%TD*%
D12*
%TO.C,Ref\u002A\u002A*%
X142000000Y-71000000D03*
%TD*%
%TO.C,Ref\u002A\u002A*%
X174000000Y-71000000D03*
%TD*%
D15*
%TO.C,J1*%
X147460000Y-149000000D03*
D16*
X147460000Y-151540000D03*
X150000000Y-149000000D03*
X150000000Y-151540000D03*
X152540000Y-149000000D03*
X152540000Y-151540000D03*
%TD*%
D12*
%TO.C,Ref\u002A\u002A*%
X110000000Y-71000000D03*
%TD*%
%TO.C,Ref\u002A\u002A*%
X158000000Y-71000000D03*
%TD*%
D13*
%TO.C,U5*%
X252750000Y-76000000D03*
X255500000Y-76000000D03*
X258500000Y-76000000D03*
X261250000Y-76000000D03*
%TD*%
D17*
%TO.C,S1*%
X87000000Y-61000000D03*
X84500000Y-61000000D03*
X82000000Y-61000000D03*
X87000000Y-64200000D03*
X84500000Y-64200000D03*
X82000000Y-64200000D03*
%TD*%
D18*
%TO.C,J3*%
X89000000Y-114000000D03*
D19*
X91000000Y-114000000D03*
%TD*%
D20*
%TO.C,U1*%
X168780000Y-111700000D03*
X166240000Y-111700000D03*
X163700000Y-111700000D03*
X161160000Y-111700000D03*
X158620000Y-111700000D03*
X156080000Y-111700000D03*
X153540000Y-111700000D03*
X151000000Y-111700000D03*
X148460000Y-111700000D03*
X145920000Y-111700000D03*
X143380000Y-111700000D03*
X140840000Y-111700000D03*
X138300000Y-111700000D03*
X135760000Y-111700000D03*
X133220000Y-111700000D03*
X133220000Y-86300000D03*
X135760000Y-86300000D03*
X138300000Y-86300000D03*
X140840000Y-86300000D03*
X143380000Y-86300000D03*
X145920000Y-86300000D03*
X148460000Y-86300000D03*
X151000000Y-86300000D03*
X153540000Y-86300000D03*
X156080000Y-86300000D03*
X158620000Y-86300000D03*
X161160000Y-86300000D03*
X163700000Y-86300000D03*
X166240000Y-86300000D03*
X168780000Y-86300000D03*
%TD*%
D21*
%TO.C,U3*%
X202620000Y-154985000D03*
X200080000Y-154985000D03*
X197540000Y-154985000D03*
X195000000Y-154985000D03*
X192460000Y-154985000D03*
X189920000Y-154985000D03*
X187380000Y-154985000D03*
X196651000Y-142000000D03*
X193349000Y-142000000D03*
%TD*%
D14*
%TO.C,REF\u002A\u002A*%
X45000000Y-63000000D03*
X41000000Y-63000000D03*
%TD*%
D15*
%TO.C,U2*%
X99000000Y-155080000D03*
D16*
X99000000Y-152540000D03*
X99000000Y-150000000D03*
X99000000Y-147460000D03*
X99000000Y-144920000D03*
X99000000Y-142380000D03*
%TD*%
M02*
