%TF.GenerationSoftware,KiCad,Pcbnew,7.0.7*%
%TF.CreationDate,2024-03-11T11:41:55-07:00*%
%TF.ProjectId,DC32_Cnet_Badge_Main,44433332-5f43-46e6-9574-5f4261646765,rev?*%
%TF.SameCoordinates,Original*%
%TF.FileFunction,Legend,Bot*%
%TF.FilePolarity,Positive*%
%FSLAX46Y46*%
G04 Gerber Fmt 4.6, Leading zero omitted, Abs format (unit mm)*
G04 Created by KiCad (PCBNEW 7.0.7) date 2024-03-11 11:41:55*
%MOMM*%
%LPD*%
G01*
G04 APERTURE LIST*
%ADD10C,0.150000*%
%ADD11C,0.100000*%
%ADD12C,0.203200*%
%ADD13C,0.120000*%
G04 APERTURE END LIST*
D10*
G36*
X79000000Y-62830000D02*
G01*
X78539357Y-62830000D01*
X78524617Y-62829666D01*
X78510132Y-62828664D01*
X78495903Y-62826994D01*
X78481930Y-62824657D01*
X78468212Y-62821651D01*
X78454750Y-62817978D01*
X78441544Y-62813637D01*
X78428593Y-62808628D01*
X78415898Y-62802952D01*
X78403459Y-62796607D01*
X78391276Y-62789594D01*
X78379348Y-62781914D01*
X78367676Y-62773566D01*
X78356259Y-62764550D01*
X78345099Y-62754866D01*
X78334193Y-62744515D01*
X78323753Y-62733698D01*
X78313986Y-62722620D01*
X78304893Y-62711281D01*
X78296473Y-62699681D01*
X78288727Y-62687819D01*
X78281655Y-62675695D01*
X78275256Y-62663310D01*
X78269530Y-62650664D01*
X78264478Y-62637757D01*
X78260100Y-62624587D01*
X78256395Y-62611157D01*
X78253364Y-62597465D01*
X78251007Y-62583512D01*
X78249323Y-62569297D01*
X78248313Y-62554821D01*
X78247976Y-62540083D01*
X78453140Y-62540083D01*
X78453239Y-62544498D01*
X78454355Y-62555158D01*
X78456712Y-62565282D01*
X78460309Y-62574869D01*
X78465146Y-62583920D01*
X78471223Y-62592434D01*
X78478541Y-62600411D01*
X78481727Y-62603369D01*
X78490050Y-62609928D01*
X78498886Y-62615295D01*
X78508234Y-62619469D01*
X78518096Y-62622450D01*
X78528470Y-62624239D01*
X78539357Y-62624836D01*
X78794836Y-62624836D01*
X78794836Y-62454110D01*
X78539357Y-62454110D01*
X78534941Y-62454209D01*
X78524259Y-62455325D01*
X78514090Y-62457682D01*
X78504433Y-62461279D01*
X78495290Y-62466116D01*
X78486659Y-62472193D01*
X78478541Y-62479511D01*
X78475465Y-62482696D01*
X78468643Y-62491008D01*
X78463062Y-62499821D01*
X78458721Y-62509135D01*
X78455620Y-62518951D01*
X78453760Y-62529266D01*
X78453140Y-62540083D01*
X78247976Y-62540083D01*
X78248243Y-62525386D01*
X78249044Y-62511030D01*
X78250380Y-62497015D01*
X78252250Y-62483343D01*
X78254654Y-62470011D01*
X78257593Y-62457022D01*
X78261066Y-62444373D01*
X78265073Y-62432067D01*
X78269614Y-62420102D01*
X78274690Y-62408478D01*
X78280300Y-62397196D01*
X78286444Y-62386256D01*
X78293123Y-62375657D01*
X78300335Y-62365400D01*
X78308082Y-62355484D01*
X78316364Y-62345910D01*
X78308082Y-62337844D01*
X78300335Y-62329340D01*
X78293123Y-62320396D01*
X78286444Y-62311014D01*
X78280300Y-62301193D01*
X78274690Y-62290933D01*
X78269614Y-62280234D01*
X78265073Y-62269096D01*
X78261066Y-62257519D01*
X78257593Y-62245503D01*
X78254654Y-62233049D01*
X78252250Y-62220156D01*
X78250380Y-62206823D01*
X78249044Y-62193052D01*
X78248243Y-62178842D01*
X78247976Y-62164193D01*
X78453140Y-62164193D01*
X78453239Y-62168578D01*
X78454355Y-62179173D01*
X78456712Y-62189244D01*
X78460309Y-62198789D01*
X78465146Y-62207810D01*
X78471223Y-62216306D01*
X78478541Y-62224277D01*
X78481727Y-62227264D01*
X78490050Y-62233889D01*
X78498886Y-62239310D01*
X78508234Y-62243525D01*
X78518096Y-62246537D01*
X78528470Y-62248344D01*
X78539357Y-62248946D01*
X78794836Y-62248946D01*
X78794836Y-62077976D01*
X78539357Y-62077976D01*
X78534941Y-62078075D01*
X78524259Y-62079191D01*
X78514090Y-62081548D01*
X78504433Y-62085145D01*
X78495290Y-62089982D01*
X78486659Y-62096059D01*
X78478541Y-62103377D01*
X78475465Y-62106563D01*
X78468643Y-62114886D01*
X78463062Y-62123722D01*
X78458721Y-62133070D01*
X78455620Y-62142932D01*
X78453760Y-62153306D01*
X78453140Y-62164193D01*
X78247976Y-62164193D01*
X78248313Y-62149454D01*
X78249323Y-62134972D01*
X78251007Y-62120748D01*
X78253364Y-62106781D01*
X78256395Y-62093072D01*
X78260100Y-62079621D01*
X78264478Y-62066427D01*
X78269530Y-62053490D01*
X78275256Y-62040812D01*
X78281655Y-62028391D01*
X78288727Y-62016227D01*
X78296473Y-62004321D01*
X78304893Y-61992673D01*
X78313986Y-61981282D01*
X78323753Y-61970149D01*
X78334193Y-61959274D01*
X78345099Y-61948833D01*
X78356259Y-61939066D01*
X78367676Y-61929973D01*
X78379348Y-61921553D01*
X78391276Y-61913807D01*
X78403459Y-61906735D01*
X78415898Y-61900336D01*
X78428593Y-61894610D01*
X78441544Y-61889559D01*
X78454750Y-61885180D01*
X78468212Y-61881476D01*
X78481930Y-61878445D01*
X78495903Y-61876087D01*
X78510132Y-61874403D01*
X78524617Y-61873393D01*
X78539357Y-61873056D01*
X79000000Y-61873056D01*
X79000000Y-62830000D01*
G37*
G36*
X77428297Y-62830000D02*
G01*
X77633461Y-62830000D01*
X77633461Y-62248946D01*
X77633901Y-62236061D01*
X77635221Y-62223512D01*
X77637421Y-62211298D01*
X77640502Y-62199418D01*
X77644462Y-62187873D01*
X77649303Y-62176663D01*
X77655024Y-62165788D01*
X77661625Y-62155248D01*
X77669106Y-62145043D01*
X77677467Y-62135172D01*
X77683531Y-62128778D01*
X77693060Y-62119699D01*
X77702962Y-62111513D01*
X77713238Y-62104220D01*
X77723888Y-62097821D01*
X77734911Y-62092314D01*
X77746308Y-62087700D01*
X77758078Y-62083979D01*
X77770221Y-62081151D01*
X77782739Y-62079216D01*
X77795629Y-62078174D01*
X77804431Y-62077976D01*
X77817315Y-62078422D01*
X77829864Y-62079762D01*
X77842079Y-62081994D01*
X77853959Y-62085120D01*
X77865503Y-62089138D01*
X77876713Y-62094050D01*
X77887588Y-62099855D01*
X77898128Y-62106552D01*
X77908334Y-62114143D01*
X77918204Y-62122626D01*
X77924598Y-62128778D01*
X77933634Y-62138425D01*
X77941780Y-62148407D01*
X77949038Y-62158724D01*
X77955407Y-62169376D01*
X77960888Y-62180363D01*
X77965479Y-62191684D01*
X77969182Y-62203341D01*
X77971997Y-62215332D01*
X77973922Y-62227658D01*
X77974959Y-62240319D01*
X77975157Y-62248946D01*
X77975157Y-62830000D01*
X78180321Y-62830000D01*
X78180321Y-62248946D01*
X78179888Y-62229792D01*
X78178592Y-62210981D01*
X78176431Y-62192514D01*
X78173405Y-62174391D01*
X78169516Y-62156611D01*
X78164761Y-62139174D01*
X78159143Y-62122081D01*
X78152660Y-62105331D01*
X78145313Y-62088925D01*
X78137101Y-62072862D01*
X78128025Y-62057143D01*
X78118084Y-62041767D01*
X78107279Y-62026734D01*
X78095610Y-62012045D01*
X78083077Y-61997700D01*
X78069678Y-61983698D01*
X78055648Y-61970300D01*
X78041278Y-61957766D01*
X78026568Y-61946097D01*
X78011518Y-61935292D01*
X77996129Y-61925352D01*
X77980400Y-61916276D01*
X77964332Y-61908064D01*
X77947923Y-61900717D01*
X77931176Y-61894234D01*
X77914088Y-61888615D01*
X77896661Y-61883861D01*
X77878894Y-61879971D01*
X77860788Y-61876946D01*
X77842342Y-61874785D01*
X77823556Y-61873488D01*
X77804431Y-61873056D01*
X77785131Y-61873488D01*
X77766188Y-61874785D01*
X77747601Y-61876946D01*
X77729372Y-61879971D01*
X77711499Y-61883861D01*
X77693983Y-61888615D01*
X77676824Y-61894234D01*
X77660022Y-61900717D01*
X77643577Y-61908064D01*
X77627488Y-61916276D01*
X77611757Y-61925352D01*
X77596382Y-61935292D01*
X77581364Y-61946097D01*
X77566702Y-61957766D01*
X77552398Y-61970300D01*
X77538450Y-61983698D01*
X77525111Y-61997700D01*
X77512633Y-62012045D01*
X77501015Y-62026734D01*
X77490258Y-62041767D01*
X77480362Y-62057143D01*
X77471325Y-62072862D01*
X77463150Y-62088925D01*
X77455835Y-62105331D01*
X77449381Y-62122081D01*
X77443787Y-62139174D01*
X77439054Y-62156611D01*
X77435181Y-62174391D01*
X77432169Y-62192514D01*
X77430018Y-62210981D01*
X77428727Y-62229792D01*
X77428297Y-62248946D01*
X77428297Y-62830000D01*
G37*
G36*
X77961479Y-62522498D02*
G01*
X77961077Y-62510567D01*
X77959873Y-62498953D01*
X77957866Y-62487657D01*
X77955056Y-62476679D01*
X77951443Y-62466019D01*
X77947028Y-62455676D01*
X77941809Y-62445651D01*
X77935788Y-62435944D01*
X77928963Y-62426555D01*
X77921336Y-62417483D01*
X77915806Y-62411612D01*
X77907024Y-62403318D01*
X77897899Y-62395841D01*
X77888431Y-62389179D01*
X77878620Y-62383333D01*
X77868464Y-62378302D01*
X77857966Y-62374088D01*
X77847124Y-62370689D01*
X77835938Y-62368106D01*
X77824409Y-62366338D01*
X77812537Y-62365387D01*
X77804431Y-62365205D01*
X77792543Y-62365613D01*
X77780969Y-62366837D01*
X77769708Y-62368876D01*
X77758761Y-62371731D01*
X77748127Y-62375402D01*
X77737807Y-62379889D01*
X77727800Y-62385191D01*
X77718106Y-62391309D01*
X77708726Y-62398243D01*
X77699659Y-62405992D01*
X77693789Y-62411612D01*
X77685452Y-62420472D01*
X77677935Y-62429649D01*
X77671238Y-62439145D01*
X77665361Y-62448958D01*
X77660304Y-62459089D01*
X77656068Y-62469537D01*
X77652651Y-62480303D01*
X77650054Y-62491387D01*
X77648277Y-62502789D01*
X77647321Y-62514508D01*
X77647138Y-62522498D01*
X77647548Y-62534599D01*
X77648778Y-62546357D01*
X77650828Y-62557772D01*
X77653699Y-62568843D01*
X77657389Y-62579570D01*
X77661899Y-62589955D01*
X77667229Y-62599995D01*
X77673379Y-62609692D01*
X77680349Y-62619046D01*
X77688140Y-62628056D01*
X77693789Y-62633872D01*
X77702647Y-62642035D01*
X77711818Y-62649394D01*
X77721303Y-62655951D01*
X77731101Y-62661705D01*
X77741212Y-62666656D01*
X77751637Y-62670804D01*
X77762375Y-62674149D01*
X77773427Y-62676691D01*
X77784792Y-62678431D01*
X77796471Y-62679367D01*
X77804431Y-62679546D01*
X77816532Y-62679144D01*
X77828290Y-62677940D01*
X77839705Y-62675933D01*
X77850776Y-62673123D01*
X77861503Y-62669510D01*
X77871888Y-62665095D01*
X77881928Y-62659876D01*
X77891625Y-62653855D01*
X77900979Y-62647030D01*
X77909989Y-62639403D01*
X77915806Y-62633872D01*
X77923968Y-62625091D01*
X77931327Y-62615966D01*
X77937884Y-62606498D01*
X77943638Y-62596687D01*
X77948589Y-62586531D01*
X77952737Y-62576033D01*
X77956082Y-62565191D01*
X77958624Y-62554005D01*
X77960364Y-62542476D01*
X77961301Y-62530604D01*
X77961479Y-62522498D01*
G37*
G36*
X77360642Y-61873056D02*
G01*
X76608618Y-61873056D01*
X76608618Y-62077976D01*
X76882170Y-62077976D01*
X76882170Y-62830000D01*
X77087090Y-62830000D01*
X77087090Y-62077976D01*
X77360642Y-62077976D01*
X77360642Y-61873056D01*
G37*
G36*
X76540963Y-61873056D02*
G01*
X75788939Y-61873056D01*
X75788939Y-62077976D01*
X76062491Y-62077976D01*
X76062491Y-62830000D01*
X76267411Y-62830000D01*
X76267411Y-62077976D01*
X76540963Y-62077976D01*
X76540963Y-61873056D01*
G37*
G36*
X91247976Y-61873056D02*
G01*
X91247976Y-62454110D01*
X91248406Y-62473235D01*
X91249697Y-62492021D01*
X91251848Y-62510467D01*
X91254860Y-62528573D01*
X91258733Y-62546340D01*
X91263466Y-62563767D01*
X91269060Y-62580855D01*
X91275514Y-62597602D01*
X91282829Y-62614011D01*
X91291004Y-62630079D01*
X91300041Y-62645808D01*
X91309937Y-62661197D01*
X91320694Y-62676247D01*
X91332312Y-62690957D01*
X91344790Y-62705327D01*
X91358129Y-62719357D01*
X91372077Y-62732756D01*
X91386381Y-62745289D01*
X91401043Y-62756958D01*
X91416061Y-62767763D01*
X91431436Y-62777704D01*
X91447167Y-62786780D01*
X91463256Y-62794992D01*
X91479701Y-62802339D01*
X91496503Y-62808822D01*
X91513662Y-62814440D01*
X91531178Y-62819195D01*
X91549051Y-62823084D01*
X91567280Y-62826110D01*
X91585867Y-62828271D01*
X91604810Y-62829567D01*
X91624110Y-62830000D01*
X91643235Y-62829567D01*
X91662021Y-62828271D01*
X91680467Y-62826110D01*
X91698573Y-62823084D01*
X91716340Y-62819195D01*
X91733767Y-62814440D01*
X91750855Y-62808822D01*
X91767602Y-62802339D01*
X91784011Y-62794992D01*
X91800079Y-62786780D01*
X91815808Y-62777704D01*
X91831197Y-62767763D01*
X91846247Y-62756958D01*
X91860957Y-62745289D01*
X91875327Y-62732756D01*
X91889357Y-62719357D01*
X91902756Y-62705327D01*
X91915289Y-62690957D01*
X91926958Y-62676247D01*
X91937763Y-62661197D01*
X91947704Y-62645808D01*
X91956780Y-62630079D01*
X91964992Y-62614011D01*
X91972339Y-62597602D01*
X91978822Y-62580855D01*
X91984440Y-62563767D01*
X91989195Y-62546340D01*
X91993084Y-62528573D01*
X91996110Y-62510467D01*
X91998271Y-62492021D01*
X91999567Y-62473235D01*
X92000000Y-62454110D01*
X92000000Y-61873056D01*
X91794836Y-61873056D01*
X91794836Y-62454110D01*
X91794391Y-62466994D01*
X91793058Y-62479543D01*
X91790836Y-62491758D01*
X91787726Y-62503638D01*
X91783727Y-62515182D01*
X91778839Y-62526392D01*
X91773062Y-62537267D01*
X91766396Y-62547807D01*
X91758842Y-62558013D01*
X91750400Y-62567883D01*
X91744277Y-62574277D01*
X91734630Y-62583313D01*
X91724648Y-62591459D01*
X91714331Y-62598717D01*
X91703679Y-62605086D01*
X91692693Y-62610567D01*
X91681371Y-62615158D01*
X91669715Y-62618861D01*
X91657724Y-62621676D01*
X91645398Y-62623601D01*
X91632736Y-62624638D01*
X91624110Y-62624836D01*
X91610970Y-62624391D01*
X91598204Y-62623058D01*
X91585811Y-62620836D01*
X91573792Y-62617726D01*
X91562146Y-62613727D01*
X91550874Y-62608839D01*
X91539975Y-62603062D01*
X91529450Y-62596396D01*
X91519299Y-62588842D01*
X91509521Y-62580400D01*
X91503210Y-62574277D01*
X91494262Y-62564630D01*
X91486194Y-62554648D01*
X91479006Y-62544331D01*
X91472698Y-62533679D01*
X91467271Y-62522693D01*
X91462723Y-62511371D01*
X91459056Y-62499715D01*
X91456269Y-62487724D01*
X91454362Y-62475398D01*
X91453335Y-62462736D01*
X91453140Y-62454110D01*
X91453140Y-61873056D01*
X91247976Y-61873056D01*
G37*
G36*
X90428297Y-61873056D02*
G01*
X90428297Y-62077976D01*
X90889183Y-62077976D01*
X90900006Y-62078596D01*
X90910340Y-62080456D01*
X90920184Y-62083557D01*
X90929540Y-62087898D01*
X90938407Y-62093479D01*
X90946785Y-62100301D01*
X90950000Y-62103377D01*
X90957247Y-62111495D01*
X90963266Y-62120126D01*
X90968057Y-62129269D01*
X90971619Y-62138926D01*
X90973953Y-62149095D01*
X90975058Y-62159777D01*
X90975157Y-62164193D01*
X90974542Y-62174998D01*
X90972700Y-62185279D01*
X90969629Y-62195034D01*
X90965330Y-62204265D01*
X90959802Y-62212971D01*
X90953046Y-62221152D01*
X90950000Y-62224277D01*
X90941817Y-62231384D01*
X90933146Y-62237286D01*
X90923985Y-62241984D01*
X90914336Y-62245477D01*
X90904198Y-62247765D01*
X90893571Y-62248849D01*
X90889183Y-62248946D01*
X90719678Y-62250411D01*
X90704589Y-62250745D01*
X90689789Y-62251747D01*
X90675280Y-62253417D01*
X90661060Y-62255754D01*
X90647131Y-62258759D01*
X90633491Y-62262433D01*
X90620142Y-62266774D01*
X90607083Y-62271782D01*
X90594313Y-62277459D01*
X90581834Y-62283804D01*
X90569645Y-62290816D01*
X90557745Y-62298497D01*
X90546136Y-62306845D01*
X90534817Y-62315861D01*
X90523788Y-62325545D01*
X90513049Y-62335896D01*
X90502786Y-62346683D01*
X90493185Y-62357733D01*
X90484247Y-62369046D01*
X90475970Y-62380623D01*
X90468355Y-62392463D01*
X90461403Y-62404567D01*
X90455113Y-62416933D01*
X90449485Y-62429563D01*
X90444519Y-62442457D01*
X90440215Y-62455613D01*
X90436573Y-62469033D01*
X90433594Y-62482717D01*
X90431276Y-62496663D01*
X90429621Y-62510873D01*
X90428628Y-62525347D01*
X90428297Y-62540083D01*
X90428631Y-62554824D01*
X90429632Y-62569308D01*
X90431302Y-62583537D01*
X90433640Y-62597511D01*
X90436645Y-62611229D01*
X90440318Y-62624690D01*
X90444659Y-62637897D01*
X90449668Y-62650847D01*
X90455345Y-62663542D01*
X90461689Y-62675981D01*
X90468702Y-62688165D01*
X90476382Y-62700093D01*
X90484730Y-62711765D01*
X90493746Y-62723181D01*
X90503430Y-62734342D01*
X90513782Y-62745247D01*
X90524604Y-62755688D01*
X90535699Y-62765455D01*
X90547067Y-62774548D01*
X90558707Y-62782967D01*
X90570621Y-62790714D01*
X90582807Y-62797786D01*
X90595266Y-62804185D01*
X90607998Y-62809911D01*
X90621003Y-62814962D01*
X90634281Y-62819341D01*
X90647832Y-62823045D01*
X90661656Y-62826076D01*
X90675752Y-62828434D01*
X90690121Y-62830118D01*
X90704763Y-62831128D01*
X90719678Y-62831465D01*
X91180321Y-62830000D01*
X91180321Y-62624836D01*
X90719678Y-62624836D01*
X90708791Y-62624239D01*
X90698417Y-62622450D01*
X90688555Y-62619469D01*
X90679207Y-62615295D01*
X90670371Y-62609928D01*
X90662048Y-62603369D01*
X90658862Y-62600411D01*
X90651544Y-62592434D01*
X90645467Y-62583920D01*
X90640630Y-62574869D01*
X90637033Y-62565282D01*
X90634676Y-62555158D01*
X90633560Y-62544498D01*
X90633461Y-62540083D01*
X90634081Y-62529278D01*
X90635941Y-62518998D01*
X90639042Y-62509243D01*
X90643383Y-62500012D01*
X90648964Y-62491306D01*
X90655786Y-62483125D01*
X90658862Y-62480000D01*
X90666980Y-62472893D01*
X90675611Y-62466991D01*
X90684754Y-62462293D01*
X90694411Y-62458800D01*
X90704580Y-62456511D01*
X90715262Y-62455427D01*
X90719678Y-62455331D01*
X90889183Y-62454110D01*
X90904243Y-62453776D01*
X90919015Y-62452774D01*
X90933499Y-62451104D01*
X90947694Y-62448767D01*
X90961602Y-62445762D01*
X90975221Y-62442088D01*
X90988553Y-62437747D01*
X91001596Y-62432739D01*
X91014351Y-62427062D01*
X91026818Y-62420717D01*
X91038996Y-62413705D01*
X91050887Y-62406024D01*
X91062490Y-62397676D01*
X91073804Y-62388660D01*
X91084830Y-62378976D01*
X91095568Y-62368625D01*
X91105831Y-62357808D01*
X91115432Y-62346731D01*
X91124371Y-62335392D01*
X91132647Y-62323791D01*
X91140262Y-62311929D01*
X91147214Y-62299806D01*
X91153504Y-62287421D01*
X91159132Y-62274774D01*
X91164098Y-62261867D01*
X91168402Y-62248698D01*
X91172044Y-62235267D01*
X91175023Y-62221575D01*
X91177341Y-62207622D01*
X91178996Y-62193407D01*
X91179989Y-62178931D01*
X91180321Y-62164193D01*
X91179987Y-62149454D01*
X91178985Y-62134972D01*
X91177315Y-62120748D01*
X91174978Y-62106781D01*
X91171972Y-62093072D01*
X91168299Y-62079621D01*
X91163958Y-62066427D01*
X91158949Y-62053490D01*
X91153273Y-62040812D01*
X91146928Y-62028391D01*
X91139915Y-62016227D01*
X91132235Y-62004321D01*
X91123887Y-61992673D01*
X91114871Y-61981282D01*
X91105187Y-61970149D01*
X91094836Y-61959274D01*
X91084014Y-61948833D01*
X91072922Y-61939066D01*
X91061559Y-61929973D01*
X91049925Y-61921553D01*
X91038020Y-61913807D01*
X91025845Y-61906735D01*
X91013398Y-61900336D01*
X91000680Y-61894610D01*
X90987691Y-61889559D01*
X90974431Y-61885180D01*
X90960901Y-61881476D01*
X90947099Y-61878445D01*
X90933027Y-61876087D01*
X90918683Y-61874403D01*
X90904068Y-61873393D01*
X90889183Y-61873056D01*
X90428297Y-61873056D01*
G37*
G36*
X90360642Y-62830000D02*
G01*
X89900000Y-62830000D01*
X89885259Y-62829666D01*
X89870774Y-62828664D01*
X89856545Y-62826994D01*
X89842572Y-62824657D01*
X89828854Y-62821651D01*
X89815392Y-62817978D01*
X89802186Y-62813637D01*
X89789235Y-62808628D01*
X89776540Y-62802952D01*
X89764101Y-62796607D01*
X89751918Y-62789594D01*
X89739990Y-62781914D01*
X89728318Y-62773566D01*
X89716901Y-62764550D01*
X89705741Y-62754866D01*
X89694836Y-62744515D01*
X89684395Y-62733698D01*
X89674628Y-62722620D01*
X89665535Y-62711281D01*
X89657115Y-62699681D01*
X89649369Y-62687819D01*
X89642297Y-62675695D01*
X89635898Y-62663310D01*
X89630172Y-62650664D01*
X89625120Y-62637757D01*
X89620742Y-62624587D01*
X89617037Y-62611157D01*
X89614006Y-62597465D01*
X89611649Y-62583512D01*
X89609965Y-62569297D01*
X89608955Y-62554821D01*
X89608618Y-62540083D01*
X89813782Y-62540083D01*
X89813881Y-62544498D01*
X89814997Y-62555158D01*
X89817354Y-62565282D01*
X89820951Y-62574869D01*
X89825788Y-62583920D01*
X89831865Y-62592434D01*
X89839183Y-62600411D01*
X89842369Y-62603369D01*
X89850692Y-62609928D01*
X89859528Y-62615295D01*
X89868876Y-62619469D01*
X89878738Y-62622450D01*
X89889112Y-62624239D01*
X89900000Y-62624836D01*
X90155478Y-62624836D01*
X90155478Y-62454110D01*
X89900000Y-62454110D01*
X89895583Y-62454209D01*
X89884901Y-62455325D01*
X89874732Y-62457682D01*
X89865075Y-62461279D01*
X89855932Y-62466116D01*
X89847301Y-62472193D01*
X89839183Y-62479511D01*
X89836107Y-62482696D01*
X89829285Y-62491008D01*
X89823704Y-62499821D01*
X89819363Y-62509135D01*
X89816262Y-62518951D01*
X89814402Y-62529266D01*
X89813782Y-62540083D01*
X89608618Y-62540083D01*
X89608885Y-62525386D01*
X89609686Y-62511030D01*
X89611022Y-62497015D01*
X89612892Y-62483343D01*
X89615296Y-62470011D01*
X89618235Y-62457022D01*
X89621708Y-62444373D01*
X89625715Y-62432067D01*
X89630256Y-62420102D01*
X89635332Y-62408478D01*
X89640942Y-62397196D01*
X89647086Y-62386256D01*
X89653765Y-62375657D01*
X89660977Y-62365400D01*
X89668724Y-62355484D01*
X89677006Y-62345910D01*
X89668724Y-62337844D01*
X89660977Y-62329340D01*
X89653765Y-62320396D01*
X89647086Y-62311014D01*
X89640942Y-62301193D01*
X89635332Y-62290933D01*
X89630256Y-62280234D01*
X89625715Y-62269096D01*
X89621708Y-62257519D01*
X89618235Y-62245503D01*
X89615296Y-62233049D01*
X89612892Y-62220156D01*
X89611022Y-62206823D01*
X89609686Y-62193052D01*
X89608885Y-62178842D01*
X89608618Y-62164193D01*
X89813782Y-62164193D01*
X89813881Y-62168578D01*
X89814997Y-62179173D01*
X89817354Y-62189244D01*
X89820951Y-62198789D01*
X89825788Y-62207810D01*
X89831865Y-62216306D01*
X89839183Y-62224277D01*
X89842369Y-62227264D01*
X89850692Y-62233889D01*
X89859528Y-62239310D01*
X89868876Y-62243525D01*
X89878738Y-62246537D01*
X89889112Y-62248344D01*
X89900000Y-62248946D01*
X90155478Y-62248946D01*
X90155478Y-62077976D01*
X89900000Y-62077976D01*
X89895583Y-62078075D01*
X89884901Y-62079191D01*
X89874732Y-62081548D01*
X89865075Y-62085145D01*
X89855932Y-62089982D01*
X89847301Y-62096059D01*
X89839183Y-62103377D01*
X89836107Y-62106563D01*
X89829285Y-62114886D01*
X89823704Y-62123722D01*
X89819363Y-62133070D01*
X89816262Y-62142932D01*
X89814402Y-62153306D01*
X89813782Y-62164193D01*
X89608618Y-62164193D01*
X89608955Y-62149454D01*
X89609965Y-62134972D01*
X89611649Y-62120748D01*
X89614006Y-62106781D01*
X89617037Y-62093072D01*
X89620742Y-62079621D01*
X89625120Y-62066427D01*
X89630172Y-62053490D01*
X89635898Y-62040812D01*
X89642297Y-62028391D01*
X89649369Y-62016227D01*
X89657115Y-62004321D01*
X89665535Y-61992673D01*
X89674628Y-61981282D01*
X89684395Y-61970149D01*
X89694836Y-61959274D01*
X89705741Y-61948833D01*
X89716901Y-61939066D01*
X89728318Y-61929973D01*
X89739990Y-61921553D01*
X89751918Y-61913807D01*
X89764101Y-61906735D01*
X89776540Y-61900336D01*
X89789235Y-61894610D01*
X89802186Y-61889559D01*
X89815392Y-61885180D01*
X89828854Y-61881476D01*
X89842572Y-61878445D01*
X89856545Y-61876087D01*
X89870774Y-61874403D01*
X89885259Y-61873393D01*
X89900000Y-61873056D01*
X90360642Y-61873056D01*
X90360642Y-62830000D01*
G37*
G36*
X87000000Y-66830000D02*
G01*
X86794836Y-66830000D01*
X86794836Y-66454110D01*
X86539357Y-66454110D01*
X86524617Y-66453776D01*
X86510132Y-66452774D01*
X86495903Y-66451104D01*
X86481930Y-66448767D01*
X86468212Y-66445762D01*
X86454750Y-66442088D01*
X86441544Y-66437747D01*
X86428593Y-66432739D01*
X86415898Y-66427062D01*
X86403459Y-66420717D01*
X86391276Y-66413705D01*
X86379348Y-66406024D01*
X86367676Y-66397676D01*
X86356259Y-66388660D01*
X86345099Y-66378976D01*
X86334193Y-66368625D01*
X86323753Y-66357808D01*
X86313986Y-66346731D01*
X86304893Y-66335392D01*
X86296473Y-66323791D01*
X86288727Y-66311929D01*
X86281655Y-66299806D01*
X86275256Y-66287421D01*
X86269530Y-66274774D01*
X86264478Y-66261867D01*
X86260100Y-66248698D01*
X86256395Y-66235267D01*
X86253364Y-66221575D01*
X86251007Y-66207622D01*
X86249323Y-66193407D01*
X86248313Y-66178931D01*
X86247976Y-66164193D01*
X86453140Y-66164193D01*
X86453239Y-66168578D01*
X86454355Y-66179173D01*
X86456712Y-66189244D01*
X86460309Y-66198789D01*
X86465146Y-66207810D01*
X86471223Y-66216306D01*
X86478541Y-66224277D01*
X86481727Y-66227264D01*
X86490050Y-66233889D01*
X86498886Y-66239310D01*
X86508234Y-66243525D01*
X86518096Y-66246537D01*
X86528470Y-66248344D01*
X86539357Y-66248946D01*
X86794836Y-66248946D01*
X86794836Y-66077976D01*
X86539357Y-66077976D01*
X86534941Y-66078075D01*
X86524259Y-66079191D01*
X86514090Y-66081548D01*
X86504433Y-66085145D01*
X86495290Y-66089982D01*
X86486659Y-66096059D01*
X86478541Y-66103377D01*
X86475465Y-66106563D01*
X86468643Y-66114886D01*
X86463062Y-66123722D01*
X86458721Y-66133070D01*
X86455620Y-66142932D01*
X86453760Y-66153306D01*
X86453140Y-66164193D01*
X86247976Y-66164193D01*
X86248313Y-66149454D01*
X86249323Y-66134972D01*
X86251007Y-66120748D01*
X86253364Y-66106781D01*
X86256395Y-66093072D01*
X86260100Y-66079621D01*
X86264478Y-66066427D01*
X86269530Y-66053490D01*
X86275256Y-66040812D01*
X86281655Y-66028391D01*
X86288727Y-66016227D01*
X86296473Y-66004321D01*
X86304893Y-65992673D01*
X86313986Y-65981282D01*
X86323753Y-65970149D01*
X86334193Y-65959274D01*
X86345099Y-65948833D01*
X86356259Y-65939066D01*
X86367676Y-65929973D01*
X86379348Y-65921553D01*
X86391276Y-65913807D01*
X86403459Y-65906735D01*
X86415898Y-65900336D01*
X86428593Y-65894610D01*
X86441544Y-65889559D01*
X86454750Y-65885180D01*
X86468212Y-65881476D01*
X86481930Y-65878445D01*
X86495903Y-65876087D01*
X86510132Y-65874403D01*
X86524617Y-65873393D01*
X86539357Y-65873056D01*
X87000000Y-65873056D01*
X87000000Y-66830000D01*
G37*
G36*
X85714098Y-65873194D02*
G01*
X85726238Y-65873608D01*
X85738268Y-65874299D01*
X85750190Y-65875266D01*
X85762002Y-65876509D01*
X85773705Y-65878028D01*
X85785298Y-65879823D01*
X85796783Y-65881895D01*
X85808158Y-65884242D01*
X85819424Y-65886866D01*
X85830581Y-65889766D01*
X85841628Y-65892943D01*
X85852566Y-65896395D01*
X85863395Y-65900124D01*
X85874115Y-65904129D01*
X85884726Y-65908410D01*
X85895227Y-65912968D01*
X85905619Y-65917801D01*
X85915902Y-65922911D01*
X85926075Y-65928297D01*
X85936139Y-65933959D01*
X85946094Y-65939897D01*
X85955940Y-65946112D01*
X85965677Y-65952603D01*
X85975304Y-65959370D01*
X85984822Y-65966413D01*
X85994231Y-65973732D01*
X86003531Y-65981328D01*
X86012721Y-65989200D01*
X86021802Y-65997348D01*
X86030774Y-66005772D01*
X86039637Y-66014473D01*
X86048292Y-66023364D01*
X86056673Y-66032362D01*
X86064778Y-66041465D01*
X86072609Y-66050674D01*
X86080166Y-66059989D01*
X86087447Y-66069410D01*
X86094454Y-66078937D01*
X86101186Y-66088570D01*
X86107643Y-66098309D01*
X86113825Y-66108153D01*
X86119733Y-66118104D01*
X86125366Y-66128160D01*
X86130724Y-66138322D01*
X86135807Y-66148591D01*
X86140616Y-66158965D01*
X86145150Y-66169445D01*
X86149409Y-66180031D01*
X86153393Y-66190722D01*
X86157102Y-66201520D01*
X86160537Y-66212424D01*
X86163697Y-66223433D01*
X86166582Y-66234549D01*
X86169192Y-66245770D01*
X86171528Y-66257097D01*
X86173589Y-66268531D01*
X86175375Y-66280070D01*
X86176886Y-66291715D01*
X86178122Y-66303465D01*
X86179084Y-66315322D01*
X86179771Y-66327285D01*
X86180183Y-66339353D01*
X86180321Y-66351528D01*
X86180183Y-66363777D01*
X86179771Y-66375917D01*
X86179084Y-66387947D01*
X86178122Y-66399869D01*
X86176886Y-66411681D01*
X86175375Y-66423384D01*
X86173589Y-66434977D01*
X86171528Y-66446462D01*
X86169192Y-66457837D01*
X86166582Y-66469103D01*
X86163697Y-66480260D01*
X86160537Y-66491307D01*
X86157102Y-66502245D01*
X86153393Y-66513074D01*
X86149409Y-66523794D01*
X86145150Y-66534405D01*
X86140616Y-66544906D01*
X86135807Y-66555298D01*
X86130724Y-66565581D01*
X86125366Y-66575754D01*
X86119733Y-66585818D01*
X86113825Y-66595773D01*
X86107643Y-66605619D01*
X86101186Y-66615356D01*
X86094454Y-66624983D01*
X86087447Y-66634501D01*
X86080166Y-66643910D01*
X86072609Y-66653210D01*
X86064778Y-66662400D01*
X86056673Y-66671481D01*
X86048292Y-66680453D01*
X86039637Y-66689316D01*
X86030774Y-66697971D01*
X86021802Y-66706352D01*
X86012721Y-66714457D01*
X86003531Y-66722288D01*
X85994231Y-66729845D01*
X85984822Y-66737126D01*
X85975304Y-66744133D01*
X85965677Y-66750865D01*
X85955940Y-66757322D01*
X85946094Y-66763504D01*
X85936139Y-66769412D01*
X85926075Y-66775045D01*
X85915902Y-66780403D01*
X85905619Y-66785486D01*
X85895227Y-66790295D01*
X85884726Y-66794829D01*
X85874115Y-66799088D01*
X85863395Y-66803072D01*
X85852566Y-66806781D01*
X85841628Y-66810216D01*
X85830581Y-66813376D01*
X85819424Y-66816261D01*
X85808158Y-66818871D01*
X85796783Y-66821207D01*
X85785298Y-66823268D01*
X85773705Y-66825054D01*
X85762002Y-66826565D01*
X85750190Y-66827801D01*
X85738268Y-66828763D01*
X85726238Y-66829450D01*
X85714098Y-66829862D01*
X85701849Y-66830000D01*
X85689674Y-66829862D01*
X85677606Y-66829450D01*
X85665643Y-66828763D01*
X85653786Y-66827801D01*
X85642036Y-66826565D01*
X85630391Y-66825054D01*
X85618852Y-66823268D01*
X85607418Y-66821207D01*
X85596091Y-66818871D01*
X85584870Y-66816261D01*
X85573754Y-66813376D01*
X85562745Y-66810216D01*
X85551841Y-66806781D01*
X85541043Y-66803072D01*
X85530352Y-66799088D01*
X85519766Y-66794829D01*
X85509286Y-66790295D01*
X85498912Y-66785486D01*
X85488643Y-66780403D01*
X85478481Y-66775045D01*
X85468425Y-66769412D01*
X85458474Y-66763504D01*
X85448630Y-66757322D01*
X85438891Y-66750865D01*
X85429258Y-66744133D01*
X85419731Y-66737126D01*
X85410310Y-66729845D01*
X85400995Y-66722288D01*
X85391786Y-66714457D01*
X85382683Y-66706352D01*
X85373685Y-66697971D01*
X85364794Y-66689316D01*
X85356093Y-66680453D01*
X85347669Y-66671481D01*
X85339521Y-66662400D01*
X85331649Y-66653210D01*
X85324054Y-66643910D01*
X85316734Y-66634501D01*
X85309691Y-66624983D01*
X85302924Y-66615356D01*
X85296433Y-66605619D01*
X85290218Y-66595773D01*
X85284280Y-66585818D01*
X85278618Y-66575754D01*
X85273232Y-66565581D01*
X85268122Y-66555298D01*
X85263289Y-66544906D01*
X85258731Y-66534405D01*
X85254450Y-66523794D01*
X85250445Y-66513074D01*
X85246716Y-66502245D01*
X85243264Y-66491307D01*
X85240087Y-66480260D01*
X85237187Y-66469103D01*
X85234563Y-66457837D01*
X85232216Y-66446462D01*
X85230144Y-66434977D01*
X85228349Y-66423384D01*
X85226830Y-66411681D01*
X85225587Y-66399869D01*
X85224620Y-66387947D01*
X85223929Y-66375917D01*
X85223515Y-66363777D01*
X85223377Y-66351528D01*
X85428297Y-66351528D01*
X85428613Y-66365564D01*
X85429560Y-66379341D01*
X85431139Y-66392858D01*
X85433350Y-66406116D01*
X85436192Y-66419114D01*
X85439666Y-66431853D01*
X85443771Y-66444332D01*
X85448508Y-66456552D01*
X85453876Y-66468512D01*
X85459877Y-66480213D01*
X85466508Y-66491654D01*
X85473772Y-66502836D01*
X85481667Y-66513758D01*
X85490193Y-66524421D01*
X85499351Y-66534824D01*
X85509141Y-66544968D01*
X85519339Y-66554640D01*
X85529783Y-66563687D01*
X85540474Y-66572111D01*
X85551410Y-66579910D01*
X85562593Y-66587086D01*
X85574022Y-66593637D01*
X85585697Y-66599565D01*
X85597618Y-66604869D01*
X85609785Y-66609548D01*
X85622199Y-66613604D01*
X85634858Y-66617036D01*
X85647764Y-66619844D01*
X85660916Y-66622028D01*
X85674314Y-66623588D01*
X85687958Y-66624524D01*
X85701849Y-66624836D01*
X85715885Y-66624524D01*
X85729662Y-66623588D01*
X85743179Y-66622028D01*
X85756437Y-66619844D01*
X85769435Y-66617036D01*
X85782174Y-66613604D01*
X85794653Y-66609548D01*
X85806873Y-66604869D01*
X85818833Y-66599565D01*
X85830534Y-66593637D01*
X85841975Y-66587086D01*
X85853157Y-66579910D01*
X85864079Y-66572111D01*
X85874742Y-66563687D01*
X85885145Y-66554640D01*
X85895289Y-66544968D01*
X85904961Y-66534824D01*
X85914008Y-66524421D01*
X85922432Y-66513758D01*
X85930231Y-66502836D01*
X85937407Y-66491654D01*
X85943958Y-66480213D01*
X85949886Y-66468512D01*
X85955190Y-66456552D01*
X85959869Y-66444332D01*
X85963925Y-66431853D01*
X85967357Y-66419114D01*
X85970165Y-66406116D01*
X85972349Y-66392858D01*
X85973909Y-66379341D01*
X85974845Y-66365564D01*
X85975157Y-66351528D01*
X85974845Y-66337637D01*
X85973909Y-66323993D01*
X85972349Y-66310595D01*
X85970165Y-66297443D01*
X85967357Y-66284537D01*
X85963925Y-66271878D01*
X85959869Y-66259464D01*
X85955190Y-66247297D01*
X85949886Y-66235376D01*
X85943958Y-66223701D01*
X85937407Y-66212272D01*
X85930231Y-66201089D01*
X85922432Y-66190153D01*
X85914008Y-66179462D01*
X85904961Y-66169018D01*
X85895289Y-66158820D01*
X85885145Y-66149030D01*
X85874742Y-66139872D01*
X85864079Y-66131346D01*
X85853157Y-66123451D01*
X85841975Y-66116187D01*
X85830534Y-66109556D01*
X85818833Y-66103555D01*
X85806873Y-66098187D01*
X85794653Y-66093450D01*
X85782174Y-66089345D01*
X85769435Y-66085871D01*
X85756437Y-66083029D01*
X85743179Y-66080818D01*
X85729662Y-66079239D01*
X85715885Y-66078292D01*
X85701849Y-66077976D01*
X85687958Y-66078292D01*
X85674314Y-66079239D01*
X85660916Y-66080818D01*
X85647764Y-66083029D01*
X85634858Y-66085871D01*
X85622199Y-66089345D01*
X85609785Y-66093450D01*
X85597618Y-66098187D01*
X85585697Y-66103555D01*
X85574022Y-66109556D01*
X85562593Y-66116187D01*
X85551410Y-66123451D01*
X85540474Y-66131346D01*
X85529783Y-66139872D01*
X85519339Y-66149030D01*
X85509141Y-66158820D01*
X85499351Y-66169018D01*
X85490193Y-66179462D01*
X85481667Y-66190153D01*
X85473772Y-66201089D01*
X85466508Y-66212272D01*
X85459877Y-66223701D01*
X85453876Y-66235376D01*
X85448508Y-66247297D01*
X85443771Y-66259464D01*
X85439666Y-66271878D01*
X85436192Y-66284537D01*
X85433350Y-66297443D01*
X85431139Y-66310595D01*
X85429560Y-66323993D01*
X85428613Y-66337637D01*
X85428297Y-66351528D01*
X85223377Y-66351528D01*
X85223515Y-66339353D01*
X85223929Y-66327285D01*
X85224620Y-66315322D01*
X85225587Y-66303465D01*
X85226830Y-66291715D01*
X85228349Y-66280070D01*
X85230144Y-66268531D01*
X85232216Y-66257097D01*
X85234563Y-66245770D01*
X85237187Y-66234549D01*
X85240087Y-66223433D01*
X85243264Y-66212424D01*
X85246716Y-66201520D01*
X85250445Y-66190722D01*
X85254450Y-66180031D01*
X85258731Y-66169445D01*
X85263289Y-66158965D01*
X85268122Y-66148591D01*
X85273232Y-66138322D01*
X85278618Y-66128160D01*
X85284280Y-66118104D01*
X85290218Y-66108153D01*
X85296433Y-66098309D01*
X85302924Y-66088570D01*
X85309691Y-66078937D01*
X85316734Y-66069410D01*
X85324054Y-66059989D01*
X85331649Y-66050674D01*
X85339521Y-66041465D01*
X85347669Y-66032362D01*
X85356093Y-66023364D01*
X85364794Y-66014473D01*
X85373685Y-66005772D01*
X85382683Y-65997348D01*
X85391786Y-65989200D01*
X85400995Y-65981328D01*
X85410310Y-65973732D01*
X85419731Y-65966413D01*
X85429258Y-65959370D01*
X85438891Y-65952603D01*
X85448630Y-65946112D01*
X85458474Y-65939897D01*
X85468425Y-65933959D01*
X85478481Y-65928297D01*
X85488643Y-65922911D01*
X85498912Y-65917801D01*
X85509286Y-65912968D01*
X85519766Y-65908410D01*
X85530352Y-65904129D01*
X85541043Y-65900124D01*
X85551841Y-65896395D01*
X85562745Y-65892943D01*
X85573754Y-65889766D01*
X85584870Y-65886866D01*
X85596091Y-65884242D01*
X85607418Y-65881895D01*
X85618852Y-65879823D01*
X85630391Y-65878028D01*
X85642036Y-65876509D01*
X85653786Y-65875266D01*
X85665643Y-65874299D01*
X85677606Y-65873608D01*
X85689674Y-65873194D01*
X85701849Y-65873056D01*
X85714098Y-65873194D01*
G37*
G36*
X84950314Y-65873056D02*
G01*
X84950314Y-66556448D01*
X84949524Y-66567530D01*
X84947154Y-66578063D01*
X84943204Y-66588046D01*
X84937674Y-66597480D01*
X84930564Y-66606365D01*
X84927843Y-66609204D01*
X84919142Y-66616840D01*
X84909891Y-66622897D01*
X84900091Y-66627373D01*
X84889741Y-66630270D01*
X84878842Y-66631587D01*
X84875087Y-66631674D01*
X84863698Y-66630884D01*
X84852979Y-66628514D01*
X84842930Y-66624565D01*
X84833550Y-66619035D01*
X84824840Y-66611925D01*
X84822086Y-66609204D01*
X84814616Y-66600503D01*
X84808691Y-66591252D01*
X84804312Y-66581452D01*
X84801478Y-66571102D01*
X84800190Y-66560203D01*
X84800104Y-66556448D01*
X84800104Y-65873056D01*
X84594940Y-65873056D01*
X84594940Y-66556448D01*
X84594176Y-66567530D01*
X84591883Y-66578063D01*
X84588062Y-66588046D01*
X84582713Y-66597480D01*
X84575835Y-66606365D01*
X84573203Y-66609204D01*
X84564573Y-66616840D01*
X84555171Y-66622897D01*
X84544995Y-66627373D01*
X84534047Y-66630270D01*
X84524334Y-66631477D01*
X84518248Y-66631674D01*
X84506808Y-66630884D01*
X84495934Y-66628514D01*
X84485627Y-66624565D01*
X84475887Y-66619035D01*
X84466714Y-66611925D01*
X84463782Y-66609204D01*
X84457027Y-66601991D01*
X84450432Y-66592832D01*
X84445486Y-66583123D01*
X84442189Y-66572865D01*
X84440541Y-66562057D01*
X84440334Y-66556448D01*
X84440334Y-65873056D01*
X84232728Y-65873056D01*
X84232728Y-66556448D01*
X84233043Y-66570339D01*
X84233987Y-66583986D01*
X84235562Y-66597389D01*
X84237766Y-66610547D01*
X84240599Y-66623462D01*
X84244062Y-66636132D01*
X84248155Y-66648558D01*
X84252878Y-66660739D01*
X84258230Y-66672677D01*
X84264212Y-66684370D01*
X84270824Y-66695819D01*
X84278066Y-66707023D01*
X84285937Y-66717984D01*
X84294438Y-66728700D01*
X84303568Y-66739172D01*
X84313328Y-66749399D01*
X84323526Y-66759160D01*
X84333971Y-66768290D01*
X84344661Y-66776791D01*
X84355597Y-66784662D01*
X84366780Y-66791903D01*
X84378209Y-66798515D01*
X84389884Y-66804497D01*
X84401805Y-66809849D01*
X84413972Y-66814572D01*
X84426386Y-66818665D01*
X84439046Y-66822128D01*
X84451951Y-66824962D01*
X84465103Y-66827166D01*
X84478501Y-66828740D01*
X84492145Y-66829685D01*
X84506036Y-66830000D01*
X84520093Y-66829732D01*
X84533872Y-66828931D01*
X84547372Y-66827595D01*
X84560594Y-66825725D01*
X84573536Y-66823321D01*
X84586201Y-66820382D01*
X84598587Y-66816910D01*
X84610694Y-66812903D01*
X84622522Y-66808361D01*
X84634072Y-66803285D01*
X84645344Y-66797675D01*
X84656337Y-66791531D01*
X84667051Y-66784853D01*
X84677487Y-66777640D01*
X84687644Y-66769893D01*
X84697522Y-66761612D01*
X84706715Y-66769893D01*
X84716218Y-66777640D01*
X84726033Y-66784853D01*
X84736158Y-66791531D01*
X84746595Y-66797675D01*
X84757343Y-66803285D01*
X84768401Y-66808361D01*
X84779771Y-66812903D01*
X84791452Y-66816910D01*
X84803443Y-66820382D01*
X84815746Y-66823321D01*
X84828360Y-66825725D01*
X84841285Y-66827595D01*
X84854521Y-66828931D01*
X84868068Y-66829732D01*
X84881926Y-66830000D01*
X84895991Y-66829685D01*
X84909796Y-66828740D01*
X84923339Y-66827166D01*
X84936621Y-66824962D01*
X84949641Y-66822128D01*
X84962400Y-66818665D01*
X84974897Y-66814572D01*
X84987133Y-66809849D01*
X84999108Y-66804497D01*
X85010821Y-66798515D01*
X85022273Y-66791903D01*
X85033463Y-66784662D01*
X85044392Y-66776791D01*
X85055059Y-66768290D01*
X85065465Y-66759160D01*
X85075610Y-66749399D01*
X85085282Y-66739172D01*
X85094329Y-66728700D01*
X85102753Y-66717984D01*
X85110552Y-66707023D01*
X85117728Y-66695819D01*
X85124279Y-66684370D01*
X85130207Y-66672677D01*
X85135511Y-66660739D01*
X85140190Y-66648558D01*
X85144246Y-66636132D01*
X85147678Y-66623462D01*
X85150486Y-66610547D01*
X85152670Y-66597389D01*
X85154230Y-66583986D01*
X85155166Y-66570339D01*
X85155478Y-66556448D01*
X85155478Y-65873056D01*
X84950314Y-65873056D01*
G37*
G36*
X83412805Y-65873056D02*
G01*
X83412805Y-66077976D01*
X83874912Y-66077976D01*
X83885788Y-66078596D01*
X83896126Y-66080456D01*
X83905928Y-66083557D01*
X83915193Y-66087898D01*
X83923922Y-66093479D01*
X83932114Y-66100301D01*
X83935240Y-66103377D01*
X83942277Y-66111495D01*
X83948120Y-66120126D01*
X83952771Y-66129269D01*
X83956230Y-66138926D01*
X83958496Y-66149095D01*
X83959569Y-66159777D01*
X83959665Y-66164193D01*
X83959665Y-66248946D01*
X83412805Y-66248946D01*
X83412805Y-66454110D01*
X83959665Y-66454110D01*
X83959665Y-66540083D01*
X83959068Y-66550958D01*
X83957279Y-66561297D01*
X83954298Y-66571099D01*
X83950124Y-66580364D01*
X83944757Y-66589093D01*
X83938198Y-66597285D01*
X83935240Y-66600411D01*
X83927263Y-66607448D01*
X83918749Y-66613291D01*
X83909699Y-66617942D01*
X83900111Y-66621401D01*
X83889987Y-66623667D01*
X83879327Y-66624740D01*
X83874912Y-66624836D01*
X83412805Y-66624836D01*
X83412805Y-66830000D01*
X83959665Y-66830000D01*
X83970166Y-66829765D01*
X83980482Y-66829061D01*
X83990614Y-66827887D01*
X84000560Y-66826244D01*
X84010321Y-66824132D01*
X84019897Y-66821550D01*
X84029288Y-66818499D01*
X84038494Y-66814979D01*
X84047515Y-66810989D01*
X84056350Y-66806529D01*
X84065001Y-66801601D01*
X84073466Y-66796202D01*
X84081747Y-66790335D01*
X84089842Y-66783998D01*
X84097752Y-66777192D01*
X84105478Y-66769916D01*
X84112836Y-66762279D01*
X84119708Y-66754452D01*
X84126094Y-66746434D01*
X84131993Y-66738225D01*
X84137406Y-66729826D01*
X84142331Y-66721235D01*
X84146771Y-66712454D01*
X84150724Y-66703482D01*
X84154190Y-66694319D01*
X84157169Y-66684965D01*
X84159662Y-66675420D01*
X84161669Y-66665685D01*
X84163188Y-66655759D01*
X84164222Y-66645642D01*
X84164768Y-66635334D01*
X84164829Y-66624836D01*
X84164829Y-66077976D01*
X84164768Y-66067333D01*
X84164222Y-66056898D01*
X84163188Y-66046672D01*
X84161669Y-66036653D01*
X84159662Y-66026842D01*
X84157169Y-66017239D01*
X84154190Y-66007845D01*
X84150724Y-65998658D01*
X84146771Y-65989679D01*
X84142331Y-65980908D01*
X84137406Y-65972346D01*
X84131993Y-65963991D01*
X84126094Y-65955844D01*
X84119708Y-65947905D01*
X84112836Y-65940174D01*
X84105478Y-65932651D01*
X84097752Y-65925435D01*
X84089842Y-65918684D01*
X84081747Y-65912398D01*
X84073466Y-65906578D01*
X84065001Y-65901224D01*
X84056350Y-65896335D01*
X84047515Y-65891912D01*
X84038494Y-65887955D01*
X84029288Y-65884463D01*
X84019897Y-65881437D01*
X84010321Y-65878876D01*
X84000560Y-65876781D01*
X83990614Y-65875151D01*
X83980482Y-65873987D01*
X83970166Y-65873289D01*
X83959665Y-65873056D01*
X83412805Y-65873056D01*
G37*
G36*
X83345150Y-66830000D02*
G01*
X83139986Y-66830000D01*
X83139986Y-66454110D01*
X82884508Y-66454110D01*
X82880091Y-66454209D01*
X82869409Y-66455325D01*
X82859240Y-66457682D01*
X82849583Y-66461279D01*
X82840440Y-66466116D01*
X82831809Y-66472193D01*
X82823691Y-66479511D01*
X82820615Y-66482696D01*
X82813793Y-66491008D01*
X82808212Y-66499821D01*
X82803871Y-66509135D01*
X82800770Y-66518951D01*
X82798910Y-66529266D01*
X82798290Y-66540083D01*
X82798290Y-66830000D01*
X82593126Y-66830000D01*
X82593126Y-66540083D01*
X82593393Y-66525386D01*
X82594194Y-66511030D01*
X82595530Y-66497015D01*
X82597400Y-66483343D01*
X82599804Y-66470011D01*
X82602743Y-66457022D01*
X82606216Y-66444373D01*
X82610223Y-66432067D01*
X82614764Y-66420102D01*
X82619840Y-66408478D01*
X82625450Y-66397196D01*
X82631594Y-66386256D01*
X82638273Y-66375657D01*
X82645485Y-66365400D01*
X82653232Y-66355484D01*
X82661514Y-66345910D01*
X82653232Y-66337844D01*
X82645485Y-66329340D01*
X82638273Y-66320396D01*
X82631594Y-66311014D01*
X82625450Y-66301193D01*
X82619840Y-66290933D01*
X82614764Y-66280234D01*
X82610223Y-66269096D01*
X82606216Y-66257519D01*
X82602743Y-66245503D01*
X82599804Y-66233049D01*
X82597400Y-66220156D01*
X82595530Y-66206823D01*
X82594194Y-66193052D01*
X82593393Y-66178842D01*
X82593126Y-66164193D01*
X82798290Y-66164193D01*
X82798389Y-66168578D01*
X82799505Y-66179173D01*
X82801862Y-66189244D01*
X82805459Y-66198789D01*
X82810296Y-66207810D01*
X82816373Y-66216306D01*
X82823691Y-66224277D01*
X82826877Y-66227264D01*
X82835200Y-66233889D01*
X82844036Y-66239310D01*
X82853384Y-66243525D01*
X82863246Y-66246537D01*
X82873620Y-66248344D01*
X82884508Y-66248946D01*
X83139986Y-66248946D01*
X83139986Y-66077976D01*
X82884508Y-66077976D01*
X82880091Y-66078075D01*
X82869409Y-66079191D01*
X82859240Y-66081548D01*
X82849583Y-66085145D01*
X82840440Y-66089982D01*
X82831809Y-66096059D01*
X82823691Y-66103377D01*
X82820615Y-66106563D01*
X82813793Y-66114886D01*
X82808212Y-66123722D01*
X82803871Y-66133070D01*
X82800770Y-66142932D01*
X82798910Y-66153306D01*
X82798290Y-66164193D01*
X82593126Y-66164193D01*
X82593463Y-66149454D01*
X82594473Y-66134972D01*
X82596157Y-66120748D01*
X82598514Y-66106781D01*
X82601546Y-66093072D01*
X82605250Y-66079621D01*
X82609628Y-66066427D01*
X82614680Y-66053490D01*
X82620406Y-66040812D01*
X82626805Y-66028391D01*
X82633877Y-66016227D01*
X82641623Y-66004321D01*
X82650043Y-65992673D01*
X82659136Y-65981282D01*
X82668903Y-65970149D01*
X82679344Y-65959274D01*
X82690249Y-65948833D01*
X82701409Y-65939066D01*
X82712826Y-65929973D01*
X82724498Y-65921553D01*
X82736426Y-65913807D01*
X82748609Y-65906735D01*
X82761048Y-65900336D01*
X82773743Y-65894610D01*
X82786694Y-65889559D01*
X82799900Y-65885180D01*
X82813362Y-65881476D01*
X82827080Y-65878445D01*
X82841053Y-65876087D01*
X82855282Y-65874403D01*
X82869767Y-65873393D01*
X82884508Y-65873056D01*
X83345150Y-65873056D01*
X83345150Y-66830000D01*
G37*
D11*
X252196115Y-59991466D02*
X251434211Y-59991466D01*
X251815163Y-60372419D02*
X251815163Y-59610514D01*
X262696115Y-59991466D02*
X261934211Y-59991466D01*
D10*
X68431009Y-129880952D02*
X68478628Y-130023809D01*
X68478628Y-130023809D02*
X68526247Y-130071428D01*
X68526247Y-130071428D02*
X68621485Y-130119047D01*
X68621485Y-130119047D02*
X68764342Y-130119047D01*
X68764342Y-130119047D02*
X68859580Y-130071428D01*
X68859580Y-130071428D02*
X68907200Y-130023809D01*
X68907200Y-130023809D02*
X68954819Y-129928571D01*
X68954819Y-129928571D02*
X68954819Y-129547619D01*
X68954819Y-129547619D02*
X67954819Y-129547619D01*
X67954819Y-129547619D02*
X67954819Y-129880952D01*
X67954819Y-129880952D02*
X68002438Y-129976190D01*
X68002438Y-129976190D02*
X68050057Y-130023809D01*
X68050057Y-130023809D02*
X68145295Y-130071428D01*
X68145295Y-130071428D02*
X68240533Y-130071428D01*
X68240533Y-130071428D02*
X68335771Y-130023809D01*
X68335771Y-130023809D02*
X68383390Y-129976190D01*
X68383390Y-129976190D02*
X68431009Y-129880952D01*
X68431009Y-129880952D02*
X68431009Y-129547619D01*
X68669104Y-130500000D02*
X68669104Y-130976190D01*
X68954819Y-130404762D02*
X67954819Y-130738095D01*
X67954819Y-130738095D02*
X68954819Y-131071428D01*
X67954819Y-131261905D02*
X67954819Y-131833333D01*
X68954819Y-131547619D02*
X67954819Y-131547619D01*
X67954819Y-132023810D02*
X67954819Y-132595238D01*
X68954819Y-132309524D02*
X67954819Y-132309524D01*
X79066666Y-65573200D02*
X78866666Y-65639866D01*
X78866666Y-65639866D02*
X78533333Y-65639866D01*
X78533333Y-65639866D02*
X78399999Y-65573200D01*
X78399999Y-65573200D02*
X78333333Y-65506533D01*
X78333333Y-65506533D02*
X78266666Y-65373200D01*
X78266666Y-65373200D02*
X78266666Y-65239866D01*
X78266666Y-65239866D02*
X78333333Y-65106533D01*
X78333333Y-65106533D02*
X78399999Y-65039866D01*
X78399999Y-65039866D02*
X78533333Y-64973200D01*
X78533333Y-64973200D02*
X78799999Y-64906533D01*
X78799999Y-64906533D02*
X78933333Y-64839866D01*
X78933333Y-64839866D02*
X78999999Y-64773200D01*
X78999999Y-64773200D02*
X79066666Y-64639866D01*
X79066666Y-64639866D02*
X79066666Y-64506533D01*
X79066666Y-64506533D02*
X78999999Y-64373200D01*
X78999999Y-64373200D02*
X78933333Y-64306533D01*
X78933333Y-64306533D02*
X78799999Y-64239866D01*
X78799999Y-64239866D02*
X78466666Y-64239866D01*
X78466666Y-64239866D02*
X78266666Y-64306533D01*
X76933333Y-65639866D02*
X77733333Y-65639866D01*
X77333333Y-65639866D02*
X77333333Y-64239866D01*
X77333333Y-64239866D02*
X77466666Y-64439866D01*
X77466666Y-64439866D02*
X77600000Y-64573200D01*
X77600000Y-64573200D02*
X77733333Y-64639866D01*
X90333333Y-116004819D02*
X90333333Y-116719104D01*
X90333333Y-116719104D02*
X90380952Y-116861961D01*
X90380952Y-116861961D02*
X90476190Y-116957200D01*
X90476190Y-116957200D02*
X90619047Y-117004819D01*
X90619047Y-117004819D02*
X90714285Y-117004819D01*
X89952380Y-116004819D02*
X89333333Y-116004819D01*
X89333333Y-116004819D02*
X89666666Y-116385771D01*
X89666666Y-116385771D02*
X89523809Y-116385771D01*
X89523809Y-116385771D02*
X89428571Y-116433390D01*
X89428571Y-116433390D02*
X89380952Y-116481009D01*
X89380952Y-116481009D02*
X89333333Y-116576247D01*
X89333333Y-116576247D02*
X89333333Y-116814342D01*
X89333333Y-116814342D02*
X89380952Y-116909580D01*
X89380952Y-116909580D02*
X89428571Y-116957200D01*
X89428571Y-116957200D02*
X89523809Y-117004819D01*
X89523809Y-117004819D02*
X89809523Y-117004819D01*
X89809523Y-117004819D02*
X89904761Y-116957200D01*
X89904761Y-116957200D02*
X89952380Y-116909580D01*
X150454819Y-98238095D02*
X151264342Y-98238095D01*
X151264342Y-98238095D02*
X151359580Y-98285714D01*
X151359580Y-98285714D02*
X151407200Y-98333333D01*
X151407200Y-98333333D02*
X151454819Y-98428571D01*
X151454819Y-98428571D02*
X151454819Y-98619047D01*
X151454819Y-98619047D02*
X151407200Y-98714285D01*
X151407200Y-98714285D02*
X151359580Y-98761904D01*
X151359580Y-98761904D02*
X151264342Y-98809523D01*
X151264342Y-98809523D02*
X150454819Y-98809523D01*
X151454819Y-99809523D02*
X151454819Y-99238095D01*
X151454819Y-99523809D02*
X150454819Y-99523809D01*
X150454819Y-99523809D02*
X150597676Y-99428571D01*
X150597676Y-99428571D02*
X150692914Y-99333333D01*
X150692914Y-99333333D02*
X150740533Y-99238095D01*
D11*
X176127580Y-100196115D02*
X175318057Y-100196115D01*
X175318057Y-100196115D02*
X175222819Y-100148496D01*
X175222819Y-100148496D02*
X175175200Y-100100877D01*
X175175200Y-100100877D02*
X175127580Y-100005639D01*
X175127580Y-100005639D02*
X175127580Y-99815163D01*
X175127580Y-99815163D02*
X175175200Y-99719925D01*
X175175200Y-99719925D02*
X175222819Y-99672306D01*
X175222819Y-99672306D02*
X175318057Y-99624687D01*
X175318057Y-99624687D02*
X176127580Y-99624687D01*
X175175200Y-99196115D02*
X175127580Y-99053258D01*
X175127580Y-99053258D02*
X175127580Y-98815163D01*
X175127580Y-98815163D02*
X175175200Y-98719925D01*
X175175200Y-98719925D02*
X175222819Y-98672306D01*
X175222819Y-98672306D02*
X175318057Y-98624687D01*
X175318057Y-98624687D02*
X175413295Y-98624687D01*
X175413295Y-98624687D02*
X175508533Y-98672306D01*
X175508533Y-98672306D02*
X175556152Y-98719925D01*
X175556152Y-98719925D02*
X175603771Y-98815163D01*
X175603771Y-98815163D02*
X175651390Y-99005639D01*
X175651390Y-99005639D02*
X175699009Y-99100877D01*
X175699009Y-99100877D02*
X175746628Y-99148496D01*
X175746628Y-99148496D02*
X175841866Y-99196115D01*
X175841866Y-99196115D02*
X175937104Y-99196115D01*
X175937104Y-99196115D02*
X176032342Y-99148496D01*
X176032342Y-99148496D02*
X176079961Y-99100877D01*
X176079961Y-99100877D02*
X176127580Y-99005639D01*
X176127580Y-99005639D02*
X176127580Y-98767544D01*
X176127580Y-98767544D02*
X176079961Y-98624687D01*
X175651390Y-97862782D02*
X175603771Y-97719925D01*
X175603771Y-97719925D02*
X175556152Y-97672306D01*
X175556152Y-97672306D02*
X175460914Y-97624687D01*
X175460914Y-97624687D02*
X175318057Y-97624687D01*
X175318057Y-97624687D02*
X175222819Y-97672306D01*
X175222819Y-97672306D02*
X175175200Y-97719925D01*
X175175200Y-97719925D02*
X175127580Y-97815163D01*
X175127580Y-97815163D02*
X175127580Y-98196115D01*
X175127580Y-98196115D02*
X176127580Y-98196115D01*
X176127580Y-98196115D02*
X176127580Y-97862782D01*
X176127580Y-97862782D02*
X176079961Y-97767544D01*
X176079961Y-97767544D02*
X176032342Y-97719925D01*
X176032342Y-97719925D02*
X175937104Y-97672306D01*
X175937104Y-97672306D02*
X175841866Y-97672306D01*
X175841866Y-97672306D02*
X175746628Y-97719925D01*
X175746628Y-97719925D02*
X175699009Y-97767544D01*
X175699009Y-97767544D02*
X175651390Y-97862782D01*
X175651390Y-97862782D02*
X175651390Y-98196115D01*
X196042580Y-148761904D02*
X195233057Y-148761904D01*
X195233057Y-148761904D02*
X195137819Y-148714285D01*
X195137819Y-148714285D02*
X195090200Y-148666666D01*
X195090200Y-148666666D02*
X195042580Y-148571428D01*
X195042580Y-148571428D02*
X195042580Y-148380952D01*
X195042580Y-148380952D02*
X195090200Y-148285714D01*
X195090200Y-148285714D02*
X195137819Y-148238095D01*
X195137819Y-148238095D02*
X195233057Y-148190476D01*
X195233057Y-148190476D02*
X196042580Y-148190476D01*
X196042580Y-147809523D02*
X196042580Y-147190476D01*
X196042580Y-147190476D02*
X195661628Y-147523809D01*
X195661628Y-147523809D02*
X195661628Y-147380952D01*
X195661628Y-147380952D02*
X195614009Y-147285714D01*
X195614009Y-147285714D02*
X195566390Y-147238095D01*
X195566390Y-147238095D02*
X195471152Y-147190476D01*
X195471152Y-147190476D02*
X195233057Y-147190476D01*
X195233057Y-147190476D02*
X195137819Y-147238095D01*
X195137819Y-147238095D02*
X195090200Y-147285714D01*
X195090200Y-147285714D02*
X195042580Y-147380952D01*
X195042580Y-147380952D02*
X195042580Y-147666666D01*
X195042580Y-147666666D02*
X195090200Y-147761904D01*
X195090200Y-147761904D02*
X195137819Y-147809523D01*
X48396115Y-60291466D02*
X47634211Y-60291466D01*
X48015163Y-60672419D02*
X48015163Y-59910514D01*
X38396115Y-60391466D02*
X37634211Y-60391466D01*
D10*
X98238095Y-156125180D02*
X98238095Y-155315657D01*
X98238095Y-155315657D02*
X98285714Y-155220419D01*
X98285714Y-155220419D02*
X98333333Y-155172800D01*
X98333333Y-155172800D02*
X98428571Y-155125180D01*
X98428571Y-155125180D02*
X98619047Y-155125180D01*
X98619047Y-155125180D02*
X98714285Y-155172800D01*
X98714285Y-155172800D02*
X98761904Y-155220419D01*
X98761904Y-155220419D02*
X98809523Y-155315657D01*
X98809523Y-155315657D02*
X98809523Y-156125180D01*
X99238095Y-156029942D02*
X99285714Y-156077561D01*
X99285714Y-156077561D02*
X99380952Y-156125180D01*
X99380952Y-156125180D02*
X99619047Y-156125180D01*
X99619047Y-156125180D02*
X99714285Y-156077561D01*
X99714285Y-156077561D02*
X99761904Y-156029942D01*
X99761904Y-156029942D02*
X99809523Y-155934704D01*
X99809523Y-155934704D02*
X99809523Y-155839466D01*
X99809523Y-155839466D02*
X99761904Y-155696609D01*
X99761904Y-155696609D02*
X99190476Y-155125180D01*
X99190476Y-155125180D02*
X99809523Y-155125180D01*
D11*
%TO.C,BATT*%
X85000000Y-106000000D02*
X51000000Y-106000000D01*
X51000000Y-106000000D02*
X51000000Y-157000000D01*
X51000000Y-157000000D02*
X85000000Y-157000000D01*
X85000000Y-157000000D02*
X85000000Y-106000000D01*
D12*
%TO.C,S1*%
X89000000Y-60000000D02*
X89000000Y-65200000D01*
X80000000Y-60000000D02*
X89000000Y-60000000D01*
X89000000Y-65200000D02*
X80000000Y-65200000D01*
X80000000Y-65200000D02*
X80000000Y-60000000D01*
D13*
%TO.C,J3*%
X86940000Y-107640000D02*
X93060000Y-107640000D01*
X86940000Y-113860000D02*
X87860000Y-113860000D01*
X86940000Y-115460000D02*
X86940000Y-107640000D01*
X87700000Y-109900000D02*
X88700000Y-109900000D01*
X87700000Y-111500000D02*
X87700000Y-109900000D01*
X87860000Y-113860000D02*
X87860000Y-115460000D01*
X87860000Y-115460000D02*
X86940000Y-115460000D01*
X88140000Y-113860000D02*
X87860000Y-113860000D01*
X88140000Y-113860000D02*
X88140000Y-115075000D01*
X88200000Y-109900000D02*
X88200000Y-107640000D01*
X88700000Y-109900000D02*
X88700000Y-107640000D01*
X88700000Y-109900000D02*
X88700000Y-111500000D01*
X88700000Y-111500000D02*
X87700000Y-111500000D01*
X89500000Y-107640000D02*
X89500000Y-112000000D01*
X89500000Y-112000000D02*
X90500000Y-112000000D01*
X90500000Y-112000000D02*
X90500000Y-107640000D01*
X91300000Y-109900000D02*
X91300000Y-111500000D01*
X91300000Y-111500000D02*
X92300000Y-111500000D01*
X92140000Y-113860000D02*
X91860000Y-113860000D01*
X92140000Y-115460000D02*
X92140000Y-113860000D01*
X92300000Y-109900000D02*
X91300000Y-109900000D01*
X92300000Y-111500000D02*
X92300000Y-109900000D01*
X93060000Y-107640000D02*
X93060000Y-115460000D01*
X93060000Y-113860000D02*
X92140000Y-113860000D01*
X93060000Y-115460000D02*
X92140000Y-115460000D01*
%TO.C,U1*%
X174380000Y-113699999D02*
X127620000Y-113700000D01*
X174380000Y-103899999D02*
X174380000Y-113699999D01*
X174380000Y-94100000D02*
X174020000Y-94100000D01*
X174380000Y-84300000D02*
X174380000Y-94100000D01*
X174020000Y-103899999D02*
X174380000Y-103899999D01*
X174020000Y-94100000D02*
X174020000Y-103899999D01*
X127620000Y-113700000D02*
X127620000Y-84300001D01*
X127620000Y-84300001D02*
X174380000Y-84300000D01*
D11*
%TO.C,U3*%
X186110000Y-156890000D02*
X203890000Y-156890000D01*
X203890000Y-156890000D02*
X203890000Y-139110000D01*
X186110000Y-139110000D02*
X186110000Y-156890000D01*
X203890000Y-139110000D02*
X186110000Y-139110000D01*
D13*
%TO.C,U2*%
X122200000Y-156880000D02*
X101200000Y-156880000D01*
X122200000Y-140880000D02*
X122200000Y-156880000D01*
X101200000Y-140880000D02*
X122200000Y-140880000D01*
X100330000Y-153810000D02*
X100330000Y-141050000D01*
X97670000Y-156410000D02*
X99000000Y-156410000D01*
X97670000Y-155080000D02*
X97670000Y-156410000D01*
X97670000Y-153810000D02*
X100330000Y-153810000D01*
X97670000Y-153810000D02*
X97670000Y-141050000D01*
X97670000Y-141050000D02*
X100330000Y-141050000D01*
%TD*%
M02*
