%TF.GenerationSoftware,KiCad,Pcbnew,7.0.7*%
%TF.CreationDate,2024-02-02T14:59:29-08:00*%
%TF.ProjectId,DC32_Cnet_Badge_Main,44433332-5f43-46e6-9574-5f4261646765,rev?*%
%TF.SameCoordinates,Original*%
%TF.FileFunction,Drillmap*%
%TF.FilePolarity,Positive*%
%FSLAX45Y45*%
G04 Gerber Fmt 4.5, Leading zero omitted, Abs format (unit mm)*
G04 Created by KiCad (PCBNEW 7.0.7) date 2024-02-02 14:59:29*
%MOMM*%
%LPD*%
G01*
G04 APERTURE LIST*
%ADD10C,0.100000*%
%ADD11C,0.200000*%
%ADD12C,0.040000*%
%ADD13C,0.075000*%
%ADD14C,0.150000*%
G04 APERTURE END LIST*
D10*
X26500000Y-7900000D02*
X26500000Y-15700000D01*
X9700000Y-2100000D02*
G75*
G03*
X9500000Y-2300000I0J-200000D01*
G01*
X25000000Y-15900000D02*
X5000000Y-15900000D01*
X26300000Y-15900000D02*
X25000000Y-15900000D01*
X5000000Y-15900000D02*
X3700000Y-15900000D01*
X20500000Y-2900000D02*
X20500000Y-2300000D01*
X20500000Y-2900000D02*
X20500000Y-5900000D01*
X3500000Y-7900000D02*
X3500000Y-15700000D01*
X9500000Y-5900000D02*
X9500000Y-2900000D01*
X5000000Y-5900000D02*
X3700000Y-5900000D01*
X19200000Y-5900000D02*
X19200000Y-3400000D01*
X3500000Y-15700000D02*
G75*
G03*
X3700000Y-15900000I200000J0D01*
G01*
X9500000Y-2300000D02*
X9500000Y-2900000D01*
X20100000Y-2800000D02*
G75*
G03*
X20100000Y-2800000I-300000J0D01*
G01*
X3700000Y-5900000D02*
G75*
G03*
X3500000Y-6100000I0J-200000D01*
G01*
X26300000Y-15900000D02*
G75*
G03*
X26500000Y-15700000I0J200000D01*
G01*
X10500000Y-2800000D02*
G75*
G03*
X10500000Y-2800000I-300000J0D01*
G01*
X26500000Y-6100000D02*
G75*
G03*
X26300000Y-5900000I-200000J0D01*
G01*
X20500000Y-5900000D02*
X25000000Y-5900000D01*
X20300000Y-2100000D02*
X9700000Y-2100000D01*
X20500000Y-2300000D02*
G75*
G03*
X20300000Y-2100000I-200000J0D01*
G01*
X3500000Y-6100000D02*
X3500000Y-7900000D01*
X25000000Y-5900000D02*
X26300000Y-5900000D01*
X10800000Y-5900000D02*
X10800000Y-3400000D01*
X5000000Y-5900000D02*
X9500000Y-5900000D01*
X10800000Y-3400000D02*
X19200000Y-3400000D01*
X10800000Y-5900000D02*
X19200000Y-5900000D01*
X26500000Y-6100000D02*
X26500000Y-7900000D01*
D11*
D12*
X4080000Y-8780000D02*
X4120000Y-8820000D01*
X4120000Y-8780000D02*
X4080000Y-8820000D01*
X4380000Y-9480000D02*
X4420000Y-9520000D01*
X4420000Y-9480000D02*
X4380000Y-9520000D01*
X5380000Y-9080000D02*
X5420000Y-9120000D01*
X5420000Y-9080000D02*
X5380000Y-9120000D01*
X6180000Y-9080000D02*
X6220000Y-9120000D01*
X6220000Y-9080000D02*
X6180000Y-9120000D01*
X7880000Y-12580000D02*
X7920000Y-12620000D01*
X7920000Y-12580000D02*
X7880000Y-12620000D01*
X7880000Y-12880000D02*
X7920000Y-12920000D01*
X7920000Y-12880000D02*
X7880000Y-12920000D01*
X8380000Y-12580000D02*
X8420000Y-12620000D01*
X8420000Y-12580000D02*
X8380000Y-12620000D01*
X8380000Y-12880000D02*
X8420000Y-12920000D01*
X8420000Y-12880000D02*
X8380000Y-12920000D01*
X9980000Y-7780000D02*
X10020000Y-7820000D01*
X10020000Y-7780000D02*
X9980000Y-7820000D01*
X10080000Y-11680000D02*
X10120000Y-11720000D01*
X10120000Y-11680000D02*
X10080000Y-11720000D01*
X10380000Y-11380000D02*
X10420000Y-11420000D01*
X10420000Y-11380000D02*
X10380000Y-11420000D01*
X13380000Y-11480000D02*
X13420000Y-11520000D01*
X13420000Y-11480000D02*
X13380000Y-11520000D01*
X18880000Y-14680000D02*
X18920000Y-14720000D01*
X18920000Y-14680000D02*
X18880000Y-14720000D01*
X20180000Y-10980000D02*
X20220000Y-11020000D01*
X20220000Y-10980000D02*
X20180000Y-11020000D01*
X20180000Y-11180000D02*
X20220000Y-11220000D01*
X20220000Y-11180000D02*
X20180000Y-11220000D01*
X20280000Y-9480000D02*
X20320000Y-9520000D01*
X20320000Y-9480000D02*
X20280000Y-9520000D01*
X25180000Y-8980000D02*
X25220000Y-9020000D01*
X25220000Y-8980000D02*
X25180000Y-9020000D01*
X25580000Y-9080000D02*
X25620000Y-9120000D01*
X25620000Y-9080000D02*
X25580000Y-9120000D01*
X25780000Y-9080000D02*
X25820000Y-9120000D01*
X25820000Y-9080000D02*
X25780000Y-9120000D01*
D13*
X8937500Y-11400000D02*
G75*
G03*
X8937500Y-11400000I-37500J0D01*
G01*
X9137500Y-11400000D02*
G75*
G03*
X9137500Y-11400000I-37500J0D01*
G01*
D10*
X8200000Y-6050000D02*
X8200000Y-6150000D01*
X8150000Y-6100000D02*
X8250000Y-6100000D01*
X8200000Y-6370000D02*
X8200000Y-6470000D01*
X8150000Y-6420000D02*
X8250000Y-6420000D01*
X8450000Y-6050000D02*
X8450000Y-6150000D01*
X8400000Y-6100000D02*
X8500000Y-6100000D01*
X8450000Y-6370000D02*
X8450000Y-6470000D01*
X8400000Y-6420000D02*
X8500000Y-6420000D01*
X8700000Y-6050000D02*
X8700000Y-6150000D01*
X8650000Y-6100000D02*
X8750000Y-6100000D01*
X8700000Y-6370000D02*
X8700000Y-6470000D01*
X8650000Y-6420000D02*
X8750000Y-6420000D01*
X9900000Y-14188000D02*
X9900000Y-14288000D01*
X9850000Y-14238000D02*
X9950000Y-14238000D01*
X9900000Y-14442000D02*
X9900000Y-14542000D01*
X9850000Y-14492000D02*
X9950000Y-14492000D01*
X9900000Y-14696000D02*
X9900000Y-14796000D01*
X9850000Y-14746000D02*
X9950000Y-14746000D01*
X9900000Y-14950000D02*
X9900000Y-15050000D01*
X9850000Y-15000000D02*
X9950000Y-15000000D01*
X9900000Y-15204000D02*
X9900000Y-15304000D01*
X9850000Y-15254000D02*
X9950000Y-15254000D01*
X9900000Y-15458000D02*
X9900000Y-15558000D01*
X9850000Y-15508000D02*
X9950000Y-15508000D01*
X11000000Y-7050000D02*
X11000000Y-7150000D01*
X10950000Y-7100000D02*
X11050000Y-7100000D01*
X12600000Y-7050000D02*
X12600000Y-7150000D01*
X12550000Y-7100000D02*
X12650000Y-7100000D01*
X13322000Y-8580000D02*
X13322000Y-8680000D01*
X13272000Y-8630000D02*
X13372000Y-8630000D01*
X13322000Y-11120000D02*
X13322000Y-11220000D01*
X13272000Y-11170000D02*
X13372000Y-11170000D01*
X13576000Y-8580000D02*
X13576000Y-8680000D01*
X13526000Y-8630000D02*
X13626000Y-8630000D01*
X13576000Y-11120000D02*
X13576000Y-11220000D01*
X13526000Y-11170000D02*
X13626000Y-11170000D01*
X13830000Y-8580000D02*
X13830000Y-8680000D01*
X13780000Y-8630000D02*
X13880000Y-8630000D01*
X13830000Y-11120000D02*
X13830000Y-11220000D01*
X13780000Y-11170000D02*
X13880000Y-11170000D01*
X14084000Y-8580000D02*
X14084000Y-8680000D01*
X14034000Y-8630000D02*
X14134000Y-8630000D01*
X14084000Y-11120000D02*
X14084000Y-11220000D01*
X14034000Y-11170000D02*
X14134000Y-11170000D01*
X14200000Y-7050000D02*
X14200000Y-7150000D01*
X14150000Y-7100000D02*
X14250000Y-7100000D01*
X14338000Y-8580000D02*
X14338000Y-8680000D01*
X14288000Y-8630000D02*
X14388000Y-8630000D01*
X14338000Y-11120000D02*
X14338000Y-11220000D01*
X14288000Y-11170000D02*
X14388000Y-11170000D01*
X14592000Y-8580000D02*
X14592000Y-8680000D01*
X14542000Y-8630000D02*
X14642000Y-8630000D01*
X14592000Y-11120000D02*
X14592000Y-11220000D01*
X14542000Y-11170000D02*
X14642000Y-11170000D01*
X14746000Y-14850000D02*
X14746000Y-14950000D01*
X14696000Y-14900000D02*
X14796000Y-14900000D01*
X14746000Y-15104000D02*
X14746000Y-15204000D01*
X14696000Y-15154000D02*
X14796000Y-15154000D01*
X14846000Y-8580000D02*
X14846000Y-8680000D01*
X14796000Y-8630000D02*
X14896000Y-8630000D01*
X14846000Y-11120000D02*
X14846000Y-11220000D01*
X14796000Y-11170000D02*
X14896000Y-11170000D01*
X15000000Y-14850000D02*
X15000000Y-14950000D01*
X14950000Y-14900000D02*
X15050000Y-14900000D01*
X15000000Y-15104000D02*
X15000000Y-15204000D01*
X14950000Y-15154000D02*
X15050000Y-15154000D01*
X15100000Y-8580000D02*
X15100000Y-8680000D01*
X15050000Y-8630000D02*
X15150000Y-8630000D01*
X15100000Y-11120000D02*
X15100000Y-11220000D01*
X15050000Y-11170000D02*
X15150000Y-11170000D01*
X15254000Y-14850000D02*
X15254000Y-14950000D01*
X15204000Y-14900000D02*
X15304000Y-14900000D01*
X15254000Y-15104000D02*
X15254000Y-15204000D01*
X15204000Y-15154000D02*
X15304000Y-15154000D01*
X15354000Y-8580000D02*
X15354000Y-8680000D01*
X15304000Y-8630000D02*
X15404000Y-8630000D01*
X15354000Y-11120000D02*
X15354000Y-11220000D01*
X15304000Y-11170000D02*
X15404000Y-11170000D01*
X15608000Y-8580000D02*
X15608000Y-8680000D01*
X15558000Y-8630000D02*
X15658000Y-8630000D01*
X15608000Y-11120000D02*
X15608000Y-11220000D01*
X15558000Y-11170000D02*
X15658000Y-11170000D01*
X15800000Y-7050000D02*
X15800000Y-7150000D01*
X15750000Y-7100000D02*
X15850000Y-7100000D01*
X15862000Y-8580000D02*
X15862000Y-8680000D01*
X15812000Y-8630000D02*
X15912000Y-8630000D01*
X15862000Y-11120000D02*
X15862000Y-11220000D01*
X15812000Y-11170000D02*
X15912000Y-11170000D01*
X16116000Y-8580000D02*
X16116000Y-8680000D01*
X16066000Y-8630000D02*
X16166000Y-8630000D01*
X16116000Y-11120000D02*
X16116000Y-11220000D01*
X16066000Y-11170000D02*
X16166000Y-11170000D01*
X16370000Y-8580000D02*
X16370000Y-8680000D01*
X16320000Y-8630000D02*
X16420000Y-8630000D01*
X16370000Y-11120000D02*
X16370000Y-11220000D01*
X16320000Y-11170000D02*
X16420000Y-11170000D01*
X16624000Y-8580000D02*
X16624000Y-8680000D01*
X16574000Y-8630000D02*
X16674000Y-8630000D01*
X16624000Y-11120000D02*
X16624000Y-11220000D01*
X16574000Y-11170000D02*
X16674000Y-11170000D01*
X16878000Y-8580000D02*
X16878000Y-8680000D01*
X16828000Y-8630000D02*
X16928000Y-8630000D01*
X16878000Y-11120000D02*
X16878000Y-11220000D01*
X16828000Y-11170000D02*
X16928000Y-11170000D01*
X17400000Y-7050000D02*
X17400000Y-7150000D01*
X17350000Y-7100000D02*
X17450000Y-7100000D01*
X18738000Y-15448500D02*
X18738000Y-15548500D01*
X18688000Y-15498500D02*
X18788000Y-15498500D01*
X18992000Y-15448500D02*
X18992000Y-15548500D01*
X18942000Y-15498500D02*
X19042000Y-15498500D01*
X19000000Y-7050000D02*
X19000000Y-7150000D01*
X18950000Y-7100000D02*
X19050000Y-7100000D01*
X19246000Y-15448500D02*
X19246000Y-15548500D01*
X19196000Y-15498500D02*
X19296000Y-15498500D01*
X19334900Y-14150000D02*
X19334900Y-14250000D01*
X19284900Y-14200000D02*
X19384900Y-14200000D01*
X19500000Y-15448500D02*
X19500000Y-15548500D01*
X19450000Y-15498500D02*
X19550000Y-15498500D01*
X19665100Y-14150000D02*
X19665100Y-14250000D01*
X19615100Y-14200000D02*
X19715100Y-14200000D01*
X19754000Y-15448500D02*
X19754000Y-15548500D01*
X19704000Y-15498500D02*
X19804000Y-15498500D01*
X20008000Y-15448500D02*
X20008000Y-15548500D01*
X19958000Y-15498500D02*
X20058000Y-15498500D01*
X20262000Y-15448500D02*
X20262000Y-15548500D01*
X20212000Y-15498500D02*
X20312000Y-15498500D01*
D14*
X4153033Y-6353033D02*
X4153033Y-6246966D01*
X4046966Y-6246966D01*
X4046966Y-6353033D01*
X4153033Y-6353033D01*
X4553034Y-6353033D02*
X4553034Y-6246966D01*
X4446967Y-6246966D01*
X4446967Y-6353033D01*
X4553034Y-6353033D01*
X25553033Y-6353033D02*
X25553033Y-6246966D01*
X25446966Y-6246966D01*
X25446966Y-6353033D01*
X25553033Y-6353033D01*
X25953033Y-6353033D02*
X25953033Y-6246966D01*
X25846966Y-6246966D01*
X25846966Y-6353033D01*
X25953033Y-6353033D01*
D11*
X3755777Y-16216484D02*
X3755777Y-16016484D01*
X3755777Y-16016484D02*
X3803396Y-16016484D01*
X3803396Y-16016484D02*
X3831967Y-16026008D01*
X3831967Y-16026008D02*
X3851015Y-16045055D01*
X3851015Y-16045055D02*
X3860539Y-16064103D01*
X3860539Y-16064103D02*
X3870062Y-16102198D01*
X3870062Y-16102198D02*
X3870062Y-16130769D01*
X3870062Y-16130769D02*
X3860539Y-16168865D01*
X3860539Y-16168865D02*
X3851015Y-16187912D01*
X3851015Y-16187912D02*
X3831967Y-16206960D01*
X3831967Y-16206960D02*
X3803396Y-16216484D01*
X3803396Y-16216484D02*
X3755777Y-16216484D01*
X3955777Y-16216484D02*
X3955777Y-16083150D01*
X3955777Y-16121246D02*
X3965301Y-16102198D01*
X3965301Y-16102198D02*
X3974824Y-16092674D01*
X3974824Y-16092674D02*
X3993872Y-16083150D01*
X3993872Y-16083150D02*
X4012920Y-16083150D01*
X4079586Y-16216484D02*
X4079586Y-16083150D01*
X4079586Y-16016484D02*
X4070062Y-16026008D01*
X4070062Y-16026008D02*
X4079586Y-16035531D01*
X4079586Y-16035531D02*
X4089110Y-16026008D01*
X4089110Y-16026008D02*
X4079586Y-16016484D01*
X4079586Y-16016484D02*
X4079586Y-16035531D01*
X4203396Y-16216484D02*
X4184348Y-16206960D01*
X4184348Y-16206960D02*
X4174824Y-16187912D01*
X4174824Y-16187912D02*
X4174824Y-16016484D01*
X4308158Y-16216484D02*
X4289110Y-16206960D01*
X4289110Y-16206960D02*
X4279586Y-16187912D01*
X4279586Y-16187912D02*
X4279586Y-16016484D01*
X4536729Y-16216484D02*
X4536729Y-16016484D01*
X4536729Y-16016484D02*
X4603396Y-16159341D01*
X4603396Y-16159341D02*
X4670063Y-16016484D01*
X4670063Y-16016484D02*
X4670063Y-16216484D01*
X4851015Y-16216484D02*
X4851015Y-16111722D01*
X4851015Y-16111722D02*
X4841491Y-16092674D01*
X4841491Y-16092674D02*
X4822444Y-16083150D01*
X4822444Y-16083150D02*
X4784348Y-16083150D01*
X4784348Y-16083150D02*
X4765301Y-16092674D01*
X4851015Y-16206960D02*
X4831967Y-16216484D01*
X4831967Y-16216484D02*
X4784348Y-16216484D01*
X4784348Y-16216484D02*
X4765301Y-16206960D01*
X4765301Y-16206960D02*
X4755777Y-16187912D01*
X4755777Y-16187912D02*
X4755777Y-16168865D01*
X4755777Y-16168865D02*
X4765301Y-16149817D01*
X4765301Y-16149817D02*
X4784348Y-16140293D01*
X4784348Y-16140293D02*
X4831967Y-16140293D01*
X4831967Y-16140293D02*
X4851015Y-16130769D01*
X4946253Y-16083150D02*
X4946253Y-16283150D01*
X4946253Y-16092674D02*
X4965301Y-16083150D01*
X4965301Y-16083150D02*
X5003396Y-16083150D01*
X5003396Y-16083150D02*
X5022444Y-16092674D01*
X5022444Y-16092674D02*
X5031967Y-16102198D01*
X5031967Y-16102198D02*
X5041491Y-16121246D01*
X5041491Y-16121246D02*
X5041491Y-16178388D01*
X5041491Y-16178388D02*
X5031967Y-16197436D01*
X5031967Y-16197436D02*
X5022444Y-16206960D01*
X5022444Y-16206960D02*
X5003396Y-16216484D01*
X5003396Y-16216484D02*
X4965301Y-16216484D01*
X4965301Y-16216484D02*
X4946253Y-16206960D01*
X5127205Y-16197436D02*
X5136729Y-16206960D01*
X5136729Y-16206960D02*
X5127205Y-16216484D01*
X5127205Y-16216484D02*
X5117682Y-16206960D01*
X5117682Y-16206960D02*
X5127205Y-16197436D01*
X5127205Y-16197436D02*
X5127205Y-16216484D01*
X5127205Y-16092674D02*
X5136729Y-16102198D01*
X5136729Y-16102198D02*
X5127205Y-16111722D01*
X5127205Y-16111722D02*
X5117682Y-16102198D01*
X5117682Y-16102198D02*
X5127205Y-16092674D01*
X5127205Y-16092674D02*
X5127205Y-16111722D01*
D12*
X3455000Y-16525000D02*
X3495000Y-16565000D01*
X3495000Y-16525000D02*
X3455000Y-16565000D01*
D11*
X3793872Y-16436484D02*
X3812920Y-16436484D01*
X3812920Y-16436484D02*
X3831967Y-16446008D01*
X3831967Y-16446008D02*
X3841491Y-16455531D01*
X3841491Y-16455531D02*
X3851015Y-16474579D01*
X3851015Y-16474579D02*
X3860539Y-16512674D01*
X3860539Y-16512674D02*
X3860539Y-16560293D01*
X3860539Y-16560293D02*
X3851015Y-16598388D01*
X3851015Y-16598388D02*
X3841491Y-16617436D01*
X3841491Y-16617436D02*
X3831967Y-16626960D01*
X3831967Y-16626960D02*
X3812920Y-16636484D01*
X3812920Y-16636484D02*
X3793872Y-16636484D01*
X3793872Y-16636484D02*
X3774824Y-16626960D01*
X3774824Y-16626960D02*
X3765301Y-16617436D01*
X3765301Y-16617436D02*
X3755777Y-16598388D01*
X3755777Y-16598388D02*
X3746253Y-16560293D01*
X3746253Y-16560293D02*
X3746253Y-16512674D01*
X3746253Y-16512674D02*
X3755777Y-16474579D01*
X3755777Y-16474579D02*
X3765301Y-16455531D01*
X3765301Y-16455531D02*
X3774824Y-16446008D01*
X3774824Y-16446008D02*
X3793872Y-16436484D01*
X3946253Y-16617436D02*
X3955777Y-16626960D01*
X3955777Y-16626960D02*
X3946253Y-16636484D01*
X3946253Y-16636484D02*
X3936729Y-16626960D01*
X3936729Y-16626960D02*
X3946253Y-16617436D01*
X3946253Y-16617436D02*
X3946253Y-16636484D01*
X4127205Y-16503150D02*
X4127205Y-16636484D01*
X4079586Y-16426960D02*
X4031967Y-16569817D01*
X4031967Y-16569817D02*
X4155777Y-16569817D01*
X4270063Y-16436484D02*
X4289110Y-16436484D01*
X4289110Y-16436484D02*
X4308158Y-16446008D01*
X4308158Y-16446008D02*
X4317682Y-16455531D01*
X4317682Y-16455531D02*
X4327205Y-16474579D01*
X4327205Y-16474579D02*
X4336729Y-16512674D01*
X4336729Y-16512674D02*
X4336729Y-16560293D01*
X4336729Y-16560293D02*
X4327205Y-16598388D01*
X4327205Y-16598388D02*
X4317682Y-16617436D01*
X4317682Y-16617436D02*
X4308158Y-16626960D01*
X4308158Y-16626960D02*
X4289110Y-16636484D01*
X4289110Y-16636484D02*
X4270063Y-16636484D01*
X4270063Y-16636484D02*
X4251015Y-16626960D01*
X4251015Y-16626960D02*
X4241491Y-16617436D01*
X4241491Y-16617436D02*
X4231967Y-16598388D01*
X4231967Y-16598388D02*
X4222444Y-16560293D01*
X4222444Y-16560293D02*
X4222444Y-16512674D01*
X4222444Y-16512674D02*
X4231967Y-16474579D01*
X4231967Y-16474579D02*
X4241491Y-16455531D01*
X4241491Y-16455531D02*
X4251015Y-16446008D01*
X4251015Y-16446008D02*
X4270063Y-16436484D01*
X4460539Y-16436484D02*
X4479586Y-16436484D01*
X4479586Y-16436484D02*
X4498634Y-16446008D01*
X4498634Y-16446008D02*
X4508158Y-16455531D01*
X4508158Y-16455531D02*
X4517682Y-16474579D01*
X4517682Y-16474579D02*
X4527205Y-16512674D01*
X4527205Y-16512674D02*
X4527205Y-16560293D01*
X4527205Y-16560293D02*
X4517682Y-16598388D01*
X4517682Y-16598388D02*
X4508158Y-16617436D01*
X4508158Y-16617436D02*
X4498634Y-16626960D01*
X4498634Y-16626960D02*
X4479586Y-16636484D01*
X4479586Y-16636484D02*
X4460539Y-16636484D01*
X4460539Y-16636484D02*
X4441491Y-16626960D01*
X4441491Y-16626960D02*
X4431967Y-16617436D01*
X4431967Y-16617436D02*
X4422444Y-16598388D01*
X4422444Y-16598388D02*
X4412920Y-16560293D01*
X4412920Y-16560293D02*
X4412920Y-16512674D01*
X4412920Y-16512674D02*
X4422444Y-16474579D01*
X4422444Y-16474579D02*
X4431967Y-16455531D01*
X4431967Y-16455531D02*
X4441491Y-16446008D01*
X4441491Y-16446008D02*
X4460539Y-16436484D01*
X4612920Y-16636484D02*
X4612920Y-16503150D01*
X4612920Y-16522198D02*
X4622444Y-16512674D01*
X4622444Y-16512674D02*
X4641491Y-16503150D01*
X4641491Y-16503150D02*
X4670063Y-16503150D01*
X4670063Y-16503150D02*
X4689110Y-16512674D01*
X4689110Y-16512674D02*
X4698634Y-16531722D01*
X4698634Y-16531722D02*
X4698634Y-16636484D01*
X4698634Y-16531722D02*
X4708158Y-16512674D01*
X4708158Y-16512674D02*
X4727205Y-16503150D01*
X4727205Y-16503150D02*
X4755777Y-16503150D01*
X4755777Y-16503150D02*
X4774825Y-16512674D01*
X4774825Y-16512674D02*
X4784348Y-16531722D01*
X4784348Y-16531722D02*
X4784348Y-16636484D01*
X4879586Y-16636484D02*
X4879586Y-16503150D01*
X4879586Y-16522198D02*
X4889110Y-16512674D01*
X4889110Y-16512674D02*
X4908158Y-16503150D01*
X4908158Y-16503150D02*
X4936729Y-16503150D01*
X4936729Y-16503150D02*
X4955777Y-16512674D01*
X4955777Y-16512674D02*
X4965301Y-16531722D01*
X4965301Y-16531722D02*
X4965301Y-16636484D01*
X4965301Y-16531722D02*
X4974825Y-16512674D01*
X4974825Y-16512674D02*
X4993872Y-16503150D01*
X4993872Y-16503150D02*
X5022444Y-16503150D01*
X5022444Y-16503150D02*
X5041491Y-16512674D01*
X5041491Y-16512674D02*
X5051015Y-16531722D01*
X5051015Y-16531722D02*
X5051015Y-16636484D01*
X5441491Y-16426960D02*
X5270063Y-16684103D01*
X5698634Y-16436484D02*
X5717682Y-16436484D01*
X5717682Y-16436484D02*
X5736729Y-16446008D01*
X5736729Y-16446008D02*
X5746253Y-16455531D01*
X5746253Y-16455531D02*
X5755777Y-16474579D01*
X5755777Y-16474579D02*
X5765301Y-16512674D01*
X5765301Y-16512674D02*
X5765301Y-16560293D01*
X5765301Y-16560293D02*
X5755777Y-16598388D01*
X5755777Y-16598388D02*
X5746253Y-16617436D01*
X5746253Y-16617436D02*
X5736729Y-16626960D01*
X5736729Y-16626960D02*
X5717682Y-16636484D01*
X5717682Y-16636484D02*
X5698634Y-16636484D01*
X5698634Y-16636484D02*
X5679586Y-16626960D01*
X5679586Y-16626960D02*
X5670063Y-16617436D01*
X5670063Y-16617436D02*
X5660539Y-16598388D01*
X5660539Y-16598388D02*
X5651015Y-16560293D01*
X5651015Y-16560293D02*
X5651015Y-16512674D01*
X5651015Y-16512674D02*
X5660539Y-16474579D01*
X5660539Y-16474579D02*
X5670063Y-16455531D01*
X5670063Y-16455531D02*
X5679586Y-16446008D01*
X5679586Y-16446008D02*
X5698634Y-16436484D01*
X5851015Y-16617436D02*
X5860539Y-16626960D01*
X5860539Y-16626960D02*
X5851015Y-16636484D01*
X5851015Y-16636484D02*
X5841491Y-16626960D01*
X5841491Y-16626960D02*
X5851015Y-16617436D01*
X5851015Y-16617436D02*
X5851015Y-16636484D01*
X5984348Y-16436484D02*
X6003396Y-16436484D01*
X6003396Y-16436484D02*
X6022444Y-16446008D01*
X6022444Y-16446008D02*
X6031967Y-16455531D01*
X6031967Y-16455531D02*
X6041491Y-16474579D01*
X6041491Y-16474579D02*
X6051015Y-16512674D01*
X6051015Y-16512674D02*
X6051015Y-16560293D01*
X6051015Y-16560293D02*
X6041491Y-16598388D01*
X6041491Y-16598388D02*
X6031967Y-16617436D01*
X6031967Y-16617436D02*
X6022444Y-16626960D01*
X6022444Y-16626960D02*
X6003396Y-16636484D01*
X6003396Y-16636484D02*
X5984348Y-16636484D01*
X5984348Y-16636484D02*
X5965301Y-16626960D01*
X5965301Y-16626960D02*
X5955777Y-16617436D01*
X5955777Y-16617436D02*
X5946253Y-16598388D01*
X5946253Y-16598388D02*
X5936729Y-16560293D01*
X5936729Y-16560293D02*
X5936729Y-16512674D01*
X5936729Y-16512674D02*
X5946253Y-16474579D01*
X5946253Y-16474579D02*
X5955777Y-16455531D01*
X5955777Y-16455531D02*
X5965301Y-16446008D01*
X5965301Y-16446008D02*
X5984348Y-16436484D01*
X6241491Y-16636484D02*
X6127206Y-16636484D01*
X6184348Y-16636484D02*
X6184348Y-16436484D01*
X6184348Y-16436484D02*
X6165301Y-16465055D01*
X6165301Y-16465055D02*
X6146253Y-16484103D01*
X6146253Y-16484103D02*
X6127206Y-16493627D01*
X6422444Y-16436484D02*
X6327206Y-16436484D01*
X6327206Y-16436484D02*
X6317682Y-16531722D01*
X6317682Y-16531722D02*
X6327206Y-16522198D01*
X6327206Y-16522198D02*
X6346253Y-16512674D01*
X6346253Y-16512674D02*
X6393872Y-16512674D01*
X6393872Y-16512674D02*
X6412920Y-16522198D01*
X6412920Y-16522198D02*
X6422444Y-16531722D01*
X6422444Y-16531722D02*
X6431967Y-16550769D01*
X6431967Y-16550769D02*
X6431967Y-16598388D01*
X6431967Y-16598388D02*
X6422444Y-16617436D01*
X6422444Y-16617436D02*
X6412920Y-16626960D01*
X6412920Y-16626960D02*
X6393872Y-16636484D01*
X6393872Y-16636484D02*
X6346253Y-16636484D01*
X6346253Y-16636484D02*
X6327206Y-16626960D01*
X6327206Y-16626960D02*
X6317682Y-16617436D01*
X6498634Y-16436484D02*
X6631967Y-16436484D01*
X6631967Y-16436484D02*
X6546253Y-16636484D01*
X6698634Y-16436484D02*
X6698634Y-16474579D01*
X6774825Y-16436484D02*
X6774825Y-16474579D01*
X7070063Y-16712674D02*
X7060539Y-16703150D01*
X7060539Y-16703150D02*
X7041491Y-16674579D01*
X7041491Y-16674579D02*
X7031968Y-16655531D01*
X7031968Y-16655531D02*
X7022444Y-16626960D01*
X7022444Y-16626960D02*
X7012920Y-16579341D01*
X7012920Y-16579341D02*
X7012920Y-16541246D01*
X7012920Y-16541246D02*
X7022444Y-16493627D01*
X7022444Y-16493627D02*
X7031968Y-16465055D01*
X7031968Y-16465055D02*
X7041491Y-16446008D01*
X7041491Y-16446008D02*
X7060539Y-16417436D01*
X7060539Y-16417436D02*
X7070063Y-16407912D01*
X7251015Y-16636484D02*
X7136729Y-16636484D01*
X7193872Y-16636484D02*
X7193872Y-16436484D01*
X7193872Y-16436484D02*
X7174825Y-16465055D01*
X7174825Y-16465055D02*
X7155777Y-16484103D01*
X7155777Y-16484103D02*
X7136729Y-16493627D01*
X7346253Y-16636484D02*
X7384348Y-16636484D01*
X7384348Y-16636484D02*
X7403396Y-16626960D01*
X7403396Y-16626960D02*
X7412920Y-16617436D01*
X7412920Y-16617436D02*
X7431968Y-16588865D01*
X7431968Y-16588865D02*
X7441491Y-16550769D01*
X7441491Y-16550769D02*
X7441491Y-16474579D01*
X7441491Y-16474579D02*
X7431968Y-16455531D01*
X7431968Y-16455531D02*
X7422444Y-16446008D01*
X7422444Y-16446008D02*
X7403396Y-16436484D01*
X7403396Y-16436484D02*
X7365301Y-16436484D01*
X7365301Y-16436484D02*
X7346253Y-16446008D01*
X7346253Y-16446008D02*
X7336729Y-16455531D01*
X7336729Y-16455531D02*
X7327206Y-16474579D01*
X7327206Y-16474579D02*
X7327206Y-16522198D01*
X7327206Y-16522198D02*
X7336729Y-16541246D01*
X7336729Y-16541246D02*
X7346253Y-16550769D01*
X7346253Y-16550769D02*
X7365301Y-16560293D01*
X7365301Y-16560293D02*
X7403396Y-16560293D01*
X7403396Y-16560293D02*
X7422444Y-16550769D01*
X7422444Y-16550769D02*
X7431968Y-16541246D01*
X7431968Y-16541246D02*
X7441491Y-16522198D01*
X7679587Y-16636484D02*
X7679587Y-16436484D01*
X7765301Y-16636484D02*
X7765301Y-16531722D01*
X7765301Y-16531722D02*
X7755777Y-16512674D01*
X7755777Y-16512674D02*
X7736730Y-16503150D01*
X7736730Y-16503150D02*
X7708158Y-16503150D01*
X7708158Y-16503150D02*
X7689110Y-16512674D01*
X7689110Y-16512674D02*
X7679587Y-16522198D01*
X7889110Y-16636484D02*
X7870063Y-16626960D01*
X7870063Y-16626960D02*
X7860539Y-16617436D01*
X7860539Y-16617436D02*
X7851015Y-16598388D01*
X7851015Y-16598388D02*
X7851015Y-16541246D01*
X7851015Y-16541246D02*
X7860539Y-16522198D01*
X7860539Y-16522198D02*
X7870063Y-16512674D01*
X7870063Y-16512674D02*
X7889110Y-16503150D01*
X7889110Y-16503150D02*
X7917682Y-16503150D01*
X7917682Y-16503150D02*
X7936730Y-16512674D01*
X7936730Y-16512674D02*
X7946253Y-16522198D01*
X7946253Y-16522198D02*
X7955777Y-16541246D01*
X7955777Y-16541246D02*
X7955777Y-16598388D01*
X7955777Y-16598388D02*
X7946253Y-16617436D01*
X7946253Y-16617436D02*
X7936730Y-16626960D01*
X7936730Y-16626960D02*
X7917682Y-16636484D01*
X7917682Y-16636484D02*
X7889110Y-16636484D01*
X8070063Y-16636484D02*
X8051015Y-16626960D01*
X8051015Y-16626960D02*
X8041491Y-16607912D01*
X8041491Y-16607912D02*
X8041491Y-16436484D01*
X8222444Y-16626960D02*
X8203396Y-16636484D01*
X8203396Y-16636484D02*
X8165301Y-16636484D01*
X8165301Y-16636484D02*
X8146253Y-16626960D01*
X8146253Y-16626960D02*
X8136730Y-16607912D01*
X8136730Y-16607912D02*
X8136730Y-16531722D01*
X8136730Y-16531722D02*
X8146253Y-16512674D01*
X8146253Y-16512674D02*
X8165301Y-16503150D01*
X8165301Y-16503150D02*
X8203396Y-16503150D01*
X8203396Y-16503150D02*
X8222444Y-16512674D01*
X8222444Y-16512674D02*
X8231968Y-16531722D01*
X8231968Y-16531722D02*
X8231968Y-16550769D01*
X8231968Y-16550769D02*
X8136730Y-16569817D01*
X8308158Y-16626960D02*
X8327206Y-16636484D01*
X8327206Y-16636484D02*
X8365301Y-16636484D01*
X8365301Y-16636484D02*
X8384349Y-16626960D01*
X8384349Y-16626960D02*
X8393873Y-16607912D01*
X8393873Y-16607912D02*
X8393873Y-16598388D01*
X8393873Y-16598388D02*
X8384349Y-16579341D01*
X8384349Y-16579341D02*
X8365301Y-16569817D01*
X8365301Y-16569817D02*
X8336730Y-16569817D01*
X8336730Y-16569817D02*
X8317682Y-16560293D01*
X8317682Y-16560293D02*
X8308158Y-16541246D01*
X8308158Y-16541246D02*
X8308158Y-16531722D01*
X8308158Y-16531722D02*
X8317682Y-16512674D01*
X8317682Y-16512674D02*
X8336730Y-16503150D01*
X8336730Y-16503150D02*
X8365301Y-16503150D01*
X8365301Y-16503150D02*
X8384349Y-16512674D01*
X8460539Y-16712674D02*
X8470063Y-16703150D01*
X8470063Y-16703150D02*
X8489111Y-16674579D01*
X8489111Y-16674579D02*
X8498634Y-16655531D01*
X8498634Y-16655531D02*
X8508158Y-16626960D01*
X8508158Y-16626960D02*
X8517682Y-16579341D01*
X8517682Y-16579341D02*
X8517682Y-16541246D01*
X8517682Y-16541246D02*
X8508158Y-16493627D01*
X8508158Y-16493627D02*
X8498634Y-16465055D01*
X8498634Y-16465055D02*
X8489111Y-16446008D01*
X8489111Y-16446008D02*
X8470063Y-16417436D01*
X8470063Y-16417436D02*
X8460539Y-16407912D01*
D13*
X3495000Y-16809000D02*
G75*
G03*
X3495000Y-16809000I-37500J0D01*
G01*
D11*
X3793872Y-16700484D02*
X3812920Y-16700484D01*
X3812920Y-16700484D02*
X3831967Y-16710008D01*
X3831967Y-16710008D02*
X3841491Y-16719531D01*
X3841491Y-16719531D02*
X3851015Y-16738579D01*
X3851015Y-16738579D02*
X3860539Y-16776674D01*
X3860539Y-16776674D02*
X3860539Y-16824293D01*
X3860539Y-16824293D02*
X3851015Y-16862389D01*
X3851015Y-16862389D02*
X3841491Y-16881436D01*
X3841491Y-16881436D02*
X3831967Y-16890960D01*
X3831967Y-16890960D02*
X3812920Y-16900484D01*
X3812920Y-16900484D02*
X3793872Y-16900484D01*
X3793872Y-16900484D02*
X3774824Y-16890960D01*
X3774824Y-16890960D02*
X3765301Y-16881436D01*
X3765301Y-16881436D02*
X3755777Y-16862389D01*
X3755777Y-16862389D02*
X3746253Y-16824293D01*
X3746253Y-16824293D02*
X3746253Y-16776674D01*
X3746253Y-16776674D02*
X3755777Y-16738579D01*
X3755777Y-16738579D02*
X3765301Y-16719531D01*
X3765301Y-16719531D02*
X3774824Y-16710008D01*
X3774824Y-16710008D02*
X3793872Y-16700484D01*
X3946253Y-16881436D02*
X3955777Y-16890960D01*
X3955777Y-16890960D02*
X3946253Y-16900484D01*
X3946253Y-16900484D02*
X3936729Y-16890960D01*
X3936729Y-16890960D02*
X3946253Y-16881436D01*
X3946253Y-16881436D02*
X3946253Y-16900484D01*
X4022443Y-16700484D02*
X4155777Y-16700484D01*
X4155777Y-16700484D02*
X4070062Y-16900484D01*
X4327205Y-16700484D02*
X4231967Y-16700484D01*
X4231967Y-16700484D02*
X4222444Y-16795722D01*
X4222444Y-16795722D02*
X4231967Y-16786198D01*
X4231967Y-16786198D02*
X4251015Y-16776674D01*
X4251015Y-16776674D02*
X4298634Y-16776674D01*
X4298634Y-16776674D02*
X4317682Y-16786198D01*
X4317682Y-16786198D02*
X4327205Y-16795722D01*
X4327205Y-16795722D02*
X4336729Y-16814770D01*
X4336729Y-16814770D02*
X4336729Y-16862389D01*
X4336729Y-16862389D02*
X4327205Y-16881436D01*
X4327205Y-16881436D02*
X4317682Y-16890960D01*
X4317682Y-16890960D02*
X4298634Y-16900484D01*
X4298634Y-16900484D02*
X4251015Y-16900484D01*
X4251015Y-16900484D02*
X4231967Y-16890960D01*
X4231967Y-16890960D02*
X4222444Y-16881436D01*
X4460539Y-16700484D02*
X4479586Y-16700484D01*
X4479586Y-16700484D02*
X4498634Y-16710008D01*
X4498634Y-16710008D02*
X4508158Y-16719531D01*
X4508158Y-16719531D02*
X4517682Y-16738579D01*
X4517682Y-16738579D02*
X4527205Y-16776674D01*
X4527205Y-16776674D02*
X4527205Y-16824293D01*
X4527205Y-16824293D02*
X4517682Y-16862389D01*
X4517682Y-16862389D02*
X4508158Y-16881436D01*
X4508158Y-16881436D02*
X4498634Y-16890960D01*
X4498634Y-16890960D02*
X4479586Y-16900484D01*
X4479586Y-16900484D02*
X4460539Y-16900484D01*
X4460539Y-16900484D02*
X4441491Y-16890960D01*
X4441491Y-16890960D02*
X4431967Y-16881436D01*
X4431967Y-16881436D02*
X4422444Y-16862389D01*
X4422444Y-16862389D02*
X4412920Y-16824293D01*
X4412920Y-16824293D02*
X4412920Y-16776674D01*
X4412920Y-16776674D02*
X4422444Y-16738579D01*
X4422444Y-16738579D02*
X4431967Y-16719531D01*
X4431967Y-16719531D02*
X4441491Y-16710008D01*
X4441491Y-16710008D02*
X4460539Y-16700484D01*
X4612920Y-16900484D02*
X4612920Y-16767150D01*
X4612920Y-16786198D02*
X4622444Y-16776674D01*
X4622444Y-16776674D02*
X4641491Y-16767150D01*
X4641491Y-16767150D02*
X4670063Y-16767150D01*
X4670063Y-16767150D02*
X4689110Y-16776674D01*
X4689110Y-16776674D02*
X4698634Y-16795722D01*
X4698634Y-16795722D02*
X4698634Y-16900484D01*
X4698634Y-16795722D02*
X4708158Y-16776674D01*
X4708158Y-16776674D02*
X4727205Y-16767150D01*
X4727205Y-16767150D02*
X4755777Y-16767150D01*
X4755777Y-16767150D02*
X4774825Y-16776674D01*
X4774825Y-16776674D02*
X4784348Y-16795722D01*
X4784348Y-16795722D02*
X4784348Y-16900484D01*
X4879586Y-16900484D02*
X4879586Y-16767150D01*
X4879586Y-16786198D02*
X4889110Y-16776674D01*
X4889110Y-16776674D02*
X4908158Y-16767150D01*
X4908158Y-16767150D02*
X4936729Y-16767150D01*
X4936729Y-16767150D02*
X4955777Y-16776674D01*
X4955777Y-16776674D02*
X4965301Y-16795722D01*
X4965301Y-16795722D02*
X4965301Y-16900484D01*
X4965301Y-16795722D02*
X4974825Y-16776674D01*
X4974825Y-16776674D02*
X4993872Y-16767150D01*
X4993872Y-16767150D02*
X5022444Y-16767150D01*
X5022444Y-16767150D02*
X5041491Y-16776674D01*
X5041491Y-16776674D02*
X5051015Y-16795722D01*
X5051015Y-16795722D02*
X5051015Y-16900484D01*
X5441491Y-16690960D02*
X5270063Y-16948103D01*
X5698634Y-16700484D02*
X5717682Y-16700484D01*
X5717682Y-16700484D02*
X5736729Y-16710008D01*
X5736729Y-16710008D02*
X5746253Y-16719531D01*
X5746253Y-16719531D02*
X5755777Y-16738579D01*
X5755777Y-16738579D02*
X5765301Y-16776674D01*
X5765301Y-16776674D02*
X5765301Y-16824293D01*
X5765301Y-16824293D02*
X5755777Y-16862389D01*
X5755777Y-16862389D02*
X5746253Y-16881436D01*
X5746253Y-16881436D02*
X5736729Y-16890960D01*
X5736729Y-16890960D02*
X5717682Y-16900484D01*
X5717682Y-16900484D02*
X5698634Y-16900484D01*
X5698634Y-16900484D02*
X5679586Y-16890960D01*
X5679586Y-16890960D02*
X5670063Y-16881436D01*
X5670063Y-16881436D02*
X5660539Y-16862389D01*
X5660539Y-16862389D02*
X5651015Y-16824293D01*
X5651015Y-16824293D02*
X5651015Y-16776674D01*
X5651015Y-16776674D02*
X5660539Y-16738579D01*
X5660539Y-16738579D02*
X5670063Y-16719531D01*
X5670063Y-16719531D02*
X5679586Y-16710008D01*
X5679586Y-16710008D02*
X5698634Y-16700484D01*
X5851015Y-16881436D02*
X5860539Y-16890960D01*
X5860539Y-16890960D02*
X5851015Y-16900484D01*
X5851015Y-16900484D02*
X5841491Y-16890960D01*
X5841491Y-16890960D02*
X5851015Y-16881436D01*
X5851015Y-16881436D02*
X5851015Y-16900484D01*
X5984348Y-16700484D02*
X6003396Y-16700484D01*
X6003396Y-16700484D02*
X6022444Y-16710008D01*
X6022444Y-16710008D02*
X6031967Y-16719531D01*
X6031967Y-16719531D02*
X6041491Y-16738579D01*
X6041491Y-16738579D02*
X6051015Y-16776674D01*
X6051015Y-16776674D02*
X6051015Y-16824293D01*
X6051015Y-16824293D02*
X6041491Y-16862389D01*
X6041491Y-16862389D02*
X6031967Y-16881436D01*
X6031967Y-16881436D02*
X6022444Y-16890960D01*
X6022444Y-16890960D02*
X6003396Y-16900484D01*
X6003396Y-16900484D02*
X5984348Y-16900484D01*
X5984348Y-16900484D02*
X5965301Y-16890960D01*
X5965301Y-16890960D02*
X5955777Y-16881436D01*
X5955777Y-16881436D02*
X5946253Y-16862389D01*
X5946253Y-16862389D02*
X5936729Y-16824293D01*
X5936729Y-16824293D02*
X5936729Y-16776674D01*
X5936729Y-16776674D02*
X5946253Y-16738579D01*
X5946253Y-16738579D02*
X5955777Y-16719531D01*
X5955777Y-16719531D02*
X5965301Y-16710008D01*
X5965301Y-16710008D02*
X5984348Y-16700484D01*
X6127206Y-16719531D02*
X6136729Y-16710008D01*
X6136729Y-16710008D02*
X6155777Y-16700484D01*
X6155777Y-16700484D02*
X6203396Y-16700484D01*
X6203396Y-16700484D02*
X6222444Y-16710008D01*
X6222444Y-16710008D02*
X6231967Y-16719531D01*
X6231967Y-16719531D02*
X6241491Y-16738579D01*
X6241491Y-16738579D02*
X6241491Y-16757627D01*
X6241491Y-16757627D02*
X6231967Y-16786198D01*
X6231967Y-16786198D02*
X6117682Y-16900484D01*
X6117682Y-16900484D02*
X6241491Y-16900484D01*
X6336729Y-16900484D02*
X6374825Y-16900484D01*
X6374825Y-16900484D02*
X6393872Y-16890960D01*
X6393872Y-16890960D02*
X6403396Y-16881436D01*
X6403396Y-16881436D02*
X6422444Y-16852865D01*
X6422444Y-16852865D02*
X6431967Y-16814770D01*
X6431967Y-16814770D02*
X6431967Y-16738579D01*
X6431967Y-16738579D02*
X6422444Y-16719531D01*
X6422444Y-16719531D02*
X6412920Y-16710008D01*
X6412920Y-16710008D02*
X6393872Y-16700484D01*
X6393872Y-16700484D02*
X6355777Y-16700484D01*
X6355777Y-16700484D02*
X6336729Y-16710008D01*
X6336729Y-16710008D02*
X6327206Y-16719531D01*
X6327206Y-16719531D02*
X6317682Y-16738579D01*
X6317682Y-16738579D02*
X6317682Y-16786198D01*
X6317682Y-16786198D02*
X6327206Y-16805246D01*
X6327206Y-16805246D02*
X6336729Y-16814770D01*
X6336729Y-16814770D02*
X6355777Y-16824293D01*
X6355777Y-16824293D02*
X6393872Y-16824293D01*
X6393872Y-16824293D02*
X6412920Y-16814770D01*
X6412920Y-16814770D02*
X6422444Y-16805246D01*
X6422444Y-16805246D02*
X6431967Y-16786198D01*
X6612920Y-16700484D02*
X6517682Y-16700484D01*
X6517682Y-16700484D02*
X6508158Y-16795722D01*
X6508158Y-16795722D02*
X6517682Y-16786198D01*
X6517682Y-16786198D02*
X6536729Y-16776674D01*
X6536729Y-16776674D02*
X6584348Y-16776674D01*
X6584348Y-16776674D02*
X6603396Y-16786198D01*
X6603396Y-16786198D02*
X6612920Y-16795722D01*
X6612920Y-16795722D02*
X6622444Y-16814770D01*
X6622444Y-16814770D02*
X6622444Y-16862389D01*
X6622444Y-16862389D02*
X6612920Y-16881436D01*
X6612920Y-16881436D02*
X6603396Y-16890960D01*
X6603396Y-16890960D02*
X6584348Y-16900484D01*
X6584348Y-16900484D02*
X6536729Y-16900484D01*
X6536729Y-16900484D02*
X6517682Y-16890960D01*
X6517682Y-16890960D02*
X6508158Y-16881436D01*
X6698634Y-16700484D02*
X6698634Y-16738579D01*
X6774825Y-16700484D02*
X6774825Y-16738579D01*
X7070063Y-16976674D02*
X7060539Y-16967150D01*
X7060539Y-16967150D02*
X7041491Y-16938579D01*
X7041491Y-16938579D02*
X7031968Y-16919531D01*
X7031968Y-16919531D02*
X7022444Y-16890960D01*
X7022444Y-16890960D02*
X7012920Y-16843341D01*
X7012920Y-16843341D02*
X7012920Y-16805246D01*
X7012920Y-16805246D02*
X7022444Y-16757627D01*
X7022444Y-16757627D02*
X7031968Y-16729055D01*
X7031968Y-16729055D02*
X7041491Y-16710008D01*
X7041491Y-16710008D02*
X7060539Y-16681436D01*
X7060539Y-16681436D02*
X7070063Y-16671912D01*
X7136729Y-16719531D02*
X7146253Y-16710008D01*
X7146253Y-16710008D02*
X7165301Y-16700484D01*
X7165301Y-16700484D02*
X7212920Y-16700484D01*
X7212920Y-16700484D02*
X7231968Y-16710008D01*
X7231968Y-16710008D02*
X7241491Y-16719531D01*
X7241491Y-16719531D02*
X7251015Y-16738579D01*
X7251015Y-16738579D02*
X7251015Y-16757627D01*
X7251015Y-16757627D02*
X7241491Y-16786198D01*
X7241491Y-16786198D02*
X7127206Y-16900484D01*
X7127206Y-16900484D02*
X7251015Y-16900484D01*
X7489110Y-16900484D02*
X7489110Y-16700484D01*
X7574825Y-16900484D02*
X7574825Y-16795722D01*
X7574825Y-16795722D02*
X7565301Y-16776674D01*
X7565301Y-16776674D02*
X7546253Y-16767150D01*
X7546253Y-16767150D02*
X7517682Y-16767150D01*
X7517682Y-16767150D02*
X7498634Y-16776674D01*
X7498634Y-16776674D02*
X7489110Y-16786198D01*
X7698634Y-16900484D02*
X7679587Y-16890960D01*
X7679587Y-16890960D02*
X7670063Y-16881436D01*
X7670063Y-16881436D02*
X7660539Y-16862389D01*
X7660539Y-16862389D02*
X7660539Y-16805246D01*
X7660539Y-16805246D02*
X7670063Y-16786198D01*
X7670063Y-16786198D02*
X7679587Y-16776674D01*
X7679587Y-16776674D02*
X7698634Y-16767150D01*
X7698634Y-16767150D02*
X7727206Y-16767150D01*
X7727206Y-16767150D02*
X7746253Y-16776674D01*
X7746253Y-16776674D02*
X7755777Y-16786198D01*
X7755777Y-16786198D02*
X7765301Y-16805246D01*
X7765301Y-16805246D02*
X7765301Y-16862389D01*
X7765301Y-16862389D02*
X7755777Y-16881436D01*
X7755777Y-16881436D02*
X7746253Y-16890960D01*
X7746253Y-16890960D02*
X7727206Y-16900484D01*
X7727206Y-16900484D02*
X7698634Y-16900484D01*
X7879587Y-16900484D02*
X7860539Y-16890960D01*
X7860539Y-16890960D02*
X7851015Y-16871912D01*
X7851015Y-16871912D02*
X7851015Y-16700484D01*
X8031968Y-16890960D02*
X8012920Y-16900484D01*
X8012920Y-16900484D02*
X7974825Y-16900484D01*
X7974825Y-16900484D02*
X7955777Y-16890960D01*
X7955777Y-16890960D02*
X7946253Y-16871912D01*
X7946253Y-16871912D02*
X7946253Y-16795722D01*
X7946253Y-16795722D02*
X7955777Y-16776674D01*
X7955777Y-16776674D02*
X7974825Y-16767150D01*
X7974825Y-16767150D02*
X8012920Y-16767150D01*
X8012920Y-16767150D02*
X8031968Y-16776674D01*
X8031968Y-16776674D02*
X8041491Y-16795722D01*
X8041491Y-16795722D02*
X8041491Y-16814770D01*
X8041491Y-16814770D02*
X7946253Y-16833817D01*
X8117682Y-16890960D02*
X8136730Y-16900484D01*
X8136730Y-16900484D02*
X8174825Y-16900484D01*
X8174825Y-16900484D02*
X8193872Y-16890960D01*
X8193872Y-16890960D02*
X8203396Y-16871912D01*
X8203396Y-16871912D02*
X8203396Y-16862389D01*
X8203396Y-16862389D02*
X8193872Y-16843341D01*
X8193872Y-16843341D02*
X8174825Y-16833817D01*
X8174825Y-16833817D02*
X8146253Y-16833817D01*
X8146253Y-16833817D02*
X8127206Y-16824293D01*
X8127206Y-16824293D02*
X8117682Y-16805246D01*
X8117682Y-16805246D02*
X8117682Y-16795722D01*
X8117682Y-16795722D02*
X8127206Y-16776674D01*
X8127206Y-16776674D02*
X8146253Y-16767150D01*
X8146253Y-16767150D02*
X8174825Y-16767150D01*
X8174825Y-16767150D02*
X8193872Y-16776674D01*
X8270063Y-16976674D02*
X8279587Y-16967150D01*
X8279587Y-16967150D02*
X8298634Y-16938579D01*
X8298634Y-16938579D02*
X8308158Y-16919531D01*
X8308158Y-16919531D02*
X8317682Y-16890960D01*
X8317682Y-16890960D02*
X8327206Y-16843341D01*
X8327206Y-16843341D02*
X8327206Y-16805246D01*
X8327206Y-16805246D02*
X8317682Y-16757627D01*
X8317682Y-16757627D02*
X8308158Y-16729055D01*
X8308158Y-16729055D02*
X8298634Y-16710008D01*
X8298634Y-16710008D02*
X8279587Y-16681436D01*
X8279587Y-16681436D02*
X8270063Y-16671912D01*
D10*
X3445000Y-17023000D02*
X3445000Y-17123000D01*
X3395000Y-17073000D02*
X3495000Y-17073000D01*
D11*
X3860539Y-17164484D02*
X3746253Y-17164484D01*
X3803396Y-17164484D02*
X3803396Y-16964484D01*
X3803396Y-16964484D02*
X3784348Y-16993055D01*
X3784348Y-16993055D02*
X3765301Y-17012103D01*
X3765301Y-17012103D02*
X3746253Y-17021627D01*
X3946253Y-17145436D02*
X3955777Y-17154960D01*
X3955777Y-17154960D02*
X3946253Y-17164484D01*
X3946253Y-17164484D02*
X3936729Y-17154960D01*
X3936729Y-17154960D02*
X3946253Y-17145436D01*
X3946253Y-17145436D02*
X3946253Y-17164484D01*
X4079586Y-16964484D02*
X4098634Y-16964484D01*
X4098634Y-16964484D02*
X4117682Y-16974008D01*
X4117682Y-16974008D02*
X4127205Y-16983531D01*
X4127205Y-16983531D02*
X4136729Y-17002579D01*
X4136729Y-17002579D02*
X4146253Y-17040674D01*
X4146253Y-17040674D02*
X4146253Y-17088293D01*
X4146253Y-17088293D02*
X4136729Y-17126389D01*
X4136729Y-17126389D02*
X4127205Y-17145436D01*
X4127205Y-17145436D02*
X4117682Y-17154960D01*
X4117682Y-17154960D02*
X4098634Y-17164484D01*
X4098634Y-17164484D02*
X4079586Y-17164484D01*
X4079586Y-17164484D02*
X4060539Y-17154960D01*
X4060539Y-17154960D02*
X4051015Y-17145436D01*
X4051015Y-17145436D02*
X4041491Y-17126389D01*
X4041491Y-17126389D02*
X4031967Y-17088293D01*
X4031967Y-17088293D02*
X4031967Y-17040674D01*
X4031967Y-17040674D02*
X4041491Y-17002579D01*
X4041491Y-17002579D02*
X4051015Y-16983531D01*
X4051015Y-16983531D02*
X4060539Y-16974008D01*
X4060539Y-16974008D02*
X4079586Y-16964484D01*
X4270063Y-16964484D02*
X4289110Y-16964484D01*
X4289110Y-16964484D02*
X4308158Y-16974008D01*
X4308158Y-16974008D02*
X4317682Y-16983531D01*
X4317682Y-16983531D02*
X4327205Y-17002579D01*
X4327205Y-17002579D02*
X4336729Y-17040674D01*
X4336729Y-17040674D02*
X4336729Y-17088293D01*
X4336729Y-17088293D02*
X4327205Y-17126389D01*
X4327205Y-17126389D02*
X4317682Y-17145436D01*
X4317682Y-17145436D02*
X4308158Y-17154960D01*
X4308158Y-17154960D02*
X4289110Y-17164484D01*
X4289110Y-17164484D02*
X4270063Y-17164484D01*
X4270063Y-17164484D02*
X4251015Y-17154960D01*
X4251015Y-17154960D02*
X4241491Y-17145436D01*
X4241491Y-17145436D02*
X4231967Y-17126389D01*
X4231967Y-17126389D02*
X4222444Y-17088293D01*
X4222444Y-17088293D02*
X4222444Y-17040674D01*
X4222444Y-17040674D02*
X4231967Y-17002579D01*
X4231967Y-17002579D02*
X4241491Y-16983531D01*
X4241491Y-16983531D02*
X4251015Y-16974008D01*
X4251015Y-16974008D02*
X4270063Y-16964484D01*
X4460539Y-16964484D02*
X4479586Y-16964484D01*
X4479586Y-16964484D02*
X4498634Y-16974008D01*
X4498634Y-16974008D02*
X4508158Y-16983531D01*
X4508158Y-16983531D02*
X4517682Y-17002579D01*
X4517682Y-17002579D02*
X4527205Y-17040674D01*
X4527205Y-17040674D02*
X4527205Y-17088293D01*
X4527205Y-17088293D02*
X4517682Y-17126389D01*
X4517682Y-17126389D02*
X4508158Y-17145436D01*
X4508158Y-17145436D02*
X4498634Y-17154960D01*
X4498634Y-17154960D02*
X4479586Y-17164484D01*
X4479586Y-17164484D02*
X4460539Y-17164484D01*
X4460539Y-17164484D02*
X4441491Y-17154960D01*
X4441491Y-17154960D02*
X4431967Y-17145436D01*
X4431967Y-17145436D02*
X4422444Y-17126389D01*
X4422444Y-17126389D02*
X4412920Y-17088293D01*
X4412920Y-17088293D02*
X4412920Y-17040674D01*
X4412920Y-17040674D02*
X4422444Y-17002579D01*
X4422444Y-17002579D02*
X4431967Y-16983531D01*
X4431967Y-16983531D02*
X4441491Y-16974008D01*
X4441491Y-16974008D02*
X4460539Y-16964484D01*
X4612920Y-17164484D02*
X4612920Y-17031150D01*
X4612920Y-17050198D02*
X4622444Y-17040674D01*
X4622444Y-17040674D02*
X4641491Y-17031150D01*
X4641491Y-17031150D02*
X4670063Y-17031150D01*
X4670063Y-17031150D02*
X4689110Y-17040674D01*
X4689110Y-17040674D02*
X4698634Y-17059722D01*
X4698634Y-17059722D02*
X4698634Y-17164484D01*
X4698634Y-17059722D02*
X4708158Y-17040674D01*
X4708158Y-17040674D02*
X4727205Y-17031150D01*
X4727205Y-17031150D02*
X4755777Y-17031150D01*
X4755777Y-17031150D02*
X4774825Y-17040674D01*
X4774825Y-17040674D02*
X4784348Y-17059722D01*
X4784348Y-17059722D02*
X4784348Y-17164484D01*
X4879586Y-17164484D02*
X4879586Y-17031150D01*
X4879586Y-17050198D02*
X4889110Y-17040674D01*
X4889110Y-17040674D02*
X4908158Y-17031150D01*
X4908158Y-17031150D02*
X4936729Y-17031150D01*
X4936729Y-17031150D02*
X4955777Y-17040674D01*
X4955777Y-17040674D02*
X4965301Y-17059722D01*
X4965301Y-17059722D02*
X4965301Y-17164484D01*
X4965301Y-17059722D02*
X4974825Y-17040674D01*
X4974825Y-17040674D02*
X4993872Y-17031150D01*
X4993872Y-17031150D02*
X5022444Y-17031150D01*
X5022444Y-17031150D02*
X5041491Y-17040674D01*
X5041491Y-17040674D02*
X5051015Y-17059722D01*
X5051015Y-17059722D02*
X5051015Y-17164484D01*
X5441491Y-16954960D02*
X5270063Y-17212103D01*
X5698634Y-16964484D02*
X5717682Y-16964484D01*
X5717682Y-16964484D02*
X5736729Y-16974008D01*
X5736729Y-16974008D02*
X5746253Y-16983531D01*
X5746253Y-16983531D02*
X5755777Y-17002579D01*
X5755777Y-17002579D02*
X5765301Y-17040674D01*
X5765301Y-17040674D02*
X5765301Y-17088293D01*
X5765301Y-17088293D02*
X5755777Y-17126389D01*
X5755777Y-17126389D02*
X5746253Y-17145436D01*
X5746253Y-17145436D02*
X5736729Y-17154960D01*
X5736729Y-17154960D02*
X5717682Y-17164484D01*
X5717682Y-17164484D02*
X5698634Y-17164484D01*
X5698634Y-17164484D02*
X5679586Y-17154960D01*
X5679586Y-17154960D02*
X5670063Y-17145436D01*
X5670063Y-17145436D02*
X5660539Y-17126389D01*
X5660539Y-17126389D02*
X5651015Y-17088293D01*
X5651015Y-17088293D02*
X5651015Y-17040674D01*
X5651015Y-17040674D02*
X5660539Y-17002579D01*
X5660539Y-17002579D02*
X5670063Y-16983531D01*
X5670063Y-16983531D02*
X5679586Y-16974008D01*
X5679586Y-16974008D02*
X5698634Y-16964484D01*
X5851015Y-17145436D02*
X5860539Y-17154960D01*
X5860539Y-17154960D02*
X5851015Y-17164484D01*
X5851015Y-17164484D02*
X5841491Y-17154960D01*
X5841491Y-17154960D02*
X5851015Y-17145436D01*
X5851015Y-17145436D02*
X5851015Y-17164484D01*
X5984348Y-16964484D02*
X6003396Y-16964484D01*
X6003396Y-16964484D02*
X6022444Y-16974008D01*
X6022444Y-16974008D02*
X6031967Y-16983531D01*
X6031967Y-16983531D02*
X6041491Y-17002579D01*
X6041491Y-17002579D02*
X6051015Y-17040674D01*
X6051015Y-17040674D02*
X6051015Y-17088293D01*
X6051015Y-17088293D02*
X6041491Y-17126389D01*
X6041491Y-17126389D02*
X6031967Y-17145436D01*
X6031967Y-17145436D02*
X6022444Y-17154960D01*
X6022444Y-17154960D02*
X6003396Y-17164484D01*
X6003396Y-17164484D02*
X5984348Y-17164484D01*
X5984348Y-17164484D02*
X5965301Y-17154960D01*
X5965301Y-17154960D02*
X5955777Y-17145436D01*
X5955777Y-17145436D02*
X5946253Y-17126389D01*
X5946253Y-17126389D02*
X5936729Y-17088293D01*
X5936729Y-17088293D02*
X5936729Y-17040674D01*
X5936729Y-17040674D02*
X5946253Y-17002579D01*
X5946253Y-17002579D02*
X5955777Y-16983531D01*
X5955777Y-16983531D02*
X5965301Y-16974008D01*
X5965301Y-16974008D02*
X5984348Y-16964484D01*
X6117682Y-16964484D02*
X6241491Y-16964484D01*
X6241491Y-16964484D02*
X6174825Y-17040674D01*
X6174825Y-17040674D02*
X6203396Y-17040674D01*
X6203396Y-17040674D02*
X6222444Y-17050198D01*
X6222444Y-17050198D02*
X6231967Y-17059722D01*
X6231967Y-17059722D02*
X6241491Y-17078770D01*
X6241491Y-17078770D02*
X6241491Y-17126389D01*
X6241491Y-17126389D02*
X6231967Y-17145436D01*
X6231967Y-17145436D02*
X6222444Y-17154960D01*
X6222444Y-17154960D02*
X6203396Y-17164484D01*
X6203396Y-17164484D02*
X6146253Y-17164484D01*
X6146253Y-17164484D02*
X6127206Y-17154960D01*
X6127206Y-17154960D02*
X6117682Y-17145436D01*
X6336729Y-17164484D02*
X6374825Y-17164484D01*
X6374825Y-17164484D02*
X6393872Y-17154960D01*
X6393872Y-17154960D02*
X6403396Y-17145436D01*
X6403396Y-17145436D02*
X6422444Y-17116865D01*
X6422444Y-17116865D02*
X6431967Y-17078770D01*
X6431967Y-17078770D02*
X6431967Y-17002579D01*
X6431967Y-17002579D02*
X6422444Y-16983531D01*
X6422444Y-16983531D02*
X6412920Y-16974008D01*
X6412920Y-16974008D02*
X6393872Y-16964484D01*
X6393872Y-16964484D02*
X6355777Y-16964484D01*
X6355777Y-16964484D02*
X6336729Y-16974008D01*
X6336729Y-16974008D02*
X6327206Y-16983531D01*
X6327206Y-16983531D02*
X6317682Y-17002579D01*
X6317682Y-17002579D02*
X6317682Y-17050198D01*
X6317682Y-17050198D02*
X6327206Y-17069246D01*
X6327206Y-17069246D02*
X6336729Y-17078770D01*
X6336729Y-17078770D02*
X6355777Y-17088293D01*
X6355777Y-17088293D02*
X6393872Y-17088293D01*
X6393872Y-17088293D02*
X6412920Y-17078770D01*
X6412920Y-17078770D02*
X6422444Y-17069246D01*
X6422444Y-17069246D02*
X6431967Y-17050198D01*
X6603396Y-17031150D02*
X6603396Y-17164484D01*
X6555777Y-16954960D02*
X6508158Y-17097817D01*
X6508158Y-17097817D02*
X6631967Y-17097817D01*
X6698634Y-16964484D02*
X6698634Y-17002579D01*
X6774825Y-16964484D02*
X6774825Y-17002579D01*
X7070063Y-17240674D02*
X7060539Y-17231150D01*
X7060539Y-17231150D02*
X7041491Y-17202579D01*
X7041491Y-17202579D02*
X7031968Y-17183531D01*
X7031968Y-17183531D02*
X7022444Y-17154960D01*
X7022444Y-17154960D02*
X7012920Y-17107341D01*
X7012920Y-17107341D02*
X7012920Y-17069246D01*
X7012920Y-17069246D02*
X7022444Y-17021627D01*
X7022444Y-17021627D02*
X7031968Y-16993055D01*
X7031968Y-16993055D02*
X7041491Y-16974008D01*
X7041491Y-16974008D02*
X7060539Y-16945436D01*
X7060539Y-16945436D02*
X7070063Y-16935912D01*
X7231968Y-16964484D02*
X7193872Y-16964484D01*
X7193872Y-16964484D02*
X7174825Y-16974008D01*
X7174825Y-16974008D02*
X7165301Y-16983531D01*
X7165301Y-16983531D02*
X7146253Y-17012103D01*
X7146253Y-17012103D02*
X7136729Y-17050198D01*
X7136729Y-17050198D02*
X7136729Y-17126389D01*
X7136729Y-17126389D02*
X7146253Y-17145436D01*
X7146253Y-17145436D02*
X7155777Y-17154960D01*
X7155777Y-17154960D02*
X7174825Y-17164484D01*
X7174825Y-17164484D02*
X7212920Y-17164484D01*
X7212920Y-17164484D02*
X7231968Y-17154960D01*
X7231968Y-17154960D02*
X7241491Y-17145436D01*
X7241491Y-17145436D02*
X7251015Y-17126389D01*
X7251015Y-17126389D02*
X7251015Y-17078770D01*
X7251015Y-17078770D02*
X7241491Y-17059722D01*
X7241491Y-17059722D02*
X7231968Y-17050198D01*
X7231968Y-17050198D02*
X7212920Y-17040674D01*
X7212920Y-17040674D02*
X7174825Y-17040674D01*
X7174825Y-17040674D02*
X7155777Y-17050198D01*
X7155777Y-17050198D02*
X7146253Y-17059722D01*
X7146253Y-17059722D02*
X7136729Y-17078770D01*
X7317682Y-16964484D02*
X7441491Y-16964484D01*
X7441491Y-16964484D02*
X7374825Y-17040674D01*
X7374825Y-17040674D02*
X7403396Y-17040674D01*
X7403396Y-17040674D02*
X7422444Y-17050198D01*
X7422444Y-17050198D02*
X7431968Y-17059722D01*
X7431968Y-17059722D02*
X7441491Y-17078770D01*
X7441491Y-17078770D02*
X7441491Y-17126389D01*
X7441491Y-17126389D02*
X7431968Y-17145436D01*
X7431968Y-17145436D02*
X7422444Y-17154960D01*
X7422444Y-17154960D02*
X7403396Y-17164484D01*
X7403396Y-17164484D02*
X7346253Y-17164484D01*
X7346253Y-17164484D02*
X7327206Y-17154960D01*
X7327206Y-17154960D02*
X7317682Y-17145436D01*
X7679587Y-17164484D02*
X7679587Y-16964484D01*
X7765301Y-17164484D02*
X7765301Y-17059722D01*
X7765301Y-17059722D02*
X7755777Y-17040674D01*
X7755777Y-17040674D02*
X7736730Y-17031150D01*
X7736730Y-17031150D02*
X7708158Y-17031150D01*
X7708158Y-17031150D02*
X7689110Y-17040674D01*
X7689110Y-17040674D02*
X7679587Y-17050198D01*
X7889110Y-17164484D02*
X7870063Y-17154960D01*
X7870063Y-17154960D02*
X7860539Y-17145436D01*
X7860539Y-17145436D02*
X7851015Y-17126389D01*
X7851015Y-17126389D02*
X7851015Y-17069246D01*
X7851015Y-17069246D02*
X7860539Y-17050198D01*
X7860539Y-17050198D02*
X7870063Y-17040674D01*
X7870063Y-17040674D02*
X7889110Y-17031150D01*
X7889110Y-17031150D02*
X7917682Y-17031150D01*
X7917682Y-17031150D02*
X7936730Y-17040674D01*
X7936730Y-17040674D02*
X7946253Y-17050198D01*
X7946253Y-17050198D02*
X7955777Y-17069246D01*
X7955777Y-17069246D02*
X7955777Y-17126389D01*
X7955777Y-17126389D02*
X7946253Y-17145436D01*
X7946253Y-17145436D02*
X7936730Y-17154960D01*
X7936730Y-17154960D02*
X7917682Y-17164484D01*
X7917682Y-17164484D02*
X7889110Y-17164484D01*
X8070063Y-17164484D02*
X8051015Y-17154960D01*
X8051015Y-17154960D02*
X8041491Y-17135912D01*
X8041491Y-17135912D02*
X8041491Y-16964484D01*
X8222444Y-17154960D02*
X8203396Y-17164484D01*
X8203396Y-17164484D02*
X8165301Y-17164484D01*
X8165301Y-17164484D02*
X8146253Y-17154960D01*
X8146253Y-17154960D02*
X8136730Y-17135912D01*
X8136730Y-17135912D02*
X8136730Y-17059722D01*
X8136730Y-17059722D02*
X8146253Y-17040674D01*
X8146253Y-17040674D02*
X8165301Y-17031150D01*
X8165301Y-17031150D02*
X8203396Y-17031150D01*
X8203396Y-17031150D02*
X8222444Y-17040674D01*
X8222444Y-17040674D02*
X8231968Y-17059722D01*
X8231968Y-17059722D02*
X8231968Y-17078770D01*
X8231968Y-17078770D02*
X8136730Y-17097817D01*
X8308158Y-17154960D02*
X8327206Y-17164484D01*
X8327206Y-17164484D02*
X8365301Y-17164484D01*
X8365301Y-17164484D02*
X8384349Y-17154960D01*
X8384349Y-17154960D02*
X8393873Y-17135912D01*
X8393873Y-17135912D02*
X8393873Y-17126389D01*
X8393873Y-17126389D02*
X8384349Y-17107341D01*
X8384349Y-17107341D02*
X8365301Y-17097817D01*
X8365301Y-17097817D02*
X8336730Y-17097817D01*
X8336730Y-17097817D02*
X8317682Y-17088293D01*
X8317682Y-17088293D02*
X8308158Y-17069246D01*
X8308158Y-17069246D02*
X8308158Y-17059722D01*
X8308158Y-17059722D02*
X8317682Y-17040674D01*
X8317682Y-17040674D02*
X8336730Y-17031150D01*
X8336730Y-17031150D02*
X8365301Y-17031150D01*
X8365301Y-17031150D02*
X8384349Y-17040674D01*
X8460539Y-17240674D02*
X8470063Y-17231150D01*
X8470063Y-17231150D02*
X8489111Y-17202579D01*
X8489111Y-17202579D02*
X8498634Y-17183531D01*
X8498634Y-17183531D02*
X8508158Y-17154960D01*
X8508158Y-17154960D02*
X8517682Y-17107341D01*
X8517682Y-17107341D02*
X8517682Y-17069246D01*
X8517682Y-17069246D02*
X8508158Y-17021627D01*
X8508158Y-17021627D02*
X8498634Y-16993055D01*
X8498634Y-16993055D02*
X8489111Y-16974008D01*
X8489111Y-16974008D02*
X8470063Y-16945436D01*
X8470063Y-16945436D02*
X8460539Y-16935912D01*
D14*
X3473033Y-17390034D02*
X3473033Y-17283967D01*
X3366966Y-17283967D01*
X3366966Y-17390034D01*
X3473033Y-17390034D01*
D11*
X3860539Y-17428484D02*
X3746253Y-17428484D01*
X3803396Y-17428484D02*
X3803396Y-17228484D01*
X3803396Y-17228484D02*
X3784348Y-17257055D01*
X3784348Y-17257055D02*
X3765301Y-17276103D01*
X3765301Y-17276103D02*
X3746253Y-17285627D01*
X3946253Y-17409436D02*
X3955777Y-17418960D01*
X3955777Y-17418960D02*
X3946253Y-17428484D01*
X3946253Y-17428484D02*
X3936729Y-17418960D01*
X3936729Y-17418960D02*
X3946253Y-17409436D01*
X3946253Y-17409436D02*
X3946253Y-17428484D01*
X4136729Y-17228484D02*
X4041491Y-17228484D01*
X4041491Y-17228484D02*
X4031967Y-17323722D01*
X4031967Y-17323722D02*
X4041491Y-17314198D01*
X4041491Y-17314198D02*
X4060539Y-17304674D01*
X4060539Y-17304674D02*
X4108158Y-17304674D01*
X4108158Y-17304674D02*
X4127205Y-17314198D01*
X4127205Y-17314198D02*
X4136729Y-17323722D01*
X4136729Y-17323722D02*
X4146253Y-17342770D01*
X4146253Y-17342770D02*
X4146253Y-17390389D01*
X4146253Y-17390389D02*
X4136729Y-17409436D01*
X4136729Y-17409436D02*
X4127205Y-17418960D01*
X4127205Y-17418960D02*
X4108158Y-17428484D01*
X4108158Y-17428484D02*
X4060539Y-17428484D01*
X4060539Y-17428484D02*
X4041491Y-17418960D01*
X4041491Y-17418960D02*
X4031967Y-17409436D01*
X4270063Y-17228484D02*
X4289110Y-17228484D01*
X4289110Y-17228484D02*
X4308158Y-17238008D01*
X4308158Y-17238008D02*
X4317682Y-17247531D01*
X4317682Y-17247531D02*
X4327205Y-17266579D01*
X4327205Y-17266579D02*
X4336729Y-17304674D01*
X4336729Y-17304674D02*
X4336729Y-17352293D01*
X4336729Y-17352293D02*
X4327205Y-17390389D01*
X4327205Y-17390389D02*
X4317682Y-17409436D01*
X4317682Y-17409436D02*
X4308158Y-17418960D01*
X4308158Y-17418960D02*
X4289110Y-17428484D01*
X4289110Y-17428484D02*
X4270063Y-17428484D01*
X4270063Y-17428484D02*
X4251015Y-17418960D01*
X4251015Y-17418960D02*
X4241491Y-17409436D01*
X4241491Y-17409436D02*
X4231967Y-17390389D01*
X4231967Y-17390389D02*
X4222444Y-17352293D01*
X4222444Y-17352293D02*
X4222444Y-17304674D01*
X4222444Y-17304674D02*
X4231967Y-17266579D01*
X4231967Y-17266579D02*
X4241491Y-17247531D01*
X4241491Y-17247531D02*
X4251015Y-17238008D01*
X4251015Y-17238008D02*
X4270063Y-17228484D01*
X4460539Y-17228484D02*
X4479586Y-17228484D01*
X4479586Y-17228484D02*
X4498634Y-17238008D01*
X4498634Y-17238008D02*
X4508158Y-17247531D01*
X4508158Y-17247531D02*
X4517682Y-17266579D01*
X4517682Y-17266579D02*
X4527205Y-17304674D01*
X4527205Y-17304674D02*
X4527205Y-17352293D01*
X4527205Y-17352293D02*
X4517682Y-17390389D01*
X4517682Y-17390389D02*
X4508158Y-17409436D01*
X4508158Y-17409436D02*
X4498634Y-17418960D01*
X4498634Y-17418960D02*
X4479586Y-17428484D01*
X4479586Y-17428484D02*
X4460539Y-17428484D01*
X4460539Y-17428484D02*
X4441491Y-17418960D01*
X4441491Y-17418960D02*
X4431967Y-17409436D01*
X4431967Y-17409436D02*
X4422444Y-17390389D01*
X4422444Y-17390389D02*
X4412920Y-17352293D01*
X4412920Y-17352293D02*
X4412920Y-17304674D01*
X4412920Y-17304674D02*
X4422444Y-17266579D01*
X4422444Y-17266579D02*
X4431967Y-17247531D01*
X4431967Y-17247531D02*
X4441491Y-17238008D01*
X4441491Y-17238008D02*
X4460539Y-17228484D01*
X4612920Y-17428484D02*
X4612920Y-17295150D01*
X4612920Y-17314198D02*
X4622444Y-17304674D01*
X4622444Y-17304674D02*
X4641491Y-17295150D01*
X4641491Y-17295150D02*
X4670063Y-17295150D01*
X4670063Y-17295150D02*
X4689110Y-17304674D01*
X4689110Y-17304674D02*
X4698634Y-17323722D01*
X4698634Y-17323722D02*
X4698634Y-17428484D01*
X4698634Y-17323722D02*
X4708158Y-17304674D01*
X4708158Y-17304674D02*
X4727205Y-17295150D01*
X4727205Y-17295150D02*
X4755777Y-17295150D01*
X4755777Y-17295150D02*
X4774825Y-17304674D01*
X4774825Y-17304674D02*
X4784348Y-17323722D01*
X4784348Y-17323722D02*
X4784348Y-17428484D01*
X4879586Y-17428484D02*
X4879586Y-17295150D01*
X4879586Y-17314198D02*
X4889110Y-17304674D01*
X4889110Y-17304674D02*
X4908158Y-17295150D01*
X4908158Y-17295150D02*
X4936729Y-17295150D01*
X4936729Y-17295150D02*
X4955777Y-17304674D01*
X4955777Y-17304674D02*
X4965301Y-17323722D01*
X4965301Y-17323722D02*
X4965301Y-17428484D01*
X4965301Y-17323722D02*
X4974825Y-17304674D01*
X4974825Y-17304674D02*
X4993872Y-17295150D01*
X4993872Y-17295150D02*
X5022444Y-17295150D01*
X5022444Y-17295150D02*
X5041491Y-17304674D01*
X5041491Y-17304674D02*
X5051015Y-17323722D01*
X5051015Y-17323722D02*
X5051015Y-17428484D01*
X5441491Y-17218960D02*
X5270063Y-17476103D01*
X5698634Y-17228484D02*
X5717682Y-17228484D01*
X5717682Y-17228484D02*
X5736729Y-17238008D01*
X5736729Y-17238008D02*
X5746253Y-17247531D01*
X5746253Y-17247531D02*
X5755777Y-17266579D01*
X5755777Y-17266579D02*
X5765301Y-17304674D01*
X5765301Y-17304674D02*
X5765301Y-17352293D01*
X5765301Y-17352293D02*
X5755777Y-17390389D01*
X5755777Y-17390389D02*
X5746253Y-17409436D01*
X5746253Y-17409436D02*
X5736729Y-17418960D01*
X5736729Y-17418960D02*
X5717682Y-17428484D01*
X5717682Y-17428484D02*
X5698634Y-17428484D01*
X5698634Y-17428484D02*
X5679586Y-17418960D01*
X5679586Y-17418960D02*
X5670063Y-17409436D01*
X5670063Y-17409436D02*
X5660539Y-17390389D01*
X5660539Y-17390389D02*
X5651015Y-17352293D01*
X5651015Y-17352293D02*
X5651015Y-17304674D01*
X5651015Y-17304674D02*
X5660539Y-17266579D01*
X5660539Y-17266579D02*
X5670063Y-17247531D01*
X5670063Y-17247531D02*
X5679586Y-17238008D01*
X5679586Y-17238008D02*
X5698634Y-17228484D01*
X5851015Y-17409436D02*
X5860539Y-17418960D01*
X5860539Y-17418960D02*
X5851015Y-17428484D01*
X5851015Y-17428484D02*
X5841491Y-17418960D01*
X5841491Y-17418960D02*
X5851015Y-17409436D01*
X5851015Y-17409436D02*
X5851015Y-17428484D01*
X5984348Y-17228484D02*
X6003396Y-17228484D01*
X6003396Y-17228484D02*
X6022444Y-17238008D01*
X6022444Y-17238008D02*
X6031967Y-17247531D01*
X6031967Y-17247531D02*
X6041491Y-17266579D01*
X6041491Y-17266579D02*
X6051015Y-17304674D01*
X6051015Y-17304674D02*
X6051015Y-17352293D01*
X6051015Y-17352293D02*
X6041491Y-17390389D01*
X6041491Y-17390389D02*
X6031967Y-17409436D01*
X6031967Y-17409436D02*
X6022444Y-17418960D01*
X6022444Y-17418960D02*
X6003396Y-17428484D01*
X6003396Y-17428484D02*
X5984348Y-17428484D01*
X5984348Y-17428484D02*
X5965301Y-17418960D01*
X5965301Y-17418960D02*
X5955777Y-17409436D01*
X5955777Y-17409436D02*
X5946253Y-17390389D01*
X5946253Y-17390389D02*
X5936729Y-17352293D01*
X5936729Y-17352293D02*
X5936729Y-17304674D01*
X5936729Y-17304674D02*
X5946253Y-17266579D01*
X5946253Y-17266579D02*
X5955777Y-17247531D01*
X5955777Y-17247531D02*
X5965301Y-17238008D01*
X5965301Y-17238008D02*
X5984348Y-17228484D01*
X6231967Y-17228484D02*
X6136729Y-17228484D01*
X6136729Y-17228484D02*
X6127206Y-17323722D01*
X6127206Y-17323722D02*
X6136729Y-17314198D01*
X6136729Y-17314198D02*
X6155777Y-17304674D01*
X6155777Y-17304674D02*
X6203396Y-17304674D01*
X6203396Y-17304674D02*
X6222444Y-17314198D01*
X6222444Y-17314198D02*
X6231967Y-17323722D01*
X6231967Y-17323722D02*
X6241491Y-17342770D01*
X6241491Y-17342770D02*
X6241491Y-17390389D01*
X6241491Y-17390389D02*
X6231967Y-17409436D01*
X6231967Y-17409436D02*
X6222444Y-17418960D01*
X6222444Y-17418960D02*
X6203396Y-17428484D01*
X6203396Y-17428484D02*
X6155777Y-17428484D01*
X6155777Y-17428484D02*
X6136729Y-17418960D01*
X6136729Y-17418960D02*
X6127206Y-17409436D01*
X6336729Y-17428484D02*
X6374825Y-17428484D01*
X6374825Y-17428484D02*
X6393872Y-17418960D01*
X6393872Y-17418960D02*
X6403396Y-17409436D01*
X6403396Y-17409436D02*
X6422444Y-17380865D01*
X6422444Y-17380865D02*
X6431967Y-17342770D01*
X6431967Y-17342770D02*
X6431967Y-17266579D01*
X6431967Y-17266579D02*
X6422444Y-17247531D01*
X6422444Y-17247531D02*
X6412920Y-17238008D01*
X6412920Y-17238008D02*
X6393872Y-17228484D01*
X6393872Y-17228484D02*
X6355777Y-17228484D01*
X6355777Y-17228484D02*
X6336729Y-17238008D01*
X6336729Y-17238008D02*
X6327206Y-17247531D01*
X6327206Y-17247531D02*
X6317682Y-17266579D01*
X6317682Y-17266579D02*
X6317682Y-17314198D01*
X6317682Y-17314198D02*
X6327206Y-17333246D01*
X6327206Y-17333246D02*
X6336729Y-17342770D01*
X6336729Y-17342770D02*
X6355777Y-17352293D01*
X6355777Y-17352293D02*
X6393872Y-17352293D01*
X6393872Y-17352293D02*
X6412920Y-17342770D01*
X6412920Y-17342770D02*
X6422444Y-17333246D01*
X6422444Y-17333246D02*
X6431967Y-17314198D01*
X6622444Y-17428484D02*
X6508158Y-17428484D01*
X6565301Y-17428484D02*
X6565301Y-17228484D01*
X6565301Y-17228484D02*
X6546253Y-17257055D01*
X6546253Y-17257055D02*
X6527206Y-17276103D01*
X6527206Y-17276103D02*
X6508158Y-17285627D01*
X6698634Y-17228484D02*
X6698634Y-17266579D01*
X6774825Y-17228484D02*
X6774825Y-17266579D01*
X7070063Y-17504674D02*
X7060539Y-17495150D01*
X7060539Y-17495150D02*
X7041491Y-17466579D01*
X7041491Y-17466579D02*
X7031968Y-17447531D01*
X7031968Y-17447531D02*
X7022444Y-17418960D01*
X7022444Y-17418960D02*
X7012920Y-17371341D01*
X7012920Y-17371341D02*
X7012920Y-17333246D01*
X7012920Y-17333246D02*
X7022444Y-17285627D01*
X7022444Y-17285627D02*
X7031968Y-17257055D01*
X7031968Y-17257055D02*
X7041491Y-17238008D01*
X7041491Y-17238008D02*
X7060539Y-17209436D01*
X7060539Y-17209436D02*
X7070063Y-17199912D01*
X7231968Y-17295150D02*
X7231968Y-17428484D01*
X7184348Y-17218960D02*
X7136729Y-17361817D01*
X7136729Y-17361817D02*
X7260539Y-17361817D01*
X7489110Y-17428484D02*
X7489110Y-17228484D01*
X7574825Y-17428484D02*
X7574825Y-17323722D01*
X7574825Y-17323722D02*
X7565301Y-17304674D01*
X7565301Y-17304674D02*
X7546253Y-17295150D01*
X7546253Y-17295150D02*
X7517682Y-17295150D01*
X7517682Y-17295150D02*
X7498634Y-17304674D01*
X7498634Y-17304674D02*
X7489110Y-17314198D01*
X7698634Y-17428484D02*
X7679587Y-17418960D01*
X7679587Y-17418960D02*
X7670063Y-17409436D01*
X7670063Y-17409436D02*
X7660539Y-17390389D01*
X7660539Y-17390389D02*
X7660539Y-17333246D01*
X7660539Y-17333246D02*
X7670063Y-17314198D01*
X7670063Y-17314198D02*
X7679587Y-17304674D01*
X7679587Y-17304674D02*
X7698634Y-17295150D01*
X7698634Y-17295150D02*
X7727206Y-17295150D01*
X7727206Y-17295150D02*
X7746253Y-17304674D01*
X7746253Y-17304674D02*
X7755777Y-17314198D01*
X7755777Y-17314198D02*
X7765301Y-17333246D01*
X7765301Y-17333246D02*
X7765301Y-17390389D01*
X7765301Y-17390389D02*
X7755777Y-17409436D01*
X7755777Y-17409436D02*
X7746253Y-17418960D01*
X7746253Y-17418960D02*
X7727206Y-17428484D01*
X7727206Y-17428484D02*
X7698634Y-17428484D01*
X7879587Y-17428484D02*
X7860539Y-17418960D01*
X7860539Y-17418960D02*
X7851015Y-17399912D01*
X7851015Y-17399912D02*
X7851015Y-17228484D01*
X8031968Y-17418960D02*
X8012920Y-17428484D01*
X8012920Y-17428484D02*
X7974825Y-17428484D01*
X7974825Y-17428484D02*
X7955777Y-17418960D01*
X7955777Y-17418960D02*
X7946253Y-17399912D01*
X7946253Y-17399912D02*
X7946253Y-17323722D01*
X7946253Y-17323722D02*
X7955777Y-17304674D01*
X7955777Y-17304674D02*
X7974825Y-17295150D01*
X7974825Y-17295150D02*
X8012920Y-17295150D01*
X8012920Y-17295150D02*
X8031968Y-17304674D01*
X8031968Y-17304674D02*
X8041491Y-17323722D01*
X8041491Y-17323722D02*
X8041491Y-17342770D01*
X8041491Y-17342770D02*
X7946253Y-17361817D01*
X8117682Y-17418960D02*
X8136730Y-17428484D01*
X8136730Y-17428484D02*
X8174825Y-17428484D01*
X8174825Y-17428484D02*
X8193872Y-17418960D01*
X8193872Y-17418960D02*
X8203396Y-17399912D01*
X8203396Y-17399912D02*
X8203396Y-17390389D01*
X8203396Y-17390389D02*
X8193872Y-17371341D01*
X8193872Y-17371341D02*
X8174825Y-17361817D01*
X8174825Y-17361817D02*
X8146253Y-17361817D01*
X8146253Y-17361817D02*
X8127206Y-17352293D01*
X8127206Y-17352293D02*
X8117682Y-17333246D01*
X8117682Y-17333246D02*
X8117682Y-17323722D01*
X8117682Y-17323722D02*
X8127206Y-17304674D01*
X8127206Y-17304674D02*
X8146253Y-17295150D01*
X8146253Y-17295150D02*
X8174825Y-17295150D01*
X8174825Y-17295150D02*
X8193872Y-17304674D01*
X8270063Y-17504674D02*
X8279587Y-17495150D01*
X8279587Y-17495150D02*
X8298634Y-17466579D01*
X8298634Y-17466579D02*
X8308158Y-17447531D01*
X8308158Y-17447531D02*
X8317682Y-17418960D01*
X8317682Y-17418960D02*
X8327206Y-17371341D01*
X8327206Y-17371341D02*
X8327206Y-17333246D01*
X8327206Y-17333246D02*
X8317682Y-17285627D01*
X8317682Y-17285627D02*
X8308158Y-17257055D01*
X8308158Y-17257055D02*
X8298634Y-17238008D01*
X8298634Y-17238008D02*
X8279587Y-17209436D01*
X8279587Y-17209436D02*
X8270063Y-17199912D01*
M02*
