%TF.GenerationSoftware,KiCad,Pcbnew,7.0.7*%
%TF.CreationDate,2024-03-11T11:43:04-07:00*%
%TF.ProjectId,DC32_Drear_Jeebus_SAO,44433332-5f44-4726-9561-725f4a656562,rev?*%
%TF.SameCoordinates,Original*%
%TF.FileFunction,Profile,NP*%
%FSLAX46Y46*%
G04 Gerber Fmt 4.6, Leading zero omitted, Abs format (unit mm)*
G04 Created by KiCad (PCBNEW 7.0.7) date 2024-03-11 11:43:04*
%MOMM*%
%LPD*%
G01*
G04 APERTURE LIST*
%TA.AperFunction,Profile*%
%ADD10C,0.100000*%
%TD*%
G04 APERTURE END LIST*
D10*
X107928233Y-125507733D02*
X107909255Y-125481151D01*
X181688811Y-79926464D02*
X181486453Y-79933875D01*
X176647679Y-73826619D02*
X176699880Y-73888513D01*
X136311381Y-64103205D02*
X136329295Y-64063274D01*
X183166322Y-80919016D02*
X183164762Y-80844720D01*
X160470324Y-54213888D02*
X160594484Y-54271949D01*
X157485520Y-142882194D02*
X157475716Y-143051185D01*
X176824441Y-74177911D02*
X176822512Y-74206533D01*
X103501523Y-125496912D02*
X103425172Y-125428437D01*
X132532571Y-78629021D02*
X132545103Y-78571868D01*
X159893027Y-53952021D02*
X160000452Y-53994543D01*
X136590947Y-66888501D02*
X136123975Y-66369120D01*
X183020102Y-80302026D02*
X182990289Y-80252395D01*
X117572341Y-132792250D02*
X117548528Y-132781336D01*
X176362387Y-73578261D02*
X176444315Y-73639712D01*
X117346440Y-93899549D02*
X117355064Y-93843427D01*
X138541485Y-60944544D02*
X138603098Y-60855107D01*
X129051120Y-75505134D02*
X129047087Y-75610448D01*
X196922257Y-124764940D02*
X196550423Y-125176515D01*
X129671346Y-84565583D02*
X129696580Y-84560875D01*
X177271245Y-85633639D02*
X177244080Y-85626930D01*
X190266124Y-108006107D02*
X190343817Y-108116114D01*
X192695766Y-116924109D02*
X192708522Y-117303612D01*
X173052250Y-69188280D02*
X173092859Y-69251955D01*
X177681793Y-85441766D02*
X177658784Y-85481846D01*
X167607188Y-60442303D02*
X167593127Y-60496342D01*
X181278355Y-93683801D02*
X181323030Y-93765909D01*
X142434457Y-145751875D02*
X142427157Y-145588906D01*
X136116989Y-137734248D02*
X135809312Y-137562703D01*
X122262010Y-134634102D02*
X121522437Y-134582013D01*
X134911671Y-76236459D02*
X134914684Y-76192281D01*
X115565223Y-89771871D02*
X115417410Y-89644286D01*
X132647462Y-78292867D02*
X132676520Y-78234045D01*
X178057702Y-131112648D02*
X178000138Y-131133714D01*
X176072204Y-87196592D02*
X176111840Y-87199270D01*
X132350208Y-70904037D02*
X132321954Y-70761827D01*
X111087461Y-69009395D02*
X111157887Y-68961007D01*
X191761141Y-125920464D02*
X191619176Y-126189261D01*
X182784931Y-132972547D02*
X182763418Y-132960432D01*
X102796928Y-123481859D02*
X102798649Y-123282129D01*
X102817508Y-124180591D02*
X102810645Y-124086330D01*
X140576357Y-58181500D02*
X140704529Y-58025847D01*
X172942734Y-68961350D02*
X172977185Y-69042971D01*
X166793157Y-54901610D02*
X166842019Y-54907466D01*
X176734261Y-87860088D02*
X176818772Y-87961216D01*
X177712741Y-85120525D02*
X177721715Y-85169956D01*
X175761891Y-87131036D02*
X175797808Y-87149232D01*
X139607392Y-59278406D02*
X139645230Y-59248017D01*
X133109271Y-68238700D02*
X133151895Y-68210200D01*
X171502854Y-65437264D02*
X171775463Y-65873501D01*
X176995734Y-131374835D02*
X176672959Y-131436914D01*
X113421687Y-69965623D02*
X113435768Y-69983002D01*
X173720735Y-85868434D02*
X173710781Y-85887266D01*
X190129011Y-107792207D02*
X190194658Y-107898350D01*
X167239924Y-63110689D02*
X167272179Y-63135486D01*
X134902013Y-76354836D02*
X134907316Y-76315577D01*
X196922257Y-123526628D02*
X196922257Y-124764940D01*
X167731923Y-57706989D02*
X167761887Y-57830192D01*
X132607666Y-80288664D02*
X132612312Y-80260860D01*
X104192982Y-125883317D02*
X104101211Y-125852848D01*
X135495800Y-74425951D02*
X135491598Y-74400821D01*
X147485806Y-53645754D02*
X148041613Y-53425686D01*
X119615896Y-133523142D02*
X119583612Y-133493774D01*
X176779293Y-74335649D02*
X176760536Y-74370753D01*
X162616840Y-55052897D02*
X162729564Y-55098079D01*
X159318069Y-53793537D02*
X159404297Y-53824432D01*
X116885660Y-91049428D02*
X116501755Y-90659964D01*
X115830656Y-131565843D02*
X115723178Y-131544778D01*
X163754545Y-55261223D02*
X164019997Y-55247363D01*
X173576266Y-71234686D02*
X173602989Y-71237663D01*
X128902976Y-74905220D02*
X128923976Y-74937381D01*
X181777900Y-95419297D02*
X181784469Y-95456255D01*
X175752755Y-73244968D02*
X175866245Y-73294411D01*
X177481665Y-85639047D02*
X177467348Y-85643554D01*
X166927535Y-62782816D02*
X166951113Y-62816405D01*
X104996320Y-125952350D02*
X104803224Y-125953607D01*
X113548484Y-69542489D02*
X113545095Y-69403884D01*
X170725099Y-132701646D02*
X170252735Y-132776317D01*
X176164489Y-83801902D02*
X176201229Y-83824475D01*
X117360502Y-91559781D02*
X117221608Y-91405403D01*
X132878800Y-77912623D02*
X132904126Y-77883100D01*
X113510887Y-69982438D02*
X113518316Y-69964765D01*
X183177031Y-133026137D02*
X183109221Y-133030021D01*
X129882737Y-84500325D02*
X129917195Y-84485756D01*
X132505826Y-78882973D02*
X132509190Y-78814434D01*
X113510062Y-68321231D02*
X113515068Y-68250949D01*
X117118592Y-94650158D02*
X117179804Y-94492360D01*
X178492663Y-89553835D02*
X178571183Y-89627364D01*
X162007563Y-54798845D02*
X162180759Y-54869538D01*
X175908658Y-87184884D02*
X175947517Y-87191028D01*
X175401117Y-73074583D02*
X175460029Y-73108645D01*
X175872886Y-75736914D02*
X175994668Y-75776439D01*
X189249756Y-105903988D02*
X189350396Y-106040550D01*
X187349341Y-131777440D02*
X187219266Y-131832154D01*
X182005444Y-131994561D02*
X181983261Y-131917989D01*
X115005630Y-67116866D02*
X115183241Y-67077281D01*
X176477001Y-82994456D02*
X176390521Y-83011822D01*
X167008063Y-62886478D02*
X167041627Y-62923592D01*
X179173608Y-81604680D02*
X178751428Y-82012539D01*
X127093899Y-85307343D02*
X127270943Y-85265577D01*
X192402617Y-125491909D02*
X192336062Y-125475994D01*
X116978639Y-94989526D02*
X117051045Y-94817251D01*
X192137584Y-125451215D02*
X192102314Y-125454278D01*
X134860453Y-76509340D02*
X134873853Y-76471139D01*
X130445779Y-83345497D02*
X130451445Y-83173963D01*
X170541403Y-64727272D02*
X170588099Y-64756533D01*
X181886857Y-131640653D02*
X181848237Y-131541983D01*
X173063531Y-71046733D02*
X173141655Y-71084759D01*
X196840126Y-122154733D02*
X196856092Y-122242415D01*
X188874757Y-105514534D02*
X189013361Y-105642556D01*
X113400315Y-130969018D02*
X113208482Y-130913434D01*
X192265076Y-111054583D02*
X192308198Y-111181825D01*
X183163846Y-81087625D02*
X183165980Y-80999751D01*
X114546197Y-99574447D02*
X114671945Y-99393564D01*
X117111803Y-132427746D02*
X117032238Y-132347363D01*
X158106559Y-53578964D02*
X158182624Y-53518935D01*
X106306323Y-125807538D02*
X106082240Y-125846657D01*
X172779280Y-68346478D02*
X172801364Y-68463823D01*
X183923107Y-78592863D02*
X184003071Y-78700950D01*
X127587477Y-74280900D02*
X127666533Y-74278076D01*
X140238004Y-140857591D02*
X139685942Y-140400117D01*
X130440182Y-83620473D02*
X130445779Y-83345497D01*
X174475254Y-85395856D02*
X174391374Y-85426222D01*
X196779148Y-121910056D02*
X196801756Y-121989485D01*
X113614791Y-67901501D02*
X113639183Y-67861990D01*
X176276057Y-85330090D02*
X176140042Y-85304657D01*
X116237966Y-131678548D02*
X116169324Y-131652383D01*
X182993867Y-82446296D02*
X183018971Y-82341119D01*
X178041557Y-82653276D02*
X177924995Y-82744678D01*
X117628962Y-92775822D02*
X117652162Y-92658820D01*
X182935944Y-82687889D02*
X182940787Y-82663174D01*
X176165487Y-83081145D02*
X176102664Y-83109750D01*
X179756761Y-91781063D02*
X179761089Y-91797479D01*
X180962327Y-93254781D02*
X181041349Y-93348439D01*
X176286884Y-74870198D02*
X176203813Y-74927671D01*
X175865428Y-85268277D02*
X175727398Y-85257364D01*
X126641593Y-67813983D02*
X126585122Y-69955556D01*
X136065925Y-67961602D02*
X136166228Y-67946434D01*
X175898081Y-83572028D02*
X175912308Y-83591959D01*
X126761361Y-85330987D02*
X126787501Y-85343423D01*
X130281248Y-84272281D02*
X130298221Y-84257145D01*
X175254693Y-75457820D02*
X175257154Y-75472976D01*
X142371659Y-143018297D02*
X141969148Y-142485170D01*
X147233370Y-53746304D02*
X147485806Y-53645754D01*
X157988850Y-141613101D02*
X157978185Y-141646678D01*
X107932095Y-112395789D02*
X108086229Y-110874173D01*
X171042542Y-132645998D02*
X170725099Y-132701646D01*
X173997860Y-86189576D02*
X174076070Y-86224800D01*
X115543005Y-98198609D02*
X115636826Y-98052861D01*
X134979359Y-75908277D02*
X135006697Y-75816277D01*
X136919961Y-67279707D02*
X136904176Y-67257009D01*
X130672035Y-81929167D02*
X130719002Y-81798145D01*
X175987770Y-87194589D02*
X176029679Y-87195737D01*
X134509371Y-73625719D02*
X134340784Y-73478945D01*
X135269139Y-74120950D02*
X135235110Y-74097484D01*
X142420689Y-145402966D02*
X142414813Y-145192118D01*
X132326829Y-69683637D02*
X132356117Y-69530755D01*
X103848994Y-120612141D02*
X103994404Y-120409047D01*
X126687994Y-82948777D02*
X126663213Y-83687509D01*
X132612181Y-80231086D02*
X132608291Y-80198603D01*
X192984048Y-125676172D02*
X192752104Y-125597225D01*
X184366780Y-79440594D02*
X184412641Y-79607995D01*
X112082692Y-102704095D02*
X112124178Y-102639903D01*
X171079616Y-63052024D02*
X171116943Y-63081623D01*
X165130544Y-55139906D02*
X165283588Y-55118014D01*
X175739480Y-75084912D02*
X175709801Y-75091213D01*
X192079639Y-110618199D02*
X192149824Y-110771090D01*
X113412528Y-101252263D02*
X113514213Y-101116272D01*
X173250368Y-70079733D02*
X173226258Y-70110255D01*
X196870051Y-122334710D02*
X196882104Y-122432550D01*
X170587528Y-64066980D02*
X170540884Y-64102193D01*
X126902515Y-81169218D02*
X126853087Y-81377521D01*
X196631515Y-121514408D02*
X196726571Y-121752931D01*
X167109580Y-55059888D02*
X167137589Y-55095327D01*
X128756989Y-74746573D02*
X128787495Y-74775535D01*
X176215872Y-87219954D02*
X176231363Y-87225470D01*
X176672959Y-131436914D02*
X176148953Y-131538611D01*
X119062255Y-133171623D02*
X118952277Y-133122210D01*
X115096383Y-131411729D02*
X114778725Y-131336611D01*
X106734709Y-118202592D02*
X107593158Y-117746431D01*
X177467348Y-85643554D02*
X177452377Y-85647092D01*
X183455548Y-78068503D02*
X183555137Y-78168190D01*
X180220398Y-130418722D02*
X180192798Y-130420557D01*
X176804864Y-85479700D02*
X176675518Y-85435150D01*
X173758987Y-86041577D02*
X173780532Y-86059914D01*
X108277597Y-109782685D02*
X108355683Y-109557815D01*
X176659249Y-74517480D02*
X176595436Y-74592298D01*
X167275473Y-60997654D02*
X167245969Y-61026852D01*
X118379427Y-132923411D02*
X118268661Y-132896358D01*
X132807723Y-78007523D02*
X132830721Y-77974743D01*
X181108984Y-130258197D02*
X181094121Y-130251723D01*
X192471195Y-111741261D02*
X192512517Y-111910255D01*
X184488327Y-79968060D02*
X184517686Y-80156340D01*
X115732119Y-89922028D02*
X115565223Y-89771871D01*
X177531388Y-76439989D02*
X177842610Y-76599767D01*
X117380288Y-93715822D02*
X117396123Y-93648209D01*
X114083122Y-100281001D02*
X114210089Y-100081514D01*
X136951610Y-67517484D02*
X136959888Y-67503948D01*
X178359043Y-82376849D02*
X178188119Y-82528819D01*
X120093005Y-134084211D02*
X120062809Y-134045468D01*
X157033941Y-54068017D02*
X157126858Y-54065303D01*
X182466959Y-77410293D02*
X182540555Y-77437686D01*
X112004515Y-102834628D02*
X112042716Y-102769114D01*
X138999897Y-60099804D02*
X139042378Y-60020513D01*
X118545089Y-66720769D02*
X119452326Y-66684312D01*
X126225725Y-67363975D02*
X126304774Y-67446451D01*
X113545933Y-69765283D02*
X113548774Y-69662925D01*
X117557933Y-91799212D02*
X117474090Y-91692524D01*
X156823121Y-146933717D02*
X150033524Y-146953668D01*
X170861195Y-62923179D02*
X170958002Y-62969642D01*
X131426227Y-80933171D02*
X131478857Y-80902744D01*
X109841798Y-128773814D02*
X109567711Y-128382188D01*
X173220965Y-71120480D02*
X173299775Y-71153045D01*
X180617455Y-80149467D02*
X180577855Y-80171073D01*
X105857183Y-125880145D02*
X105633606Y-125907730D01*
X102917166Y-124684038D02*
X102896638Y-124623552D01*
X126576181Y-74387641D02*
X126630536Y-74379156D01*
X149502120Y-53006293D02*
X149714764Y-52978576D01*
X126893134Y-85343476D02*
X126950450Y-85335209D01*
X183983767Y-100146300D02*
X184017151Y-100197828D01*
X111003084Y-71703423D02*
X111004622Y-71634450D01*
X114530937Y-67256686D02*
X114679439Y-67206584D01*
X157466804Y-143247787D02*
X157458460Y-143474690D01*
X167600483Y-56436042D02*
X167618783Y-56583300D01*
X175248527Y-72963606D02*
X175295998Y-73002616D01*
X167641885Y-60263393D02*
X167631517Y-60325935D01*
X128316884Y-134812095D02*
X128255428Y-134814990D01*
X183544221Y-82975770D02*
X183491932Y-83004016D01*
X182025601Y-77324625D02*
X182131173Y-77335862D01*
X192806748Y-118025949D02*
X192823965Y-118045090D01*
X128378939Y-134812025D02*
X128316884Y-134812095D01*
X166854792Y-62616742D02*
X166863641Y-62650757D01*
X177598046Y-85556474D02*
X177584990Y-85569263D01*
X177572205Y-85581172D02*
X177559588Y-85592191D01*
X183746008Y-99462869D02*
X183798832Y-99661841D01*
X176111840Y-87199270D02*
X176148833Y-87203942D01*
X192548052Y-112078250D02*
X192578233Y-112249890D01*
X186123963Y-103021970D02*
X186382388Y-103405821D01*
X194028063Y-118744556D02*
X194276532Y-118889832D01*
X167339551Y-60940831D02*
X167306207Y-60970352D01*
X133528551Y-68050407D02*
X133580336Y-68038788D01*
X157593343Y-142270966D02*
X157581202Y-142297417D01*
X155684764Y-53918118D02*
X155853994Y-53958879D01*
X180934032Y-130239288D02*
X180915202Y-130242936D01*
X132276432Y-80528560D02*
X132355922Y-80489997D01*
X166848603Y-62581697D02*
X166854792Y-62616742D01*
X115183241Y-67077281D02*
X115370479Y-67041234D01*
X174227895Y-85496365D02*
X174149891Y-85535144D01*
X172966157Y-70368384D02*
X172932350Y-70401937D01*
X141516796Y-142000058D02*
X141294590Y-141787158D01*
X162353597Y-54942228D02*
X162616840Y-55052897D01*
X191985336Y-125523958D02*
X191957763Y-125567323D01*
X109970246Y-128946054D02*
X109841798Y-128773814D01*
X111835884Y-82884516D02*
X111795025Y-82724804D01*
X171425922Y-65337466D02*
X171455875Y-65372284D01*
X167500348Y-63260158D02*
X167534086Y-63271179D01*
X172812652Y-70534834D02*
X172787516Y-70566552D01*
X112235132Y-84709397D02*
X112132622Y-84412713D01*
X192789904Y-117995480D02*
X192806748Y-118025949D01*
X170303777Y-64483454D02*
X170313945Y-64509806D01*
X130555316Y-82360766D02*
X130590025Y-82211054D01*
X188825899Y-130728394D02*
X188674682Y-130866929D01*
X181478299Y-130601180D02*
X181458689Y-130575188D01*
X139685942Y-140400117D02*
X139164970Y-139963585D01*
X181363952Y-93850559D02*
X181402161Y-93939367D01*
X157581202Y-142297417D02*
X157569850Y-142326063D01*
X190868844Y-127671548D02*
X190552051Y-128309428D01*
X116015525Y-131607074D02*
X115927653Y-131586344D01*
X181628843Y-131009088D02*
X181604818Y-130936802D01*
X181367761Y-130469958D02*
X181342558Y-130444285D01*
X135235110Y-74097484D02*
X135198521Y-74073697D01*
X185469050Y-102048351D02*
X185761167Y-102480091D01*
X165664865Y-134190988D02*
X165428720Y-134329429D01*
X170313945Y-64509806D02*
X170328172Y-64536149D01*
X184784715Y-101108502D02*
X184865416Y-101208871D01*
X125845712Y-134812047D02*
X125586190Y-134789016D01*
X116199965Y-96997639D02*
X116264846Y-96845910D01*
X192178077Y-125451762D02*
X192137584Y-125451215D01*
X183152726Y-77799596D02*
X183253456Y-77883293D01*
X111646466Y-68760142D02*
X111733487Y-68743115D01*
X114392215Y-67310261D02*
X114530937Y-67256686D01*
X196398601Y-121046780D02*
X196522013Y-121278834D01*
X113531633Y-68129802D02*
X113543343Y-68077279D01*
X160594484Y-54271949D02*
X160718957Y-54327447D01*
X120515867Y-134419506D02*
X120472807Y-134397625D01*
X173784384Y-85788258D02*
X173747993Y-85829191D01*
X167897393Y-58646389D02*
X167890149Y-58721912D01*
X175341926Y-75296594D02*
X175307834Y-75334338D01*
X182965655Y-82952657D02*
X182957791Y-82942208D01*
X171039437Y-63021488D02*
X171079616Y-63052024D01*
X177632798Y-82871924D02*
X177579927Y-82884828D01*
X167827116Y-63301442D02*
X167867638Y-63298235D01*
X120034520Y-134005754D02*
X120009204Y-133969484D01*
X163267444Y-55250114D02*
X163352696Y-55259031D01*
X119268021Y-133276616D02*
X119167902Y-133223238D01*
X112684451Y-69002591D02*
X112763090Y-69066241D01*
X161220994Y-54514781D02*
X161298790Y-54536681D01*
X111795025Y-82724804D02*
X111748140Y-82556009D01*
X183091247Y-80446186D02*
X183070470Y-80398221D01*
X190085179Y-129205796D02*
X189991593Y-129369367D01*
X132830721Y-77974743D02*
X132854372Y-77943140D01*
X110725752Y-69504700D02*
X110758083Y-69417690D01*
X171116943Y-63081623D02*
X171151397Y-63110363D01*
X171392130Y-65301476D02*
X171425922Y-65337466D01*
X110955096Y-74561781D02*
X110970518Y-72799381D01*
X110900636Y-70915107D02*
X110879833Y-70850532D01*
X153178365Y-52848669D02*
X153967870Y-53242784D01*
X111748140Y-82556009D02*
X111696719Y-82383308D01*
X129104886Y-134947771D02*
X128901630Y-134895339D01*
X167165538Y-55134791D02*
X167220965Y-55224928D01*
X127806897Y-74278487D02*
X127869625Y-74281975D01*
X173141655Y-71084759D02*
X173220965Y-71120480D01*
X166991491Y-61545684D02*
X166983170Y-61593749D01*
X127702654Y-85146170D02*
X127945741Y-85071439D01*
X105633606Y-125907730D02*
X105413967Y-125929140D01*
X127293161Y-80125986D02*
X127193143Y-80347712D01*
X135198521Y-74073697D02*
X135117509Y-74024900D01*
X127257253Y-134931531D02*
X127165216Y-134929642D01*
X192654046Y-113065811D02*
X192663929Y-113325357D01*
X192671047Y-113616421D02*
X192678716Y-114311679D01*
X164958826Y-55161690D02*
X165130544Y-55139906D01*
X134599844Y-67934892D02*
X134671979Y-67916798D01*
X136966877Y-67490536D02*
X136972533Y-67477143D01*
X107909255Y-125481151D02*
X107892496Y-125459906D01*
X189650123Y-129876813D02*
X189563031Y-129982839D01*
X177364113Y-85649881D02*
X177343059Y-85647390D01*
X116105404Y-90272376D02*
X115732119Y-89922028D01*
X117339566Y-93968691D02*
X117340986Y-93947972D01*
X156659072Y-54066691D02*
X156814069Y-54069693D01*
X167190799Y-61090643D02*
X167165209Y-61125089D01*
X149943159Y-52956127D02*
X150192223Y-52938021D01*
X189991593Y-129369367D02*
X189903283Y-129515080D01*
X121343377Y-66683544D02*
X122360998Y-66718334D01*
X173001156Y-70335170D02*
X172966157Y-70368384D01*
X139999931Y-58892462D02*
X140117063Y-58759477D01*
X182719751Y-132932153D02*
X182674349Y-132898162D01*
X134434492Y-77030958D02*
X134514391Y-76968361D01*
X176067176Y-83736232D02*
X176097487Y-83757804D01*
X185232201Y-132608942D02*
X185153846Y-132641892D01*
X136976809Y-67463665D02*
X136979662Y-67449995D01*
X170867845Y-64909644D02*
X170920605Y-64939736D01*
X113538637Y-69247023D02*
X113529143Y-69071817D01*
X113731596Y-67742062D02*
X113767442Y-67703760D01*
X128885691Y-74882048D02*
X128902976Y-74905220D01*
X113184702Y-86651975D02*
X112952737Y-86229778D01*
X190068776Y-107687043D02*
X190129011Y-107792207D01*
X174075440Y-85575728D02*
X174005339Y-85617619D01*
X172749748Y-70851876D02*
X172796636Y-70888637D01*
X176097487Y-83757804D02*
X176129916Y-83779686D01*
X115121316Y-89419452D02*
X115038329Y-89346910D01*
X177810360Y-82813427D02*
X177771938Y-82828922D01*
X110915878Y-79142833D02*
X110936482Y-78738049D01*
X184142365Y-78913039D02*
X184199921Y-79015216D01*
X148909528Y-53130325D02*
X149104420Y-53081241D01*
X132304629Y-69838966D02*
X132326829Y-69683637D01*
X126673745Y-74370006D02*
X126738755Y-74359642D01*
X130374834Y-84150403D02*
X130383920Y-84128295D01*
X159513947Y-53856304D02*
X159543883Y-53862551D01*
X196882104Y-122432550D02*
X196892354Y-122536866D01*
X189962913Y-107477115D02*
X190013545Y-107582224D01*
X175650321Y-75108415D02*
X175591502Y-75131052D01*
X180875014Y-130252702D02*
X180830947Y-130265658D01*
X192823965Y-118045090D02*
X192849246Y-118067945D01*
X188118533Y-131324600D02*
X187987988Y-131417435D01*
X173874654Y-71372306D02*
X173959819Y-71440385D01*
X113005298Y-130845831D02*
X112793145Y-130767462D01*
X113265964Y-69652956D02*
X113299130Y-69723304D01*
X115293118Y-89543694D02*
X115196788Y-89474515D01*
X183046793Y-80350401D02*
X183020102Y-80302026D01*
X106741744Y-125713489D02*
X106526976Y-125763058D01*
X117527371Y-93186073D02*
X117600474Y-92902292D01*
X114311448Y-99923860D02*
X114424757Y-99753025D01*
X111128127Y-80830665D02*
X111063117Y-80647080D01*
X118952277Y-133122210D02*
X118839169Y-133075433D01*
X112643885Y-102054254D02*
X112718130Y-102000301D01*
X176906951Y-85516780D02*
X176804864Y-85479700D01*
X134923085Y-73920614D02*
X134803786Y-73850068D01*
X175479803Y-75189299D02*
X175428900Y-75223241D01*
X167400643Y-60877295D02*
X167371013Y-60909847D01*
X191875554Y-125710183D02*
X191761141Y-125920464D01*
X174342209Y-71800376D02*
X174439651Y-71903790D01*
X113639183Y-67861990D02*
X113667462Y-67821179D01*
X179915738Y-92068092D02*
X179963636Y-92133294D01*
X175616362Y-87022111D02*
X175653549Y-87055107D01*
X174749009Y-86387784D02*
X174799365Y-86388711D01*
X167077035Y-61278179D02*
X167058727Y-61319912D01*
X177519488Y-88684535D02*
X177665371Y-88821232D01*
X117682954Y-92450778D02*
X117690677Y-92358521D01*
X180258241Y-80424428D02*
X180252242Y-80444141D01*
X157475716Y-143051185D02*
X157466804Y-143247787D01*
X177420061Y-85651217D02*
X177402511Y-85651785D01*
X110951790Y-76474210D02*
X110955096Y-74561781D01*
X180447654Y-92698753D02*
X180535981Y-92792367D01*
X193282402Y-118348574D02*
X193436673Y-118434911D01*
X176861962Y-76123453D02*
X177198854Y-76278546D01*
X195614732Y-125852484D02*
X195556549Y-125871004D01*
X173328609Y-69564963D02*
X173341729Y-69593265D01*
X119583612Y-133493774D02*
X119552627Y-133466957D01*
X173360455Y-69874615D02*
X173350986Y-69903198D01*
X170073398Y-62764185D02*
X170218991Y-62775820D01*
X181810396Y-95545864D02*
X181829351Y-95597680D01*
X133938800Y-77300439D02*
X134050208Y-77252952D01*
X161532276Y-54616274D02*
X161678676Y-54670460D01*
X187859365Y-131502650D02*
X187731926Y-131580751D01*
X108256373Y-126115846D02*
X108196142Y-125990229D01*
X175889675Y-83290688D02*
X175868813Y-83333946D01*
X178571183Y-89627364D02*
X178645025Y-89699936D01*
X128901630Y-134895339D02*
X128811541Y-134874063D01*
X176140042Y-85304657D02*
X176003071Y-85284047D01*
X177721715Y-85169956D02*
X177726355Y-85218403D01*
X142947700Y-146839597D02*
X142921519Y-146822806D01*
X187086687Y-131882287D02*
X186950867Y-131928346D01*
X175975560Y-73346801D02*
X176080266Y-73401759D01*
X134873853Y-76471139D02*
X134885261Y-76432640D01*
X187219266Y-131832154D02*
X187086687Y-131882287D01*
X136123975Y-66369120D02*
X136123975Y-65415583D01*
X157726612Y-142093500D02*
X157703843Y-142119012D01*
X177658784Y-85481846D02*
X177630895Y-85520121D01*
X108456838Y-109298873D02*
X108579226Y-109009449D01*
X187166964Y-104352681D02*
X187251530Y-104417406D01*
X157860351Y-141900336D02*
X157839156Y-141935924D01*
X177043076Y-84291175D02*
X177175486Y-84390608D01*
X174785255Y-72320089D02*
X174852026Y-72416323D01*
X126960409Y-80965941D02*
X126902515Y-81169218D01*
X173740345Y-86023511D02*
X173758987Y-86041577D01*
X192678716Y-114311679D02*
X192680505Y-115188749D01*
X177408008Y-82918132D02*
X177347732Y-82927163D01*
X128036513Y-74307084D02*
X128087411Y-74320757D01*
X158830996Y-53564501D02*
X158927201Y-53615220D01*
X113356835Y-69852902D02*
X113374335Y-69887541D01*
X176812660Y-74096093D02*
X176819169Y-74123968D01*
X110879833Y-70850532D02*
X110857078Y-70785633D01*
X176309632Y-83032108D02*
X176234548Y-83055241D01*
X195888350Y-125732953D02*
X195835547Y-125760610D01*
X174973132Y-86415294D02*
X174992621Y-86421727D01*
X175852733Y-83394333D02*
X175850711Y-83414209D01*
X113984269Y-67524897D02*
X114035120Y-67491667D01*
X195991881Y-125671676D02*
X195940423Y-125703324D01*
X110952414Y-78364844D02*
X110962096Y-78064684D01*
X125642880Y-67022595D02*
X125766423Y-67064386D01*
X177467092Y-82908013D02*
X177408008Y-82918132D01*
X107735065Y-125428362D02*
X107701951Y-125433058D01*
X173804803Y-86078446D02*
X173860823Y-86115801D01*
X117596051Y-132801934D02*
X117572341Y-132792250D01*
X183005153Y-82992678D02*
X182994061Y-82982807D01*
X106082240Y-125846657D02*
X105857183Y-125880145D01*
X175918070Y-83249690D02*
X175889675Y-83290688D01*
X133151895Y-68210200D02*
X133195472Y-68183621D01*
X177979009Y-89105301D02*
X178146084Y-89251969D01*
X177286704Y-82935024D02*
X177225366Y-82941636D01*
X110797797Y-69335485D02*
X110844898Y-69258061D01*
X183389887Y-83047511D02*
X183340511Y-83062412D01*
X110873131Y-129784469D02*
X110702275Y-129667367D01*
X138723052Y-60652538D02*
X138784410Y-60536139D01*
X105730971Y-118786677D02*
X105958852Y-118642804D01*
X136668286Y-66974856D02*
X136590947Y-66888501D01*
X167314738Y-133344232D02*
X167171035Y-133408768D01*
X157285208Y-54054065D02*
X157353264Y-54044715D01*
X102828420Y-122766660D02*
X102849237Y-122614869D01*
X126673396Y-85166517D02*
X126685690Y-85218371D01*
X181170161Y-130294370D02*
X181154456Y-130283754D01*
X170459768Y-64169182D02*
X170425296Y-64201125D01*
X174507870Y-86360382D02*
X174592553Y-86375207D01*
X104010430Y-125816826D02*
X103920905Y-125775479D01*
X128811541Y-134874063D02*
X128728010Y-134856006D01*
X136607536Y-62904835D02*
X136637471Y-62794001D01*
X131808957Y-80736789D02*
X132074632Y-80620405D01*
X157918599Y-141790392D02*
X157900223Y-141827294D01*
X113960757Y-100469416D02*
X114083122Y-100281001D01*
X184569036Y-80727859D02*
X184573134Y-80913286D01*
X180289800Y-80372535D02*
X180276300Y-80387881D01*
X167619969Y-60385536D02*
X167607188Y-60442303D01*
X188388339Y-131114044D02*
X188251738Y-131223639D01*
X134881166Y-67882419D02*
X134928297Y-67879894D01*
X132909870Y-68410419D02*
X132947976Y-68372142D01*
X186754358Y-131992562D02*
X186572561Y-132054838D01*
X181575175Y-130824728D02*
X181572186Y-130805164D01*
X174643311Y-85347032D02*
X174559499Y-85369293D01*
X170498297Y-64136233D02*
X170459768Y-64169182D01*
X175866716Y-83512742D02*
X175875310Y-83532443D01*
X117878265Y-132845033D02*
X117821073Y-132843981D01*
X174534394Y-72009168D02*
X174624721Y-72114811D01*
X193142562Y-118266313D02*
X193282402Y-118348574D01*
X177682716Y-82858251D02*
X177632798Y-82871924D01*
X157951476Y-141717205D02*
X157935733Y-141753604D01*
X121522437Y-134582013D02*
X121213068Y-134554014D01*
X182925650Y-82754088D02*
X182928370Y-82733280D01*
X173797099Y-71316395D02*
X173874654Y-71372306D01*
X133235593Y-72335327D02*
X133066250Y-72133698D01*
X187477652Y-131717640D02*
X187349341Y-131777440D01*
X158180496Y-141084509D02*
X158130646Y-141203872D01*
X110844898Y-69258061D02*
X110899386Y-69185395D01*
X171025884Y-65005516D02*
X171077700Y-65040634D01*
X182377508Y-132618564D02*
X182340110Y-132576841D01*
X133026816Y-68301510D02*
X133067583Y-68269133D01*
X191149003Y-109080911D02*
X191246201Y-109210133D01*
X167794007Y-57936759D02*
X167817870Y-58008793D01*
X132904126Y-77883100D02*
X132930476Y-77854481D01*
X133048574Y-77747213D02*
X133081891Y-77721742D01*
X181907757Y-95776166D02*
X181940399Y-95841949D01*
X139833028Y-59070612D02*
X139886908Y-59014717D01*
X127429172Y-134930077D02*
X127345162Y-134931676D01*
X183614625Y-99047161D02*
X183684500Y-99257744D01*
X196900904Y-122648589D02*
X196907857Y-122768650D01*
X175497895Y-86897662D02*
X175538798Y-86943561D01*
X181510894Y-94246915D02*
X181548638Y-94368528D01*
X136844852Y-67179793D02*
X136820937Y-67150663D01*
X173200039Y-70141166D02*
X173171707Y-70172494D01*
X158182624Y-53518935D02*
X158250879Y-53466569D01*
X130628987Y-82066996D02*
X130672035Y-81929167D01*
X130416920Y-83988554D02*
X130421424Y-83953517D01*
X173013691Y-69118617D02*
X173052250Y-69188280D01*
X175310517Y-75530611D02*
X175329657Y-75539731D01*
X194276532Y-118889832D02*
X194517530Y-119045479D01*
X115636826Y-98052861D02*
X115727669Y-97905194D01*
X157559248Y-142357240D02*
X157549354Y-142391284D01*
X171321324Y-63318475D02*
X171329062Y-63342908D01*
X167523063Y-60687316D02*
X167501843Y-60729293D01*
X180017190Y-92202848D02*
X180076229Y-92276524D01*
X130942704Y-81353635D02*
X131006750Y-81265283D01*
X173647774Y-71241015D02*
X173671687Y-71247881D01*
X195781900Y-125786343D02*
X195727292Y-125810201D01*
X167681084Y-57428262D02*
X167704770Y-57571546D01*
X166596511Y-54905379D02*
X166672067Y-54900426D01*
X114416638Y-88602457D02*
X114176854Y-88261301D01*
X177726581Y-85265748D02*
X177722316Y-85311874D01*
X134653614Y-76835928D02*
X134712603Y-76766457D01*
X139395042Y-59489280D02*
X139438785Y-59438539D01*
X175669748Y-73209772D02*
X175752755Y-73244968D01*
X181173591Y-93520739D02*
X181228888Y-93602616D01*
X125973738Y-67164195D02*
X126062903Y-67223480D01*
X178830466Y-77127782D02*
X178943065Y-77161468D01*
X161107880Y-137336657D02*
X160880019Y-137536064D01*
X128618991Y-74628122D02*
X128690663Y-74687419D01*
X134709785Y-67907011D02*
X134749758Y-67898683D01*
X167578812Y-133239364D02*
X167449458Y-133288139D01*
X116552904Y-131876136D02*
X116489161Y-131825077D01*
X183652574Y-78271382D02*
X183746972Y-78377166D01*
X175346651Y-73039424D02*
X175401117Y-73074583D01*
X166951113Y-62816405D02*
X166977924Y-62850854D01*
X179963636Y-92133294D02*
X180017190Y-92202848D01*
X102912052Y-122327165D02*
X102955664Y-122186527D01*
X104460763Y-125934069D02*
X104316310Y-125912731D01*
X129951958Y-84470166D02*
X129986773Y-84453653D01*
X180349868Y-80319135D02*
X180326789Y-80338010D01*
X176714776Y-74443188D02*
X176659249Y-74517480D01*
X118608361Y-132991533D02*
X118493060Y-132955282D01*
X177016821Y-88181529D02*
X177129678Y-88300010D01*
X178146084Y-89251969D02*
X178319543Y-89401258D01*
X170815476Y-64881797D02*
X170867845Y-64909644D01*
X157383099Y-146374185D02*
X157103108Y-146653947D01*
X195776596Y-120165191D02*
X195950279Y-120377453D01*
X183147556Y-80653471D02*
X183137276Y-80597937D01*
X185153846Y-132641892D02*
X185069531Y-132673935D01*
X175086362Y-86466546D02*
X175104742Y-86478267D01*
X130428786Y-83874930D02*
X130431754Y-83831022D01*
X158234108Y-140962157D02*
X158180496Y-141084509D01*
X181795368Y-95498583D02*
X181810396Y-95545864D01*
X112763090Y-69066241D02*
X112840386Y-69134017D01*
X174592553Y-86375207D02*
X174673400Y-86384541D01*
X136972533Y-67477143D02*
X136976809Y-67463665D01*
X181084990Y-79979742D02*
X181017891Y-79994363D01*
X136359491Y-67900431D02*
X136451186Y-67869896D01*
X176468533Y-83968732D02*
X176576066Y-84020738D01*
X191642011Y-109809471D02*
X191737856Y-109971521D01*
X162123943Y-136551748D02*
X161923242Y-136693334D01*
X166155408Y-54965438D02*
X166407063Y-54927079D01*
X103153796Y-125119643D02*
X103095800Y-125034867D01*
X189903283Y-129515080D02*
X189818260Y-129646109D01*
X174420756Y-86340663D02*
X174507870Y-86360382D01*
X116302914Y-131708107D02*
X116237966Y-131678548D01*
X112124178Y-102639903D02*
X112166912Y-102576866D01*
X139524621Y-59349536D02*
X139566454Y-59311645D01*
X186395502Y-132119124D02*
X186213208Y-132189371D01*
X184560405Y-81263368D02*
X184543112Y-81423639D01*
X170425296Y-64201125D02*
X170394883Y-64232143D01*
X135654973Y-67966541D02*
X135757909Y-67973967D01*
X182827975Y-132992962D02*
X182806406Y-132983375D01*
X181139075Y-130274197D02*
X181123943Y-130265683D01*
X167835891Y-133159256D02*
X167706417Y-133196779D01*
X196920159Y-123188178D02*
X196922257Y-123526628D01*
X175662949Y-131638993D02*
X175214855Y-131738080D01*
X157502606Y-142674593D02*
X157496539Y-142738123D01*
X176242916Y-75864383D02*
X176537665Y-75982726D01*
X178525568Y-76996994D02*
X178623359Y-77045822D01*
X128544067Y-74570479D02*
X128618991Y-74628122D01*
X128796616Y-76500810D02*
X128738889Y-76621189D01*
X157749495Y-142065619D02*
X157726612Y-142093500D01*
X107792785Y-125423709D02*
X107765435Y-125425228D01*
X180503709Y-130367916D02*
X180426489Y-130385773D01*
X112736932Y-85816160D02*
X112542152Y-85419382D01*
X184306778Y-100571733D02*
X184353005Y-100622308D01*
X173368879Y-69677596D02*
X173373845Y-69705609D01*
X102993501Y-124857828D02*
X102965489Y-124800416D01*
X111907100Y-68724646D02*
X111992532Y-68723534D01*
X128943350Y-74971522D02*
X128961105Y-75007559D01*
X113128875Y-101601632D02*
X113220015Y-101494747D01*
X193536900Y-125847818D02*
X193435318Y-125820279D01*
X115980507Y-97454028D02*
X116057613Y-97302033D01*
X111298183Y-104045368D02*
X111561136Y-103610107D01*
X127864220Y-134883722D02*
X127798780Y-134895833D01*
X168114916Y-133094889D02*
X167970851Y-133125668D01*
X174243788Y-71700629D02*
X174342209Y-71800376D01*
X182959471Y-82580157D02*
X182975333Y-82516757D01*
X137505841Y-61793926D02*
X137810192Y-61591380D01*
X179761089Y-91797479D02*
X179767110Y-91815355D01*
X148503074Y-53256348D02*
X148710718Y-53188385D01*
X163828487Y-135442061D02*
X163633818Y-135566891D01*
X172530099Y-132346898D02*
X172347115Y-132386016D01*
X136927027Y-62259823D02*
X136999640Y-62183265D01*
X175295998Y-73002616D02*
X175346651Y-73039424D01*
X167761887Y-57830192D02*
X167777719Y-57885829D01*
X126921425Y-74336700D02*
X127032706Y-74324837D01*
X159591790Y-53867705D02*
X159614122Y-53869194D01*
X131058043Y-135507146D02*
X130123952Y-135230003D01*
X112574405Y-130679582D02*
X112351459Y-130583443D01*
X117683937Y-92121490D02*
X117671938Y-92053695D01*
X183357979Y-98389617D02*
X183451046Y-98612402D01*
X173299775Y-71153045D02*
X173376396Y-71181600D01*
X158596115Y-140211598D02*
X158468526Y-140475013D01*
X191543950Y-109650627D02*
X191642011Y-109809471D01*
X169502824Y-62781126D02*
X169639561Y-62767127D01*
X180657134Y-130324858D02*
X180581358Y-130347446D01*
X180523184Y-77295603D02*
X180791810Y-77296798D01*
X165283588Y-55118014D02*
X165412247Y-55096633D01*
X167634118Y-56864655D02*
X167637381Y-56995333D01*
X105516491Y-118930821D02*
X105730971Y-118786677D01*
X181955409Y-131831550D02*
X181922928Y-131738141D01*
X170295615Y-64430389D02*
X170297667Y-64457009D01*
X158578844Y-53436902D02*
X158654685Y-53474306D01*
X192022667Y-125484206D02*
X192003114Y-125500787D01*
X173296289Y-69507906D02*
X173313461Y-69536520D01*
X139781484Y-59122373D02*
X139833028Y-59070612D01*
X182922949Y-82841902D02*
X182922017Y-82826282D01*
X175768953Y-75080281D02*
X175739480Y-75084912D01*
X172741320Y-68093999D02*
X172759265Y-68223201D01*
X113522233Y-68187416D02*
X113531633Y-68129802D01*
X113502640Y-69995691D02*
X113510887Y-69982438D01*
X128255428Y-134814990D02*
X128193722Y-134820652D01*
X168450109Y-63150882D02*
X168562694Y-63110703D01*
X135466444Y-74328257D02*
X135453749Y-74304797D01*
X158356266Y-53390626D02*
X158389554Y-53369949D01*
X186771914Y-103945964D02*
X186853155Y-104044778D01*
X108357504Y-126325314D02*
X108256373Y-126115846D01*
X176803643Y-74067679D02*
X176812660Y-74096093D01*
X167509996Y-55988720D02*
X167545511Y-56137020D01*
X103746699Y-125677732D02*
X103662554Y-125621789D01*
X182927061Y-82870690D02*
X182924628Y-82856682D01*
X132684544Y-136051021D02*
X131910470Y-135780415D01*
X130719002Y-81798145D02*
X130769720Y-81674504D01*
X116619739Y-131934549D02*
X116552904Y-131876136D01*
X120062809Y-134045468D02*
X120034520Y-134005754D01*
X117366474Y-93781539D02*
X117380288Y-93715822D01*
X172834177Y-132276710D02*
X172687219Y-132311558D01*
X194750522Y-119210927D02*
X194974970Y-119385604D01*
X113729213Y-100813814D02*
X113842839Y-100646955D01*
X125342548Y-66952078D02*
X125502487Y-66985370D01*
X110968348Y-80345598D02*
X110936492Y-80218307D01*
X138733731Y-139597428D02*
X138450864Y-139351076D01*
X179767110Y-91815355D02*
X179784147Y-91855371D01*
X107853942Y-125429361D02*
X107846127Y-125427318D01*
X132957972Y-77826675D02*
X132986738Y-77799588D01*
X117670137Y-92550675D02*
X117682954Y-92450778D01*
X132986952Y-68335842D02*
X133026816Y-68301510D01*
X158400506Y-53364568D02*
X158407342Y-53362735D01*
X176289175Y-87254232D02*
X176302743Y-87263203D01*
X136959888Y-67503948D02*
X136966877Y-67490536D01*
X118839169Y-133075433D02*
X118724131Y-133031728D01*
X114778725Y-131336611D02*
X114511249Y-131267877D01*
X113573994Y-67984185D02*
X113593087Y-67941956D01*
X136980916Y-67421663D02*
X136979227Y-67406791D01*
X171321403Y-63465148D02*
X171310466Y-63490144D01*
X134910542Y-76276111D02*
X134911671Y-76236459D01*
X183292486Y-83072517D02*
X183246004Y-83077653D01*
X136133034Y-64955042D02*
X136144938Y-64767396D01*
X130405983Y-84051004D02*
X130411791Y-84020990D01*
X157795001Y-142003854D02*
X157772341Y-142035645D01*
X159614122Y-53869194D02*
X159641609Y-53873563D01*
X127193143Y-80347712D02*
X127104896Y-80559043D01*
X129047087Y-75610448D02*
X129036887Y-75718654D01*
X174995148Y-72652398D02*
X175036792Y-72716211D01*
X133323153Y-77573180D02*
X133422294Y-77523094D01*
X173703408Y-85905489D02*
X173698718Y-85923039D01*
X115036836Y-98891459D02*
X115141613Y-98755731D01*
X175856441Y-83374346D02*
X175852733Y-83394333D01*
X181620899Y-77304070D02*
X181906867Y-77315769D01*
X111820558Y-68731228D02*
X111907100Y-68724646D01*
X138450864Y-139351076D02*
X138222796Y-139155360D01*
X136637471Y-62794001D02*
X136671565Y-62691064D01*
X181604818Y-130936802D02*
X181586661Y-130874578D01*
X175798098Y-75077426D02*
X175768953Y-75080281D01*
X117475481Y-132740592D02*
X117450267Y-132724135D01*
X112605397Y-68943912D02*
X112684451Y-69002591D01*
X129312179Y-84641490D02*
X129458531Y-84602701D01*
X126500998Y-73882429D02*
X126511966Y-74193252D01*
X167081584Y-55028691D02*
X167109580Y-55059888D01*
X177609009Y-131243886D02*
X177506306Y-131267859D01*
X117691104Y-92194487D02*
X117683937Y-92121490D01*
X180277546Y-77292404D02*
X180523184Y-77295603D01*
X148281678Y-53335139D02*
X148503074Y-53256348D01*
X176369060Y-74806592D02*
X176286884Y-74870198D01*
X135329666Y-74167172D02*
X135300644Y-74144158D01*
X126703990Y-82629358D02*
X126687994Y-82948777D01*
X181094121Y-130251723D02*
X181079278Y-130246246D01*
X136975934Y-67391309D02*
X136970991Y-67375110D01*
X155335578Y-53816669D02*
X155512063Y-53870745D01*
X102849237Y-122614869D02*
X102876845Y-122469159D01*
X196754120Y-121831515D02*
X196779148Y-121910056D01*
X114679439Y-67206584D02*
X114837683Y-67159972D01*
X176760536Y-74370753D02*
X176738969Y-74406655D01*
X131236346Y-81054325D02*
X131279967Y-81024582D01*
X102878389Y-124560520D02*
X102862308Y-124494184D01*
X132281612Y-70152642D02*
X132289547Y-69995661D01*
X181310320Y-79947154D02*
X181230616Y-79956233D01*
X182934208Y-82896651D02*
X182930252Y-82883991D01*
X181041349Y-93348439D02*
X181111425Y-93436552D01*
X177079429Y-85576994D02*
X176998198Y-85549185D01*
X171066619Y-63740519D02*
X171023015Y-63772561D01*
X142457917Y-146071494D02*
X142452510Y-146016637D01*
X167890149Y-58721912D02*
X167880272Y-58803217D01*
X192922022Y-118123602D02*
X192968526Y-118155804D01*
X174076070Y-86224800D02*
X174158868Y-86258118D01*
X194955028Y-125967714D02*
X194797239Y-125974215D01*
X127730819Y-134906188D02*
X127660107Y-134914787D01*
X134749758Y-67898683D02*
X134791746Y-67891810D01*
X188151039Y-104983638D02*
X188360214Y-105122336D01*
X171296729Y-63269013D02*
X171310539Y-63293869D01*
X133532441Y-77471507D02*
X133654583Y-77417690D01*
X167661519Y-57281534D02*
X167681084Y-57428262D01*
X131195921Y-81083319D02*
X131236346Y-81054325D01*
X113619722Y-100970188D02*
X113729213Y-100813814D01*
X175709801Y-75091213D02*
X175680040Y-75099083D01*
X111586232Y-82046902D02*
X111530147Y-81893552D01*
X176003071Y-85284047D02*
X175865428Y-85268277D01*
X126751199Y-134904692D02*
X126513453Y-134881807D01*
X190552051Y-128309428D02*
X190296132Y-128812378D01*
X115727669Y-97905194D02*
X115815352Y-97755943D01*
X111010207Y-80486956D02*
X110968348Y-80345598D01*
X184485505Y-81703681D02*
X184460793Y-81781462D01*
X109281033Y-127943973D02*
X108994162Y-127478701D01*
X127818631Y-79012282D02*
X127719610Y-79237997D01*
X180363778Y-92607889D02*
X180447654Y-92698753D01*
X172853145Y-70927355D02*
X172917589Y-70967179D01*
X176029679Y-87195737D02*
X176072204Y-87196592D01*
X167137589Y-55095327D02*
X167165538Y-55134791D01*
X135421667Y-74258581D02*
X135402204Y-74235697D01*
X128865238Y-74857269D02*
X128885691Y-74882048D01*
X184199921Y-79015216D02*
X184260188Y-79142012D01*
X176410830Y-85360328D02*
X176276057Y-85330090D01*
X135380407Y-74212878D02*
X135356241Y-74190057D01*
X182171758Y-132359063D02*
X182143371Y-132315968D01*
X107547603Y-125466413D02*
X107504927Y-125478133D01*
X167025917Y-54979886D02*
X167053672Y-55001951D01*
X166998391Y-54962711D02*
X167025917Y-54979886D01*
X171840757Y-132488733D02*
X171042542Y-132645998D01*
X134923356Y-76136209D02*
X134937291Y-76069408D01*
X136979662Y-67449995D02*
X136981046Y-67436030D01*
X181569847Y-130774956D02*
X181568221Y-130766883D01*
X107866440Y-125434824D02*
X107860724Y-125431861D01*
X194015887Y-125941605D02*
X193921379Y-125928233D01*
X120193806Y-134193676D02*
X120158627Y-134158408D01*
X179807700Y-91900881D02*
X179837598Y-91951657D01*
X110963952Y-77879037D02*
X110951790Y-76474210D01*
X176046295Y-83140979D02*
X175996596Y-83174762D01*
X132479060Y-71289176D02*
X132428732Y-71168792D01*
X132593094Y-80111226D02*
X132583304Y-80036778D01*
X128100965Y-78313534D02*
X128012245Y-78542934D01*
X103564089Y-121041586D02*
X103703996Y-120826753D01*
X171128496Y-65076858D02*
X171177921Y-65113903D01*
X167883744Y-58263668D02*
X167892980Y-58323626D01*
X173698718Y-85923039D02*
X173696809Y-85939855D01*
X110857078Y-70785633D02*
X110808276Y-70644222D01*
X181123943Y-130265683D02*
X181108984Y-130258197D01*
X142682786Y-146628585D02*
X142659713Y-146605110D01*
X170368802Y-64589140D02*
X170395205Y-64615954D01*
X163633818Y-135566891D02*
X163442742Y-135685441D01*
X194628678Y-125976099D02*
X194410569Y-125972375D01*
X183154649Y-81287584D02*
X183163846Y-81087625D01*
X191919011Y-110298523D02*
X192002377Y-110460117D01*
X113890039Y-67593905D02*
X113935907Y-67558977D01*
X118493060Y-132955282D02*
X118379427Y-132923411D01*
X110964611Y-71172299D02*
X110951475Y-71107956D01*
X126647118Y-84816401D02*
X126655917Y-85023192D01*
X190296132Y-128812378D02*
X190085179Y-129205796D01*
X167903002Y-58445404D02*
X167903852Y-58509046D01*
X167871647Y-58203117D02*
X167883744Y-58263668D01*
X117051045Y-94817251D02*
X117118592Y-94650158D01*
X175859953Y-83493070D02*
X175866716Y-83512742D01*
X128392831Y-74467336D02*
X128430159Y-74491042D01*
X159224520Y-53756133D02*
X159318069Y-53793537D01*
X108135995Y-125870593D02*
X108077531Y-125759732D01*
X168782840Y-63025598D02*
X168883725Y-62983253D01*
X128998172Y-75941065D02*
X128969745Y-76053930D01*
X167118209Y-61198720D02*
X167096875Y-61237757D01*
X167434063Y-63233106D02*
X167467029Y-63247472D01*
X175870929Y-87175984D02*
X175908658Y-87184884D01*
X113374335Y-69887541D02*
X113390975Y-69917882D01*
X174107948Y-131993876D02*
X173895623Y-132037080D01*
X167141000Y-61161139D02*
X167118209Y-61198720D01*
X182931803Y-82711235D02*
X182935944Y-82687889D01*
X135289355Y-67902436D02*
X135343576Y-67911363D01*
X165412247Y-55096633D02*
X165828238Y-55021582D01*
X181228888Y-93602616D02*
X181278355Y-93683801D01*
X134050208Y-77252952D02*
X134155648Y-77202078D01*
X159219210Y-139198812D02*
X159076824Y-139370084D01*
X128602828Y-76937483D02*
X128528998Y-77121913D01*
X115347165Y-98483014D02*
X115446391Y-98342105D01*
X179352647Y-90737188D02*
X179433124Y-90901714D01*
X120472807Y-134397625D02*
X120430301Y-134373743D01*
X182303659Y-132534070D02*
X182268375Y-132490579D01*
X180258764Y-80419436D02*
X180258241Y-80424428D01*
X175282330Y-75512425D02*
X175297067Y-75523221D01*
X125160366Y-66922085D02*
X125342548Y-66952078D01*
X162729564Y-55098079D02*
X162832358Y-55136980D01*
X167371013Y-60909847D02*
X167339551Y-60940831D01*
X160954554Y-54424841D02*
X161058533Y-54463785D01*
X177215130Y-85619141D02*
X177184293Y-85610263D01*
X134937291Y-76069408D02*
X134956091Y-75993042D01*
X112373264Y-85047707D02*
X112235132Y-84709397D01*
X130411791Y-84020990D02*
X130416920Y-83988554D01*
X177244080Y-85626930D02*
X177215130Y-85619141D01*
X132522470Y-78688083D02*
X132532571Y-78629021D01*
X167603088Y-63288297D02*
X167638486Y-63294427D01*
X166961832Y-54944408D02*
X166998391Y-54962711D01*
X109656747Y-106833856D02*
X110102636Y-106027573D01*
X173516329Y-71223273D02*
X173576266Y-71234686D01*
X184018540Y-82557965D02*
X183916110Y-82673009D01*
X129848839Y-84513777D02*
X129882737Y-84500325D01*
X179018521Y-90152359D02*
X179073956Y-90236774D01*
X182574111Y-132811540D02*
X182517164Y-132758157D01*
X111391508Y-68840415D02*
X111474897Y-68808957D01*
X176475944Y-87477807D02*
X176500916Y-87523965D01*
X126655917Y-85023192D02*
X126663512Y-85101989D01*
X132800619Y-68537236D02*
X132836208Y-68492955D01*
X167867638Y-63298235D02*
X167909248Y-63293530D01*
X173180222Y-69361312D02*
X173207449Y-69391195D01*
X159480476Y-53847782D02*
X159513947Y-53856304D01*
X175214855Y-131738080D02*
X174804574Y-131835893D01*
X128066154Y-134840054D02*
X127998589Y-134853682D01*
X176302743Y-87263203D02*
X176316018Y-87272929D01*
X103095800Y-125034867D02*
X103042279Y-124947519D01*
X181568221Y-130766883D02*
X181565973Y-130758327D01*
X139732712Y-59169517D02*
X139781484Y-59122373D01*
X150466874Y-52923330D02*
X150772028Y-52911129D01*
X133016898Y-77773132D02*
X133048574Y-77747213D01*
X107878158Y-125444348D02*
X107866440Y-125434824D01*
X126853087Y-81377521D02*
X126811297Y-81594705D01*
X191454311Y-126507672D02*
X191271199Y-126866792D01*
X172540725Y-67152925D02*
X172573334Y-67228704D01*
X130262925Y-84287135D02*
X130281248Y-84272281D01*
X139645230Y-59248017D02*
X139687149Y-59211559D01*
X183018971Y-82341119D02*
X183043964Y-82215105D01*
X184782148Y-132764350D02*
X184675312Y-132792490D01*
X176818772Y-87961216D02*
X176913072Y-88068480D01*
X117640837Y-66781872D02*
X118545089Y-66720769D01*
X128506039Y-74542838D02*
X128544067Y-74570479D01*
X167593127Y-60496342D02*
X167577733Y-60547757D01*
X103230307Y-121590283D02*
X103328051Y-121420989D01*
X192708522Y-117303612D02*
X192725666Y-117596082D01*
X113493572Y-70004534D02*
X113502640Y-69995691D01*
X117607593Y-91875425D02*
X117557933Y-91799212D01*
X136964354Y-67358091D02*
X136955977Y-67340146D01*
X176778296Y-74009421D02*
X176803643Y-74067679D01*
X196913315Y-122897981D02*
X196920159Y-123188178D01*
X192603492Y-112429821D02*
X192624259Y-112622688D01*
X107784351Y-114282489D02*
X107932095Y-112395789D01*
X112987242Y-69278564D02*
X113054946Y-69353645D01*
X119981780Y-133932013D02*
X119921652Y-133854625D01*
X184196261Y-132894311D02*
X183927551Y-132938388D01*
X175276646Y-86632456D02*
X175318778Y-86680057D01*
X180282533Y-130411671D02*
X180220398Y-130418722D01*
X166889696Y-62716956D02*
X166907095Y-62749771D01*
X175680040Y-75099083D02*
X175650321Y-75108415D01*
X114921085Y-99046632D02*
X115036836Y-98891459D01*
X192102314Y-125454278D02*
X192071750Y-125460859D01*
X112042716Y-102769114D02*
X112082692Y-102704095D01*
X158017996Y-141508820D02*
X157997521Y-141581018D01*
X173352817Y-69621452D02*
X173361869Y-69649553D01*
X134569760Y-136859004D02*
X134298664Y-136723855D01*
X191619176Y-126189261D02*
X191454311Y-126507672D01*
X177665371Y-88821232D02*
X177818658Y-88961605D01*
X177547037Y-85602309D02*
X177534448Y-85611517D01*
X104768970Y-119530565D02*
X104941653Y-119375109D01*
X136293713Y-64138833D02*
X136311381Y-64103205D01*
X172851727Y-68680692D02*
X172880003Y-68780204D01*
X138331998Y-61185073D02*
X138407443Y-61107893D01*
X157817322Y-141970522D02*
X157795001Y-142003854D01*
X103008489Y-122044882D02*
X103071333Y-121899867D01*
X142470012Y-146169300D02*
X142463741Y-146122301D01*
X175236441Y-86590009D02*
X175276646Y-86632456D01*
X107371518Y-125520569D02*
X107326178Y-125536966D01*
X172415621Y-66905984D02*
X172462155Y-66992263D01*
X110414632Y-129443470D02*
X110302606Y-129339181D01*
X194307861Y-125967809D02*
X194208358Y-125961252D01*
X128577219Y-134829322D02*
X128508256Y-134820582D01*
X159973636Y-138392448D02*
X159565441Y-138813885D01*
X113461398Y-70004721D02*
X113472954Y-70009038D01*
X120230401Y-134227597D02*
X120193806Y-134193676D01*
X196907857Y-122768650D02*
X196913315Y-122897981D01*
X176148833Y-87203942D02*
X176183429Y-87210780D01*
X160232074Y-54097080D02*
X160350049Y-54154739D01*
X172703608Y-67739348D02*
X172711648Y-67817845D01*
X184445865Y-132845603D02*
X184196261Y-132894311D01*
X183155490Y-80712647D02*
X183147556Y-80653471D01*
X175428900Y-75223241D02*
X175382611Y-75259284D01*
X117331726Y-94036385D02*
X117337213Y-94007583D01*
X184573134Y-80913286D02*
X184570335Y-81092520D01*
X177726355Y-85218403D02*
X177726581Y-85265748D01*
X130478389Y-82838061D02*
X130499331Y-82674845D01*
X174804574Y-131835893D02*
X174592249Y-131886680D01*
X181771719Y-95319609D02*
X181774950Y-95357280D01*
X133428215Y-68079146D02*
X133477850Y-68063856D01*
X178961992Y-90071623D02*
X179018521Y-90152359D01*
X177630895Y-85520121D02*
X177598046Y-85556474D01*
X102896638Y-124623552D02*
X102878389Y-124560520D01*
X177713481Y-85356663D02*
X177700000Y-85400000D01*
X105123013Y-119224015D02*
X105314232Y-119076260D01*
X130341598Y-84208255D02*
X130353729Y-84190205D01*
X173683298Y-132080351D02*
X173441148Y-132132859D01*
X170925671Y-63840093D02*
X170814683Y-63912732D01*
X126738230Y-85313860D02*
X126761361Y-85330987D01*
X170499231Y-62817289D02*
X170629740Y-62846881D01*
X113406758Y-69943913D02*
X113421687Y-69965623D01*
X128969745Y-76053930D02*
X128935331Y-76167006D01*
X126738755Y-74359642D02*
X126822378Y-74348421D01*
X183837445Y-78484631D02*
X183923107Y-78592863D01*
X157126858Y-54065303D02*
X157210176Y-54060790D01*
X136250767Y-64232971D02*
X136271343Y-64184475D01*
X103425172Y-125428437D02*
X103351956Y-125356244D01*
X113543329Y-69809709D02*
X113545933Y-69765283D01*
X179238819Y-90518706D02*
X179295000Y-90624453D01*
X141969148Y-142485170D02*
X141921252Y-142425185D01*
X183165980Y-80999751D02*
X183166322Y-80919016D01*
X131698709Y-80787404D02*
X131754120Y-80761316D01*
X172684141Y-70753954D02*
X172683678Y-70761867D01*
X176341815Y-87294733D02*
X176354397Y-87306852D01*
X130123952Y-135230003D02*
X129104886Y-134947771D01*
X127739437Y-74277230D02*
X127806897Y-74278487D01*
X184979389Y-132705045D02*
X184883551Y-132735193D01*
X158462456Y-53382657D02*
X158514057Y-53406007D01*
X187667649Y-104684839D02*
X187920659Y-104838331D01*
X116169324Y-131652383D02*
X116095629Y-131628823D01*
X155512063Y-53870745D02*
X155684764Y-53918118D01*
X175885757Y-83552198D02*
X175898081Y-83572028D01*
X134835598Y-67886390D02*
X134881166Y-67882419D01*
X167501843Y-60729293D02*
X167479041Y-60769174D01*
X177700000Y-85400000D02*
X177681793Y-85441766D01*
X181486453Y-79933875D02*
X181395402Y-79939733D01*
X139438785Y-59438539D02*
X139482021Y-59391896D01*
X172825513Y-68575229D02*
X172851727Y-68680692D01*
X184261241Y-100519661D02*
X184306778Y-100571733D01*
X183017067Y-83002570D02*
X183005153Y-82992678D01*
X182894568Y-133014754D02*
X182871924Y-133008605D01*
X171237334Y-63192184D02*
X171260107Y-63218247D01*
X163016164Y-55197409D02*
X163101179Y-55219669D01*
X142414813Y-145192118D02*
X142403882Y-144687959D01*
X133788674Y-72942400D02*
X133600069Y-72743193D01*
X114671945Y-99393564D02*
X114798182Y-99215813D01*
X175928461Y-83612012D02*
X175946564Y-83632212D01*
X110670247Y-69901256D02*
X110673054Y-69794793D01*
X181710239Y-94979571D02*
X181737974Y-95111148D01*
X177272063Y-131318853D02*
X176995734Y-131374835D01*
X110898592Y-79987143D02*
X110890451Y-79873876D01*
X176379082Y-87333635D02*
X176403334Y-87363950D01*
X181767503Y-131352670D02*
X181728065Y-131263229D01*
X177842610Y-76599767D02*
X178115567Y-76749862D01*
X176451520Y-87435866D02*
X176475944Y-87477807D01*
X184216655Y-100466484D02*
X184261241Y-100519661D01*
X134514391Y-76968361D02*
X134587488Y-76903290D01*
X167368920Y-63199265D02*
X167401382Y-63217042D01*
X112874058Y-101867201D02*
X112956052Y-101787663D01*
X131126163Y-81138139D02*
X131159068Y-81111334D01*
X136166228Y-67946434D02*
X136264294Y-67925994D01*
X175953782Y-83211023D02*
X175918070Y-83249690D01*
X115424456Y-131484147D02*
X115096383Y-131411729D01*
X181237751Y-130347725D02*
X181202849Y-130318838D01*
X139042378Y-60020513D02*
X139085517Y-59943654D01*
X113530735Y-69916114D02*
X113535734Y-69885114D01*
X177605560Y-84862689D02*
X177635044Y-84915290D01*
X178751428Y-82012539D02*
X178359043Y-82376849D01*
X175270849Y-75500383D02*
X175282330Y-75512425D01*
X173829112Y-85746135D02*
X173784384Y-85788258D01*
X111310490Y-68876352D02*
X111391508Y-68840415D01*
X182924628Y-82856682D02*
X182922949Y-82841902D01*
X132608291Y-80198603D02*
X132601659Y-80162675D01*
X179745097Y-91692521D02*
X179751195Y-91726306D01*
X184116478Y-82432789D02*
X184018540Y-82557965D01*
X181737974Y-95111148D02*
X181758779Y-95225888D01*
X141661195Y-57063879D02*
X141848060Y-56902274D01*
X176316018Y-87272929D02*
X176329032Y-87283432D01*
X138222796Y-139155360D02*
X137957492Y-138942988D01*
X134764289Y-76695060D02*
X134808504Y-76621920D01*
X129696580Y-84560875D02*
X129723891Y-84554467D01*
X181565973Y-130758327D02*
X181559675Y-130739863D01*
X178000138Y-131133714D02*
X177936413Y-131154918D01*
X177495431Y-85633580D02*
X177481665Y-85639047D01*
X167096875Y-61237757D02*
X167077035Y-61278179D01*
X129040513Y-75305865D02*
X129048944Y-75403383D01*
X142638089Y-146581834D02*
X142621520Y-146562925D01*
X130392103Y-84104478D02*
X130399439Y-84078774D01*
X111968353Y-102900308D02*
X112004515Y-102834628D01*
X183555137Y-78168190D02*
X183652574Y-78271382D01*
X176823114Y-74151257D02*
X176824441Y-74177911D01*
X120268288Y-134260079D02*
X120230401Y-134227597D01*
X132505189Y-79033904D02*
X132504523Y-78955921D01*
X183901359Y-100003213D02*
X183925609Y-100048599D01*
X110888117Y-79755892D02*
X110896676Y-79486979D01*
X181728065Y-131263229D02*
X181691272Y-131174611D01*
X161404099Y-54571097D02*
X161532276Y-54616274D01*
X183684500Y-99257744D02*
X183746008Y-99462869D01*
X196446429Y-125288036D02*
X196344597Y-125389557D01*
X181559675Y-130739863D02*
X181551083Y-130719755D01*
X183201253Y-83077643D02*
X183158426Y-83072316D01*
X129917195Y-84485756D02*
X129951958Y-84470166D01*
X139262065Y-59664238D02*
X139306553Y-59602314D01*
X107665341Y-116282018D02*
X107784351Y-114282489D01*
X183925609Y-100048599D02*
X183953166Y-100096426D01*
X175534334Y-75158291D02*
X175479803Y-75189299D01*
X191074492Y-127257719D02*
X190868844Y-127671548D01*
X136933826Y-67301059D02*
X136919961Y-67279707D01*
X166842208Y-133567684D02*
X166434037Y-133773904D01*
X167336610Y-63179758D02*
X167368920Y-63199265D01*
X139306553Y-59602314D02*
X139350922Y-59543933D01*
X128193722Y-134820652D02*
X128130915Y-134829026D01*
X184541079Y-80347194D02*
X184558274Y-80538431D01*
X192308198Y-111181825D02*
X192423656Y-111566621D01*
X136999640Y-62183265D02*
X137080934Y-62107603D01*
X158130646Y-141203872D02*
X158085991Y-141316726D01*
X177449722Y-84650630D02*
X177494211Y-84703659D01*
X142867501Y-146785247D02*
X142840077Y-146764793D01*
X142758635Y-146698631D02*
X142732455Y-146675504D01*
X140349697Y-58476800D02*
X140404971Y-58405471D01*
X113208482Y-130913434D02*
X113005298Y-130845831D01*
X181570835Y-130782523D02*
X181569847Y-130774956D01*
X172573334Y-67228704D02*
X172601871Y-67302379D01*
X190724990Y-108591339D02*
X190839919Y-108722120D01*
X178843606Y-89918535D02*
X178903858Y-89993902D01*
X176519462Y-73701840D02*
X176587395Y-73764269D01*
X117767416Y-132840494D02*
X117716504Y-132834074D01*
X107860724Y-125431861D02*
X107853942Y-125429361D01*
X182340110Y-132576841D02*
X182303659Y-132534070D01*
X126304774Y-67446451D02*
X126641593Y-67813983D01*
X182391478Y-77386697D02*
X182466959Y-77410293D01*
X158739446Y-53517185D02*
X158830996Y-53564501D01*
X185069531Y-132673935D02*
X184979389Y-132705045D01*
X107588920Y-125455993D02*
X107547603Y-125466413D01*
X113935907Y-67558977D02*
X113984269Y-67524897D01*
X181064379Y-130241751D02*
X181049348Y-130238223D01*
X187342100Y-104481067D02*
X187440457Y-104545581D01*
X127104896Y-80559043D02*
X127027593Y-80763835D01*
X158047963Y-141419549D02*
X158017996Y-141508820D01*
X184558274Y-80538431D02*
X184569036Y-80727859D01*
X134319977Y-67980412D02*
X134420737Y-67967068D01*
X112076274Y-68728058D02*
X112157746Y-68738381D01*
X173376396Y-71181600D02*
X173449144Y-71205294D01*
X128935331Y-76167006D02*
X128894975Y-76279625D01*
X132598209Y-78405614D02*
X132621389Y-78349848D01*
X102798730Y-123753321D02*
X102796928Y-123481859D01*
X175834067Y-87164157D02*
X175870929Y-87175984D01*
X114263313Y-67367293D02*
X114392215Y-67310261D01*
X157839156Y-141935924D02*
X157817322Y-141970522D01*
X175850398Y-83433997D02*
X175851817Y-83453721D01*
X102955664Y-122186527D02*
X103008489Y-122044882D01*
X135498157Y-74478008D02*
X135497973Y-74451658D01*
X134587488Y-76903290D02*
X134653614Y-76835928D01*
X182540555Y-77437686D02*
X182614521Y-77469159D01*
X120124986Y-134121889D02*
X120093005Y-134084211D01*
X113299130Y-69723304D02*
X113338470Y-69813975D01*
X157103108Y-146653947D02*
X156823121Y-146933717D01*
X115417410Y-89644286D02*
X115293118Y-89543694D01*
X171207694Y-63622070D02*
X171177387Y-63650377D01*
X176261038Y-87238469D02*
X176275283Y-87245994D01*
X117251529Y-132562317D02*
X117184636Y-132499232D01*
X111642253Y-82211880D02*
X111586232Y-82046902D01*
X157210176Y-54060790D02*
X157285208Y-54054065D01*
X171106869Y-63709526D02*
X171066619Y-63740519D01*
X135006697Y-75816277D02*
X135071994Y-75615233D01*
X181637706Y-94682632D02*
X181676506Y-94835338D01*
X135117509Y-74024900D02*
X135025798Y-73974043D01*
X181808105Y-131445024D02*
X181767503Y-131352670D01*
X169689240Y-132860244D02*
X169098405Y-132943658D01*
X113846669Y-67629680D02*
X113890039Y-67593905D01*
X183043964Y-82215105D02*
X183068186Y-82073006D01*
X126663512Y-85101989D02*
X126673396Y-85166517D01*
X115567303Y-67008740D02*
X115773676Y-66979816D01*
X120765380Y-134498278D02*
X120647147Y-134472208D01*
X181275474Y-130381152D02*
X181237751Y-130347725D01*
X128380997Y-77514627D02*
X128311331Y-77711426D01*
X171296348Y-63515502D02*
X171279032Y-63541297D01*
X180284525Y-92520006D02*
X180363778Y-92607889D01*
X168135961Y-63248113D02*
X168236604Y-63220041D01*
X182849770Y-133001357D02*
X182827975Y-132992962D01*
X181852030Y-95653614D02*
X181878233Y-95713249D01*
X166174358Y-133909135D02*
X165915689Y-134049526D01*
X178621545Y-130870522D02*
X178375061Y-130967277D01*
X167245969Y-61026852D02*
X167217732Y-61057872D01*
X128430159Y-74491042D02*
X128467983Y-74516285D01*
X173747993Y-85829191D02*
X173720735Y-85868434D01*
X177381352Y-88551865D02*
X177519488Y-88684535D01*
X196856092Y-122242415D02*
X196870051Y-122334710D01*
X107143800Y-125600172D02*
X106948170Y-125659104D01*
X128087411Y-74320757D02*
X128137127Y-74337293D01*
X177865983Y-131176398D02*
X177788303Y-131198294D01*
X182806406Y-132983375D02*
X182784931Y-132972547D01*
X176816847Y-74236783D02*
X176807633Y-74268497D01*
X170368528Y-64262321D02*
X170346230Y-64291742D01*
X141481476Y-57225726D02*
X141661195Y-57063879D01*
X171234724Y-63594505D02*
X171207694Y-63622070D01*
X170693670Y-64817355D02*
X170815476Y-64881797D01*
X180426489Y-130385773D02*
X180351996Y-130400523D01*
X157938687Y-53716214D02*
X158024606Y-53645207D01*
X136347329Y-64019472D02*
X136365360Y-63972231D01*
X181940399Y-95841949D02*
X181975959Y-95910179D01*
X132300996Y-70614502D02*
X132287307Y-70463143D01*
X181002700Y-130233281D02*
X180986378Y-130233463D01*
X177251301Y-88423572D02*
X177381352Y-88551865D01*
X139164970Y-139963585D02*
X138733731Y-139597428D01*
X130021389Y-84436313D02*
X130055551Y-84418243D01*
X167401382Y-63217042D02*
X167434063Y-63233106D01*
X129986773Y-84453653D02*
X130021389Y-84436313D01*
X136536338Y-137960079D02*
X136425034Y-137897013D01*
X170629740Y-62846881D02*
X170751085Y-62882218D01*
X168974035Y-62942766D02*
X169050431Y-62905429D01*
X175262498Y-75487198D02*
X175270849Y-75500383D01*
X136271343Y-64184475D02*
X136293713Y-64138833D01*
X119452326Y-66684312D02*
X120379454Y-66672054D01*
X180832383Y-80050831D02*
X180773848Y-80074173D01*
X183124538Y-80545344D02*
X183109232Y-80494993D01*
X108077531Y-125759732D02*
X108022350Y-125660439D01*
X175851817Y-83453721D02*
X175854994Y-83473404D01*
X174332615Y-86316647D02*
X174420756Y-86340663D01*
X181049348Y-130238223D02*
X181034108Y-130235645D01*
X112956052Y-101787663D02*
X113040939Y-101699205D01*
X132986738Y-77799588D02*
X133016898Y-77773132D01*
X135487146Y-74561554D02*
X135492705Y-74532892D01*
X184865416Y-101208871D02*
X184948650Y-101316266D01*
X171211612Y-63165567D02*
X171237334Y-63192184D01*
X193021115Y-118190523D02*
X193079291Y-118227460D01*
X136518141Y-63405949D02*
X136527931Y-63349454D01*
X110090896Y-129099323D02*
X109970246Y-128946054D01*
X103832905Y-125729038D02*
X103746699Y-125677732D01*
X183137276Y-80597937D02*
X183124538Y-80545344D01*
X112526856Y-68891049D02*
X112605397Y-68943912D01*
X116130826Y-97149792D02*
X116199965Y-96997639D01*
X190343817Y-108116114D02*
X190428143Y-108229006D01*
X133705986Y-136454594D02*
X133383576Y-136320179D01*
X167777719Y-57885829D02*
X167794007Y-57936759D01*
X163244085Y-135808525D02*
X163027695Y-135946342D01*
X164379709Y-135067390D02*
X164206867Y-135188561D01*
X128199261Y-84988630D02*
X128697218Y-84826011D01*
X120347448Y-134320351D02*
X120307345Y-134291029D01*
X128728010Y-134856006D02*
X128650187Y-134841111D01*
X103145003Y-121749122D02*
X103230307Y-121590283D01*
X116945153Y-132257585D02*
X116852374Y-132161835D01*
X140785649Y-141324616D02*
X140513114Y-141088326D01*
X171000771Y-62994900D02*
X171039437Y-63021488D01*
X113698268Y-67781203D02*
X113731596Y-67742062D01*
X159673863Y-53880665D02*
X159710495Y-53890354D01*
X175826791Y-75076452D02*
X175798098Y-75077426D01*
X170973402Y-64971788D02*
X171025884Y-65005516D01*
X128977246Y-75045408D02*
X128991779Y-75084985D01*
X171455875Y-65372284D02*
X171481636Y-65405645D01*
X158468526Y-140475013D02*
X158346886Y-140722574D01*
X129458531Y-84602701D02*
X129565798Y-84578136D01*
X117600474Y-92902292D02*
X117628962Y-92775822D01*
X133234031Y-77622496D02*
X133323153Y-77573180D01*
X103328051Y-121420989D02*
X103439043Y-121238878D01*
X130824021Y-81558821D02*
X130881738Y-81451673D01*
X124524121Y-134732240D02*
X123095742Y-134675424D01*
X179848668Y-77278887D02*
X180053255Y-77286924D01*
X177584990Y-85569263D02*
X177572205Y-85581172D01*
X173367848Y-69846197D02*
X173360455Y-69874615D01*
X127927369Y-134869852D02*
X127864220Y-134883722D01*
X175912308Y-83591959D02*
X175928461Y-83612012D01*
X183746972Y-78377166D02*
X183837445Y-78484631D01*
X128311331Y-77711426D02*
X128247557Y-77900863D01*
X167568311Y-63280554D02*
X167603088Y-63288297D01*
X143656112Y-146920789D02*
X143221095Y-146906259D01*
X116427154Y-131780580D02*
X116365524Y-131741854D01*
X156814069Y-54069693D02*
X157033941Y-54068017D01*
X132518071Y-79304304D02*
X132507730Y-79117545D01*
X102876845Y-122469159D02*
X102912052Y-122327165D01*
X121213068Y-134554014D02*
X120957368Y-134525824D01*
X177682096Y-85019175D02*
X177699508Y-85070225D01*
X188360214Y-105122336D02*
X188549608Y-105256000D01*
X168883725Y-62983253D02*
X168974035Y-62942766D01*
X142707103Y-146652102D02*
X142682786Y-146628585D01*
X175578199Y-86984987D02*
X175616362Y-87022111D01*
X175988717Y-83673146D02*
X176012815Y-83693927D01*
X117693372Y-92273294D02*
X117691104Y-92194487D01*
X140234815Y-58619633D02*
X140349697Y-58476800D01*
X110567424Y-105228619D02*
X111036438Y-104465719D01*
X184017151Y-100197828D02*
X184053056Y-100250616D01*
X111058832Y-129903337D02*
X110873131Y-129784469D01*
X190194658Y-107898350D02*
X190266124Y-108006107D01*
X160419821Y-137958506D02*
X159973636Y-138392448D01*
X156020068Y-53993118D02*
X156183299Y-54020928D01*
X140458218Y-58334847D02*
X140576357Y-58181500D01*
X136400916Y-63869168D02*
X136434966Y-63757546D01*
X130399439Y-84078774D02*
X130405983Y-84051004D01*
X183252612Y-133019924D02*
X183177031Y-133026137D01*
X175996596Y-83174762D02*
X175953782Y-83211023D01*
X190618322Y-108465984D02*
X190724990Y-108591339D01*
X181111425Y-93436552D02*
X181173591Y-93520739D01*
X157634815Y-53944180D02*
X157688558Y-53910430D01*
X179492048Y-77254034D02*
X179662147Y-77268016D01*
X135063535Y-137131097D02*
X134824579Y-136994701D01*
X120559359Y-134439292D02*
X120515867Y-134419506D01*
X111869226Y-83029966D02*
X111835884Y-82884516D01*
X134155648Y-77202078D02*
X134254954Y-77147999D01*
X167899389Y-58383901D02*
X167903002Y-58445404D01*
X174932986Y-86404696D02*
X174953272Y-86409627D01*
X170540884Y-64102193D02*
X170498297Y-64136233D01*
X116501755Y-90659964D02*
X116105404Y-90272376D01*
X182415631Y-132658912D02*
X182377508Y-132618564D01*
X183798832Y-99661841D02*
X183842652Y-99853963D01*
X127270943Y-85265577D02*
X127475791Y-85211368D01*
X135129448Y-67884189D02*
X135182140Y-67888846D01*
X142875152Y-56110614D02*
X143096236Y-55958104D01*
X112210630Y-102515317D02*
X112255067Y-102455585D01*
X176822512Y-74206533D02*
X176816847Y-74236783D01*
X131006750Y-81265283D02*
X131073708Y-81187194D01*
X146234782Y-54088950D02*
X146356906Y-54056996D01*
X112434742Y-102241430D02*
X112478823Y-102195737D01*
X130298221Y-84257145D02*
X130313900Y-84241547D01*
X179576239Y-91219377D02*
X179635589Y-91364183D01*
X183440424Y-83027987D02*
X183389887Y-83047511D01*
X180791810Y-77296798D02*
X181255227Y-77298502D01*
X191271199Y-126866792D02*
X191074492Y-127257719D01*
X172681028Y-67590005D02*
X172693496Y-67663634D01*
X176234548Y-83055241D02*
X176165487Y-83081145D01*
X128894975Y-76279625D02*
X128848722Y-76391117D01*
X176659879Y-87765447D02*
X176734261Y-87860088D01*
X192336062Y-125475994D02*
X192276798Y-125464059D01*
X128673543Y-76768661D02*
X128602828Y-76937483D01*
X177521720Y-85619805D02*
X177508748Y-85627162D01*
X183144175Y-81438816D02*
X183154649Y-81287584D01*
X185793018Y-132363540D02*
X185535175Y-132475362D01*
X169639561Y-62767127D02*
X169781615Y-62759718D01*
X179073956Y-90236774D02*
X179128809Y-90325528D01*
X137080934Y-62107603D02*
X137171555Y-62031838D01*
X157965677Y-141681471D02*
X157951476Y-141717205D01*
X180404169Y-80278918D02*
X180375729Y-80299387D01*
X159710495Y-53890354D02*
X159751116Y-53902480D01*
X142509124Y-146355644D02*
X142500168Y-146324056D01*
X167542752Y-60643139D02*
X167523063Y-60687316D01*
X183070470Y-80398221D02*
X183046793Y-80350401D01*
X176675518Y-85435150D02*
X176544079Y-85395354D01*
X131097584Y-81163503D02*
X131126163Y-81138139D01*
X167469901Y-55843534D02*
X167509996Y-55988720D01*
X122360998Y-66718334D02*
X123449221Y-66775976D01*
X143041943Y-146889841D02*
X143042065Y-146889810D01*
X175297067Y-75523221D02*
X175310517Y-75530611D01*
X113507245Y-68580860D02*
X113507139Y-68399091D01*
X134914684Y-76192281D02*
X134923356Y-76136209D01*
X135552958Y-67953090D02*
X135654973Y-67966541D01*
X166407063Y-54927079D02*
X166596511Y-54905379D01*
X138248925Y-61261435D02*
X138331998Y-61185073D01*
X167534086Y-63271179D02*
X167568311Y-63280554D01*
X138053864Y-61418240D02*
X138156717Y-61338612D01*
X110970518Y-72799381D02*
X110994705Y-71844644D01*
X135148805Y-75399231D02*
X135233949Y-75177589D01*
X128650187Y-134841111D02*
X128577219Y-134829322D01*
X116057613Y-97302033D02*
X116130826Y-97149792D01*
X126787501Y-85343423D02*
X126797671Y-85346153D01*
X180234716Y-80474293D02*
X180167900Y-80563145D01*
X132854372Y-77943140D02*
X132878800Y-77912623D01*
X182994061Y-82982807D02*
X182983784Y-82972891D01*
X142659713Y-146605110D02*
X142638089Y-146581834D01*
X190013545Y-107582224D02*
X190068776Y-107687043D01*
X139085517Y-59943654D02*
X139129185Y-59869412D01*
X135476958Y-74352039D02*
X135466444Y-74328257D01*
X136942088Y-67531249D02*
X136951610Y-67517484D01*
X192752104Y-125597225D02*
X192559673Y-125536051D01*
X172503761Y-67074344D02*
X172540725Y-67152925D01*
X112299961Y-102397999D02*
X112345047Y-102342892D01*
X189873812Y-107263484D02*
X189916471Y-107371080D01*
X177635044Y-84915290D02*
X177660582Y-84967491D01*
X127153032Y-74313190D02*
X127279215Y-74302116D01*
X117500197Y-132755569D02*
X117475481Y-132740592D01*
X160840171Y-54378903D02*
X160954554Y-54424841D01*
X129753025Y-84546456D02*
X129783730Y-84536939D01*
X150192223Y-52938021D02*
X150466874Y-52923330D01*
X192578233Y-112249890D02*
X192603492Y-112429821D01*
X165915689Y-134049526D02*
X165664865Y-134190988D01*
X117370649Y-132665273D02*
X117313270Y-132617498D01*
X175313822Y-85253947D02*
X175177084Y-85262640D01*
X148710718Y-53188385D02*
X148909528Y-53130325D01*
X102798649Y-123282129D02*
X102803933Y-123097927D01*
X174592249Y-131886680D02*
X174350098Y-131941542D01*
X136425034Y-137897013D02*
X136325959Y-137845048D01*
X173108686Y-70236512D02*
X173037164Y-70302532D01*
X180192798Y-130420557D02*
X180167893Y-130421182D01*
X193921379Y-125928233D02*
X193826997Y-125912309D01*
X165214090Y-134460760D02*
X165027810Y-134580891D01*
X167479041Y-60769174D02*
X167454607Y-60807064D01*
X189669161Y-106662553D02*
X189735030Y-106844872D01*
X174852026Y-72416323D02*
X174907510Y-72506019D01*
X136789007Y-138114820D02*
X136536338Y-137960079D01*
X119856235Y-133775899D02*
X119787625Y-133698143D01*
X183068186Y-82073006D02*
X183090978Y-81919575D01*
X111232423Y-68916605D02*
X111310490Y-68876352D01*
X118161963Y-132874557D02*
X118060531Y-132858446D01*
X180658196Y-80128204D02*
X180617455Y-80149467D01*
X172306629Y-66718038D02*
X172363874Y-66814808D01*
X175383573Y-75562644D02*
X175455952Y-75590922D01*
X135300644Y-74144158D02*
X135269139Y-74120950D01*
X110962096Y-78064684D02*
X110963952Y-77879037D01*
X136820937Y-67150663D02*
X136794878Y-67119662D01*
X135497973Y-74451658D02*
X135495800Y-74425951D01*
X113524930Y-69942661D02*
X113530735Y-69916114D01*
X107593158Y-117746431D02*
X107665341Y-116282018D01*
X174308655Y-85459891D02*
X174227895Y-85496365D01*
X129648442Y-84568495D02*
X129671346Y-84565583D01*
X163640953Y-55264964D02*
X163754545Y-55261223D01*
X133043233Y-136185705D02*
X132684544Y-136051021D01*
X182922372Y-82792260D02*
X182923649Y-82773726D01*
X113667462Y-67821179D02*
X113698268Y-67781203D01*
X167618783Y-56583300D02*
X167630188Y-56726748D01*
X132321954Y-70761827D02*
X132300996Y-70614502D01*
X164199427Y-55235389D02*
X164388735Y-55220216D01*
X174992621Y-86421727D02*
X175011792Y-86428961D01*
X128787495Y-74775535D02*
X128815879Y-74803788D01*
X157900223Y-141827294D02*
X157880757Y-141864034D01*
X174050874Y-71518932D02*
X174146103Y-71606247D01*
X157458460Y-143474690D02*
X157450359Y-143734584D01*
X177452377Y-85647092D02*
X177436649Y-85649649D01*
X167711409Y-63301910D02*
X167749068Y-63303296D01*
X111560076Y-68782145D02*
X111646466Y-68760142D01*
X141294590Y-141787158D02*
X141048508Y-141559785D01*
X195373003Y-125916659D02*
X195241986Y-125939320D01*
X176448863Y-74738186D02*
X176369060Y-74806592D01*
X180252242Y-80444141D02*
X180234716Y-80474293D01*
X181691272Y-131174611D02*
X181657929Y-131089128D01*
X193635527Y-125872242D02*
X193536900Y-125847818D01*
X135343576Y-67911363D02*
X135398007Y-67921707D01*
X183842652Y-99853963D02*
X183851061Y-99885644D01*
X106948170Y-125659104D02*
X106741744Y-125713489D01*
X169253579Y-62829375D02*
X169373474Y-62801835D01*
X134928297Y-67879894D02*
X134976841Y-67878811D01*
X139482021Y-59391896D02*
X139524621Y-59349536D01*
X127928330Y-74287819D02*
X127983723Y-74296147D01*
X170751085Y-62882218D02*
X170861195Y-62923179D01*
X170328172Y-64536149D02*
X170346458Y-64562566D01*
X175011792Y-86428961D02*
X175030699Y-86437027D01*
X137272150Y-61954971D02*
X137383363Y-61876000D01*
X179721662Y-91604921D02*
X179735184Y-91651885D01*
X135324248Y-74959626D02*
X135416524Y-74754663D01*
X176129916Y-83779686D02*
X176164489Y-83801902D01*
X129036887Y-75718654D02*
X129020568Y-75829084D01*
X175455227Y-86847120D02*
X175497895Y-86897662D01*
X189013361Y-105642556D02*
X189137886Y-105771848D01*
X107416608Y-125505263D02*
X107371518Y-125520569D01*
X184091220Y-100304269D02*
X184131383Y-100358394D01*
X128186371Y-74356818D02*
X128235853Y-74379458D01*
X128738889Y-76621189D02*
X128673543Y-76768661D01*
X192211960Y-110917112D02*
X192265076Y-111054583D01*
X102810645Y-124086330D02*
X102805300Y-123984205D01*
X108469434Y-126545107D02*
X108357504Y-126325314D01*
X181034108Y-130235645D02*
X181018584Y-130234003D01*
X195396090Y-119760364D02*
X195591688Y-119959304D01*
X180581358Y-130347446D02*
X180503709Y-130367916D01*
X139173252Y-59797971D02*
X139217588Y-59729518D01*
X177579927Y-82884828D02*
X177524546Y-82896885D01*
X130499331Y-82674845D02*
X130525029Y-82515555D01*
X114798182Y-99215813D02*
X114921085Y-99046632D01*
X172910339Y-68873758D02*
X172942734Y-68961350D01*
X186572561Y-132054838D02*
X186395502Y-132119124D01*
X182020921Y-132058374D02*
X182005444Y-131994561D01*
X135861134Y-67975519D02*
X135964016Y-67971347D01*
X128690663Y-74687419D02*
X128724625Y-74717126D01*
X189734536Y-129765628D02*
X189650123Y-129876813D01*
X169781615Y-62759718D02*
X169926917Y-62758778D01*
X176595436Y-74592298D02*
X176524815Y-74666310D01*
X180063431Y-80685444D02*
X179926946Y-80835649D01*
X132486208Y-69097589D02*
X132543547Y-68965295D01*
X125875810Y-67111375D02*
X125973738Y-67164195D01*
X176738969Y-74406655D02*
X176714776Y-74443188D01*
X183536701Y-98831815D02*
X183614625Y-99047161D01*
X194208358Y-125961252D02*
X194111290Y-125952564D01*
X113507139Y-68399091D02*
X113510062Y-68321231D01*
X173339439Y-69931975D02*
X173325808Y-69960972D01*
X164876713Y-134685730D02*
X164767636Y-134771188D01*
X143042065Y-146889810D02*
X143020442Y-146880115D01*
X182143333Y-96199223D02*
X182190451Y-96273427D01*
X195671608Y-125832232D02*
X195614732Y-125852484D01*
X175538798Y-86943561D02*
X175578199Y-86984987D01*
X136581114Y-63024565D02*
X136607536Y-62904835D01*
X139566454Y-59311645D02*
X139607392Y-59278406D01*
X167467029Y-63247472D02*
X167500348Y-63260158D01*
X184053056Y-100250616D02*
X184091220Y-100304269D01*
X170920605Y-64939736D02*
X170973402Y-64971788D01*
X172932350Y-70401937D02*
X172899914Y-70435594D01*
X161298790Y-54536681D02*
X161404099Y-54571097D01*
X111696719Y-82383308D02*
X111642253Y-82211880D01*
X172665916Y-67517764D02*
X172681028Y-67590005D01*
X117313270Y-132617498D02*
X117251529Y-132562317D01*
X107816837Y-125423857D02*
X107792785Y-125423709D01*
X171182960Y-63138319D02*
X171211612Y-63165567D01*
X175329657Y-75539731D02*
X175383573Y-75562644D01*
X126811297Y-81594705D02*
X126776319Y-81824625D01*
X173092859Y-69251955D02*
X173135517Y-69309634D01*
X181255227Y-77298502D02*
X181620899Y-77304070D01*
X175994668Y-75776439D02*
X176242916Y-75864383D01*
X182772584Y-77545480D02*
X182862430Y-77595083D01*
X175875310Y-83532443D02*
X175885757Y-83552198D01*
X179926946Y-80835649D02*
X179580481Y-81197605D01*
X174391374Y-85426222D02*
X174308655Y-85459891D01*
X179807335Y-130492499D02*
X179531231Y-130569612D01*
X156183299Y-54020928D02*
X156344000Y-54042400D01*
X181548638Y-94368528D02*
X181594773Y-94525634D01*
X135077567Y-67880962D02*
X135129448Y-67884189D01*
X127068822Y-134926012D02*
X126967841Y-134920642D01*
X112604837Y-102082771D02*
X112643885Y-102054254D01*
X170346458Y-64562566D02*
X170368802Y-64589140D01*
X192559673Y-125536051D02*
X192402617Y-125491909D01*
X157744506Y-53871170D02*
X157803969Y-53825989D01*
X177347732Y-82927163D02*
X177286704Y-82935024D01*
X128454303Y-77316209D02*
X128380997Y-77514627D01*
X132572633Y-79942854D02*
X132561424Y-79832974D01*
X164021315Y-135314701D02*
X163828487Y-135442061D01*
X173310090Y-69990219D02*
X173292280Y-70019743D01*
X145680519Y-54312405D02*
X145876979Y-54207236D01*
X102848289Y-124423783D02*
X102836221Y-124348557D01*
X177535066Y-84756757D02*
X177572208Y-84809806D01*
X194517530Y-119045479D02*
X194750522Y-119210927D01*
X167638486Y-63294427D02*
X167674571Y-63298959D01*
X182917835Y-133019852D02*
X182894568Y-133014754D01*
X176231363Y-87225470D02*
X176246408Y-87231635D01*
X182763418Y-132960432D02*
X182719751Y-132932153D01*
X135438837Y-74281593D02*
X135421667Y-74258581D01*
X129723891Y-84554467D02*
X129753025Y-84546456D01*
X180773848Y-80074173D02*
X180715982Y-80099932D01*
X185130288Y-101562387D02*
X185232476Y-101706241D01*
X126511966Y-74193252D02*
X126536842Y-74343665D01*
X157620157Y-142223303D02*
X157606315Y-142246374D01*
X167013373Y-61452246D02*
X167001571Y-61498492D01*
X166672067Y-54900426D02*
X166737061Y-54899216D01*
X128923976Y-74937381D02*
X128943350Y-74971522D01*
X109567711Y-128382188D02*
X109281033Y-127943973D01*
X179224790Y-130663668D02*
X178913175Y-130766645D01*
X167909248Y-63293530D02*
X167952013Y-63287343D01*
X177175486Y-84390608D02*
X177295227Y-84493124D01*
X182117263Y-132273792D02*
X182093656Y-132232863D01*
X178156530Y-131070375D02*
X178109651Y-131091581D01*
X160880019Y-137536064D02*
X160419821Y-137958506D01*
X132514707Y-78749679D02*
X132522470Y-78688083D01*
X181155702Y-79967063D02*
X181084990Y-79979742D01*
X123095742Y-134675424D02*
X122262010Y-134634102D01*
X110548649Y-129553283D02*
X110414632Y-129443470D01*
X106201314Y-118498181D02*
X106459540Y-118351784D01*
X157703843Y-142119012D02*
X157667311Y-142159861D01*
X171260107Y-63218247D02*
X171279912Y-63243831D01*
X180053255Y-77286924D02*
X180277546Y-77292404D01*
X173037164Y-70302532D02*
X173001156Y-70335170D01*
X117691831Y-132829610D02*
X117667547Y-132824225D01*
X173377624Y-69761656D02*
X173376429Y-69789746D01*
X133116971Y-77696625D02*
X133153939Y-77671773D01*
X112793145Y-130767462D02*
X112574405Y-130679582D01*
X127983723Y-74296147D02*
X128036513Y-74307084D01*
X180351996Y-130400523D02*
X180282533Y-130411671D01*
X142427157Y-145588906D02*
X142420689Y-145402966D01*
X180467961Y-80236424D02*
X180434981Y-80257879D01*
X132648974Y-71580202D02*
X132551014Y-71424549D01*
X186213208Y-132189371D02*
X186015704Y-132269526D01*
X177103516Y-82950791D02*
X177043885Y-82953173D01*
X117413598Y-93580635D02*
X117432330Y-93515035D01*
X113805801Y-67666299D02*
X113846669Y-67629680D01*
X113040939Y-101699205D02*
X113128875Y-101601632D01*
X167901971Y-58575737D02*
X167897393Y-58646389D01*
X133789706Y-77360911D02*
X133938800Y-77300439D01*
X186685997Y-103834579D02*
X186771914Y-103945964D01*
X158714506Y-139963808D02*
X158596115Y-140211598D01*
X157549354Y-142391284D02*
X157540128Y-142428531D01*
X178115567Y-76749862D02*
X178333306Y-76882259D01*
X195496944Y-125887841D02*
X195373003Y-125916659D01*
X172174500Y-66504922D02*
X172306629Y-66718038D01*
X141145131Y-57548689D02*
X141309318Y-57387451D01*
X136236401Y-137798706D02*
X136116989Y-137734248D01*
X117619756Y-132810450D02*
X117596051Y-132801934D01*
X111992532Y-68723534D02*
X112076274Y-68728058D01*
X171258497Y-63567606D02*
X171234724Y-63594505D01*
X127027593Y-80763835D02*
X126960409Y-80965941D01*
X175410531Y-86791761D02*
X175455227Y-86847120D01*
X158958921Y-139523227D02*
X158868497Y-139655240D01*
X163442030Y-55264234D02*
X163537449Y-55266090D01*
X173925643Y-86153044D02*
X173997860Y-86189576D01*
X158407342Y-53362735D02*
X158414443Y-53364045D01*
X113548774Y-69662925D02*
X113548484Y-69542489D01*
X183109232Y-80494993D02*
X183091247Y-80446186D01*
X173710781Y-85887266D02*
X173703408Y-85905489D01*
X135492705Y-74532892D02*
X135496388Y-74505064D01*
X175318778Y-86680057D02*
X175363264Y-86733072D01*
X163184272Y-55237115D02*
X163267444Y-55250114D01*
X170313810Y-64348642D02*
X170303687Y-64376288D01*
X175363264Y-86733072D02*
X175410531Y-86791761D01*
X107846127Y-125427318D02*
X107837315Y-125425723D01*
X175946564Y-83632212D02*
X175966641Y-83652583D01*
X102965489Y-124800416D02*
X102940080Y-124742740D01*
X158414443Y-53364045D02*
X158426174Y-53367888D01*
X183340511Y-83062412D02*
X183292486Y-83072517D01*
X175593712Y-73175688D02*
X175669748Y-73209772D01*
X107628602Y-125446925D02*
X107588920Y-125455993D01*
X103703996Y-120826753D02*
X103848994Y-120612141D01*
X174907510Y-72506019D02*
X174952264Y-72582518D01*
X181657929Y-131089128D02*
X181628843Y-131009088D01*
X181415462Y-130522446D02*
X181392106Y-130496076D01*
X167454607Y-60807064D02*
X167428491Y-60843069D01*
X172711571Y-70680334D02*
X172699640Y-70704329D01*
X142732455Y-146675504D02*
X142707103Y-146652102D01*
X177660582Y-84967491D02*
X177682096Y-85019175D01*
X136970991Y-67375110D02*
X136964354Y-67358091D01*
X158426174Y-53367888D02*
X158442267Y-53374135D01*
X176595967Y-87677646D02*
X176659879Y-87765447D01*
X112255067Y-102455585D02*
X112299961Y-102397999D01*
X184315885Y-79284535D02*
X184366780Y-79440594D01*
X161544142Y-136976472D02*
X161330253Y-137149126D01*
X128012245Y-78542934D02*
X127917155Y-78778222D01*
X170327991Y-64320487D02*
X170313810Y-64348642D01*
X172787516Y-70566552D02*
X172764660Y-70597197D01*
X126723492Y-82338096D02*
X126703990Y-82629358D01*
X174952264Y-72582518D02*
X174995148Y-72652398D01*
X131643100Y-80814821D02*
X131698709Y-80787404D01*
X158389554Y-53369949D02*
X158400506Y-53364568D01*
X165828238Y-55021582D02*
X166155408Y-54965438D01*
X191054451Y-108963294D02*
X191149003Y-109080911D01*
X179784147Y-91855371D02*
X179807700Y-91900881D01*
X136538749Y-67834540D02*
X136621548Y-67794513D01*
X132561424Y-79832974D02*
X132538765Y-79579427D01*
X180895555Y-130247413D02*
X180875014Y-130252702D01*
X173627267Y-71238679D02*
X173647774Y-71241015D01*
X183916110Y-82673009D02*
X183810712Y-82776529D01*
X170218991Y-62775820D02*
X170361624Y-62793562D01*
X103439043Y-121238878D02*
X103564089Y-121041586D01*
X132543547Y-68965295D02*
X132603436Y-68845819D01*
X142442828Y-145893807D02*
X142434457Y-145751875D01*
X192003114Y-125500787D02*
X191985336Y-125523958D01*
X103071333Y-121899867D02*
X103145003Y-121749122D01*
X181775864Y-95388128D02*
X181777900Y-95419297D01*
X130364789Y-84170980D02*
X130374834Y-84150403D01*
X192774447Y-117949785D02*
X192789904Y-117995480D01*
X134664793Y-73750599D02*
X134509371Y-73625719D01*
X165428720Y-134329429D02*
X165214090Y-134460760D01*
X112542152Y-85419382D02*
X112373264Y-85047707D01*
X183150878Y-97936714D02*
X183257817Y-98164156D01*
X136621548Y-67794513D02*
X136698952Y-67749964D01*
X115370479Y-67041234D02*
X115567303Y-67008740D01*
X105200720Y-125944104D02*
X104996320Y-125952350D01*
X176544079Y-85395354D02*
X176410830Y-85360328D01*
X128961105Y-75007559D02*
X128977246Y-75045408D01*
X178724445Y-77089326D02*
X178830466Y-77127782D01*
X133422294Y-77523094D02*
X133532441Y-77471507D01*
X127917155Y-78778222D02*
X127818631Y-79012282D01*
X167220965Y-55224928D02*
X167275284Y-55328569D01*
X130436545Y-83733088D02*
X130440182Y-83620473D01*
X176807633Y-74268497D02*
X176795053Y-74301508D01*
X184517686Y-80156340D02*
X184541079Y-80347194D01*
X160000452Y-53994543D02*
X160114505Y-54043289D01*
X192640966Y-112833136D02*
X192654046Y-113065811D01*
X184292790Y-82157613D02*
X184208402Y-82298874D01*
X160350049Y-54154739D02*
X160470324Y-54213888D01*
X182202203Y-132402748D02*
X182171758Y-132359063D01*
X147011215Y-53832483D02*
X147233370Y-53746304D01*
X174846529Y-86391665D02*
X174890927Y-86396906D01*
X120957368Y-134525824D02*
X120765380Y-134498278D01*
X175455952Y-75590922D02*
X175543935Y-75623527D01*
X132560159Y-78515999D02*
X132577830Y-78460790D01*
X182131173Y-77335862D02*
X182225840Y-77349765D01*
X192687066Y-116450108D02*
X192695766Y-116924109D01*
X171333737Y-63367245D02*
X171335327Y-63391560D01*
X104141407Y-120216448D02*
X104291185Y-120033323D01*
X104941653Y-119375109D02*
X105123013Y-119224015D01*
X183161188Y-80776164D02*
X183155490Y-80712647D01*
X132769676Y-71752621D02*
X132648974Y-71580202D01*
X159565441Y-138813885D02*
X159383081Y-139012412D01*
X107837315Y-125425723D02*
X107816837Y-125423857D01*
X182786057Y-79924163D02*
X181922105Y-79924163D01*
X135453749Y-74304797D02*
X135438837Y-74281593D01*
X117450267Y-132724135D02*
X117424456Y-132706138D01*
X112070600Y-84165918D02*
X111984235Y-83681777D01*
X175644659Y-75659420D02*
X175755263Y-75697562D01*
X130769720Y-81674504D02*
X130824021Y-81558821D01*
X182225840Y-77349765D02*
X182311856Y-77366615D01*
X182940787Y-82663174D02*
X182946326Y-82637025D01*
X181017891Y-79994363D02*
X180953816Y-80011021D01*
X107765435Y-125425228D02*
X107735065Y-125428362D01*
X175866245Y-73294411D02*
X175975560Y-73346801D01*
X116691024Y-132001109D02*
X116619739Y-131934549D01*
X113928903Y-87887412D02*
X113677651Y-87489054D01*
X139687149Y-59211559D02*
X139732712Y-59169517D01*
X180076229Y-92276524D02*
X180140578Y-92354095D01*
X136770327Y-67701046D02*
X136835043Y-67647907D01*
X132597226Y-80315233D02*
X132607666Y-80288664D01*
X142484016Y-146252842D02*
X142476760Y-146212733D01*
X174350098Y-131941542D02*
X174107948Y-131993876D01*
X111063117Y-80647080D02*
X111010207Y-80486956D01*
X126846388Y-85347721D02*
X126893134Y-85343476D01*
X181784469Y-95456255D02*
X181795368Y-95498583D01*
X111257000Y-130022717D02*
X111058832Y-129903337D01*
X157353264Y-54044715D02*
X157415657Y-54032330D01*
X126630536Y-74379156D02*
X126649216Y-74374755D01*
X130881738Y-81451673D02*
X130942704Y-81353635D01*
X132422496Y-80455358D02*
X132477170Y-80423907D01*
X157516056Y-142562858D02*
X157509098Y-142616283D01*
X157509098Y-142616283D02*
X157502606Y-142674593D01*
X174146103Y-71606247D02*
X174243788Y-71700629D01*
X189523687Y-106333249D02*
X189599189Y-106492538D01*
X142500168Y-146324056D02*
X142491809Y-146289869D01*
X126518568Y-72563657D02*
X126503383Y-73357222D01*
X182923649Y-82773726D02*
X182925650Y-82754088D01*
X167749068Y-63303296D02*
X167787615Y-63303135D01*
X171143786Y-63679504D02*
X171106869Y-63709526D01*
X180728738Y-130300645D02*
X180657134Y-130324858D01*
X175254993Y-75441834D02*
X175254693Y-75457820D01*
X181572186Y-130805164D02*
X181571168Y-130789560D01*
X132280856Y-70308830D02*
X132281612Y-70152642D01*
X166875243Y-62684057D02*
X166889696Y-62716956D01*
X173141257Y-70204267D02*
X173108686Y-70236512D01*
X119446871Y-133386923D02*
X119361410Y-133331324D01*
X179751195Y-91726306D02*
X179753274Y-91752721D01*
X136494574Y-63522474D02*
X136518141Y-63405949D01*
X172685689Y-70774135D02*
X172691582Y-70787639D01*
X133081891Y-77721742D02*
X133116971Y-77696625D01*
X159569944Y-53866395D02*
X159591790Y-53867705D01*
X126649216Y-74374755D02*
X126673745Y-74370006D01*
X176587395Y-73764269D02*
X176647679Y-73826619D01*
X112351459Y-130583443D02*
X112126689Y-130480297D01*
X171271244Y-65189317D02*
X171314439Y-65227116D01*
X196822048Y-122070734D02*
X196840126Y-122154733D01*
X172693496Y-67663634D02*
X172703608Y-67739348D01*
X140117063Y-58759477D02*
X140234815Y-58619633D01*
X193772660Y-118610223D02*
X194028063Y-118744556D01*
X173313461Y-69536520D02*
X173328609Y-69564963D01*
X141048508Y-141559785D02*
X140785649Y-141324616D01*
X153967870Y-53242784D02*
X154385409Y-53442547D01*
X181512856Y-130651457D02*
X181496398Y-130626667D01*
X134907316Y-76315577D02*
X134910542Y-76276111D01*
X190963517Y-108858961D02*
X191054451Y-108963294D01*
X155154996Y-53755798D02*
X155335578Y-53816669D01*
X113427962Y-87074487D02*
X113184702Y-86651975D01*
X120430301Y-134373743D02*
X120388474Y-134347954D01*
X176274114Y-73517867D02*
X176362387Y-73578261D01*
X174953272Y-86409627D02*
X174973132Y-86415294D01*
X173272374Y-70049571D02*
X173250368Y-70079733D01*
X126513453Y-134881807D02*
X125845712Y-134812047D01*
X192276798Y-125464059D02*
X192224309Y-125456013D01*
X172988280Y-71007256D02*
X173063531Y-71046733D01*
X185232476Y-101706241D02*
X185469050Y-102048351D01*
X172986672Y-132239069D02*
X172834177Y-132276710D01*
X192002377Y-110460117D02*
X192079639Y-110618199D01*
X193601413Y-118522926D02*
X193772660Y-118610223D01*
X177702826Y-131220744D02*
X177609009Y-131243886D01*
X175307834Y-75334338D02*
X175293568Y-75353112D01*
X137668207Y-138723354D02*
X137368195Y-138505851D01*
X183880676Y-99960663D02*
X183901359Y-100003213D01*
X167272179Y-63135486D02*
X167304386Y-63158504D01*
X167577733Y-60547757D02*
X167560959Y-60596654D01*
X135416524Y-74754663D02*
X135446910Y-74685839D01*
X136892468Y-67590699D02*
X136919495Y-67559886D01*
X127586415Y-134921634D02*
X127509513Y-134926730D01*
X184076453Y-78807979D02*
X184142365Y-78913039D01*
X129025783Y-75213250D02*
X129040513Y-75305865D01*
X116722668Y-66868072D02*
X117640837Y-66781872D01*
X187086625Y-104284973D02*
X187166964Y-104352681D01*
X184173282Y-100412597D02*
X184216655Y-100466484D01*
X157569850Y-142326063D02*
X157559248Y-142357240D01*
X181983261Y-131917989D02*
X181955409Y-131831550D01*
X183158426Y-83072316D02*
X183117711Y-83061496D01*
X192725666Y-117596082D02*
X192747530Y-117808984D01*
X171335327Y-63391560D02*
X171333815Y-63415932D01*
X130121505Y-84380304D02*
X130175014Y-84347288D01*
X110936482Y-78738049D02*
X110952414Y-78364844D01*
X154385409Y-53442547D02*
X154585522Y-53531507D01*
X176179928Y-73458907D02*
X176274114Y-73517867D01*
X182384745Y-96569409D02*
X182525665Y-96794132D01*
X177401676Y-84597787D02*
X177449722Y-84650630D01*
X169145209Y-62863866D02*
X169253579Y-62829375D01*
X176201229Y-83824475D02*
X176281308Y-83870788D01*
X172691582Y-70787639D02*
X172701145Y-70802271D01*
X176665869Y-82968775D02*
X176568856Y-82980082D01*
X175293568Y-75353112D02*
X175281322Y-75371682D01*
X180266404Y-80401746D02*
X180260316Y-80413979D01*
X175041379Y-85276277D02*
X174906992Y-85294877D01*
X170814683Y-63912732D02*
X170692990Y-63992701D01*
X173135517Y-69309634D02*
X173180222Y-69361312D01*
X134111573Y-67999764D02*
X134215887Y-67991434D01*
X174624721Y-72114811D02*
X174708914Y-72219019D01*
X170252735Y-132776317D02*
X169689240Y-132860244D01*
X133633219Y-68028988D02*
X133687219Y-68020996D01*
X112269391Y-68764040D02*
X112303584Y-68775814D01*
X108086229Y-110874173D02*
X108158712Y-110329099D01*
X111021727Y-69061602D02*
X111087461Y-69009395D01*
X157606315Y-142246374D02*
X157593343Y-142270966D01*
X177402511Y-85651785D02*
X177383896Y-85651343D01*
X136126175Y-65170133D02*
X136133034Y-64955042D01*
X167304386Y-63158504D02*
X167336610Y-63179758D01*
X170346230Y-64291742D02*
X170327991Y-64320487D01*
X182517164Y-132758157D02*
X182454255Y-132697557D01*
X129020568Y-75829084D02*
X128998172Y-75941065D01*
X187251530Y-104417406D02*
X187342100Y-104481067D01*
X175854994Y-83473404D02*
X175859953Y-83493070D01*
X174158868Y-86258118D02*
X174244851Y-86288933D01*
X158808549Y-139763124D02*
X158714506Y-139963808D01*
X118060531Y-132858446D02*
X117965565Y-132848459D01*
X175160604Y-72876774D02*
X175203606Y-72921843D01*
X135479749Y-74591115D02*
X135487146Y-74561554D01*
X134298664Y-136723855D02*
X134010878Y-136589102D01*
X176998198Y-85549185D02*
X176906951Y-85516780D01*
X173881378Y-85703321D02*
X173829112Y-85746135D01*
X154970001Y-53688042D02*
X155154996Y-53755798D01*
X127531817Y-79635925D02*
X127405777Y-79890008D01*
X192071750Y-125460859D02*
X192045373Y-125470866D01*
X141921252Y-142425185D02*
X141861175Y-142355740D01*
X176246408Y-87231635D02*
X176261038Y-87238469D01*
X189441231Y-106183112D02*
X189523687Y-106333249D01*
X180539603Y-80192869D02*
X180502903Y-80214703D01*
X158514057Y-53406007D02*
X158578844Y-53436902D01*
X128247557Y-77900863D02*
X128180382Y-78097138D01*
X176203813Y-74927671D02*
X176121327Y-74977681D01*
X105314232Y-119076260D02*
X105516491Y-118930821D01*
X167327916Y-55443981D02*
X167378282Y-55569433D01*
X119787625Y-133698143D02*
X119717920Y-133623664D01*
X110994705Y-71844644D02*
X110999774Y-71773453D01*
X111561136Y-103610107D02*
X111794719Y-103211299D01*
X192045373Y-125470866D02*
X192022667Y-125484206D01*
X177771938Y-82828922D02*
X177729243Y-82843890D01*
X193220212Y-125755297D02*
X192984048Y-125676172D01*
X134712603Y-76766457D02*
X134764289Y-76695060D01*
X111004622Y-71634450D02*
X111004374Y-71566427D01*
X127165216Y-134929642D02*
X127068822Y-134926012D01*
X132554892Y-80367617D02*
X132579973Y-80341305D01*
X134824579Y-136994701D02*
X134569760Y-136859004D01*
X110998466Y-71432807D02*
X110992777Y-71366998D01*
X181527544Y-130675362D02*
X181512856Y-130651457D01*
X113514781Y-68802891D02*
X113507245Y-68580860D01*
X180276300Y-80387881D02*
X180266404Y-80401746D01*
X112449755Y-68844848D02*
X112526856Y-68891049D01*
X171775463Y-65873501D02*
X172174500Y-66504922D01*
X136736142Y-67051630D02*
X136668286Y-66974856D01*
X113338470Y-69813975D02*
X113356835Y-69852902D01*
X170394883Y-64232143D02*
X170368528Y-64262321D01*
X133654583Y-77417690D02*
X133789706Y-77360911D01*
X178943065Y-77161468D02*
X179063881Y-77190659D01*
X180892176Y-80029812D02*
X180832383Y-80050831D01*
X154585522Y-53531507D02*
X154780281Y-53613308D01*
X166845029Y-62467233D02*
X166843817Y-62507258D01*
X176913072Y-88068480D02*
X177016821Y-88181529D01*
X132355922Y-80489997D02*
X132422496Y-80455358D01*
X164767636Y-134771188D02*
X164665528Y-134854954D01*
X136955977Y-67340146D02*
X136945817Y-67321170D01*
X182040066Y-132120827D02*
X182028687Y-132088158D01*
X189798219Y-107041070D02*
X189834531Y-107153693D01*
X110890451Y-79873876D02*
X110888117Y-79755892D01*
X111902477Y-130371399D02*
X111681203Y-130258001D01*
X126717987Y-85290446D02*
X126738230Y-85313860D01*
X175726050Y-87109397D02*
X175761891Y-87131036D01*
X128848722Y-76391117D02*
X128796616Y-76500810D01*
X135757909Y-67973967D02*
X135861134Y-67975519D01*
X135491598Y-74400821D02*
X135485331Y-74376205D01*
X171329180Y-63440436D02*
X171321403Y-63465148D01*
X184948650Y-101316266D02*
X185036310Y-101433250D01*
X113449003Y-69996038D02*
X113461398Y-70004721D01*
X193826997Y-125912309D02*
X193731969Y-125893692D01*
X136931368Y-67545348D02*
X136942088Y-67531249D01*
X182871924Y-133008605D02*
X182849770Y-133001357D01*
X157540128Y-142428531D02*
X157531530Y-142469319D01*
X117716504Y-132834074D02*
X117691831Y-132829610D01*
X132676520Y-78234045D02*
X132719784Y-78152245D01*
X179635589Y-91364183D02*
X179684612Y-91494086D01*
X126700514Y-85259148D02*
X126717987Y-85290446D01*
X161330253Y-137149126D02*
X161107880Y-137336657D01*
X113539931Y-69849650D02*
X113543329Y-69809709D01*
X108224413Y-109969892D02*
X108277597Y-109782685D01*
X176743564Y-73949573D02*
X176778296Y-74009421D01*
X189137886Y-105771848D02*
X189249756Y-105903988D01*
X110673054Y-69794793D02*
X110683239Y-69693228D01*
X183953166Y-100096426D02*
X183983767Y-100146300D01*
X111681203Y-130258001D02*
X111465250Y-130141356D01*
X146644049Y-53966430D02*
X146815916Y-53905467D01*
X113842839Y-100646955D02*
X113960757Y-100469416D01*
X131910470Y-135780415D02*
X131058043Y-135507146D01*
X179754149Y-91766134D02*
X179756761Y-91781063D01*
X117184636Y-132499232D02*
X117111803Y-132427746D01*
X116852374Y-132161835D02*
X116768116Y-132076607D01*
X177524546Y-82896885D02*
X177467092Y-82908013D01*
X172685512Y-70745331D02*
X172684141Y-70753954D01*
X159076824Y-139370084D02*
X158958921Y-139523227D01*
X129783730Y-84536939D02*
X129815752Y-84526014D01*
X169926917Y-62758778D02*
X170073398Y-62764185D01*
X134420737Y-67967068D02*
X134515062Y-67951772D01*
X128338373Y-74434591D02*
X128392831Y-74467336D01*
X191737856Y-109971521D02*
X191830513Y-110135098D01*
X175271217Y-75389943D02*
X175263379Y-75407792D01*
X187731926Y-131580751D02*
X187604934Y-131652245D01*
X142812654Y-146743434D02*
X142785438Y-146721327D01*
X146356906Y-54056996D02*
X146492187Y-54016548D01*
X182928370Y-82733280D02*
X182931803Y-82711235D01*
X183354692Y-77973233D02*
X183455548Y-78068503D01*
X140404971Y-58405471D02*
X140458218Y-58334847D01*
X129815752Y-84526014D02*
X129848839Y-84513777D01*
X188983463Y-130579200D02*
X188825899Y-130728394D01*
X184432864Y-81858624D02*
X184368118Y-82010399D01*
X180167893Y-130421182D02*
X180109573Y-130426141D01*
X176012815Y-83693927D02*
X176038960Y-83714948D01*
X133153939Y-77671773D02*
X133234031Y-77622496D01*
X188674682Y-130866929D02*
X188529075Y-130995310D01*
X182930252Y-82883991D02*
X182927061Y-82870690D01*
X195591688Y-119959304D02*
X195776596Y-120165191D01*
X164774145Y-55182749D02*
X164958826Y-55161690D01*
X157433595Y-144364107D02*
X157383099Y-146374185D01*
X120009204Y-133969484D02*
X119981780Y-133932013D01*
X175927368Y-75061314D02*
X175892156Y-75069613D01*
X173376761Y-69733620D02*
X173377624Y-69761656D01*
X170361624Y-62793562D02*
X170499231Y-62817289D01*
X130590025Y-82211054D02*
X130628987Y-82066996D01*
X172801364Y-68463823D02*
X172825513Y-68575229D01*
X125502487Y-66985370D02*
X125642880Y-67022595D01*
X111474897Y-68808957D02*
X111560076Y-68782145D01*
X185036310Y-101433250D02*
X185130288Y-101562387D01*
X172687219Y-132311558D02*
X172530099Y-132346898D01*
X175203606Y-72921843D02*
X175248527Y-72963606D01*
X180782391Y-130281680D02*
X180728738Y-130300645D01*
X128137127Y-74337293D02*
X128186371Y-74356818D01*
X115723178Y-131544778D02*
X115424456Y-131484147D01*
X126503383Y-73357222D02*
X126500998Y-73882429D01*
X184460793Y-81781462D02*
X184432864Y-81858624D01*
X136754813Y-62504878D02*
X136805259Y-62419630D01*
X140842325Y-57868251D02*
X140989329Y-57709077D01*
X161838654Y-54731901D02*
X162007563Y-54798845D01*
X128841881Y-74831108D02*
X128865238Y-74857269D01*
X175451310Y-85250182D02*
X175313822Y-85253947D01*
X176500916Y-87523965D02*
X176542866Y-87597035D01*
X134162296Y-73313791D02*
X133977171Y-73133771D01*
X110808276Y-70644222D02*
X110766841Y-70507874D01*
X166434037Y-133773904D02*
X166174358Y-133909135D01*
X181202849Y-130318838D02*
X181186267Y-130306060D01*
X128286284Y-74405340D02*
X128338373Y-74434591D01*
X142577068Y-146504154D02*
X142563903Y-146483076D01*
X167041627Y-62923592D02*
X167109080Y-62993365D01*
X168674717Y-63068511D02*
X168782840Y-63025598D01*
X180167900Y-80563145D02*
X180063431Y-80685444D01*
X173728871Y-71274353D02*
X173797099Y-71316395D01*
X184003071Y-78700950D02*
X184076453Y-78807979D01*
X185761167Y-102480091D02*
X186123963Y-103021970D01*
X142591039Y-146524327D02*
X142577068Y-146504154D01*
X138848699Y-60407485D02*
X138917428Y-60264941D01*
X181154456Y-130283754D02*
X181139075Y-130274197D01*
X112564134Y-102116077D02*
X112604837Y-102082771D01*
X117032238Y-132347363D02*
X116945153Y-132257585D01*
X134894654Y-76393865D02*
X134902013Y-76354836D01*
X195727292Y-125810201D02*
X195671608Y-125832232D01*
X157688558Y-53910430D02*
X157744506Y-53871170D01*
X115899693Y-97605443D02*
X115980507Y-97454028D01*
X145413585Y-54469359D02*
X145680519Y-54312405D01*
X170958002Y-62969642D02*
X171000771Y-62994900D01*
X178903858Y-89993902D02*
X178961992Y-90071623D01*
X133383576Y-136320179D02*
X133043233Y-136185705D01*
X157997521Y-141581018D02*
X157988850Y-141613101D01*
X171023015Y-63772561D02*
X170925671Y-63840093D01*
X174244851Y-86288933D02*
X174332615Y-86316647D01*
X177508748Y-85627162D02*
X177495431Y-85633580D01*
X111890941Y-103041617D02*
X111968353Y-102900308D01*
X113478420Y-70009557D02*
X113483678Y-70008980D01*
X116365524Y-131741854D02*
X116302914Y-131708107D01*
X180577855Y-80171073D02*
X180539603Y-80192869D01*
X179295000Y-90624453D02*
X179352647Y-90737188D01*
X158442267Y-53374135D02*
X158462456Y-53382657D01*
X142528946Y-146411993D02*
X142518707Y-146384876D01*
X183117711Y-83061496D02*
X183079299Y-83045009D01*
X174708914Y-72219019D02*
X174785255Y-72320089D01*
X125586190Y-134789016D02*
X125311690Y-134769987D01*
X182983784Y-82972891D02*
X182974317Y-82962863D01*
X174711947Y-86386961D02*
X174749009Y-86387784D01*
X173780532Y-86059914D02*
X173804803Y-86078446D01*
X182956327Y-77654578D02*
X183053387Y-77723054D01*
X183164762Y-80844720D02*
X183161188Y-80776164D01*
X174799365Y-86388711D02*
X174846529Y-86391665D01*
X179063881Y-77190659D02*
X179194556Y-77215632D01*
X180535981Y-92792367D02*
X180773283Y-93044365D01*
X157490858Y-142807212D02*
X157485520Y-142882194D01*
X176366809Y-87319813D02*
X176379082Y-87333635D01*
X111004374Y-71566427D02*
X111002327Y-71499248D01*
X179873668Y-92007470D02*
X179915738Y-92068092D01*
X182957791Y-82942208D02*
X182950720Y-82931449D01*
X120379454Y-66672054D02*
X121343377Y-66683544D01*
X183109221Y-133030021D02*
X183048126Y-133031201D01*
X128467983Y-74516285D02*
X128506039Y-74542838D01*
X182028687Y-132088158D02*
X182020921Y-132058374D01*
X132666157Y-68734710D02*
X132731841Y-68631880D01*
X175947517Y-87191028D02*
X175987770Y-87194589D01*
X173226258Y-70110255D02*
X173200039Y-70141166D01*
X131073708Y-81187194D02*
X131097584Y-81163503D01*
X170297622Y-64403509D02*
X170295615Y-64430389D01*
X173232674Y-69420767D02*
X173255891Y-69450058D01*
X195241986Y-125939320D02*
X195102969Y-125956211D01*
X107461169Y-125491100D02*
X107416608Y-125505263D01*
X115446391Y-98342105D02*
X115543005Y-98198609D01*
X141861175Y-142355740D02*
X141789803Y-142277671D01*
X134791746Y-67891810D02*
X134835598Y-67886390D01*
X105958852Y-118642804D02*
X106201314Y-118498181D01*
X183810712Y-82776529D02*
X183703868Y-82867132D01*
X181551083Y-130719755D02*
X181540330Y-130698191D01*
X106459540Y-118351784D02*
X106734709Y-118202592D01*
X133414621Y-72539663D02*
X133235593Y-72335327D01*
X181906867Y-77315769D02*
X182025601Y-77324625D01*
X142518707Y-146384876D02*
X142509124Y-146355644D01*
X175653549Y-87055107D02*
X175690024Y-87084145D01*
X173703586Y-85971683D02*
X173712469Y-85988489D01*
X136805259Y-62419630D02*
X136862448Y-62338278D01*
X176148953Y-131538611D02*
X175662949Y-131638993D01*
X129132603Y-84692784D02*
X129312179Y-84641490D01*
X142921519Y-146822806D02*
X142894717Y-146804637D01*
X136434966Y-63757546D02*
X136466517Y-63640827D01*
X178276612Y-131010478D02*
X178198884Y-131048891D01*
X157450359Y-143734584D02*
X157433595Y-144364107D01*
X116095629Y-131628823D02*
X116015525Y-131607074D01*
X176199904Y-87215064D02*
X176215872Y-87219954D01*
X189834531Y-107153693D02*
X189873812Y-107263484D01*
X182992690Y-133029301D02*
X182941856Y-133023944D01*
X127279215Y-74302116D02*
X127408065Y-74291973D01*
X182674349Y-132898162D02*
X182626154Y-132858083D01*
X193435318Y-125820279D02*
X193220212Y-125755297D01*
X170588099Y-64756533D02*
X170693670Y-64817355D01*
X182268375Y-132490579D02*
X182234483Y-132446696D01*
X117652162Y-92658820D02*
X117670137Y-92550675D01*
X133977171Y-73133771D02*
X133788674Y-72942400D01*
X120647147Y-134472208D02*
X120603160Y-134456891D01*
X167704770Y-57571546D02*
X167731923Y-57706989D01*
X167428491Y-60843069D02*
X167400643Y-60877295D01*
X134808504Y-76621920D02*
X134845081Y-76547219D01*
X119649216Y-133554772D02*
X119615896Y-133523142D01*
X112166912Y-102576866D02*
X112210630Y-102515317D01*
X135398007Y-67921707D02*
X135452496Y-67933465D01*
X163027695Y-135946342D02*
X162569544Y-136247537D01*
X103920905Y-125775479D02*
X103832905Y-125729038D01*
X113518316Y-69964765D02*
X113524930Y-69942661D01*
X110758083Y-69417690D02*
X110797797Y-69335485D01*
X142973052Y-146854850D02*
X142947700Y-146839597D01*
X135446910Y-74685839D02*
X135459593Y-74653194D01*
X176576066Y-84020738D02*
X176742743Y-84105304D01*
X135402204Y-74235697D02*
X135380407Y-74212878D01*
X166977924Y-62850854D02*
X167008063Y-62886478D01*
X167306207Y-60970352D02*
X167275473Y-60997654D01*
X133379631Y-68096290D02*
X133428215Y-68079146D01*
X135485331Y-74376205D02*
X135476958Y-74352039D01*
X116264846Y-96845910D02*
X116325287Y-96694938D01*
X114144268Y-67427767D02*
X114263313Y-67367293D01*
X135356241Y-74190057D02*
X135329666Y-74167172D01*
X187008730Y-104212365D02*
X187086625Y-104284973D01*
X131478857Y-80902744D02*
X131532797Y-80872722D01*
X187987988Y-131417435D02*
X187859365Y-131502650D01*
X172701145Y-70802271D02*
X172714167Y-70817926D01*
X150772028Y-52911129D02*
X151493516Y-52890485D01*
X130425361Y-83915702D02*
X130428786Y-83874930D01*
X177506306Y-131267859D02*
X177272063Y-131318853D01*
X132477170Y-80423907D02*
X132520963Y-80394905D01*
X182921826Y-82809757D02*
X182922372Y-82792260D01*
X172683678Y-70761867D02*
X172685689Y-70774135D01*
X171333815Y-63415932D02*
X171329180Y-63440436D01*
X108022350Y-125660439D02*
X107972051Y-125575508D01*
X178408954Y-89478687D02*
X178492663Y-89553835D01*
X113543343Y-68077279D02*
X113557438Y-68029016D01*
X158927201Y-53615220D02*
X159026360Y-53665939D01*
X146815916Y-53905467D02*
X147011215Y-53832483D01*
X180326789Y-80338010D02*
X180306698Y-80355861D01*
X134010141Y-68005032D02*
X134111573Y-67999764D01*
X130328340Y-84225310D02*
X130341598Y-84208255D01*
X102836221Y-124348557D02*
X102825997Y-124267746D01*
X184623349Y-100918584D02*
X184704657Y-101012594D01*
X170460186Y-64670634D02*
X170498765Y-64698666D01*
X167575866Y-56286705D02*
X167600483Y-56436042D01*
X159641609Y-53873563D02*
X159673863Y-53880665D01*
X156344000Y-54042400D02*
X156502487Y-54057623D01*
X181392106Y-130496076D02*
X181367761Y-130469958D01*
X128130915Y-134829026D02*
X128066154Y-134840054D01*
X137368195Y-138505851D02*
X137070710Y-138299875D01*
X134340784Y-73478945D02*
X134162296Y-73313791D01*
X130353729Y-84190205D02*
X130364789Y-84170980D01*
X172699640Y-70704329D02*
X172690893Y-70726074D01*
X177494211Y-84703659D02*
X177535066Y-84756757D01*
X131532797Y-80872722D02*
X131587671Y-80843338D01*
X117277307Y-94221103D02*
X117310641Y-94115870D01*
X192680505Y-115188749D02*
X192687066Y-116450108D01*
X173895623Y-132037080D02*
X173683298Y-132080351D01*
X184260188Y-79142012D02*
X184315885Y-79284535D01*
X104803224Y-125953607D02*
X104623886Y-125947604D01*
X195940423Y-125703324D02*
X195888350Y-125732953D01*
X179128809Y-90325528D02*
X179183593Y-90419285D01*
X134515062Y-67951772D02*
X134599844Y-67934892D01*
X142997368Y-146868409D02*
X142973052Y-146854850D01*
X175160107Y-86519533D02*
X175197737Y-86552455D01*
X157880757Y-141864034D02*
X157860351Y-141900336D01*
X136329295Y-64063274D02*
X136347329Y-64019472D01*
X180773283Y-93044365D02*
X180873317Y-93153962D01*
X172690893Y-70726074D02*
X172685512Y-70745331D01*
X117221608Y-91405403D02*
X116885660Y-91049428D01*
X180434981Y-80257879D02*
X180404169Y-80278918D01*
X108579226Y-109009449D02*
X108880368Y-108353519D01*
X103216000Y-125201617D02*
X103153796Y-125119643D01*
X117337213Y-94007583D02*
X117339083Y-93986761D01*
X184208402Y-82298874D02*
X184116478Y-82432789D01*
X136835043Y-67647907D02*
X136892468Y-67590699D01*
X173449144Y-71205294D02*
X173516329Y-71223273D01*
X110919502Y-70979466D02*
X110900636Y-70915107D01*
X135809312Y-137562703D02*
X135444353Y-137353843D01*
X159842771Y-53933461D02*
X159893027Y-53952021D01*
X132385791Y-71040052D02*
X132350208Y-70904037D01*
X142403882Y-144687959D02*
X142371659Y-143018297D01*
X106526976Y-125763058D02*
X106306323Y-125807538D01*
X167903852Y-58509046D02*
X167901971Y-58575737D01*
X186593624Y-103708705D02*
X186685997Y-103834579D01*
X195556549Y-125871004D02*
X195496944Y-125887841D01*
X113545095Y-69403884D02*
X113538637Y-69247023D01*
X136451186Y-67869896D02*
X136538749Y-67834540D01*
X184563173Y-132819583D02*
X184445865Y-132845603D01*
X191246201Y-109210133D02*
X191345073Y-109349279D01*
X182974317Y-82962863D02*
X182965655Y-82952657D01*
X157772341Y-142035645D02*
X157749495Y-142065619D01*
X137070710Y-138299875D02*
X136789007Y-138114820D01*
X132930476Y-77854481D02*
X132957972Y-77826675D01*
X172347115Y-132386016D02*
X171840757Y-132488733D01*
X113314514Y-101378356D02*
X113412528Y-101252263D01*
X137957492Y-138942988D02*
X137668207Y-138723354D01*
X166854186Y-62380000D02*
X166848518Y-62424919D01*
X194410569Y-125972375D02*
X194307861Y-125967809D01*
X107504927Y-125478133D02*
X107461169Y-125491100D01*
X136185436Y-64462780D02*
X136199319Y-64399225D01*
X132603436Y-68845819D02*
X132666157Y-68734710D01*
X112345047Y-102342892D02*
X112390062Y-102290592D01*
X126585122Y-69955556D02*
X126518568Y-72563657D01*
X116532807Y-96110508D02*
X116669414Y-95749849D01*
X175460029Y-73108645D02*
X175524016Y-73142163D01*
X134976841Y-67878811D02*
X135026648Y-67879169D01*
X181018584Y-130234003D02*
X181002700Y-130233281D01*
X144604389Y-54977294D02*
X145060200Y-54687766D01*
X184675312Y-132792490D02*
X184563173Y-132819583D01*
X167674571Y-63298959D02*
X167711409Y-63301910D01*
X167545511Y-56137020D02*
X167575866Y-56286705D01*
X132836208Y-68492955D02*
X132872620Y-68450687D01*
X117396123Y-93648209D02*
X117413598Y-93580635D01*
X157415657Y-54032330D02*
X157473697Y-54016495D01*
X175892156Y-75069613D02*
X175858569Y-75074714D01*
X136123975Y-65415583D02*
X136126175Y-65170133D01*
X142563903Y-146483076D02*
X142551515Y-146460851D01*
X126554669Y-74375584D02*
X126576181Y-74387641D01*
X132074632Y-80620405D02*
X132276432Y-80528560D01*
X172462155Y-66992263D02*
X172503761Y-67074344D01*
X182072773Y-132193507D02*
X182054836Y-132156052D01*
X135444353Y-137353843D02*
X135063535Y-137131097D01*
X173602989Y-71237663D02*
X173627267Y-71238679D01*
X187920659Y-104838331D02*
X188151039Y-104983638D01*
X189916471Y-107371080D02*
X189962913Y-107477115D01*
X183246004Y-83077653D02*
X183201253Y-83077643D01*
X167560959Y-60596654D02*
X167542752Y-60643139D01*
X181230616Y-79956233D02*
X181155702Y-79967063D01*
X168562694Y-63110703D02*
X168674717Y-63068511D01*
X134885261Y-76432640D02*
X134894654Y-76393865D01*
X178645025Y-89699936D02*
X178714702Y-89772214D01*
X175049393Y-86445958D02*
X175067930Y-86455787D01*
X157634910Y-142201418D02*
X157620157Y-142223303D01*
X112236369Y-68754671D02*
X112269391Y-68764040D01*
X142447412Y-56422549D02*
X142658740Y-56265551D01*
X182614521Y-77469159D02*
X182772584Y-77545480D01*
X145179040Y-146943138D02*
X143656112Y-146920789D01*
X136144938Y-64767396D02*
X136162277Y-64604280D01*
X171177387Y-63650377D02*
X171143786Y-63679504D01*
X182626154Y-132858083D02*
X182574111Y-132811540D01*
X181437700Y-130548880D02*
X181415462Y-130522446D01*
X130055551Y-84418243D02*
X130089007Y-84399541D01*
X126950450Y-85335209D02*
X127017613Y-85323104D01*
X142840077Y-146764793D02*
X142812654Y-146743434D01*
X119717920Y-133623664D02*
X119649216Y-133554772D01*
X138603098Y-60855107D02*
X138663118Y-60758316D01*
X166863641Y-62650757D02*
X166875243Y-62684057D01*
X176354397Y-87306852D02*
X176366809Y-87319813D01*
X160114505Y-54043289D02*
X160232074Y-54097080D01*
X179662147Y-77268016D02*
X179848668Y-77278887D01*
X128180382Y-78097138D02*
X128100965Y-78313534D01*
X110936443Y-71043713D02*
X110919502Y-70979466D01*
X190428143Y-108229006D02*
X190519509Y-108345417D01*
X158250879Y-53466569D02*
X158309400Y-53423316D01*
X181342558Y-130444285D02*
X181316628Y-130419244D01*
X176370345Y-83918811D02*
X176468533Y-83968732D01*
X155853994Y-53958879D02*
X156020068Y-53993118D01*
X110683239Y-69693228D02*
X110700805Y-69596538D01*
X180027943Y-130440348D02*
X179807335Y-130492499D01*
X175197737Y-86552455D02*
X175236441Y-86590009D01*
X181323030Y-93765909D02*
X181363952Y-93850559D01*
X186382388Y-103405821D02*
X186593624Y-103708705D01*
X108196142Y-125990229D02*
X108135995Y-125870593D01*
X176568856Y-82980082D02*
X176477001Y-82994456D01*
X196143727Y-125564135D02*
X196042841Y-125637961D01*
X187440457Y-104545581D02*
X187667649Y-104684839D01*
X167378282Y-55569433D02*
X167425803Y-55703195D01*
X177699508Y-85070225D02*
X177712741Y-85120525D01*
X167449458Y-133288139D02*
X167314738Y-133344232D01*
X194797239Y-125974215D02*
X194628678Y-125976099D01*
X141309318Y-57387451D02*
X141481476Y-57225726D01*
X116669414Y-95749849D02*
X116824003Y-95360799D01*
X117965565Y-132848459D02*
X117878265Y-132845033D01*
X181395402Y-79939733D02*
X181310320Y-79947154D01*
X175067930Y-86455787D02*
X175086362Y-86466546D01*
X136979227Y-67406791D02*
X136975934Y-67391309D01*
X133285548Y-68136181D02*
X133332080Y-68115298D01*
X192882097Y-118094216D02*
X192922022Y-118123602D01*
X172796636Y-70888637D02*
X172853145Y-70927355D01*
X110700805Y-69596538D02*
X110725752Y-69504700D01*
X115773676Y-66979816D02*
X116722668Y-66868072D01*
X123449221Y-66775976D02*
X124155299Y-66822451D01*
X175036792Y-72716211D02*
X175077829Y-72774510D01*
X130175014Y-84347288D02*
X130222005Y-84316708D01*
X166907095Y-62749771D02*
X166927535Y-62782816D01*
X177296727Y-85639279D02*
X177271245Y-85633639D01*
X166983170Y-61593749D02*
X166922023Y-61977297D01*
X129628119Y-84569513D02*
X129648442Y-84568495D01*
X130089007Y-84399541D02*
X130121505Y-84380304D01*
X175868813Y-83333946D02*
X175861809Y-83354225D01*
X159404297Y-53824432D02*
X159480476Y-53847782D01*
X113390975Y-69917882D02*
X113406758Y-69943913D01*
X177129678Y-88300010D02*
X177251301Y-88423572D01*
X156502487Y-54057623D02*
X156659072Y-54066691D01*
X116768116Y-132076607D02*
X116691024Y-132001109D01*
X117655171Y-91990492D02*
X117633701Y-91931272D01*
X175690024Y-87084145D02*
X175726050Y-87109397D01*
X179508203Y-91063832D02*
X179576239Y-91219377D01*
X143020442Y-146880115D02*
X142997368Y-146868409D01*
X166924693Y-54929006D02*
X166961832Y-54944408D01*
X183597100Y-82943425D02*
X183544221Y-82975770D01*
X142476760Y-146212733D02*
X142470012Y-146169300D01*
X159026360Y-53665939D02*
X159126375Y-53713255D01*
X102825997Y-124267746D02*
X102817508Y-124180591D01*
X178109651Y-131091581D02*
X178057702Y-131112648D01*
X117340986Y-93947972D02*
X117346440Y-93899549D01*
X113224034Y-69579971D02*
X113265964Y-69652956D01*
X135496388Y-74505064D02*
X135498157Y-74478008D01*
X110992777Y-71366998D02*
X110985248Y-71301714D01*
X142894717Y-146804637D02*
X142867501Y-146785247D01*
X134215887Y-67991434D02*
X134319977Y-67980412D01*
X110999774Y-71773453D02*
X111003084Y-71703423D01*
X111733487Y-68743115D02*
X111820558Y-68731228D01*
X131754120Y-80761316D02*
X131808957Y-80736789D01*
X182093656Y-132232863D02*
X182072773Y-132193507D01*
X132435836Y-69236651D02*
X132486208Y-69097589D01*
X171151397Y-63110363D02*
X171182960Y-63138319D01*
X117548528Y-132781336D02*
X117524513Y-132769130D01*
X135026648Y-67879169D02*
X135077567Y-67880962D01*
X142621520Y-146562925D02*
X142605847Y-146543837D01*
X189818260Y-129646109D02*
X189734536Y-129765628D01*
X177225366Y-82941636D02*
X177164157Y-82946918D01*
X182234483Y-132446696D02*
X182202203Y-132402748D01*
X183253456Y-77883293D02*
X183354692Y-77973233D01*
X103282142Y-125280560D02*
X103216000Y-125201617D01*
X172759265Y-68223201D02*
X172779280Y-68346478D01*
X110896676Y-79486979D02*
X110915878Y-79142833D01*
X176121327Y-74977681D02*
X176040903Y-75018896D01*
X176183429Y-87210780D02*
X176199904Y-87215064D01*
X158309400Y-53423316D02*
X158356266Y-53390626D01*
X138663118Y-60758316D02*
X138723052Y-60652538D01*
X136862448Y-62338278D02*
X136927027Y-62259823D01*
X110706084Y-70250273D02*
X110686763Y-70128973D01*
X157650615Y-142180383D02*
X157634910Y-142201418D01*
X173441148Y-132132859D02*
X173198998Y-132187974D01*
X102862308Y-124494184D02*
X102848289Y-124423783D01*
X167729411Y-59717873D02*
X167641885Y-60263393D01*
X176524815Y-74666310D02*
X176448863Y-74738186D01*
X136904176Y-67257009D02*
X136886426Y-67232861D01*
X127405777Y-79890008D02*
X127293161Y-80125986D01*
X167970851Y-133125668D02*
X167835891Y-133159256D01*
X157935733Y-141753604D02*
X157918599Y-141790392D01*
X183079299Y-83045009D02*
X183043382Y-83022682D01*
X170498765Y-64698666D02*
X170541403Y-64727272D01*
X186853155Y-104044778D02*
X186931500Y-104132939D01*
X182990289Y-80252395D02*
X182786057Y-79924163D01*
X177295227Y-84493124D02*
X177401676Y-84597787D01*
X182054836Y-132156052D02*
X182040066Y-132120827D01*
X181540330Y-130698191D02*
X181527544Y-130675362D01*
X181458689Y-130575188D02*
X181437700Y-130548880D01*
X184518223Y-81571141D02*
X184485505Y-81703681D01*
X135459593Y-74653194D02*
X135470552Y-74621640D01*
X182454255Y-132697557D02*
X182415631Y-132658912D01*
X133066250Y-72133698D02*
X132909856Y-71938291D01*
X113220015Y-101494747D02*
X113314514Y-101378356D01*
X174149891Y-85535144D02*
X174075440Y-85575728D01*
X143096236Y-55958104D02*
X143321580Y-55808383D01*
X115038329Y-89346910D02*
X114852240Y-89153523D01*
X178780725Y-89844860D02*
X178843606Y-89918535D01*
X130525029Y-82515555D02*
X130555316Y-82360766D01*
X135964016Y-67971347D02*
X136065925Y-67961602D01*
X103994404Y-120409047D02*
X104141407Y-120216448D01*
X103662554Y-125621789D02*
X103580740Y-125561439D01*
X186950867Y-131928346D02*
X186754358Y-131992562D01*
X127475791Y-85211368D02*
X127702654Y-85146170D01*
X179580481Y-81197605D02*
X179173608Y-81604680D01*
X113514213Y-101116272D02*
X113619722Y-100970188D01*
X173325808Y-69960972D02*
X173310090Y-69990219D01*
X178623359Y-77045822D02*
X178724445Y-77089326D01*
X102801365Y-123873456D02*
X102798730Y-123753321D01*
X182014235Y-95980439D02*
X182055023Y-96052311D01*
X183257817Y-98164156D02*
X183357979Y-98389617D01*
X117690677Y-92358521D02*
X117693372Y-92273294D01*
X127408065Y-74291973D02*
X127587477Y-74280900D01*
X137810192Y-61591380D02*
X137938858Y-61501951D01*
X136162277Y-64604280D02*
X136173104Y-64531010D01*
X130451445Y-83173963D02*
X130462371Y-83004625D01*
X126822378Y-74348421D02*
X126921425Y-74336700D01*
X186015704Y-132269526D02*
X185793018Y-132363540D01*
X110975864Y-71236850D02*
X110964611Y-71172299D01*
X136325959Y-137845048D02*
X136236401Y-137798706D01*
X157523520Y-142513982D02*
X157516056Y-142562858D01*
X173724781Y-86005790D02*
X173740345Y-86023511D01*
X132763189Y-78076981D02*
X132807723Y-78007523D01*
X116325287Y-96694938D02*
X116381103Y-96545058D01*
X172764660Y-70597197D02*
X172744262Y-70626532D01*
X117821073Y-132843981D02*
X117767416Y-132840494D01*
X165027810Y-134580891D02*
X164876713Y-134685730D01*
X171077700Y-65040634D02*
X171128496Y-65076858D01*
X167637381Y-56995333D02*
X167646733Y-57135758D01*
X127509513Y-134926730D02*
X127429172Y-134930077D01*
X167041988Y-61362883D02*
X167026858Y-61407018D01*
X171329062Y-63342908D02*
X171333737Y-63367245D01*
X130431754Y-83831022D02*
X130436545Y-83733088D01*
X148041613Y-53425686D02*
X148281678Y-53335139D01*
X157528696Y-53996800D02*
X157581965Y-53972833D01*
X167001571Y-61498492D02*
X166991491Y-61545684D01*
X167952013Y-63287343D02*
X168041276Y-63270591D01*
X173671687Y-71247881D02*
X173698791Y-71259065D01*
X130462371Y-83004625D02*
X130478389Y-82838061D01*
X176699880Y-73888513D02*
X176743564Y-73949573D01*
X192747530Y-117808984D02*
X192774447Y-117949785D01*
X134956091Y-75993042D02*
X134979359Y-75908277D01*
X196344597Y-125389557D02*
X196244004Y-125481462D01*
X177534448Y-85611517D02*
X177521720Y-85619805D01*
X164206867Y-135188561D02*
X164021315Y-135314701D01*
X192624259Y-112622688D02*
X192640966Y-112833136D01*
X139350922Y-59543933D02*
X139395042Y-59489280D01*
X104444917Y-119858649D02*
X104603785Y-119691404D01*
X164665528Y-134854954D02*
X164534408Y-134954938D01*
X179183593Y-90419285D02*
X179238819Y-90518706D01*
X195190338Y-119568940D02*
X195396090Y-119760364D01*
X120158627Y-134158408D02*
X120124986Y-134121889D01*
X172869031Y-70469120D02*
X172839884Y-70502278D01*
X184412641Y-79607995D02*
X184453234Y-79784548D01*
X160718957Y-54327447D02*
X160840171Y-54378903D01*
X111984235Y-83681777D02*
X111893561Y-83155977D01*
X114210089Y-100081514D02*
X114311448Y-99923860D01*
X108880368Y-108353519D02*
X109244433Y-107618746D01*
X182525665Y-96794132D02*
X182661717Y-97021046D01*
X167706417Y-133196779D02*
X167578812Y-133239364D01*
X110686763Y-70128973D02*
X110674817Y-70012642D01*
X107892496Y-125459906D02*
X107878158Y-125444348D01*
X175257154Y-75472976D02*
X175262498Y-75487198D01*
X117432330Y-93515035D02*
X117527371Y-93186073D01*
X138917428Y-60264941D02*
X138958204Y-60181342D01*
X126685690Y-85218371D02*
X126700514Y-85259148D01*
X167867795Y-58891215D02*
X167835168Y-59090932D01*
X166844976Y-62545307D02*
X166848603Y-62581697D01*
X134254954Y-77147999D02*
X134347958Y-77090898D01*
X182661717Y-97021046D02*
X182792582Y-97249457D01*
X132509190Y-78814434D02*
X132514707Y-78749679D01*
X173698308Y-85955447D02*
X173703586Y-85971683D01*
X102940080Y-124742740D02*
X102917166Y-124684038D01*
X126810935Y-85347764D02*
X126846388Y-85347721D01*
X146018943Y-54144185D02*
X146122388Y-54113584D01*
X125766423Y-67064386D02*
X125875810Y-67111375D01*
X174559499Y-85369293D02*
X174475254Y-85395856D01*
X145060200Y-54687766D02*
X145413585Y-54469359D01*
X113955782Y-131117572D02*
X113400315Y-130969018D01*
X112522041Y-102153842D02*
X112564134Y-102116077D01*
X178429431Y-76942566D02*
X178525568Y-76996994D01*
X128528998Y-77121913D02*
X128454303Y-77316209D01*
X126967841Y-134920642D02*
X126751199Y-134904692D01*
X139886908Y-59014717D02*
X139999931Y-58892462D01*
X136981046Y-67436030D02*
X136980916Y-67421663D01*
X146492187Y-54016548D02*
X146644049Y-53966430D01*
X120388474Y-134347954D02*
X120347448Y-134320351D01*
X173207449Y-69391195D02*
X173232674Y-69420767D01*
X172363874Y-66814808D02*
X172415621Y-66905984D01*
X182941856Y-133023944D02*
X182917835Y-133019852D01*
X110202200Y-129231179D02*
X110090896Y-129099323D01*
X177844071Y-82797485D02*
X177810360Y-82813427D01*
X175543935Y-75623527D02*
X175644659Y-75659420D01*
X142658740Y-56265551D02*
X142875152Y-56110614D01*
X116381103Y-96545058D02*
X116432113Y-96396604D01*
X136671565Y-62691064D02*
X136710463Y-62595023D01*
X128235853Y-74379458D02*
X128286284Y-74405340D01*
X172977185Y-69042971D02*
X173013691Y-69118617D01*
X132520963Y-80394905D02*
X132554892Y-80367617D01*
X173277098Y-69479095D02*
X173296289Y-69507906D01*
X115815352Y-97755943D02*
X115899693Y-97605443D01*
X189735030Y-106844872D02*
X189798219Y-107041070D01*
X181438695Y-94033951D02*
X181474593Y-94135928D01*
X181975959Y-95910179D02*
X182014235Y-95980439D01*
X191830513Y-110135098D02*
X191919011Y-110298523D01*
X175177084Y-85262640D02*
X175041379Y-85276277D01*
X112375022Y-68806155D02*
X112449755Y-68844848D01*
X128724625Y-74717126D02*
X128756989Y-74746573D01*
X169050431Y-62905429D02*
X169145209Y-62863866D01*
X112840386Y-69134017D02*
X112915413Y-69205073D01*
X157667311Y-142159861D02*
X157650615Y-142180383D01*
X111794719Y-103211299D02*
X111890941Y-103041617D01*
X133580336Y-68038788D02*
X133633219Y-68028988D01*
X166842019Y-54907466D02*
X166885310Y-54916645D01*
X167165209Y-61125089D02*
X167141000Y-61161139D01*
X127623027Y-79448250D02*
X127531817Y-79635925D01*
X127660107Y-134914787D02*
X127586415Y-134921634D01*
X183491932Y-83004016D02*
X183440424Y-83027987D01*
X170297667Y-64457009D02*
X170303777Y-64483454D01*
X132356117Y-69530755D02*
X132392462Y-69381399D01*
X136214803Y-64339982D02*
X136231936Y-64284685D01*
X112718130Y-102000301D02*
X112794803Y-101938015D01*
X126646040Y-84533373D02*
X126647118Y-84816401D01*
X161746548Y-136821695D02*
X161544142Y-136976472D01*
X136919495Y-67559886D02*
X136931368Y-67545348D01*
X136886426Y-67232861D02*
X136866667Y-67207157D01*
X180986378Y-130233463D02*
X180969544Y-130234536D01*
X188720648Y-105386208D02*
X188874757Y-105514534D01*
X191957763Y-125567323D02*
X191875554Y-125710183D01*
X132621389Y-78349848D02*
X132647462Y-78292867D01*
X181758779Y-95225888D02*
X181771719Y-95319609D01*
X183053387Y-77723054D02*
X183152726Y-77799596D01*
X171279912Y-63243831D02*
X171296729Y-63269013D01*
X183451046Y-98612402D02*
X183536701Y-98831815D01*
X196550423Y-125176515D02*
X196446429Y-125288036D01*
X164388735Y-55220216D02*
X164774145Y-55182749D01*
X132507730Y-79117545D02*
X132505189Y-79033904D01*
X167892980Y-58323626D02*
X167899389Y-58383901D01*
X133195472Y-68183621D02*
X133240017Y-68158952D01*
X181079278Y-130246246D02*
X181064379Y-130241751D01*
X143321580Y-55808383D02*
X144604389Y-54977294D01*
X113435768Y-69983002D02*
X113449003Y-69996038D01*
X168236604Y-63220041D02*
X168340299Y-63187758D01*
X132551014Y-71424549D02*
X132479060Y-71289176D01*
X167630188Y-56726748D02*
X167634118Y-56864655D01*
X189372858Y-130192110D02*
X189148110Y-130418840D01*
X173198998Y-132187974D02*
X172986672Y-132239069D01*
X171225621Y-65151484D02*
X171271244Y-65189317D01*
X182944436Y-82920314D02*
X182938934Y-82908737D01*
X104291185Y-120033323D02*
X104444917Y-119858649D01*
X179531231Y-130569612D02*
X179224790Y-130663668D01*
X131587671Y-80843338D02*
X131643100Y-80814821D01*
X127719610Y-79237997D02*
X127623027Y-79448250D01*
X119523204Y-133442979D02*
X119446871Y-133386923D01*
X175861809Y-83354225D02*
X175856441Y-83374346D01*
X180260316Y-80413979D02*
X180258764Y-80419436D01*
X161678676Y-54670460D02*
X161838654Y-54731901D01*
X182917943Y-97478669D02*
X183037481Y-97707987D01*
X129048944Y-75403383D02*
X129051120Y-75505134D01*
X142551515Y-146460851D02*
X142539872Y-146437238D01*
X110936492Y-80218307D02*
X110913589Y-80100387D01*
X116476850Y-96265762D02*
X116532807Y-96110508D01*
X157581965Y-53972833D02*
X157634815Y-53944180D01*
X176819169Y-74123968D02*
X176823114Y-74151257D01*
X175591502Y-75131052D02*
X175534334Y-75158291D01*
X172647877Y-67446211D02*
X172665916Y-67517764D01*
X113557438Y-68029016D02*
X113573994Y-67984185D01*
X113593087Y-67941956D02*
X113614791Y-67901501D01*
X184543112Y-81423639D02*
X184518223Y-81571141D01*
X175382611Y-75259284D02*
X175341926Y-75296594D01*
X173373172Y-69817917D02*
X173367848Y-69846197D01*
X177151466Y-85600286D02*
X177079429Y-85576994D01*
X181922105Y-79924163D02*
X181688811Y-79926464D01*
X139217588Y-59729518D02*
X139262065Y-59664238D01*
X126747326Y-82071137D02*
X126723492Y-82338096D01*
X112132622Y-84412713D02*
X112070600Y-84165918D01*
X180306698Y-80355861D02*
X180289800Y-80372535D01*
X177164157Y-82946918D02*
X177103516Y-82950791D01*
X110674817Y-70012642D02*
X110670247Y-69901256D01*
X167880272Y-58803217D02*
X167867795Y-58891215D01*
X116489161Y-131825077D02*
X116427154Y-131780580D01*
X140513114Y-141088326D02*
X140238004Y-140857591D01*
X182946326Y-82637025D02*
X182959471Y-82580157D01*
X127945741Y-85071439D02*
X128199261Y-84988630D01*
X111530147Y-81893552D02*
X111298644Y-81287006D01*
X132579973Y-80341305D02*
X132597226Y-80315233D01*
X163537449Y-55266090D02*
X163640953Y-55264964D01*
X176403334Y-87363950D02*
X176427398Y-87397970D01*
X188251738Y-131223639D02*
X188118533Y-131324600D01*
X116824003Y-95360799D02*
X116978639Y-94989526D01*
X192849246Y-118067945D02*
X192882097Y-118094216D01*
X172711648Y-67817845D02*
X172725447Y-67958878D01*
X127998589Y-134853682D02*
X127927369Y-134869852D01*
X132719784Y-78152245D02*
X132763189Y-78076981D01*
X176742743Y-84105304D02*
X176898620Y-84195762D01*
X113677651Y-87489054D02*
X113427962Y-87074487D01*
X136264294Y-67925994D02*
X136359491Y-67900431D01*
X178188119Y-82528819D02*
X178041557Y-82653276D01*
X180873317Y-93153962D02*
X180962327Y-93254781D01*
X142241581Y-56581245D02*
X142447412Y-56422549D01*
X167425803Y-55703195D02*
X167469901Y-55843534D01*
X182190451Y-96273427D02*
X182239274Y-96347574D01*
X173350986Y-69903198D02*
X173339439Y-69931975D01*
X182922017Y-82826282D02*
X182921826Y-82809757D01*
X174005339Y-85617619D02*
X173940386Y-85660316D01*
X154780281Y-53613308D02*
X154970001Y-53688042D01*
X182098124Y-96125379D02*
X182143333Y-96199223D01*
X142539872Y-146437238D02*
X142528946Y-146411993D01*
X132504523Y-78955921D02*
X132505826Y-78882973D01*
X117667547Y-132824225D02*
X117643555Y-132817859D01*
X111298644Y-81287006D02*
X111128127Y-80830665D01*
X176275283Y-87245994D02*
X176289175Y-87254232D01*
X177572208Y-84809806D02*
X177605560Y-84862689D01*
X110899386Y-69185395D02*
X110961263Y-69117464D01*
X177320631Y-85643859D02*
X177296727Y-85639279D01*
X149300311Y-53040206D02*
X149502120Y-53006293D01*
X180210068Y-92435332D02*
X180284525Y-92520006D01*
X114511249Y-131267877D02*
X113955782Y-131117572D01*
X112915413Y-69205073D02*
X112987242Y-69278564D01*
X181878233Y-95713249D02*
X181907757Y-95776166D01*
X192663929Y-113325357D02*
X192671047Y-113616421D01*
X117474090Y-91692524D02*
X117360502Y-91559781D01*
X167838742Y-58076590D02*
X167856657Y-58141061D01*
X117233202Y-94347970D02*
X117277307Y-94221103D01*
X192423656Y-111566621D02*
X192471195Y-111741261D01*
X182143371Y-132315968D02*
X182117263Y-132273792D01*
X135025798Y-73974043D02*
X134923085Y-73920614D01*
X118268661Y-132896358D02*
X118161963Y-132874557D01*
X178375061Y-130967277D02*
X178276612Y-131010478D01*
X135182140Y-67888846D02*
X135235492Y-67894929D01*
X157803969Y-53825989D02*
X157938687Y-53716214D01*
X140989329Y-57709077D02*
X141145131Y-57548689D01*
X128508256Y-134820582D02*
X128442446Y-134814835D01*
X175524016Y-73142163D02*
X175593712Y-73175688D01*
X130222005Y-84316708D02*
X130243196Y-84301884D01*
X133798630Y-68010387D02*
X133914698Y-68006871D01*
X180953816Y-80011021D02*
X180892176Y-80029812D01*
X126797671Y-85346153D02*
X126810935Y-85347764D01*
X136466517Y-63640827D02*
X136494574Y-63522474D01*
X158024606Y-53645207D02*
X158106559Y-53578964D01*
X175966641Y-83652583D02*
X175988717Y-83673146D01*
X136557559Y-63154191D02*
X136581114Y-63024565D01*
X167053672Y-55001951D02*
X167081584Y-55028691D01*
X176542866Y-87597035D02*
X176595967Y-87677646D01*
X114176854Y-88261301D02*
X113928903Y-87887412D01*
X159543883Y-53862551D02*
X159569944Y-53866395D01*
X131279967Y-81024582D02*
X131326405Y-80994321D01*
X167856657Y-58141061D02*
X167871647Y-58203117D01*
X136527931Y-63349454D02*
X136536225Y-63294713D01*
X132612312Y-80260860D02*
X132612181Y-80231086D01*
X159795337Y-53916899D02*
X159842771Y-53933461D01*
X136231936Y-64284685D02*
X136250767Y-64232971D01*
X183851061Y-99885644D02*
X183863823Y-99921342D01*
X149104420Y-53081241D02*
X149300311Y-53040206D01*
X136794878Y-67119662D02*
X136736142Y-67051630D01*
X136365360Y-63972231D02*
X136400916Y-63869168D01*
X117339083Y-93986761D02*
X117339566Y-93968691D01*
X142605847Y-146543837D02*
X142591039Y-146524327D01*
X181676506Y-94835338D02*
X181710239Y-94979571D01*
X185535175Y-132475362D02*
X185232201Y-132608942D01*
X159751116Y-53902480D02*
X159795337Y-53916899D01*
X133240017Y-68158952D02*
X133285548Y-68136181D01*
X166861939Y-62332161D02*
X166854186Y-62380000D01*
X182975333Y-82516757D02*
X182993867Y-82446296D01*
X167631517Y-60325935D02*
X167619969Y-60385536D01*
X196244004Y-125481462D02*
X196143727Y-125564135D01*
X161148537Y-54494257D02*
X161220994Y-54514781D01*
X193731969Y-125893692D02*
X193635527Y-125872242D01*
X115141613Y-98755731D02*
X115245512Y-98621000D01*
X113117598Y-69429470D02*
X113174270Y-69505194D01*
X112952737Y-86229778D02*
X112736932Y-85816160D01*
X119361410Y-133331324D02*
X119268021Y-133276616D01*
X175257929Y-75425124D02*
X175254993Y-75441834D01*
X183703868Y-82867132D02*
X183597100Y-82943425D01*
X193079291Y-118227460D02*
X193142562Y-118266313D01*
X105413967Y-125929140D02*
X105200720Y-125944104D01*
X115927653Y-131586344D02*
X115830656Y-131565843D01*
X171177921Y-65113903D02*
X171225621Y-65151484D01*
X173255891Y-69450058D02*
X173277098Y-69479095D01*
X104603785Y-119691404D02*
X104768970Y-119530565D01*
X112126689Y-130480297D02*
X111902477Y-130371399D01*
X132428732Y-71168792D02*
X132385791Y-71040052D01*
X104623886Y-125947604D02*
X104460763Y-125934069D01*
X130383920Y-84128295D02*
X130392103Y-84104478D01*
X167026858Y-61407018D02*
X167013373Y-61452246D01*
X113767442Y-67703760D02*
X113805801Y-67666299D01*
X119552627Y-133466957D02*
X119523204Y-133442979D01*
X176874509Y-82955653D02*
X176767826Y-82960607D01*
X141848060Y-56902274D02*
X142041660Y-56741274D01*
X164019997Y-55247363D02*
X164199427Y-55235389D01*
X176080266Y-73401759D02*
X176179928Y-73458907D01*
X133914698Y-68006871D02*
X134010141Y-68005032D01*
X196726571Y-121752931D02*
X196754120Y-121831515D01*
X175858569Y-75074714D02*
X175826791Y-75076452D01*
X177936413Y-131154918D02*
X177865983Y-131176398D01*
X127869625Y-74281975D02*
X127928330Y-74287819D01*
X172601871Y-67302379D02*
X172626624Y-67374649D01*
X176102664Y-83109750D02*
X176046295Y-83140979D01*
X176898620Y-84195762D02*
X177043076Y-84291175D01*
X117310641Y-94115870D02*
X117331726Y-94036385D01*
X108994162Y-127478701D02*
X108719496Y-127005902D01*
X173361869Y-69649553D02*
X173368879Y-69677596D01*
X174439651Y-71903790D02*
X174534394Y-72009168D01*
X174673400Y-86384541D02*
X174711947Y-86386961D01*
X183037481Y-97707987D02*
X183150878Y-97936714D01*
X113488728Y-70007306D02*
X113493572Y-70004534D01*
X175964020Y-75049984D02*
X175927368Y-75061314D01*
X146122388Y-54113584D02*
X146234782Y-54088950D01*
X114837683Y-67159972D02*
X115005630Y-67116866D01*
X180915202Y-130242936D02*
X180895555Y-130247413D01*
X128815879Y-74803788D02*
X128841881Y-74831108D01*
X112794803Y-101938015D02*
X112874058Y-101867201D01*
X179684612Y-91494086D02*
X179721662Y-91604921D01*
X196522013Y-121278834D02*
X196631515Y-121514408D01*
X167058727Y-61319912D02*
X167041988Y-61362883D01*
X136536225Y-63294713D02*
X136557559Y-63154191D01*
X182792582Y-97249457D02*
X182917943Y-97478669D01*
X124718492Y-66869467D02*
X124953246Y-66894759D01*
X180969544Y-130234536D02*
X180952121Y-130236482D01*
X107701951Y-125433058D02*
X107666371Y-125439263D01*
X124155299Y-66822451D02*
X124718492Y-66869467D01*
X171310539Y-63293869D02*
X171321324Y-63318475D01*
X114424757Y-99753025D02*
X114546197Y-99574447D01*
X136710463Y-62595023D02*
X136754813Y-62504878D01*
X181922928Y-131738141D02*
X181886857Y-131640653D01*
X141789803Y-142277671D02*
X141708024Y-142191811D01*
X172880003Y-68780204D02*
X172910339Y-68873758D01*
X136199319Y-64399225D02*
X136214803Y-64339982D01*
X177559588Y-85592191D02*
X177547037Y-85602309D01*
X113054946Y-69353645D02*
X113117598Y-69429470D01*
X184883551Y-132735193D02*
X184782148Y-132764350D01*
X127032706Y-74324837D02*
X127153032Y-74313190D01*
X183029808Y-83012549D02*
X183017067Y-83002570D01*
X190839919Y-108722120D02*
X190963517Y-108858961D01*
X157531530Y-142469319D02*
X157523520Y-142513982D01*
X110302606Y-129339181D02*
X110202200Y-129231179D01*
X138156717Y-61338612D02*
X138248925Y-61261435D01*
X133687219Y-68020996D02*
X133798630Y-68010387D01*
X181496398Y-130626667D02*
X181478299Y-130601180D01*
X132577830Y-78460790D02*
X132598209Y-78405614D01*
X183927551Y-132938388D02*
X183640788Y-132977611D01*
X181829351Y-95597680D02*
X181852030Y-95653614D01*
X113472954Y-70009038D02*
X113478420Y-70009557D01*
X137383363Y-61876000D02*
X137505841Y-61793926D01*
X112478823Y-102195737D02*
X112522041Y-102153842D01*
X182862430Y-77595083D02*
X182956327Y-77654578D01*
X178333306Y-76882259D02*
X178429431Y-76942566D01*
X133332080Y-68115298D02*
X133379631Y-68096290D01*
X196892354Y-122536866D02*
X196900904Y-122648589D01*
X166737061Y-54899216D02*
X166793157Y-54901610D01*
X172714167Y-70817926D02*
X172730438Y-70834497D01*
X119921652Y-133854625D02*
X119856235Y-133775899D01*
X126146000Y-67289862D02*
X126225725Y-67363975D01*
X174774208Y-85318456D02*
X174643311Y-85347032D01*
X172725447Y-67958878D02*
X172741320Y-68093999D01*
X114852240Y-89153523D02*
X114643388Y-88902618D01*
X177722316Y-85311874D02*
X177713481Y-85356663D01*
X132731841Y-68631880D02*
X132800619Y-68537236D01*
X136866667Y-67207157D02*
X136844852Y-67179793D01*
X172726506Y-70654323D02*
X172711571Y-70680334D01*
X175727398Y-85257364D02*
X175589264Y-85251327D01*
X112303584Y-68775814D02*
X112375022Y-68806155D01*
X112390062Y-102290592D02*
X112434742Y-102241430D01*
X196042841Y-125637961D02*
X195991881Y-125671676D01*
X182950720Y-82931449D02*
X182944436Y-82920314D01*
X126663213Y-83687509D02*
X126651724Y-84161333D01*
X109244433Y-107618746D02*
X109656747Y-106833856D01*
X111465250Y-130141356D02*
X111257000Y-130022717D01*
X168340299Y-63187758D02*
X168450109Y-63150882D01*
X176985703Y-82953985D02*
X176874509Y-82955653D01*
X183337022Y-133011758D02*
X183252612Y-133019924D01*
X178913175Y-130766645D02*
X178621545Y-130870522D01*
X110702275Y-129667367D02*
X110548649Y-129553283D01*
X181474593Y-94135928D02*
X181510894Y-94246915D01*
X167646733Y-57135758D02*
X167661519Y-57281534D01*
X103351956Y-125356244D02*
X103282142Y-125280560D01*
X135233949Y-75177589D02*
X135324248Y-74959626D01*
X181402161Y-93939367D02*
X181438695Y-94033951D01*
X108158712Y-110329099D02*
X108224413Y-109969892D01*
X126651724Y-84161333D02*
X126646040Y-84533373D01*
X176001926Y-75035789D02*
X175964020Y-75049984D01*
X161923242Y-136693334D02*
X161746548Y-136821695D01*
X134347958Y-77090898D02*
X134434492Y-77030958D01*
X169098405Y-132943658D02*
X168637906Y-133008126D01*
X173341729Y-69593265D02*
X173352817Y-69621452D01*
X133477850Y-68063856D02*
X133528551Y-68050407D01*
X140704529Y-58025847D02*
X140842325Y-57868251D01*
X173959819Y-71440385D02*
X174050874Y-71518932D01*
X104101211Y-125852848D02*
X104010430Y-125816826D01*
X195835547Y-125760610D02*
X195781900Y-125786343D01*
X117179804Y-94492360D02*
X117233202Y-94347970D01*
X176537665Y-75982726D02*
X176861962Y-76123453D01*
X137171555Y-62031838D02*
X137272150Y-61954971D01*
X115196788Y-89474515D02*
X115121316Y-89419452D01*
X183640788Y-132977611D02*
X183337022Y-133011758D01*
X158290049Y-140840338D02*
X158234108Y-140962157D01*
X176427398Y-87397970D02*
X176451520Y-87435866D01*
X117524513Y-132769130D02*
X117500197Y-132755569D01*
X184538899Y-100823909D02*
X184623349Y-100918584D01*
X177343059Y-85647390D02*
X177320631Y-85643859D01*
X158654685Y-53474306D02*
X158739446Y-53517185D01*
X163442742Y-135685441D02*
X163244085Y-135808525D01*
X180502903Y-80214703D02*
X180467961Y-80236424D01*
X111893561Y-83155977D02*
X111869226Y-83029966D01*
X184131383Y-100358394D02*
X184173282Y-100412597D01*
X179194556Y-77215632D02*
X179336731Y-77236665D01*
X182938934Y-82908737D02*
X182934208Y-82896651D01*
X168637906Y-133008126D02*
X168271701Y-133065790D01*
X177924995Y-82744678D02*
X177844071Y-82797485D01*
X171279032Y-63541297D02*
X171258497Y-63567606D01*
X133067583Y-68269133D02*
X133109271Y-68238700D01*
X170425666Y-64643090D02*
X170460186Y-64670634D01*
X172626624Y-67374649D02*
X172647877Y-67446211D01*
X129565798Y-84578136D02*
X129628119Y-84569513D01*
X132947976Y-68372142D02*
X132986952Y-68335842D01*
X166848518Y-62424919D02*
X166845029Y-62467233D01*
X167835168Y-59090932D02*
X167729411Y-59717873D01*
X114035120Y-67491667D02*
X114144268Y-67427767D01*
X164534408Y-134954938D02*
X164379709Y-135067390D01*
X173171707Y-70172494D02*
X173141257Y-70204267D01*
X195102969Y-125956211D02*
X194955028Y-125967714D01*
X180109573Y-130426141D02*
X180027943Y-130440348D01*
X175755263Y-75697562D02*
X175872886Y-75736914D01*
X194974970Y-119385604D02*
X195190338Y-119568940D01*
X126776319Y-81824625D02*
X126747326Y-82071137D01*
X102805300Y-123984205D02*
X102801365Y-123873456D01*
X133600069Y-72743193D02*
X133414621Y-72539663D01*
X149714764Y-52978576D02*
X149943159Y-52956127D01*
X132909856Y-71938291D02*
X132769676Y-71752621D01*
X135071994Y-75615233D02*
X135148805Y-75399231D01*
X181848237Y-131541983D02*
X181808105Y-131445024D01*
X180952121Y-130236482D02*
X180934032Y-130239288D01*
X177788303Y-131198294D02*
X177702826Y-131220744D01*
X157978185Y-141646678D02*
X157965677Y-141681471D01*
X177436649Y-85649649D02*
X177420061Y-85651217D01*
X128991779Y-75084985D02*
X129004709Y-75126207D01*
X179837598Y-91951657D02*
X179873668Y-92007470D01*
X177198854Y-76278546D02*
X177531388Y-76439989D01*
X120307345Y-134291029D02*
X120268288Y-134260079D01*
X163101179Y-55219669D02*
X163184272Y-55237115D01*
X131159068Y-81111334D02*
X131195921Y-81083319D01*
X157473697Y-54016495D02*
X157528696Y-53996800D01*
X128697218Y-84826011D02*
X129132603Y-84692784D01*
X114643388Y-88902618D02*
X114416638Y-88602457D01*
X110961263Y-69117464D02*
X111021727Y-69061602D01*
X176329032Y-87283432D02*
X176341815Y-87294733D01*
X181774950Y-95357280D02*
X181775864Y-95388128D01*
X177184293Y-85610263D02*
X177151466Y-85600286D01*
X132601659Y-80162675D02*
X132593094Y-80111226D01*
X110766841Y-70507874D02*
X110732777Y-70376566D01*
X134671979Y-67916798D02*
X134709785Y-67907011D01*
X110985248Y-71301714D02*
X110975864Y-71236850D01*
X132287307Y-70463143D02*
X132280856Y-70308830D01*
X176040903Y-75018896D02*
X176001926Y-75035789D01*
X175030699Y-86437027D02*
X175049393Y-86445958D01*
X157496539Y-142738123D02*
X157490858Y-142807212D01*
X103580740Y-125561439D02*
X103501523Y-125496912D01*
X179735184Y-91651885D02*
X179745097Y-91692521D01*
X102813588Y-122926892D02*
X102828420Y-122766660D01*
X175797808Y-87149232D02*
X175834067Y-87164157D01*
X175118889Y-72827847D02*
X175160604Y-72876774D01*
X177818658Y-88961605D02*
X177979009Y-89105301D01*
X143221095Y-146906259D02*
X143041943Y-146889841D01*
X130313900Y-84241547D02*
X130328340Y-84225310D01*
X142491809Y-146289869D02*
X142484016Y-146252842D01*
X135235492Y-67894929D02*
X135289355Y-67902436D01*
X116432113Y-96396604D02*
X116476850Y-96265762D01*
X142463741Y-146122301D02*
X142457917Y-146071494D01*
X113174270Y-69505194D02*
X113224034Y-69579971D01*
X181571168Y-130789560D02*
X181570835Y-130782523D01*
X117671938Y-92053695D02*
X117655171Y-91990492D01*
X113529143Y-69071817D02*
X113514781Y-68802891D01*
X162927224Y-55169968D02*
X163016164Y-55197409D01*
X136945817Y-67321170D02*
X136933826Y-67301059D01*
X188549608Y-105256000D02*
X188720648Y-105386208D01*
X194111290Y-125952564D02*
X194015887Y-125941605D01*
X118724131Y-133031728D02*
X118608361Y-132991533D01*
X175589264Y-85251327D02*
X175451310Y-85250182D01*
X193436673Y-118434911D02*
X193601413Y-118522926D01*
X176767826Y-82960607D02*
X176665869Y-82968775D01*
X175123124Y-86490984D02*
X175160107Y-86519533D01*
X175281322Y-75371682D02*
X175271217Y-75389943D01*
X196112198Y-120595519D02*
X196261818Y-120818819D01*
X167275284Y-55328569D02*
X167327916Y-55443981D01*
X183043382Y-83022682D02*
X183029808Y-83012549D01*
X172917589Y-70967179D02*
X172988280Y-71007256D01*
X132545103Y-78571868D02*
X132560159Y-78515999D01*
X189599189Y-106492538D02*
X189669161Y-106662553D01*
X178319543Y-89401258D02*
X178408954Y-89478687D01*
X176795053Y-74301508D02*
X176779293Y-74335649D01*
X178198884Y-131048891D02*
X178156530Y-131070375D01*
X182311856Y-77366615D02*
X182391478Y-77386697D01*
X187604934Y-131652245D02*
X187477652Y-131717640D01*
X189563031Y-129982839D02*
X189372858Y-130192110D01*
X158085991Y-141316726D02*
X158047963Y-141419549D01*
X136698952Y-67749964D02*
X136770327Y-67701046D01*
X167217732Y-61057872D02*
X167190799Y-61090643D01*
X181594773Y-94525634D02*
X181637706Y-94682632D01*
X167109080Y-62993365D02*
X167175000Y-63055687D01*
X168041276Y-63270591D02*
X168135961Y-63248113D01*
X113483678Y-70008980D02*
X113488728Y-70007306D01*
X172839884Y-70502278D02*
X172812652Y-70534834D01*
X178714702Y-89772214D02*
X178780725Y-89844860D01*
X176390521Y-83011822D02*
X176309632Y-83032108D01*
X186931500Y-104132939D02*
X187008730Y-104212365D01*
X138958204Y-60181342D02*
X138999897Y-60099804D01*
X175263379Y-75407792D02*
X175257929Y-75425124D01*
X110732777Y-70376566D02*
X110706084Y-70250273D01*
X172744262Y-70626532D02*
X172726506Y-70654323D01*
X138407443Y-61107893D02*
X138476769Y-61028261D01*
X110913589Y-80100387D02*
X110898592Y-79987143D01*
X171310466Y-63490144D02*
X171296348Y-63515502D01*
X189350396Y-106040550D02*
X189441231Y-106183112D01*
X128442446Y-134814835D02*
X128378939Y-134812025D01*
X173292280Y-70019743D02*
X173272374Y-70049571D01*
X113515068Y-68250949D02*
X113522233Y-68187416D01*
X184368118Y-82010399D02*
X184292790Y-82157613D01*
X170303687Y-64376288D02*
X170297622Y-64403509D01*
X115245512Y-98621000D02*
X115347165Y-98483014D01*
X173696809Y-85939855D02*
X173698308Y-85955447D01*
X184570335Y-81092520D02*
X184560405Y-81263368D01*
X170692990Y-63992701D02*
X170587528Y-64066980D01*
X166843817Y-62507258D02*
X166844976Y-62545307D01*
X188529075Y-130995310D02*
X188388339Y-131114044D01*
X179336731Y-77236665D02*
X179492048Y-77254034D01*
X179753274Y-91752721D02*
X179754149Y-91766134D01*
X173373845Y-69705609D02*
X173376761Y-69733620D01*
X177383896Y-85651343D02*
X177364113Y-85649881D01*
X137938858Y-61501951D02*
X138053864Y-61418240D01*
X177043885Y-82953173D02*
X176985703Y-82953985D01*
X173940386Y-85660316D02*
X173881378Y-85703321D01*
X151493516Y-52890485D02*
X153178365Y-52848669D01*
X134803786Y-73850068D02*
X134664793Y-73750599D01*
X134845081Y-76547219D02*
X134860453Y-76509340D01*
X196261818Y-120818819D02*
X196398601Y-121046780D01*
X179433124Y-90901714D02*
X179508203Y-91063832D01*
X170395205Y-64615954D02*
X170425666Y-64643090D01*
X117643555Y-132817859D02*
X117619756Y-132810450D01*
X184453234Y-79784548D02*
X184488327Y-79968060D01*
X168271701Y-133065790D02*
X168114916Y-133094889D01*
X134010878Y-136589102D02*
X133705986Y-136454594D01*
X107972051Y-125575508D02*
X107928233Y-125507733D01*
X180715982Y-80099932D02*
X180658196Y-80128204D01*
X117424456Y-132706138D02*
X117370649Y-132665273D01*
X192224309Y-125456013D02*
X192178077Y-125451762D01*
X104316310Y-125912731D02*
X104192982Y-125883317D01*
X172899914Y-70435594D02*
X172869031Y-70469120D01*
X159126375Y-53713255D02*
X159224520Y-53756133D01*
X127345162Y-134931676D02*
X127257253Y-134931531D01*
X171354851Y-65264597D02*
X171392130Y-65301476D01*
X111157887Y-68961007D02*
X111232423Y-68916605D01*
X126536842Y-74343665D02*
X126554669Y-74375584D01*
X183863823Y-99921342D02*
X183880676Y-99960663D01*
X169373474Y-62801835D02*
X169502824Y-62781126D01*
X127666533Y-74278076D02*
X127739437Y-74277230D01*
X142041660Y-56741274D02*
X142241581Y-56581245D01*
X119167902Y-133223238D02*
X119062255Y-133171623D01*
X173698791Y-71259065D02*
X173728871Y-71274353D01*
X184353005Y-100622308D02*
X184538899Y-100823909D01*
X158868497Y-139655240D02*
X158808549Y-139763124D01*
X171314439Y-65227116D02*
X171354851Y-65264597D01*
X113535734Y-69885114D02*
X113539931Y-69849650D01*
X167175000Y-63055687D02*
X167239924Y-63110689D01*
X171481636Y-65405645D02*
X171502854Y-65437264D01*
X108355683Y-109557815D02*
X108456838Y-109298873D01*
X127017613Y-85323104D02*
X127093899Y-85307343D01*
X192512517Y-111910255D02*
X192548052Y-112078250D01*
X110102636Y-106027573D02*
X110567424Y-105228619D01*
X124973803Y-134752036D02*
X124524121Y-134732240D01*
X174890927Y-86396906D02*
X174932986Y-86404696D01*
X175850711Y-83414209D02*
X175850398Y-83433997D01*
X158346886Y-140722574D02*
X158290049Y-140840338D01*
X132583304Y-80036778D02*
X132572633Y-79942854D01*
X192149824Y-110771090D02*
X192211960Y-110917112D01*
X142785438Y-146721327D02*
X142758635Y-146698631D01*
X111002327Y-71499248D02*
X110998466Y-71432807D01*
X181186267Y-130306060D02*
X181170161Y-130294370D01*
X150033524Y-146953668D02*
X145179040Y-146943138D01*
X112157746Y-68738381D02*
X112236369Y-68754671D01*
X183090978Y-81919575D02*
X183111679Y-81759565D01*
X175104742Y-86478267D02*
X175123124Y-86490984D01*
X139129185Y-59869412D02*
X139173252Y-59797971D01*
X176038960Y-83714948D02*
X176067176Y-83736232D01*
X132392462Y-69381399D02*
X132435836Y-69236651D01*
X135470552Y-74621640D02*
X135479749Y-74591115D01*
X166922023Y-61977297D02*
X166861939Y-62332161D01*
X125311690Y-134769987D02*
X124973803Y-134752036D01*
X135452496Y-67933465D02*
X135552958Y-67953090D01*
X183111679Y-81759565D02*
X183129632Y-81597728D01*
X182055023Y-96052311D02*
X182098124Y-96125379D01*
X103042279Y-124947519D02*
X102993501Y-124857828D01*
X195950279Y-120377453D02*
X196112198Y-120595519D01*
X167787615Y-63303135D02*
X167827116Y-63301442D01*
X172730438Y-70834497D02*
X172749748Y-70851876D01*
X173712469Y-85988489D02*
X173724781Y-86005790D01*
X176444315Y-73639712D02*
X176519462Y-73701840D01*
X132538765Y-79579427D02*
X132518071Y-79304304D01*
X183129632Y-81597728D02*
X183144175Y-81438816D01*
X138784410Y-60536139D02*
X138848699Y-60407485D01*
X145876979Y-54207236D02*
X146018943Y-54144185D01*
X130421424Y-83953517D02*
X130425361Y-83915702D01*
X162832358Y-55136980D02*
X162927224Y-55169968D01*
X183048126Y-133031201D02*
X182992690Y-133029301D01*
X180375729Y-80299387D02*
X180349868Y-80319135D01*
X108719496Y-127005902D02*
X108469434Y-126545107D01*
X177729243Y-82843890D02*
X177682716Y-82858251D01*
X163352696Y-55259031D02*
X163442030Y-55264234D01*
X191444647Y-109496670D02*
X191543950Y-109650627D01*
X124953246Y-66894759D02*
X125160366Y-66922085D01*
X191345073Y-109349279D02*
X191444647Y-109496670D01*
X189148110Y-130418840D02*
X188983463Y-130579200D01*
X120603160Y-134456891D02*
X120559359Y-134439292D01*
X107326178Y-125536966D02*
X107143800Y-125600172D01*
X127798780Y-134895833D02*
X127730819Y-134906188D01*
X161058533Y-54463785D02*
X161148537Y-54494257D01*
X107666371Y-125439263D02*
X107628602Y-125446925D01*
X182239274Y-96347574D02*
X182384745Y-96569409D01*
X162180759Y-54869538D02*
X162353597Y-54942228D01*
X111036438Y-104465719D02*
X111298183Y-104045368D01*
X110951475Y-71107956D02*
X110936443Y-71043713D01*
X130243196Y-84301884D02*
X130262925Y-84287135D01*
X132289547Y-69995661D02*
X132304629Y-69838966D01*
X117633701Y-91931272D02*
X117607593Y-91875425D01*
X192968526Y-118155804D02*
X193021115Y-118190523D01*
X181316628Y-130419244D02*
X181275474Y-130381152D01*
X190519509Y-108345417D02*
X190618322Y-108465984D01*
X131326405Y-80994321D02*
X131375284Y-80963774D01*
X162569544Y-136247537D02*
X162123943Y-136551748D01*
X142452510Y-146016637D02*
X142442828Y-145893807D01*
X141708024Y-142191811D02*
X141516796Y-142000058D01*
X132872620Y-68450687D02*
X132909870Y-68410419D01*
X175077829Y-72774510D02*
X175118889Y-72827847D01*
X138476769Y-61028261D02*
X138541485Y-60944544D01*
X136173104Y-64531010D02*
X136185436Y-64462780D01*
X117355064Y-93843427D02*
X117366474Y-93781539D01*
X196801756Y-121989485D02*
X196822048Y-122070734D01*
X180140578Y-92354095D02*
X180210068Y-92435332D01*
X180830947Y-130265658D02*
X180782391Y-130281680D01*
X176281308Y-83870788D02*
X176370345Y-83918811D01*
X166885310Y-54916645D02*
X166924693Y-54929006D01*
X167817870Y-58008793D02*
X167838742Y-58076590D01*
X184704657Y-101012594D02*
X184784715Y-101108502D01*
X174906992Y-85294877D02*
X174774208Y-85318456D01*
X126062903Y-67223480D02*
X126146000Y-67289862D01*
X181586661Y-130874578D02*
X181575175Y-130824728D01*
X173376429Y-69789746D02*
X173373172Y-69817917D01*
X173860823Y-86115801D02*
X173925643Y-86153044D01*
X159383081Y-139012412D02*
X159219210Y-139198812D01*
X131375284Y-80963774D02*
X131426227Y-80933171D01*
X102803933Y-123097927D02*
X102813588Y-122926892D01*
X167171035Y-133408768D02*
X166842208Y-133567684D01*
X129004709Y-75126207D02*
X129025783Y-75213250D01*
M02*
