%TF.GenerationSoftware,KiCad,Pcbnew,7.0.7*%
%TF.CreationDate,2024-03-11T11:43:04-07:00*%
%TF.ProjectId,DC32_Drear_Jeebus_SAO,44433332-5f44-4726-9561-725f4a656562,rev?*%
%TF.SameCoordinates,Original*%
%TF.FileFunction,Legend,Bot*%
%TF.FilePolarity,Positive*%
%FSLAX46Y46*%
G04 Gerber Fmt 4.6, Leading zero omitted, Abs format (unit mm)*
G04 Created by KiCad (PCBNEW 7.0.7) date 2024-03-11 11:43:04*
%MOMM*%
%LPD*%
G01*
G04 APERTURE LIST*
%ADD10C,0.300000*%
%ADD11C,0.150000*%
%ADD12C,0.100000*%
%ADD13C,0.120000*%
G04 APERTURE END LIST*
D10*
X147445489Y-116895828D02*
X147445489Y-115395828D01*
X147445489Y-116110114D02*
X146588346Y-116110114D01*
X146588346Y-116895828D02*
X146588346Y-115395828D01*
X145231203Y-116895828D02*
X145231203Y-116110114D01*
X145231203Y-116110114D02*
X145302631Y-115967257D01*
X145302631Y-115967257D02*
X145445488Y-115895828D01*
X145445488Y-115895828D02*
X145731203Y-115895828D01*
X145731203Y-115895828D02*
X145874060Y-115967257D01*
X145231203Y-116824400D02*
X145374060Y-116895828D01*
X145374060Y-116895828D02*
X145731203Y-116895828D01*
X145731203Y-116895828D02*
X145874060Y-116824400D01*
X145874060Y-116824400D02*
X145945488Y-116681542D01*
X145945488Y-116681542D02*
X145945488Y-116538685D01*
X145945488Y-116538685D02*
X145874060Y-116395828D01*
X145874060Y-116395828D02*
X145731203Y-116324400D01*
X145731203Y-116324400D02*
X145374060Y-116324400D01*
X145374060Y-116324400D02*
X145231203Y-116252971D01*
X144516917Y-115895828D02*
X144516917Y-116895828D01*
X144516917Y-116038685D02*
X144445488Y-115967257D01*
X144445488Y-115967257D02*
X144302631Y-115895828D01*
X144302631Y-115895828D02*
X144088345Y-115895828D01*
X144088345Y-115895828D02*
X143945488Y-115967257D01*
X143945488Y-115967257D02*
X143874060Y-116110114D01*
X143874060Y-116110114D02*
X143874060Y-116895828D01*
X143159774Y-115895828D02*
X143159774Y-116895828D01*
X143159774Y-116038685D02*
X143088345Y-115967257D01*
X143088345Y-115967257D02*
X142945488Y-115895828D01*
X142945488Y-115895828D02*
X142731202Y-115895828D01*
X142731202Y-115895828D02*
X142588345Y-115967257D01*
X142588345Y-115967257D02*
X142516917Y-116110114D01*
X142516917Y-116110114D02*
X142516917Y-116895828D01*
X141159774Y-116895828D02*
X141159774Y-116110114D01*
X141159774Y-116110114D02*
X141231202Y-115967257D01*
X141231202Y-115967257D02*
X141374059Y-115895828D01*
X141374059Y-115895828D02*
X141659774Y-115895828D01*
X141659774Y-115895828D02*
X141802631Y-115967257D01*
X141159774Y-116824400D02*
X141302631Y-116895828D01*
X141302631Y-116895828D02*
X141659774Y-116895828D01*
X141659774Y-116895828D02*
X141802631Y-116824400D01*
X141802631Y-116824400D02*
X141874059Y-116681542D01*
X141874059Y-116681542D02*
X141874059Y-116538685D01*
X141874059Y-116538685D02*
X141802631Y-116395828D01*
X141802631Y-116395828D02*
X141659774Y-116324400D01*
X141659774Y-116324400D02*
X141302631Y-116324400D01*
X141302631Y-116324400D02*
X141159774Y-116252971D01*
X140445488Y-116895828D02*
X140445488Y-115395828D01*
X139802631Y-116895828D02*
X139802631Y-116110114D01*
X139802631Y-116110114D02*
X139874059Y-115967257D01*
X139874059Y-115967257D02*
X140016916Y-115895828D01*
X140016916Y-115895828D02*
X140231202Y-115895828D01*
X140231202Y-115895828D02*
X140374059Y-115967257D01*
X140374059Y-115967257D02*
X140445488Y-116038685D01*
X137945488Y-116895828D02*
X137945488Y-115895828D01*
X137945488Y-115395828D02*
X138016916Y-115467257D01*
X138016916Y-115467257D02*
X137945488Y-115538685D01*
X137945488Y-115538685D02*
X137874059Y-115467257D01*
X137874059Y-115467257D02*
X137945488Y-115395828D01*
X137945488Y-115395828D02*
X137945488Y-115538685D01*
X137302630Y-116824400D02*
X137159773Y-116895828D01*
X137159773Y-116895828D02*
X136874059Y-116895828D01*
X136874059Y-116895828D02*
X136731202Y-116824400D01*
X136731202Y-116824400D02*
X136659773Y-116681542D01*
X136659773Y-116681542D02*
X136659773Y-116610114D01*
X136659773Y-116610114D02*
X136731202Y-116467257D01*
X136731202Y-116467257D02*
X136874059Y-116395828D01*
X136874059Y-116395828D02*
X137088345Y-116395828D01*
X137088345Y-116395828D02*
X137231202Y-116324400D01*
X137231202Y-116324400D02*
X137302630Y-116181542D01*
X137302630Y-116181542D02*
X137302630Y-116110114D01*
X137302630Y-116110114D02*
X137231202Y-115967257D01*
X137231202Y-115967257D02*
X137088345Y-115895828D01*
X137088345Y-115895828D02*
X136874059Y-115895828D01*
X136874059Y-115895828D02*
X136731202Y-115967257D01*
X134231202Y-116895828D02*
X134231202Y-116110114D01*
X134231202Y-116110114D02*
X134302630Y-115967257D01*
X134302630Y-115967257D02*
X134445487Y-115895828D01*
X134445487Y-115895828D02*
X134731202Y-115895828D01*
X134731202Y-115895828D02*
X134874059Y-115967257D01*
X134231202Y-116824400D02*
X134374059Y-116895828D01*
X134374059Y-116895828D02*
X134731202Y-116895828D01*
X134731202Y-116895828D02*
X134874059Y-116824400D01*
X134874059Y-116824400D02*
X134945487Y-116681542D01*
X134945487Y-116681542D02*
X134945487Y-116538685D01*
X134945487Y-116538685D02*
X134874059Y-116395828D01*
X134874059Y-116395828D02*
X134731202Y-116324400D01*
X134731202Y-116324400D02*
X134374059Y-116324400D01*
X134374059Y-116324400D02*
X134231202Y-116252971D01*
X133659773Y-115895828D02*
X133374059Y-116895828D01*
X133374059Y-116895828D02*
X133088344Y-116181542D01*
X133088344Y-116181542D02*
X132802630Y-116895828D01*
X132802630Y-116895828D02*
X132516916Y-115895828D01*
X131374058Y-116824400D02*
X131516915Y-116895828D01*
X131516915Y-116895828D02*
X131802630Y-116895828D01*
X131802630Y-116895828D02*
X131945487Y-116824400D01*
X131945487Y-116824400D02*
X132016915Y-116681542D01*
X132016915Y-116681542D02*
X132016915Y-116110114D01*
X132016915Y-116110114D02*
X131945487Y-115967257D01*
X131945487Y-115967257D02*
X131802630Y-115895828D01*
X131802630Y-115895828D02*
X131516915Y-115895828D01*
X131516915Y-115895828D02*
X131374058Y-115967257D01*
X131374058Y-115967257D02*
X131302630Y-116110114D01*
X131302630Y-116110114D02*
X131302630Y-116252971D01*
X131302630Y-116252971D02*
X132016915Y-116395828D01*
X130731201Y-116824400D02*
X130588344Y-116895828D01*
X130588344Y-116895828D02*
X130302630Y-116895828D01*
X130302630Y-116895828D02*
X130159773Y-116824400D01*
X130159773Y-116824400D02*
X130088344Y-116681542D01*
X130088344Y-116681542D02*
X130088344Y-116610114D01*
X130088344Y-116610114D02*
X130159773Y-116467257D01*
X130159773Y-116467257D02*
X130302630Y-116395828D01*
X130302630Y-116395828D02*
X130516916Y-116395828D01*
X130516916Y-116395828D02*
X130659773Y-116324400D01*
X130659773Y-116324400D02*
X130731201Y-116181542D01*
X130731201Y-116181542D02*
X130731201Y-116110114D01*
X130731201Y-116110114D02*
X130659773Y-115967257D01*
X130659773Y-115967257D02*
X130516916Y-115895828D01*
X130516916Y-115895828D02*
X130302630Y-115895828D01*
X130302630Y-115895828D02*
X130159773Y-115967257D01*
X129231201Y-116895828D02*
X129374058Y-116824400D01*
X129374058Y-116824400D02*
X129445487Y-116752971D01*
X129445487Y-116752971D02*
X129516915Y-116610114D01*
X129516915Y-116610114D02*
X129516915Y-116181542D01*
X129516915Y-116181542D02*
X129445487Y-116038685D01*
X129445487Y-116038685D02*
X129374058Y-115967257D01*
X129374058Y-115967257D02*
X129231201Y-115895828D01*
X129231201Y-115895828D02*
X129016915Y-115895828D01*
X129016915Y-115895828D02*
X128874058Y-115967257D01*
X128874058Y-115967257D02*
X128802630Y-116038685D01*
X128802630Y-116038685D02*
X128731201Y-116181542D01*
X128731201Y-116181542D02*
X128731201Y-116610114D01*
X128731201Y-116610114D02*
X128802630Y-116752971D01*
X128802630Y-116752971D02*
X128874058Y-116824400D01*
X128874058Y-116824400D02*
X129016915Y-116895828D01*
X129016915Y-116895828D02*
X129231201Y-116895828D01*
X128088344Y-116895828D02*
X128088344Y-115895828D01*
X128088344Y-116038685D02*
X128016915Y-115967257D01*
X128016915Y-115967257D02*
X127874058Y-115895828D01*
X127874058Y-115895828D02*
X127659772Y-115895828D01*
X127659772Y-115895828D02*
X127516915Y-115967257D01*
X127516915Y-115967257D02*
X127445487Y-116110114D01*
X127445487Y-116110114D02*
X127445487Y-116895828D01*
X127445487Y-116110114D02*
X127374058Y-115967257D01*
X127374058Y-115967257D02*
X127231201Y-115895828D01*
X127231201Y-115895828D02*
X127016915Y-115895828D01*
X127016915Y-115895828D02*
X126874058Y-115967257D01*
X126874058Y-115967257D02*
X126802629Y-116110114D01*
X126802629Y-116110114D02*
X126802629Y-116895828D01*
X125516915Y-116824400D02*
X125659772Y-116895828D01*
X125659772Y-116895828D02*
X125945487Y-116895828D01*
X125945487Y-116895828D02*
X126088344Y-116824400D01*
X126088344Y-116824400D02*
X126159772Y-116681542D01*
X126159772Y-116681542D02*
X126159772Y-116110114D01*
X126159772Y-116110114D02*
X126088344Y-115967257D01*
X126088344Y-115967257D02*
X125945487Y-115895828D01*
X125945487Y-115895828D02*
X125659772Y-115895828D01*
X125659772Y-115895828D02*
X125516915Y-115967257D01*
X125516915Y-115967257D02*
X125445487Y-116110114D01*
X125445487Y-116110114D02*
X125445487Y-116252971D01*
X125445487Y-116252971D02*
X126159772Y-116395828D01*
X123659773Y-116895828D02*
X123659773Y-115395828D01*
X123659773Y-115967257D02*
X123516916Y-115895828D01*
X123516916Y-115895828D02*
X123231201Y-115895828D01*
X123231201Y-115895828D02*
X123088344Y-115967257D01*
X123088344Y-115967257D02*
X123016916Y-116038685D01*
X123016916Y-116038685D02*
X122945487Y-116181542D01*
X122945487Y-116181542D02*
X122945487Y-116610114D01*
X122945487Y-116610114D02*
X123016916Y-116752971D01*
X123016916Y-116752971D02*
X123088344Y-116824400D01*
X123088344Y-116824400D02*
X123231201Y-116895828D01*
X123231201Y-116895828D02*
X123516916Y-116895828D01*
X123516916Y-116895828D02*
X123659773Y-116824400D01*
X121659773Y-115895828D02*
X121659773Y-116895828D01*
X122302630Y-115895828D02*
X122302630Y-116681542D01*
X122302630Y-116681542D02*
X122231201Y-116824400D01*
X122231201Y-116824400D02*
X122088344Y-116895828D01*
X122088344Y-116895828D02*
X121874058Y-116895828D01*
X121874058Y-116895828D02*
X121731201Y-116824400D01*
X121731201Y-116824400D02*
X121659773Y-116752971D01*
X121159772Y-115895828D02*
X120588344Y-115895828D01*
X120945487Y-115395828D02*
X120945487Y-116681542D01*
X120945487Y-116681542D02*
X120874058Y-116824400D01*
X120874058Y-116824400D02*
X120731201Y-116895828D01*
X120731201Y-116895828D02*
X120588344Y-116895828D01*
X117802630Y-116895828D02*
X117802630Y-115395828D01*
X115302630Y-116824400D02*
X115445487Y-116895828D01*
X115445487Y-116895828D02*
X115731201Y-116895828D01*
X115731201Y-116895828D02*
X115874058Y-116824400D01*
X115874058Y-116824400D02*
X115945487Y-116752971D01*
X115945487Y-116752971D02*
X116016915Y-116610114D01*
X116016915Y-116610114D02*
X116016915Y-116181542D01*
X116016915Y-116181542D02*
X115945487Y-116038685D01*
X115945487Y-116038685D02*
X115874058Y-115967257D01*
X115874058Y-115967257D02*
X115731201Y-115895828D01*
X115731201Y-115895828D02*
X115445487Y-115895828D01*
X115445487Y-115895828D02*
X115302630Y-115967257D01*
X114016916Y-116895828D02*
X114016916Y-116110114D01*
X114016916Y-116110114D02*
X114088344Y-115967257D01*
X114088344Y-115967257D02*
X114231201Y-115895828D01*
X114231201Y-115895828D02*
X114516916Y-115895828D01*
X114516916Y-115895828D02*
X114659773Y-115967257D01*
X114016916Y-116824400D02*
X114159773Y-116895828D01*
X114159773Y-116895828D02*
X114516916Y-116895828D01*
X114516916Y-116895828D02*
X114659773Y-116824400D01*
X114659773Y-116824400D02*
X114731201Y-116681542D01*
X114731201Y-116681542D02*
X114731201Y-116538685D01*
X114731201Y-116538685D02*
X114659773Y-116395828D01*
X114659773Y-116395828D02*
X114516916Y-116324400D01*
X114516916Y-116324400D02*
X114159773Y-116324400D01*
X114159773Y-116324400D02*
X114016916Y-116252971D01*
X113302630Y-115895828D02*
X113302630Y-116895828D01*
X113302630Y-116038685D02*
X113231201Y-115967257D01*
X113231201Y-115967257D02*
X113088344Y-115895828D01*
X113088344Y-115895828D02*
X112874058Y-115895828D01*
X112874058Y-115895828D02*
X112731201Y-115967257D01*
X112731201Y-115967257D02*
X112659773Y-116110114D01*
X112659773Y-116110114D02*
X112659773Y-116895828D01*
X111945487Y-115895828D02*
X111945487Y-116895828D01*
X111945487Y-116038685D02*
X111874058Y-115967257D01*
X111874058Y-115967257D02*
X111731201Y-115895828D01*
X111731201Y-115895828D02*
X111516915Y-115895828D01*
X111516915Y-115895828D02*
X111374058Y-115967257D01*
X111374058Y-115967257D02*
X111302630Y-116110114D01*
X111302630Y-116110114D02*
X111302630Y-116895828D01*
X110374058Y-116895828D02*
X110516915Y-116824400D01*
X110516915Y-116824400D02*
X110588344Y-116752971D01*
X110588344Y-116752971D02*
X110659772Y-116610114D01*
X110659772Y-116610114D02*
X110659772Y-116181542D01*
X110659772Y-116181542D02*
X110588344Y-116038685D01*
X110588344Y-116038685D02*
X110516915Y-115967257D01*
X110516915Y-115967257D02*
X110374058Y-115895828D01*
X110374058Y-115895828D02*
X110159772Y-115895828D01*
X110159772Y-115895828D02*
X110016915Y-115967257D01*
X110016915Y-115967257D02*
X109945487Y-116038685D01*
X109945487Y-116038685D02*
X109874058Y-116181542D01*
X109874058Y-116181542D02*
X109874058Y-116610114D01*
X109874058Y-116610114D02*
X109945487Y-116752971D01*
X109945487Y-116752971D02*
X110016915Y-116824400D01*
X110016915Y-116824400D02*
X110159772Y-116895828D01*
X110159772Y-116895828D02*
X110374058Y-116895828D01*
X109445486Y-115895828D02*
X108874058Y-115895828D01*
X109231201Y-115395828D02*
X109231201Y-116681542D01*
X109231201Y-116681542D02*
X109159772Y-116824400D01*
X109159772Y-116824400D02*
X109016915Y-116895828D01*
X109016915Y-116895828D02*
X108874058Y-116895828D01*
X146802632Y-119239400D02*
X146945489Y-119310828D01*
X146945489Y-119310828D02*
X147231203Y-119310828D01*
X147231203Y-119310828D02*
X147374060Y-119239400D01*
X147374060Y-119239400D02*
X147445489Y-119167971D01*
X147445489Y-119167971D02*
X147516917Y-119025114D01*
X147516917Y-119025114D02*
X147516917Y-118596542D01*
X147516917Y-118596542D02*
X147445489Y-118453685D01*
X147445489Y-118453685D02*
X147374060Y-118382257D01*
X147374060Y-118382257D02*
X147231203Y-118310828D01*
X147231203Y-118310828D02*
X146945489Y-118310828D01*
X146945489Y-118310828D02*
X146802632Y-118382257D01*
X145945489Y-119310828D02*
X146088346Y-119239400D01*
X146088346Y-119239400D02*
X146159775Y-119167971D01*
X146159775Y-119167971D02*
X146231203Y-119025114D01*
X146231203Y-119025114D02*
X146231203Y-118596542D01*
X146231203Y-118596542D02*
X146159775Y-118453685D01*
X146159775Y-118453685D02*
X146088346Y-118382257D01*
X146088346Y-118382257D02*
X145945489Y-118310828D01*
X145945489Y-118310828D02*
X145731203Y-118310828D01*
X145731203Y-118310828D02*
X145588346Y-118382257D01*
X145588346Y-118382257D02*
X145516918Y-118453685D01*
X145516918Y-118453685D02*
X145445489Y-118596542D01*
X145445489Y-118596542D02*
X145445489Y-119025114D01*
X145445489Y-119025114D02*
X145516918Y-119167971D01*
X145516918Y-119167971D02*
X145588346Y-119239400D01*
X145588346Y-119239400D02*
X145731203Y-119310828D01*
X145731203Y-119310828D02*
X145945489Y-119310828D01*
X144802632Y-119310828D02*
X144802632Y-118310828D01*
X144802632Y-118453685D02*
X144731203Y-118382257D01*
X144731203Y-118382257D02*
X144588346Y-118310828D01*
X144588346Y-118310828D02*
X144374060Y-118310828D01*
X144374060Y-118310828D02*
X144231203Y-118382257D01*
X144231203Y-118382257D02*
X144159775Y-118525114D01*
X144159775Y-118525114D02*
X144159775Y-119310828D01*
X144159775Y-118525114D02*
X144088346Y-118382257D01*
X144088346Y-118382257D02*
X143945489Y-118310828D01*
X143945489Y-118310828D02*
X143731203Y-118310828D01*
X143731203Y-118310828D02*
X143588346Y-118382257D01*
X143588346Y-118382257D02*
X143516917Y-118525114D01*
X143516917Y-118525114D02*
X143516917Y-119310828D01*
X142231203Y-119239400D02*
X142374060Y-119310828D01*
X142374060Y-119310828D02*
X142659775Y-119310828D01*
X142659775Y-119310828D02*
X142802632Y-119239400D01*
X142802632Y-119239400D02*
X142874060Y-119096542D01*
X142874060Y-119096542D02*
X142874060Y-118525114D01*
X142874060Y-118525114D02*
X142802632Y-118382257D01*
X142802632Y-118382257D02*
X142659775Y-118310828D01*
X142659775Y-118310828D02*
X142374060Y-118310828D01*
X142374060Y-118310828D02*
X142231203Y-118382257D01*
X142231203Y-118382257D02*
X142159775Y-118525114D01*
X142159775Y-118525114D02*
X142159775Y-118667971D01*
X142159775Y-118667971D02*
X142874060Y-118810828D01*
X139731204Y-118310828D02*
X139731204Y-119310828D01*
X140374061Y-118310828D02*
X140374061Y-119096542D01*
X140374061Y-119096542D02*
X140302632Y-119239400D01*
X140302632Y-119239400D02*
X140159775Y-119310828D01*
X140159775Y-119310828D02*
X139945489Y-119310828D01*
X139945489Y-119310828D02*
X139802632Y-119239400D01*
X139802632Y-119239400D02*
X139731204Y-119167971D01*
X139016918Y-118310828D02*
X139016918Y-119810828D01*
X139016918Y-118382257D02*
X138874061Y-118310828D01*
X138874061Y-118310828D02*
X138588346Y-118310828D01*
X138588346Y-118310828D02*
X138445489Y-118382257D01*
X138445489Y-118382257D02*
X138374061Y-118453685D01*
X138374061Y-118453685D02*
X138302632Y-118596542D01*
X138302632Y-118596542D02*
X138302632Y-119025114D01*
X138302632Y-119025114D02*
X138374061Y-119167971D01*
X138374061Y-119167971D02*
X138445489Y-119239400D01*
X138445489Y-119239400D02*
X138588346Y-119310828D01*
X138588346Y-119310828D02*
X138874061Y-119310828D01*
X138874061Y-119310828D02*
X139016918Y-119239400D01*
X136659775Y-118310828D02*
X136374061Y-119310828D01*
X136374061Y-119310828D02*
X136088346Y-118596542D01*
X136088346Y-118596542D02*
X135802632Y-119310828D01*
X135802632Y-119310828D02*
X135516918Y-118310828D01*
X134945489Y-119310828D02*
X134945489Y-118310828D01*
X134945489Y-117810828D02*
X135016917Y-117882257D01*
X135016917Y-117882257D02*
X134945489Y-117953685D01*
X134945489Y-117953685D02*
X134874060Y-117882257D01*
X134874060Y-117882257D02*
X134945489Y-117810828D01*
X134945489Y-117810828D02*
X134945489Y-117953685D01*
X134445488Y-118310828D02*
X133874060Y-118310828D01*
X134231203Y-117810828D02*
X134231203Y-119096542D01*
X134231203Y-119096542D02*
X134159774Y-119239400D01*
X134159774Y-119239400D02*
X134016917Y-119310828D01*
X134016917Y-119310828D02*
X133874060Y-119310828D01*
X133374060Y-119310828D02*
X133374060Y-117810828D01*
X132731203Y-119310828D02*
X132731203Y-118525114D01*
X132731203Y-118525114D02*
X132802631Y-118382257D01*
X132802631Y-118382257D02*
X132945488Y-118310828D01*
X132945488Y-118310828D02*
X133159774Y-118310828D01*
X133159774Y-118310828D02*
X133302631Y-118382257D01*
X133302631Y-118382257D02*
X133374060Y-118453685D01*
X130231203Y-119310828D02*
X130231203Y-118525114D01*
X130231203Y-118525114D02*
X130302631Y-118382257D01*
X130302631Y-118382257D02*
X130445488Y-118310828D01*
X130445488Y-118310828D02*
X130731203Y-118310828D01*
X130731203Y-118310828D02*
X130874060Y-118382257D01*
X130231203Y-119239400D02*
X130374060Y-119310828D01*
X130374060Y-119310828D02*
X130731203Y-119310828D01*
X130731203Y-119310828D02*
X130874060Y-119239400D01*
X130874060Y-119239400D02*
X130945488Y-119096542D01*
X130945488Y-119096542D02*
X130945488Y-118953685D01*
X130945488Y-118953685D02*
X130874060Y-118810828D01*
X130874060Y-118810828D02*
X130731203Y-118739400D01*
X130731203Y-118739400D02*
X130374060Y-118739400D01*
X130374060Y-118739400D02*
X130231203Y-118667971D01*
X127731203Y-119239400D02*
X127874060Y-119310828D01*
X127874060Y-119310828D02*
X128159774Y-119310828D01*
X128159774Y-119310828D02*
X128302631Y-119239400D01*
X128302631Y-119239400D02*
X128374060Y-119167971D01*
X128374060Y-119167971D02*
X128445488Y-119025114D01*
X128445488Y-119025114D02*
X128445488Y-118596542D01*
X128445488Y-118596542D02*
X128374060Y-118453685D01*
X128374060Y-118453685D02*
X128302631Y-118382257D01*
X128302631Y-118382257D02*
X128159774Y-118310828D01*
X128159774Y-118310828D02*
X127874060Y-118310828D01*
X127874060Y-118310828D02*
X127731203Y-118382257D01*
X126874060Y-119310828D02*
X127016917Y-119239400D01*
X127016917Y-119239400D02*
X127088346Y-119167971D01*
X127088346Y-119167971D02*
X127159774Y-119025114D01*
X127159774Y-119025114D02*
X127159774Y-118596542D01*
X127159774Y-118596542D02*
X127088346Y-118453685D01*
X127088346Y-118453685D02*
X127016917Y-118382257D01*
X127016917Y-118382257D02*
X126874060Y-118310828D01*
X126874060Y-118310828D02*
X126659774Y-118310828D01*
X126659774Y-118310828D02*
X126516917Y-118382257D01*
X126516917Y-118382257D02*
X126445489Y-118453685D01*
X126445489Y-118453685D02*
X126374060Y-118596542D01*
X126374060Y-118596542D02*
X126374060Y-119025114D01*
X126374060Y-119025114D02*
X126445489Y-119167971D01*
X126445489Y-119167971D02*
X126516917Y-119239400D01*
X126516917Y-119239400D02*
X126659774Y-119310828D01*
X126659774Y-119310828D02*
X126874060Y-119310828D01*
X125731203Y-119310828D02*
X125731203Y-117810828D01*
X125088346Y-119310828D02*
X125088346Y-118525114D01*
X125088346Y-118525114D02*
X125159774Y-118382257D01*
X125159774Y-118382257D02*
X125302631Y-118310828D01*
X125302631Y-118310828D02*
X125516917Y-118310828D01*
X125516917Y-118310828D02*
X125659774Y-118382257D01*
X125659774Y-118382257D02*
X125731203Y-118453685D01*
X123802631Y-119239400D02*
X123945488Y-119310828D01*
X123945488Y-119310828D02*
X124231203Y-119310828D01*
X124231203Y-119310828D02*
X124374060Y-119239400D01*
X124374060Y-119239400D02*
X124445488Y-119096542D01*
X124445488Y-119096542D02*
X124445488Y-118525114D01*
X124445488Y-118525114D02*
X124374060Y-118382257D01*
X124374060Y-118382257D02*
X124231203Y-118310828D01*
X124231203Y-118310828D02*
X123945488Y-118310828D01*
X123945488Y-118310828D02*
X123802631Y-118382257D01*
X123802631Y-118382257D02*
X123731203Y-118525114D01*
X123731203Y-118525114D02*
X123731203Y-118667971D01*
X123731203Y-118667971D02*
X124445488Y-118810828D01*
X123088346Y-119310828D02*
X123088346Y-118310828D01*
X123088346Y-118596542D02*
X123016917Y-118453685D01*
X123016917Y-118453685D02*
X122945489Y-118382257D01*
X122945489Y-118382257D02*
X122802631Y-118310828D01*
X122802631Y-118310828D02*
X122659774Y-118310828D01*
X121588346Y-119239400D02*
X121731203Y-119310828D01*
X121731203Y-119310828D02*
X122016918Y-119310828D01*
X122016918Y-119310828D02*
X122159775Y-119239400D01*
X122159775Y-119239400D02*
X122231203Y-119096542D01*
X122231203Y-119096542D02*
X122231203Y-118525114D01*
X122231203Y-118525114D02*
X122159775Y-118382257D01*
X122159775Y-118382257D02*
X122016918Y-118310828D01*
X122016918Y-118310828D02*
X121731203Y-118310828D01*
X121731203Y-118310828D02*
X121588346Y-118382257D01*
X121588346Y-118382257D02*
X121516918Y-118525114D01*
X121516918Y-118525114D02*
X121516918Y-118667971D01*
X121516918Y-118667971D02*
X122231203Y-118810828D01*
X120874061Y-118310828D02*
X120874061Y-119310828D01*
X120874061Y-118453685D02*
X120802632Y-118382257D01*
X120802632Y-118382257D02*
X120659775Y-118310828D01*
X120659775Y-118310828D02*
X120445489Y-118310828D01*
X120445489Y-118310828D02*
X120302632Y-118382257D01*
X120302632Y-118382257D02*
X120231204Y-118525114D01*
X120231204Y-118525114D02*
X120231204Y-119310828D01*
X119731203Y-118310828D02*
X119159775Y-118310828D01*
X119516918Y-117810828D02*
X119516918Y-119096542D01*
X119516918Y-119096542D02*
X119445489Y-119239400D01*
X119445489Y-119239400D02*
X119302632Y-119310828D01*
X119302632Y-119310828D02*
X119159775Y-119310828D01*
X117731203Y-118310828D02*
X117159775Y-118310828D01*
X117516918Y-117810828D02*
X117516918Y-119096542D01*
X117516918Y-119096542D02*
X117445489Y-119239400D01*
X117445489Y-119239400D02*
X117302632Y-119310828D01*
X117302632Y-119310828D02*
X117159775Y-119310828D01*
X116659775Y-119310828D02*
X116659775Y-117810828D01*
X116016918Y-119310828D02*
X116016918Y-118525114D01*
X116016918Y-118525114D02*
X116088346Y-118382257D01*
X116088346Y-118382257D02*
X116231203Y-118310828D01*
X116231203Y-118310828D02*
X116445489Y-118310828D01*
X116445489Y-118310828D02*
X116588346Y-118382257D01*
X116588346Y-118382257D02*
X116659775Y-118453685D01*
X115088346Y-119310828D02*
X115231203Y-119239400D01*
X115231203Y-119239400D02*
X115302632Y-119167971D01*
X115302632Y-119167971D02*
X115374060Y-119025114D01*
X115374060Y-119025114D02*
X115374060Y-118596542D01*
X115374060Y-118596542D02*
X115302632Y-118453685D01*
X115302632Y-118453685D02*
X115231203Y-118382257D01*
X115231203Y-118382257D02*
X115088346Y-118310828D01*
X115088346Y-118310828D02*
X114874060Y-118310828D01*
X114874060Y-118310828D02*
X114731203Y-118382257D01*
X114731203Y-118382257D02*
X114659775Y-118453685D01*
X114659775Y-118453685D02*
X114588346Y-118596542D01*
X114588346Y-118596542D02*
X114588346Y-119025114D01*
X114588346Y-119025114D02*
X114659775Y-119167971D01*
X114659775Y-119167971D02*
X114731203Y-119239400D01*
X114731203Y-119239400D02*
X114874060Y-119310828D01*
X114874060Y-119310828D02*
X115088346Y-119310828D01*
X113302632Y-118310828D02*
X113302632Y-119310828D01*
X113945489Y-118310828D02*
X113945489Y-119096542D01*
X113945489Y-119096542D02*
X113874060Y-119239400D01*
X113874060Y-119239400D02*
X113731203Y-119310828D01*
X113731203Y-119310828D02*
X113516917Y-119310828D01*
X113516917Y-119310828D02*
X113374060Y-119239400D01*
X113374060Y-119239400D02*
X113302632Y-119167971D01*
X111945489Y-118310828D02*
X111945489Y-119525114D01*
X111945489Y-119525114D02*
X112016917Y-119667971D01*
X112016917Y-119667971D02*
X112088346Y-119739400D01*
X112088346Y-119739400D02*
X112231203Y-119810828D01*
X112231203Y-119810828D02*
X112445489Y-119810828D01*
X112445489Y-119810828D02*
X112588346Y-119739400D01*
X111945489Y-119239400D02*
X112088346Y-119310828D01*
X112088346Y-119310828D02*
X112374060Y-119310828D01*
X112374060Y-119310828D02*
X112516917Y-119239400D01*
X112516917Y-119239400D02*
X112588346Y-119167971D01*
X112588346Y-119167971D02*
X112659774Y-119025114D01*
X112659774Y-119025114D02*
X112659774Y-118596542D01*
X112659774Y-118596542D02*
X112588346Y-118453685D01*
X112588346Y-118453685D02*
X112516917Y-118382257D01*
X112516917Y-118382257D02*
X112374060Y-118310828D01*
X112374060Y-118310828D02*
X112088346Y-118310828D01*
X112088346Y-118310828D02*
X111945489Y-118382257D01*
X111231203Y-119310828D02*
X111231203Y-117810828D01*
X110588346Y-119310828D02*
X110588346Y-118525114D01*
X110588346Y-118525114D02*
X110659774Y-118382257D01*
X110659774Y-118382257D02*
X110802631Y-118310828D01*
X110802631Y-118310828D02*
X111016917Y-118310828D01*
X111016917Y-118310828D02*
X111159774Y-118382257D01*
X111159774Y-118382257D02*
X111231203Y-118453685D01*
X110088345Y-118310828D02*
X109516917Y-118310828D01*
X109874060Y-117810828D02*
X109874060Y-119096542D01*
X109874060Y-119096542D02*
X109802631Y-119239400D01*
X109802631Y-119239400D02*
X109659774Y-119310828D01*
X109659774Y-119310828D02*
X109516917Y-119310828D01*
X109016917Y-119167971D02*
X108945488Y-119239400D01*
X108945488Y-119239400D02*
X109016917Y-119310828D01*
X109016917Y-119310828D02*
X109088345Y-119239400D01*
X109088345Y-119239400D02*
X109016917Y-119167971D01*
X109016917Y-119167971D02*
X109016917Y-119310828D01*
X147445489Y-121725828D02*
X147445489Y-120225828D01*
X145588346Y-121725828D02*
X145588346Y-120725828D01*
X145588346Y-120868685D02*
X145516917Y-120797257D01*
X145516917Y-120797257D02*
X145374060Y-120725828D01*
X145374060Y-120725828D02*
X145159774Y-120725828D01*
X145159774Y-120725828D02*
X145016917Y-120797257D01*
X145016917Y-120797257D02*
X144945489Y-120940114D01*
X144945489Y-120940114D02*
X144945489Y-121725828D01*
X144945489Y-120940114D02*
X144874060Y-120797257D01*
X144874060Y-120797257D02*
X144731203Y-120725828D01*
X144731203Y-120725828D02*
X144516917Y-120725828D01*
X144516917Y-120725828D02*
X144374060Y-120797257D01*
X144374060Y-120797257D02*
X144302631Y-120940114D01*
X144302631Y-120940114D02*
X144302631Y-121725828D01*
X142945489Y-121725828D02*
X142945489Y-120940114D01*
X142945489Y-120940114D02*
X143016917Y-120797257D01*
X143016917Y-120797257D02*
X143159774Y-120725828D01*
X143159774Y-120725828D02*
X143445489Y-120725828D01*
X143445489Y-120725828D02*
X143588346Y-120797257D01*
X142945489Y-121654400D02*
X143088346Y-121725828D01*
X143088346Y-121725828D02*
X143445489Y-121725828D01*
X143445489Y-121725828D02*
X143588346Y-121654400D01*
X143588346Y-121654400D02*
X143659774Y-121511542D01*
X143659774Y-121511542D02*
X143659774Y-121368685D01*
X143659774Y-121368685D02*
X143588346Y-121225828D01*
X143588346Y-121225828D02*
X143445489Y-121154400D01*
X143445489Y-121154400D02*
X143088346Y-121154400D01*
X143088346Y-121154400D02*
X142945489Y-121082971D01*
X142374060Y-120725828D02*
X142016917Y-121725828D01*
X141659774Y-120725828D02*
X142016917Y-121725828D01*
X142016917Y-121725828D02*
X142159774Y-122082971D01*
X142159774Y-122082971D02*
X142231203Y-122154400D01*
X142231203Y-122154400D02*
X142374060Y-122225828D01*
X141088346Y-121582971D02*
X141016917Y-121654400D01*
X141016917Y-121654400D02*
X141088346Y-121725828D01*
X141088346Y-121725828D02*
X141159774Y-121654400D01*
X141159774Y-121654400D02*
X141088346Y-121582971D01*
X141088346Y-121582971D02*
X141088346Y-121725828D01*
X139231203Y-120940114D02*
X138731203Y-120940114D01*
X138516917Y-121725828D02*
X139231203Y-121725828D01*
X139231203Y-121725828D02*
X139231203Y-120225828D01*
X139231203Y-120225828D02*
X138516917Y-120225828D01*
X136516917Y-121725828D02*
X136659774Y-121654400D01*
X136659774Y-121654400D02*
X136731203Y-121582971D01*
X136731203Y-121582971D02*
X136802631Y-121440114D01*
X136802631Y-121440114D02*
X136802631Y-121011542D01*
X136802631Y-121011542D02*
X136731203Y-120868685D01*
X136731203Y-120868685D02*
X136659774Y-120797257D01*
X136659774Y-120797257D02*
X136516917Y-120725828D01*
X136516917Y-120725828D02*
X136302631Y-120725828D01*
X136302631Y-120725828D02*
X136159774Y-120797257D01*
X136159774Y-120797257D02*
X136088346Y-120868685D01*
X136088346Y-120868685D02*
X136016917Y-121011542D01*
X136016917Y-121011542D02*
X136016917Y-121440114D01*
X136016917Y-121440114D02*
X136088346Y-121582971D01*
X136088346Y-121582971D02*
X136159774Y-121654400D01*
X136159774Y-121654400D02*
X136302631Y-121725828D01*
X136302631Y-121725828D02*
X136516917Y-121725828D01*
X134731203Y-120725828D02*
X134731203Y-121725828D01*
X135374060Y-120725828D02*
X135374060Y-121511542D01*
X135374060Y-121511542D02*
X135302631Y-121654400D01*
X135302631Y-121654400D02*
X135159774Y-121725828D01*
X135159774Y-121725828D02*
X134945488Y-121725828D01*
X134945488Y-121725828D02*
X134802631Y-121654400D01*
X134802631Y-121654400D02*
X134731203Y-121582971D01*
X134016917Y-121725828D02*
X134016917Y-120725828D01*
X134016917Y-121011542D02*
X133945488Y-120868685D01*
X133945488Y-120868685D02*
X133874060Y-120797257D01*
X133874060Y-120797257D02*
X133731202Y-120725828D01*
X133731202Y-120725828D02*
X133588345Y-120725828D01*
X131731203Y-121725828D02*
X131874060Y-121654400D01*
X131874060Y-121654400D02*
X131945489Y-121582971D01*
X131945489Y-121582971D02*
X132016917Y-121440114D01*
X132016917Y-121440114D02*
X132016917Y-121011542D01*
X132016917Y-121011542D02*
X131945489Y-120868685D01*
X131945489Y-120868685D02*
X131874060Y-120797257D01*
X131874060Y-120797257D02*
X131731203Y-120725828D01*
X131731203Y-120725828D02*
X131516917Y-120725828D01*
X131516917Y-120725828D02*
X131374060Y-120797257D01*
X131374060Y-120797257D02*
X131302632Y-120868685D01*
X131302632Y-120868685D02*
X131231203Y-121011542D01*
X131231203Y-121011542D02*
X131231203Y-121440114D01*
X131231203Y-121440114D02*
X131302632Y-121582971D01*
X131302632Y-121582971D02*
X131374060Y-121654400D01*
X131374060Y-121654400D02*
X131516917Y-121725828D01*
X131516917Y-121725828D02*
X131731203Y-121725828D01*
X130802631Y-120725828D02*
X130231203Y-120725828D01*
X130588346Y-121725828D02*
X130588346Y-120440114D01*
X130588346Y-120440114D02*
X130516917Y-120297257D01*
X130516917Y-120297257D02*
X130374060Y-120225828D01*
X130374060Y-120225828D02*
X130231203Y-120225828D01*
X129945488Y-120725828D02*
X129374060Y-120725828D01*
X129731203Y-121725828D02*
X129731203Y-120440114D01*
X129731203Y-120440114D02*
X129659774Y-120297257D01*
X129659774Y-120297257D02*
X129516917Y-120225828D01*
X129516917Y-120225828D02*
X129374060Y-120225828D01*
X127088346Y-121654400D02*
X127231203Y-121725828D01*
X127231203Y-121725828D02*
X127516917Y-121725828D01*
X127516917Y-121725828D02*
X127659774Y-121654400D01*
X127659774Y-121654400D02*
X127731203Y-121582971D01*
X127731203Y-121582971D02*
X127802631Y-121440114D01*
X127802631Y-121440114D02*
X127802631Y-121011542D01*
X127802631Y-121011542D02*
X127731203Y-120868685D01*
X127731203Y-120868685D02*
X127659774Y-120797257D01*
X127659774Y-120797257D02*
X127516917Y-120725828D01*
X127516917Y-120725828D02*
X127231203Y-120725828D01*
X127231203Y-120725828D02*
X127088346Y-120797257D01*
X126231203Y-121725828D02*
X126374060Y-121654400D01*
X126374060Y-121654400D02*
X126445489Y-121582971D01*
X126445489Y-121582971D02*
X126516917Y-121440114D01*
X126516917Y-121440114D02*
X126516917Y-121011542D01*
X126516917Y-121011542D02*
X126445489Y-120868685D01*
X126445489Y-120868685D02*
X126374060Y-120797257D01*
X126374060Y-120797257D02*
X126231203Y-120725828D01*
X126231203Y-120725828D02*
X126016917Y-120725828D01*
X126016917Y-120725828D02*
X125874060Y-120797257D01*
X125874060Y-120797257D02*
X125802632Y-120868685D01*
X125802632Y-120868685D02*
X125731203Y-121011542D01*
X125731203Y-121011542D02*
X125731203Y-121440114D01*
X125731203Y-121440114D02*
X125802632Y-121582971D01*
X125802632Y-121582971D02*
X125874060Y-121654400D01*
X125874060Y-121654400D02*
X126016917Y-121725828D01*
X126016917Y-121725828D02*
X126231203Y-121725828D01*
X125088346Y-121725828D02*
X125088346Y-120725828D01*
X125088346Y-120868685D02*
X125016917Y-120797257D01*
X125016917Y-120797257D02*
X124874060Y-120725828D01*
X124874060Y-120725828D02*
X124659774Y-120725828D01*
X124659774Y-120725828D02*
X124516917Y-120797257D01*
X124516917Y-120797257D02*
X124445489Y-120940114D01*
X124445489Y-120940114D02*
X124445489Y-121725828D01*
X124445489Y-120940114D02*
X124374060Y-120797257D01*
X124374060Y-120797257D02*
X124231203Y-120725828D01*
X124231203Y-120725828D02*
X124016917Y-120725828D01*
X124016917Y-120725828D02*
X123874060Y-120797257D01*
X123874060Y-120797257D02*
X123802631Y-120940114D01*
X123802631Y-120940114D02*
X123802631Y-121725828D01*
X123088346Y-121725828D02*
X123088346Y-120725828D01*
X123088346Y-120868685D02*
X123016917Y-120797257D01*
X123016917Y-120797257D02*
X122874060Y-120725828D01*
X122874060Y-120725828D02*
X122659774Y-120725828D01*
X122659774Y-120725828D02*
X122516917Y-120797257D01*
X122516917Y-120797257D02*
X122445489Y-120940114D01*
X122445489Y-120940114D02*
X122445489Y-121725828D01*
X122445489Y-120940114D02*
X122374060Y-120797257D01*
X122374060Y-120797257D02*
X122231203Y-120725828D01*
X122231203Y-120725828D02*
X122016917Y-120725828D01*
X122016917Y-120725828D02*
X121874060Y-120797257D01*
X121874060Y-120797257D02*
X121802631Y-120940114D01*
X121802631Y-120940114D02*
X121802631Y-121725828D01*
X121088346Y-121725828D02*
X121088346Y-120725828D01*
X121088346Y-120868685D02*
X121016917Y-120797257D01*
X121016917Y-120797257D02*
X120874060Y-120725828D01*
X120874060Y-120725828D02*
X120659774Y-120725828D01*
X120659774Y-120725828D02*
X120516917Y-120797257D01*
X120516917Y-120797257D02*
X120445489Y-120940114D01*
X120445489Y-120940114D02*
X120445489Y-121725828D01*
X120445489Y-120940114D02*
X120374060Y-120797257D01*
X120374060Y-120797257D02*
X120231203Y-120725828D01*
X120231203Y-120725828D02*
X120016917Y-120725828D01*
X120016917Y-120725828D02*
X119874060Y-120797257D01*
X119874060Y-120797257D02*
X119802631Y-120940114D01*
X119802631Y-120940114D02*
X119802631Y-121725828D01*
X119088346Y-121725828D02*
X119088346Y-120725828D01*
X119088346Y-120225828D02*
X119159774Y-120297257D01*
X119159774Y-120297257D02*
X119088346Y-120368685D01*
X119088346Y-120368685D02*
X119016917Y-120297257D01*
X119016917Y-120297257D02*
X119088346Y-120225828D01*
X119088346Y-120225828D02*
X119088346Y-120368685D01*
X117731203Y-121725828D02*
X117731203Y-120225828D01*
X117731203Y-121654400D02*
X117874060Y-121725828D01*
X117874060Y-121725828D02*
X118159774Y-121725828D01*
X118159774Y-121725828D02*
X118302631Y-121654400D01*
X118302631Y-121654400D02*
X118374060Y-121582971D01*
X118374060Y-121582971D02*
X118445488Y-121440114D01*
X118445488Y-121440114D02*
X118445488Y-121011542D01*
X118445488Y-121011542D02*
X118374060Y-120868685D01*
X118374060Y-120868685D02*
X118302631Y-120797257D01*
X118302631Y-120797257D02*
X118159774Y-120725828D01*
X118159774Y-120725828D02*
X117874060Y-120725828D01*
X117874060Y-120725828D02*
X117731203Y-120797257D01*
X117016917Y-121725828D02*
X117016917Y-120725828D01*
X117016917Y-120225828D02*
X117088345Y-120297257D01*
X117088345Y-120297257D02*
X117016917Y-120368685D01*
X117016917Y-120368685D02*
X116945488Y-120297257D01*
X116945488Y-120297257D02*
X117016917Y-120225828D01*
X117016917Y-120225828D02*
X117016917Y-120368685D01*
X116302631Y-121725828D02*
X116302631Y-120725828D01*
X116302631Y-120225828D02*
X116374059Y-120297257D01*
X116374059Y-120297257D02*
X116302631Y-120368685D01*
X116302631Y-120368685D02*
X116231202Y-120297257D01*
X116231202Y-120297257D02*
X116302631Y-120225828D01*
X116302631Y-120225828D02*
X116302631Y-120368685D01*
X115588345Y-121725828D02*
X115588345Y-120225828D01*
X115588345Y-120797257D02*
X115445488Y-120725828D01*
X115445488Y-120725828D02*
X115159773Y-120725828D01*
X115159773Y-120725828D02*
X115016916Y-120797257D01*
X115016916Y-120797257D02*
X114945488Y-120868685D01*
X114945488Y-120868685D02*
X114874059Y-121011542D01*
X114874059Y-121011542D02*
X114874059Y-121440114D01*
X114874059Y-121440114D02*
X114945488Y-121582971D01*
X114945488Y-121582971D02*
X115016916Y-121654400D01*
X115016916Y-121654400D02*
X115159773Y-121725828D01*
X115159773Y-121725828D02*
X115445488Y-121725828D01*
X115445488Y-121725828D02*
X115588345Y-121654400D01*
X147445489Y-126555828D02*
X147445489Y-125055828D01*
X147445489Y-125055828D02*
X146945489Y-126127257D01*
X146945489Y-126127257D02*
X146445489Y-125055828D01*
X146445489Y-125055828D02*
X146445489Y-126555828D01*
X144731203Y-125555828D02*
X144445489Y-126555828D01*
X144445489Y-126555828D02*
X144159774Y-125841542D01*
X144159774Y-125841542D02*
X143874060Y-126555828D01*
X143874060Y-126555828D02*
X143588346Y-125555828D01*
X142445488Y-126484400D02*
X142588345Y-126555828D01*
X142588345Y-126555828D02*
X142874060Y-126555828D01*
X142874060Y-126555828D02*
X143016917Y-126484400D01*
X143016917Y-126484400D02*
X143088345Y-126341542D01*
X143088345Y-126341542D02*
X143088345Y-125770114D01*
X143088345Y-125770114D02*
X143016917Y-125627257D01*
X143016917Y-125627257D02*
X142874060Y-125555828D01*
X142874060Y-125555828D02*
X142588345Y-125555828D01*
X142588345Y-125555828D02*
X142445488Y-125627257D01*
X142445488Y-125627257D02*
X142374060Y-125770114D01*
X142374060Y-125770114D02*
X142374060Y-125912971D01*
X142374060Y-125912971D02*
X143088345Y-126055828D01*
X139231203Y-126555828D02*
X139374060Y-126484400D01*
X139374060Y-126484400D02*
X139445489Y-126412971D01*
X139445489Y-126412971D02*
X139516917Y-126270114D01*
X139516917Y-126270114D02*
X139516917Y-125841542D01*
X139516917Y-125841542D02*
X139445489Y-125698685D01*
X139445489Y-125698685D02*
X139374060Y-125627257D01*
X139374060Y-125627257D02*
X139231203Y-125555828D01*
X139231203Y-125555828D02*
X139016917Y-125555828D01*
X139016917Y-125555828D02*
X138874060Y-125627257D01*
X138874060Y-125627257D02*
X138802632Y-125698685D01*
X138802632Y-125698685D02*
X138731203Y-125841542D01*
X138731203Y-125841542D02*
X138731203Y-126270114D01*
X138731203Y-126270114D02*
X138802632Y-126412971D01*
X138802632Y-126412971D02*
X138874060Y-126484400D01*
X138874060Y-126484400D02*
X139016917Y-126555828D01*
X139016917Y-126555828D02*
X139231203Y-126555828D01*
X136945489Y-126555828D02*
X136945489Y-125055828D01*
X136945489Y-125627257D02*
X136802632Y-125555828D01*
X136802632Y-125555828D02*
X136516917Y-125555828D01*
X136516917Y-125555828D02*
X136374060Y-125627257D01*
X136374060Y-125627257D02*
X136302632Y-125698685D01*
X136302632Y-125698685D02*
X136231203Y-125841542D01*
X136231203Y-125841542D02*
X136231203Y-126270114D01*
X136231203Y-126270114D02*
X136302632Y-126412971D01*
X136302632Y-126412971D02*
X136374060Y-126484400D01*
X136374060Y-126484400D02*
X136516917Y-126555828D01*
X136516917Y-126555828D02*
X136802632Y-126555828D01*
X136802632Y-126555828D02*
X136945489Y-126484400D01*
X135016917Y-126484400D02*
X135159774Y-126555828D01*
X135159774Y-126555828D02*
X135445489Y-126555828D01*
X135445489Y-126555828D02*
X135588346Y-126484400D01*
X135588346Y-126484400D02*
X135659774Y-126341542D01*
X135659774Y-126341542D02*
X135659774Y-125770114D01*
X135659774Y-125770114D02*
X135588346Y-125627257D01*
X135588346Y-125627257D02*
X135445489Y-125555828D01*
X135445489Y-125555828D02*
X135159774Y-125555828D01*
X135159774Y-125555828D02*
X135016917Y-125627257D01*
X135016917Y-125627257D02*
X134945489Y-125770114D01*
X134945489Y-125770114D02*
X134945489Y-125912971D01*
X134945489Y-125912971D02*
X135659774Y-126055828D01*
X133374060Y-125555828D02*
X132802632Y-125555828D01*
X133159775Y-125055828D02*
X133159775Y-126341542D01*
X133159775Y-126341542D02*
X133088346Y-126484400D01*
X133088346Y-126484400D02*
X132945489Y-126555828D01*
X132945489Y-126555828D02*
X132802632Y-126555828D01*
X132302632Y-126555828D02*
X132302632Y-125055828D01*
X131659775Y-126555828D02*
X131659775Y-125770114D01*
X131659775Y-125770114D02*
X131731203Y-125627257D01*
X131731203Y-125627257D02*
X131874060Y-125555828D01*
X131874060Y-125555828D02*
X132088346Y-125555828D01*
X132088346Y-125555828D02*
X132231203Y-125627257D01*
X132231203Y-125627257D02*
X132302632Y-125698685D01*
X130374060Y-126484400D02*
X130516917Y-126555828D01*
X130516917Y-126555828D02*
X130802632Y-126555828D01*
X130802632Y-126555828D02*
X130945489Y-126484400D01*
X130945489Y-126484400D02*
X131016917Y-126341542D01*
X131016917Y-126341542D02*
X131016917Y-125770114D01*
X131016917Y-125770114D02*
X130945489Y-125627257D01*
X130945489Y-125627257D02*
X130802632Y-125555828D01*
X130802632Y-125555828D02*
X130516917Y-125555828D01*
X130516917Y-125555828D02*
X130374060Y-125627257D01*
X130374060Y-125627257D02*
X130302632Y-125770114D01*
X130302632Y-125770114D02*
X130302632Y-125912971D01*
X130302632Y-125912971D02*
X131016917Y-126055828D01*
X129659775Y-126555828D02*
X129659775Y-125555828D01*
X129659775Y-125841542D02*
X129588346Y-125698685D01*
X129588346Y-125698685D02*
X129516918Y-125627257D01*
X129516918Y-125627257D02*
X129374060Y-125555828D01*
X129374060Y-125555828D02*
X129231203Y-125555828D01*
X128159775Y-126484400D02*
X128302632Y-126555828D01*
X128302632Y-126555828D02*
X128588347Y-126555828D01*
X128588347Y-126555828D02*
X128731204Y-126484400D01*
X128731204Y-126484400D02*
X128802632Y-126341542D01*
X128802632Y-126341542D02*
X128802632Y-125770114D01*
X128802632Y-125770114D02*
X128731204Y-125627257D01*
X128731204Y-125627257D02*
X128588347Y-125555828D01*
X128588347Y-125555828D02*
X128302632Y-125555828D01*
X128302632Y-125555828D02*
X128159775Y-125627257D01*
X128159775Y-125627257D02*
X128088347Y-125770114D01*
X128088347Y-125770114D02*
X128088347Y-125912971D01*
X128088347Y-125912971D02*
X128802632Y-126055828D01*
X126302633Y-126555828D02*
X126302633Y-125055828D01*
X126302633Y-125770114D02*
X125445490Y-125770114D01*
X125445490Y-126555828D02*
X125445490Y-125055828D01*
X124088347Y-126555828D02*
X124088347Y-125770114D01*
X124088347Y-125770114D02*
X124159775Y-125627257D01*
X124159775Y-125627257D02*
X124302632Y-125555828D01*
X124302632Y-125555828D02*
X124588347Y-125555828D01*
X124588347Y-125555828D02*
X124731204Y-125627257D01*
X124088347Y-126484400D02*
X124231204Y-126555828D01*
X124231204Y-126555828D02*
X124588347Y-126555828D01*
X124588347Y-126555828D02*
X124731204Y-126484400D01*
X124731204Y-126484400D02*
X124802632Y-126341542D01*
X124802632Y-126341542D02*
X124802632Y-126198685D01*
X124802632Y-126198685D02*
X124731204Y-126055828D01*
X124731204Y-126055828D02*
X124588347Y-125984400D01*
X124588347Y-125984400D02*
X124231204Y-125984400D01*
X124231204Y-125984400D02*
X124088347Y-125912971D01*
X123374061Y-125555828D02*
X123374061Y-126555828D01*
X123374061Y-125698685D02*
X123302632Y-125627257D01*
X123302632Y-125627257D02*
X123159775Y-125555828D01*
X123159775Y-125555828D02*
X122945489Y-125555828D01*
X122945489Y-125555828D02*
X122802632Y-125627257D01*
X122802632Y-125627257D02*
X122731204Y-125770114D01*
X122731204Y-125770114D02*
X122731204Y-126555828D01*
X122016918Y-125555828D02*
X122016918Y-126555828D01*
X122016918Y-125698685D02*
X121945489Y-125627257D01*
X121945489Y-125627257D02*
X121802632Y-125555828D01*
X121802632Y-125555828D02*
X121588346Y-125555828D01*
X121588346Y-125555828D02*
X121445489Y-125627257D01*
X121445489Y-125627257D02*
X121374061Y-125770114D01*
X121374061Y-125770114D02*
X121374061Y-126555828D01*
X120016918Y-126555828D02*
X120016918Y-125770114D01*
X120016918Y-125770114D02*
X120088346Y-125627257D01*
X120088346Y-125627257D02*
X120231203Y-125555828D01*
X120231203Y-125555828D02*
X120516918Y-125555828D01*
X120516918Y-125555828D02*
X120659775Y-125627257D01*
X120016918Y-126484400D02*
X120159775Y-126555828D01*
X120159775Y-126555828D02*
X120516918Y-126555828D01*
X120516918Y-126555828D02*
X120659775Y-126484400D01*
X120659775Y-126484400D02*
X120731203Y-126341542D01*
X120731203Y-126341542D02*
X120731203Y-126198685D01*
X120731203Y-126198685D02*
X120659775Y-126055828D01*
X120659775Y-126055828D02*
X120516918Y-125984400D01*
X120516918Y-125984400D02*
X120159775Y-125984400D01*
X120159775Y-125984400D02*
X120016918Y-125912971D01*
X119302632Y-126555828D02*
X119302632Y-125055828D01*
X118659775Y-126555828D02*
X118659775Y-125770114D01*
X118659775Y-125770114D02*
X118731203Y-125627257D01*
X118731203Y-125627257D02*
X118874060Y-125555828D01*
X118874060Y-125555828D02*
X119088346Y-125555828D01*
X119088346Y-125555828D02*
X119231203Y-125627257D01*
X119231203Y-125627257D02*
X119302632Y-125698685D01*
X117874060Y-125055828D02*
X118016917Y-125341542D01*
X117302631Y-126484400D02*
X117159774Y-126555828D01*
X117159774Y-126555828D02*
X116874060Y-126555828D01*
X116874060Y-126555828D02*
X116731203Y-126484400D01*
X116731203Y-126484400D02*
X116659774Y-126341542D01*
X116659774Y-126341542D02*
X116659774Y-126270114D01*
X116659774Y-126270114D02*
X116731203Y-126127257D01*
X116731203Y-126127257D02*
X116874060Y-126055828D01*
X116874060Y-126055828D02*
X117088346Y-126055828D01*
X117088346Y-126055828D02*
X117231203Y-125984400D01*
X117231203Y-125984400D02*
X117302631Y-125841542D01*
X117302631Y-125841542D02*
X117302631Y-125770114D01*
X117302631Y-125770114D02*
X117231203Y-125627257D01*
X117231203Y-125627257D02*
X117088346Y-125555828D01*
X117088346Y-125555828D02*
X116874060Y-125555828D01*
X116874060Y-125555828D02*
X116731203Y-125627257D01*
X114231203Y-126484400D02*
X114374060Y-126555828D01*
X114374060Y-126555828D02*
X114659774Y-126555828D01*
X114659774Y-126555828D02*
X114802631Y-126484400D01*
X114802631Y-126484400D02*
X114874060Y-126412971D01*
X114874060Y-126412971D02*
X114945488Y-126270114D01*
X114945488Y-126270114D02*
X114945488Y-125841542D01*
X114945488Y-125841542D02*
X114874060Y-125698685D01*
X114874060Y-125698685D02*
X114802631Y-125627257D01*
X114802631Y-125627257D02*
X114659774Y-125555828D01*
X114659774Y-125555828D02*
X114374060Y-125555828D01*
X114374060Y-125555828D02*
X114231203Y-125627257D01*
X113374060Y-126555828D02*
X113516917Y-126484400D01*
X113516917Y-126484400D02*
X113588346Y-126412971D01*
X113588346Y-126412971D02*
X113659774Y-126270114D01*
X113659774Y-126270114D02*
X113659774Y-125841542D01*
X113659774Y-125841542D02*
X113588346Y-125698685D01*
X113588346Y-125698685D02*
X113516917Y-125627257D01*
X113516917Y-125627257D02*
X113374060Y-125555828D01*
X113374060Y-125555828D02*
X113159774Y-125555828D01*
X113159774Y-125555828D02*
X113016917Y-125627257D01*
X113016917Y-125627257D02*
X112945489Y-125698685D01*
X112945489Y-125698685D02*
X112874060Y-125841542D01*
X112874060Y-125841542D02*
X112874060Y-126270114D01*
X112874060Y-126270114D02*
X112945489Y-126412971D01*
X112945489Y-126412971D02*
X113016917Y-126484400D01*
X113016917Y-126484400D02*
X113159774Y-126555828D01*
X113159774Y-126555828D02*
X113374060Y-126555828D01*
X112231203Y-126555828D02*
X112231203Y-125555828D01*
X112231203Y-125055828D02*
X112302631Y-125127257D01*
X112302631Y-125127257D02*
X112231203Y-125198685D01*
X112231203Y-125198685D02*
X112159774Y-125127257D01*
X112159774Y-125127257D02*
X112231203Y-125055828D01*
X112231203Y-125055828D02*
X112231203Y-125198685D01*
X111302631Y-126555828D02*
X111445488Y-126484400D01*
X111445488Y-126484400D02*
X111516917Y-126341542D01*
X111516917Y-126341542D02*
X111516917Y-125055828D01*
X147445489Y-131385828D02*
X147445489Y-129885828D01*
X144945489Y-131385828D02*
X144945489Y-130600114D01*
X144945489Y-130600114D02*
X145016917Y-130457257D01*
X145016917Y-130457257D02*
X145159774Y-130385828D01*
X145159774Y-130385828D02*
X145445489Y-130385828D01*
X145445489Y-130385828D02*
X145588346Y-130457257D01*
X144945489Y-131314400D02*
X145088346Y-131385828D01*
X145088346Y-131385828D02*
X145445489Y-131385828D01*
X145445489Y-131385828D02*
X145588346Y-131314400D01*
X145588346Y-131314400D02*
X145659774Y-131171542D01*
X145659774Y-131171542D02*
X145659774Y-131028685D01*
X145659774Y-131028685D02*
X145588346Y-130885828D01*
X145588346Y-130885828D02*
X145445489Y-130814400D01*
X145445489Y-130814400D02*
X145088346Y-130814400D01*
X145088346Y-130814400D02*
X144945489Y-130742971D01*
X144231203Y-131385828D02*
X144231203Y-130385828D01*
X144231203Y-130528685D02*
X144159774Y-130457257D01*
X144159774Y-130457257D02*
X144016917Y-130385828D01*
X144016917Y-130385828D02*
X143802631Y-130385828D01*
X143802631Y-130385828D02*
X143659774Y-130457257D01*
X143659774Y-130457257D02*
X143588346Y-130600114D01*
X143588346Y-130600114D02*
X143588346Y-131385828D01*
X143588346Y-130600114D02*
X143516917Y-130457257D01*
X143516917Y-130457257D02*
X143374060Y-130385828D01*
X143374060Y-130385828D02*
X143159774Y-130385828D01*
X143159774Y-130385828D02*
X143016917Y-130457257D01*
X143016917Y-130457257D02*
X142945488Y-130600114D01*
X142945488Y-130600114D02*
X142945488Y-131385828D01*
X140874060Y-131385828D02*
X141016917Y-131314400D01*
X141016917Y-131314400D02*
X141088346Y-131242971D01*
X141088346Y-131242971D02*
X141159774Y-131100114D01*
X141159774Y-131100114D02*
X141159774Y-130671542D01*
X141159774Y-130671542D02*
X141088346Y-130528685D01*
X141088346Y-130528685D02*
X141016917Y-130457257D01*
X141016917Y-130457257D02*
X140874060Y-130385828D01*
X140874060Y-130385828D02*
X140659774Y-130385828D01*
X140659774Y-130385828D02*
X140516917Y-130457257D01*
X140516917Y-130457257D02*
X140445489Y-130528685D01*
X140445489Y-130528685D02*
X140374060Y-130671542D01*
X140374060Y-130671542D02*
X140374060Y-131100114D01*
X140374060Y-131100114D02*
X140445489Y-131242971D01*
X140445489Y-131242971D02*
X140516917Y-131314400D01*
X140516917Y-131314400D02*
X140659774Y-131385828D01*
X140659774Y-131385828D02*
X140874060Y-131385828D01*
X139945488Y-130385828D02*
X139374060Y-130385828D01*
X139731203Y-131385828D02*
X139731203Y-130100114D01*
X139731203Y-130100114D02*
X139659774Y-129957257D01*
X139659774Y-129957257D02*
X139516917Y-129885828D01*
X139516917Y-129885828D02*
X139374060Y-129885828D01*
X139088345Y-130385828D02*
X138516917Y-130385828D01*
X138874060Y-131385828D02*
X138874060Y-130100114D01*
X138874060Y-130100114D02*
X138802631Y-129957257D01*
X138802631Y-129957257D02*
X138659774Y-129885828D01*
X138659774Y-129885828D02*
X138516917Y-129885828D01*
X136874060Y-131385828D02*
X136874060Y-129885828D01*
X136874060Y-130457257D02*
X136731203Y-130385828D01*
X136731203Y-130385828D02*
X136445488Y-130385828D01*
X136445488Y-130385828D02*
X136302631Y-130457257D01*
X136302631Y-130457257D02*
X136231203Y-130528685D01*
X136231203Y-130528685D02*
X136159774Y-130671542D01*
X136159774Y-130671542D02*
X136159774Y-131100114D01*
X136159774Y-131100114D02*
X136231203Y-131242971D01*
X136231203Y-131242971D02*
X136302631Y-131314400D01*
X136302631Y-131314400D02*
X136445488Y-131385828D01*
X136445488Y-131385828D02*
X136731203Y-131385828D01*
X136731203Y-131385828D02*
X136874060Y-131314400D01*
X134874060Y-130385828D02*
X134874060Y-131385828D01*
X135516917Y-130385828D02*
X135516917Y-131171542D01*
X135516917Y-131171542D02*
X135445488Y-131314400D01*
X135445488Y-131314400D02*
X135302631Y-131385828D01*
X135302631Y-131385828D02*
X135088345Y-131385828D01*
X135088345Y-131385828D02*
X134945488Y-131314400D01*
X134945488Y-131314400D02*
X134874060Y-131242971D01*
X134374059Y-130385828D02*
X133802631Y-130385828D01*
X134159774Y-129885828D02*
X134159774Y-131171542D01*
X134159774Y-131171542D02*
X134088345Y-131314400D01*
X134088345Y-131314400D02*
X133945488Y-131385828D01*
X133945488Y-131385828D02*
X133802631Y-131385828D01*
X132231202Y-131314400D02*
X132088345Y-131385828D01*
X132088345Y-131385828D02*
X131802631Y-131385828D01*
X131802631Y-131385828D02*
X131659774Y-131314400D01*
X131659774Y-131314400D02*
X131588345Y-131171542D01*
X131588345Y-131171542D02*
X131588345Y-131100114D01*
X131588345Y-131100114D02*
X131659774Y-130957257D01*
X131659774Y-130957257D02*
X131802631Y-130885828D01*
X131802631Y-130885828D02*
X132016917Y-130885828D01*
X132016917Y-130885828D02*
X132159774Y-130814400D01*
X132159774Y-130814400D02*
X132231202Y-130671542D01*
X132231202Y-130671542D02*
X132231202Y-130600114D01*
X132231202Y-130600114D02*
X132159774Y-130457257D01*
X132159774Y-130457257D02*
X132016917Y-130385828D01*
X132016917Y-130385828D02*
X131802631Y-130385828D01*
X131802631Y-130385828D02*
X131659774Y-130457257D01*
X130945488Y-131385828D02*
X130945488Y-129885828D01*
X130302631Y-131385828D02*
X130302631Y-130600114D01*
X130302631Y-130600114D02*
X130374059Y-130457257D01*
X130374059Y-130457257D02*
X130516916Y-130385828D01*
X130516916Y-130385828D02*
X130731202Y-130385828D01*
X130731202Y-130385828D02*
X130874059Y-130457257D01*
X130874059Y-130457257D02*
X130945488Y-130528685D01*
X129016916Y-131314400D02*
X129159773Y-131385828D01*
X129159773Y-131385828D02*
X129445488Y-131385828D01*
X129445488Y-131385828D02*
X129588345Y-131314400D01*
X129588345Y-131314400D02*
X129659773Y-131171542D01*
X129659773Y-131171542D02*
X129659773Y-130600114D01*
X129659773Y-130600114D02*
X129588345Y-130457257D01*
X129588345Y-130457257D02*
X129445488Y-130385828D01*
X129445488Y-130385828D02*
X129159773Y-130385828D01*
X129159773Y-130385828D02*
X129016916Y-130457257D01*
X129016916Y-130457257D02*
X128945488Y-130600114D01*
X128945488Y-130600114D02*
X128945488Y-130742971D01*
X128945488Y-130742971D02*
X129659773Y-130885828D01*
X127159774Y-131385828D02*
X127159774Y-130385828D01*
X127159774Y-129885828D02*
X127231202Y-129957257D01*
X127231202Y-129957257D02*
X127159774Y-130028685D01*
X127159774Y-130028685D02*
X127088345Y-129957257D01*
X127088345Y-129957257D02*
X127159774Y-129885828D01*
X127159774Y-129885828D02*
X127159774Y-130028685D01*
X126516916Y-131314400D02*
X126374059Y-131385828D01*
X126374059Y-131385828D02*
X126088345Y-131385828D01*
X126088345Y-131385828D02*
X125945488Y-131314400D01*
X125945488Y-131314400D02*
X125874059Y-131171542D01*
X125874059Y-131171542D02*
X125874059Y-131100114D01*
X125874059Y-131100114D02*
X125945488Y-130957257D01*
X125945488Y-130957257D02*
X126088345Y-130885828D01*
X126088345Y-130885828D02*
X126302631Y-130885828D01*
X126302631Y-130885828D02*
X126445488Y-130814400D01*
X126445488Y-130814400D02*
X126516916Y-130671542D01*
X126516916Y-130671542D02*
X126516916Y-130600114D01*
X126516916Y-130600114D02*
X126445488Y-130457257D01*
X126445488Y-130457257D02*
X126302631Y-130385828D01*
X126302631Y-130385828D02*
X126088345Y-130385828D01*
X126088345Y-130385828D02*
X125945488Y-130457257D01*
X123445488Y-131314400D02*
X123588345Y-131385828D01*
X123588345Y-131385828D02*
X123874059Y-131385828D01*
X123874059Y-131385828D02*
X124016916Y-131314400D01*
X124016916Y-131314400D02*
X124088345Y-131242971D01*
X124088345Y-131242971D02*
X124159773Y-131100114D01*
X124159773Y-131100114D02*
X124159773Y-130671542D01*
X124159773Y-130671542D02*
X124088345Y-130528685D01*
X124088345Y-130528685D02*
X124016916Y-130457257D01*
X124016916Y-130457257D02*
X123874059Y-130385828D01*
X123874059Y-130385828D02*
X123588345Y-130385828D01*
X123588345Y-130385828D02*
X123445488Y-130457257D01*
X122588345Y-131385828D02*
X122731202Y-131314400D01*
X122731202Y-131314400D02*
X122802631Y-131242971D01*
X122802631Y-131242971D02*
X122874059Y-131100114D01*
X122874059Y-131100114D02*
X122874059Y-130671542D01*
X122874059Y-130671542D02*
X122802631Y-130528685D01*
X122802631Y-130528685D02*
X122731202Y-130457257D01*
X122731202Y-130457257D02*
X122588345Y-130385828D01*
X122588345Y-130385828D02*
X122374059Y-130385828D01*
X122374059Y-130385828D02*
X122231202Y-130457257D01*
X122231202Y-130457257D02*
X122159774Y-130528685D01*
X122159774Y-130528685D02*
X122088345Y-130671542D01*
X122088345Y-130671542D02*
X122088345Y-131100114D01*
X122088345Y-131100114D02*
X122159774Y-131242971D01*
X122159774Y-131242971D02*
X122231202Y-131314400D01*
X122231202Y-131314400D02*
X122374059Y-131385828D01*
X122374059Y-131385828D02*
X122588345Y-131385828D01*
X121231202Y-131385828D02*
X121374059Y-131314400D01*
X121374059Y-131314400D02*
X121445488Y-131242971D01*
X121445488Y-131242971D02*
X121516916Y-131100114D01*
X121516916Y-131100114D02*
X121516916Y-130671542D01*
X121516916Y-130671542D02*
X121445488Y-130528685D01*
X121445488Y-130528685D02*
X121374059Y-130457257D01*
X121374059Y-130457257D02*
X121231202Y-130385828D01*
X121231202Y-130385828D02*
X121016916Y-130385828D01*
X121016916Y-130385828D02*
X120874059Y-130457257D01*
X120874059Y-130457257D02*
X120802631Y-130528685D01*
X120802631Y-130528685D02*
X120731202Y-130671542D01*
X120731202Y-130671542D02*
X120731202Y-131100114D01*
X120731202Y-131100114D02*
X120802631Y-131242971D01*
X120802631Y-131242971D02*
X120874059Y-131314400D01*
X120874059Y-131314400D02*
X121016916Y-131385828D01*
X121016916Y-131385828D02*
X121231202Y-131385828D01*
X119874059Y-131385828D02*
X120016916Y-131314400D01*
X120016916Y-131314400D02*
X120088345Y-131171542D01*
X120088345Y-131171542D02*
X120088345Y-129885828D01*
X146659774Y-132372257D02*
X146802632Y-132300828D01*
X146802632Y-132300828D02*
X147016917Y-132300828D01*
X147016917Y-132300828D02*
X147231203Y-132372257D01*
X147231203Y-132372257D02*
X147374060Y-132515114D01*
X147374060Y-132515114D02*
X147445489Y-132657971D01*
X147445489Y-132657971D02*
X147516917Y-132943685D01*
X147516917Y-132943685D02*
X147516917Y-133157971D01*
X147516917Y-133157971D02*
X147445489Y-133443685D01*
X147445489Y-133443685D02*
X147374060Y-133586542D01*
X147374060Y-133586542D02*
X147231203Y-133729400D01*
X147231203Y-133729400D02*
X147016917Y-133800828D01*
X147016917Y-133800828D02*
X146874060Y-133800828D01*
X146874060Y-133800828D02*
X146659774Y-133729400D01*
X146659774Y-133729400D02*
X146588346Y-133657971D01*
X146588346Y-133657971D02*
X146588346Y-133157971D01*
X146588346Y-133157971D02*
X146874060Y-133157971D01*
X145374060Y-133729400D02*
X145516917Y-133800828D01*
X145516917Y-133800828D02*
X145802632Y-133800828D01*
X145802632Y-133800828D02*
X145945489Y-133729400D01*
X145945489Y-133729400D02*
X146016917Y-133586542D01*
X146016917Y-133586542D02*
X146016917Y-133015114D01*
X146016917Y-133015114D02*
X145945489Y-132872257D01*
X145945489Y-132872257D02*
X145802632Y-132800828D01*
X145802632Y-132800828D02*
X145516917Y-132800828D01*
X145516917Y-132800828D02*
X145374060Y-132872257D01*
X145374060Y-132872257D02*
X145302632Y-133015114D01*
X145302632Y-133015114D02*
X145302632Y-133157971D01*
X145302632Y-133157971D02*
X146016917Y-133300828D01*
X144874060Y-132800828D02*
X144302632Y-132800828D01*
X144659775Y-132300828D02*
X144659775Y-133586542D01*
X144659775Y-133586542D02*
X144588346Y-133729400D01*
X144588346Y-133729400D02*
X144445489Y-133800828D01*
X144445489Y-133800828D02*
X144302632Y-133800828D01*
X142374060Y-132300828D02*
X142088346Y-132300828D01*
X142088346Y-132300828D02*
X141945489Y-132372257D01*
X141945489Y-132372257D02*
X141802632Y-132515114D01*
X141802632Y-132515114D02*
X141731203Y-132800828D01*
X141731203Y-132800828D02*
X141731203Y-133300828D01*
X141731203Y-133300828D02*
X141802632Y-133586542D01*
X141802632Y-133586542D02*
X141945489Y-133729400D01*
X141945489Y-133729400D02*
X142088346Y-133800828D01*
X142088346Y-133800828D02*
X142374060Y-133800828D01*
X142374060Y-133800828D02*
X142516918Y-133729400D01*
X142516918Y-133729400D02*
X142659775Y-133586542D01*
X142659775Y-133586542D02*
X142731203Y-133300828D01*
X142731203Y-133300828D02*
X142731203Y-132800828D01*
X142731203Y-132800828D02*
X142659775Y-132515114D01*
X142659775Y-132515114D02*
X142516918Y-132372257D01*
X142516918Y-132372257D02*
X142374060Y-132300828D01*
X140445489Y-132800828D02*
X140445489Y-133800828D01*
X141088346Y-132800828D02*
X141088346Y-133586542D01*
X141088346Y-133586542D02*
X141016917Y-133729400D01*
X141016917Y-133729400D02*
X140874060Y-133800828D01*
X140874060Y-133800828D02*
X140659774Y-133800828D01*
X140659774Y-133800828D02*
X140516917Y-133729400D01*
X140516917Y-133729400D02*
X140445489Y-133657971D01*
X139945488Y-132800828D02*
X139374060Y-132800828D01*
X139731203Y-132300828D02*
X139731203Y-133586542D01*
X139731203Y-133586542D02*
X139659774Y-133729400D01*
X139659774Y-133729400D02*
X139516917Y-133800828D01*
X139516917Y-133800828D02*
X139374060Y-133800828D01*
X138659774Y-133800828D02*
X138802631Y-133729400D01*
X138802631Y-133729400D02*
X138874060Y-133586542D01*
X138874060Y-133586542D02*
X138874060Y-132300828D01*
X137874060Y-133800828D02*
X138016917Y-133729400D01*
X138016917Y-133729400D02*
X138088346Y-133657971D01*
X138088346Y-133657971D02*
X138159774Y-133515114D01*
X138159774Y-133515114D02*
X138159774Y-133086542D01*
X138159774Y-133086542D02*
X138088346Y-132943685D01*
X138088346Y-132943685D02*
X138016917Y-132872257D01*
X138016917Y-132872257D02*
X137874060Y-132800828D01*
X137874060Y-132800828D02*
X137659774Y-132800828D01*
X137659774Y-132800828D02*
X137516917Y-132872257D01*
X137516917Y-132872257D02*
X137445489Y-132943685D01*
X137445489Y-132943685D02*
X137374060Y-133086542D01*
X137374060Y-133086542D02*
X137374060Y-133515114D01*
X137374060Y-133515114D02*
X137445489Y-133657971D01*
X137445489Y-133657971D02*
X137516917Y-133729400D01*
X137516917Y-133729400D02*
X137659774Y-133800828D01*
X137659774Y-133800828D02*
X137874060Y-133800828D01*
X136516917Y-133800828D02*
X136659774Y-133729400D01*
X136659774Y-133729400D02*
X136731203Y-133657971D01*
X136731203Y-133657971D02*
X136802631Y-133515114D01*
X136802631Y-133515114D02*
X136802631Y-133086542D01*
X136802631Y-133086542D02*
X136731203Y-132943685D01*
X136731203Y-132943685D02*
X136659774Y-132872257D01*
X136659774Y-132872257D02*
X136516917Y-132800828D01*
X136516917Y-132800828D02*
X136302631Y-132800828D01*
X136302631Y-132800828D02*
X136159774Y-132872257D01*
X136159774Y-132872257D02*
X136088346Y-132943685D01*
X136088346Y-132943685D02*
X136016917Y-133086542D01*
X136016917Y-133086542D02*
X136016917Y-133515114D01*
X136016917Y-133515114D02*
X136088346Y-133657971D01*
X136088346Y-133657971D02*
X136159774Y-133729400D01*
X136159774Y-133729400D02*
X136302631Y-133800828D01*
X136302631Y-133800828D02*
X136516917Y-133800828D01*
X135374060Y-133800828D02*
X135374060Y-132300828D01*
X135231203Y-133229400D02*
X134802631Y-133800828D01*
X134802631Y-132800828D02*
X135374060Y-133372257D01*
X133231202Y-132800828D02*
X132659774Y-132800828D01*
X133016917Y-133800828D02*
X133016917Y-132515114D01*
X133016917Y-132515114D02*
X132945488Y-132372257D01*
X132945488Y-132372257D02*
X132802631Y-132300828D01*
X132802631Y-132300828D02*
X132659774Y-132300828D01*
X131945488Y-133800828D02*
X132088345Y-133729400D01*
X132088345Y-133729400D02*
X132159774Y-133657971D01*
X132159774Y-133657971D02*
X132231202Y-133515114D01*
X132231202Y-133515114D02*
X132231202Y-133086542D01*
X132231202Y-133086542D02*
X132159774Y-132943685D01*
X132159774Y-132943685D02*
X132088345Y-132872257D01*
X132088345Y-132872257D02*
X131945488Y-132800828D01*
X131945488Y-132800828D02*
X131731202Y-132800828D01*
X131731202Y-132800828D02*
X131588345Y-132872257D01*
X131588345Y-132872257D02*
X131516917Y-132943685D01*
X131516917Y-132943685D02*
X131445488Y-133086542D01*
X131445488Y-133086542D02*
X131445488Y-133515114D01*
X131445488Y-133515114D02*
X131516917Y-133657971D01*
X131516917Y-133657971D02*
X131588345Y-133729400D01*
X131588345Y-133729400D02*
X131731202Y-133800828D01*
X131731202Y-133800828D02*
X131945488Y-133800828D01*
X130802631Y-133800828D02*
X130802631Y-132800828D01*
X130802631Y-133086542D02*
X130731202Y-132943685D01*
X130731202Y-132943685D02*
X130659774Y-132872257D01*
X130659774Y-132872257D02*
X130516916Y-132800828D01*
X130516916Y-132800828D02*
X130374059Y-132800828D01*
X128731203Y-133800828D02*
X128731203Y-132800828D01*
X128731203Y-132300828D02*
X128802631Y-132372257D01*
X128802631Y-132372257D02*
X128731203Y-132443685D01*
X128731203Y-132443685D02*
X128659774Y-132372257D01*
X128659774Y-132372257D02*
X128731203Y-132300828D01*
X128731203Y-132300828D02*
X128731203Y-132443685D01*
X127731202Y-132300828D02*
X127445488Y-132300828D01*
X127445488Y-132300828D02*
X127302631Y-132372257D01*
X127302631Y-132372257D02*
X127159774Y-132515114D01*
X127159774Y-132515114D02*
X127088345Y-132800828D01*
X127088345Y-132800828D02*
X127088345Y-133300828D01*
X127088345Y-133300828D02*
X127159774Y-133586542D01*
X127159774Y-133586542D02*
X127302631Y-133729400D01*
X127302631Y-133729400D02*
X127445488Y-133800828D01*
X127445488Y-133800828D02*
X127731202Y-133800828D01*
X127731202Y-133800828D02*
X127874060Y-133729400D01*
X127874060Y-133729400D02*
X128016917Y-133586542D01*
X128016917Y-133586542D02*
X128088345Y-133300828D01*
X128088345Y-133300828D02*
X128088345Y-132800828D01*
X128088345Y-132800828D02*
X128016917Y-132515114D01*
X128016917Y-132515114D02*
X127874060Y-132372257D01*
X127874060Y-132372257D02*
X127731202Y-132300828D01*
X126516916Y-133729400D02*
X126302631Y-133800828D01*
X126302631Y-133800828D02*
X125945488Y-133800828D01*
X125945488Y-133800828D02*
X125802631Y-133729400D01*
X125802631Y-133729400D02*
X125731202Y-133657971D01*
X125731202Y-133657971D02*
X125659773Y-133515114D01*
X125659773Y-133515114D02*
X125659773Y-133372257D01*
X125659773Y-133372257D02*
X125731202Y-133229400D01*
X125731202Y-133229400D02*
X125802631Y-133157971D01*
X125802631Y-133157971D02*
X125945488Y-133086542D01*
X125945488Y-133086542D02*
X126231202Y-133015114D01*
X126231202Y-133015114D02*
X126374059Y-132943685D01*
X126374059Y-132943685D02*
X126445488Y-132872257D01*
X126445488Y-132872257D02*
X126516916Y-132729400D01*
X126516916Y-132729400D02*
X126516916Y-132586542D01*
X126516916Y-132586542D02*
X126445488Y-132443685D01*
X126445488Y-132443685D02*
X126374059Y-132372257D01*
X126374059Y-132372257D02*
X126231202Y-132300828D01*
X126231202Y-132300828D02*
X125874059Y-132300828D01*
X125874059Y-132300828D02*
X125659773Y-132372257D01*
D11*
X141813808Y-76174819D02*
X141813808Y-75174819D01*
X141337618Y-76174819D02*
X141337618Y-75174819D01*
X141337618Y-75174819D02*
X140766190Y-76174819D01*
X140766190Y-76174819D02*
X140766190Y-75174819D01*
X132293332Y-99144819D02*
X131959999Y-100144819D01*
X131959999Y-100144819D02*
X131626666Y-99144819D01*
X130721904Y-100049580D02*
X130769523Y-100097200D01*
X130769523Y-100097200D02*
X130912380Y-100144819D01*
X130912380Y-100144819D02*
X131007618Y-100144819D01*
X131007618Y-100144819D02*
X131150475Y-100097200D01*
X131150475Y-100097200D02*
X131245713Y-100001961D01*
X131245713Y-100001961D02*
X131293332Y-99906723D01*
X131293332Y-99906723D02*
X131340951Y-99716247D01*
X131340951Y-99716247D02*
X131340951Y-99573390D01*
X131340951Y-99573390D02*
X131293332Y-99382914D01*
X131293332Y-99382914D02*
X131245713Y-99287676D01*
X131245713Y-99287676D02*
X131150475Y-99192438D01*
X131150475Y-99192438D02*
X131007618Y-99144819D01*
X131007618Y-99144819D02*
X130912380Y-99144819D01*
X130912380Y-99144819D02*
X130769523Y-99192438D01*
X130769523Y-99192438D02*
X130721904Y-99240057D01*
X129721904Y-100049580D02*
X129769523Y-100097200D01*
X129769523Y-100097200D02*
X129912380Y-100144819D01*
X129912380Y-100144819D02*
X130007618Y-100144819D01*
X130007618Y-100144819D02*
X130150475Y-100097200D01*
X130150475Y-100097200D02*
X130245713Y-100001961D01*
X130245713Y-100001961D02*
X130293332Y-99906723D01*
X130293332Y-99906723D02*
X130340951Y-99716247D01*
X130340951Y-99716247D02*
X130340951Y-99573390D01*
X130340951Y-99573390D02*
X130293332Y-99382914D01*
X130293332Y-99382914D02*
X130245713Y-99287676D01*
X130245713Y-99287676D02*
X130150475Y-99192438D01*
X130150475Y-99192438D02*
X130007618Y-99144819D01*
X130007618Y-99144819D02*
X129912380Y-99144819D01*
X129912380Y-99144819D02*
X129769523Y-99192438D01*
X129769523Y-99192438D02*
X129721904Y-99240057D01*
X160839999Y-71584819D02*
X160649523Y-71584819D01*
X160649523Y-71584819D02*
X160554285Y-71632438D01*
X160554285Y-71632438D02*
X160459047Y-71727676D01*
X160459047Y-71727676D02*
X160411428Y-71918152D01*
X160411428Y-71918152D02*
X160411428Y-72251485D01*
X160411428Y-72251485D02*
X160459047Y-72441961D01*
X160459047Y-72441961D02*
X160554285Y-72537200D01*
X160554285Y-72537200D02*
X160649523Y-72584819D01*
X160649523Y-72584819D02*
X160839999Y-72584819D01*
X160839999Y-72584819D02*
X160935237Y-72537200D01*
X160935237Y-72537200D02*
X161030475Y-72441961D01*
X161030475Y-72441961D02*
X161078094Y-72251485D01*
X161078094Y-72251485D02*
X161078094Y-71918152D01*
X161078094Y-71918152D02*
X161030475Y-71727676D01*
X161030475Y-71727676D02*
X160935237Y-71632438D01*
X160935237Y-71632438D02*
X160839999Y-71584819D01*
X159982856Y-71584819D02*
X159982856Y-72394342D01*
X159982856Y-72394342D02*
X159935237Y-72489580D01*
X159935237Y-72489580D02*
X159887618Y-72537200D01*
X159887618Y-72537200D02*
X159792380Y-72584819D01*
X159792380Y-72584819D02*
X159601904Y-72584819D01*
X159601904Y-72584819D02*
X159506666Y-72537200D01*
X159506666Y-72537200D02*
X159459047Y-72489580D01*
X159459047Y-72489580D02*
X159411428Y-72394342D01*
X159411428Y-72394342D02*
X159411428Y-71584819D01*
X159078094Y-71584819D02*
X158506666Y-71584819D01*
X158792380Y-72584819D02*
X158792380Y-71584819D01*
X132293332Y-99144819D02*
X131959999Y-100144819D01*
X131959999Y-100144819D02*
X131626666Y-99144819D01*
X130721904Y-100049580D02*
X130769523Y-100097200D01*
X130769523Y-100097200D02*
X130912380Y-100144819D01*
X130912380Y-100144819D02*
X131007618Y-100144819D01*
X131007618Y-100144819D02*
X131150475Y-100097200D01*
X131150475Y-100097200D02*
X131245713Y-100001961D01*
X131245713Y-100001961D02*
X131293332Y-99906723D01*
X131293332Y-99906723D02*
X131340951Y-99716247D01*
X131340951Y-99716247D02*
X131340951Y-99573390D01*
X131340951Y-99573390D02*
X131293332Y-99382914D01*
X131293332Y-99382914D02*
X131245713Y-99287676D01*
X131245713Y-99287676D02*
X131150475Y-99192438D01*
X131150475Y-99192438D02*
X131007618Y-99144819D01*
X131007618Y-99144819D02*
X130912380Y-99144819D01*
X130912380Y-99144819D02*
X130769523Y-99192438D01*
X130769523Y-99192438D02*
X130721904Y-99240057D01*
X129721904Y-100049580D02*
X129769523Y-100097200D01*
X129769523Y-100097200D02*
X129912380Y-100144819D01*
X129912380Y-100144819D02*
X130007618Y-100144819D01*
X130007618Y-100144819D02*
X130150475Y-100097200D01*
X130150475Y-100097200D02*
X130245713Y-100001961D01*
X130245713Y-100001961D02*
X130293332Y-99906723D01*
X130293332Y-99906723D02*
X130340951Y-99716247D01*
X130340951Y-99716247D02*
X130340951Y-99573390D01*
X130340951Y-99573390D02*
X130293332Y-99382914D01*
X130293332Y-99382914D02*
X130245713Y-99287676D01*
X130245713Y-99287676D02*
X130150475Y-99192438D01*
X130150475Y-99192438D02*
X130007618Y-99144819D01*
X130007618Y-99144819D02*
X129912380Y-99144819D01*
X129912380Y-99144819D02*
X129769523Y-99192438D01*
X129769523Y-99192438D02*
X129721904Y-99240057D01*
X175771904Y-107912438D02*
X175867142Y-107864819D01*
X175867142Y-107864819D02*
X176009999Y-107864819D01*
X176009999Y-107864819D02*
X176152856Y-107912438D01*
X176152856Y-107912438D02*
X176248094Y-108007676D01*
X176248094Y-108007676D02*
X176295713Y-108102914D01*
X176295713Y-108102914D02*
X176343332Y-108293390D01*
X176343332Y-108293390D02*
X176343332Y-108436247D01*
X176343332Y-108436247D02*
X176295713Y-108626723D01*
X176295713Y-108626723D02*
X176248094Y-108721961D01*
X176248094Y-108721961D02*
X176152856Y-108817200D01*
X176152856Y-108817200D02*
X176009999Y-108864819D01*
X176009999Y-108864819D02*
X175914761Y-108864819D01*
X175914761Y-108864819D02*
X175771904Y-108817200D01*
X175771904Y-108817200D02*
X175724285Y-108769580D01*
X175724285Y-108769580D02*
X175724285Y-108436247D01*
X175724285Y-108436247D02*
X175914761Y-108436247D01*
X175295713Y-108864819D02*
X175295713Y-107864819D01*
X175295713Y-107864819D02*
X174724285Y-108864819D01*
X174724285Y-108864819D02*
X174724285Y-107864819D01*
X174248094Y-108864819D02*
X174248094Y-107864819D01*
X174248094Y-107864819D02*
X174009999Y-107864819D01*
X174009999Y-107864819D02*
X173867142Y-107912438D01*
X173867142Y-107912438D02*
X173771904Y-108007676D01*
X173771904Y-108007676D02*
X173724285Y-108102914D01*
X173724285Y-108102914D02*
X173676666Y-108293390D01*
X173676666Y-108293390D02*
X173676666Y-108436247D01*
X173676666Y-108436247D02*
X173724285Y-108626723D01*
X173724285Y-108626723D02*
X173771904Y-108721961D01*
X173771904Y-108721961D02*
X173867142Y-108817200D01*
X173867142Y-108817200D02*
X174009999Y-108864819D01*
X174009999Y-108864819D02*
X174248094Y-108864819D01*
X175771904Y-107912438D02*
X175867142Y-107864819D01*
X175867142Y-107864819D02*
X176009999Y-107864819D01*
X176009999Y-107864819D02*
X176152856Y-107912438D01*
X176152856Y-107912438D02*
X176248094Y-108007676D01*
X176248094Y-108007676D02*
X176295713Y-108102914D01*
X176295713Y-108102914D02*
X176343332Y-108293390D01*
X176343332Y-108293390D02*
X176343332Y-108436247D01*
X176343332Y-108436247D02*
X176295713Y-108626723D01*
X176295713Y-108626723D02*
X176248094Y-108721961D01*
X176248094Y-108721961D02*
X176152856Y-108817200D01*
X176152856Y-108817200D02*
X176009999Y-108864819D01*
X176009999Y-108864819D02*
X175914761Y-108864819D01*
X175914761Y-108864819D02*
X175771904Y-108817200D01*
X175771904Y-108817200D02*
X175724285Y-108769580D01*
X175724285Y-108769580D02*
X175724285Y-108436247D01*
X175724285Y-108436247D02*
X175914761Y-108436247D01*
X175295713Y-108864819D02*
X175295713Y-107864819D01*
X175295713Y-107864819D02*
X174724285Y-108864819D01*
X174724285Y-108864819D02*
X174724285Y-107864819D01*
X174248094Y-108864819D02*
X174248094Y-107864819D01*
X174248094Y-107864819D02*
X174009999Y-107864819D01*
X174009999Y-107864819D02*
X173867142Y-107912438D01*
X173867142Y-107912438D02*
X173771904Y-108007676D01*
X173771904Y-108007676D02*
X173724285Y-108102914D01*
X173724285Y-108102914D02*
X173676666Y-108293390D01*
X173676666Y-108293390D02*
X173676666Y-108436247D01*
X173676666Y-108436247D02*
X173724285Y-108626723D01*
X173724285Y-108626723D02*
X173771904Y-108721961D01*
X173771904Y-108721961D02*
X173867142Y-108817200D01*
X173867142Y-108817200D02*
X174009999Y-108864819D01*
X174009999Y-108864819D02*
X174248094Y-108864819D01*
X155024819Y-143236666D02*
X155739104Y-143236666D01*
X155739104Y-143236666D02*
X155881961Y-143189047D01*
X155881961Y-143189047D02*
X155977200Y-143093809D01*
X155977200Y-143093809D02*
X156024819Y-142950952D01*
X156024819Y-142950952D02*
X156024819Y-142855714D01*
X156024819Y-144236666D02*
X156024819Y-143665238D01*
X156024819Y-143950952D02*
X155024819Y-143950952D01*
X155024819Y-143950952D02*
X155167676Y-143855714D01*
X155167676Y-143855714D02*
X155262914Y-143760476D01*
X155262914Y-143760476D02*
X155310533Y-143665238D01*
D12*
%TO.C,NP1*%
X172804494Y-95000000D02*
G75*
G03*
X172804494Y-95000000I-17804494J0D01*
G01*
X177022716Y-95000000D02*
G75*
G03*
X177022716Y-95000000I-22022716J0D01*
G01*
D13*
%TO.C,J1*%
X146390000Y-146170000D02*
X146390000Y-140970000D01*
X154130000Y-146170000D02*
X146390000Y-146170000D01*
D12*
X154130000Y-146170000D02*
X154130000Y-140970000D01*
X146390000Y-140970000D02*
X148890000Y-140970000D01*
X154130000Y-140970000D02*
X151630000Y-140970000D01*
%TD*%
M02*
