%TF.GenerationSoftware,KiCad,Pcbnew,7.0.7*%
%TF.CreationDate,2024-03-11T11:43:00-07:00*%
%TF.ProjectId,DC32_Drear_Jeebus_SAO,44433332-5f44-4726-9561-725f4a656562,rev?*%
%TF.SameCoordinates,Original*%
%TF.FileFunction,Drillmap*%
%TF.FilePolarity,Positive*%
%FSLAX45Y45*%
G04 Gerber Fmt 4.5, Leading zero omitted, Abs format (unit mm)*
G04 Created by KiCad (PCBNEW 7.0.7) date 2024-03-11 11:43:00*
%MOMM*%
%LPD*%
G01*
G04 APERTURE LIST*
%ADD10C,0.100000*%
%ADD11C,0.200000*%
G04 APERTURE END LIST*
D10*
X10792823Y-12550773D02*
X10790926Y-12548115D01*
X18168881Y-7992646D02*
X18148645Y-7993387D01*
X17664768Y-7382662D02*
X17669988Y-7388851D01*
X13631138Y-6410320D02*
X13632929Y-6406327D01*
X18316632Y-8091902D02*
X18316476Y-8084472D01*
X16047032Y-5421389D02*
X16059448Y-5427195D01*
X15748552Y-14288219D02*
X15747572Y-14305118D01*
X17682444Y-7417791D02*
X17682251Y-7420653D01*
X10350152Y-12549691D02*
X10342517Y-12542844D01*
X13253257Y-7862902D02*
X13254510Y-7857187D01*
X15989303Y-5395202D02*
X16000045Y-5399454D01*
X13659095Y-6688850D02*
X13612397Y-6636912D01*
X18302010Y-8030203D02*
X18299029Y-8025239D01*
X11757234Y-13279225D02*
X11754853Y-13278134D01*
X17636239Y-7357826D02*
X17644432Y-7363971D01*
X11734644Y-9389955D02*
X11735506Y-9384343D01*
X13854148Y-6094454D02*
X13860310Y-6085511D01*
X12905112Y-7550513D02*
X12904709Y-7561045D01*
X19692226Y-12476494D02*
X19655042Y-12517651D01*
X12967135Y-8456558D02*
X12969658Y-8456088D01*
X17727125Y-8563364D02*
X17724408Y-8562693D01*
X19026612Y-10800611D02*
X19034382Y-10811611D01*
X19269577Y-11692411D02*
X19270852Y-11730361D01*
X17305225Y-6918828D02*
X17309286Y-6925195D01*
X17768179Y-8544177D02*
X17765878Y-8548185D01*
X16760719Y-6044230D02*
X16759313Y-6049634D01*
X18127836Y-9368380D02*
X18132303Y-9376591D01*
X14243446Y-14575187D02*
X14242716Y-14558891D01*
X13611699Y-13773425D02*
X13580931Y-13756270D01*
X12226201Y-13463410D02*
X12152244Y-13458201D01*
X13491167Y-7623646D02*
X13491468Y-7619228D01*
X11556522Y-8977187D02*
X11541741Y-8964429D01*
X13264746Y-7829287D02*
X13267652Y-7823404D01*
X17805770Y-13111265D02*
X17800014Y-13113371D01*
X17607220Y-8719659D02*
X17611184Y-8719927D01*
X13235021Y-7090404D02*
X13232195Y-7076183D01*
X11108746Y-6900939D02*
X11115789Y-6896101D01*
X19176114Y-12592046D02*
X19161918Y-12618926D01*
X18278493Y-13297255D02*
X18276342Y-13296043D01*
X10279693Y-12348186D02*
X10279865Y-12328213D01*
X10281751Y-12418059D02*
X10281065Y-12408633D01*
X14057636Y-5818150D02*
X14070453Y-5802585D01*
X17294273Y-6896135D02*
X17297719Y-6904297D01*
X16679316Y-5490161D02*
X16684202Y-5490747D01*
X17673426Y-8786009D02*
X17681877Y-8796122D01*
X17771274Y-8512053D02*
X17772172Y-8516996D01*
X17576189Y-8713104D02*
X17579781Y-8714923D01*
X13960739Y-5927841D02*
X13964523Y-5924802D01*
X13310927Y-6823870D02*
X13315189Y-6821020D01*
X17150285Y-6543726D02*
X17177546Y-6587350D01*
X17699573Y-13137483D02*
X17667296Y-13143691D01*
X11342169Y-6996562D02*
X11343577Y-6998300D01*
X17372074Y-8586843D02*
X17371078Y-8588727D01*
X19012901Y-10779221D02*
X19019466Y-10789835D01*
X16723992Y-6311069D02*
X16727218Y-6313549D01*
X13490201Y-7635484D02*
X13490732Y-7631558D01*
X19692226Y-12352663D02*
X19692226Y-12476494D01*
X16773192Y-5770699D02*
X16776189Y-5783019D01*
X13260767Y-8028866D02*
X13261231Y-8026086D01*
X10419298Y-12588332D02*
X10410121Y-12585285D01*
X13549580Y-7442595D02*
X13549160Y-7440082D01*
X14748581Y-5364575D02*
X14804161Y-5342569D01*
X11961590Y-13352314D02*
X11958361Y-13349377D01*
X17677929Y-7433565D02*
X17676054Y-7437075D01*
X16261684Y-5505290D02*
X16272956Y-5509808D01*
X15931807Y-5379354D02*
X15940430Y-5382443D01*
X11688566Y-9104943D02*
X11650175Y-9065996D01*
X11583066Y-13156584D02*
X11572318Y-13154478D01*
X16375454Y-5526122D02*
X16402000Y-5524736D01*
X17357627Y-7123469D02*
X17360299Y-7123766D01*
X12890298Y-7490522D02*
X12892398Y-7493738D01*
X18177790Y-9541930D02*
X18178447Y-9545626D01*
X17575276Y-7324497D02*
X17586625Y-7329441D01*
X17748167Y-8563905D02*
X17746735Y-8564355D01*
X16692753Y-6278282D02*
X16695111Y-6281640D01*
X10499632Y-12595235D02*
X10480322Y-12595361D01*
X11354848Y-6954249D02*
X11354509Y-6940388D01*
X17072510Y-13270165D02*
X17025274Y-13277632D01*
X17616449Y-8380190D02*
X17620123Y-8382447D01*
X11736050Y-9155978D02*
X11722161Y-9140540D01*
X13287880Y-7791262D02*
X13290413Y-7788310D01*
X11351089Y-6998244D02*
X11351832Y-6996476D01*
X18317703Y-13302614D02*
X18310922Y-13303002D01*
X12988274Y-8450033D02*
X12991719Y-8448576D01*
X13250583Y-7888297D02*
X13250919Y-7881443D01*
X11351006Y-6832123D02*
X11351507Y-6825095D01*
X11711859Y-9465016D02*
X11717980Y-9449236D01*
X17849266Y-8955384D02*
X17857118Y-8962736D01*
X16200756Y-5479885D02*
X16218076Y-5486954D01*
X17590866Y-8718488D02*
X17594752Y-8719103D01*
X17540112Y-7307458D02*
X17546003Y-7310864D01*
X17587289Y-7573691D02*
X17599467Y-7577644D01*
X18924976Y-10590399D02*
X18935040Y-10604055D01*
X18734934Y-13177744D02*
X18721927Y-13183215D01*
X18200544Y-13199456D02*
X18198326Y-13191799D01*
X11500563Y-6711687D02*
X11518324Y-6707728D01*
X17647700Y-8299446D02*
X17639052Y-8301182D01*
X16700806Y-6288648D02*
X16704163Y-6292359D01*
X17917361Y-8160468D02*
X17875143Y-8201254D01*
X12709390Y-8530734D02*
X12727094Y-8526558D01*
X19240262Y-12549191D02*
X19233606Y-12547599D01*
X11697864Y-9498953D02*
X11705104Y-9481725D01*
X19213758Y-12545121D02*
X19210231Y-12545428D01*
X13486045Y-7650934D02*
X13487385Y-7647114D01*
X13044578Y-8334550D02*
X13045144Y-8317396D01*
X17054140Y-6472727D02*
X17058810Y-6475653D01*
X18188686Y-13164065D02*
X18184824Y-13154198D01*
X17306353Y-7104673D02*
X17314166Y-7108476D01*
X19684013Y-12215473D02*
X19685609Y-12224241D01*
X18887476Y-10551453D02*
X18901336Y-10564256D01*
X11340031Y-13096902D02*
X11320848Y-13091343D01*
X19226508Y-11105458D02*
X19230820Y-11118183D01*
X18316385Y-8108762D02*
X18316598Y-8099975D01*
X11454620Y-9957445D02*
X11467194Y-9939356D01*
X11711180Y-13242775D02*
X11703224Y-13234736D01*
X15810656Y-5357896D02*
X15818262Y-5351894D01*
X10630632Y-12580754D02*
X10608224Y-12584666D01*
X17277928Y-6834648D02*
X17280136Y-6846382D01*
X18392311Y-7859286D02*
X18400307Y-7870095D01*
X12758748Y-7428090D02*
X12766653Y-7427808D01*
X14023800Y-14085759D02*
X13968594Y-14040012D01*
X13044018Y-8362047D02*
X13044578Y-8334550D01*
X17447525Y-8539586D02*
X17439137Y-8542622D01*
X19677915Y-12191006D02*
X19680176Y-12198948D01*
X11361479Y-6790150D02*
X11363918Y-6786199D01*
X17627606Y-8533009D02*
X17614004Y-8530466D01*
X11623797Y-13167855D02*
X11616932Y-13165238D01*
X18299387Y-8244630D02*
X18301897Y-8234112D01*
X17804156Y-8265328D02*
X17792500Y-8274468D01*
X11762896Y-9277582D02*
X11765216Y-9265882D01*
X18293594Y-8268789D02*
X18294079Y-8266317D01*
X17616549Y-8308114D02*
X17610266Y-8310975D01*
X17975676Y-9178106D02*
X17976109Y-9179748D01*
X18096233Y-9325478D02*
X18104135Y-9334844D01*
X17628688Y-7487020D02*
X17620381Y-7492767D01*
X17586543Y-8526828D02*
X17572740Y-8525736D01*
X12664159Y-6781398D02*
X12658512Y-6995556D01*
X13606592Y-6796160D02*
X13616623Y-6794643D01*
X17589808Y-8357203D02*
X17591231Y-8359196D01*
X12676136Y-8533099D02*
X12678750Y-8534342D01*
X13028125Y-8427228D02*
X13029822Y-8425715D01*
X17525469Y-7545782D02*
X17525715Y-7547298D01*
X14237166Y-14301830D02*
X14196915Y-14248517D01*
X14723337Y-5374630D02*
X14748581Y-5364575D01*
X15798885Y-14161310D02*
X15797818Y-14164668D01*
X10793210Y-11239579D02*
X10808623Y-11087417D01*
X17104254Y-13264600D02*
X17072510Y-13270165D01*
X17399786Y-8618958D02*
X17407607Y-8622480D01*
X11554300Y-9819861D02*
X11563683Y-9805286D01*
X13497936Y-7590828D02*
X13500670Y-7581628D01*
X13691996Y-6727971D02*
X13690418Y-6725701D01*
X13067203Y-8192917D02*
X13071900Y-8179814D01*
X17598777Y-8719459D02*
X17602968Y-8719574D01*
X13450937Y-7362572D02*
X13434078Y-7347894D01*
X13526914Y-7412095D02*
X13523511Y-7409748D01*
X14242069Y-14540297D02*
X14241481Y-14519212D01*
X13232683Y-6968364D02*
X13235612Y-6953075D01*
X10384899Y-12061214D02*
X10399440Y-12040905D01*
X12668799Y-8294878D02*
X12666321Y-8368751D01*
X13261218Y-8023109D02*
X13260829Y-8019860D01*
X19298405Y-12567617D02*
X19275210Y-12559722D01*
X18436678Y-7944059D02*
X18441264Y-7960799D01*
X11208269Y-10270410D02*
X11212418Y-10263990D01*
X17107962Y-6305202D02*
X17111694Y-6308162D01*
X16513054Y-5513991D02*
X16528359Y-5511801D01*
X17573948Y-7508491D02*
X17570980Y-7509121D01*
X19207964Y-11061820D02*
X19214982Y-11077109D01*
X11341253Y-10125226D02*
X11351421Y-10111627D01*
X17325037Y-7007973D02*
X17322626Y-7011025D01*
X19687005Y-12233471D02*
X19688210Y-12243255D01*
X17058753Y-6406698D02*
X17054088Y-6410219D01*
X12690251Y-8116922D02*
X12685309Y-8137752D01*
X19663152Y-12151441D02*
X19672657Y-12175293D01*
X16710958Y-5505989D02*
X16713759Y-5509533D01*
X12875699Y-7474657D02*
X12878749Y-7477553D01*
X17621587Y-8721995D02*
X17623136Y-8722547D01*
X17667296Y-13143691D02*
X17614895Y-13153861D01*
X11906225Y-13317162D02*
X11895228Y-13312221D01*
X11509638Y-13141173D02*
X11477872Y-13133661D01*
X10673471Y-11820259D02*
X10759316Y-11774643D01*
X17746735Y-8564355D02*
X17745238Y-8564709D01*
X18345555Y-7806850D02*
X18355514Y-7816819D01*
X18022040Y-13041872D02*
X18019280Y-13042056D01*
X17680486Y-8547970D02*
X17667552Y-8543515D01*
X17375899Y-8604158D02*
X17378053Y-8605991D01*
X10827760Y-10978269D02*
X10835568Y-10955782D01*
X17665925Y-7451748D02*
X17659544Y-7459230D01*
X16727547Y-6099765D02*
X16724597Y-6102685D01*
X11837943Y-13292341D02*
X11826866Y-13289636D01*
X13280772Y-7800752D02*
X13283072Y-7797474D01*
X18110898Y-13025820D02*
X18109412Y-13025172D01*
X19247120Y-11174126D02*
X19251252Y-11191025D01*
X18448833Y-7996806D02*
X18451769Y-8015634D01*
X11573212Y-8992203D02*
X11556522Y-8977187D01*
X17753139Y-7643999D02*
X17784261Y-7659977D01*
X11738029Y-9371582D02*
X11739612Y-9364821D01*
X11408312Y-10028100D02*
X11421009Y-10008151D01*
X13695161Y-6751748D02*
X13695989Y-6750395D01*
X17835904Y-8237685D02*
X17818812Y-8252882D01*
X12009300Y-13408421D02*
X12006281Y-13404547D01*
X15703394Y-5406802D02*
X15712686Y-5406530D01*
X18246696Y-7741029D02*
X18254056Y-7743769D01*
X11200451Y-10283463D02*
X11204272Y-10276911D01*
X13899990Y-6009980D02*
X13904238Y-6002051D01*
X11854509Y-6672077D02*
X11945233Y-6668431D01*
X12622572Y-6736397D02*
X12630477Y-6744645D01*
X11354593Y-6976528D02*
X11354877Y-6966292D01*
X11755793Y-9179921D02*
X11747409Y-9169252D01*
X15682312Y-14693372D02*
X15003352Y-14695367D01*
X17086120Y-6292318D02*
X17095800Y-6296964D01*
X13142623Y-8093317D02*
X13147886Y-8090274D01*
X10984180Y-12877381D02*
X10956771Y-12838219D01*
X17322097Y-7112048D02*
X17329978Y-7115304D01*
X18061746Y-8014947D02*
X18057786Y-8017107D01*
X10585718Y-12588014D02*
X10563361Y-12590773D01*
X10291717Y-12468404D02*
X10289664Y-12462355D01*
X12657618Y-7438764D02*
X12663054Y-7437916D01*
X14950212Y-5300629D02*
X14971476Y-5297858D01*
X12689313Y-8534348D02*
X12695045Y-8533521D01*
X18398377Y-10014630D02*
X18401715Y-10019783D01*
X11100308Y-7170342D02*
X11100462Y-7163445D01*
X11453094Y-6725669D02*
X11467944Y-6720658D01*
X15746680Y-14324779D02*
X15745846Y-14347469D01*
X16760048Y-5643604D02*
X16761878Y-5658330D01*
X17524853Y-7296361D02*
X17529600Y-7300262D01*
X16764188Y-6026339D02*
X16763152Y-6032593D01*
X12831688Y-13481209D02*
X12825543Y-13481499D01*
X18354422Y-8297577D02*
X18349193Y-8300402D01*
X18202560Y-7732462D02*
X18213117Y-7733586D01*
X19280675Y-11802595D02*
X19282397Y-11804509D01*
X12837894Y-13481202D02*
X12831688Y-13481209D01*
X16685479Y-6261674D02*
X16686364Y-6265076D01*
X17759805Y-8555647D02*
X17758499Y-8556926D01*
X17757221Y-8558117D02*
X17755959Y-8559219D01*
X18374601Y-9946287D02*
X18379883Y-9966184D01*
X17611184Y-8719927D02*
X17614883Y-8720394D01*
X19254805Y-11207825D02*
X19257823Y-11224989D01*
X18612396Y-10302197D02*
X18638239Y-10340582D01*
X19402806Y-11874456D02*
X19427653Y-11888983D01*
X16733955Y-6094083D02*
X16730621Y-6097035D01*
X13352855Y-6805041D02*
X13358034Y-6803879D01*
X15759334Y-14227097D02*
X15758120Y-14229742D01*
X15568476Y-5391812D02*
X15585399Y-5395888D01*
X18093403Y-13023929D02*
X18091520Y-13024294D01*
X13227643Y-8052856D02*
X13235592Y-8049000D01*
X16684860Y-6258170D02*
X16685479Y-6261674D01*
X11518324Y-6707728D02*
X11537048Y-6704123D01*
X17422790Y-8549637D02*
X17414989Y-8553514D01*
X17296616Y-7036838D02*
X17293235Y-7040194D01*
X14151680Y-14200006D02*
X14129459Y-14178716D01*
X16235360Y-5494223D02*
X16261684Y-5505290D01*
X19198534Y-12552396D02*
X19195776Y-12556732D01*
X10997025Y-12894605D02*
X10984180Y-12877381D01*
X11183588Y-8288452D02*
X11179503Y-8272480D01*
X17142592Y-6533747D02*
X17145588Y-6537228D01*
X16750035Y-6326016D02*
X16753409Y-6327118D01*
X17281265Y-7053483D02*
X17278752Y-7056655D01*
X11223513Y-8470940D02*
X11213262Y-8441271D01*
X19278990Y-11799548D02*
X19280675Y-11802595D01*
X17030378Y-6448345D02*
X17031395Y-6450981D01*
X13055532Y-8236077D02*
X13059002Y-8221105D01*
X18882590Y-13072839D02*
X18867468Y-13086693D01*
X18147830Y-13060118D02*
X18145869Y-13057519D01*
X13968594Y-14040012D02*
X13916497Y-13996358D01*
X18136395Y-9385056D02*
X18140216Y-9393937D01*
X15758120Y-14229742D02*
X15756985Y-14232606D01*
X19086884Y-12767155D02*
X19055205Y-12830943D01*
X11601552Y-13160707D02*
X11592765Y-13158634D01*
X18162884Y-13100909D02*
X18160482Y-13093680D01*
X18136776Y-13046996D02*
X18134256Y-13044428D01*
X13523511Y-7409748D02*
X13519852Y-7407370D01*
X18546905Y-10204835D02*
X18576117Y-10248009D01*
X16566486Y-13419099D02*
X16542872Y-13432943D01*
X17031395Y-6450981D02*
X17032817Y-6453615D01*
X18478472Y-10110850D02*
X18486542Y-10120887D01*
X12584571Y-13481205D02*
X12558619Y-13478902D01*
X11619996Y-9699764D02*
X11626485Y-9684591D01*
X19217808Y-12545176D02*
X19213758Y-12545121D01*
X18315273Y-7779960D02*
X18325346Y-7788329D01*
X11164647Y-6876014D02*
X11173349Y-6874311D01*
X11439221Y-6731026D02*
X11453094Y-6725669D01*
X19639860Y-12104678D02*
X19652201Y-12127883D01*
X11353163Y-6812980D02*
X11354334Y-6807728D01*
X16059448Y-5427195D02*
X16071896Y-5432745D01*
X12051587Y-13441951D02*
X12047281Y-13439762D01*
X17378438Y-8578826D02*
X17374799Y-8582919D01*
X16789739Y-5864639D02*
X16789015Y-5872191D01*
X17534193Y-7529659D02*
X17530783Y-7533434D01*
X18296566Y-8295266D02*
X18295779Y-8294221D01*
X17103944Y-6302149D02*
X17107962Y-6305202D01*
X17763280Y-8287192D02*
X17757993Y-8288483D01*
X16782712Y-6330144D02*
X16786764Y-6329823D01*
X12003452Y-13400575D02*
X12000920Y-13396948D01*
X16326744Y-5525011D02*
X16335270Y-5525903D01*
X11926802Y-13327662D02*
X11916790Y-13322324D01*
X11268445Y-6900259D02*
X11276309Y-6906624D01*
X16122099Y-5451478D02*
X16129879Y-5453668D01*
X11179503Y-8272480D02*
X11174814Y-8255601D01*
X18309125Y-8044619D02*
X18307047Y-8039822D01*
X19008518Y-12920580D02*
X18999159Y-12936937D01*
X13283072Y-7797474D02*
X13285437Y-7794314D01*
X11072575Y-6950470D02*
X11075808Y-6941769D01*
X17111694Y-6308162D02*
X17115140Y-6311036D01*
X17139213Y-6530148D02*
X17142592Y-6533747D01*
X11095510Y-7456178D02*
X11097052Y-7279938D01*
X11090064Y-7091511D02*
X11087983Y-7085053D01*
X15317836Y-5284867D02*
X15396787Y-5324278D01*
X11174814Y-8255601D02*
X11169672Y-8238331D01*
X12910489Y-13494777D02*
X12890163Y-13489534D01*
X16716554Y-5513479D02*
X16722096Y-5522493D01*
X12780690Y-7427849D02*
X12786962Y-7428197D01*
X17314166Y-7108476D02*
X17322097Y-7112048D01*
X16699149Y-6154568D02*
X16698317Y-6159375D01*
X12770265Y-8514617D02*
X12794574Y-8507144D01*
X10563361Y-12590773D02*
X10541397Y-12592914D01*
X12729316Y-8012599D02*
X12719314Y-8034771D01*
X13519852Y-7407370D02*
X13511751Y-7402490D01*
X12725725Y-13493153D02*
X12716522Y-13492964D01*
X19265405Y-11306581D02*
X19266393Y-11332536D01*
X19267105Y-11361642D02*
X19267872Y-11431168D01*
X16495883Y-5516169D02*
X16513054Y-5513991D01*
X13459984Y-6793489D02*
X13467198Y-6791680D01*
X13696688Y-6749054D02*
X13697253Y-6747714D01*
X10790926Y-12548115D02*
X10789250Y-12545991D01*
X18965012Y-12987681D02*
X18956303Y-12998284D01*
X17736411Y-8564988D02*
X17734306Y-8564739D01*
X11610540Y-9027238D02*
X11573212Y-8992203D01*
X11733957Y-9396869D02*
X11734099Y-9394797D01*
X15665907Y-5406669D02*
X15681407Y-5406969D01*
X16719080Y-6109064D02*
X16716521Y-6112509D01*
X14994316Y-5295613D02*
X15019222Y-5293802D01*
X18999159Y-12936937D02*
X18990328Y-12951508D01*
X12134338Y-6668354D02*
X12236100Y-6671833D01*
X17300116Y-7033517D02*
X17296616Y-7036838D01*
X13999993Y-5889246D02*
X14011706Y-5875948D01*
X18271975Y-13293215D02*
X18267435Y-13289816D01*
X13443449Y-7703096D02*
X13451439Y-7696836D01*
X17606718Y-8373623D02*
X17609749Y-8375780D01*
X18523220Y-13260894D02*
X18515385Y-13264189D01*
X13697681Y-6746366D02*
X13697966Y-6744999D01*
X17086785Y-6490964D02*
X17092061Y-6493974D01*
X11353864Y-6924702D02*
X11352914Y-6907182D01*
X11373160Y-6774206D02*
X11376744Y-6770376D01*
X12888569Y-7488205D02*
X12890298Y-7490522D01*
X11318470Y-8665198D02*
X11295274Y-8622978D01*
X19006878Y-10768704D02*
X19012901Y-10779221D01*
X17407544Y-8557573D02*
X17400534Y-8561762D01*
X17274975Y-7085188D02*
X17279664Y-7088864D01*
X17609749Y-8375780D02*
X17612992Y-8377969D01*
X11512132Y-8941945D02*
X11503833Y-8934691D01*
X17781036Y-8281343D02*
X17777194Y-8282892D01*
X11091588Y-7914283D02*
X11093648Y-7873805D01*
X18414237Y-7891304D02*
X18419992Y-7901522D01*
X14890953Y-5313033D02*
X14910442Y-5308124D01*
X13230463Y-6983897D02*
X13232683Y-6968364D01*
X12667374Y-7437001D02*
X12673875Y-7435964D01*
X13037483Y-8415040D02*
X13038392Y-8412830D01*
X15951395Y-5385630D02*
X15954388Y-5386255D01*
X19688210Y-12243255D02*
X19689235Y-12253687D01*
X18996291Y-10747712D02*
X19001355Y-10758222D01*
X17565032Y-7510841D02*
X17559150Y-7513105D01*
X18087501Y-13025270D02*
X18083095Y-13026566D01*
X19282397Y-11804509D02*
X19284925Y-11806794D01*
X18811853Y-13132460D02*
X18798799Y-13141743D01*
X17387465Y-7137231D02*
X17395982Y-7144038D01*
X11300530Y-13084583D02*
X11279314Y-13076746D01*
X11326596Y-6965296D02*
X11329913Y-6972330D01*
X11529312Y-8954369D02*
X11519679Y-8947452D01*
X18304679Y-8035040D02*
X18302010Y-8030203D01*
X10674174Y-12571349D02*
X10652698Y-12576306D01*
X11752737Y-9318607D02*
X11760047Y-9290229D01*
X11431145Y-9992386D02*
X11442476Y-9975303D01*
X11112813Y-8083066D02*
X11106312Y-8064708D01*
X11895228Y-13312221D02*
X11883917Y-13307543D01*
X11264388Y-10205425D02*
X11271813Y-10200030D01*
X17690695Y-8551678D02*
X17680486Y-8547970D01*
X13492308Y-7392061D02*
X13480379Y-7385007D01*
X17547980Y-7518930D02*
X17542890Y-7522324D01*
X16740064Y-6087729D02*
X16737101Y-6090985D01*
X19187555Y-12571018D02*
X19176114Y-12592046D01*
X17434221Y-7180038D02*
X17443965Y-7190379D01*
X11363918Y-6786199D02*
X11366746Y-6782118D01*
X17991574Y-9206809D02*
X17996364Y-9213329D01*
X17561636Y-8702211D02*
X17565355Y-8705511D01*
X17474901Y-8638778D02*
X17479937Y-8638871D01*
X16707703Y-6127818D02*
X16705873Y-6131991D01*
X17751949Y-8868454D02*
X17766537Y-8882123D01*
X11768295Y-9245078D02*
X11769068Y-9235852D01*
X18025824Y-8042443D02*
X18025224Y-8044414D01*
X15747572Y-14305118D02*
X15746680Y-14324779D01*
X17742006Y-8565122D02*
X17740251Y-8565179D01*
X11095179Y-7647421D02*
X11095510Y-7456178D01*
X18044765Y-9269875D02*
X18053598Y-9279237D01*
X19328240Y-11834857D02*
X19343667Y-11843491D01*
X17686196Y-7612345D02*
X17719885Y-7627855D01*
X19561473Y-12585248D02*
X19555655Y-12587100D01*
X17332861Y-6956496D02*
X17334173Y-6959326D01*
X11958361Y-13349377D02*
X11955263Y-13346696D01*
X17336046Y-6987461D02*
X17335099Y-6990320D01*
X17007340Y-6276418D02*
X17021899Y-6277582D01*
X18181040Y-9554586D02*
X18182935Y-9559768D01*
X13393880Y-7730044D02*
X13405021Y-7725295D01*
X16153228Y-5461627D02*
X16167868Y-5467046D01*
X18785937Y-13150265D02*
X18773193Y-13158075D01*
X10825637Y-12611585D02*
X10819614Y-12599023D01*
X17588968Y-8329069D02*
X17586881Y-8333395D01*
X17857118Y-8962736D02*
X17864503Y-8969994D01*
X12890163Y-13489534D02*
X12881154Y-13487406D01*
X17614004Y-8530466D02*
X17600307Y-8528405D01*
X17772172Y-8516996D02*
X17772636Y-8521840D01*
X14294770Y-14683960D02*
X14292152Y-14682281D01*
X18708669Y-13188229D02*
X18695087Y-13192835D01*
X17597556Y-7334680D02*
X17608027Y-7340176D01*
X13487385Y-7647114D02*
X13488526Y-7643264D01*
X18721927Y-13183215D02*
X18708669Y-13188229D01*
X13612397Y-6636912D02*
X13612397Y-6541558D01*
X15772661Y-14209350D02*
X15770384Y-14211901D01*
X17765878Y-8548185D02*
X17763090Y-8552012D01*
X10845684Y-10929887D02*
X10857923Y-10900945D01*
X18716696Y-10435268D02*
X18725153Y-10441741D01*
X15786035Y-14190034D02*
X15783916Y-14193592D01*
X17704308Y-8429118D02*
X17717549Y-8439061D01*
X17478526Y-7232009D02*
X17485203Y-7241632D01*
X12696041Y-8096594D02*
X12690251Y-8116922D01*
X17374035Y-8602351D02*
X17375899Y-8604158D01*
X19267872Y-11431168D02*
X19268051Y-11518875D01*
X17740801Y-8291813D02*
X17734773Y-8292716D01*
X12803651Y-7430708D02*
X12808741Y-7432076D01*
X15883100Y-5356450D02*
X15892720Y-5361522D01*
X11335683Y-6985290D02*
X11337433Y-6988754D01*
X17681266Y-7409609D02*
X17681917Y-7412397D01*
X11087983Y-7085053D02*
X11085708Y-7078563D01*
X17630963Y-8303211D02*
X17623455Y-8305524D01*
X19588835Y-12573295D02*
X19583555Y-12576061D01*
X17497313Y-8641529D02*
X17499262Y-8642173D01*
X17585273Y-8339433D02*
X17585071Y-8341421D01*
X11398427Y-6752490D02*
X11403512Y-6749167D01*
X19599188Y-12567168D02*
X19594042Y-12570332D01*
X11095241Y-7836484D02*
X11096210Y-7806468D01*
X12564288Y-6702259D02*
X12576642Y-6706439D01*
X17746709Y-8290801D02*
X17740801Y-8291813D01*
X10773507Y-12542836D02*
X10770195Y-12543306D01*
X17380480Y-8607845D02*
X17386082Y-8611580D01*
X11759605Y-13280193D02*
X11757234Y-13279225D01*
X18300515Y-8299268D02*
X18299406Y-8298281D01*
X10608224Y-12584666D02*
X10585718Y-12588014D01*
X17591807Y-8324969D02*
X17588968Y-8329069D01*
X13315189Y-6821020D02*
X13319547Y-6818362D01*
X17797901Y-8910530D02*
X17814608Y-8925197D01*
X17728670Y-8293502D02*
X17722537Y-8294164D01*
X11079780Y-6933548D02*
X11084490Y-6925806D01*
X18338989Y-8304751D02*
X18334051Y-8306241D01*
X11087313Y-12978447D02*
X11070228Y-12966737D01*
X13872305Y-6065254D02*
X13878441Y-6053614D01*
X10573097Y-11878668D02*
X10595885Y-11864280D01*
X13666829Y-6697486D02*
X13659095Y-6688850D01*
X16731474Y-13334423D02*
X16717103Y-13340877D01*
X15728521Y-5405407D02*
X15735326Y-5404472D01*
X10282842Y-12276666D02*
X10284924Y-12261487D01*
X12667340Y-8516652D02*
X12668569Y-8521837D01*
X18117016Y-13029437D02*
X18115446Y-13028375D01*
X17045977Y-6416918D02*
X17042530Y-6420112D01*
X17450787Y-8636038D02*
X17459255Y-8637521D01*
X10401043Y-12581683D02*
X10392091Y-12577548D01*
X12881154Y-13487406D02*
X12872801Y-13485601D01*
X13660754Y-6290483D02*
X13663747Y-6279400D01*
X13180896Y-8073679D02*
X13207463Y-8062040D01*
X15791860Y-14179039D02*
X15790022Y-14182729D01*
X11396076Y-10046942D02*
X11408312Y-10028100D01*
X18456904Y-8072786D02*
X18457313Y-8091329D01*
X18028980Y-8037253D02*
X18027630Y-8038788D01*
X16761997Y-6038554D02*
X16760719Y-6044230D01*
X18838834Y-13111404D02*
X18825174Y-13122364D01*
X13488117Y-6788242D02*
X13492830Y-6787989D01*
X13290987Y-6841042D02*
X13294798Y-6837214D01*
X18675436Y-13199256D02*
X18657256Y-13205484D01*
X18157518Y-13082473D02*
X18157219Y-13080516D01*
X17464331Y-8534703D02*
X17455950Y-8536929D01*
X17049830Y-6413623D02*
X17045977Y-6416918D01*
X17586672Y-8351274D02*
X17587531Y-8353244D01*
X11787826Y-13284503D02*
X11782107Y-13284398D01*
X17453439Y-7200917D02*
X17462472Y-7211481D01*
X19314256Y-11826631D02*
X19328240Y-11834857D01*
X17768272Y-8285825D02*
X17763280Y-8287192D01*
X15795148Y-14171720D02*
X15793573Y-14175360D01*
X12152244Y-13458201D02*
X12121307Y-13455401D01*
X18292565Y-8275409D02*
X18292837Y-8273328D01*
X17379710Y-7131639D02*
X17387465Y-7137231D01*
X13323559Y-7233533D02*
X13306625Y-7213370D01*
X18747765Y-13171764D02*
X18734934Y-13177744D01*
X15818050Y-14108451D02*
X15813065Y-14120387D01*
X11084490Y-6925806D02*
X11089939Y-6918539D01*
X17102588Y-6500552D02*
X17107770Y-6504063D01*
X18237751Y-13261856D02*
X18234011Y-13257684D01*
X13302682Y-6830151D02*
X13306758Y-6826913D01*
X19114900Y-10908091D02*
X19124620Y-10921013D01*
X16779401Y-5793676D02*
X16781787Y-5800879D01*
X13290413Y-7788310D02*
X13293048Y-7785448D01*
X13304857Y-7774721D02*
X13308189Y-7772174D01*
X18190776Y-9577617D02*
X18194040Y-9584195D01*
X13983303Y-5907061D02*
X13988691Y-5901472D01*
X12742917Y-13493008D02*
X12734516Y-13493168D01*
X18361463Y-9904716D02*
X18368450Y-9925774D01*
X19690090Y-12264859D02*
X19690786Y-12276865D01*
X17549790Y-8689766D02*
X17553880Y-8694356D01*
X18151089Y-9424692D02*
X18154864Y-9436853D01*
X13684485Y-6717979D02*
X13682094Y-6715066D01*
X17320004Y-7014117D02*
X17317171Y-7017249D01*
X15818262Y-5351894D02*
X15825088Y-5346657D01*
X13062899Y-8206700D02*
X13067203Y-8192917D01*
X13041692Y-8398855D02*
X13042142Y-8395352D01*
X17301369Y-6911862D02*
X17305225Y-6918828D01*
X17531052Y-7553061D02*
X17532966Y-7553973D01*
X19427653Y-11888983D02*
X19451753Y-11904548D01*
X11563683Y-9805286D02*
X11572767Y-9790519D01*
X15755925Y-14235724D02*
X15754935Y-14239128D01*
X17132132Y-6331847D02*
X17132906Y-6334291D01*
X16752306Y-6068732D02*
X16750184Y-6072929D01*
X18001719Y-9220285D02*
X18007623Y-9227652D01*
X13094270Y-8135363D02*
X13100675Y-8126528D01*
X17364777Y-7124101D02*
X17367169Y-7124788D01*
X19578190Y-12578634D02*
X19572729Y-12581020D01*
X16768108Y-5742826D02*
X16770477Y-5757155D01*
X16659651Y-5490538D02*
X16667207Y-5490043D01*
X11441664Y-8860246D02*
X11417685Y-8826130D01*
X17772658Y-8526575D02*
X17772232Y-8531187D01*
X13465361Y-7683593D02*
X13471260Y-7676646D01*
X13939504Y-5948928D02*
X13943878Y-5943854D01*
X17566975Y-7320977D02*
X17575276Y-7324497D01*
X18117359Y-9352074D02*
X18122889Y-9360262D01*
X12597374Y-6716419D02*
X12606290Y-6722348D01*
X17883047Y-7712778D02*
X17894307Y-7716147D01*
X16110788Y-13733666D02*
X16088002Y-13753606D01*
X12861899Y-7462812D02*
X12869066Y-7468742D01*
X13470978Y-6790701D02*
X13474976Y-6789868D01*
X16757881Y-13323936D02*
X16744946Y-13328814D01*
X11655290Y-13187614D02*
X11648916Y-13182508D01*
X18365257Y-7827138D02*
X18374697Y-7837717D01*
X17534665Y-7303942D02*
X17540112Y-7307458D01*
X16695111Y-6281640D02*
X16697792Y-6285085D01*
X17996364Y-9213329D02*
X18001719Y-9220285D01*
X10291205Y-12232716D02*
X10295566Y-12218653D01*
X10446076Y-12593407D02*
X10431631Y-12591273D01*
X12995196Y-8447017D02*
X12998677Y-8445365D01*
X18034987Y-8031913D02*
X18032679Y-8033801D01*
X17671478Y-7444319D02*
X17665925Y-7451748D01*
X11860836Y-13299153D02*
X11849306Y-13295528D01*
X17701682Y-8818153D02*
X17712968Y-8830001D01*
X17814608Y-8925197D02*
X17831954Y-8940126D01*
X17081548Y-6488180D02*
X17086785Y-6490964D01*
X15738310Y-14637418D02*
X15710311Y-14665395D01*
X19577660Y-12016519D02*
X19595028Y-12037745D01*
X18314756Y-8065347D02*
X18313728Y-8059794D01*
X18515385Y-13264189D02*
X18506953Y-13267393D01*
X17508636Y-8646655D02*
X17510474Y-8647827D01*
X13042879Y-8387493D02*
X13043175Y-8383102D01*
X15823411Y-14096216D02*
X15818050Y-14108451D01*
X18179537Y-9549858D02*
X18181040Y-9554586D01*
X11276309Y-6906624D02*
X11284039Y-6913402D01*
X17459255Y-8637521D02*
X17467340Y-8638454D01*
X13697253Y-6747714D02*
X13697681Y-6746366D01*
X18108499Y-7997974D02*
X18101789Y-7999436D01*
X13635949Y-6790043D02*
X13645119Y-6786990D01*
X17646853Y-8396873D02*
X17657607Y-8402074D01*
X19164201Y-10980947D02*
X19173786Y-10997152D01*
X16212394Y-13655175D02*
X16192324Y-13669333D01*
X16615541Y-5496544D02*
X16640706Y-5492708D01*
X10315380Y-12511964D02*
X10309580Y-12503487D01*
X18990328Y-12951508D02*
X18981826Y-12964611D01*
X17442076Y-8634066D02*
X17450787Y-8636038D01*
X11630291Y-13170811D02*
X11623797Y-13167855D01*
X11212418Y-10263990D02*
X11216691Y-10257687D01*
X13952462Y-5934954D02*
X13956645Y-5931164D01*
X18639550Y-13211912D02*
X18621321Y-13218937D01*
X18456041Y-8126337D02*
X18454311Y-8142364D01*
X17042530Y-6420112D02*
X17039488Y-6423214D01*
X13565497Y-6796654D02*
X13575791Y-6797397D01*
X18282798Y-13299296D02*
X18280641Y-13298337D01*
X18113908Y-13027420D02*
X18112394Y-13026568D01*
X16783589Y-13315926D02*
X16770642Y-13319678D01*
X19692016Y-12318818D02*
X19692226Y-12352663D01*
X17566295Y-13163899D02*
X17521486Y-13173808D01*
X15750261Y-14267459D02*
X15749654Y-14273812D01*
X17624292Y-7586438D02*
X17653767Y-7598273D01*
X17852557Y-7699699D02*
X17862336Y-7704582D01*
X12854407Y-7457048D02*
X12861899Y-7462812D01*
X12879662Y-7650081D02*
X12873889Y-7662119D01*
X15774949Y-14206562D02*
X15772661Y-14209350D01*
X10779279Y-12542371D02*
X10776544Y-12542523D01*
X18050371Y-13036792D02*
X18042649Y-13038577D01*
X11273693Y-8581616D02*
X11254215Y-8541938D01*
X18430678Y-10057173D02*
X18435301Y-10062231D01*
X17336888Y-6967760D02*
X17337385Y-6970561D01*
X10299350Y-12485783D02*
X10296549Y-12480042D01*
X11190710Y-6872465D02*
X11199253Y-6872353D01*
X12894335Y-7497152D02*
X12896110Y-7500756D01*
X11312887Y-10160163D02*
X11322001Y-10149475D01*
X19353690Y-12584782D02*
X19343532Y-12582028D01*
X11598051Y-9745403D02*
X11605761Y-9730203D01*
X11129818Y-10404537D02*
X11156114Y-10361011D01*
X12786422Y-13488372D02*
X12779878Y-13489583D01*
X16811492Y-13309489D02*
X16797085Y-13312567D01*
X17424379Y-7170063D02*
X17434221Y-7180038D01*
X18295947Y-8258016D02*
X18297533Y-8251676D01*
X13750584Y-6179393D02*
X13781019Y-6159138D01*
X17976109Y-9179748D02*
X17976711Y-9181536D01*
X14850307Y-5325635D02*
X14871072Y-5318839D01*
X16382849Y-13544206D02*
X16363382Y-13556689D01*
X17253010Y-13234690D02*
X17234712Y-13238602D01*
X13692703Y-6225982D02*
X13699964Y-6218326D01*
X17529600Y-7300262D02*
X17534665Y-7303942D01*
X16776189Y-5783019D02*
X16777772Y-5788583D01*
X12692142Y-7433670D02*
X12703271Y-7432484D01*
X15959179Y-5386771D02*
X15961412Y-5386919D01*
X13105804Y-13550715D02*
X13012395Y-13523000D01*
X11257440Y-13067958D02*
X11235146Y-13058344D01*
X11768394Y-9212149D02*
X11767194Y-9205370D01*
X18335798Y-9838962D02*
X18345105Y-9861240D01*
X17329978Y-7115304D02*
X17337640Y-7118160D01*
X15859611Y-14021160D02*
X15846853Y-14047501D01*
X19154395Y-10965063D02*
X19164201Y-10980947D01*
X16950282Y-6278113D02*
X16963956Y-6276713D01*
X18065713Y-13032486D02*
X18058136Y-13034745D01*
X18052318Y-7729560D02*
X18079181Y-7729680D01*
X16528359Y-5511801D02*
X16541225Y-5509663D01*
X16763412Y-5686465D02*
X16763738Y-5699533D01*
X10551649Y-11893082D02*
X10573097Y-11878668D01*
X18195541Y-13183155D02*
X18192293Y-13173814D01*
X17029562Y-6443039D02*
X17029767Y-6445701D01*
X15857884Y-5343690D02*
X15865468Y-5347431D01*
X19202267Y-12548421D02*
X19200311Y-12550079D01*
X17329629Y-6950791D02*
X17331346Y-6953652D01*
X13978148Y-5912237D02*
X13983303Y-5907061D01*
X18292295Y-8284190D02*
X18292202Y-8282628D01*
X17576895Y-7508028D02*
X17573948Y-7508491D01*
X17274132Y-6809400D02*
X17275927Y-6822320D01*
X11352223Y-6818742D02*
X11353163Y-6812980D01*
X11350264Y-6999569D02*
X11351089Y-6998244D01*
X12825543Y-13481499D02*
X12819372Y-13482065D01*
X16845011Y-6315088D02*
X16856269Y-6311070D01*
X13546644Y-7432826D02*
X13545375Y-7430480D01*
X15835627Y-5339063D02*
X15838955Y-5336995D01*
X18677191Y-10394596D02*
X18685316Y-10404478D01*
X10835750Y-12632531D02*
X10825637Y-12611585D01*
X17680364Y-7406768D02*
X17681266Y-7409609D01*
X16751000Y-5598872D02*
X16754551Y-5613702D01*
X10374670Y-12567773D02*
X10366255Y-12562179D01*
X18292706Y-8287069D02*
X18292463Y-8285668D01*
X13268454Y-13605102D02*
X13191047Y-13578041D01*
X13071900Y-8179814D02*
X13076972Y-8167450D01*
X11661974Y-13193455D02*
X11655290Y-13187614D01*
X12006281Y-13404547D02*
X12003452Y-13400575D01*
X11736647Y-9378154D02*
X11738029Y-9371582D01*
X17283418Y-13227671D02*
X17268722Y-13231156D01*
X19475052Y-11921093D02*
X19497497Y-11938560D01*
X11372921Y-10081381D02*
X11384284Y-10064696D01*
X12534255Y-6695208D02*
X12550249Y-6698537D01*
X11096835Y-8034560D02*
X11093649Y-8021831D01*
X13873373Y-13959743D02*
X13845086Y-13935108D01*
X17976711Y-9181536D02*
X17978415Y-9185537D01*
X10785394Y-12542936D02*
X10784613Y-12542732D01*
X13295797Y-7782667D02*
X13298674Y-7779959D01*
X11767014Y-9255068D02*
X11768295Y-9245078D01*
X13298695Y-6833584D02*
X13302682Y-6830151D01*
X15840051Y-5336457D02*
X15840734Y-5336274D01*
X17628918Y-8725423D02*
X17630274Y-8726320D01*
X13695989Y-6750395D02*
X13696688Y-6749054D01*
X11883917Y-13307543D02*
X11872413Y-13303173D01*
X11477872Y-13133661D02*
X11451125Y-13126788D01*
X11357399Y-6798418D02*
X11359309Y-6794196D01*
X13698092Y-6742166D02*
X13697923Y-6740679D01*
X17132140Y-6346515D02*
X17131047Y-6349014D01*
X13491054Y-7627611D02*
X13491167Y-7623646D01*
X18329249Y-8307252D02*
X18324600Y-8307765D01*
X13613303Y-6495504D02*
X13614494Y-6476740D01*
X13040598Y-8405100D02*
X13041179Y-8402099D01*
X15779500Y-14200385D02*
X15777234Y-14203564D01*
X15961412Y-5386919D02*
X15964161Y-5387356D01*
X12719314Y-8034771D02*
X12710490Y-8055904D01*
X12904709Y-7561045D02*
X12903689Y-7571865D01*
X17499515Y-7265240D02*
X17503679Y-7271621D01*
X13332315Y-7757318D02*
X13342229Y-7752309D01*
X17370341Y-8590549D02*
X17369872Y-8592304D01*
X11503684Y-9889146D02*
X11514161Y-9875573D01*
X17585644Y-8337435D02*
X17585273Y-8339433D01*
X18162090Y-7730407D02*
X18190687Y-7731577D01*
X11182056Y-6873123D02*
X11190710Y-6872465D01*
X13845086Y-13935108D02*
X13822280Y-13915536D01*
X13663747Y-6279400D02*
X13667156Y-6269106D01*
X18160482Y-13093680D02*
X18158666Y-13087458D01*
X17579810Y-7507743D02*
X17576895Y-7508028D01*
X11747548Y-13274059D02*
X11745027Y-13272413D01*
X11260540Y-6894391D02*
X11268445Y-6900259D01*
X12931218Y-8464149D02*
X12945853Y-8460270D01*
X12650100Y-7388243D02*
X12651197Y-7419325D01*
X16708158Y-5502869D02*
X16710958Y-5505989D01*
X17760901Y-13124389D02*
X17750631Y-13126786D01*
X11769110Y-9219449D02*
X11768394Y-9212149D01*
X18027755Y-7729240D02*
X18052318Y-7729560D01*
X14828168Y-5333514D02*
X14850307Y-5325635D01*
X17636906Y-7480659D02*
X17628688Y-7487020D01*
X13532967Y-7416717D02*
X13530064Y-7414416D01*
X12670399Y-8262936D02*
X12668799Y-8294878D01*
X18109412Y-13025172D02*
X18107928Y-13024625D01*
X13697593Y-6739131D02*
X13697099Y-6737511D01*
X15533558Y-5381667D02*
X15551206Y-5387075D01*
X10284924Y-12261487D02*
X10287685Y-12246916D01*
X19675412Y-12183151D02*
X19677915Y-12191006D01*
X11467944Y-6720658D02*
X11483768Y-6715997D01*
X17676054Y-7437075D02*
X17673897Y-7440665D01*
X13123635Y-8105432D02*
X13127997Y-8102458D01*
X10287839Y-12456052D02*
X10286231Y-12449418D01*
X13228161Y-7015264D02*
X13228955Y-6999566D01*
X18131032Y-7994715D02*
X18123062Y-7995623D01*
X18293421Y-8289665D02*
X18293025Y-8288399D01*
X18104135Y-9334844D02*
X18111143Y-9343655D01*
X17707943Y-8557699D02*
X17699820Y-8554919D01*
X17106662Y-6374052D02*
X17102302Y-6377256D01*
X14245792Y-14607149D02*
X14245251Y-14601664D01*
X16789015Y-5872191D02*
X16788027Y-5880322D01*
X19292202Y-11812360D02*
X19296853Y-11815580D01*
X17407607Y-8622480D02*
X17415887Y-8625812D01*
X19495503Y-12596771D02*
X19479724Y-12597421D01*
X12773082Y-13490619D02*
X12766011Y-13491479D01*
X13474976Y-6789868D02*
X13479175Y-6789181D01*
X18815104Y-10498364D02*
X18836021Y-10512234D01*
X17129673Y-6326901D02*
X17131054Y-6329387D01*
X13353244Y-7747151D02*
X13365458Y-7741769D01*
X16766152Y-5728153D02*
X16768108Y-5742826D01*
X13119592Y-8108332D02*
X13123635Y-8105432D01*
X11361972Y-10097019D02*
X11372921Y-10081381D01*
X17570980Y-7509121D02*
X17568004Y-7509908D01*
X11158623Y-8204690D02*
X11153015Y-8189355D01*
X17600307Y-8528405D02*
X17586543Y-8526828D01*
X12675120Y-13490469D02*
X12651345Y-13488181D01*
X19055205Y-12830943D02*
X19029613Y-12881238D01*
X11572767Y-9790519D02*
X11581535Y-9775594D01*
X11101021Y-8048696D02*
X11096835Y-8034560D01*
X18448551Y-8170368D02*
X18446079Y-8178146D01*
X10928103Y-12794397D02*
X10899416Y-12747870D01*
X12781863Y-7901228D02*
X12771961Y-7923800D01*
X18036378Y-9260789D02*
X18044765Y-9269875D01*
X17285315Y-7092735D02*
X17291759Y-7096718D01*
X17602968Y-8719574D02*
X17607220Y-8719659D01*
X16713759Y-5509533D02*
X16716554Y-5513479D01*
X13542167Y-7425858D02*
X13540220Y-7423570D01*
X12886524Y-7485727D02*
X12888569Y-7488205D01*
X18419992Y-7901522D02*
X18426019Y-7914201D01*
X17641083Y-8536033D02*
X17627606Y-8533009D01*
X13538041Y-7421288D02*
X13535624Y-7419006D01*
X18217176Y-13235906D02*
X18214337Y-13231597D01*
X10754760Y-12546641D02*
X10750493Y-12547813D01*
X16702592Y-5497989D02*
X16705367Y-5500195D01*
X16699839Y-5496271D02*
X16702592Y-5497989D01*
X17184076Y-13248873D02*
X17104254Y-13264600D01*
X13492336Y-7613621D02*
X13493729Y-7606941D01*
X13697966Y-6744999D02*
X13698105Y-6743603D01*
X18156985Y-13077496D02*
X18156822Y-13076688D01*
X10786644Y-12543482D02*
X10786072Y-12543186D01*
X19401589Y-12594160D02*
X19392138Y-12592823D01*
X12019381Y-13419368D02*
X12015863Y-13415841D01*
X17980770Y-9190088D02*
X17983760Y-9195166D01*
X11096395Y-7787904D02*
X11095179Y-7647421D01*
X17604630Y-8314098D02*
X17599660Y-8317476D01*
X13247906Y-7128918D02*
X13242873Y-7116879D01*
X13259309Y-8011123D02*
X13258330Y-8003678D01*
X12810096Y-7831353D02*
X12801224Y-7854293D01*
X10356409Y-12104159D02*
X10370400Y-12082675D01*
X17112850Y-6507686D02*
X17117792Y-6511390D01*
X16788374Y-5826367D02*
X16789298Y-5832363D01*
X17369872Y-8592304D02*
X17369681Y-8593986D01*
X11085708Y-7078563D02*
X11080828Y-7064422D01*
X18112394Y-13026568D02*
X18110898Y-13025820D01*
X14268279Y-14662858D02*
X14265971Y-14660511D01*
X17036880Y-6458914D02*
X17039521Y-6461595D01*
X16363382Y-13556689D02*
X16344274Y-13568544D01*
X19462868Y-12597610D02*
X19441057Y-12597237D01*
X18315465Y-8128758D02*
X18316385Y-8108762D01*
X19191901Y-11029852D02*
X19200238Y-11046012D01*
X11389004Y-6759390D02*
X11393591Y-6755898D01*
X11849306Y-13295528D02*
X11837943Y-13292341D01*
X11096461Y-7117230D02*
X11095148Y-7110796D01*
X12664712Y-8481640D02*
X12665592Y-8502319D01*
X19029613Y-12881238D02*
X19008518Y-12920580D01*
X16790300Y-5844540D02*
X16790385Y-5850905D01*
X16787165Y-5820312D02*
X16788374Y-5826367D01*
X11705104Y-9481725D02*
X11711859Y-9465016D01*
X17585995Y-8349307D02*
X17586672Y-8351274D01*
X12839283Y-7446734D02*
X12843016Y-7449104D01*
X15922452Y-5375613D02*
X15931807Y-5379354D01*
X10813600Y-12587059D02*
X10807753Y-12575973D01*
X16878284Y-6302560D02*
X16888373Y-6298325D01*
X12899817Y-7594106D02*
X12896974Y-7605393D01*
X16711821Y-6119872D02*
X16709687Y-6123776D01*
X16743406Y-6323311D02*
X16746703Y-6324747D01*
X17587093Y-8717598D02*
X17590866Y-8718488D01*
X11337433Y-6988754D02*
X11339097Y-6991788D01*
X17410795Y-13199388D02*
X17389562Y-13203708D01*
X16714100Y-6116114D02*
X16711821Y-6119872D01*
X18293180Y-8271123D02*
X18293594Y-8268789D01*
X13528935Y-6790244D02*
X13534358Y-6791136D01*
X16541225Y-5509663D02*
X16582824Y-5502158D01*
X18122889Y-9360262D02*
X18127836Y-9368380D01*
X13405021Y-7725295D02*
X13415565Y-7720208D01*
X15921921Y-13919881D02*
X15907682Y-13937008D01*
X12860283Y-7693748D02*
X12852900Y-7712191D01*
X11534716Y-9848301D02*
X11544639Y-9834211D01*
X17935265Y-9073719D02*
X17943312Y-9090171D01*
X12047281Y-13439762D02*
X12043030Y-13437374D01*
X18230366Y-13253407D02*
X18226838Y-13249058D01*
X18025876Y-8041944D02*
X18025824Y-8042443D01*
X17528233Y-7551242D02*
X17529707Y-7552322D01*
X12516037Y-6692208D02*
X12534255Y-6695208D01*
X16272956Y-5509808D02*
X16283236Y-5513698D01*
X16737101Y-6090985D02*
X16733955Y-6094083D01*
X16095455Y-5442484D02*
X16105853Y-5446379D01*
X17721513Y-8561914D02*
X17718429Y-8561026D01*
X13493729Y-7606941D02*
X13495609Y-7599304D01*
X11237326Y-8504771D02*
X11223513Y-8470940D01*
X13041179Y-8402099D02*
X13041692Y-8398855D01*
X17724408Y-8562693D02*
X17721513Y-8561914D01*
X13252247Y-7868808D02*
X13253257Y-7862902D01*
X16760309Y-6328830D02*
X16763849Y-6329443D01*
X16696183Y-5494441D02*
X16699839Y-5496271D01*
X10965675Y-10683386D02*
X11010264Y-10602757D01*
X17351633Y-7122327D02*
X17357627Y-7123469D01*
X18401854Y-8255796D02*
X18391611Y-8267301D01*
X12984884Y-8451378D02*
X12988274Y-8450033D01*
X17901852Y-9015236D02*
X17907396Y-9023677D01*
X18257411Y-13281154D02*
X18251716Y-13275816D01*
X11139151Y-6884041D02*
X11147490Y-6880896D01*
X17647594Y-8747781D02*
X17650092Y-8752397D01*
X12665592Y-8502319D02*
X12666351Y-8510199D01*
X13280062Y-6853724D02*
X13283621Y-6849295D01*
X16786764Y-6329823D02*
X16790925Y-6329353D01*
X17318022Y-6936131D02*
X17320745Y-6939119D01*
X15948048Y-5384778D02*
X15951395Y-5385630D01*
X17521486Y-13173808D02*
X17480457Y-13183589D01*
X12806615Y-13484005D02*
X12799859Y-13485368D01*
X17630274Y-8726320D02*
X17631602Y-8727293D01*
X10309580Y-12503487D02*
X10304228Y-12494752D01*
X18156822Y-13076688D02*
X18156597Y-13075833D01*
X13973271Y-5916952D02*
X13978148Y-5912237D01*
X15046687Y-5292333D02*
X15077203Y-5291113D01*
X13301690Y-7777313D02*
X13304857Y-7774721D01*
X10787816Y-12544435D02*
X10786644Y-12543482D01*
X12685309Y-8137752D02*
X12681130Y-8159470D01*
X19145431Y-12650767D02*
X19127120Y-12686679D01*
X17254073Y-6715292D02*
X17257333Y-6722870D01*
X13026292Y-8428714D02*
X13028125Y-8427228D01*
X13964523Y-5924802D02*
X13968715Y-5921156D01*
X18301897Y-8234112D02*
X18304396Y-8221510D01*
X18478215Y-13276435D02*
X18467531Y-13279249D01*
X17681877Y-8796122D02*
X17691307Y-8806848D01*
X11764084Y-6678187D02*
X11854509Y-6672077D01*
X12850604Y-7454284D02*
X12854407Y-7457048D01*
X16759313Y-6049634D02*
X16757773Y-6054776D01*
X10323031Y-12159028D02*
X10332805Y-12142099D01*
X19270852Y-11730361D02*
X19272567Y-11759608D01*
X11349357Y-7000453D02*
X11350264Y-6999569D01*
X11760759Y-9187543D02*
X11755793Y-9179921D01*
X13696435Y-6735809D02*
X13695598Y-6734015D01*
X17677830Y-7400942D02*
X17680364Y-7406768D01*
X19691332Y-12289798D02*
X19692016Y-12318818D01*
X19260349Y-11242982D02*
X19262426Y-11262269D01*
X10778435Y-11428249D02*
X10793210Y-11239579D01*
X11298724Y-6927856D02*
X11305495Y-6935364D01*
X11998178Y-13393201D02*
X11992165Y-13385462D01*
X18419626Y-13289431D02*
X18392755Y-13293839D01*
X17527665Y-8663246D02*
X17531878Y-8668006D01*
X18028253Y-13041167D02*
X18022040Y-13041872D01*
X16688970Y-6271696D02*
X16690709Y-6274977D01*
X17568004Y-7509908D02*
X17565032Y-7510841D01*
X11492108Y-9904663D02*
X11503684Y-9889146D01*
X19210231Y-12545428D02*
X19207175Y-12546086D01*
X11204272Y-10276911D02*
X11208269Y-10270410D01*
X15801800Y-14150882D02*
X15799752Y-14158102D01*
X17335282Y-6962145D02*
X17336187Y-6964955D01*
X13456976Y-13685900D02*
X13429866Y-13672385D01*
X19161918Y-12618926D02*
X19145431Y-12650767D01*
X17766537Y-8882123D02*
X17781866Y-8896161D01*
X17754704Y-8560231D02*
X17753445Y-8561152D01*
X10476897Y-11953056D02*
X10494165Y-11937511D01*
X13629371Y-6413883D02*
X13631138Y-6410320D01*
X17285173Y-6868069D02*
X17288000Y-6878020D01*
X13833200Y-6118507D02*
X13840744Y-6110789D01*
X15781732Y-14197052D02*
X15779500Y-14200385D01*
X10300849Y-12204488D02*
X10307133Y-12189987D01*
X14247001Y-14616930D02*
X14246374Y-14612230D01*
X17523644Y-8659001D02*
X17527665Y-8663246D01*
X10737152Y-12552057D02*
X10732618Y-12553697D01*
X17241562Y-6690598D02*
X17246216Y-6699226D01*
X11041463Y-12944347D02*
X11030261Y-12933918D01*
X19430786Y-12596781D02*
X19420836Y-12596125D01*
X12857722Y-13482932D02*
X12850826Y-13482058D01*
X15997364Y-13839245D02*
X15956544Y-13881388D01*
X11346140Y-7000472D02*
X11347295Y-7000904D01*
X12023040Y-13422760D02*
X12019381Y-13419368D01*
X19690786Y-12276865D02*
X19691332Y-12289798D01*
X17614883Y-8720394D02*
X17618343Y-8721078D01*
X16023207Y-5409708D02*
X16035005Y-5415474D01*
X17270361Y-6773935D02*
X17271165Y-6781784D01*
X18444587Y-13284560D02*
X18419626Y-13289431D01*
X18315549Y-8071265D02*
X18314756Y-8065347D01*
X17542890Y-7522324D02*
X17538261Y-7525928D01*
X11733173Y-9403639D02*
X11733721Y-9400758D01*
X18457313Y-8091329D02*
X18457034Y-8109252D01*
X17772636Y-8521840D02*
X17772658Y-8526575D01*
X13047839Y-8283806D02*
X13049933Y-8267484D01*
X17480457Y-13183589D02*
X17459225Y-13188668D01*
X18177172Y-9531961D02*
X18177495Y-9535728D01*
X13342821Y-6807915D02*
X13347785Y-6806386D01*
X17896199Y-9007162D02*
X17901852Y-9015236D01*
X17763090Y-8552012D02*
X17759805Y-8555647D01*
X10289664Y-12462355D02*
X10287839Y-12456052D01*
X17771348Y-8535666D02*
X17770000Y-8540000D01*
X10512301Y-11922401D02*
X10531423Y-11907626D01*
X13034160Y-8420826D02*
X13035373Y-8419021D01*
X17368330Y-13208035D02*
X17344115Y-13213286D01*
X17092567Y-6384009D02*
X17081468Y-6391273D01*
X12673823Y-8531386D02*
X12676136Y-8533099D01*
X17049923Y-6281729D02*
X17062974Y-6284688D01*
X11340676Y-6994391D02*
X11342169Y-6996562D01*
X12896974Y-7605393D02*
X12893533Y-7616701D01*
X12673875Y-7435964D02*
X12682238Y-7434842D01*
X18383745Y-7848463D02*
X18392311Y-7859286D01*
X15712686Y-5406530D02*
X15721018Y-5406079D01*
X13625077Y-6423297D02*
X13627134Y-6418447D01*
X10342517Y-12542844D02*
X10335196Y-12535624D01*
X11354333Y-6980971D02*
X11354593Y-6976528D01*
X17923882Y-9051871D02*
X17929500Y-9062445D01*
X14196915Y-14248517D02*
X14192125Y-14242518D01*
X18316598Y-8099975D02*
X18316632Y-8091902D01*
X13169871Y-8078740D02*
X13175412Y-8076132D01*
X17268414Y-7075395D02*
X17268368Y-7076187D01*
X17634182Y-8729473D02*
X17635440Y-8730685D01*
X13012395Y-13523000D02*
X12910489Y-13494777D01*
X12773944Y-7427723D02*
X12780690Y-7427849D01*
X18497939Y-13270504D02*
X18488355Y-13273519D01*
X15846246Y-5338266D02*
X15851406Y-5340601D01*
X18766765Y-10468484D02*
X18792066Y-10483833D01*
X11616932Y-13165238D02*
X11609563Y-13162882D01*
X15551206Y-5387075D02*
X15568476Y-5391812D01*
X17588576Y-8355220D02*
X17589808Y-8357203D01*
X13483560Y-6788639D02*
X13488117Y-6788242D01*
X16750184Y-6072929D02*
X16747904Y-6076917D01*
X17770000Y-8540000D02*
X17768179Y-8544177D01*
X18148645Y-7993387D02*
X18139540Y-7993973D01*
X13943878Y-5943854D02*
X13948202Y-5939190D01*
X17282551Y-6857523D02*
X17285173Y-6868069D01*
X18426124Y-10051966D02*
X18430678Y-10057173D01*
X18301707Y-8300257D02*
X18300515Y-8299268D01*
X18289457Y-13301475D02*
X18287192Y-13300860D01*
X17123733Y-6319218D02*
X17126011Y-6321825D01*
X16301616Y-5519741D02*
X16310118Y-5521967D01*
X14241481Y-14519212D02*
X14240388Y-14468796D01*
X13378867Y-7294240D02*
X13360007Y-7274319D01*
X11467194Y-9939356D02*
X11479818Y-9921581D01*
X17592846Y-8361201D02*
X17594656Y-8363221D01*
X11067025Y-6990126D02*
X11067305Y-6979479D01*
X18171024Y-9497957D02*
X18173797Y-9511115D01*
X17727206Y-13131885D02*
X17699573Y-13137483D01*
X11089859Y-7998714D02*
X11089045Y-7987388D01*
X17637908Y-8733364D02*
X17640333Y-8736395D01*
X18176750Y-13135267D02*
X18172807Y-13126323D01*
X17784261Y-7659977D02*
X17811557Y-7674986D01*
X17645152Y-8743587D02*
X17647594Y-8747781D01*
X18421666Y-10046648D02*
X18426124Y-10051966D01*
X13451439Y-7696836D02*
X13458749Y-7690329D01*
X16736892Y-6319926D02*
X16740138Y-6321704D01*
X11287406Y-10186720D02*
X11295605Y-10178766D01*
X13112616Y-8113814D02*
X13115907Y-8111133D01*
X13616623Y-6794643D02*
X13626429Y-6792599D01*
X17595378Y-8321102D02*
X17591807Y-8324969D01*
X11542446Y-13148415D02*
X11509638Y-13141173D01*
X18123775Y-13034772D02*
X18120285Y-13031884D01*
X13904238Y-6002051D02*
X13908552Y-5994365D01*
X11353073Y-6991611D02*
X11353573Y-6988511D01*
X17760556Y-8486269D02*
X17763504Y-8491529D01*
X17875143Y-8201254D02*
X17835904Y-8237685D01*
X17527085Y-7550038D02*
X17528233Y-7551242D01*
X17382911Y-8574614D02*
X17378438Y-8578826D01*
X11131049Y-6887635D02*
X11139151Y-6884041D01*
X18292463Y-8285668D02*
X18292295Y-8284190D01*
X13260829Y-8019860D02*
X13260166Y-8016267D01*
X17974510Y-9169252D02*
X17975120Y-9172631D01*
X18411648Y-8243279D02*
X18401854Y-8255796D01*
X18173797Y-9511115D02*
X18175878Y-9522589D01*
X14166119Y-5706388D02*
X14184806Y-5690227D01*
X17631602Y-8727293D02*
X17632903Y-8728343D01*
X13822280Y-13915536D02*
X13795749Y-13894299D01*
X13476429Y-7669506D02*
X13480850Y-7662192D01*
X12969658Y-8456088D02*
X12972389Y-8455447D01*
X18156597Y-13075833D02*
X18155968Y-13073986D01*
X17800014Y-13113371D02*
X17793641Y-13115492D01*
X17749543Y-8563358D02*
X17748167Y-8563905D01*
X16709687Y-6123776D02*
X16707703Y-6127818D01*
X12904051Y-7530586D02*
X12904894Y-7540338D01*
X14263809Y-14658183D02*
X14262152Y-14656292D01*
X13039210Y-8410448D02*
X13039944Y-8407877D01*
X11196835Y-10290031D02*
X11200451Y-10283463D01*
X18355514Y-7816819D02*
X18365257Y-7827138D01*
X17682311Y-7415126D02*
X17682444Y-7417791D01*
X12026829Y-13426008D02*
X12023040Y-13422760D01*
X13250519Y-7903390D02*
X13250452Y-7895592D01*
X18390136Y-10000321D02*
X18392561Y-10004860D01*
X11088812Y-7975589D02*
X11089668Y-7948698D01*
X18172807Y-13126323D02*
X18169127Y-13117461D01*
X16140410Y-5457110D02*
X16153228Y-5461627D01*
X18368450Y-9925774D02*
X18374601Y-9946287D01*
X19644643Y-12528804D02*
X19634460Y-12538956D01*
X18155968Y-13073986D02*
X18155108Y-13071975D01*
X18320125Y-8307764D02*
X18315843Y-8307232D01*
X12991719Y-8448576D02*
X12995196Y-8447017D01*
X13926206Y-5966424D02*
X13930655Y-5960231D01*
X10766534Y-11628202D02*
X10778435Y-11428249D01*
X18392561Y-10004860D02*
X18395317Y-10009643D01*
X17553433Y-7515829D02*
X17547980Y-7518930D01*
X19107449Y-12725772D02*
X19086884Y-12767155D01*
X13693383Y-6730106D02*
X13691996Y-6727971D01*
X16684221Y-13356768D02*
X16643404Y-13377390D01*
X16733661Y-6317976D02*
X16736892Y-6319926D01*
X13930655Y-5960231D02*
X13935092Y-5954393D01*
X12819372Y-13482065D02*
X12813091Y-13482903D01*
X18454108Y-8034719D02*
X18455827Y-8053843D01*
X19230820Y-11118183D02*
X19242366Y-11156662D01*
X13699964Y-6218326D02*
X13708093Y-6210760D01*
X15813065Y-14120387D02*
X15808599Y-14131673D01*
X17744972Y-8465063D02*
X17749421Y-8470366D01*
X14286750Y-14678525D02*
X14284008Y-14676479D01*
X14275863Y-14669863D02*
X14273245Y-14667550D01*
X14034970Y-5847680D02*
X14040497Y-5840547D01*
X11320848Y-13091343D02*
X11300530Y-13084583D01*
X18157084Y-13078252D02*
X18156985Y-13077496D01*
X17257333Y-6722870D02*
X17260187Y-6730238D01*
X19072499Y-10859134D02*
X19083992Y-10872212D01*
X17884361Y-8991854D02*
X17890386Y-8999390D01*
X17651946Y-7370184D02*
X17658740Y-7376427D01*
X11776742Y-13284049D02*
X11771650Y-13283407D01*
X10786072Y-12543186D02*
X10785394Y-12542936D01*
X18234011Y-13257684D02*
X18230366Y-13253407D01*
X12630477Y-6744645D02*
X12664159Y-6781398D01*
X18239148Y-7738670D02*
X18246696Y-7741029D01*
X15873945Y-5351719D02*
X15883100Y-5356450D01*
X18506953Y-13267393D02*
X18497939Y-13270504D01*
X10758892Y-12545599D02*
X10754760Y-12546641D01*
X11393591Y-6755898D02*
X11398427Y-6752490D01*
X18106438Y-13024175D02*
X18104935Y-13023822D01*
X18734210Y-10448107D02*
X18744046Y-10454558D01*
X12710490Y-8055904D02*
X12702759Y-8076383D01*
X15804796Y-14141955D02*
X15801800Y-14150882D01*
X18455827Y-8053843D02*
X18456904Y-8072786D01*
X13431998Y-6798041D02*
X13442074Y-6796707D01*
X11207627Y-6872806D02*
X11215775Y-6873838D01*
X17337640Y-7118160D02*
X17344914Y-7120529D01*
X12893533Y-7616701D02*
X12889497Y-7627962D01*
X13259821Y-7840561D02*
X13262139Y-7834985D01*
X10279873Y-12375332D02*
X10279693Y-12348186D01*
X17583407Y-8716416D02*
X17587093Y-8717598D01*
X11426331Y-6736729D02*
X11439221Y-6731026D01*
X15783916Y-14193592D02*
X15781732Y-14197052D01*
X17585040Y-8343400D02*
X17585182Y-8345372D01*
X10295566Y-12218653D02*
X10300849Y-12204488D01*
X13549816Y-7447801D02*
X13549797Y-7445166D01*
X13458749Y-7690329D02*
X13465361Y-7683593D01*
X18254056Y-7743769D02*
X18261452Y-7746916D01*
X12012499Y-13412189D02*
X12009300Y-13408421D01*
X11329913Y-6972330D02*
X11333847Y-6981397D01*
X15710311Y-14665395D02*
X15682312Y-14693372D01*
X11541741Y-8964429D02*
X11529312Y-8954369D01*
X17120769Y-6362207D02*
X17117739Y-6365038D01*
X17626104Y-8723847D02*
X17627528Y-8724599D01*
X11725153Y-13256232D02*
X11718464Y-13249923D01*
X11164225Y-8221188D02*
X11158623Y-8204690D01*
X15721018Y-5406079D02*
X15728521Y-5405407D01*
X17110687Y-6370953D02*
X17106662Y-6374052D01*
X13500670Y-7581628D02*
X13507199Y-7561523D01*
X18163771Y-9468263D02*
X18167651Y-9483534D01*
X13511751Y-7402490D02*
X13502580Y-7397404D01*
X18180811Y-13144502D02*
X18176750Y-13135267D01*
X16968924Y-13286024D02*
X16909841Y-13294366D01*
X11384667Y-6762968D02*
X11389004Y-6759390D01*
X18304396Y-8221510D02*
X18306819Y-8207301D01*
X12666351Y-8510199D02*
X12667340Y-8516652D01*
X11556730Y-6700874D02*
X11577368Y-6697982D01*
X12076538Y-13449828D02*
X12064715Y-13447221D01*
X18127547Y-13038115D02*
X18123775Y-13034772D01*
X12838100Y-7751463D02*
X12831133Y-7771143D01*
X17129635Y-6351550D02*
X17127903Y-6354130D01*
X18028453Y-9252001D02*
X18036378Y-9260789D01*
X16813596Y-6324811D02*
X16823660Y-6322004D01*
X18284977Y-13300136D02*
X18282798Y-13299296D01*
X18185203Y-9565361D02*
X18187823Y-9571325D01*
X16617436Y-13390913D02*
X16591569Y-13404953D01*
X17862155Y-13087052D02*
X17837506Y-13096728D01*
X16724597Y-6102685D02*
X16721773Y-6105787D01*
X12843016Y-7449104D02*
X12846798Y-7451628D01*
X17374799Y-8582919D02*
X17372074Y-8586843D01*
X17738135Y-8855187D02*
X17751949Y-8868454D01*
X19685609Y-12224241D02*
X19687005Y-12233471D01*
X10714380Y-12560017D02*
X10694817Y-12565910D01*
X12808741Y-7432076D02*
X12813713Y-7433729D01*
X17786598Y-13117640D02*
X17778830Y-13119829D01*
X18280641Y-13298337D02*
X18278493Y-13297255D01*
X17681685Y-7423678D02*
X17680763Y-7426850D01*
X17036853Y-6426232D02*
X17034623Y-6429174D01*
X14148148Y-5722573D02*
X14166119Y-5706388D01*
X17123472Y-6359450D02*
X17120769Y-6362207D01*
X17069367Y-6481735D02*
X17081548Y-6488180D01*
X18042649Y-13038577D02*
X18035200Y-13040052D01*
X15793869Y-5371621D02*
X15802461Y-5364521D01*
X13634733Y-6401947D02*
X13636536Y-6397223D01*
X18194040Y-9584195D02*
X18197596Y-9591018D01*
X13230100Y-7061450D02*
X13228731Y-7046314D01*
X18100270Y-13023328D02*
X18098638Y-13023346D01*
X17725130Y-8842357D02*
X17738135Y-8855187D01*
X13916497Y-13996358D02*
X13873373Y-13959743D01*
X13002139Y-8443631D02*
X13005555Y-8441824D01*
X16740138Y-6321704D02*
X16743406Y-6323311D01*
X12998677Y-8445365D02*
X13002139Y-8443631D01*
X13653634Y-13796008D02*
X13642503Y-13789701D01*
X17062974Y-6284688D02*
X17075109Y-6288222D01*
X16897404Y-6294277D02*
X16905043Y-6290543D01*
X17526250Y-7548720D02*
X17527085Y-7550038D01*
X13627134Y-6418447D02*
X13629371Y-6413883D01*
X11945233Y-6668431D02*
X12037945Y-6667205D01*
X18083238Y-8005083D02*
X18077385Y-8007417D01*
X18312454Y-8054534D02*
X18310923Y-8049499D01*
X10807753Y-12575973D02*
X10802235Y-12566044D01*
X17585182Y-8345372D02*
X17585499Y-8347340D01*
X17433262Y-8631665D02*
X17442076Y-8634066D01*
X18104935Y-13023822D02*
X18103411Y-13023564D01*
X11295605Y-10178766D02*
X11304094Y-10169921D01*
X13298674Y-7779959D02*
X13301690Y-7777313D01*
X13548715Y-7456155D02*
X13549270Y-7453289D01*
X18486542Y-10120887D02*
X18494865Y-10131627D01*
X17121161Y-6316557D02*
X17123733Y-6319218D01*
X19302112Y-11819052D02*
X19307929Y-11822746D01*
X13651814Y-6340595D02*
X13652793Y-6334945D01*
X11009090Y-12909932D02*
X10997025Y-12894605D01*
X10383291Y-12572904D02*
X10374670Y-12567773D01*
X18313728Y-8059794D02*
X18312454Y-8054534D01*
X11252686Y-6889105D02*
X11260540Y-6894391D01*
X11613083Y-9714979D02*
X11619996Y-9699764D01*
X19034382Y-10811611D02*
X19042814Y-10822901D01*
X13370599Y-13645459D02*
X13338358Y-13632018D01*
X16777772Y-5788583D02*
X16779401Y-5793676D01*
X16324408Y-13580852D02*
X16302769Y-13594634D01*
X16437971Y-13506739D02*
X16420687Y-13518856D01*
X12819926Y-8498863D02*
X12869722Y-8482601D01*
X12034745Y-13432035D02*
X12030734Y-13429103D01*
X12872801Y-13485601D02*
X12865019Y-13484111D01*
X10314500Y-12174912D02*
X10323031Y-12159028D01*
X11694515Y-13225758D02*
X11685237Y-13216183D01*
X14078565Y-14132462D02*
X14051311Y-14108833D01*
X17100077Y-6299490D02*
X17103944Y-6302149D01*
X11369827Y-6778120D02*
X11373160Y-6774206D01*
X15967386Y-5388067D02*
X15971049Y-5389035D01*
X17582679Y-7507645D02*
X17579810Y-7507743D01*
X17097340Y-6497179D02*
X17102588Y-6500552D01*
X12897725Y-7504541D02*
X12899178Y-7508498D01*
X17145588Y-6537228D02*
X17148164Y-6540564D01*
X15846853Y-14047501D02*
X15834689Y-14072257D01*
X12945853Y-8460270D02*
X12956580Y-8457814D01*
X11760047Y-9290229D02*
X11762896Y-9277582D01*
X13323403Y-7762250D02*
X13332315Y-7757318D01*
X10332805Y-12142099D02*
X10343904Y-12123888D01*
X13082402Y-8155882D02*
X13088174Y-8145167D01*
X12452412Y-13473224D02*
X12309574Y-13467542D01*
X17984867Y-7727889D02*
X18005326Y-7728692D01*
X17758499Y-8556926D02*
X17757221Y-8558117D01*
X17336785Y-6984620D02*
X17336046Y-6987461D01*
X12792737Y-13486985D02*
X12786422Y-13488372D01*
X17591231Y-8359196D02*
X17592846Y-8361201D01*
X18374697Y-7837717D02*
X18383745Y-7848463D01*
X12831133Y-7771143D02*
X12824756Y-7790086D01*
X16756831Y-6328055D02*
X16760309Y-6328830D01*
X14365611Y-14692079D02*
X14322109Y-14690626D01*
X11642715Y-13178058D02*
X11636552Y-13174185D01*
X15681407Y-5406969D02*
X15703394Y-5406802D01*
X13251807Y-7930430D02*
X13250773Y-7911754D01*
X10287685Y-12246916D02*
X10291205Y-12232716D01*
X12121307Y-13455401D02*
X12095737Y-13452582D01*
X17768210Y-8501918D02*
X17769951Y-8507023D01*
X18836021Y-10512234D02*
X18854961Y-10525600D01*
X16888373Y-6298325D02*
X16897404Y-6294277D01*
X14270710Y-14665210D02*
X14268279Y-14662858D01*
X17557820Y-8698499D02*
X17561636Y-8702211D01*
X17598872Y-8367315D02*
X17601282Y-8369393D01*
X11769337Y-9227329D02*
X11769110Y-9219449D01*
X14023481Y-5861963D02*
X14034970Y-5847680D01*
X11056742Y-10522862D02*
X11103644Y-10446572D01*
X18401715Y-10019783D02*
X18405306Y-10025062D01*
X11105883Y-12990334D02*
X11087313Y-12978447D01*
X19019466Y-10789835D02*
X19026612Y-10800611D01*
X16041982Y-13795851D02*
X15997364Y-13839245D01*
X15602007Y-5399312D02*
X15618330Y-5402093D01*
X14045822Y-5833485D02*
X14057636Y-5818150D01*
X13640092Y-6386917D02*
X13643497Y-6375755D01*
X13039944Y-8407877D02*
X13040598Y-8405100D01*
X18325261Y-13301992D02*
X18317703Y-13302614D01*
X17599660Y-8317476D02*
X17595378Y-8321102D01*
X19061832Y-10846598D02*
X19072499Y-10859134D01*
X18111143Y-9343655D02*
X18117359Y-9352074D01*
X15763481Y-5394418D02*
X15768856Y-5391043D01*
X17949205Y-7725403D02*
X17966215Y-7726802D01*
X13506353Y-13713110D02*
X13482458Y-13699470D01*
X12055936Y-13443929D02*
X12051587Y-13441951D01*
X11186923Y-8302997D02*
X11183588Y-8288452D01*
X13415565Y-7720208D02*
X13425495Y-7714800D01*
X16789939Y-5838390D02*
X16790300Y-5844540D01*
X17493299Y-8640470D02*
X17495327Y-8640963D01*
X17054088Y-6410219D02*
X17049830Y-6413623D01*
X11650175Y-9065996D02*
X11610540Y-9027238D01*
X18241563Y-13265891D02*
X18237751Y-13261856D01*
X18379883Y-9966184D02*
X18384265Y-9985396D01*
X12727094Y-8526558D02*
X12747579Y-8521137D01*
X13512945Y-6788419D02*
X13518214Y-6788885D01*
X14287515Y-5611061D02*
X14309624Y-5595810D01*
X11221063Y-10251532D02*
X11225507Y-10245559D01*
X17682251Y-7420653D02*
X17681685Y-7423678D01*
X13100675Y-8126528D02*
X13107371Y-8118719D01*
X14623478Y-5408895D02*
X14635691Y-5405700D01*
X11243474Y-10224143D02*
X11247882Y-10219574D01*
X13029822Y-8425715D02*
X13031390Y-8424155D01*
X17957624Y-9121938D02*
X17963559Y-9136418D01*
X18344042Y-8302799D02*
X18338989Y-8304751D01*
X18079181Y-7729680D02*
X18125523Y-7729850D01*
X19127120Y-12686679D02*
X19107449Y-12725772D01*
X17268103Y-6759000D02*
X17269350Y-6766363D01*
X17623455Y-8305524D02*
X17616549Y-8308114D01*
X12889497Y-7627962D02*
X12884872Y-7639112D01*
X17665988Y-8776545D02*
X17673426Y-8786009D01*
X19233606Y-12547599D02*
X19227680Y-12546406D01*
X12867354Y-7676866D02*
X12860283Y-7693748D01*
X17752172Y-8561981D02*
X17750875Y-8562716D01*
X18314418Y-8143882D02*
X18315465Y-8128758D01*
X18579302Y-13236354D02*
X18553518Y-13247536D01*
X16963956Y-6276713D02*
X16978162Y-6275972D01*
X17907396Y-9023677D02*
X17912881Y-9032553D01*
X13708093Y-6210760D02*
X13717155Y-6203184D01*
X15796568Y-14168147D02*
X15795148Y-14171720D01*
X18040417Y-8027892D02*
X18037573Y-8029939D01*
X15971049Y-5389035D02*
X15975112Y-5390248D01*
X14250912Y-14635564D02*
X14250017Y-14632406D01*
X16754275Y-6064314D02*
X16752306Y-6068732D01*
X18307047Y-8039822D02*
X18304679Y-8035040D01*
X17667552Y-8543515D02*
X17654408Y-8539535D01*
X13109758Y-8116350D02*
X13112616Y-8113814D01*
X16746990Y-5584353D02*
X16751000Y-5598872D01*
X12236100Y-6671833D02*
X12344922Y-6677598D01*
X14304194Y-14688984D02*
X14304206Y-14688981D01*
X17529707Y-7552322D02*
X17531052Y-7553061D01*
X11350724Y-6858086D02*
X11350714Y-6839909D01*
X13491468Y-7619228D02*
X13492336Y-7613621D01*
X13555296Y-6795309D02*
X13565497Y-6796654D01*
X16640706Y-5492708D02*
X16659651Y-5490538D01*
X13824892Y-6126143D02*
X13833200Y-6118507D01*
X16753409Y-6327118D02*
X16756831Y-6328055D01*
X13805386Y-6141824D02*
X13815672Y-6133861D01*
X11097052Y-7279938D02*
X11099471Y-7184464D01*
X13514880Y-7539923D02*
X13523395Y-7517759D01*
X12865019Y-13484111D02*
X12857722Y-13482932D01*
X11605761Y-9730203D02*
X11613083Y-9714979D01*
X12678750Y-8534342D02*
X12679767Y-8534615D01*
X18023472Y-8047429D02*
X18016790Y-8056314D01*
X13285437Y-7794314D02*
X13287880Y-7791262D01*
X18299406Y-8298281D02*
X18298378Y-8297289D01*
X14265971Y-14660511D02*
X14263809Y-14658183D01*
X19001355Y-10758222D02*
X19006878Y-10768704D01*
X13908552Y-5994365D02*
X13912918Y-5986941D01*
X13547696Y-7435204D02*
X13546644Y-7432826D01*
X13694209Y-6753125D02*
X13695161Y-6751748D01*
X19275210Y-12559722D02*
X19255967Y-12553605D01*
X17250376Y-6707434D02*
X17254073Y-6715292D01*
X11229996Y-10239800D02*
X11234505Y-10234289D01*
X18987381Y-10726348D02*
X18991647Y-10737108D01*
X17763504Y-8491529D02*
X17766058Y-8496749D01*
X12715303Y-7431319D02*
X12727921Y-7430212D01*
X11750020Y-13275557D02*
X11747548Y-13274059D01*
X16084017Y-5437890D02*
X16095455Y-5442484D01*
X12975302Y-8454646D02*
X12978373Y-8453694D01*
X15019222Y-5293802D02*
X15046687Y-5292333D01*
X19257823Y-11224989D02*
X19260349Y-11242982D01*
X16591569Y-13404953D02*
X16566486Y-13419099D01*
X11737065Y-13266527D02*
X11731327Y-13261750D01*
X17531382Y-8525395D02*
X17517708Y-8526264D01*
X14871072Y-5318839D02*
X14890953Y-5313033D01*
X10279865Y-12328213D02*
X10280393Y-12309793D01*
X17459225Y-13188668D02*
X17435010Y-13194154D01*
X13642503Y-13789701D02*
X13632596Y-13784505D01*
X17310869Y-7023651D02*
X17303716Y-7030253D01*
X18019280Y-13042056D02*
X18016789Y-13042118D01*
X19392138Y-12592823D02*
X19382700Y-12591231D01*
X16521409Y-13446076D02*
X16502781Y-13458089D01*
X16747904Y-6076917D02*
X16745461Y-6080706D01*
X18966916Y-10666255D02*
X18973503Y-10684487D01*
X17485203Y-7241632D02*
X17490751Y-7250602D01*
X13678901Y-13811482D02*
X13653634Y-13796008D01*
X11985623Y-13377590D02*
X11978762Y-13369814D01*
X18306819Y-8207301D02*
X18309098Y-8191957D01*
X11123242Y-6891660D02*
X11131049Y-6887635D01*
X11816196Y-13287456D02*
X11806053Y-13285845D01*
X18065820Y-8012820D02*
X18061746Y-8014947D01*
X17230663Y-6671804D02*
X17236387Y-6681481D01*
X17538357Y-7556264D02*
X17545595Y-7559092D01*
X13530064Y-7414416D02*
X13526914Y-7412095D01*
X11096210Y-7806468D02*
X11096395Y-7787904D01*
X13682094Y-6715066D02*
X13679488Y-6711966D01*
X13549797Y-7445166D02*
X13549580Y-7442595D01*
X11352493Y-6994266D02*
X11353073Y-6991611D01*
X10759316Y-11774643D02*
X10766534Y-11628202D01*
X17430866Y-8545989D02*
X17422790Y-8549637D01*
X12964844Y-8456850D02*
X12967135Y-8456558D01*
X16364095Y-5526496D02*
X16375454Y-5526122D01*
X13304323Y-13618570D02*
X13268454Y-13605102D01*
X18292237Y-8279226D02*
X18292365Y-8277373D01*
X11366746Y-6782118D02*
X11369827Y-6778120D01*
X16761878Y-5658330D02*
X16763019Y-5672675D01*
X13232195Y-7076183D02*
X13230100Y-7061450D01*
X16419943Y-5523539D02*
X16438873Y-5522022D01*
X17499262Y-8642173D02*
X17501179Y-8642896D01*
X12878749Y-7477553D02*
X12881588Y-7480379D01*
X15790022Y-14182729D02*
X15788076Y-14186403D01*
X17405087Y-7151893D02*
X17414610Y-7160625D01*
X15745846Y-14347469D02*
X15745036Y-14373458D01*
X17745238Y-8564709D02*
X17743665Y-8564965D01*
X16771141Y-6330191D02*
X16774907Y-6330330D01*
X11156008Y-6878214D02*
X11164647Y-6876014D01*
X14129459Y-14178716D02*
X14104851Y-14155978D01*
X19537300Y-12591666D02*
X19524199Y-12593932D01*
X17644886Y-7473819D02*
X17636906Y-7480659D01*
X18025224Y-8044414D02*
X18023472Y-8047429D01*
X18169127Y-13117461D02*
X18165793Y-13108913D01*
X19363553Y-12587224D02*
X19353690Y-12584782D01*
X13534358Y-6791136D02*
X13539801Y-6792171D01*
X18384265Y-9985396D02*
X18385106Y-9988564D01*
X10694817Y-12565910D02*
X10674174Y-12571349D01*
X16925358Y-6282937D02*
X16937347Y-6280183D01*
X13492830Y-6787989D02*
X13497684Y-6787881D01*
X13948202Y-5939190D02*
X13952462Y-5934954D01*
X12792833Y-7428782D02*
X12798372Y-7429615D01*
X17075109Y-6288222D02*
X17086120Y-6292318D01*
X17032817Y-6453615D02*
X17034646Y-6456257D01*
X17501179Y-8642896D02*
X17503070Y-8643703D01*
X13727215Y-6195497D02*
X13738336Y-6187600D01*
X17972166Y-9160492D02*
X17973518Y-9165189D01*
X13532425Y-7495963D02*
X13541652Y-7475466D01*
X17612992Y-8377969D02*
X17616449Y-8380190D01*
X12903689Y-7571865D02*
X12902057Y-7582908D01*
X17545523Y-8684712D02*
X17549790Y-8689766D01*
X18901336Y-10564256D02*
X18913789Y-10577185D01*
X10741661Y-12550526D02*
X10737152Y-12552057D01*
X18409122Y-10030427D02*
X18413138Y-10035839D01*
X12818637Y-7435682D02*
X12823585Y-7437946D01*
X12873889Y-7662119D02*
X12867354Y-7676866D01*
X19221196Y-11091711D02*
X19226508Y-11105458D01*
X10281065Y-12408633D02*
X10280530Y-12398420D01*
X10846943Y-12654511D02*
X10835750Y-12632531D01*
X18103411Y-13023564D02*
X18101858Y-13023400D01*
X19539609Y-11976036D02*
X19559169Y-11995930D01*
X18058136Y-13034745D02*
X18050371Y-13036792D01*
X13917325Y-5979797D02*
X13921759Y-5972952D01*
X17757993Y-8288483D02*
X17752455Y-8289688D01*
X13049933Y-8267484D02*
X13052503Y-8251555D01*
X11479818Y-9921581D02*
X11492108Y-9904663D01*
X17291034Y-6887376D02*
X17294273Y-6896135D01*
X18657256Y-13205484D02*
X18639550Y-13211912D01*
X18202092Y-13205837D02*
X18200544Y-13199456D01*
X13586113Y-6797552D02*
X13596402Y-6797135D01*
X12869066Y-7468742D02*
X12872462Y-7471713D01*
X18973454Y-12976563D02*
X18965012Y-12987681D01*
X16978162Y-6275972D02*
X16992692Y-6275878D01*
X17659544Y-7459230D02*
X17652482Y-7466631D01*
X18006343Y-8068544D02*
X17992695Y-8083565D01*
X13248621Y-6909759D02*
X13254355Y-6896529D01*
X12587581Y-6711137D02*
X12597374Y-6716419D01*
X17673897Y-7440665D02*
X17671478Y-7444319D01*
X18353670Y-9883182D02*
X18361463Y-9904716D01*
X19420836Y-12596125D02*
X19411129Y-12595256D01*
X11350714Y-6839909D02*
X11351006Y-6832123D01*
X17333944Y-6993197D02*
X17332581Y-6996097D01*
X16487671Y-13468573D02*
X16476764Y-13477119D01*
X14304206Y-14688981D02*
X14302044Y-14688011D01*
X18214333Y-9619922D02*
X18219045Y-9627343D01*
X19567161Y-12583223D02*
X19561473Y-12585248D01*
X17553880Y-8694356D02*
X17557820Y-8698499D01*
X13658111Y-6302456D02*
X13660754Y-6290483D01*
X13956645Y-5931164D02*
X13960739Y-5927841D01*
X16746703Y-6324747D02*
X16750035Y-6326016D01*
X18405306Y-10025062D02*
X18409122Y-10030427D01*
X17092061Y-6493974D02*
X17097340Y-6497179D01*
X17293235Y-7040194D02*
X17289991Y-7043559D01*
X16129879Y-5453668D02*
X16140410Y-5457110D01*
X11169672Y-8238331D02*
X11164225Y-8221188D01*
X17266592Y-6751776D02*
X17268103Y-6759000D01*
X11731327Y-13261750D02*
X11725153Y-13256232D01*
X10781684Y-12542386D02*
X10779279Y-12542371D01*
X17118296Y-6313832D02*
X17121161Y-6316557D01*
X17532966Y-7553973D02*
X17538357Y-7556264D01*
X12681130Y-8159470D02*
X12677632Y-8182462D01*
X17309286Y-6925195D02*
X17313552Y-6930963D01*
X18125523Y-7729850D02*
X18162090Y-7730407D01*
X17599467Y-7577644D02*
X17624292Y-7586438D01*
X18277258Y-7754548D02*
X18286243Y-7759508D01*
X17587531Y-8353244D02*
X17588576Y-8355220D01*
X17992695Y-8083565D02*
X17958048Y-8119760D01*
X17439137Y-8542622D02*
X17430866Y-8545989D01*
X17980734Y-13049250D02*
X17953123Y-13056961D01*
X15618330Y-5402093D02*
X15634400Y-5404240D01*
X18154864Y-9436853D02*
X18159477Y-9452563D01*
X13507757Y-6788096D02*
X13512945Y-6788419D01*
X12706882Y-13492601D02*
X12696784Y-13492064D01*
X11260484Y-10208277D02*
X11264388Y-10205425D01*
X17034646Y-6456257D02*
X17036880Y-6458914D01*
X19255967Y-12553605D02*
X19240262Y-12549191D01*
X15774451Y-5387117D02*
X15780397Y-5382599D01*
X17734773Y-8292716D02*
X17728670Y-8293502D01*
X12845430Y-7731621D02*
X12838100Y-7751463D01*
X13257263Y-7994285D02*
X13256142Y-7983297D01*
X16402131Y-13531470D02*
X16382849Y-13544206D01*
X17331009Y-6999022D02*
X17329228Y-7001974D01*
X14568052Y-5431241D02*
X14587698Y-5420724D01*
X10284829Y-12442378D02*
X10283622Y-12434856D01*
X17753507Y-8475676D02*
X17757221Y-8480981D01*
X19451753Y-11904548D02*
X19475052Y-11921093D01*
X16763849Y-6329443D02*
X16767457Y-6329896D01*
X18291784Y-13301985D02*
X18289457Y-13301475D01*
X17623136Y-8722547D02*
X17624641Y-8723164D01*
X18276342Y-13296043D02*
X18271975Y-13293215D01*
X13543884Y-7428159D02*
X13542167Y-7425858D01*
X12972389Y-8455447D02*
X12975302Y-8454646D01*
X18077385Y-8007417D02*
X18071598Y-8009993D01*
X18513029Y-10156239D02*
X18523248Y-10170624D01*
X12651197Y-7419325D02*
X12653684Y-7434366D01*
X15762016Y-14222330D02*
X15760631Y-14224637D01*
X16701337Y-6145225D02*
X16700157Y-6149849D01*
X16667207Y-5490043D02*
X16673706Y-5489922D01*
X12892398Y-7493738D02*
X12894335Y-7497152D01*
X10956771Y-12838219D02*
X10928103Y-12794397D01*
X17922479Y-13066367D02*
X17891318Y-13076664D01*
X16790925Y-6329353D02*
X16795201Y-6328734D01*
X17717549Y-8439061D02*
X17729523Y-8449312D01*
X18211726Y-13227379D02*
X18209366Y-13223286D01*
X17815653Y-13107037D02*
X17810965Y-13109158D01*
X16088002Y-13753606D02*
X16041982Y-13795851D01*
X13251471Y-7874968D02*
X13252247Y-7868808D01*
X18115570Y-7996706D02*
X18108499Y-7997974D01*
X12309574Y-13467542D02*
X12226201Y-13463410D01*
X11054865Y-12955328D02*
X11041463Y-12944347D01*
X10620131Y-11849818D02*
X10645954Y-11835178D01*
X15770384Y-14211901D02*
X15766731Y-14215986D01*
X17126011Y-6321825D02*
X17127991Y-6324383D01*
X18005326Y-7728692D02*
X18027755Y-7729240D01*
X17303716Y-7030253D02*
X17300116Y-7033517D01*
X11769183Y-13282961D02*
X11766755Y-13282422D01*
X17337762Y-6976166D02*
X17337643Y-6978975D01*
X13311697Y-7769662D02*
X13315394Y-7767177D01*
X11279314Y-13076746D02*
X11257440Y-13067958D01*
X12798372Y-7429615D02*
X12803651Y-7430708D01*
X18035200Y-13040052D02*
X18028253Y-13041167D01*
X14242716Y-14558891D02*
X14242069Y-14540297D01*
X18046796Y-8023642D02*
X18043498Y-8025788D01*
X13264897Y-7158020D02*
X13255101Y-7142455D01*
X18621321Y-13218937D02*
X18601570Y-13226953D01*
X17710352Y-8295079D02*
X17704389Y-8295317D01*
X11741360Y-9358064D02*
X11743233Y-9351504D01*
X11380580Y-6766630D02*
X11384667Y-6762968D01*
X11304094Y-10169921D02*
X11312887Y-10160163D01*
X16790197Y-5857574D02*
X16789739Y-5864639D01*
X13378971Y-7736091D02*
X13393880Y-7730044D01*
X18668600Y-10383458D02*
X18677191Y-10394596D01*
X15871451Y-13996381D02*
X15859611Y-14021160D01*
X15754935Y-14239128D02*
X15754013Y-14242853D01*
X17811557Y-7674986D02*
X17833331Y-7688226D01*
X19549694Y-12588784D02*
X19537300Y-12591666D01*
X17217450Y-6650492D02*
X17230663Y-6671804D01*
X14114513Y-5754869D02*
X14130932Y-5738745D01*
X13623640Y-13779871D02*
X13611699Y-13773425D01*
X11761976Y-13281045D02*
X11759605Y-13280193D01*
X11199253Y-6872353D02*
X11207627Y-6872806D01*
X17125850Y-6356761D02*
X17123472Y-6359450D01*
X12702759Y-8076383D02*
X12696041Y-8096594D01*
X17541053Y-8679176D02*
X17545523Y-8684712D01*
X15895892Y-13952323D02*
X15886850Y-13965524D01*
X16344203Y-5526423D02*
X16353745Y-5526609D01*
X17392564Y-8615304D02*
X17399786Y-8618958D01*
X15840734Y-5336274D02*
X15841444Y-5336405D01*
X11354877Y-6966292D02*
X11354848Y-6954249D01*
X18310923Y-8049499D02*
X18309125Y-8044619D01*
X17371078Y-8588727D02*
X17370341Y-8590549D01*
X13549270Y-7453289D02*
X13549639Y-7450506D01*
X17531878Y-8668006D02*
X17536326Y-8673307D01*
X16318427Y-5523712D02*
X16326744Y-5525011D01*
X17031381Y-6434864D02*
X17030369Y-6437629D01*
X17536326Y-8673307D02*
X17541053Y-8679176D01*
X10784613Y-12542732D02*
X10783732Y-12542572D01*
X17594656Y-8363221D02*
X17596664Y-8365258D01*
X10296549Y-12480042D02*
X10294008Y-12474274D01*
X15841444Y-5336405D02*
X15842617Y-5336789D01*
X18334051Y-8306241D02*
X18329249Y-8307252D01*
X17559371Y-7317569D02*
X17566975Y-7320977D01*
X10762860Y-12544692D02*
X10758892Y-12545599D01*
X10370400Y-12082675D02*
X10384899Y-12061214D01*
X17490751Y-7250602D02*
X17495226Y-7258252D01*
X18165793Y-13108913D02*
X18162884Y-13100909D01*
X18141546Y-13052245D02*
X18139211Y-13049608D01*
X16745461Y-6080706D02*
X16742849Y-6084307D01*
X17271157Y-7068033D02*
X17269964Y-7070433D01*
X14273245Y-14667550D02*
X14270710Y-14665210D01*
X17766058Y-8496749D02*
X17768210Y-8501918D01*
X13697099Y-6737511D02*
X13696435Y-6735809D01*
X15842617Y-5336789D02*
X15844227Y-5337414D01*
X17659597Y-8767765D02*
X17665988Y-8776545D01*
X11225507Y-10245559D02*
X11229996Y-10239800D01*
X18431589Y-7928453D02*
X18436678Y-7944059D01*
X16154414Y-13697647D02*
X16133025Y-13714913D01*
X12801224Y-7854293D02*
X12791715Y-7877822D01*
X17032799Y-6432049D02*
X17031381Y-6434864D01*
X17278752Y-7056655D02*
X17276466Y-7059720D01*
X12672349Y-8233810D02*
X12670399Y-8262936D01*
X17495226Y-7258252D02*
X17499515Y-7265240D01*
X13164310Y-8081482D02*
X13169871Y-8078740D01*
X15838955Y-5336995D02*
X15840051Y-5336457D01*
X16582824Y-5502158D02*
X16615541Y-5496544D01*
X19105445Y-10896329D02*
X19114900Y-10908091D01*
X17978415Y-9185537D02*
X17980770Y-9190088D01*
X13653875Y-6783454D02*
X13662155Y-6779451D01*
X13256142Y-7983297D02*
X13253876Y-7957943D01*
X18089556Y-13024741D02*
X18087501Y-13025270D01*
X17362727Y-7123868D02*
X17364777Y-7124101D01*
X18391611Y-8267301D02*
X18381071Y-8277653D01*
X17021899Y-6277582D02*
X17036162Y-6279356D01*
X10343904Y-12123888D02*
X10356409Y-12104159D01*
X13254355Y-6896529D02*
X13260344Y-6884582D01*
X14244283Y-14589381D02*
X14243446Y-14575187D01*
X19200311Y-12550079D02*
X19198534Y-12552396D01*
X10307133Y-12189987D02*
X10314500Y-12174912D01*
X18177586Y-9538813D02*
X18177790Y-9541930D01*
X13036479Y-8417098D02*
X13037483Y-8415040D01*
X19277445Y-11794978D02*
X19278990Y-11799548D01*
X13466479Y-7375060D02*
X13450937Y-7362572D01*
X16542872Y-13432943D02*
X16521409Y-13446076D01*
X11254215Y-8541938D02*
X11237326Y-8504771D01*
X18315088Y-9793671D02*
X18325782Y-9816416D01*
X13662155Y-6779451D02*
X13669895Y-6774996D01*
X11537048Y-6704123D02*
X11556730Y-6700874D01*
X10520072Y-12594410D02*
X10499632Y-12595235D01*
X17654408Y-8539535D02*
X17641083Y-8536033D01*
X12896110Y-7500756D02*
X12897725Y-7504541D01*
X17872445Y-7708933D02*
X17883047Y-7712778D01*
X13342229Y-7752309D02*
X13353244Y-7747151D01*
X12791715Y-7877822D02*
X12781863Y-7901228D01*
X16722096Y-5522493D02*
X16727528Y-5532857D01*
X13043654Y-8373309D02*
X13044018Y-8362047D01*
X17680763Y-7426850D02*
X17679505Y-7430151D01*
X18451769Y-8015634D02*
X18454108Y-8034719D01*
X16000045Y-5399454D02*
X16011450Y-5404329D01*
X19264097Y-11283314D02*
X19265405Y-11306581D01*
X18429279Y-8215761D02*
X18420840Y-8229887D01*
X16035005Y-5415474D02*
X16047032Y-5421389D01*
X18220220Y-13240275D02*
X18217176Y-13235906D01*
X14701121Y-5383248D02*
X14723337Y-5374630D01*
X17484653Y-8639167D02*
X17489093Y-8639691D01*
X12095737Y-13452582D02*
X12076538Y-13449828D01*
X17545595Y-7559092D02*
X17554394Y-7562353D01*
X13256016Y-7851600D02*
X13257783Y-7846079D01*
X18213117Y-7733586D02*
X18222584Y-7734976D01*
X19268707Y-11645011D02*
X19269577Y-11692411D01*
X17133374Y-6336724D02*
X17133533Y-6339156D01*
X10414141Y-12021645D02*
X10429119Y-12003332D01*
X10494165Y-11937511D02*
X10512301Y-11922401D01*
X18316119Y-8077616D02*
X18315549Y-8071265D01*
X13276968Y-7175262D02*
X13264897Y-7158020D01*
X15956544Y-13881388D02*
X15938308Y-13901241D01*
X10783732Y-12542572D02*
X10781684Y-12542386D01*
X18278606Y-7992416D02*
X18192211Y-7992416D01*
X13545375Y-7430480D02*
X13543884Y-7428159D01*
X11745027Y-13272413D02*
X11742446Y-13270614D01*
X11207060Y-8416592D02*
X11198423Y-8368178D01*
X17564466Y-7565942D02*
X17575526Y-7569756D01*
X13076972Y-8167450D02*
X13082402Y-8155882D01*
X18222584Y-7734976D02*
X18231186Y-7736661D01*
X18294079Y-8266317D02*
X18294633Y-8263702D01*
X18101789Y-7999436D02*
X18095382Y-8001102D01*
X10776544Y-12542523D02*
X10773507Y-12542836D01*
X17586625Y-7329441D02*
X17597556Y-7334680D01*
X11669102Y-13200111D02*
X11661974Y-13193455D01*
X11392890Y-8788741D02*
X11367765Y-8748905D01*
X13968715Y-5921156D02*
X13973271Y-5916952D01*
X18007623Y-9227652D02*
X18014058Y-9235410D01*
X13677033Y-6770105D02*
X13683504Y-6764791D01*
X13259723Y-8031523D02*
X13260767Y-8028866D01*
X14248402Y-14625284D02*
X14247676Y-14621273D01*
X17435010Y-13194154D02*
X17410795Y-13199388D01*
X11106312Y-8064708D02*
X11101021Y-8048696D01*
X12684639Y-8534772D02*
X12689313Y-8534348D01*
X18178447Y-9545626D02*
X18179537Y-9549858D01*
X11125700Y-13002272D02*
X11105883Y-12990334D01*
X15735326Y-5404472D02*
X15741566Y-5403233D01*
X12663054Y-7437916D02*
X12664922Y-7437475D01*
X13088174Y-8145167D02*
X13094270Y-8135363D01*
X13242250Y-8045536D02*
X13247717Y-8042391D01*
X15751606Y-14256286D02*
X15750910Y-14261628D01*
X15750910Y-14261628D02*
X15750261Y-14267459D01*
X17414610Y-7160625D02*
X17424379Y-7170063D01*
X18952369Y-10633325D02*
X18959919Y-10649254D01*
X14250017Y-14632406D02*
X14249181Y-14628987D01*
X12651857Y-7256366D02*
X12650338Y-7335722D01*
X18292365Y-8277373D02*
X18292565Y-8275409D01*
X16774907Y-6330330D02*
X16778762Y-6330313D01*
X17114379Y-6367950D02*
X17110687Y-6370953D01*
X18072874Y-13030064D02*
X18065713Y-13032486D01*
X17525499Y-7544183D02*
X17525469Y-7545782D01*
X18157219Y-13080516D02*
X18157117Y-13078956D01*
X13228086Y-7030883D02*
X13228161Y-7015264D01*
X16687524Y-6268406D02*
X16688970Y-6271696D01*
X17314126Y-7020427D02*
X17310869Y-7023651D01*
X11944687Y-13338692D02*
X11936141Y-13333132D01*
X17975120Y-9172631D02*
X17975327Y-9175272D01*
X13649457Y-6352247D02*
X13651814Y-6340595D01*
X17268569Y-7077413D02*
X17269158Y-7078764D01*
X13308189Y-7772174D02*
X13311697Y-7769662D01*
X15956994Y-5386640D02*
X15959179Y-5386771D01*
X12664922Y-7437475D02*
X12667374Y-7437001D01*
X17658740Y-7376427D02*
X17664768Y-7382662D01*
X11235146Y-13058344D02*
X11212669Y-13048030D01*
X17127124Y-6518932D02*
X17131444Y-6522712D01*
X19682205Y-12207073D02*
X19684013Y-12215473D01*
X17269350Y-6766363D02*
X17270361Y-6773935D01*
X14011706Y-5875948D02*
X14023481Y-5861963D01*
X19377266Y-11861022D02*
X19402806Y-11874456D01*
X17331346Y-6953652D02*
X17332861Y-6956496D01*
X14104851Y-14155978D02*
X14078565Y-14132462D01*
X15396787Y-5324278D02*
X15438541Y-5344255D01*
X18151286Y-13065146D02*
X18149640Y-13062667D01*
X13490732Y-7631558D02*
X13491054Y-7627611D01*
X19096352Y-10885896D02*
X19105445Y-10896329D01*
X15515500Y-5375580D02*
X15533558Y-5381667D01*
X11342796Y-8707449D02*
X11318470Y-8665198D01*
X12043030Y-13437374D02*
X12038847Y-13434795D01*
X17627411Y-7351787D02*
X17636239Y-7357826D01*
X17495327Y-8640963D02*
X17497313Y-8641529D01*
X17327237Y-7004957D02*
X17325037Y-7007973D01*
X12651345Y-13488181D02*
X12584571Y-13481205D01*
X19227680Y-12546406D02*
X19222431Y-12545601D01*
X17298828Y-7100726D02*
X17306353Y-7104673D01*
X18523248Y-10170624D02*
X18546905Y-10204835D01*
X17298667Y-13223907D02*
X17283418Y-13227671D01*
X19200238Y-11046012D02*
X19207964Y-11061820D01*
X19360141Y-11852293D02*
X19377266Y-11861022D01*
X17770283Y-13122074D02*
X17760901Y-13124389D01*
X17530783Y-7533434D02*
X17529357Y-7535311D01*
X13766821Y-13872335D02*
X13736819Y-13850585D01*
X18388068Y-9996066D02*
X18390136Y-10000321D01*
X16727218Y-6313549D02*
X16730439Y-6315850D01*
X16757773Y-6054776D02*
X16756096Y-6059665D01*
X13541652Y-7475466D02*
X13544691Y-7468584D01*
X13689247Y-6759070D02*
X13691949Y-6755989D01*
X12758641Y-13492163D02*
X12750951Y-13492673D01*
X18407645Y-7880798D02*
X18414237Y-7891304D01*
X12902578Y-7521325D02*
X12904051Y-7530586D01*
X11672267Y-6686807D02*
X11764084Y-6678187D01*
X18708663Y-10428497D02*
X18716696Y-10435268D01*
X18417328Y-10041260D02*
X18421666Y-10046648D01*
X15756985Y-14232606D02*
X15755925Y-14235724D01*
X18198326Y-13191799D02*
X18195541Y-13183155D01*
X18315843Y-8307232D02*
X18311771Y-8306150D01*
X19272567Y-11759608D02*
X19274753Y-11780898D01*
X17133533Y-6339156D02*
X17133382Y-6341593D01*
X13012150Y-8438030D02*
X13017501Y-8434729D01*
X11093648Y-7873805D02*
X11095241Y-7836484D01*
X15438541Y-5344255D02*
X15458552Y-5353151D01*
X17617993Y-7345891D02*
X17627411Y-7351787D01*
X18238475Y-9656941D02*
X18252567Y-9679413D01*
X17740168Y-8459779D02*
X17744972Y-8465063D01*
X16914521Y-6286387D02*
X16925358Y-6282937D01*
X17620123Y-8382447D02*
X17628131Y-8387079D01*
X17269158Y-7078764D02*
X17270115Y-7080227D01*
X17666587Y-8296877D02*
X17656886Y-8298008D01*
X17529357Y-7535311D02*
X17528132Y-7537168D01*
X18026640Y-8040175D02*
X18026032Y-8041398D01*
X17504138Y-8527628D02*
X17490699Y-8529488D01*
X17081468Y-6391273D02*
X17069299Y-6399270D01*
X17313552Y-6930963D02*
X17318022Y-6936131D01*
X13411157Y-6799976D02*
X13421589Y-6799143D01*
X17462472Y-7211481D02*
X17470891Y-7221902D01*
X17025274Y-13277632D02*
X16968924Y-13286024D01*
X13363322Y-6802899D02*
X13368722Y-6802100D01*
X11226939Y-6876404D02*
X11230358Y-6877581D01*
X10808623Y-11087417D02*
X10815871Y-11032910D01*
X11102173Y-6906160D02*
X11108746Y-6900939D01*
X15760631Y-14224637D02*
X15759334Y-14227097D01*
X17740251Y-8565179D02*
X17738390Y-8565134D01*
X13612617Y-6517013D02*
X13613303Y-6495504D01*
X16730439Y-6315850D02*
X16733661Y-6317976D01*
X17034623Y-6429174D02*
X17032799Y-6432049D01*
X18251716Y-13275816D02*
X18245426Y-13269756D01*
X12902057Y-7582908D02*
X12899817Y-7594106D01*
X18725153Y-10441741D02*
X18734210Y-10448107D01*
X17585499Y-8347340D02*
X17585995Y-8349307D01*
X17415887Y-8625812D02*
X17424485Y-8628893D01*
X15880855Y-13976312D02*
X15871451Y-13996381D01*
X11806053Y-13285845D02*
X11796556Y-13284846D01*
X17516060Y-7287677D02*
X17520361Y-7292184D01*
X13547975Y-7459111D02*
X13548715Y-7456155D01*
X13429866Y-13672385D02*
X13401088Y-13658910D01*
X17699820Y-8554919D02*
X17690695Y-8551678D01*
X17388138Y-8570332D02*
X17382911Y-8574614D01*
X15497000Y-5368804D02*
X15515500Y-5375580D01*
X12753182Y-7963592D02*
X12740578Y-7989001D01*
X19207175Y-12546086D02*
X19204537Y-12547087D01*
X14192125Y-14242518D02*
X14186117Y-14235574D01*
X17624641Y-8723164D02*
X17626104Y-8723847D01*
X18944123Y-10618311D02*
X18952369Y-10633325D01*
X18053960Y-8019287D02*
X18050290Y-8021470D01*
X15851406Y-5340601D02*
X15857884Y-5343690D01*
X12824756Y-7790086D02*
X12818038Y-7809714D01*
X17620381Y-7492767D02*
X17612133Y-7497768D01*
X10531423Y-11907626D02*
X10551649Y-11893082D01*
X16732792Y-5544398D02*
X16737828Y-5556943D01*
X11978762Y-13369814D02*
X11971792Y-13362366D01*
X11099471Y-7184464D02*
X11099977Y-7177345D01*
X11156114Y-10361011D02*
X11179472Y-10321130D01*
X19204537Y-12547087D02*
X19202267Y-12548421D01*
X17777194Y-8282892D02*
X17772924Y-8284389D01*
X19322021Y-12575530D02*
X19298405Y-12567617D01*
X13471260Y-7676646D02*
X13476429Y-7669506D01*
X11100462Y-7163445D02*
X11100437Y-7156643D01*
X12716522Y-13492964D02*
X12706882Y-13492601D01*
X13255489Y-8036762D02*
X13257997Y-8034130D01*
X13482458Y-13699470D02*
X13456976Y-13685900D01*
X11099847Y-7143281D02*
X11099278Y-7136700D01*
X18152754Y-13067536D02*
X18151286Y-13065146D01*
X11351478Y-6880289D02*
X11350724Y-6858086D01*
X18027630Y-8038788D02*
X18026640Y-8040175D01*
X11244975Y-6884485D02*
X11252686Y-6889105D01*
X17177546Y-6587350D02*
X17217450Y-6650492D01*
X13673614Y-6705163D02*
X13666829Y-6697486D01*
X11333847Y-6981397D02*
X11335683Y-6985290D01*
X17039488Y-6423214D02*
X17036853Y-6426232D01*
X13365458Y-7741769D02*
X13378971Y-7736091D01*
X17894307Y-7716147D02*
X17906388Y-7719066D01*
X18089218Y-8002981D02*
X18083238Y-8005083D01*
X15458552Y-5353151D02*
X15478028Y-5361331D01*
X16684503Y-6246723D02*
X16684382Y-6250726D01*
X17691307Y-8806848D02*
X17701682Y-8818153D01*
X13235592Y-8049000D02*
X13242250Y-8045536D01*
X16476764Y-13477119D02*
X16466553Y-13485495D01*
X13695598Y-6734015D02*
X13694582Y-6732117D01*
X18204007Y-13212083D02*
X18202869Y-13208816D01*
X18979822Y-10704107D02*
X18983453Y-10715369D01*
X11089045Y-7987388D02*
X11088812Y-7975589D01*
X11190248Y-13037140D02*
X11168120Y-13025800D01*
X12671799Y-8529045D02*
X12673823Y-8531386D01*
X17572605Y-8710940D02*
X17576189Y-8713104D01*
X12884872Y-7639112D02*
X12879662Y-7650081D01*
X13575791Y-6797397D02*
X13586113Y-6797552D01*
X13549160Y-7440082D02*
X13548533Y-7437620D01*
X17132918Y-6344044D02*
X17132140Y-6346515D01*
X18494865Y-10131627D02*
X18503631Y-10143325D01*
X11344900Y-6999604D02*
X11346140Y-7000472D01*
X19382700Y-12591231D02*
X19373197Y-12589369D01*
X13693137Y-6754535D02*
X13694209Y-6753125D01*
X18287192Y-13300860D02*
X18284977Y-13300136D01*
X15754013Y-14242853D02*
X15753153Y-14246932D01*
X11771650Y-13283407D02*
X11769183Y-13282961D01*
X13267652Y-7823404D02*
X13271978Y-7815224D01*
X17963559Y-9136418D02*
X17968461Y-9149409D01*
X12670051Y-8525915D02*
X12671799Y-8529045D01*
X16133025Y-13714913D02*
X16110788Y-13733666D01*
X11353993Y-6984965D02*
X11354333Y-6980971D01*
X10822441Y-10996989D02*
X10827760Y-10978269D01*
X17674356Y-7394957D02*
X17677830Y-7400942D01*
X18913789Y-10577185D02*
X18924976Y-10590399D01*
X11067305Y-6979479D02*
X11068324Y-6969323D01*
X18395317Y-10009643D02*
X18398377Y-10014630D01*
X11168120Y-13025800D02*
X11146525Y-13014136D01*
X14664405Y-5396643D02*
X14681592Y-5390547D01*
X11384284Y-10064696D02*
X11396076Y-10046942D01*
X13191047Y-13578041D02*
X13105804Y-13550715D01*
X17975415Y-9176613D02*
X17975676Y-9178106D01*
X11718464Y-13249923D02*
X11711180Y-13242775D01*
X11685237Y-13216183D02*
X11676812Y-13207661D01*
X17752455Y-8289688D02*
X17746709Y-8290801D01*
X17268551Y-7074533D02*
X17268414Y-7075395D01*
X15907682Y-13937008D02*
X15895892Y-13952323D01*
X12978373Y-8453694D02*
X12981575Y-8452601D01*
X16992692Y-6275878D02*
X17007340Y-6276418D01*
X13442074Y-6796707D02*
X13451506Y-6795177D01*
X12833837Y-7443459D02*
X12839283Y-7446734D01*
X19173786Y-10997152D02*
X19183051Y-11013510D01*
X17527122Y-7538994D02*
X17526338Y-7540779D01*
X18773193Y-13158075D02*
X18760493Y-13165224D01*
X14281265Y-14674343D02*
X14278544Y-14672133D01*
X14635691Y-5405700D02*
X14649219Y-5401655D01*
X18292837Y-8273328D02*
X18293180Y-8271123D01*
X18335469Y-7797323D02*
X18345555Y-7806850D01*
X14040497Y-5840547D02*
X14045822Y-5833485D01*
X12981575Y-8452601D02*
X12984884Y-8451378D01*
X18898346Y-13057920D02*
X18882590Y-13072839D01*
X18443286Y-8185862D02*
X18436812Y-8201040D01*
X18016789Y-13042118D02*
X18010957Y-13042614D01*
X17601282Y-8369393D02*
X17603896Y-8371495D01*
X13315394Y-7767177D02*
X13323403Y-7762250D01*
X18867468Y-13086693D02*
X18852908Y-13099531D01*
X18293025Y-8288399D02*
X18292706Y-8287069D01*
X19559169Y-11995930D02*
X19577660Y-12016519D01*
X16477414Y-5518275D02*
X16495883Y-5516169D01*
X15743359Y-14436411D02*
X15738310Y-14637418D01*
X12000920Y-13396948D02*
X11998178Y-13393201D01*
X17592737Y-7506131D02*
X17589216Y-7506961D01*
X17337676Y-6973362D02*
X17337762Y-6976166D01*
X17036162Y-6279356D02*
X17049923Y-6281729D01*
X13059002Y-8221105D02*
X13062899Y-8206700D01*
X17280136Y-6846382D02*
X17282551Y-6857523D01*
X12550249Y-6698537D02*
X12564288Y-6702259D01*
X11147490Y-6880896D02*
X11156008Y-6878214D01*
X18503631Y-10143325D02*
X18513029Y-10156239D01*
X17268722Y-13231156D02*
X17253010Y-13234690D01*
X17520361Y-7292184D02*
X17524853Y-7296361D01*
X18078239Y-13028168D02*
X18072874Y-13030064D01*
X12813713Y-7433729D02*
X12818637Y-7435682D01*
X11572318Y-13154478D02*
X11542446Y-13148415D01*
X12650338Y-7335722D02*
X12650100Y-7388243D01*
X18446079Y-8178146D02*
X18443286Y-8185862D01*
X13675481Y-6250488D02*
X13680526Y-6241963D01*
X14084232Y-5786825D02*
X14098933Y-5770908D01*
X16183865Y-5473190D02*
X16200756Y-5479885D01*
X12884188Y-7483111D02*
X12886524Y-7485727D01*
X17545131Y-8525018D02*
X17531382Y-8525395D01*
X17650092Y-8752397D02*
X17654287Y-8759704D01*
X13416230Y-7331379D02*
X13397717Y-7313377D01*
X11080828Y-7064422D02*
X11076684Y-7050787D01*
X16643404Y-13377390D02*
X16617436Y-13390913D01*
X18120285Y-13031884D02*
X18118627Y-13030606D01*
X12828628Y-7440534D02*
X12833837Y-7443459D01*
X14257707Y-14650415D02*
X14256390Y-14648308D01*
X16704163Y-6292359D02*
X16710908Y-6299336D01*
X16867472Y-6306851D02*
X16878284Y-6302560D01*
X18016790Y-8056314D02*
X18006343Y-8068544D01*
X17372887Y-7127435D02*
X17379710Y-7131639D01*
X18400307Y-7870095D02*
X18407645Y-7880798D01*
X18576117Y-10248009D02*
X18612396Y-10302197D01*
X14259104Y-14652433D02*
X14257707Y-14650415D01*
X13884870Y-6040748D02*
X13891743Y-6026494D01*
X18115446Y-13028375D02*
X18113908Y-13027420D01*
X11256413Y-10211608D02*
X11260484Y-10208277D01*
X11703224Y-13234736D02*
X11694515Y-13225758D01*
X13489465Y-7639386D02*
X13490201Y-7635484D01*
X19572729Y-12581020D02*
X19567161Y-12583223D01*
X15768856Y-5391043D02*
X15774451Y-5387117D01*
X11589969Y-9760544D02*
X11598051Y-9745403D01*
X14541358Y-5446936D02*
X14568052Y-5431241D01*
X17095800Y-6296964D02*
X17100077Y-6299490D01*
X17890386Y-8999390D02*
X17896199Y-9007162D01*
X13338358Y-13632018D02*
X13304323Y-13618570D01*
X15799752Y-14158102D02*
X15798885Y-14161310D01*
X17102302Y-6377256D02*
X17092567Y-6384009D01*
X17424485Y-8628893D02*
X17433262Y-8631665D01*
X17750875Y-8562716D02*
X17749543Y-8563358D01*
X11189094Y-10304162D02*
X11196835Y-10290031D01*
X11347842Y-7000956D02*
X11348368Y-7000898D01*
X11636552Y-13174185D02*
X11630291Y-13170811D01*
X18057786Y-8017107D02*
X18053960Y-8019287D01*
X17929500Y-9062445D02*
X17935265Y-9073719D01*
X15844227Y-5337414D02*
X15846246Y-5338266D01*
X14252895Y-14641199D02*
X14251871Y-14638488D01*
X18311771Y-8306150D02*
X18307930Y-8304501D01*
X17470891Y-7221902D02*
X17478526Y-7232009D01*
X12558619Y-13478902D02*
X12531169Y-13476999D01*
X18298378Y-8297289D02*
X18297432Y-8296286D01*
X17471195Y-8638696D02*
X17474901Y-8638778D01*
X17378053Y-8605991D02*
X17380480Y-8607845D01*
X18295633Y-7765458D02*
X18305339Y-7772305D01*
X18316476Y-8084472D02*
X18316119Y-8077616D01*
X17479937Y-8638871D02*
X17484653Y-8639167D01*
X17906388Y-7719066D02*
X17919456Y-7721563D01*
X18053598Y-9279237D02*
X18077328Y-9304437D01*
X15749086Y-14280721D02*
X15748552Y-14288219D01*
X17636681Y-8731981D02*
X17637908Y-8733364D01*
X11100437Y-7156643D02*
X11100233Y-7149925D01*
X17987367Y-9200747D02*
X17991574Y-9206809D01*
X18295779Y-8294221D02*
X18295072Y-8293145D01*
X12037945Y-6667205D02*
X12134338Y-6668354D01*
X18310922Y-13303002D02*
X18304813Y-13303120D01*
X12846798Y-7451628D02*
X12850604Y-7454284D01*
X18202869Y-13208816D02*
X18202092Y-13205837D01*
X13266616Y-6873471D02*
X13273184Y-6863188D01*
X17594752Y-8719103D02*
X17598777Y-8719459D01*
X17322626Y-7011025D02*
X17320004Y-7014117D01*
X13107371Y-8118719D02*
X13109758Y-8116350D01*
X17029762Y-6440351D02*
X17029562Y-6443039D01*
X17323267Y-6942077D02*
X17325589Y-6945006D01*
X19524199Y-12593932D02*
X19510297Y-12595621D01*
X10746117Y-12549110D02*
X10741661Y-12550526D01*
X11544639Y-9834211D02*
X11554300Y-9819861D01*
X14186117Y-14235574D02*
X14178980Y-14227767D01*
X13479175Y-6789181D02*
X13483560Y-6788639D01*
X10595885Y-11864280D02*
X10620131Y-11849818D01*
X18381071Y-8277653D02*
X18370387Y-8286713D01*
X18155108Y-13071975D02*
X18154033Y-13069819D01*
X10645954Y-11835178D02*
X10673471Y-11820259D01*
X13341462Y-7253966D02*
X13323559Y-7233533D01*
X18190687Y-7731577D02*
X18202560Y-7732462D01*
X14251871Y-14638488D02*
X14250912Y-14635564D01*
X17565355Y-8705511D02*
X17569002Y-8708415D01*
X17370359Y-8597168D02*
X17371247Y-8598849D01*
X13680526Y-6241963D02*
X13686245Y-6233828D01*
X17614895Y-13153861D02*
X17566295Y-13163899D01*
X12913260Y-8469278D02*
X12931218Y-8464149D01*
X14292152Y-14682281D02*
X14289472Y-14680464D01*
X13643497Y-6375755D02*
X13646652Y-6364083D01*
X17827661Y-13101048D02*
X17819888Y-13104889D01*
X15745036Y-14373458D02*
X15743359Y-14436411D01*
X11609563Y-13162882D02*
X11601552Y-13160707D01*
X17619990Y-8721506D02*
X17621587Y-8721995D01*
X18983453Y-10715369D02*
X18987381Y-10726348D01*
X18299269Y-13302930D02*
X18294186Y-13302394D01*
X12727921Y-7430212D02*
X12740806Y-7429197D01*
X18267435Y-13289816D02*
X18262615Y-13285808D01*
X19343532Y-12582028D02*
X19322021Y-12575530D01*
X17058810Y-6475653D02*
X17069367Y-6481735D01*
X18226838Y-13249058D02*
X18223448Y-13244670D01*
X11765216Y-9265882D02*
X11767014Y-9255068D01*
X13397717Y-7313377D02*
X13378867Y-7294240D01*
X12064715Y-13447221D02*
X12060316Y-13445689D01*
X16770477Y-5757155D02*
X16773192Y-5770699D01*
X16742849Y-6084307D02*
X16740064Y-6087729D01*
X13480850Y-7662192D02*
X13484508Y-7654722D01*
X11964922Y-13355477D02*
X11961590Y-13352314D01*
X11216691Y-10257687D02*
X11221063Y-10251532D01*
X13539801Y-6792171D02*
X13545250Y-6793346D01*
X16302769Y-13594634D02*
X16256954Y-13624754D01*
X10392091Y-12577548D02*
X10383291Y-12572904D01*
X11351832Y-6996476D02*
X11352493Y-6994266D01*
X11075808Y-6941769D02*
X11079780Y-6933548D01*
X14297305Y-14685485D02*
X14294770Y-14683960D01*
X13544691Y-7468584D02*
X13545959Y-7465319D01*
X17657607Y-8402074D02*
X17674274Y-8410530D01*
X13540220Y-7423570D02*
X13538041Y-7421288D01*
X16697792Y-6285085D02*
X16700806Y-6288648D01*
X16730621Y-6097035D02*
X16727547Y-6099765D01*
X13337963Y-6809629D02*
X13342821Y-6807915D01*
X13548533Y-7437620D02*
X13547696Y-7435204D01*
X11626485Y-9684591D02*
X11632529Y-9669494D01*
X11414427Y-6742777D02*
X11426331Y-6736729D01*
X13535624Y-7419006D02*
X13532967Y-7416717D01*
X18700873Y-10421237D02*
X18708663Y-10428497D01*
X13147886Y-8090274D02*
X13153280Y-8087272D01*
X18798799Y-13141743D02*
X18785937Y-13150265D01*
X17270115Y-7080227D02*
X17271417Y-7081793D01*
X15077203Y-5291113D02*
X15149352Y-5289049D01*
X13042536Y-8391570D02*
X13042879Y-8387493D01*
X17750631Y-13126786D02*
X17727206Y-13131885D01*
X13247717Y-8042391D02*
X13252096Y-8039490D01*
X18292183Y-8280976D02*
X18292237Y-8279226D01*
X17268368Y-7076187D02*
X17268569Y-7077413D01*
X17133382Y-6341593D02*
X17132918Y-6344044D01*
X10802235Y-12566044D02*
X10797205Y-12557551D01*
X17840895Y-8947869D02*
X17849266Y-8955384D01*
X11354334Y-6807728D02*
X11355744Y-6802902D01*
X15892720Y-5361522D02*
X15902636Y-5366594D01*
X14681592Y-5390547D02*
X14701121Y-5383248D01*
X18032679Y-8033801D02*
X18030670Y-8035586D01*
X13401014Y-6800503D02*
X13411157Y-6799976D01*
X13032834Y-8422531D02*
X13034160Y-8420826D01*
X10283622Y-12434856D02*
X10282600Y-12426775D01*
X18462335Y-10091858D02*
X18470466Y-10101259D01*
X17046019Y-6467063D02*
X17049877Y-6469867D01*
X16757587Y-5628670D02*
X16760048Y-5643604D01*
X15964161Y-5387356D02*
X15967386Y-5388067D01*
X15634400Y-5404240D02*
X15650249Y-5405762D01*
X18139211Y-13049608D02*
X18136776Y-13046996D01*
X12813091Y-13482903D02*
X12806615Y-13484005D01*
X13736819Y-13850585D02*
X13707071Y-13829987D01*
X13434078Y-7347894D02*
X13416230Y-7331379D01*
X13035373Y-8419021D02*
X13036479Y-8417098D01*
X17269964Y-7070433D02*
X17269089Y-7072607D01*
X17749421Y-8470366D02*
X17753507Y-8475676D01*
X13153280Y-8087272D02*
X13158767Y-8084334D01*
X11727731Y-9422110D02*
X11731064Y-9411587D01*
X19268051Y-11518875D02*
X19268707Y-11645011D01*
X17389562Y-13203708D02*
X17368330Y-13208035D01*
X18426019Y-7914201D02*
X18431589Y-7928453D01*
X10480322Y-12595361D02*
X10462389Y-12594760D01*
X19594042Y-12570332D02*
X19588835Y-12573295D01*
X17912881Y-9032553D02*
X17918359Y-9041929D01*
X13451506Y-6795177D02*
X13459984Y-6793489D01*
X14299737Y-14686841D02*
X14297305Y-14685485D01*
X17516011Y-8651953D02*
X17519774Y-8655246D01*
X15788076Y-14186403D02*
X15786035Y-14190034D01*
X13632929Y-6406327D02*
X13634733Y-6401947D01*
X18077328Y-9304437D02*
X18087332Y-9315396D01*
X17269089Y-7072607D02*
X17268551Y-7074533D01*
X11722161Y-9140540D02*
X11688566Y-9104943D01*
X18043498Y-8025788D02*
X18040417Y-8027892D01*
X10857923Y-10900945D02*
X10888037Y-10835352D01*
X10321600Y-12520162D02*
X10315380Y-12511964D01*
X11733721Y-9400758D02*
X11733908Y-9398676D01*
X18420840Y-8229887D02*
X18411648Y-8243279D01*
X13683504Y-6764791D02*
X13689247Y-6759070D01*
X17344914Y-7120529D02*
X17351633Y-7122327D01*
X11091950Y-7097947D02*
X11090064Y-7091511D01*
X13580931Y-13756270D02*
X13544435Y-13735384D01*
X15984277Y-5393346D02*
X15989303Y-5395202D01*
X13238579Y-7104005D02*
X13235021Y-7090404D01*
X14240388Y-14468796D02*
X14237166Y-14301830D01*
X10652698Y-12576306D02*
X10630632Y-12580754D01*
X16790385Y-5850905D02*
X16790197Y-5857574D01*
X18659362Y-10370871D02*
X18668600Y-10383458D01*
X19555655Y-12587100D02*
X19549694Y-12588784D01*
X11354509Y-6940388D02*
X11353864Y-6924702D01*
X13645119Y-6786990D02*
X13653875Y-6783454D01*
X18456317Y-13281958D02*
X18444587Y-13284560D01*
X19124620Y-10921013D02*
X19134507Y-10934928D01*
X18297432Y-8296286D02*
X18296566Y-8295266D01*
X15777234Y-14203564D02*
X15774949Y-14206562D01*
X13707071Y-13829987D02*
X13678901Y-13811482D01*
X13293048Y-7785448D02*
X13295797Y-7782667D01*
X17234712Y-13238602D02*
X17184076Y-13248873D01*
X11331451Y-10137836D02*
X11341253Y-10125226D01*
X13795749Y-13894299D02*
X13766821Y-13872335D01*
X16685419Y-6238000D02*
X16684852Y-6242492D01*
X19441057Y-12597237D02*
X19430786Y-12596781D01*
X10750493Y-12547813D02*
X10746117Y-12549110D01*
X13618544Y-6446278D02*
X13619932Y-6439922D01*
X13260344Y-6884582D02*
X13266616Y-6873471D01*
X11234505Y-10234289D02*
X11239006Y-10229059D01*
X12658512Y-6995556D02*
X12651857Y-7256366D01*
X11653281Y-9611051D02*
X11666941Y-9574985D01*
X17546003Y-7310864D02*
X17552402Y-7314216D01*
X13497684Y-6787881D02*
X13502665Y-6787917D01*
X18101858Y-13023400D02*
X18100270Y-13023328D01*
X14460439Y-5497729D02*
X14506020Y-5468777D01*
X18467531Y-13279249D02*
X18456317Y-13281958D01*
X16767457Y-6329896D02*
X16771141Y-6330191D01*
X16754551Y-5613702D02*
X16757587Y-5628670D01*
X13283621Y-6849295D02*
X13287262Y-6845069D01*
X11739612Y-9364821D02*
X11741360Y-9358064D01*
X15741566Y-5403233D02*
X15747370Y-5401650D01*
X17589216Y-7506961D02*
X17585857Y-7507471D01*
X13612397Y-6541558D02*
X13612617Y-6517013D01*
X14256390Y-14648308D02*
X14255151Y-14646085D01*
X12655467Y-7437558D02*
X12657618Y-7438764D01*
X13207463Y-8062040D02*
X13227643Y-8052856D01*
X17246216Y-6699226D02*
X17250376Y-6707434D01*
X18207277Y-13219351D02*
X18205484Y-13215605D01*
X13544435Y-13735384D02*
X13506353Y-13713110D01*
X17360299Y-7123766D02*
X17362727Y-7123868D01*
X18792066Y-10483833D02*
X18815104Y-10498364D01*
X18991647Y-10737108D02*
X18996291Y-10747712D01*
X18324600Y-8307765D02*
X18320125Y-8307764D01*
X16756096Y-6059665D02*
X16754275Y-6064314D01*
X18123062Y-7995623D02*
X18115570Y-7996706D01*
X16856269Y-6311070D02*
X16867472Y-6306851D01*
X13488526Y-7643264D02*
X13489465Y-7639386D01*
X17864503Y-8969994D02*
X17871470Y-8977221D01*
X17504939Y-8644596D02*
X17506793Y-8645579D01*
X15763491Y-14220142D02*
X15762016Y-14222330D01*
X11223637Y-6875467D02*
X11226939Y-6876404D01*
X14244741Y-5642255D02*
X14265874Y-5626555D01*
X18261452Y-7746916D02*
X18277258Y-7754548D01*
X14517904Y-14694314D02*
X14365611Y-14692079D01*
X13614494Y-6476740D02*
X13616228Y-6460428D01*
X17117739Y-6365038D02*
X17114379Y-6367950D01*
X18262615Y-13285808D02*
X18257411Y-13281154D01*
X18143770Y-13054888D02*
X18141546Y-13052245D01*
X13005555Y-8441824D02*
X13008901Y-8439954D01*
X12695045Y-8533521D02*
X12701761Y-8532310D01*
X14284008Y-14676479D02*
X14281265Y-14674343D01*
X11971792Y-13362366D02*
X11964922Y-13355477D01*
X13860310Y-6085511D02*
X13866312Y-6075832D01*
X16686364Y-6265076D02*
X16687524Y-6268406D01*
X17635440Y-8730685D02*
X17636681Y-8731981D01*
X16011450Y-5404329D02*
X16023207Y-5409708D01*
X17966215Y-7726802D02*
X17984867Y-7727889D01*
X12818038Y-7809714D02*
X12810096Y-7831353D01*
X11093644Y-7104371D02*
X11091950Y-7097947D01*
X19042814Y-10822901D02*
X19051951Y-10834542D01*
X15825088Y-5346657D02*
X15830940Y-5342332D01*
X18134256Y-13044428D02*
X18131663Y-13041924D01*
X17637035Y-8391881D02*
X17646853Y-8396873D01*
X15585399Y-5395888D02*
X15602007Y-5399312D01*
X11068324Y-6969323D02*
X11070081Y-6959654D01*
X18002794Y-13044035D02*
X17980734Y-13049250D01*
X17519774Y-8655246D02*
X17523644Y-8659001D01*
X18132303Y-9376591D02*
X18136395Y-9385056D01*
X18638239Y-10340582D02*
X18659362Y-10370871D01*
X10819614Y-12599023D02*
X10813600Y-12587059D01*
X17656886Y-8298008D02*
X17647700Y-8299446D01*
X19614373Y-12556413D02*
X19604284Y-12563796D01*
X18744046Y-10454558D02*
X18766765Y-10468484D01*
X16737828Y-5556943D02*
X16742580Y-5570320D01*
X17769951Y-8507023D02*
X17771274Y-8512053D01*
X16744946Y-13328814D02*
X16731474Y-13334423D01*
X19479724Y-12597421D02*
X19462868Y-12597610D01*
X14130932Y-5738745D02*
X14148148Y-5722573D01*
X11666941Y-9574985D02*
X11682400Y-9536080D01*
X11796556Y-13284846D02*
X11787826Y-13284503D01*
X18139540Y-7993973D02*
X18131032Y-7994715D01*
X17506793Y-8645579D02*
X17508636Y-8646655D01*
X13697923Y-6740679D02*
X13697593Y-6739131D01*
X13328555Y-6813618D02*
X13333208Y-6811530D01*
X19288210Y-11809422D02*
X19292202Y-11812360D01*
X17279664Y-7088864D02*
X17285315Y-7092735D01*
X11070081Y-6959654D02*
X11072575Y-6950470D01*
X11577368Y-6697982D02*
X11672267Y-6686807D01*
X12344922Y-6677598D02*
X12415530Y-6682245D01*
X17503679Y-7271621D02*
X17507783Y-7277451D01*
X13017501Y-8434729D02*
X13022200Y-8431671D01*
X16690709Y-6274977D02*
X16692753Y-6278282D01*
X17729673Y-8563928D02*
X17727125Y-8563364D01*
X16698317Y-6159375D02*
X16692202Y-6197730D01*
X12962812Y-8456951D02*
X12964844Y-8456850D01*
X13008901Y-8439954D02*
X13012150Y-8438030D01*
X17586881Y-8333395D02*
X17586181Y-8335422D01*
X15940430Y-5382443D02*
X15948048Y-5384778D01*
X11339097Y-6991788D02*
X11340676Y-6994391D01*
X17712968Y-8830001D02*
X17725130Y-8842357D01*
X15650249Y-5405762D02*
X15665907Y-5406669D01*
X11676812Y-13207661D02*
X11669102Y-13200111D01*
X11765517Y-9199049D02*
X11763370Y-9193127D01*
X17569002Y-8708415D02*
X17572605Y-8710940D01*
X17950820Y-9106383D02*
X17957624Y-9121938D01*
X14302044Y-14688011D02*
X14299737Y-14686841D01*
X16692469Y-5492901D02*
X16696183Y-5494441D01*
X18359710Y-8294342D02*
X18354422Y-8297577D01*
X14247676Y-14621273D02*
X14247001Y-14616930D01*
X15902636Y-5366594D02*
X15912637Y-5371326D01*
X10282600Y-12426775D02*
X10281751Y-12418059D01*
X17810965Y-13109158D02*
X17805770Y-13111265D01*
X11734099Y-9394797D02*
X11734644Y-9389955D01*
X11322403Y-6957997D02*
X11326596Y-6965296D01*
X13549639Y-7450506D02*
X13549816Y-7447801D01*
X11099278Y-7136700D02*
X11098525Y-7130171D01*
X14289472Y-14680464D02*
X14286750Y-14678525D01*
X13421589Y-6799143D02*
X13431998Y-6798041D01*
X11099977Y-7177345D02*
X11100308Y-7170342D01*
X11173349Y-6874311D02*
X11182056Y-6873123D01*
X13175412Y-8076132D02*
X13180896Y-8073679D01*
X18209366Y-13223286D02*
X18207277Y-13219351D01*
X13243584Y-6923665D02*
X13248621Y-6909759D01*
X17115140Y-6311036D02*
X17118296Y-6313832D01*
X11754853Y-13278134D02*
X11752451Y-13276913D01*
X13502665Y-6787917D02*
X13507757Y-6788096D01*
X14262152Y-14656292D02*
X14260585Y-14654384D01*
X18981826Y-12964611D02*
X18973454Y-12976563D01*
X17722537Y-8294164D02*
X17716416Y-8294692D01*
X18223448Y-13244670D02*
X18220220Y-13240275D01*
X18325346Y-7788329D02*
X18335469Y-7797323D01*
X10328214Y-12528056D02*
X10321600Y-12520162D01*
X17275927Y-6822320D02*
X17277928Y-6834648D01*
X11089668Y-7948698D02*
X11091588Y-7914283D01*
X17612133Y-7497768D02*
X17604090Y-7501890D01*
X17618343Y-8721078D02*
X17619990Y-8721506D01*
X15830940Y-5342332D02*
X15835627Y-5339063D01*
X13866312Y-6075832D02*
X13872305Y-6065254D01*
X13686245Y-6233828D02*
X13692703Y-6225982D01*
X11070608Y-7025027D02*
X11068676Y-7012897D01*
X15765061Y-14218038D02*
X15763491Y-14220142D01*
X17344115Y-13213286D02*
X17319900Y-13218797D01*
X10286231Y-12449418D02*
X10284829Y-12442378D01*
X16772941Y-5971787D02*
X16764188Y-6026339D01*
X17652482Y-7466631D02*
X17644886Y-7473819D01*
X13690418Y-6725701D02*
X13688643Y-6723286D01*
X12740578Y-7989001D02*
X12729316Y-8012599D01*
X16797085Y-13312567D02*
X16783589Y-13315926D01*
X15793573Y-14175360D02*
X15791860Y-14179039D01*
X18307930Y-8304501D02*
X18304338Y-8302268D01*
X17049877Y-6469867D02*
X17054140Y-6472727D01*
X18685316Y-10404478D02*
X18693150Y-10413294D01*
X18299029Y-8025239D02*
X18278606Y-7992416D01*
X17729523Y-8449312D02*
X17740168Y-8459779D01*
X18205484Y-13215605D02*
X18204007Y-13212083D01*
X18154033Y-13069819D02*
X18152754Y-13067536D01*
X18145869Y-13057519D02*
X18143770Y-13054888D01*
X18451822Y-8157114D02*
X18448551Y-8170368D01*
X13545959Y-7465319D02*
X13547055Y-7462164D01*
X18245426Y-13269756D02*
X18241563Y-13265891D01*
X13306625Y-7213370D02*
X13290986Y-7193829D01*
X11322001Y-10149475D02*
X11331451Y-10137836D01*
X17414989Y-8553514D02*
X17407544Y-8557573D01*
X14309624Y-5595810D02*
X14332158Y-5580838D01*
X11503833Y-8934691D02*
X11485224Y-8915352D01*
X17878073Y-8984486D02*
X17884361Y-8991854D01*
X13052503Y-8251555D02*
X13055532Y-8236077D01*
X13596402Y-6797135D02*
X13606592Y-6796160D01*
X10399440Y-12040905D02*
X10414141Y-12021645D01*
X10366255Y-12562179D02*
X10358074Y-12556144D01*
X18695087Y-13192835D02*
X18675436Y-13199256D01*
X12747579Y-8521137D02*
X12770265Y-8514617D01*
X17958048Y-8119760D02*
X17917361Y-8160468D01*
X11351421Y-10111627D02*
X11361972Y-10097019D01*
X17332581Y-6996097D02*
X17331009Y-6999022D01*
X17862336Y-7704582D02*
X17872445Y-7708933D01*
X10280137Y-12387346D02*
X10279873Y-12375332D01*
X18201424Y-9598044D02*
X18205502Y-9605231D01*
X18325782Y-9816416D02*
X18335798Y-9838962D01*
X11769068Y-9235852D02*
X11769337Y-9227329D01*
X12740806Y-7429197D02*
X12758748Y-7428090D01*
X13781019Y-6159138D02*
X13793886Y-6150195D01*
X13616228Y-6460428D02*
X13617310Y-6453101D01*
X13045144Y-8317396D02*
X13046237Y-8300462D01*
X12682238Y-7434842D02*
X12692142Y-7433670D01*
X18601570Y-13226953D02*
X18579302Y-13236354D01*
X11097586Y-7123685D02*
X11096461Y-7117230D01*
X13632596Y-13784505D02*
X13623640Y-13779871D01*
X15752352Y-14251398D02*
X15751606Y-14256286D01*
X17372478Y-8600579D02*
X17374035Y-8602351D01*
X13276319Y-7807698D02*
X13280772Y-7800752D01*
X11632529Y-9669494D02*
X11638110Y-9654506D01*
X17276466Y-7059720D02*
X17274426Y-7062653D01*
X11782107Y-13284398D02*
X11776742Y-13284049D01*
X16502781Y-13458089D02*
X16487671Y-13468573D01*
X17107770Y-6504063D02*
X17112850Y-6507686D01*
X16763738Y-5699533D02*
X16764673Y-5713576D01*
X12750951Y-13492673D02*
X12742917Y-13493008D01*
X16704199Y-6136288D02*
X16702686Y-6140702D01*
X17132906Y-6334291D02*
X17133374Y-6336724D01*
X13043175Y-8383102D02*
X13043654Y-8373309D01*
X14804161Y-5342569D02*
X14828168Y-5333514D01*
X15752870Y-5399680D02*
X15758196Y-5397283D01*
X16700157Y-6149849D02*
X16699149Y-6154568D01*
X16795201Y-6328734D02*
X16804128Y-6327059D01*
X17367169Y-7124788D02*
X17369879Y-7125906D01*
X13046237Y-8300462D02*
X13047839Y-8283806D01*
X17669988Y-7388851D02*
X17674356Y-7394957D01*
X19274753Y-11780898D02*
X19277445Y-11794978D01*
X13495609Y-7599304D02*
X13497936Y-7590828D01*
X19634460Y-12538956D02*
X19624400Y-12548146D01*
X17753445Y-8561152D02*
X17752172Y-8561981D01*
X16420687Y-13518856D02*
X16402131Y-13531470D01*
X19262426Y-11262269D02*
X19264097Y-11283314D01*
X13935092Y-5954393D02*
X13939504Y-5948928D01*
X10444492Y-11985865D02*
X10460379Y-11969140D01*
X16466553Y-13485495D02*
X16453441Y-13495494D01*
X17918359Y-9041929D02*
X17923882Y-9051871D01*
X19519034Y-11956894D02*
X19539609Y-11976036D01*
X12015863Y-13415841D02*
X12012499Y-13412189D01*
X17286903Y-7046912D02*
X17283988Y-7050228D01*
X18441264Y-7960799D02*
X18445323Y-7978455D01*
X16071896Y-5432745D02*
X16084017Y-5437890D01*
X11198423Y-8368178D02*
X11189356Y-8315598D01*
X11421009Y-10008151D02*
X11431145Y-9992386D01*
X10888037Y-10835352D02*
X10924443Y-10761875D01*
X18252567Y-9679413D02*
X18266172Y-9702105D01*
X16770642Y-13319678D02*
X16757881Y-13323936D01*
X11068676Y-7012897D02*
X11067482Y-7001264D01*
X10789250Y-12545991D02*
X10787816Y-12544435D01*
X17525715Y-7547298D02*
X17526250Y-7548720D01*
X11743233Y-9351504D02*
X11752737Y-9318607D01*
X13891743Y-6026494D02*
X13895820Y-6018134D01*
X12668569Y-8521837D02*
X12670051Y-8525915D01*
X16786780Y-5889121D02*
X16783517Y-5909093D01*
X16684498Y-6254531D02*
X16684860Y-6258170D01*
X13425495Y-7714800D02*
X13434796Y-7709090D01*
X18266172Y-9702105D02*
X18279258Y-9724946D01*
X13250919Y-7881443D02*
X13251471Y-7874968D01*
X17369831Y-8595545D02*
X17370359Y-8597168D01*
X10294008Y-12474274D02*
X10291717Y-12468404D01*
X12681093Y-8534776D02*
X12684639Y-8534772D01*
X14601894Y-5414419D02*
X14612239Y-5411358D01*
X12576642Y-6706439D02*
X12587581Y-6711137D01*
X17455950Y-8536929D02*
X17447525Y-8539586D01*
X14506020Y-5468777D02*
X14541358Y-5446936D01*
X11395578Y-13111757D02*
X11340031Y-13096902D01*
X11252204Y-10215384D02*
X11256413Y-10211608D01*
X17842943Y-7694257D02*
X17852557Y-7699699D01*
X12852900Y-7712191D02*
X12845430Y-7731621D01*
X12696784Y-13492064D02*
X12675120Y-13490469D01*
X13988691Y-5901472D02*
X13999993Y-5889246D01*
X13698105Y-6743603D02*
X13698092Y-6742166D01*
X14649219Y-5401655D02*
X14664405Y-5396643D01*
X12038847Y-13434795D02*
X12034745Y-13432035D01*
X17320745Y-6939119D02*
X17323267Y-6942077D01*
X17236387Y-6681481D02*
X17241562Y-6690598D01*
X18294186Y-13302394D02*
X18291784Y-13301985D01*
X11020220Y-12923118D02*
X11009090Y-12909932D01*
X17784407Y-8279748D02*
X17781036Y-8281343D01*
X17554394Y-7562353D02*
X17564466Y-7565942D01*
X14265874Y-5626555D02*
X14287515Y-5611061D01*
X11638110Y-9654506D02*
X11643211Y-9639660D01*
X13667156Y-6269106D02*
X13671046Y-6259502D01*
X12823585Y-7437946D02*
X12828628Y-7440534D01*
X17297719Y-6904297D02*
X17301369Y-6911862D01*
X13252096Y-8039490D02*
X13255489Y-8036762D01*
X17327710Y-6947909D02*
X17329629Y-6950791D01*
X11581535Y-9775594D02*
X11589969Y-9760544D01*
X18973503Y-10684487D02*
X18979822Y-10704107D01*
X18143870Y-9403395D02*
X18147459Y-9413593D01*
X18197596Y-9591018D02*
X18201424Y-9598044D01*
X19183051Y-11013510D02*
X19191901Y-11029852D01*
X17517708Y-8526264D02*
X17504138Y-8527628D01*
X11237502Y-6880615D02*
X11244975Y-6884485D01*
X12872462Y-7471713D02*
X12875699Y-7474657D01*
X16905043Y-6290543D02*
X16914521Y-6286387D01*
X11284039Y-6913402D02*
X11291541Y-6920507D01*
X15766731Y-14215986D02*
X15765061Y-14218038D01*
X11179472Y-10321130D02*
X11189094Y-10304162D01*
X13358034Y-6803879D02*
X13363322Y-6802899D01*
X16684202Y-5490747D02*
X16688531Y-5491665D01*
X16716521Y-6112509D02*
X16714100Y-6116114D01*
X12762303Y-7944825D02*
X12753182Y-7963592D01*
X12766011Y-13491479D02*
X12758641Y-13492163D01*
X18349193Y-8300402D02*
X18344042Y-8302799D01*
X17029767Y-6445701D02*
X17030378Y-6448345D01*
X13235612Y-6953075D02*
X13239246Y-6938140D01*
X13621480Y-6433998D02*
X13623194Y-6428468D01*
X11271813Y-10200030D02*
X11279480Y-10193802D01*
X12664604Y-8453337D02*
X12664712Y-8481640D01*
X16174655Y-13682169D02*
X16154414Y-13697647D01*
X13691949Y-6755989D02*
X13693137Y-6754535D01*
X13688643Y-6723286D02*
X13686667Y-6720716D01*
X18098638Y-13023346D02*
X18096954Y-13023454D01*
X18872065Y-10538621D02*
X18887476Y-10551453D01*
X19195776Y-12556732D02*
X19187555Y-12571018D01*
X13262139Y-7834985D02*
X13264746Y-7829287D01*
X18175878Y-9522589D02*
X18177172Y-9531961D01*
X18305339Y-7772305D02*
X18315273Y-7779960D01*
X17127991Y-6324383D02*
X17129673Y-6326901D01*
X18345105Y-9861240D02*
X18353670Y-9883182D01*
X19655042Y-12517651D02*
X19644643Y-12528804D01*
X16438873Y-5522022D02*
X16477414Y-5518275D01*
X13250773Y-7911754D02*
X13250519Y-7903390D01*
X16789298Y-5832363D02*
X16789939Y-5838390D01*
X13319547Y-6818362D02*
X13324002Y-6815895D01*
X18107928Y-13024625D02*
X18106438Y-13024175D01*
X14332158Y-5580838D02*
X14460439Y-5497729D01*
X11343577Y-6998300D02*
X11344900Y-6999604D01*
X16823660Y-6322004D02*
X16834030Y-6318776D01*
X13255101Y-7142455D02*
X13247906Y-7128918D01*
X16763019Y-5672675D02*
X16763412Y-5686465D01*
X18937286Y-13019211D02*
X18914811Y-13041884D01*
X17319900Y-13218797D02*
X17298667Y-13223907D01*
X17122562Y-6515148D02*
X17127124Y-6518932D01*
X18294444Y-8292031D02*
X18293893Y-8290874D01*
X10429119Y-12003332D02*
X10444492Y-11985865D01*
X17953123Y-13056961D02*
X17922479Y-13066367D01*
X13158767Y-8084334D02*
X13164310Y-8081482D01*
X12771961Y-7923800D02*
X12762303Y-7944825D01*
X11952320Y-13344298D02*
X11944687Y-13338692D01*
X17586181Y-8335422D02*
X17585644Y-8337435D01*
X18026032Y-8041398D02*
X18025876Y-8041944D01*
X16167868Y-5467046D02*
X16183865Y-5473190D01*
X18291794Y-9747867D02*
X18303748Y-9770799D01*
X12904894Y-7540338D02*
X12905112Y-7550513D01*
X14255151Y-14646085D02*
X14253987Y-14643724D01*
X11093649Y-8021831D02*
X11091359Y-8010039D01*
X11647685Y-9626576D02*
X11653281Y-9611051D01*
X15758196Y-5397283D02*
X15763481Y-5394418D01*
X17681917Y-7412397D02*
X17682311Y-7415126D01*
X17559150Y-7513105D02*
X17553433Y-7515829D01*
X17264788Y-6744621D02*
X17266592Y-6751776D01*
X11355744Y-6802902D02*
X11357399Y-6798418D01*
X11359309Y-6794196D02*
X11361479Y-6790150D01*
X18454311Y-8142364D02*
X18451822Y-8157114D01*
X17538261Y-7525928D02*
X17534193Y-7529659D01*
X17337317Y-6981792D02*
X17336785Y-6984620D01*
X17715147Y-8560029D02*
X17707943Y-8557699D01*
X18192211Y-7992416D02*
X18168881Y-7992646D01*
X13921759Y-5972952D02*
X13926206Y-5966424D01*
X12674733Y-8207114D02*
X12672349Y-8233810D01*
X11213262Y-8441271D02*
X11207060Y-8416592D01*
X18030670Y-8035586D02*
X18028980Y-8037253D01*
X17716416Y-8294692D02*
X17710352Y-8295079D01*
X11067482Y-7001264D02*
X11067025Y-6990126D01*
X16788027Y-5880322D02*
X16786780Y-5889121D01*
X11648916Y-13182508D02*
X11642715Y-13178058D01*
X14051311Y-14108833D02*
X14023800Y-14085759D01*
X18294633Y-8263702D02*
X18295947Y-8258016D01*
X12794574Y-8507144D02*
X12819926Y-8498863D01*
X11153015Y-8189355D02*
X11129864Y-8128701D01*
X13257997Y-8034130D02*
X13259723Y-8031523D01*
X16353745Y-5526609D02*
X16364095Y-5526496D01*
X17640333Y-8736395D02*
X17642740Y-8739797D01*
X18825174Y-13122364D02*
X18811853Y-13132460D01*
X11682400Y-9536080D02*
X11697864Y-9498953D01*
X19284925Y-11806794D02*
X19288210Y-11809422D01*
X17271165Y-6781784D02*
X17272545Y-6795888D01*
X12799859Y-13485368D02*
X12792737Y-13486985D01*
X13271978Y-7815224D02*
X13276319Y-7807698D01*
X17674274Y-8410530D02*
X17689862Y-8419576D01*
X11367765Y-8748905D02*
X11342796Y-8707449D01*
X13626429Y-6792599D02*
X13635949Y-6790043D01*
X17818812Y-8252882D02*
X17804156Y-8265328D01*
X18087332Y-9315396D02*
X18096233Y-9325478D01*
X14224158Y-5658124D02*
X14244741Y-5642255D01*
X16742580Y-5570320D02*
X16746990Y-5584353D01*
X18219045Y-9627343D02*
X18223927Y-9634757D01*
X17335099Y-6990320D02*
X17333944Y-6993197D01*
X18292202Y-8282628D02*
X18292183Y-8280976D01*
X17400534Y-8561762D02*
X17394039Y-8566032D01*
X15478028Y-5361331D02*
X15497000Y-5368804D01*
X18209812Y-9612538D02*
X18214333Y-9619922D01*
X14253987Y-14643724D02*
X14252895Y-14641199D01*
X13250452Y-7895592D02*
X13250583Y-7888297D01*
X11766755Y-13282422D02*
X11764355Y-13281786D01*
X11129864Y-8128701D02*
X11112813Y-8083066D01*
X17627528Y-8724599D02*
X17628918Y-8725423D01*
X17757221Y-8480981D02*
X17760556Y-8486269D01*
X11089939Y-6918539D02*
X11096126Y-6911746D01*
X17732063Y-8564386D02*
X17729673Y-8563928D01*
X14930031Y-5304021D02*
X14950212Y-5300629D01*
X18021007Y-9243533D02*
X18028453Y-9252001D01*
X11451125Y-13126788D02*
X11395578Y-13111757D01*
X11291541Y-6920507D02*
X11298724Y-6927856D01*
X18187823Y-9571325D02*
X18190776Y-9577617D01*
X19266393Y-11332536D02*
X19267105Y-11361642D01*
X11747409Y-9169252D02*
X11736050Y-9155978D01*
X16783874Y-5807659D02*
X16785666Y-5814106D01*
X11723320Y-9434797D02*
X11727731Y-9422110D01*
X19242366Y-11156662D02*
X19247120Y-11174126D01*
X18214337Y-13231597D02*
X18211726Y-13227379D01*
X13502580Y-7397404D02*
X13492308Y-7392061D01*
X11826866Y-13289636D02*
X11816196Y-13287456D01*
X17837506Y-13096728D02*
X17827661Y-13101048D01*
X13518214Y-6788885D02*
X13523549Y-6789493D01*
X15780397Y-5382599D02*
X15793869Y-5371621D01*
X14098933Y-5770908D02*
X14114513Y-5754869D01*
X12850826Y-13482058D02*
X12844245Y-13481483D01*
X17552402Y-7314216D02*
X17559371Y-7317569D01*
X13022200Y-8431671D02*
X13024320Y-8430188D01*
X13379863Y-6801039D02*
X13391470Y-6800687D01*
X18095382Y-8001102D02*
X18089218Y-8002981D01*
X12679767Y-8534615D02*
X12681093Y-8534776D01*
X13646652Y-6364083D02*
X13649457Y-6352247D01*
X15802461Y-5364521D02*
X15810656Y-5357896D01*
X17596664Y-8365258D02*
X17598872Y-8367315D01*
X13655756Y-6315419D02*
X13658111Y-6302456D01*
X16705367Y-5500195D02*
X16708158Y-5502869D01*
X17654287Y-8759704D02*
X17659597Y-8767765D01*
X11417685Y-8826130D02*
X11392890Y-8788741D01*
X15954388Y-5386255D02*
X15956994Y-5386640D01*
X13127997Y-8102458D02*
X13132640Y-8099432D01*
X16785666Y-5814106D02*
X16787165Y-5820312D01*
X13652793Y-6334945D02*
X13653622Y-6329471D01*
X13261231Y-8026086D02*
X13261218Y-8023109D01*
X15979534Y-5391690D02*
X15984277Y-5393346D01*
X13623194Y-6428468D02*
X13625077Y-6423297D01*
X18385106Y-9988564D02*
X18386382Y-9992134D01*
X14910442Y-5308124D02*
X14930031Y-5304021D01*
X13679488Y-6711966D02*
X13673614Y-6705163D01*
X13636536Y-6397223D02*
X13640092Y-6386917D01*
X11733908Y-9398676D02*
X11733957Y-9396869D01*
X14260585Y-14654384D02*
X14259104Y-14652433D01*
X18167651Y-9483534D02*
X18171024Y-9497957D01*
X18553518Y-13247536D02*
X18523220Y-13260894D01*
X15975112Y-5390248D02*
X15979534Y-5391690D01*
X13324002Y-6815895D02*
X13328555Y-6813618D01*
X16686194Y-6233216D02*
X16685419Y-6238000D01*
X18297533Y-8251676D02*
X18299387Y-8244630D01*
X16763152Y-6032593D02*
X16761997Y-6038554D01*
X19624400Y-12548146D02*
X19614373Y-12556413D01*
X16114854Y-5449426D02*
X16122099Y-5451478D01*
X19373197Y-12589369D02*
X19363553Y-12587224D01*
X11514161Y-9875573D02*
X11524551Y-9862100D01*
X11311760Y-6942947D02*
X11317427Y-6950519D01*
X11295274Y-8622978D02*
X11273693Y-8581616D01*
X11936141Y-13333132D02*
X11926802Y-13327662D01*
X17525793Y-7542512D02*
X17525499Y-7544183D01*
X18370387Y-8286713D02*
X18359710Y-8294342D01*
X19307929Y-11822746D02*
X19314256Y-11826631D01*
X10541397Y-12592914D02*
X10520072Y-12594410D01*
X11592765Y-13158634D02*
X11583066Y-13156584D01*
X17117792Y-6511390D02*
X17122562Y-6515148D01*
X17325589Y-6945006D02*
X17327710Y-6947909D01*
X10460379Y-11969140D02*
X10476897Y-11953056D01*
X11212669Y-13048030D02*
X11190248Y-13037140D01*
X13242873Y-7116879D02*
X13238579Y-7104005D01*
X10462389Y-12594760D02*
X10446076Y-12593407D01*
X13038392Y-8412830D02*
X13039210Y-8410448D01*
X16702686Y-6140702D02*
X16701337Y-6145225D01*
X11376744Y-6770376D02*
X11380580Y-6766630D01*
X11955263Y-13346696D02*
X11952320Y-13344298D01*
X17687451Y-8295565D02*
X17676783Y-8296061D01*
X14184806Y-5690227D02*
X14204166Y-5674127D01*
X16402000Y-5524736D02*
X16419943Y-5523539D01*
X17608027Y-7340176D02*
X17617993Y-7345891D01*
X13391470Y-6800687D02*
X13401014Y-6800503D01*
X19672657Y-12175293D02*
X19675412Y-12183151D01*
X17585857Y-7507471D02*
X17582679Y-7507645D01*
X17793641Y-13115492D02*
X17786598Y-13117640D01*
X12786962Y-7428197D02*
X12792833Y-7428782D01*
X17260187Y-6730238D02*
X17262662Y-6737465D01*
X17610266Y-8310975D02*
X17604630Y-8314098D01*
X17689862Y-8419576D02*
X17704308Y-8429118D01*
X11731064Y-9411587D02*
X11733173Y-9403639D01*
X10899416Y-12747870D02*
X10871950Y-12700590D01*
X17336187Y-6964955D02*
X17336888Y-6967760D01*
X17443965Y-7190379D02*
X17453439Y-7200917D01*
X17467340Y-8638454D02*
X17471195Y-8638696D01*
X18303748Y-9770799D02*
X18315088Y-9793671D01*
X11348873Y-7000731D02*
X11349357Y-7000453D01*
X17596402Y-7504998D02*
X17592737Y-7506131D01*
X14612239Y-5411358D02*
X14623478Y-5408895D01*
X11483768Y-6715997D02*
X11500563Y-6711687D01*
X18091520Y-13024294D02*
X18089556Y-13024741D01*
X12881588Y-7480379D02*
X12884188Y-7483111D01*
X11279480Y-10193802D02*
X11287406Y-10186720D01*
X17968461Y-9149409D02*
X17972166Y-9160492D01*
X19652201Y-12127883D02*
X19663152Y-12151441D01*
X16705873Y-6131991D02*
X16704199Y-6136288D01*
X13653622Y-6329471D02*
X13655756Y-6315419D01*
X18279258Y-9724946D02*
X18291794Y-9747867D01*
X12471849Y-6686947D02*
X12495325Y-6689476D01*
X18096954Y-13023454D02*
X18095212Y-13023648D01*
X10770195Y-12543306D02*
X10766637Y-12543926D01*
X12415530Y-6682245D02*
X12471849Y-6686947D01*
X17131054Y-6329387D02*
X17132132Y-6331847D01*
X11442476Y-9975303D02*
X11454620Y-9957445D01*
X13671046Y-6259502D02*
X13675481Y-6250488D01*
X18192293Y-13173814D02*
X18188686Y-13164065D01*
X14178980Y-14227767D02*
X14170802Y-14219181D01*
X17288000Y-6878020D02*
X17291034Y-6887376D01*
X13619932Y-6439922D02*
X13621480Y-6433998D01*
X17755959Y-8559219D02*
X17754704Y-8560231D01*
X11305495Y-6935364D02*
X11311760Y-6942947D01*
X18488355Y-13273519D02*
X18478215Y-13276435D01*
X12703271Y-7432484D02*
X12715303Y-7431319D01*
X18302981Y-8301255D02*
X18301707Y-8300257D01*
X19083992Y-10872212D02*
X19096352Y-10885896D01*
X15753153Y-14246932D02*
X15752352Y-14251398D01*
X11030261Y-12933918D02*
X11020220Y-12923118D01*
X13815672Y-6133861D02*
X13824892Y-6126143D01*
X13368722Y-6802100D02*
X13379863Y-6801039D01*
X18149640Y-13062667D02*
X18147830Y-13060118D01*
X13257783Y-7846079D02*
X13259821Y-7840561D01*
X18392755Y-13293839D02*
X18364079Y-13297761D01*
X18182935Y-9559768D02*
X18185203Y-9565361D01*
X11347295Y-7000904D02*
X11347842Y-7000956D01*
X13738336Y-6187600D02*
X13750584Y-6179393D01*
X11247882Y-10219574D02*
X11252204Y-10215384D01*
X18286243Y-7759508D02*
X18295633Y-7765458D01*
X17833331Y-7688226D02*
X17842943Y-7694257D01*
X13333208Y-6811530D02*
X13337963Y-6809629D01*
X19689235Y-12253687D02*
X19690090Y-12264859D01*
X16673706Y-5489922D02*
X16679316Y-5490161D01*
X17271417Y-7081793D02*
X17273044Y-7083450D01*
X11992165Y-13385462D02*
X11985623Y-13377590D01*
X12614600Y-6728986D02*
X12622572Y-6736397D01*
X17477421Y-8531846D02*
X17464331Y-8534703D01*
X17272545Y-6795888D02*
X17274132Y-6809400D01*
X11485224Y-8915352D02*
X11464339Y-8890262D01*
X17772232Y-8531187D02*
X17771348Y-8535666D01*
X13273184Y-6863188D02*
X13280062Y-6853724D01*
X13686667Y-6720716D02*
X13684485Y-6717979D01*
X17272651Y-7065432D02*
X17271157Y-7068033D01*
X17572740Y-8525736D02*
X17558926Y-8525133D01*
X11230358Y-6877581D02*
X11237502Y-6880615D01*
X11239006Y-10229059D02*
X11243474Y-10224143D01*
X19604284Y-12563796D02*
X19599188Y-12567168D01*
X18295072Y-8293145D02*
X18294444Y-8292031D01*
X12666321Y-8368751D02*
X12665172Y-8416133D01*
X10924443Y-10761875D02*
X10965675Y-10683386D01*
X11146525Y-13014136D02*
X11125700Y-13002272D01*
X16834030Y-6318776D02*
X16845011Y-6315088D01*
X17698570Y-8295398D02*
X17687451Y-8295565D01*
X18333702Y-13301176D02*
X18325261Y-13301992D01*
X17891318Y-13076664D02*
X17862155Y-13087052D01*
X11070228Y-12966737D02*
X11054865Y-12955328D01*
X18147459Y-9413593D02*
X18151089Y-9424692D01*
X16764673Y-5713576D02*
X16766152Y-5728153D01*
X10335196Y-12535624D02*
X10328214Y-12528056D01*
X13523395Y-7517759D02*
X13532425Y-7495963D01*
X18140216Y-9393937D02*
X18143870Y-9403395D01*
X10815871Y-11032910D02*
X10822441Y-10996989D01*
X12665172Y-8416133D02*
X12664604Y-8453337D01*
X17600193Y-7503579D02*
X17596402Y-7504998D01*
X16192324Y-13669333D02*
X16174655Y-13682169D01*
X13434796Y-7709090D02*
X13443449Y-7703096D01*
X16909841Y-13294366D02*
X16863791Y-13300813D01*
X17334173Y-6959326D02*
X17335282Y-6962145D01*
X13347785Y-6806386D02*
X13352855Y-6805041D01*
X14070453Y-5802585D02*
X14084232Y-5786825D01*
X17395982Y-7144038D02*
X17405087Y-7151893D01*
X10410121Y-12585285D02*
X10401043Y-12581683D01*
X19583555Y-12576061D02*
X19578190Y-12578634D01*
X11717980Y-9449236D02*
X11723320Y-9434797D01*
X17653767Y-7598273D02*
X17686196Y-7612345D01*
X13717155Y-6203184D02*
X13727215Y-6195497D01*
X11519679Y-8947452D02*
X11512132Y-8941945D01*
X18364079Y-13297761D02*
X18333702Y-13301176D01*
X15829005Y-14084034D02*
X15823411Y-14096216D01*
X17642740Y-8739797D02*
X17645152Y-8743587D01*
X11752451Y-13276913D02*
X11750020Y-13275557D01*
X18453890Y-10082391D02*
X18462335Y-10091858D01*
X17734306Y-8564739D02*
X17732063Y-8564386D01*
X15865468Y-5347431D02*
X15873945Y-5351719D01*
X16344274Y-13568544D02*
X16324408Y-13580852D01*
X18050290Y-8021470D02*
X18046796Y-8023642D01*
X11189356Y-8315598D02*
X11186923Y-8302997D01*
X18413138Y-10035839D02*
X18417328Y-10041260D01*
X17919456Y-7721563D02*
X17933673Y-7723666D01*
X18293893Y-8290874D02*
X18293421Y-8289665D01*
X16863791Y-13300813D02*
X16827170Y-13306579D01*
X17792500Y-8274468D02*
X17784407Y-8279748D01*
X17127903Y-6354130D02*
X17125850Y-6356761D01*
X13306758Y-6826913D02*
X13310927Y-6823870D01*
X17042567Y-6464309D02*
X17046019Y-6467063D01*
X17262662Y-6737465D02*
X17264788Y-6744621D01*
X12956580Y-8457814D02*
X12962812Y-8456951D01*
X13294798Y-6837214D02*
X13298695Y-6833584D01*
X16684852Y-6242492D02*
X16684503Y-6246723D01*
X16783517Y-5909093D02*
X16772941Y-5971787D01*
X11403512Y-6749167D02*
X11414427Y-6742777D01*
X16453441Y-13495494D02*
X16437971Y-13506739D01*
X17317171Y-7017249D02*
X17314126Y-7020427D01*
X19510297Y-12595621D02*
X19495503Y-12596771D01*
X18010957Y-13042614D02*
X18002794Y-13044035D01*
X17575526Y-7569756D02*
X17587289Y-7573691D01*
X19497497Y-11938560D02*
X19519034Y-11956894D01*
X12677632Y-8182462D02*
X12674733Y-8207114D01*
X10280530Y-12398420D02*
X10280137Y-12387346D01*
X13360007Y-7274319D02*
X13341462Y-7253966D01*
X14971476Y-5297858D02*
X14994316Y-5295613D01*
X13290986Y-7193829D02*
X13276968Y-7175262D01*
X13507199Y-7561523D02*
X13514880Y-7539923D01*
X18184824Y-13154198D02*
X18180811Y-13144502D01*
X18095212Y-13023648D02*
X18093403Y-13023929D01*
X17778830Y-13119829D02*
X17770283Y-13122074D01*
X15797818Y-14164668D02*
X15796568Y-14168147D01*
X17743665Y-8564965D02*
X17742006Y-8565122D01*
X12899178Y-7508498D02*
X12900471Y-7512621D01*
X17983760Y-9195166D02*
X17987367Y-9200747D01*
X17719885Y-7627855D02*
X17753139Y-7643999D01*
X12030734Y-13429103D02*
X12026829Y-13426008D01*
X16310118Y-5521967D02*
X16318427Y-5523712D01*
X13115907Y-8111133D02*
X13119592Y-8108332D01*
X15747370Y-5401650D02*
X15752870Y-5399680D01*
X12869722Y-8482601D02*
X12913260Y-8469278D01*
X11464339Y-8890262D02*
X11441664Y-8860246D01*
X11096126Y-6911746D02*
X11102173Y-6906160D01*
X17632903Y-8728343D02*
X17634182Y-8729473D01*
X18177495Y-9535728D02*
X18177586Y-9538813D01*
X17718429Y-8561026D02*
X17715147Y-8560029D01*
X13260166Y-8016267D02*
X13259309Y-8011123D01*
X11076684Y-7050787D02*
X11073278Y-7037657D01*
X13467198Y-6791680D02*
X13470978Y-6790701D01*
X11098525Y-7130171D02*
X11097586Y-7123685D01*
X13228731Y-7046314D02*
X13228086Y-7030883D01*
X17604090Y-7501890D02*
X17600193Y-7503579D01*
X17503070Y-8643703D02*
X17504939Y-8644596D01*
X15749654Y-14273812D02*
X15749086Y-14280721D01*
X10358074Y-12556144D02*
X10350152Y-12549691D01*
X17973518Y-9165189D02*
X17974510Y-9169252D01*
X10281359Y-12292689D02*
X10282842Y-12276666D01*
X17579781Y-8714923D02*
X17583407Y-8716416D01*
X17511889Y-7282785D02*
X17516060Y-7287677D01*
X17781866Y-8896161D02*
X17797901Y-8910530D01*
X14322109Y-14690626D02*
X14304194Y-14688984D01*
X13031390Y-8424155D02*
X13032834Y-8422531D01*
X14249181Y-14628987D02*
X14248402Y-14625284D01*
X13523549Y-6789493D02*
X13528935Y-6790244D01*
X11643211Y-9639660D02*
X11647685Y-9626576D01*
X14246374Y-14612230D02*
X14245792Y-14607149D01*
X11317427Y-6950519D02*
X11322403Y-6957997D01*
X18157117Y-13078956D02*
X18157084Y-13078252D01*
X11767194Y-9205370D02*
X11765517Y-9199049D01*
X11352914Y-6907182D02*
X11351478Y-6880289D01*
X16292722Y-5516997D02*
X16301616Y-5519741D01*
X13694582Y-6732117D02*
X13693383Y-6730106D01*
X18854961Y-10525600D02*
X18872065Y-10538621D01*
X19411129Y-12595256D02*
X19401589Y-12594160D01*
X11872413Y-13303173D02*
X11860836Y-13299153D01*
X17558926Y-8525133D02*
X17545131Y-8525018D01*
X19343667Y-11843491D02*
X19360141Y-11852293D01*
X17676783Y-8296061D02*
X17666587Y-8296877D01*
X17512312Y-8649098D02*
X17516011Y-8651953D01*
X17528132Y-7537168D02*
X17527122Y-7538994D01*
X19611220Y-12059552D02*
X19626182Y-12081882D01*
X16727528Y-5532857D02*
X16732792Y-5544398D01*
X18304338Y-8302268D02*
X18302981Y-8301255D01*
X17291759Y-7096718D02*
X17298828Y-7100726D01*
X13254510Y-7857187D02*
X13256016Y-7851600D01*
X18959919Y-10649254D02*
X18966916Y-10666255D01*
X17831954Y-8940126D02*
X17840895Y-8947869D01*
X17679505Y-7430151D02*
X17677929Y-7433565D01*
X17819888Y-13104889D02*
X17815653Y-13107037D01*
X18231186Y-7736661D02*
X18239148Y-7738670D01*
X18760493Y-13165224D02*
X18747765Y-13171764D01*
X18956303Y-12998284D02*
X18937286Y-13019211D01*
X15808599Y-14131673D02*
X15804796Y-14141955D01*
X13669895Y-6774996D02*
X13677033Y-6770105D01*
X16721773Y-6105787D02*
X16719080Y-6109064D01*
X18159477Y-9452563D02*
X18163771Y-9468263D01*
X16710908Y-6299336D02*
X16717500Y-6305569D01*
X16804128Y-6327059D02*
X16813596Y-6324811D01*
X11348368Y-7000898D02*
X11348873Y-7000731D01*
X17283988Y-7050228D02*
X17281265Y-7053483D01*
X17871470Y-8977221D02*
X17878073Y-8984486D01*
X17639052Y-8301182D02*
X17630963Y-8303211D01*
X18693150Y-10413294D02*
X18700873Y-10421237D01*
X13895820Y-6018134D02*
X13899990Y-6009980D01*
X17526338Y-7540779D02*
X17525793Y-7542512D01*
X11073278Y-7037657D02*
X11070608Y-7025027D01*
X17274426Y-7062653D02*
X17272651Y-7065432D01*
X13840744Y-6110789D02*
X13847677Y-6102826D01*
X11091359Y-8010039D02*
X11089859Y-7998714D01*
X17131047Y-6349014D02*
X17129635Y-6351550D01*
X18935040Y-10604055D02*
X18944123Y-10618311D01*
X12844245Y-13481483D02*
X12837894Y-13481202D01*
X17329228Y-7001974D02*
X17327237Y-7004957D01*
X11351507Y-6825095D02*
X11352223Y-6818742D01*
X18436812Y-8201040D02*
X18429279Y-8215761D01*
X17030369Y-6437629D02*
X17029762Y-6440351D01*
X11524551Y-9862100D02*
X11534716Y-9848301D01*
X17369681Y-8593986D02*
X17369831Y-8595545D01*
X18457034Y-8109252D02*
X18456041Y-8126337D01*
X17069299Y-6399270D02*
X17058753Y-6406698D01*
X16684382Y-6250726D02*
X16684498Y-6254531D01*
X18852908Y-13099531D02*
X18838834Y-13111404D01*
X17933673Y-7723666D02*
X17949205Y-7725403D01*
X17975327Y-9175272D02*
X17975415Y-9176613D01*
X17337385Y-6970561D02*
X17337676Y-6973362D01*
X17738390Y-8565134D02*
X17736411Y-8564988D01*
X13793886Y-6150195D02*
X13805386Y-6141824D01*
X17704389Y-8295317D02*
X17698570Y-8295398D01*
X17394039Y-8566032D02*
X17388138Y-8570332D01*
X15149352Y-5289049D02*
X15317836Y-5284867D01*
X13480379Y-7385007D02*
X13466479Y-7375060D01*
X13484508Y-7654722D02*
X13486045Y-7650934D01*
X19626182Y-12081882D02*
X19639860Y-12104678D01*
X17943312Y-9090171D02*
X17950820Y-9106383D01*
X17039521Y-6461595D02*
X17042567Y-6464309D01*
X11764355Y-13281786D02*
X11761976Y-13281045D01*
X18445323Y-7978455D02*
X18448833Y-7996806D01*
X16827170Y-13306579D02*
X16811492Y-13309489D01*
X13401088Y-13658910D02*
X13370599Y-13645459D01*
X10797205Y-12557551D02*
X10792823Y-12550773D01*
X18071598Y-8009993D02*
X18065820Y-8012820D01*
X11742446Y-13270614D02*
X11737065Y-13266527D01*
X19222431Y-12545601D02*
X19217808Y-12545176D01*
X10431631Y-12591273D02*
X10419298Y-12588332D01*
X17289991Y-7043559D02*
X17286903Y-7046912D01*
X15912637Y-5371326D02*
X15922452Y-5375613D01*
X12734516Y-13493168D02*
X12725725Y-13493153D01*
X17135485Y-6526460D02*
X17139213Y-6530148D01*
X11115789Y-6896101D02*
X11123242Y-6891660D01*
X12653684Y-7434366D02*
X12655467Y-7437558D01*
X18386382Y-9992134D02*
X18388068Y-9996066D01*
X16937347Y-6280183D02*
X16950282Y-6278113D01*
X12766653Y-7427808D02*
X12773944Y-7427723D01*
X14204166Y-5674127D02*
X14224158Y-5658124D01*
X11916790Y-13322324D02*
X11906225Y-13317162D01*
X17369879Y-7125906D02*
X17372887Y-7127435D01*
X18435301Y-10062231D02*
X18453890Y-10082391D01*
X15886850Y-13965524D02*
X15880855Y-13976312D01*
X17131444Y-6522712D02*
X17135485Y-6526460D01*
X11353573Y-6988511D02*
X11353993Y-6984965D01*
X16717500Y-6305569D02*
X16723992Y-6311069D01*
X17148164Y-6540564D02*
X17150285Y-6543726D01*
X10835568Y-10955782D02*
X10845684Y-10929887D01*
X12701761Y-8532310D02*
X12709390Y-8530734D01*
X19251252Y-11191025D02*
X19254805Y-11207825D01*
X11010264Y-10602757D02*
X11056742Y-10522862D01*
X12497380Y-13475204D02*
X12452412Y-13473224D01*
X17489093Y-8639691D02*
X17493299Y-8640470D01*
X17585071Y-8341421D02*
X17585040Y-8343400D01*
X15834689Y-14072257D02*
X15829005Y-14084034D01*
X13258330Y-8003678D02*
X13257263Y-7994285D01*
X19214982Y-11077109D02*
X19221196Y-11091711D01*
X14278544Y-14672133D02*
X14275863Y-14669863D01*
X11100233Y-7149925D02*
X11099847Y-7143281D01*
X18118627Y-13030606D02*
X18117016Y-13029437D01*
X15003352Y-14695367D02*
X14517904Y-14694314D01*
X11215775Y-6873838D02*
X11223637Y-6875467D01*
X18309098Y-8191957D02*
X18311168Y-8175956D01*
X17510474Y-8647827D02*
X17512312Y-8649098D01*
X13912918Y-5986941D02*
X13917325Y-5979797D01*
X17603896Y-8371495D02*
X17606718Y-8373623D01*
X13239246Y-6938140D02*
X13243584Y-6923665D01*
X13547055Y-7462164D02*
X13547975Y-7459111D01*
X16692202Y-6197730D02*
X16686194Y-6233216D01*
X12531169Y-13476999D02*
X12497380Y-13475204D01*
X13545250Y-6793346D02*
X13555296Y-6795309D01*
X18311168Y-8175956D02*
X18312963Y-8159773D01*
X18205502Y-9605231D02*
X18209812Y-9612538D01*
X10304228Y-12494752D02*
X10299350Y-12485783D01*
X19595028Y-12037745D02*
X19611220Y-12059552D01*
X16778762Y-6330313D02*
X16782712Y-6330144D01*
X17273044Y-7083450D02*
X17274975Y-7085188D01*
X17371247Y-8598849D02*
X17372478Y-8600579D01*
X17644432Y-7363971D02*
X17651946Y-7370184D01*
X13253876Y-7957943D02*
X13251807Y-7930430D01*
X18312963Y-8159773D02*
X18314418Y-8143882D01*
X13878441Y-6053614D02*
X13884870Y-6040748D01*
X14587698Y-5420724D02*
X14601894Y-5414419D01*
X13042142Y-8395352D02*
X13042536Y-8391570D01*
X16283236Y-5513698D02*
X16292722Y-5516997D01*
X18304813Y-13303120D02*
X18299269Y-13302930D01*
X18037573Y-8029939D02*
X18034987Y-8031913D01*
X10871950Y-12700590D02*
X10846943Y-12654511D01*
X17772924Y-8284389D02*
X17768272Y-8285825D01*
X16335270Y-5525903D02*
X16344203Y-5526423D01*
X19144465Y-10949667D02*
X19154395Y-10965063D01*
X12495325Y-6689476D02*
X12516037Y-6692208D01*
X19134507Y-10934928D02*
X19144465Y-10949667D01*
X18914811Y-13041884D02*
X18898346Y-13057920D01*
X12060316Y-13445689D02*
X12055936Y-13443929D01*
X10732618Y-12553697D02*
X10714380Y-12560017D01*
X12779878Y-13489583D02*
X12773082Y-13490619D01*
X16105853Y-5446379D02*
X16114854Y-5449426D01*
X10766637Y-12543926D02*
X10762860Y-12544692D01*
X18223927Y-9634757D02*
X18238475Y-9656941D01*
X16218076Y-5486954D02*
X16235360Y-5494223D01*
X11103644Y-10446572D02*
X11129818Y-10404537D01*
X11095148Y-7110796D02*
X11093644Y-7104371D01*
X13024320Y-8430188D02*
X13026292Y-8428714D01*
X13228955Y-6999566D02*
X13230463Y-6983897D01*
X11763370Y-9193127D02*
X11760759Y-9187543D01*
X19296853Y-11815580D02*
X19302112Y-11819052D01*
X18131663Y-13041924D02*
X18127547Y-13038115D01*
X19051951Y-10834542D02*
X19061832Y-10846598D01*
X13132640Y-8099432D02*
X13137528Y-8096377D01*
X16256954Y-13624754D02*
X16212394Y-13655175D01*
X14245251Y-14601664D02*
X14244283Y-14589381D01*
X14170802Y-14219181D02*
X14151680Y-14200006D01*
X13287262Y-6845069D02*
X13290987Y-6841042D01*
X17507783Y-7277451D02*
X17511889Y-7282785D01*
X13847677Y-6102826D02*
X13854148Y-6094454D01*
X13617310Y-6453101D02*
X13618544Y-6446278D01*
X11735506Y-9384343D02*
X11736647Y-9378154D01*
X19680176Y-12198948D02*
X19682205Y-12207073D01*
X18014058Y-9235410D02*
X18021007Y-9243533D01*
X18083095Y-13026566D02*
X18078239Y-13028168D01*
X17628131Y-8387079D02*
X17637035Y-8391881D01*
X16688531Y-5491665D02*
X16692469Y-5492901D01*
X16781787Y-5800879D02*
X16783874Y-5807659D01*
X18470466Y-10101259D02*
X18478472Y-10110850D01*
X17490699Y-8529488D02*
X17477421Y-8531846D01*
X12606290Y-6722348D02*
X12614600Y-6728986D01*
X18158666Y-13087458D02*
X18157518Y-13082473D01*
X17337643Y-6978975D02*
X17337317Y-6981792D01*
X17386082Y-8611580D02*
X17392564Y-8615304D01*
X15938308Y-13901241D02*
X15921921Y-13919881D01*
X13137528Y-8096377D02*
X13142623Y-8093317D01*
X10280393Y-12309793D02*
X10281359Y-12292689D01*
X16717103Y-13340877D02*
X16684221Y-13356768D01*
X12900471Y-7512621D02*
X12902578Y-7521325D01*
D11*
X10535470Y-15011851D02*
X10535470Y-14811851D01*
X10535470Y-14811851D02*
X10583089Y-14811851D01*
X10583089Y-14811851D02*
X10611660Y-14821374D01*
X10611660Y-14821374D02*
X10630708Y-14840422D01*
X10630708Y-14840422D02*
X10640232Y-14859470D01*
X10640232Y-14859470D02*
X10649755Y-14897565D01*
X10649755Y-14897565D02*
X10649755Y-14926136D01*
X10649755Y-14926136D02*
X10640232Y-14964231D01*
X10640232Y-14964231D02*
X10630708Y-14983279D01*
X10630708Y-14983279D02*
X10611660Y-15002327D01*
X10611660Y-15002327D02*
X10583089Y-15011851D01*
X10583089Y-15011851D02*
X10535470Y-15011851D01*
X10735470Y-15011851D02*
X10735470Y-14878517D01*
X10735470Y-14916612D02*
X10744993Y-14897565D01*
X10744993Y-14897565D02*
X10754517Y-14888041D01*
X10754517Y-14888041D02*
X10773565Y-14878517D01*
X10773565Y-14878517D02*
X10792613Y-14878517D01*
X10859279Y-15011851D02*
X10859279Y-14878517D01*
X10859279Y-14811851D02*
X10849755Y-14821374D01*
X10849755Y-14821374D02*
X10859279Y-14830898D01*
X10859279Y-14830898D02*
X10868803Y-14821374D01*
X10868803Y-14821374D02*
X10859279Y-14811851D01*
X10859279Y-14811851D02*
X10859279Y-14830898D01*
X10983089Y-15011851D02*
X10964041Y-15002327D01*
X10964041Y-15002327D02*
X10954517Y-14983279D01*
X10954517Y-14983279D02*
X10954517Y-14811851D01*
X11087851Y-15011851D02*
X11068803Y-15002327D01*
X11068803Y-15002327D02*
X11059279Y-14983279D01*
X11059279Y-14983279D02*
X11059279Y-14811851D01*
X11316422Y-15011851D02*
X11316422Y-14811851D01*
X11316422Y-14811851D02*
X11383089Y-14954708D01*
X11383089Y-14954708D02*
X11449755Y-14811851D01*
X11449755Y-14811851D02*
X11449755Y-15011851D01*
X11630708Y-15011851D02*
X11630708Y-14907089D01*
X11630708Y-14907089D02*
X11621184Y-14888041D01*
X11621184Y-14888041D02*
X11602136Y-14878517D01*
X11602136Y-14878517D02*
X11564041Y-14878517D01*
X11564041Y-14878517D02*
X11544993Y-14888041D01*
X11630708Y-15002327D02*
X11611660Y-15011851D01*
X11611660Y-15011851D02*
X11564041Y-15011851D01*
X11564041Y-15011851D02*
X11544993Y-15002327D01*
X11544993Y-15002327D02*
X11535470Y-14983279D01*
X11535470Y-14983279D02*
X11535470Y-14964231D01*
X11535470Y-14964231D02*
X11544993Y-14945184D01*
X11544993Y-14945184D02*
X11564041Y-14935660D01*
X11564041Y-14935660D02*
X11611660Y-14935660D01*
X11611660Y-14935660D02*
X11630708Y-14926136D01*
X11725946Y-14878517D02*
X11725946Y-15078517D01*
X11725946Y-14888041D02*
X11744993Y-14878517D01*
X11744993Y-14878517D02*
X11783089Y-14878517D01*
X11783089Y-14878517D02*
X11802136Y-14888041D01*
X11802136Y-14888041D02*
X11811660Y-14897565D01*
X11811660Y-14897565D02*
X11821184Y-14916612D01*
X11821184Y-14916612D02*
X11821184Y-14973755D01*
X11821184Y-14973755D02*
X11811660Y-14992803D01*
X11811660Y-14992803D02*
X11802136Y-15002327D01*
X11802136Y-15002327D02*
X11783089Y-15011851D01*
X11783089Y-15011851D02*
X11744993Y-15011851D01*
X11744993Y-15011851D02*
X11725946Y-15002327D01*
X11906898Y-14992803D02*
X11916422Y-15002327D01*
X11916422Y-15002327D02*
X11906898Y-15011851D01*
X11906898Y-15011851D02*
X11897374Y-15002327D01*
X11897374Y-15002327D02*
X11906898Y-14992803D01*
X11906898Y-14992803D02*
X11906898Y-15011851D01*
X11906898Y-14888041D02*
X11916422Y-14897565D01*
X11916422Y-14897565D02*
X11906898Y-14907089D01*
X11906898Y-14907089D02*
X11897374Y-14897565D01*
X11897374Y-14897565D02*
X11906898Y-14888041D01*
X11906898Y-14888041D02*
X11906898Y-14907089D01*
M02*
