%TF.GenerationSoftware,KiCad,Pcbnew,7.0.7*%
%TF.CreationDate,2023-10-21T18:00:54-07:00*%
%TF.ProjectId,DC32_Cnet_Badge_SAO,44433332-5f43-46e6-9574-5f4261646765,rev?*%
%TF.SameCoordinates,Original*%
%TF.FileFunction,Legend,Bot*%
%TF.FilePolarity,Positive*%
%FSLAX46Y46*%
G04 Gerber Fmt 4.6, Leading zero omitted, Abs format (unit mm)*
G04 Created by KiCad (PCBNEW 7.0.7) date 2023-10-21 18:00:54*
%MOMM*%
%LPD*%
G01*
G04 APERTURE LIST*
%ADD10C,0.150000*%
%ADD11C,0.120000*%
%ADD12C,0.100000*%
G04 APERTURE END LIST*
D10*
X171333333Y-93474819D02*
X171333333Y-94189104D01*
X171333333Y-94189104D02*
X171380952Y-94331961D01*
X171380952Y-94331961D02*
X171476190Y-94427200D01*
X171476190Y-94427200D02*
X171619047Y-94474819D01*
X171619047Y-94474819D02*
X171714285Y-94474819D01*
X170904761Y-93570057D02*
X170857142Y-93522438D01*
X170857142Y-93522438D02*
X170761904Y-93474819D01*
X170761904Y-93474819D02*
X170523809Y-93474819D01*
X170523809Y-93474819D02*
X170428571Y-93522438D01*
X170428571Y-93522438D02*
X170380952Y-93570057D01*
X170380952Y-93570057D02*
X170333333Y-93665295D01*
X170333333Y-93665295D02*
X170333333Y-93760533D01*
X170333333Y-93760533D02*
X170380952Y-93903390D01*
X170380952Y-93903390D02*
X170952380Y-94474819D01*
X170952380Y-94474819D02*
X170333333Y-94474819D01*
X171333333Y-74454819D02*
X171333333Y-75169104D01*
X171333333Y-75169104D02*
X171380952Y-75311961D01*
X171380952Y-75311961D02*
X171476190Y-75407200D01*
X171476190Y-75407200D02*
X171619047Y-75454819D01*
X171619047Y-75454819D02*
X171714285Y-75454819D01*
X170333333Y-75454819D02*
X170904761Y-75454819D01*
X170619047Y-75454819D02*
X170619047Y-74454819D01*
X170619047Y-74454819D02*
X170714285Y-74597676D01*
X170714285Y-74597676D02*
X170809523Y-74692914D01*
X170809523Y-74692914D02*
X170904761Y-74740533D01*
D11*
%TO.C,J2*%
X162145000Y-91420000D02*
X169885000Y-91420000D01*
D12*
X162145000Y-91420000D02*
X162145000Y-96620000D01*
D11*
X169885000Y-91420000D02*
X169885000Y-96620000D01*
D12*
X162145000Y-96620000D02*
X164645000Y-96620000D01*
X169885000Y-96620000D02*
X167385000Y-96620000D01*
D11*
%TO.C,J1*%
X169855000Y-77330000D02*
X162115000Y-77330000D01*
D12*
X169855000Y-77330000D02*
X169855000Y-72130000D01*
D11*
X162115000Y-77330000D02*
X162115000Y-72130000D01*
D12*
X169855000Y-72130000D02*
X167355000Y-72130000D01*
X162115000Y-72130000D02*
X164615000Y-72130000D01*
%TD*%
M02*
