%TF.GenerationSoftware,KiCad,Pcbnew,7.0.7*%
%TF.CreationDate,2023-10-21T18:00:49-07:00*%
%TF.ProjectId,DC32_Cnet_Badge_SAO,44433332-5f43-46e6-9574-5f4261646765,rev?*%
%TF.SameCoordinates,Original*%
%TF.FileFunction,Drillmap*%
%TF.FilePolarity,Positive*%
%FSLAX45Y45*%
G04 Gerber Fmt 4.5, Leading zero omitted, Abs format (unit mm)*
G04 Created by KiCad (PCBNEW 7.0.7) date 2023-10-21 18:00:49*
%MOMM*%
%LPD*%
G01*
G04 APERTURE LIST*
%ADD10C,0.100000*%
%ADD11C,0.200000*%
G04 APERTURE END LIST*
D10*
X14000000Y-6900000D02*
X17200000Y-6900000D01*
X17200000Y-8000000D01*
X14000000Y-8000000D01*
X14000000Y-6900000D01*
X14000000Y-8900000D02*
X17200000Y-8900000D01*
X17200000Y-10000000D01*
X14000000Y-10000000D01*
X14000000Y-8900000D01*
D11*
D10*
X16294500Y-7296000D02*
X16394500Y-7396000D01*
X16394500Y-7296000D02*
X16294500Y-7396000D01*
X16294500Y-7550000D02*
X16394500Y-7650000D01*
X16394500Y-7550000D02*
X16294500Y-7650000D01*
X16297500Y-9225000D02*
X16397500Y-9325000D01*
X16397500Y-9225000D02*
X16297500Y-9325000D01*
X16297500Y-9479000D02*
X16397500Y-9579000D01*
X16397500Y-9479000D02*
X16297500Y-9579000D01*
X16548500Y-7296000D02*
X16648500Y-7396000D01*
X16648500Y-7296000D02*
X16548500Y-7396000D01*
X16548500Y-7550000D02*
X16648500Y-7650000D01*
X16648500Y-7550000D02*
X16548500Y-7650000D01*
X16551500Y-9225000D02*
X16651500Y-9325000D01*
X16651500Y-9225000D02*
X16551500Y-9325000D01*
X16551500Y-9479000D02*
X16651500Y-9579000D01*
X16651500Y-9479000D02*
X16551500Y-9579000D01*
X16802500Y-7296000D02*
X16902500Y-7396000D01*
X16902500Y-7296000D02*
X16802500Y-7396000D01*
X16802500Y-7550000D02*
X16902500Y-7650000D01*
X16902500Y-7550000D02*
X16802500Y-7650000D01*
X16805500Y-9225000D02*
X16905500Y-9325000D01*
X16905500Y-9225000D02*
X16805500Y-9325000D01*
X16805500Y-9479000D02*
X16905500Y-9579000D01*
X16905500Y-9479000D02*
X16805500Y-9579000D01*
D11*
X14255777Y-10316484D02*
X14255777Y-10116484D01*
X14255777Y-10116484D02*
X14303396Y-10116484D01*
X14303396Y-10116484D02*
X14331967Y-10126008D01*
X14331967Y-10126008D02*
X14351015Y-10145055D01*
X14351015Y-10145055D02*
X14360539Y-10164103D01*
X14360539Y-10164103D02*
X14370062Y-10202198D01*
X14370062Y-10202198D02*
X14370062Y-10230770D01*
X14370062Y-10230770D02*
X14360539Y-10268865D01*
X14360539Y-10268865D02*
X14351015Y-10287912D01*
X14351015Y-10287912D02*
X14331967Y-10306960D01*
X14331967Y-10306960D02*
X14303396Y-10316484D01*
X14303396Y-10316484D02*
X14255777Y-10316484D01*
X14455777Y-10316484D02*
X14455777Y-10183150D01*
X14455777Y-10221246D02*
X14465301Y-10202198D01*
X14465301Y-10202198D02*
X14474824Y-10192674D01*
X14474824Y-10192674D02*
X14493872Y-10183150D01*
X14493872Y-10183150D02*
X14512920Y-10183150D01*
X14579586Y-10316484D02*
X14579586Y-10183150D01*
X14579586Y-10116484D02*
X14570062Y-10126008D01*
X14570062Y-10126008D02*
X14579586Y-10135531D01*
X14579586Y-10135531D02*
X14589110Y-10126008D01*
X14589110Y-10126008D02*
X14579586Y-10116484D01*
X14579586Y-10116484D02*
X14579586Y-10135531D01*
X14703396Y-10316484D02*
X14684348Y-10306960D01*
X14684348Y-10306960D02*
X14674824Y-10287912D01*
X14674824Y-10287912D02*
X14674824Y-10116484D01*
X14808158Y-10316484D02*
X14789110Y-10306960D01*
X14789110Y-10306960D02*
X14779586Y-10287912D01*
X14779586Y-10287912D02*
X14779586Y-10116484D01*
X15036729Y-10316484D02*
X15036729Y-10116484D01*
X15036729Y-10116484D02*
X15103396Y-10259341D01*
X15103396Y-10259341D02*
X15170062Y-10116484D01*
X15170062Y-10116484D02*
X15170062Y-10316484D01*
X15351015Y-10316484D02*
X15351015Y-10211722D01*
X15351015Y-10211722D02*
X15341491Y-10192674D01*
X15341491Y-10192674D02*
X15322443Y-10183150D01*
X15322443Y-10183150D02*
X15284348Y-10183150D01*
X15284348Y-10183150D02*
X15265301Y-10192674D01*
X15351015Y-10306960D02*
X15331967Y-10316484D01*
X15331967Y-10316484D02*
X15284348Y-10316484D01*
X15284348Y-10316484D02*
X15265301Y-10306960D01*
X15265301Y-10306960D02*
X15255777Y-10287912D01*
X15255777Y-10287912D02*
X15255777Y-10268865D01*
X15255777Y-10268865D02*
X15265301Y-10249817D01*
X15265301Y-10249817D02*
X15284348Y-10240293D01*
X15284348Y-10240293D02*
X15331967Y-10240293D01*
X15331967Y-10240293D02*
X15351015Y-10230770D01*
X15446253Y-10183150D02*
X15446253Y-10383150D01*
X15446253Y-10192674D02*
X15465301Y-10183150D01*
X15465301Y-10183150D02*
X15503396Y-10183150D01*
X15503396Y-10183150D02*
X15522443Y-10192674D01*
X15522443Y-10192674D02*
X15531967Y-10202198D01*
X15531967Y-10202198D02*
X15541491Y-10221246D01*
X15541491Y-10221246D02*
X15541491Y-10278389D01*
X15541491Y-10278389D02*
X15531967Y-10297436D01*
X15531967Y-10297436D02*
X15522443Y-10306960D01*
X15522443Y-10306960D02*
X15503396Y-10316484D01*
X15503396Y-10316484D02*
X15465301Y-10316484D01*
X15465301Y-10316484D02*
X15446253Y-10306960D01*
X15627205Y-10297436D02*
X15636729Y-10306960D01*
X15636729Y-10306960D02*
X15627205Y-10316484D01*
X15627205Y-10316484D02*
X15617682Y-10306960D01*
X15617682Y-10306960D02*
X15627205Y-10297436D01*
X15627205Y-10297436D02*
X15627205Y-10316484D01*
X15627205Y-10192674D02*
X15636729Y-10202198D01*
X15636729Y-10202198D02*
X15627205Y-10211722D01*
X15627205Y-10211722D02*
X15617682Y-10202198D01*
X15617682Y-10202198D02*
X15627205Y-10192674D01*
X15627205Y-10192674D02*
X15627205Y-10211722D01*
D10*
X13895000Y-10595000D02*
X13995000Y-10695000D01*
X13995000Y-10595000D02*
X13895000Y-10695000D01*
D11*
X14360539Y-10736484D02*
X14246253Y-10736484D01*
X14303396Y-10736484D02*
X14303396Y-10536484D01*
X14303396Y-10536484D02*
X14284348Y-10565055D01*
X14284348Y-10565055D02*
X14265301Y-10584103D01*
X14265301Y-10584103D02*
X14246253Y-10593627D01*
X14446253Y-10717436D02*
X14455777Y-10726960D01*
X14455777Y-10726960D02*
X14446253Y-10736484D01*
X14446253Y-10736484D02*
X14436729Y-10726960D01*
X14436729Y-10726960D02*
X14446253Y-10717436D01*
X14446253Y-10717436D02*
X14446253Y-10736484D01*
X14579586Y-10536484D02*
X14598634Y-10536484D01*
X14598634Y-10536484D02*
X14617682Y-10546008D01*
X14617682Y-10546008D02*
X14627205Y-10555531D01*
X14627205Y-10555531D02*
X14636729Y-10574579D01*
X14636729Y-10574579D02*
X14646253Y-10612674D01*
X14646253Y-10612674D02*
X14646253Y-10660293D01*
X14646253Y-10660293D02*
X14636729Y-10698389D01*
X14636729Y-10698389D02*
X14627205Y-10717436D01*
X14627205Y-10717436D02*
X14617682Y-10726960D01*
X14617682Y-10726960D02*
X14598634Y-10736484D01*
X14598634Y-10736484D02*
X14579586Y-10736484D01*
X14579586Y-10736484D02*
X14560539Y-10726960D01*
X14560539Y-10726960D02*
X14551015Y-10717436D01*
X14551015Y-10717436D02*
X14541491Y-10698389D01*
X14541491Y-10698389D02*
X14531967Y-10660293D01*
X14531967Y-10660293D02*
X14531967Y-10612674D01*
X14531967Y-10612674D02*
X14541491Y-10574579D01*
X14541491Y-10574579D02*
X14551015Y-10555531D01*
X14551015Y-10555531D02*
X14560539Y-10546008D01*
X14560539Y-10546008D02*
X14579586Y-10536484D01*
X14770062Y-10536484D02*
X14789110Y-10536484D01*
X14789110Y-10536484D02*
X14808158Y-10546008D01*
X14808158Y-10546008D02*
X14817682Y-10555531D01*
X14817682Y-10555531D02*
X14827205Y-10574579D01*
X14827205Y-10574579D02*
X14836729Y-10612674D01*
X14836729Y-10612674D02*
X14836729Y-10660293D01*
X14836729Y-10660293D02*
X14827205Y-10698389D01*
X14827205Y-10698389D02*
X14817682Y-10717436D01*
X14817682Y-10717436D02*
X14808158Y-10726960D01*
X14808158Y-10726960D02*
X14789110Y-10736484D01*
X14789110Y-10736484D02*
X14770062Y-10736484D01*
X14770062Y-10736484D02*
X14751015Y-10726960D01*
X14751015Y-10726960D02*
X14741491Y-10717436D01*
X14741491Y-10717436D02*
X14731967Y-10698389D01*
X14731967Y-10698389D02*
X14722443Y-10660293D01*
X14722443Y-10660293D02*
X14722443Y-10612674D01*
X14722443Y-10612674D02*
X14731967Y-10574579D01*
X14731967Y-10574579D02*
X14741491Y-10555531D01*
X14741491Y-10555531D02*
X14751015Y-10546008D01*
X14751015Y-10546008D02*
X14770062Y-10536484D01*
X14960539Y-10536484D02*
X14979586Y-10536484D01*
X14979586Y-10536484D02*
X14998634Y-10546008D01*
X14998634Y-10546008D02*
X15008158Y-10555531D01*
X15008158Y-10555531D02*
X15017682Y-10574579D01*
X15017682Y-10574579D02*
X15027205Y-10612674D01*
X15027205Y-10612674D02*
X15027205Y-10660293D01*
X15027205Y-10660293D02*
X15017682Y-10698389D01*
X15017682Y-10698389D02*
X15008158Y-10717436D01*
X15008158Y-10717436D02*
X14998634Y-10726960D01*
X14998634Y-10726960D02*
X14979586Y-10736484D01*
X14979586Y-10736484D02*
X14960539Y-10736484D01*
X14960539Y-10736484D02*
X14941491Y-10726960D01*
X14941491Y-10726960D02*
X14931967Y-10717436D01*
X14931967Y-10717436D02*
X14922443Y-10698389D01*
X14922443Y-10698389D02*
X14912920Y-10660293D01*
X14912920Y-10660293D02*
X14912920Y-10612674D01*
X14912920Y-10612674D02*
X14922443Y-10574579D01*
X14922443Y-10574579D02*
X14931967Y-10555531D01*
X14931967Y-10555531D02*
X14941491Y-10546008D01*
X14941491Y-10546008D02*
X14960539Y-10536484D01*
X15112920Y-10736484D02*
X15112920Y-10603150D01*
X15112920Y-10622198D02*
X15122443Y-10612674D01*
X15122443Y-10612674D02*
X15141491Y-10603150D01*
X15141491Y-10603150D02*
X15170063Y-10603150D01*
X15170063Y-10603150D02*
X15189110Y-10612674D01*
X15189110Y-10612674D02*
X15198634Y-10631722D01*
X15198634Y-10631722D02*
X15198634Y-10736484D01*
X15198634Y-10631722D02*
X15208158Y-10612674D01*
X15208158Y-10612674D02*
X15227205Y-10603150D01*
X15227205Y-10603150D02*
X15255777Y-10603150D01*
X15255777Y-10603150D02*
X15274824Y-10612674D01*
X15274824Y-10612674D02*
X15284348Y-10631722D01*
X15284348Y-10631722D02*
X15284348Y-10736484D01*
X15379586Y-10736484D02*
X15379586Y-10603150D01*
X15379586Y-10622198D02*
X15389110Y-10612674D01*
X15389110Y-10612674D02*
X15408158Y-10603150D01*
X15408158Y-10603150D02*
X15436729Y-10603150D01*
X15436729Y-10603150D02*
X15455777Y-10612674D01*
X15455777Y-10612674D02*
X15465301Y-10631722D01*
X15465301Y-10631722D02*
X15465301Y-10736484D01*
X15465301Y-10631722D02*
X15474824Y-10612674D01*
X15474824Y-10612674D02*
X15493872Y-10603150D01*
X15493872Y-10603150D02*
X15522443Y-10603150D01*
X15522443Y-10603150D02*
X15541491Y-10612674D01*
X15541491Y-10612674D02*
X15551015Y-10631722D01*
X15551015Y-10631722D02*
X15551015Y-10736484D01*
X15941491Y-10526960D02*
X15770063Y-10784103D01*
X16198634Y-10536484D02*
X16217682Y-10536484D01*
X16217682Y-10536484D02*
X16236729Y-10546008D01*
X16236729Y-10546008D02*
X16246253Y-10555531D01*
X16246253Y-10555531D02*
X16255777Y-10574579D01*
X16255777Y-10574579D02*
X16265301Y-10612674D01*
X16265301Y-10612674D02*
X16265301Y-10660293D01*
X16265301Y-10660293D02*
X16255777Y-10698389D01*
X16255777Y-10698389D02*
X16246253Y-10717436D01*
X16246253Y-10717436D02*
X16236729Y-10726960D01*
X16236729Y-10726960D02*
X16217682Y-10736484D01*
X16217682Y-10736484D02*
X16198634Y-10736484D01*
X16198634Y-10736484D02*
X16179586Y-10726960D01*
X16179586Y-10726960D02*
X16170063Y-10717436D01*
X16170063Y-10717436D02*
X16160539Y-10698389D01*
X16160539Y-10698389D02*
X16151015Y-10660293D01*
X16151015Y-10660293D02*
X16151015Y-10612674D01*
X16151015Y-10612674D02*
X16160539Y-10574579D01*
X16160539Y-10574579D02*
X16170063Y-10555531D01*
X16170063Y-10555531D02*
X16179586Y-10546008D01*
X16179586Y-10546008D02*
X16198634Y-10536484D01*
X16351015Y-10717436D02*
X16360539Y-10726960D01*
X16360539Y-10726960D02*
X16351015Y-10736484D01*
X16351015Y-10736484D02*
X16341491Y-10726960D01*
X16341491Y-10726960D02*
X16351015Y-10717436D01*
X16351015Y-10717436D02*
X16351015Y-10736484D01*
X16484348Y-10536484D02*
X16503396Y-10536484D01*
X16503396Y-10536484D02*
X16522444Y-10546008D01*
X16522444Y-10546008D02*
X16531967Y-10555531D01*
X16531967Y-10555531D02*
X16541491Y-10574579D01*
X16541491Y-10574579D02*
X16551015Y-10612674D01*
X16551015Y-10612674D02*
X16551015Y-10660293D01*
X16551015Y-10660293D02*
X16541491Y-10698389D01*
X16541491Y-10698389D02*
X16531967Y-10717436D01*
X16531967Y-10717436D02*
X16522444Y-10726960D01*
X16522444Y-10726960D02*
X16503396Y-10736484D01*
X16503396Y-10736484D02*
X16484348Y-10736484D01*
X16484348Y-10736484D02*
X16465301Y-10726960D01*
X16465301Y-10726960D02*
X16455777Y-10717436D01*
X16455777Y-10717436D02*
X16446253Y-10698389D01*
X16446253Y-10698389D02*
X16436729Y-10660293D01*
X16436729Y-10660293D02*
X16436729Y-10612674D01*
X16436729Y-10612674D02*
X16446253Y-10574579D01*
X16446253Y-10574579D02*
X16455777Y-10555531D01*
X16455777Y-10555531D02*
X16465301Y-10546008D01*
X16465301Y-10546008D02*
X16484348Y-10536484D01*
X16617682Y-10536484D02*
X16741491Y-10536484D01*
X16741491Y-10536484D02*
X16674825Y-10612674D01*
X16674825Y-10612674D02*
X16703396Y-10612674D01*
X16703396Y-10612674D02*
X16722444Y-10622198D01*
X16722444Y-10622198D02*
X16731967Y-10631722D01*
X16731967Y-10631722D02*
X16741491Y-10650770D01*
X16741491Y-10650770D02*
X16741491Y-10698389D01*
X16741491Y-10698389D02*
X16731967Y-10717436D01*
X16731967Y-10717436D02*
X16722444Y-10726960D01*
X16722444Y-10726960D02*
X16703396Y-10736484D01*
X16703396Y-10736484D02*
X16646253Y-10736484D01*
X16646253Y-10736484D02*
X16627206Y-10726960D01*
X16627206Y-10726960D02*
X16617682Y-10717436D01*
X16836729Y-10736484D02*
X16874825Y-10736484D01*
X16874825Y-10736484D02*
X16893872Y-10726960D01*
X16893872Y-10726960D02*
X16903396Y-10717436D01*
X16903396Y-10717436D02*
X16922444Y-10688865D01*
X16922444Y-10688865D02*
X16931968Y-10650770D01*
X16931968Y-10650770D02*
X16931968Y-10574579D01*
X16931968Y-10574579D02*
X16922444Y-10555531D01*
X16922444Y-10555531D02*
X16912920Y-10546008D01*
X16912920Y-10546008D02*
X16893872Y-10536484D01*
X16893872Y-10536484D02*
X16855777Y-10536484D01*
X16855777Y-10536484D02*
X16836729Y-10546008D01*
X16836729Y-10546008D02*
X16827206Y-10555531D01*
X16827206Y-10555531D02*
X16817682Y-10574579D01*
X16817682Y-10574579D02*
X16817682Y-10622198D01*
X16817682Y-10622198D02*
X16827206Y-10641246D01*
X16827206Y-10641246D02*
X16836729Y-10650770D01*
X16836729Y-10650770D02*
X16855777Y-10660293D01*
X16855777Y-10660293D02*
X16893872Y-10660293D01*
X16893872Y-10660293D02*
X16912920Y-10650770D01*
X16912920Y-10650770D02*
X16922444Y-10641246D01*
X16922444Y-10641246D02*
X16931968Y-10622198D01*
X17103396Y-10603150D02*
X17103396Y-10736484D01*
X17055777Y-10526960D02*
X17008158Y-10669817D01*
X17008158Y-10669817D02*
X17131968Y-10669817D01*
X17198634Y-10536484D02*
X17198634Y-10574579D01*
X17274825Y-10536484D02*
X17274825Y-10574579D01*
X17570063Y-10812674D02*
X17560539Y-10803150D01*
X17560539Y-10803150D02*
X17541491Y-10774579D01*
X17541491Y-10774579D02*
X17531968Y-10755531D01*
X17531968Y-10755531D02*
X17522444Y-10726960D01*
X17522444Y-10726960D02*
X17512920Y-10679341D01*
X17512920Y-10679341D02*
X17512920Y-10641246D01*
X17512920Y-10641246D02*
X17522444Y-10593627D01*
X17522444Y-10593627D02*
X17531968Y-10565055D01*
X17531968Y-10565055D02*
X17541491Y-10546008D01*
X17541491Y-10546008D02*
X17560539Y-10517436D01*
X17560539Y-10517436D02*
X17570063Y-10507912D01*
X17751015Y-10736484D02*
X17636730Y-10736484D01*
X17693872Y-10736484D02*
X17693872Y-10536484D01*
X17693872Y-10536484D02*
X17674825Y-10565055D01*
X17674825Y-10565055D02*
X17655777Y-10584103D01*
X17655777Y-10584103D02*
X17636730Y-10593627D01*
X17827206Y-10555531D02*
X17836730Y-10546008D01*
X17836730Y-10546008D02*
X17855777Y-10536484D01*
X17855777Y-10536484D02*
X17903396Y-10536484D01*
X17903396Y-10536484D02*
X17922444Y-10546008D01*
X17922444Y-10546008D02*
X17931968Y-10555531D01*
X17931968Y-10555531D02*
X17941491Y-10574579D01*
X17941491Y-10574579D02*
X17941491Y-10593627D01*
X17941491Y-10593627D02*
X17931968Y-10622198D01*
X17931968Y-10622198D02*
X17817682Y-10736484D01*
X17817682Y-10736484D02*
X17941491Y-10736484D01*
X18179587Y-10736484D02*
X18179587Y-10536484D01*
X18265301Y-10736484D02*
X18265301Y-10631722D01*
X18265301Y-10631722D02*
X18255777Y-10612674D01*
X18255777Y-10612674D02*
X18236730Y-10603150D01*
X18236730Y-10603150D02*
X18208158Y-10603150D01*
X18208158Y-10603150D02*
X18189111Y-10612674D01*
X18189111Y-10612674D02*
X18179587Y-10622198D01*
X18389111Y-10736484D02*
X18370063Y-10726960D01*
X18370063Y-10726960D02*
X18360539Y-10717436D01*
X18360539Y-10717436D02*
X18351015Y-10698389D01*
X18351015Y-10698389D02*
X18351015Y-10641246D01*
X18351015Y-10641246D02*
X18360539Y-10622198D01*
X18360539Y-10622198D02*
X18370063Y-10612674D01*
X18370063Y-10612674D02*
X18389111Y-10603150D01*
X18389111Y-10603150D02*
X18417682Y-10603150D01*
X18417682Y-10603150D02*
X18436730Y-10612674D01*
X18436730Y-10612674D02*
X18446253Y-10622198D01*
X18446253Y-10622198D02*
X18455777Y-10641246D01*
X18455777Y-10641246D02*
X18455777Y-10698389D01*
X18455777Y-10698389D02*
X18446253Y-10717436D01*
X18446253Y-10717436D02*
X18436730Y-10726960D01*
X18436730Y-10726960D02*
X18417682Y-10736484D01*
X18417682Y-10736484D02*
X18389111Y-10736484D01*
X18570063Y-10736484D02*
X18551015Y-10726960D01*
X18551015Y-10726960D02*
X18541492Y-10707912D01*
X18541492Y-10707912D02*
X18541492Y-10536484D01*
X18722444Y-10726960D02*
X18703396Y-10736484D01*
X18703396Y-10736484D02*
X18665301Y-10736484D01*
X18665301Y-10736484D02*
X18646253Y-10726960D01*
X18646253Y-10726960D02*
X18636730Y-10707912D01*
X18636730Y-10707912D02*
X18636730Y-10631722D01*
X18636730Y-10631722D02*
X18646253Y-10612674D01*
X18646253Y-10612674D02*
X18665301Y-10603150D01*
X18665301Y-10603150D02*
X18703396Y-10603150D01*
X18703396Y-10603150D02*
X18722444Y-10612674D01*
X18722444Y-10612674D02*
X18731968Y-10631722D01*
X18731968Y-10631722D02*
X18731968Y-10650770D01*
X18731968Y-10650770D02*
X18636730Y-10669817D01*
X18808158Y-10726960D02*
X18827206Y-10736484D01*
X18827206Y-10736484D02*
X18865301Y-10736484D01*
X18865301Y-10736484D02*
X18884349Y-10726960D01*
X18884349Y-10726960D02*
X18893873Y-10707912D01*
X18893873Y-10707912D02*
X18893873Y-10698389D01*
X18893873Y-10698389D02*
X18884349Y-10679341D01*
X18884349Y-10679341D02*
X18865301Y-10669817D01*
X18865301Y-10669817D02*
X18836730Y-10669817D01*
X18836730Y-10669817D02*
X18817682Y-10660293D01*
X18817682Y-10660293D02*
X18808158Y-10641246D01*
X18808158Y-10641246D02*
X18808158Y-10631722D01*
X18808158Y-10631722D02*
X18817682Y-10612674D01*
X18817682Y-10612674D02*
X18836730Y-10603150D01*
X18836730Y-10603150D02*
X18865301Y-10603150D01*
X18865301Y-10603150D02*
X18884349Y-10612674D01*
X18960539Y-10812674D02*
X18970063Y-10803150D01*
X18970063Y-10803150D02*
X18989111Y-10774579D01*
X18989111Y-10774579D02*
X18998634Y-10755531D01*
X18998634Y-10755531D02*
X19008158Y-10726960D01*
X19008158Y-10726960D02*
X19017682Y-10679341D01*
X19017682Y-10679341D02*
X19017682Y-10641246D01*
X19017682Y-10641246D02*
X19008158Y-10593627D01*
X19008158Y-10593627D02*
X18998634Y-10565055D01*
X18998634Y-10565055D02*
X18989111Y-10546008D01*
X18989111Y-10546008D02*
X18970063Y-10517436D01*
X18970063Y-10517436D02*
X18960539Y-10507912D01*
M02*
