%TF.GenerationSoftware,KiCad,Pcbnew,7.0.7*%
%TF.CreationDate,2023-10-21T18:00:49-07:00*%
%TF.ProjectId,DC32_Cnet_Badge_SAO,44433332-5f43-46e6-9574-5f4261646765,rev?*%
%TF.SameCoordinates,Original*%
%TF.FileFunction,Drillmap*%
%TF.FilePolarity,Positive*%
%FSLAX45Y45*%
G04 Gerber Fmt 4.5, Leading zero omitted, Abs format (unit mm)*
G04 Created by KiCad (PCBNEW 7.0.7) date 2023-10-21 18:00:49*
%MOMM*%
%LPD*%
G01*
G04 APERTURE LIST*
%ADD10C,0.100000*%
%ADD11C,0.200000*%
G04 APERTURE END LIST*
D10*
X14000000Y-6900000D02*
X17200000Y-6900000D01*
X17200000Y-8000000D01*
X14000000Y-8000000D01*
X14000000Y-6900000D01*
X14000000Y-8900000D02*
X17200000Y-8900000D01*
X17200000Y-10000000D01*
X14000000Y-10000000D01*
X14000000Y-8900000D01*
D11*
X14255777Y-10316484D02*
X14255777Y-10116484D01*
X14255777Y-10116484D02*
X14303396Y-10116484D01*
X14303396Y-10116484D02*
X14331967Y-10126008D01*
X14331967Y-10126008D02*
X14351015Y-10145055D01*
X14351015Y-10145055D02*
X14360539Y-10164103D01*
X14360539Y-10164103D02*
X14370062Y-10202198D01*
X14370062Y-10202198D02*
X14370062Y-10230770D01*
X14370062Y-10230770D02*
X14360539Y-10268865D01*
X14360539Y-10268865D02*
X14351015Y-10287912D01*
X14351015Y-10287912D02*
X14331967Y-10306960D01*
X14331967Y-10306960D02*
X14303396Y-10316484D01*
X14303396Y-10316484D02*
X14255777Y-10316484D01*
X14455777Y-10316484D02*
X14455777Y-10183150D01*
X14455777Y-10221246D02*
X14465301Y-10202198D01*
X14465301Y-10202198D02*
X14474824Y-10192674D01*
X14474824Y-10192674D02*
X14493872Y-10183150D01*
X14493872Y-10183150D02*
X14512920Y-10183150D01*
X14579586Y-10316484D02*
X14579586Y-10183150D01*
X14579586Y-10116484D02*
X14570062Y-10126008D01*
X14570062Y-10126008D02*
X14579586Y-10135531D01*
X14579586Y-10135531D02*
X14589110Y-10126008D01*
X14589110Y-10126008D02*
X14579586Y-10116484D01*
X14579586Y-10116484D02*
X14579586Y-10135531D01*
X14703396Y-10316484D02*
X14684348Y-10306960D01*
X14684348Y-10306960D02*
X14674824Y-10287912D01*
X14674824Y-10287912D02*
X14674824Y-10116484D01*
X14808158Y-10316484D02*
X14789110Y-10306960D01*
X14789110Y-10306960D02*
X14779586Y-10287912D01*
X14779586Y-10287912D02*
X14779586Y-10116484D01*
X15036729Y-10316484D02*
X15036729Y-10116484D01*
X15036729Y-10116484D02*
X15103396Y-10259341D01*
X15103396Y-10259341D02*
X15170062Y-10116484D01*
X15170062Y-10116484D02*
X15170062Y-10316484D01*
X15351015Y-10316484D02*
X15351015Y-10211722D01*
X15351015Y-10211722D02*
X15341491Y-10192674D01*
X15341491Y-10192674D02*
X15322443Y-10183150D01*
X15322443Y-10183150D02*
X15284348Y-10183150D01*
X15284348Y-10183150D02*
X15265301Y-10192674D01*
X15351015Y-10306960D02*
X15331967Y-10316484D01*
X15331967Y-10316484D02*
X15284348Y-10316484D01*
X15284348Y-10316484D02*
X15265301Y-10306960D01*
X15265301Y-10306960D02*
X15255777Y-10287912D01*
X15255777Y-10287912D02*
X15255777Y-10268865D01*
X15255777Y-10268865D02*
X15265301Y-10249817D01*
X15265301Y-10249817D02*
X15284348Y-10240293D01*
X15284348Y-10240293D02*
X15331967Y-10240293D01*
X15331967Y-10240293D02*
X15351015Y-10230770D01*
X15446253Y-10183150D02*
X15446253Y-10383150D01*
X15446253Y-10192674D02*
X15465301Y-10183150D01*
X15465301Y-10183150D02*
X15503396Y-10183150D01*
X15503396Y-10183150D02*
X15522443Y-10192674D01*
X15522443Y-10192674D02*
X15531967Y-10202198D01*
X15531967Y-10202198D02*
X15541491Y-10221246D01*
X15541491Y-10221246D02*
X15541491Y-10278389D01*
X15541491Y-10278389D02*
X15531967Y-10297436D01*
X15531967Y-10297436D02*
X15522443Y-10306960D01*
X15522443Y-10306960D02*
X15503396Y-10316484D01*
X15503396Y-10316484D02*
X15465301Y-10316484D01*
X15465301Y-10316484D02*
X15446253Y-10306960D01*
X15627205Y-10297436D02*
X15636729Y-10306960D01*
X15636729Y-10306960D02*
X15627205Y-10316484D01*
X15627205Y-10316484D02*
X15617682Y-10306960D01*
X15617682Y-10306960D02*
X15627205Y-10297436D01*
X15627205Y-10297436D02*
X15627205Y-10316484D01*
X15627205Y-10192674D02*
X15636729Y-10202198D01*
X15636729Y-10202198D02*
X15627205Y-10211722D01*
X15627205Y-10211722D02*
X15617682Y-10202198D01*
X15617682Y-10202198D02*
X15627205Y-10192674D01*
X15627205Y-10192674D02*
X15627205Y-10211722D01*
M02*
