%TF.GenerationSoftware,KiCad,Pcbnew,7.0.7*%
%TF.CreationDate,2023-10-21T18:00:54-07:00*%
%TF.ProjectId,DC32_Cnet_Badge_SAO,44433332-5f43-46e6-9574-5f4261646765,rev?*%
%TF.SameCoordinates,Original*%
%TF.FileFunction,Copper,L1,Top*%
%TF.FilePolarity,Positive*%
%FSLAX46Y46*%
G04 Gerber Fmt 4.6, Leading zero omitted, Abs format (unit mm)*
G04 Created by KiCad (PCBNEW 7.0.7) date 2023-10-21 18:00:54*
%MOMM*%
%LPD*%
G01*
G04 APERTURE LIST*
%TA.AperFunction,SMDPad,CuDef*%
%ADD10R,5.000000X1.500000*%
%TD*%
%TA.AperFunction,ComponentPad*%
%ADD11R,1.700000X1.700000*%
%TD*%
%TA.AperFunction,ComponentPad*%
%ADD12O,1.700000X1.700000*%
%TD*%
%TA.AperFunction,Conductor*%
%ADD13C,0.250000*%
%TD*%
G04 APERTURE END LIST*
D10*
%TO.P,U2,1,GND*%
%TO.N,RGT GND*%
X149540000Y-90500000D03*
%TO.P,U2,2,IN*%
%TO.N,Net-(J2-Pin_1)*%
X149540000Y-93250000D03*
%TO.P,U2,3,VCC*%
%TO.N,Net-(J2-Pin_5)*%
X149540000Y-96250000D03*
%TO.P,U2,4,GND*%
%TO.N,RGT GND*%
X149540000Y-99000000D03*
%TD*%
%TO.P,U1,4,GND*%
%TO.N,LFT GND*%
X149460000Y-79000000D03*
%TO.P,U1,3,VCC*%
%TO.N,Net-(J1-Pin_5)*%
X149460000Y-76250000D03*
%TO.P,U1,2,IN*%
%TO.N,Net-(J1-Pin_1)*%
X149460000Y-73250000D03*
%TO.P,U1,1,GND*%
%TO.N,LFT GND*%
X149460000Y-70500000D03*
%TD*%
D11*
%TO.P,J2,1,Pin_1*%
%TO.N,Net-(J2-Pin_1)*%
X163475000Y-95290000D03*
D12*
%TO.P,J2,2,Pin_2*%
%TO.N,unconnected-(J2-Pin_2-Pad2)*%
X163475000Y-92750000D03*
%TO.P,J2,3,Pin_3*%
%TO.N,unconnected-(J2-Pin_3-Pad3)*%
X166015000Y-95290000D03*
%TO.P,J2,4,Pin_4*%
%TO.N,unconnected-(J2-Pin_4-Pad4)*%
X166015000Y-92750000D03*
%TO.P,J2,5,Pin_5*%
%TO.N,Net-(J2-Pin_5)*%
X168555000Y-95290000D03*
%TO.P,J2,6,Pin_6*%
%TO.N,RGT GND*%
X168555000Y-92750000D03*
%TD*%
D11*
%TO.P,J1,1,Pin_1*%
%TO.N,Net-(J1-Pin_1)*%
X168525000Y-73460000D03*
D12*
%TO.P,J1,2,Pin_2*%
%TO.N,unconnected-(J1-Pin_2-Pad2)*%
X168525000Y-76000000D03*
%TO.P,J1,3,Pin_3*%
%TO.N,unconnected-(J1-Pin_3-Pad3)*%
X165985000Y-73460000D03*
%TO.P,J1,4,Pin_4*%
%TO.N,unconnected-(J1-Pin_4-Pad4)*%
X165985000Y-76000000D03*
%TO.P,J1,5,Pin_5*%
%TO.N,Net-(J1-Pin_5)*%
X163445000Y-73460000D03*
%TO.P,J1,6,Pin_6*%
%TO.N,LFT GND*%
X163445000Y-76000000D03*
%TD*%
D13*
%TO.N,Net-(J2-Pin_5)*%
X165845000Y-98000000D02*
X168555000Y-95290000D01*
X157250000Y-96250000D02*
X159000000Y-98000000D01*
X159000000Y-98000000D02*
X165845000Y-98000000D01*
X149540000Y-96250000D02*
X157250000Y-96250000D01*
%TO.N,Net-(J2-Pin_1)*%
X157250000Y-93250000D02*
X149540000Y-93250000D01*
X159290000Y-95290000D02*
X157250000Y-93250000D01*
X163475000Y-95290000D02*
X159290000Y-95290000D01*
%TO.N,Net-(J1-Pin_1)*%
X155750000Y-73250000D02*
X149460000Y-73250000D01*
X168000000Y-71000000D02*
X158000000Y-71000000D01*
X168525000Y-71525000D02*
X168000000Y-71000000D01*
X158000000Y-71000000D02*
X155750000Y-73250000D01*
X168525000Y-73460000D02*
X168525000Y-71525000D01*
%TO.N,Net-(J1-Pin_5)*%
X156750000Y-76250000D02*
X149460000Y-76250000D01*
X159540000Y-73460000D02*
X156750000Y-76250000D01*
X163445000Y-73460000D02*
X159540000Y-73460000D01*
%TD*%
%TA.AperFunction,Conductor*%
%TO.N,LFT GND*%
G36*
X171942539Y-69020185D02*
G01*
X171988294Y-69072989D01*
X171999500Y-69124500D01*
X171999500Y-79875500D01*
X171979815Y-79942539D01*
X171927011Y-79988294D01*
X171875500Y-79999500D01*
X152576364Y-79999500D01*
X152509325Y-79979815D01*
X152463570Y-79927011D01*
X152453075Y-79862244D01*
X152459999Y-79797844D01*
X152460000Y-79797827D01*
X152460000Y-79250000D01*
X146460000Y-79250000D01*
X146460000Y-79797844D01*
X146466925Y-79862244D01*
X146454520Y-79931004D01*
X146406910Y-79982141D01*
X146343636Y-79999500D01*
X140124500Y-79999500D01*
X140057461Y-79979815D01*
X140011706Y-79927011D01*
X140000500Y-79875500D01*
X140000500Y-78750000D01*
X146460000Y-78750000D01*
X149210000Y-78750000D01*
X149210000Y-77750000D01*
X149710000Y-77750000D01*
X149710000Y-78750000D01*
X152460000Y-78750000D01*
X152460000Y-78202172D01*
X152459999Y-78202155D01*
X152453598Y-78142627D01*
X152453596Y-78142620D01*
X152403354Y-78007913D01*
X152403350Y-78007906D01*
X152317190Y-77892812D01*
X152317187Y-77892809D01*
X152202093Y-77806649D01*
X152202086Y-77806645D01*
X152067379Y-77756403D01*
X152067372Y-77756401D01*
X152007844Y-77750000D01*
X149710000Y-77750000D01*
X149210000Y-77750000D01*
X146912155Y-77750000D01*
X146852627Y-77756401D01*
X146852620Y-77756403D01*
X146717913Y-77806645D01*
X146717906Y-77806649D01*
X146602812Y-77892809D01*
X146602809Y-77892812D01*
X146516649Y-78007906D01*
X146516645Y-78007913D01*
X146466403Y-78142620D01*
X146466401Y-78142627D01*
X146460000Y-78202155D01*
X146460000Y-78750000D01*
X140000500Y-78750000D01*
X140000500Y-77047870D01*
X146459500Y-77047870D01*
X146459501Y-77047876D01*
X146465908Y-77107483D01*
X146516202Y-77242328D01*
X146516206Y-77242335D01*
X146602452Y-77357544D01*
X146602455Y-77357547D01*
X146717664Y-77443793D01*
X146717671Y-77443797D01*
X146852517Y-77494091D01*
X146852516Y-77494091D01*
X146859444Y-77494835D01*
X146912127Y-77500500D01*
X152007872Y-77500499D01*
X152067483Y-77494091D01*
X152202331Y-77443796D01*
X152317546Y-77357546D01*
X152403796Y-77242331D01*
X152454091Y-77107483D01*
X152460500Y-77047873D01*
X152460500Y-76999500D01*
X152480185Y-76932461D01*
X152532989Y-76886706D01*
X152584500Y-76875500D01*
X156667257Y-76875500D01*
X156682877Y-76877224D01*
X156682904Y-76876939D01*
X156690660Y-76877671D01*
X156690667Y-76877673D01*
X156759814Y-76875500D01*
X156789350Y-76875500D01*
X156796228Y-76874630D01*
X156802041Y-76874172D01*
X156848627Y-76872709D01*
X156867869Y-76867117D01*
X156886912Y-76863174D01*
X156906792Y-76860664D01*
X156950122Y-76843507D01*
X156955646Y-76841617D01*
X156959396Y-76840527D01*
X157000390Y-76828618D01*
X157017629Y-76818422D01*
X157035103Y-76809862D01*
X157053727Y-76802488D01*
X157053727Y-76802487D01*
X157053732Y-76802486D01*
X157091449Y-76775082D01*
X157096305Y-76771892D01*
X157136420Y-76748170D01*
X157150589Y-76733999D01*
X157165379Y-76721368D01*
X157181587Y-76709594D01*
X157211299Y-76673676D01*
X157215212Y-76669376D01*
X159762771Y-74121819D01*
X159824095Y-74088334D01*
X159850453Y-74085500D01*
X162169773Y-74085500D01*
X162236812Y-74105185D01*
X162271348Y-74138377D01*
X162406501Y-74331396D01*
X162406506Y-74331402D01*
X162573597Y-74498493D01*
X162573603Y-74498498D01*
X162759594Y-74628730D01*
X162803219Y-74683307D01*
X162810413Y-74752805D01*
X162778890Y-74815160D01*
X162759595Y-74831880D01*
X162573922Y-74961890D01*
X162573920Y-74961891D01*
X162406891Y-75128920D01*
X162406886Y-75128926D01*
X162271400Y-75322420D01*
X162271399Y-75322422D01*
X162171570Y-75536507D01*
X162171567Y-75536513D01*
X162114364Y-75749999D01*
X162114364Y-75750000D01*
X162831653Y-75750000D01*
X162898692Y-75769685D01*
X162944447Y-75822489D01*
X162954391Y-75891647D01*
X162950631Y-75908933D01*
X162945000Y-75928111D01*
X162945000Y-76071888D01*
X162950631Y-76091067D01*
X162950630Y-76160936D01*
X162912855Y-76219714D01*
X162849299Y-76248738D01*
X162831653Y-76250000D01*
X162114364Y-76250000D01*
X162171567Y-76463486D01*
X162171570Y-76463492D01*
X162271399Y-76677578D01*
X162406894Y-76871082D01*
X162573917Y-77038105D01*
X162767421Y-77173600D01*
X162981507Y-77273429D01*
X162981516Y-77273433D01*
X163195000Y-77330634D01*
X163195000Y-76612301D01*
X163214685Y-76545262D01*
X163267489Y-76499507D01*
X163336647Y-76489563D01*
X163409237Y-76500000D01*
X163409238Y-76500000D01*
X163480762Y-76500000D01*
X163480763Y-76500000D01*
X163553353Y-76489563D01*
X163622512Y-76499507D01*
X163675315Y-76545262D01*
X163695000Y-76612301D01*
X163695000Y-77330633D01*
X163908483Y-77273433D01*
X163908492Y-77273429D01*
X164122578Y-77173600D01*
X164316082Y-77038105D01*
X164483105Y-76871082D01*
X164613119Y-76685405D01*
X164667696Y-76641781D01*
X164737195Y-76634588D01*
X164799549Y-76666110D01*
X164816269Y-76685405D01*
X164946505Y-76871401D01*
X165113599Y-77038495D01*
X165210384Y-77106264D01*
X165307165Y-77174032D01*
X165307167Y-77174033D01*
X165307170Y-77174035D01*
X165521337Y-77273903D01*
X165749592Y-77335063D01*
X165937918Y-77351539D01*
X165984999Y-77355659D01*
X165985000Y-77355659D01*
X165985001Y-77355659D01*
X166024234Y-77352226D01*
X166220408Y-77335063D01*
X166448663Y-77273903D01*
X166662830Y-77174035D01*
X166856401Y-77038495D01*
X167023495Y-76871401D01*
X167153424Y-76685842D01*
X167208002Y-76642217D01*
X167277500Y-76635023D01*
X167339855Y-76666546D01*
X167356575Y-76685842D01*
X167486500Y-76871395D01*
X167486505Y-76871401D01*
X167653599Y-77038495D01*
X167750384Y-77106264D01*
X167847165Y-77174032D01*
X167847167Y-77174033D01*
X167847170Y-77174035D01*
X168061337Y-77273903D01*
X168289592Y-77335063D01*
X168477918Y-77351539D01*
X168524999Y-77355659D01*
X168525000Y-77355659D01*
X168525001Y-77355659D01*
X168564234Y-77352226D01*
X168760408Y-77335063D01*
X168988663Y-77273903D01*
X169202830Y-77174035D01*
X169396401Y-77038495D01*
X169563495Y-76871401D01*
X169699035Y-76677830D01*
X169798903Y-76463663D01*
X169860063Y-76235408D01*
X169880659Y-76000000D01*
X169860063Y-75764592D01*
X169798903Y-75536337D01*
X169699035Y-75322171D01*
X169693730Y-75314595D01*
X169563496Y-75128600D01*
X169563490Y-75128594D01*
X169441567Y-75006671D01*
X169408084Y-74945351D01*
X169413068Y-74875659D01*
X169454939Y-74819725D01*
X169485915Y-74802810D01*
X169617331Y-74753796D01*
X169732546Y-74667546D01*
X169818796Y-74552331D01*
X169869091Y-74417483D01*
X169875500Y-74357873D01*
X169875499Y-72562128D01*
X169869091Y-72502517D01*
X169867810Y-72499083D01*
X169818797Y-72367671D01*
X169818793Y-72367664D01*
X169732547Y-72252455D01*
X169732544Y-72252452D01*
X169617335Y-72166206D01*
X169617328Y-72166202D01*
X169482482Y-72115908D01*
X169482483Y-72115908D01*
X169422883Y-72109501D01*
X169422881Y-72109500D01*
X169422873Y-72109500D01*
X169422865Y-72109500D01*
X169274500Y-72109500D01*
X169207461Y-72089815D01*
X169161706Y-72037011D01*
X169150500Y-71985500D01*
X169150500Y-71607738D01*
X169152224Y-71592124D01*
X169151938Y-71592097D01*
X169152672Y-71584334D01*
X169150500Y-71515203D01*
X169150500Y-71485651D01*
X169150500Y-71485650D01*
X169149629Y-71478759D01*
X169149172Y-71472945D01*
X169147709Y-71426372D01*
X169142122Y-71407144D01*
X169138174Y-71388084D01*
X169135664Y-71368208D01*
X169118507Y-71324875D01*
X169116619Y-71319359D01*
X169103619Y-71274612D01*
X169093418Y-71257363D01*
X169084860Y-71239894D01*
X169077486Y-71221268D01*
X169077483Y-71221264D01*
X169077483Y-71221263D01*
X169050098Y-71183571D01*
X169046890Y-71178687D01*
X169023172Y-71138582D01*
X169023163Y-71138571D01*
X169009005Y-71124413D01*
X168996370Y-71109620D01*
X168984593Y-71093412D01*
X168948693Y-71063713D01*
X168944381Y-71059790D01*
X168500803Y-70616212D01*
X168490980Y-70603950D01*
X168490759Y-70604134D01*
X168485786Y-70598123D01*
X168467159Y-70580631D01*
X168435364Y-70550773D01*
X168424919Y-70540328D01*
X168414475Y-70529883D01*
X168408986Y-70525625D01*
X168404561Y-70521847D01*
X168370582Y-70489938D01*
X168370580Y-70489936D01*
X168370577Y-70489935D01*
X168353029Y-70480288D01*
X168336763Y-70469604D01*
X168320933Y-70457325D01*
X168278168Y-70438818D01*
X168272922Y-70436248D01*
X168232093Y-70413803D01*
X168232092Y-70413802D01*
X168212693Y-70408822D01*
X168194281Y-70402518D01*
X168175898Y-70394562D01*
X168175892Y-70394560D01*
X168129874Y-70387272D01*
X168124152Y-70386087D01*
X168079021Y-70374500D01*
X168079019Y-70374500D01*
X168058984Y-70374500D01*
X168039586Y-70372973D01*
X168032162Y-70371797D01*
X168019805Y-70369840D01*
X168019804Y-70369840D01*
X167973416Y-70374225D01*
X167967578Y-70374500D01*
X158082743Y-70374500D01*
X158067122Y-70372775D01*
X158067095Y-70373061D01*
X158059333Y-70372326D01*
X157990172Y-70374500D01*
X157960649Y-70374500D01*
X157953778Y-70375367D01*
X157947959Y-70375825D01*
X157901374Y-70377289D01*
X157901368Y-70377290D01*
X157882126Y-70382880D01*
X157863087Y-70386823D01*
X157843217Y-70389334D01*
X157843200Y-70389338D01*
X157799882Y-70406488D01*
X157794358Y-70408379D01*
X157749607Y-70421383D01*
X157749604Y-70421384D01*
X157732358Y-70431583D01*
X157714893Y-70440139D01*
X157709010Y-70442468D01*
X157696266Y-70447514D01*
X157658572Y-70474899D01*
X157653691Y-70478105D01*
X157613580Y-70501828D01*
X157599408Y-70516000D01*
X157584623Y-70528628D01*
X157568412Y-70540407D01*
X157538709Y-70576310D01*
X157534776Y-70580631D01*
X156521360Y-71594049D01*
X155527228Y-72588181D01*
X155465905Y-72621666D01*
X155439547Y-72624500D01*
X152584499Y-72624500D01*
X152517460Y-72604815D01*
X152471705Y-72552011D01*
X152460499Y-72500500D01*
X152460499Y-72452129D01*
X152460498Y-72452123D01*
X152460497Y-72452116D01*
X152454091Y-72392517D01*
X152444823Y-72367669D01*
X152403797Y-72257671D01*
X152403793Y-72257664D01*
X152317547Y-72142455D01*
X152317544Y-72142452D01*
X152202335Y-72056206D01*
X152202328Y-72056202D01*
X152067482Y-72005908D01*
X152067483Y-72005908D01*
X152007883Y-71999501D01*
X152007881Y-71999500D01*
X152007873Y-71999500D01*
X152007864Y-71999500D01*
X146912129Y-71999500D01*
X146912123Y-71999501D01*
X146852516Y-72005908D01*
X146717671Y-72056202D01*
X146717664Y-72056206D01*
X146602455Y-72142452D01*
X146602452Y-72142455D01*
X146516206Y-72257664D01*
X146516202Y-72257671D01*
X146465908Y-72392517D01*
X146462792Y-72421505D01*
X146459501Y-72452123D01*
X146459500Y-72452135D01*
X146459500Y-74047870D01*
X146459501Y-74047876D01*
X146465908Y-74107483D01*
X146516202Y-74242328D01*
X146516206Y-74242335D01*
X146602452Y-74357544D01*
X146602455Y-74357547D01*
X146717664Y-74443793D01*
X146717671Y-74443797D01*
X146852517Y-74494091D01*
X146852516Y-74494091D01*
X146859444Y-74494835D01*
X146912127Y-74500500D01*
X152007872Y-74500499D01*
X152067483Y-74494091D01*
X152202331Y-74443796D01*
X152317546Y-74357546D01*
X152403796Y-74242331D01*
X152454091Y-74107483D01*
X152460500Y-74047873D01*
X152460500Y-73999500D01*
X152480185Y-73932461D01*
X152532989Y-73886706D01*
X152584500Y-73875500D01*
X155667257Y-73875500D01*
X155682877Y-73877224D01*
X155682904Y-73876939D01*
X155690660Y-73877671D01*
X155690667Y-73877673D01*
X155759814Y-73875500D01*
X155789350Y-73875500D01*
X155796228Y-73874630D01*
X155802041Y-73874172D01*
X155848627Y-73872709D01*
X155867869Y-73867117D01*
X155886912Y-73863174D01*
X155906792Y-73860664D01*
X155950122Y-73843507D01*
X155955646Y-73841617D01*
X155959396Y-73840527D01*
X156000390Y-73828618D01*
X156017629Y-73818422D01*
X156035103Y-73809862D01*
X156053727Y-73802488D01*
X156053727Y-73802487D01*
X156053732Y-73802486D01*
X156091449Y-73775082D01*
X156096305Y-73771892D01*
X156136420Y-73748170D01*
X156150589Y-73733999D01*
X156165379Y-73721368D01*
X156181587Y-73709594D01*
X156211299Y-73673676D01*
X156215212Y-73669376D01*
X158222770Y-71661819D01*
X158284094Y-71628334D01*
X158310452Y-71625500D01*
X167689548Y-71625500D01*
X167756587Y-71645185D01*
X167777229Y-71661819D01*
X167863181Y-71747771D01*
X167896666Y-71809094D01*
X167899500Y-71835452D01*
X167899500Y-71985500D01*
X167879815Y-72052539D01*
X167827011Y-72098294D01*
X167775501Y-72109500D01*
X167627130Y-72109500D01*
X167627123Y-72109501D01*
X167567516Y-72115908D01*
X167432671Y-72166202D01*
X167432664Y-72166206D01*
X167317455Y-72252452D01*
X167317452Y-72252455D01*
X167231206Y-72367664D01*
X167231203Y-72367669D01*
X167182189Y-72499083D01*
X167140317Y-72555016D01*
X167074853Y-72579433D01*
X167006580Y-72564581D01*
X166978326Y-72543430D01*
X166856402Y-72421506D01*
X166856395Y-72421501D01*
X166662834Y-72285967D01*
X166662830Y-72285965D01*
X166602138Y-72257664D01*
X166448663Y-72186097D01*
X166448659Y-72186096D01*
X166448655Y-72186094D01*
X166220413Y-72124938D01*
X166220403Y-72124936D01*
X165985001Y-72104341D01*
X165984999Y-72104341D01*
X165749596Y-72124936D01*
X165749586Y-72124938D01*
X165521344Y-72186094D01*
X165521335Y-72186098D01*
X165307171Y-72285964D01*
X165307169Y-72285965D01*
X165113597Y-72421505D01*
X164946505Y-72588597D01*
X164816575Y-72774158D01*
X164761998Y-72817783D01*
X164692500Y-72824977D01*
X164630145Y-72793454D01*
X164613425Y-72774158D01*
X164483494Y-72588597D01*
X164316402Y-72421506D01*
X164316395Y-72421501D01*
X164122834Y-72285967D01*
X164122830Y-72285965D01*
X164062138Y-72257664D01*
X163908663Y-72186097D01*
X163908659Y-72186096D01*
X163908655Y-72186094D01*
X163680413Y-72124938D01*
X163680403Y-72124936D01*
X163445001Y-72104341D01*
X163444999Y-72104341D01*
X163209596Y-72124936D01*
X163209586Y-72124938D01*
X162981344Y-72186094D01*
X162981335Y-72186098D01*
X162767171Y-72285964D01*
X162767169Y-72285965D01*
X162573597Y-72421505D01*
X162406505Y-72588597D01*
X162271348Y-72781623D01*
X162216771Y-72825248D01*
X162169773Y-72834500D01*
X159622743Y-72834500D01*
X159607122Y-72832775D01*
X159607096Y-72833061D01*
X159599334Y-72832327D01*
X159599333Y-72832327D01*
X159530186Y-72834500D01*
X159500649Y-72834500D01*
X159493766Y-72835369D01*
X159487949Y-72835826D01*
X159441373Y-72837290D01*
X159422129Y-72842881D01*
X159403079Y-72846825D01*
X159383211Y-72849334D01*
X159339884Y-72866488D01*
X159334358Y-72868379D01*
X159289614Y-72881379D01*
X159289610Y-72881381D01*
X159272366Y-72891579D01*
X159254905Y-72900133D01*
X159236274Y-72907510D01*
X159236262Y-72907517D01*
X159198570Y-72934902D01*
X159193687Y-72938109D01*
X159153580Y-72961829D01*
X159139414Y-72975995D01*
X159124624Y-72988627D01*
X159108414Y-73000404D01*
X159108411Y-73000407D01*
X159078710Y-73036309D01*
X159074777Y-73040631D01*
X156527228Y-75588181D01*
X156465905Y-75621666D01*
X156439547Y-75624500D01*
X152584499Y-75624500D01*
X152517460Y-75604815D01*
X152471705Y-75552011D01*
X152460499Y-75500500D01*
X152460499Y-75452129D01*
X152460498Y-75452123D01*
X152460497Y-75452116D01*
X152454091Y-75392517D01*
X152443981Y-75365412D01*
X152403797Y-75257671D01*
X152403793Y-75257664D01*
X152317547Y-75142455D01*
X152317544Y-75142452D01*
X152202335Y-75056206D01*
X152202328Y-75056202D01*
X152067482Y-75005908D01*
X152067483Y-75005908D01*
X152007883Y-74999501D01*
X152007881Y-74999500D01*
X152007873Y-74999500D01*
X152007864Y-74999500D01*
X146912129Y-74999500D01*
X146912123Y-74999501D01*
X146852516Y-75005908D01*
X146717671Y-75056202D01*
X146717664Y-75056206D01*
X146602455Y-75142452D01*
X146602452Y-75142455D01*
X146516206Y-75257664D01*
X146516202Y-75257671D01*
X146465908Y-75392517D01*
X146459501Y-75452116D01*
X146459501Y-75452123D01*
X146459500Y-75452135D01*
X146459500Y-77047870D01*
X140000500Y-77047870D01*
X140000500Y-70750000D01*
X146460000Y-70750000D01*
X146460000Y-71297844D01*
X146466401Y-71357372D01*
X146466403Y-71357379D01*
X146516645Y-71492086D01*
X146516649Y-71492093D01*
X146602809Y-71607187D01*
X146602812Y-71607190D01*
X146717906Y-71693350D01*
X146717913Y-71693354D01*
X146852620Y-71743596D01*
X146852627Y-71743598D01*
X146912155Y-71749999D01*
X146912172Y-71750000D01*
X149210000Y-71750000D01*
X149210000Y-70750000D01*
X149710000Y-70750000D01*
X149710000Y-71750000D01*
X152007828Y-71750000D01*
X152007844Y-71749999D01*
X152067372Y-71743598D01*
X152067379Y-71743596D01*
X152202086Y-71693354D01*
X152202093Y-71693350D01*
X152317187Y-71607190D01*
X152317190Y-71607187D01*
X152403350Y-71492093D01*
X152403354Y-71492086D01*
X152453596Y-71357379D01*
X152453598Y-71357372D01*
X152459999Y-71297844D01*
X152460000Y-71297827D01*
X152460000Y-70750000D01*
X149710000Y-70750000D01*
X149210000Y-70750000D01*
X146460000Y-70750000D01*
X140000500Y-70750000D01*
X140000500Y-70250000D01*
X146460000Y-70250000D01*
X149210000Y-70250000D01*
X149210000Y-69250000D01*
X149710000Y-69250000D01*
X149710000Y-70250000D01*
X152460000Y-70250000D01*
X152460000Y-69702172D01*
X152459999Y-69702155D01*
X152453598Y-69642627D01*
X152453596Y-69642620D01*
X152403354Y-69507913D01*
X152403350Y-69507906D01*
X152317190Y-69392812D01*
X152317187Y-69392809D01*
X152202093Y-69306649D01*
X152202086Y-69306645D01*
X152067379Y-69256403D01*
X152067372Y-69256401D01*
X152007844Y-69250000D01*
X149710000Y-69250000D01*
X149210000Y-69250000D01*
X146912155Y-69250000D01*
X146852627Y-69256401D01*
X146852620Y-69256403D01*
X146717913Y-69306645D01*
X146717906Y-69306649D01*
X146602812Y-69392809D01*
X146602809Y-69392812D01*
X146516649Y-69507906D01*
X146516645Y-69507913D01*
X146466403Y-69642620D01*
X146466401Y-69642627D01*
X146460000Y-69702155D01*
X146460000Y-70250000D01*
X140000500Y-70250000D01*
X140000500Y-69124500D01*
X140020185Y-69057461D01*
X140072989Y-69011706D01*
X140124500Y-69000500D01*
X171875500Y-69000500D01*
X171942539Y-69020185D01*
G37*
%TD.AperFunction*%
%TD*%
%TA.AperFunction,Conductor*%
%TO.N,RGT GND*%
G36*
X171942539Y-89020185D02*
G01*
X171988294Y-89072989D01*
X171999500Y-89124500D01*
X171999500Y-99875500D01*
X171979815Y-99942539D01*
X171927011Y-99988294D01*
X171875500Y-99999500D01*
X152656364Y-99999500D01*
X152589325Y-99979815D01*
X152543570Y-99927011D01*
X152533075Y-99862244D01*
X152539999Y-99797844D01*
X152540000Y-99797827D01*
X152540000Y-99250000D01*
X146540000Y-99250000D01*
X146540000Y-99797844D01*
X146546925Y-99862244D01*
X146534520Y-99931004D01*
X146486910Y-99982141D01*
X146423636Y-99999500D01*
X140124500Y-99999500D01*
X140057461Y-99979815D01*
X140011706Y-99927011D01*
X140000500Y-99875500D01*
X140000500Y-98750000D01*
X146540000Y-98750000D01*
X149290000Y-98750000D01*
X149290000Y-97750000D01*
X149790000Y-97750000D01*
X149790000Y-98750000D01*
X152540000Y-98750000D01*
X152540000Y-98202172D01*
X152539999Y-98202155D01*
X152533598Y-98142627D01*
X152533596Y-98142620D01*
X152483354Y-98007913D01*
X152483350Y-98007906D01*
X152397190Y-97892812D01*
X152397187Y-97892809D01*
X152282093Y-97806649D01*
X152282086Y-97806645D01*
X152147379Y-97756403D01*
X152147372Y-97756401D01*
X152087844Y-97750000D01*
X149790000Y-97750000D01*
X149290000Y-97750000D01*
X146992155Y-97750000D01*
X146932627Y-97756401D01*
X146932620Y-97756403D01*
X146797913Y-97806645D01*
X146797906Y-97806649D01*
X146682812Y-97892809D01*
X146682809Y-97892812D01*
X146596649Y-98007906D01*
X146596645Y-98007913D01*
X146546403Y-98142620D01*
X146546401Y-98142627D01*
X146540000Y-98202155D01*
X146540000Y-98750000D01*
X140000500Y-98750000D01*
X140000500Y-97047870D01*
X146539500Y-97047870D01*
X146539501Y-97047876D01*
X146545908Y-97107483D01*
X146596202Y-97242328D01*
X146596206Y-97242335D01*
X146682452Y-97357544D01*
X146682455Y-97357547D01*
X146797664Y-97443793D01*
X146797671Y-97443797D01*
X146932517Y-97494091D01*
X146932516Y-97494091D01*
X146939444Y-97494835D01*
X146992127Y-97500500D01*
X152087872Y-97500499D01*
X152147483Y-97494091D01*
X152282331Y-97443796D01*
X152397546Y-97357546D01*
X152483796Y-97242331D01*
X152534091Y-97107483D01*
X152540500Y-97047873D01*
X152540500Y-96999499D01*
X152560185Y-96932461D01*
X152612989Y-96886706D01*
X152664500Y-96875500D01*
X156939548Y-96875500D01*
X157006587Y-96895185D01*
X157027229Y-96911819D01*
X158499194Y-98383784D01*
X158509019Y-98396048D01*
X158509240Y-98395866D01*
X158514210Y-98401873D01*
X158514213Y-98401876D01*
X158514214Y-98401877D01*
X158564651Y-98449241D01*
X158585530Y-98470120D01*
X158591004Y-98474366D01*
X158595442Y-98478156D01*
X158629418Y-98510062D01*
X158629422Y-98510064D01*
X158646973Y-98519713D01*
X158663231Y-98530392D01*
X158679064Y-98542674D01*
X158701015Y-98552172D01*
X158721837Y-98561183D01*
X158727081Y-98563752D01*
X158767908Y-98586197D01*
X158787312Y-98591179D01*
X158805710Y-98597478D01*
X158824105Y-98605438D01*
X158870129Y-98612726D01*
X158875832Y-98613907D01*
X158920981Y-98625500D01*
X158941016Y-98625500D01*
X158960413Y-98627026D01*
X158980196Y-98630160D01*
X159026583Y-98625775D01*
X159032422Y-98625500D01*
X165762257Y-98625500D01*
X165777877Y-98627224D01*
X165777904Y-98626939D01*
X165785660Y-98627671D01*
X165785667Y-98627673D01*
X165854814Y-98625500D01*
X165884350Y-98625500D01*
X165891228Y-98624630D01*
X165897041Y-98624172D01*
X165943627Y-98622709D01*
X165962869Y-98617117D01*
X165981912Y-98613174D01*
X166001792Y-98610664D01*
X166045122Y-98593507D01*
X166050646Y-98591617D01*
X166054396Y-98590527D01*
X166095390Y-98578618D01*
X166112629Y-98568422D01*
X166130103Y-98559862D01*
X166148727Y-98552488D01*
X166148727Y-98552487D01*
X166148732Y-98552486D01*
X166186449Y-98525082D01*
X166191305Y-98521892D01*
X166231420Y-98498170D01*
X166245589Y-98483999D01*
X166260379Y-98471368D01*
X166276587Y-98459594D01*
X166306299Y-98423676D01*
X166310212Y-98419376D01*
X168099353Y-96630235D01*
X168160674Y-96596752D01*
X168219125Y-96598143D01*
X168253780Y-96607428D01*
X168319592Y-96625063D01*
X168496034Y-96640500D01*
X168554999Y-96645659D01*
X168555000Y-96645659D01*
X168555001Y-96645659D01*
X168613966Y-96640500D01*
X168790408Y-96625063D01*
X169018663Y-96563903D01*
X169232830Y-96464035D01*
X169426401Y-96328495D01*
X169593495Y-96161401D01*
X169729035Y-95967830D01*
X169828903Y-95753663D01*
X169890063Y-95525408D01*
X169910659Y-95290000D01*
X169890063Y-95054592D01*
X169828903Y-94826337D01*
X169729035Y-94612171D01*
X169723425Y-94604158D01*
X169593494Y-94418597D01*
X169426402Y-94251506D01*
X169426401Y-94251505D01*
X169240405Y-94121269D01*
X169196781Y-94066692D01*
X169189588Y-93997193D01*
X169221110Y-93934839D01*
X169240405Y-93918119D01*
X169426082Y-93788105D01*
X169593105Y-93621082D01*
X169728600Y-93427578D01*
X169828429Y-93213492D01*
X169828432Y-93213486D01*
X169885636Y-93000000D01*
X169168347Y-93000000D01*
X169101308Y-92980315D01*
X169055553Y-92927511D01*
X169045609Y-92858353D01*
X169049369Y-92841067D01*
X169055000Y-92821888D01*
X169055000Y-92678111D01*
X169049369Y-92658933D01*
X169049370Y-92589064D01*
X169087145Y-92530286D01*
X169150701Y-92501262D01*
X169168347Y-92500000D01*
X169885636Y-92500000D01*
X169885635Y-92499999D01*
X169828432Y-92286513D01*
X169828429Y-92286507D01*
X169728600Y-92072422D01*
X169728599Y-92072420D01*
X169593113Y-91878926D01*
X169593108Y-91878920D01*
X169426082Y-91711894D01*
X169232578Y-91576399D01*
X169018492Y-91476570D01*
X169018486Y-91476567D01*
X168805000Y-91419364D01*
X168805000Y-92137698D01*
X168785315Y-92204737D01*
X168732511Y-92250492D01*
X168663355Y-92260436D01*
X168590766Y-92250000D01*
X168590763Y-92250000D01*
X168519237Y-92250000D01*
X168519233Y-92250000D01*
X168446645Y-92260436D01*
X168377487Y-92250492D01*
X168324684Y-92204736D01*
X168305000Y-92137698D01*
X168305000Y-91419364D01*
X168304999Y-91419364D01*
X168091513Y-91476567D01*
X168091507Y-91476570D01*
X167877422Y-91576399D01*
X167877420Y-91576400D01*
X167683926Y-91711886D01*
X167683920Y-91711891D01*
X167516891Y-91878920D01*
X167516890Y-91878922D01*
X167386880Y-92064595D01*
X167332303Y-92108219D01*
X167262804Y-92115412D01*
X167200450Y-92083890D01*
X167183730Y-92064594D01*
X167053494Y-91878597D01*
X166886402Y-91711506D01*
X166886395Y-91711501D01*
X166692834Y-91575967D01*
X166692830Y-91575965D01*
X166692828Y-91575964D01*
X166478663Y-91476097D01*
X166478659Y-91476096D01*
X166478655Y-91476094D01*
X166250413Y-91414938D01*
X166250403Y-91414936D01*
X166015001Y-91394341D01*
X166014999Y-91394341D01*
X165779596Y-91414936D01*
X165779586Y-91414938D01*
X165551344Y-91476094D01*
X165551335Y-91476098D01*
X165337171Y-91575964D01*
X165337169Y-91575965D01*
X165143597Y-91711505D01*
X164976505Y-91878597D01*
X164846575Y-92064158D01*
X164791998Y-92107783D01*
X164722500Y-92114977D01*
X164660145Y-92083454D01*
X164643425Y-92064158D01*
X164513494Y-91878597D01*
X164346402Y-91711506D01*
X164346395Y-91711501D01*
X164152834Y-91575967D01*
X164152830Y-91575965D01*
X164152828Y-91575964D01*
X163938663Y-91476097D01*
X163938659Y-91476096D01*
X163938655Y-91476094D01*
X163710413Y-91414938D01*
X163710403Y-91414936D01*
X163475001Y-91394341D01*
X163474999Y-91394341D01*
X163239596Y-91414936D01*
X163239586Y-91414938D01*
X163011344Y-91476094D01*
X163011335Y-91476098D01*
X162797171Y-91575964D01*
X162797169Y-91575965D01*
X162603597Y-91711505D01*
X162436505Y-91878597D01*
X162300965Y-92072169D01*
X162300964Y-92072171D01*
X162201098Y-92286335D01*
X162201094Y-92286344D01*
X162139938Y-92514586D01*
X162139936Y-92514596D01*
X162119341Y-92749999D01*
X162119341Y-92750000D01*
X162139936Y-92985403D01*
X162139938Y-92985413D01*
X162201094Y-93213655D01*
X162201096Y-93213659D01*
X162201097Y-93213663D01*
X162281004Y-93385023D01*
X162300965Y-93427830D01*
X162300967Y-93427834D01*
X162409281Y-93582521D01*
X162436501Y-93621396D01*
X162436506Y-93621402D01*
X162558430Y-93743326D01*
X162591915Y-93804649D01*
X162586931Y-93874341D01*
X162545059Y-93930274D01*
X162514083Y-93947189D01*
X162382669Y-93996203D01*
X162382664Y-93996206D01*
X162267455Y-94082452D01*
X162267452Y-94082455D01*
X162181206Y-94197664D01*
X162181202Y-94197671D01*
X162130908Y-94332517D01*
X162124501Y-94392116D01*
X162124500Y-94392135D01*
X162124500Y-94540500D01*
X162104815Y-94607539D01*
X162052011Y-94653294D01*
X162000500Y-94664500D01*
X159600452Y-94664500D01*
X159533413Y-94644815D01*
X159512771Y-94628181D01*
X157750803Y-92866212D01*
X157740980Y-92853950D01*
X157740759Y-92854134D01*
X157735786Y-92848123D01*
X157728272Y-92841067D01*
X157685364Y-92800773D01*
X157674919Y-92790328D01*
X157664475Y-92779883D01*
X157658986Y-92775625D01*
X157654561Y-92771847D01*
X157620582Y-92739938D01*
X157620580Y-92739936D01*
X157620577Y-92739935D01*
X157603029Y-92730288D01*
X157586763Y-92719604D01*
X157570933Y-92707325D01*
X157528168Y-92688818D01*
X157522922Y-92686248D01*
X157482093Y-92663803D01*
X157482092Y-92663802D01*
X157462693Y-92658822D01*
X157444281Y-92652518D01*
X157425898Y-92644562D01*
X157425892Y-92644560D01*
X157379874Y-92637272D01*
X157374152Y-92636087D01*
X157329021Y-92624500D01*
X157329019Y-92624500D01*
X157308984Y-92624500D01*
X157289586Y-92622973D01*
X157282162Y-92621797D01*
X157269805Y-92619840D01*
X157269804Y-92619840D01*
X157223416Y-92624225D01*
X157217578Y-92624500D01*
X152664499Y-92624500D01*
X152597460Y-92604815D01*
X152551705Y-92552011D01*
X152540499Y-92500500D01*
X152540499Y-92452129D01*
X152540498Y-92452123D01*
X152540497Y-92452116D01*
X152534091Y-92392517D01*
X152494488Y-92286337D01*
X152483797Y-92257671D01*
X152483793Y-92257664D01*
X152397547Y-92142455D01*
X152397544Y-92142452D01*
X152282335Y-92056206D01*
X152282328Y-92056202D01*
X152147482Y-92005908D01*
X152147483Y-92005908D01*
X152087883Y-91999501D01*
X152087881Y-91999500D01*
X152087873Y-91999500D01*
X152087864Y-91999500D01*
X146992129Y-91999500D01*
X146992123Y-91999501D01*
X146932516Y-92005908D01*
X146797671Y-92056202D01*
X146797664Y-92056206D01*
X146682455Y-92142452D01*
X146682452Y-92142455D01*
X146596206Y-92257664D01*
X146596202Y-92257671D01*
X146545908Y-92392517D01*
X146539501Y-92452116D01*
X146539501Y-92452123D01*
X146539500Y-92452135D01*
X146539500Y-94047870D01*
X146539501Y-94047876D01*
X146545908Y-94107483D01*
X146596202Y-94242328D01*
X146596206Y-94242335D01*
X146682452Y-94357544D01*
X146682455Y-94357547D01*
X146797664Y-94443793D01*
X146797671Y-94443797D01*
X146932517Y-94494091D01*
X146932516Y-94494091D01*
X146939444Y-94494835D01*
X146992127Y-94500500D01*
X152087872Y-94500499D01*
X152147483Y-94494091D01*
X152282331Y-94443796D01*
X152397546Y-94357546D01*
X152483796Y-94242331D01*
X152534091Y-94107483D01*
X152540500Y-94047873D01*
X152540500Y-93999500D01*
X152560185Y-93932461D01*
X152612989Y-93886706D01*
X152664500Y-93875500D01*
X156939548Y-93875500D01*
X157006587Y-93895185D01*
X157027229Y-93911819D01*
X158789194Y-95673784D01*
X158799019Y-95686048D01*
X158799240Y-95685866D01*
X158804210Y-95691873D01*
X158804213Y-95691876D01*
X158804214Y-95691877D01*
X158854651Y-95739241D01*
X158875530Y-95760120D01*
X158881004Y-95764366D01*
X158885442Y-95768156D01*
X158919418Y-95800062D01*
X158936973Y-95809713D01*
X158953231Y-95820392D01*
X158969064Y-95832674D01*
X158991015Y-95842172D01*
X159011837Y-95851183D01*
X159017081Y-95853752D01*
X159057908Y-95876197D01*
X159077312Y-95881179D01*
X159095710Y-95887478D01*
X159114105Y-95895438D01*
X159160129Y-95902726D01*
X159165832Y-95903907D01*
X159210981Y-95915500D01*
X159231016Y-95915500D01*
X159250413Y-95917026D01*
X159270196Y-95920160D01*
X159316583Y-95915775D01*
X159322422Y-95915500D01*
X162000501Y-95915500D01*
X162067540Y-95935185D01*
X162113295Y-95987989D01*
X162124501Y-96039500D01*
X162124501Y-96187876D01*
X162130908Y-96247483D01*
X162181202Y-96382328D01*
X162181206Y-96382335D01*
X162267452Y-96497544D01*
X162267455Y-96497547D01*
X162382664Y-96583793D01*
X162382671Y-96583797D01*
X162517517Y-96634091D01*
X162517516Y-96634091D01*
X162524444Y-96634835D01*
X162577127Y-96640500D01*
X164372872Y-96640499D01*
X164432483Y-96634091D01*
X164567331Y-96583796D01*
X164682546Y-96497546D01*
X164768796Y-96382331D01*
X164817810Y-96250916D01*
X164859681Y-96194984D01*
X164925145Y-96170566D01*
X164993418Y-96185417D01*
X165021673Y-96206569D01*
X165143599Y-96328495D01*
X165240384Y-96396265D01*
X165337165Y-96464032D01*
X165337167Y-96464033D01*
X165337170Y-96464035D01*
X165551337Y-96563903D01*
X165779592Y-96625063D01*
X165956034Y-96640500D01*
X166014999Y-96645659D01*
X166015387Y-96645659D01*
X166015551Y-96645707D01*
X166020394Y-96646131D01*
X166020308Y-96647104D01*
X166082426Y-96665344D01*
X166128181Y-96718148D01*
X166138125Y-96787306D01*
X166109100Y-96850862D01*
X166103068Y-96857340D01*
X165622228Y-97338181D01*
X165560905Y-97371666D01*
X165534547Y-97374500D01*
X159310452Y-97374500D01*
X159243413Y-97354815D01*
X159222771Y-97338181D01*
X157750803Y-95866212D01*
X157740980Y-95853950D01*
X157740759Y-95854134D01*
X157735786Y-95848123D01*
X157735785Y-95848122D01*
X157685364Y-95800773D01*
X157674919Y-95790328D01*
X157664475Y-95779883D01*
X157658986Y-95775625D01*
X157654561Y-95771847D01*
X157620582Y-95739938D01*
X157620580Y-95739936D01*
X157620577Y-95739935D01*
X157603029Y-95730288D01*
X157586763Y-95719604D01*
X157570933Y-95707325D01*
X157528168Y-95688818D01*
X157522922Y-95686248D01*
X157482093Y-95663803D01*
X157482092Y-95663802D01*
X157462693Y-95658822D01*
X157444281Y-95652518D01*
X157425898Y-95644562D01*
X157425892Y-95644560D01*
X157379874Y-95637272D01*
X157374152Y-95636087D01*
X157329021Y-95624500D01*
X157329019Y-95624500D01*
X157308984Y-95624500D01*
X157289586Y-95622973D01*
X157282162Y-95621797D01*
X157269805Y-95619840D01*
X157269804Y-95619840D01*
X157223416Y-95624225D01*
X157217578Y-95624500D01*
X152664499Y-95624500D01*
X152597460Y-95604815D01*
X152551705Y-95552011D01*
X152540499Y-95500500D01*
X152540499Y-95452129D01*
X152540498Y-95452123D01*
X152540497Y-95452116D01*
X152534091Y-95392517D01*
X152495854Y-95289999D01*
X152483797Y-95257671D01*
X152483793Y-95257664D01*
X152397547Y-95142455D01*
X152397544Y-95142452D01*
X152282335Y-95056206D01*
X152282328Y-95056202D01*
X152147482Y-95005908D01*
X152147483Y-95005908D01*
X152087883Y-94999501D01*
X152087881Y-94999500D01*
X152087873Y-94999500D01*
X152087864Y-94999500D01*
X146992129Y-94999500D01*
X146992123Y-94999501D01*
X146932516Y-95005908D01*
X146797671Y-95056202D01*
X146797664Y-95056206D01*
X146682455Y-95142452D01*
X146682452Y-95142455D01*
X146596206Y-95257664D01*
X146596202Y-95257671D01*
X146545908Y-95392517D01*
X146539501Y-95452116D01*
X146539501Y-95452123D01*
X146539500Y-95452135D01*
X146539500Y-97047870D01*
X140000500Y-97047870D01*
X140000500Y-90750000D01*
X146540000Y-90750000D01*
X146540000Y-91297844D01*
X146546401Y-91357372D01*
X146546403Y-91357379D01*
X146596645Y-91492086D01*
X146596649Y-91492093D01*
X146682809Y-91607187D01*
X146682812Y-91607190D01*
X146797906Y-91693350D01*
X146797913Y-91693354D01*
X146932620Y-91743596D01*
X146932627Y-91743598D01*
X146992155Y-91749999D01*
X146992172Y-91750000D01*
X149290000Y-91750000D01*
X149290000Y-90750000D01*
X149790000Y-90750000D01*
X149790000Y-91750000D01*
X152087828Y-91750000D01*
X152087844Y-91749999D01*
X152147372Y-91743598D01*
X152147379Y-91743596D01*
X152282086Y-91693354D01*
X152282093Y-91693350D01*
X152397187Y-91607190D01*
X152397190Y-91607187D01*
X152483350Y-91492093D01*
X152483354Y-91492086D01*
X152533596Y-91357379D01*
X152533598Y-91357372D01*
X152539999Y-91297844D01*
X152540000Y-91297827D01*
X152540000Y-90750000D01*
X149790000Y-90750000D01*
X149290000Y-90750000D01*
X146540000Y-90750000D01*
X140000500Y-90750000D01*
X140000500Y-90250000D01*
X146540000Y-90250000D01*
X149290000Y-90250000D01*
X149290000Y-89250000D01*
X149790000Y-89250000D01*
X149790000Y-90250000D01*
X152540000Y-90250000D01*
X152540000Y-89702172D01*
X152539999Y-89702155D01*
X152533598Y-89642627D01*
X152533596Y-89642620D01*
X152483354Y-89507913D01*
X152483350Y-89507906D01*
X152397190Y-89392812D01*
X152397187Y-89392809D01*
X152282093Y-89306649D01*
X152282086Y-89306645D01*
X152147379Y-89256403D01*
X152147372Y-89256401D01*
X152087844Y-89250000D01*
X149790000Y-89250000D01*
X149290000Y-89250000D01*
X146992155Y-89250000D01*
X146932627Y-89256401D01*
X146932620Y-89256403D01*
X146797913Y-89306645D01*
X146797906Y-89306649D01*
X146682812Y-89392809D01*
X146682809Y-89392812D01*
X146596649Y-89507906D01*
X146596645Y-89507913D01*
X146546403Y-89642620D01*
X146546401Y-89642627D01*
X146540000Y-89702155D01*
X146540000Y-90250000D01*
X140000500Y-90250000D01*
X140000500Y-89124500D01*
X140020185Y-89057461D01*
X140072989Y-89011706D01*
X140124500Y-89000500D01*
X171875500Y-89000500D01*
X171942539Y-89020185D01*
G37*
%TD.AperFunction*%
%TD*%
M02*
