%TF.GenerationSoftware,KiCad,Pcbnew,7.0.7*%
%TF.CreationDate,2023-10-21T18:00:54-07:00*%
%TF.ProjectId,DC32_Cnet_Badge_SAO,44433332-5f43-46e6-9574-5f4261646765,rev?*%
%TF.SameCoordinates,Original*%
%TF.FileFunction,Legend,Top*%
%TF.FilePolarity,Positive*%
%FSLAX46Y46*%
G04 Gerber Fmt 4.6, Leading zero omitted, Abs format (unit mm)*
G04 Created by KiCad (PCBNEW 7.0.7) date 2023-10-21 18:00:54*
%MOMM*%
%LPD*%
G01*
G04 APERTURE LIST*
%ADD10C,0.150000*%
%ADD11C,0.100000*%
G04 APERTURE END LIST*
D10*
X141860588Y-98917438D02*
X141765350Y-98869819D01*
X141765350Y-98869819D02*
X141622493Y-98869819D01*
X141622493Y-98869819D02*
X141479636Y-98917438D01*
X141479636Y-98917438D02*
X141384398Y-99012676D01*
X141384398Y-99012676D02*
X141336779Y-99107914D01*
X141336779Y-99107914D02*
X141289160Y-99298390D01*
X141289160Y-99298390D02*
X141289160Y-99441247D01*
X141289160Y-99441247D02*
X141336779Y-99631723D01*
X141336779Y-99631723D02*
X141384398Y-99726961D01*
X141384398Y-99726961D02*
X141479636Y-99822200D01*
X141479636Y-99822200D02*
X141622493Y-99869819D01*
X141622493Y-99869819D02*
X141717731Y-99869819D01*
X141717731Y-99869819D02*
X141860588Y-99822200D01*
X141860588Y-99822200D02*
X141908207Y-99774580D01*
X141908207Y-99774580D02*
X141908207Y-99441247D01*
X141908207Y-99441247D02*
X141717731Y-99441247D01*
X142336779Y-99869819D02*
X142336779Y-98869819D01*
X142336779Y-98869819D02*
X142908207Y-99869819D01*
X142908207Y-99869819D02*
X142908207Y-98869819D01*
X143384398Y-99869819D02*
X143384398Y-98869819D01*
X143384398Y-98869819D02*
X143622493Y-98869819D01*
X143622493Y-98869819D02*
X143765350Y-98917438D01*
X143765350Y-98917438D02*
X143860588Y-99012676D01*
X143860588Y-99012676D02*
X143908207Y-99107914D01*
X143908207Y-99107914D02*
X143955826Y-99298390D01*
X143955826Y-99298390D02*
X143955826Y-99441247D01*
X143955826Y-99441247D02*
X143908207Y-99631723D01*
X143908207Y-99631723D02*
X143860588Y-99726961D01*
X143860588Y-99726961D02*
X143765350Y-99822200D01*
X143765350Y-99822200D02*
X143622493Y-99869819D01*
X143622493Y-99869819D02*
X143384398Y-99869819D01*
X141241541Y-95869819D02*
X141860588Y-95869819D01*
X141860588Y-95869819D02*
X141527255Y-96250771D01*
X141527255Y-96250771D02*
X141670112Y-96250771D01*
X141670112Y-96250771D02*
X141765350Y-96298390D01*
X141765350Y-96298390D02*
X141812969Y-96346009D01*
X141812969Y-96346009D02*
X141860588Y-96441247D01*
X141860588Y-96441247D02*
X141860588Y-96679342D01*
X141860588Y-96679342D02*
X141812969Y-96774580D01*
X141812969Y-96774580D02*
X141765350Y-96822200D01*
X141765350Y-96822200D02*
X141670112Y-96869819D01*
X141670112Y-96869819D02*
X141384398Y-96869819D01*
X141384398Y-96869819D02*
X141289160Y-96822200D01*
X141289160Y-96822200D02*
X141241541Y-96774580D01*
X142146303Y-95869819D02*
X142479636Y-96869819D01*
X142479636Y-96869819D02*
X142812969Y-95869819D01*
X143051065Y-95869819D02*
X143670112Y-95869819D01*
X143670112Y-95869819D02*
X143336779Y-96250771D01*
X143336779Y-96250771D02*
X143479636Y-96250771D01*
X143479636Y-96250771D02*
X143574874Y-96298390D01*
X143574874Y-96298390D02*
X143622493Y-96346009D01*
X143622493Y-96346009D02*
X143670112Y-96441247D01*
X143670112Y-96441247D02*
X143670112Y-96679342D01*
X143670112Y-96679342D02*
X143622493Y-96774580D01*
X143622493Y-96774580D02*
X143574874Y-96822200D01*
X143574874Y-96822200D02*
X143479636Y-96869819D01*
X143479636Y-96869819D02*
X143193922Y-96869819D01*
X143193922Y-96869819D02*
X143098684Y-96822200D01*
X143098684Y-96822200D02*
X143051065Y-96774580D01*
X141336779Y-93869819D02*
X141336779Y-92869819D01*
X141336779Y-92869819D02*
X141574874Y-92869819D01*
X141574874Y-92869819D02*
X141717731Y-92917438D01*
X141717731Y-92917438D02*
X141812969Y-93012676D01*
X141812969Y-93012676D02*
X141860588Y-93107914D01*
X141860588Y-93107914D02*
X141908207Y-93298390D01*
X141908207Y-93298390D02*
X141908207Y-93441247D01*
X141908207Y-93441247D02*
X141860588Y-93631723D01*
X141860588Y-93631723D02*
X141812969Y-93726961D01*
X141812969Y-93726961D02*
X141717731Y-93822200D01*
X141717731Y-93822200D02*
X141574874Y-93869819D01*
X141574874Y-93869819D02*
X141336779Y-93869819D01*
X142336779Y-93869819D02*
X142336779Y-92869819D01*
X142812969Y-93869819D02*
X142812969Y-92869819D01*
X142812969Y-92869819D02*
X143384397Y-93869819D01*
X143384397Y-93869819D02*
X143384397Y-92869819D01*
X141860588Y-89917438D02*
X141765350Y-89869819D01*
X141765350Y-89869819D02*
X141622493Y-89869819D01*
X141622493Y-89869819D02*
X141479636Y-89917438D01*
X141479636Y-89917438D02*
X141384398Y-90012676D01*
X141384398Y-90012676D02*
X141336779Y-90107914D01*
X141336779Y-90107914D02*
X141289160Y-90298390D01*
X141289160Y-90298390D02*
X141289160Y-90441247D01*
X141289160Y-90441247D02*
X141336779Y-90631723D01*
X141336779Y-90631723D02*
X141384398Y-90726961D01*
X141384398Y-90726961D02*
X141479636Y-90822200D01*
X141479636Y-90822200D02*
X141622493Y-90869819D01*
X141622493Y-90869819D02*
X141717731Y-90869819D01*
X141717731Y-90869819D02*
X141860588Y-90822200D01*
X141860588Y-90822200D02*
X141908207Y-90774580D01*
X141908207Y-90774580D02*
X141908207Y-90441247D01*
X141908207Y-90441247D02*
X141717731Y-90441247D01*
X142336779Y-90869819D02*
X142336779Y-89869819D01*
X142336779Y-89869819D02*
X142908207Y-90869819D01*
X142908207Y-90869819D02*
X142908207Y-89869819D01*
X143384398Y-90869819D02*
X143384398Y-89869819D01*
X143384398Y-89869819D02*
X143622493Y-89869819D01*
X143622493Y-89869819D02*
X143765350Y-89917438D01*
X143765350Y-89917438D02*
X143860588Y-90012676D01*
X143860588Y-90012676D02*
X143908207Y-90107914D01*
X143908207Y-90107914D02*
X143955826Y-90298390D01*
X143955826Y-90298390D02*
X143955826Y-90441247D01*
X143955826Y-90441247D02*
X143908207Y-90631723D01*
X143908207Y-90631723D02*
X143860588Y-90726961D01*
X143860588Y-90726961D02*
X143765350Y-90822200D01*
X143765350Y-90822200D02*
X143622493Y-90869819D01*
X143622493Y-90869819D02*
X143384398Y-90869819D01*
X141860588Y-78917438D02*
X141765350Y-78869819D01*
X141765350Y-78869819D02*
X141622493Y-78869819D01*
X141622493Y-78869819D02*
X141479636Y-78917438D01*
X141479636Y-78917438D02*
X141384398Y-79012676D01*
X141384398Y-79012676D02*
X141336779Y-79107914D01*
X141336779Y-79107914D02*
X141289160Y-79298390D01*
X141289160Y-79298390D02*
X141289160Y-79441247D01*
X141289160Y-79441247D02*
X141336779Y-79631723D01*
X141336779Y-79631723D02*
X141384398Y-79726961D01*
X141384398Y-79726961D02*
X141479636Y-79822200D01*
X141479636Y-79822200D02*
X141622493Y-79869819D01*
X141622493Y-79869819D02*
X141717731Y-79869819D01*
X141717731Y-79869819D02*
X141860588Y-79822200D01*
X141860588Y-79822200D02*
X141908207Y-79774580D01*
X141908207Y-79774580D02*
X141908207Y-79441247D01*
X141908207Y-79441247D02*
X141717731Y-79441247D01*
X142336779Y-79869819D02*
X142336779Y-78869819D01*
X142336779Y-78869819D02*
X142908207Y-79869819D01*
X142908207Y-79869819D02*
X142908207Y-78869819D01*
X143384398Y-79869819D02*
X143384398Y-78869819D01*
X143384398Y-78869819D02*
X143622493Y-78869819D01*
X143622493Y-78869819D02*
X143765350Y-78917438D01*
X143765350Y-78917438D02*
X143860588Y-79012676D01*
X143860588Y-79012676D02*
X143908207Y-79107914D01*
X143908207Y-79107914D02*
X143955826Y-79298390D01*
X143955826Y-79298390D02*
X143955826Y-79441247D01*
X143955826Y-79441247D02*
X143908207Y-79631723D01*
X143908207Y-79631723D02*
X143860588Y-79726961D01*
X143860588Y-79726961D02*
X143765350Y-79822200D01*
X143765350Y-79822200D02*
X143622493Y-79869819D01*
X143622493Y-79869819D02*
X143384398Y-79869819D01*
X141241541Y-75869819D02*
X141860588Y-75869819D01*
X141860588Y-75869819D02*
X141527255Y-76250771D01*
X141527255Y-76250771D02*
X141670112Y-76250771D01*
X141670112Y-76250771D02*
X141765350Y-76298390D01*
X141765350Y-76298390D02*
X141812969Y-76346009D01*
X141812969Y-76346009D02*
X141860588Y-76441247D01*
X141860588Y-76441247D02*
X141860588Y-76679342D01*
X141860588Y-76679342D02*
X141812969Y-76774580D01*
X141812969Y-76774580D02*
X141765350Y-76822200D01*
X141765350Y-76822200D02*
X141670112Y-76869819D01*
X141670112Y-76869819D02*
X141384398Y-76869819D01*
X141384398Y-76869819D02*
X141289160Y-76822200D01*
X141289160Y-76822200D02*
X141241541Y-76774580D01*
X142146303Y-75869819D02*
X142479636Y-76869819D01*
X142479636Y-76869819D02*
X142812969Y-75869819D01*
X143051065Y-75869819D02*
X143670112Y-75869819D01*
X143670112Y-75869819D02*
X143336779Y-76250771D01*
X143336779Y-76250771D02*
X143479636Y-76250771D01*
X143479636Y-76250771D02*
X143574874Y-76298390D01*
X143574874Y-76298390D02*
X143622493Y-76346009D01*
X143622493Y-76346009D02*
X143670112Y-76441247D01*
X143670112Y-76441247D02*
X143670112Y-76679342D01*
X143670112Y-76679342D02*
X143622493Y-76774580D01*
X143622493Y-76774580D02*
X143574874Y-76822200D01*
X143574874Y-76822200D02*
X143479636Y-76869819D01*
X143479636Y-76869819D02*
X143193922Y-76869819D01*
X143193922Y-76869819D02*
X143098684Y-76822200D01*
X143098684Y-76822200D02*
X143051065Y-76774580D01*
X141336779Y-73869819D02*
X141336779Y-72869819D01*
X141336779Y-72869819D02*
X141574874Y-72869819D01*
X141574874Y-72869819D02*
X141717731Y-72917438D01*
X141717731Y-72917438D02*
X141812969Y-73012676D01*
X141812969Y-73012676D02*
X141860588Y-73107914D01*
X141860588Y-73107914D02*
X141908207Y-73298390D01*
X141908207Y-73298390D02*
X141908207Y-73441247D01*
X141908207Y-73441247D02*
X141860588Y-73631723D01*
X141860588Y-73631723D02*
X141812969Y-73726961D01*
X141812969Y-73726961D02*
X141717731Y-73822200D01*
X141717731Y-73822200D02*
X141574874Y-73869819D01*
X141574874Y-73869819D02*
X141336779Y-73869819D01*
X142336779Y-73869819D02*
X142336779Y-72869819D01*
X142812969Y-73869819D02*
X142812969Y-72869819D01*
X142812969Y-72869819D02*
X143384397Y-73869819D01*
X143384397Y-73869819D02*
X143384397Y-72869819D01*
X141860588Y-69917438D02*
X141765350Y-69869819D01*
X141765350Y-69869819D02*
X141622493Y-69869819D01*
X141622493Y-69869819D02*
X141479636Y-69917438D01*
X141479636Y-69917438D02*
X141384398Y-70012676D01*
X141384398Y-70012676D02*
X141336779Y-70107914D01*
X141336779Y-70107914D02*
X141289160Y-70298390D01*
X141289160Y-70298390D02*
X141289160Y-70441247D01*
X141289160Y-70441247D02*
X141336779Y-70631723D01*
X141336779Y-70631723D02*
X141384398Y-70726961D01*
X141384398Y-70726961D02*
X141479636Y-70822200D01*
X141479636Y-70822200D02*
X141622493Y-70869819D01*
X141622493Y-70869819D02*
X141717731Y-70869819D01*
X141717731Y-70869819D02*
X141860588Y-70822200D01*
X141860588Y-70822200D02*
X141908207Y-70774580D01*
X141908207Y-70774580D02*
X141908207Y-70441247D01*
X141908207Y-70441247D02*
X141717731Y-70441247D01*
X142336779Y-70869819D02*
X142336779Y-69869819D01*
X142336779Y-69869819D02*
X142908207Y-70869819D01*
X142908207Y-70869819D02*
X142908207Y-69869819D01*
X143384398Y-70869819D02*
X143384398Y-69869819D01*
X143384398Y-69869819D02*
X143622493Y-69869819D01*
X143622493Y-69869819D02*
X143765350Y-69917438D01*
X143765350Y-69917438D02*
X143860588Y-70012676D01*
X143860588Y-70012676D02*
X143908207Y-70107914D01*
X143908207Y-70107914D02*
X143955826Y-70298390D01*
X143955826Y-70298390D02*
X143955826Y-70441247D01*
X143955826Y-70441247D02*
X143908207Y-70631723D01*
X143908207Y-70631723D02*
X143860588Y-70726961D01*
X143860588Y-70726961D02*
X143765350Y-70822200D01*
X143765350Y-70822200D02*
X143622493Y-70869819D01*
X143622493Y-70869819D02*
X143384398Y-70869819D01*
D11*
X117778095Y-93707419D02*
X117778095Y-94516942D01*
X117778095Y-94516942D02*
X117825714Y-94612180D01*
X117825714Y-94612180D02*
X117873333Y-94659800D01*
X117873333Y-94659800D02*
X117968571Y-94707419D01*
X117968571Y-94707419D02*
X118159047Y-94707419D01*
X118159047Y-94707419D02*
X118254285Y-94659800D01*
X118254285Y-94659800D02*
X118301904Y-94612180D01*
X118301904Y-94612180D02*
X118349523Y-94516942D01*
X118349523Y-94516942D02*
X118349523Y-93707419D01*
X118778095Y-93802657D02*
X118825714Y-93755038D01*
X118825714Y-93755038D02*
X118920952Y-93707419D01*
X118920952Y-93707419D02*
X119159047Y-93707419D01*
X119159047Y-93707419D02*
X119254285Y-93755038D01*
X119254285Y-93755038D02*
X119301904Y-93802657D01*
X119301904Y-93802657D02*
X119349523Y-93897895D01*
X119349523Y-93897895D02*
X119349523Y-93993133D01*
X119349523Y-93993133D02*
X119301904Y-94135990D01*
X119301904Y-94135990D02*
X118730476Y-94707419D01*
X118730476Y-94707419D02*
X119349523Y-94707419D01*
X117698095Y-73707419D02*
X117698095Y-74516942D01*
X117698095Y-74516942D02*
X117745714Y-74612180D01*
X117745714Y-74612180D02*
X117793333Y-74659800D01*
X117793333Y-74659800D02*
X117888571Y-74707419D01*
X117888571Y-74707419D02*
X118079047Y-74707419D01*
X118079047Y-74707419D02*
X118174285Y-74659800D01*
X118174285Y-74659800D02*
X118221904Y-74612180D01*
X118221904Y-74612180D02*
X118269523Y-74516942D01*
X118269523Y-74516942D02*
X118269523Y-73707419D01*
X119269523Y-74707419D02*
X118698095Y-74707419D01*
X118983809Y-74707419D02*
X118983809Y-73707419D01*
X118983809Y-73707419D02*
X118888571Y-73850276D01*
X118888571Y-73850276D02*
X118793333Y-73945514D01*
X118793333Y-73945514D02*
X118698095Y-73993133D01*
M02*
