<?xml version="1.0" encoding="UTF-8" standalone="no"?>
<!-- Created with Inkscape (http://www.inkscape.org/) -->

<svg
   width="210mm"
   height="297mm"
   viewBox="0 0 210 297"
   version="1.1"
   id="svg5"
   xml:space="preserve"
   inkscape:version="1.2.2 (732a01da63, 2022-12-09)"
   sodipodi:docname="Cassette_SAO_Edge_Cuts.svg"
   xmlns:inkscape="http://www.inkscape.org/namespaces/inkscape"
   xmlns:sodipodi="http://sodipodi.sourceforge.net/DTD/sodipodi-0.dtd"
   xmlns="http://www.w3.org/2000/svg"
   xmlns:svg="http://www.w3.org/2000/svg"><sodipodi:namedview
     id="namedview7"
     pagecolor="#ffffff"
     bordercolor="#000000"
     borderopacity="0.25"
     inkscape:showpageshadow="2"
     inkscape:pageopacity="0.0"
     inkscape:pagecheckerboard="0"
     inkscape:deskcolor="#d1d1d1"
     inkscape:document-units="mm"
     showgrid="false"
     inkscape:zoom="3.659624"
     inkscape:cx="332.54782"
     inkscape:cy="452.77875"
     inkscape:window-width="3440"
     inkscape:window-height="1379"
     inkscape:window-x="-8"
     inkscape:window-y="30"
     inkscape:window-maximized="1"
     inkscape:current-layer="layer1" /><defs
     id="defs2" /><g
     inkscape:label="Layer 1"
     inkscape:groupmode="layer"
     id="layer1"><path
       style="fill:#000000;stroke-width:0.100994"
       d="m 62.567889,144.8384 c -0.149259,-0.15579 -0.27138,-0.33758 -0.27138,-0.40397 0,-0.0917 -1.008219,-0.12072 -4.192623,-0.12072 -4.382913,0 -4.345432,0.003 -4.874199,-0.44928 -0.433019,-0.37075 -0.527611,-0.71849 -0.527611,-1.9396 0,-0.87157 -0.03136,-1.14591 -0.130995,-1.14591 -0.07205,0 -0.299284,-0.17234 -0.50497,-0.38299 l -0.373976,-0.38298 v -5.45417 -5.45417 l 0.382986,-0.37398 c 0.210642,-0.20569 0.437879,-0.37398 0.50497,-0.37398 0.09461,0 0.121985,-2.60299 0.121985,-11.59866 0,-11.4704 0.0022,-11.60068 0.201988,-11.78146 0.111093,-0.10054 0.201988,-0.23688 0.201988,-0.30298 0,-0.18541 0.344983,-0.45447 0.582707,-0.45447 0.117329,0 0.241412,-0.0455 0.275742,-0.101 0.100456,-0.16254 60.079199,-0.13757 60.370559,0.0251 0.44367,0.24776 0.98332,0.82391 0.98332,1.04984 0,0.12432 0.0455,0.25412 0.101,0.28845 0.0664,0.041 0.10099,3.96761 0.10099,11.45117 v 11.38876 l 0.22724,0.20455 c 0.12498,0.1125 0.30677,0.23261 0.40398,0.26692 0.16549,0.0584 0.17673,0.42444 0.17673,5.75281 v 5.69044 l -0.28326,0.27138 c -0.15579,0.14926 -0.33758,0.27138 -0.40397,0.27138 -0.0856,0 -0.12338,0.31608 -0.12987,1.08569 -0.008,0.97402 -0.0368,1.13673 -0.27774,1.58197 -0.48028,0.88746 -0.32865,0.86116 -5.14027,0.89127 -4.19222,0.0262 -4.21235,0.0274 -4.31975,0.24282 -0.0593,0.11906 -0.16849,0.28949 -0.24256,0.37873 -0.12289,0.14808 -1.99437,0.16226 -21.413149,0.16226 H 62.83927 Z m 42.904541,-0.18569 c 0.28505,-0.57177 0.0236,-0.54099 4.59509,-0.54099 4.75702,0 4.60859,0.0225 5.00374,-0.75802 0.20029,-0.39563 0.24528,-0.65436 0.26906,-1.54741 0.0261,-0.98059 0.0471,-1.08156 0.24503,-1.18005 0.57674,-0.28694 0.54099,0.10766 0.54099,-5.97009 v -5.59306 l -0.40398,-0.36497 -0.40398,-0.36497 v -11.39461 c 0,-7.48747 -0.0346,-11.41602 -0.10099,-11.45704 -0.0555,-0.0343 -0.10099,-0.16485 -0.10099,-0.29005 0,-0.22627 -0.34953,-0.60478 -0.78134,-0.84613 -0.29128,-0.16281 -60.270041,-0.18789 -60.370559,-0.0252 -0.03433,0.0555 -0.17478,0.10099 -0.312112,0.10099 -0.146712,0 -0.275421,0.0729 -0.312071,0.17674 -0.03431,0.0972 -0.146307,0.27036 -0.248887,0.38478 -0.178741,0.19938 -0.187581,0.69151 -0.212188,11.81333 l -0.02568,11.60528 -0.231023,0.11518 c -0.127062,0.0633 -0.342937,0.22031 -0.479722,0.34881 l -0.248699,0.23364 v 5.46897 5.46896 l 0.248699,0.23364 c 0.136785,0.12851 0.35266,0.28538 0.479722,0.34862 0.21837,0.10869 0.232582,0.17994 0.259494,1.30098 0.03169,1.31988 0.159848,1.6949 0.684411,2.00268 0.268081,0.15729 0.713594,0.17501 4.567226,0.18167 3.971872,0.007 4.274525,0.0197 4.332545,0.18412 0.03431,0.0972 0.154521,0.27911 0.267141,0.40421 l 0.204765,0.22748 21.213189,-0.0255 21.213199,-0.0255 z"
       id="path2365" /></g></svg>
