<?xml version="1.0" encoding="UTF-8" standalone="no"?>
<!-- Created with Inkscape (http://www.inkscape.org/) -->

<svg
   width="80mm"
   height="50mm"
   viewBox="0 0 80 50"
   version="1.1"
   id="svg1"
   inkscape:version="1.3.2 (091e20e, 2023-11-25, custom)"
   sodipodi:docname="Cassette_SAO.svg"
   xml:space="preserve"
   xmlns:inkscape="http://www.inkscape.org/namespaces/inkscape"
   xmlns:sodipodi="http://sodipodi.sourceforge.net/DTD/sodipodi-0.dtd"
   xmlns="http://www.w3.org/2000/svg"
   xmlns:svg="http://www.w3.org/2000/svg"><sodipodi:namedview
     id="namedview1"
     pagecolor="#ffffff"
     bordercolor="#000000"
     borderopacity="0.25"
     inkscape:showpageshadow="2"
     inkscape:pageopacity="0.0"
     inkscape:pagecheckerboard="0"
     inkscape:deskcolor="#d1d1d1"
     inkscape:document-units="mm"
     inkscape:zoom="3.2693745"
     inkscape:cx="131.67657"
     inkscape:cy="79.067113"
     inkscape:window-width="1920"
     inkscape:window-height="1133"
     inkscape:window-x="-9"
     inkscape:window-y="29"
     inkscape:window-maximized="1"
     inkscape:current-layer="layer1" /><defs
     id="defs1" /><g
     inkscape:label="Layer 1"
     inkscape:groupmode="layer"
     id="layer1"><path
       style="fill:#000000"
       d="M 15.145881,49.847115 C 14.57299,49.762495 13.93799,49.475339 13.73477,49.208999 13.456022,48.843672 12.022378,48.699503 7.8972233,48.621968 L 2.4291673,48.519191 2.3196463,46.79458 c -0.07964,-1.254057 -0.320274,-1.900569 -0.881944,-2.369513 -0.53814102,-0.449298 -0.61727302,-0.648462 -0.260896,-0.656639 0.397855,-0.0091 0.417454,-0.105811 0.08819,-0.43507 -0.29923502,-0.299236 -0.42333302,-2.367531 -0.42333302,-7.055556 0,-6.576082 0.04458,-6.839223 1.13162802,-6.678965 0.137326,0.02025 0.259617,-6.490088 0.271758,-14.467408 0.01214,-7.9773199 0.106661,-14.64108294 0.210046,-14.80836194 0.103384,-0.16728 17.0022067,-0.304222 37.5529397,-0.304318 36.255203,-1.67e-4 37.375548,0.01959 37.721156,0.66537 0.221613,0.41408604 0.3647,6.00902604 0.378717,14.80842794 0.01728,10.84542 0.121796,14.123506 0.448281,14.059765 0.31912,-0.0623 0.449666,1.761247 0.521237,7.28099 0.08272,6.379897 0.02093,7.418629 -0.46237,7.772025 -0.311571,0.227826 -0.569082,0.948205 -0.583285,1.631722 -0.04945,2.379779 -0.06912,2.388029 -5.815973,2.439415 -2.853884,0.02552 -5.371106,0.197631 -5.593827,0.382474 -0.222722,0.184842 -0.517795,0.22323 -0.655718,0.08531 -0.137923,-0.137924 -0.14602,0.0222 -0.01799,0.355838 0.218888,0.570412 -1.258759,0.603454 -24.763994,0.553751 -13.748223,-0.02907 -25.465499,-0.122095 -26.03839,-0.206719 z m -2.162158,-1.81915 c 0.514677,-0.201715 0.904387,-1.190974 1.627063,-4.130216 0.522657,-2.125734 1.062243,-4.217715 1.199079,-4.648847 0.139016,-0.438003 0.09952,-0.783877 -0.08951,-0.783877 -0.186069,0 -0.44528,0.436562 -0.576024,0.970138 -0.130745,0.533577 -0.715907,2.517952 -1.300361,4.409723 -1.061111,3.434625 -1.064308,3.439583 -2.218221,3.439583 -2.2718797,0 -5.4698337,0.456683 -5.2855837,0.754806 0.228102,0.369077 5.6967577,0.359767 6.6435617,-0.01131 z m 7.887782,-0.234333 c 1.483349,-1.038978 0.772015,-2.960776 -1.17501,-3.174506 -1.850446,-0.203127 -2.484345,2.669558 -0.743943,3.371382 1.044371,0.421146 1.03527,0.42208 1.918953,-0.196876 z m 40.92662,0.230313 c -0.02085,-0.11567 0.08009,-0.478849 0.224315,-0.807064 0.434026,-0.987704 0.07532,-1.839627 -0.989468,-2.349966 -0.929631,-0.44556 -1.074387,-0.415273 -1.883805,0.394145 -0.784618,0.784618 -0.828039,0.964879 -0.413032,1.714685 0.255069,0.46084 0.438176,0.93253 0.406905,1.0482 -0.03127,0.115671 0.56186,0.21031 1.318071,0.21031 0.756211,0 1.357867,-0.09464 1.337014,-0.21031 z m 12.080986,-0.01876 c -0.284198,-0.17975 -1.896153,-0.434729 -3.582124,-0.56662 l -3.065401,-0.239802 -0.421098,-1.632839 c -0.231604,-0.898062 -0.511767,-1.870965 -0.622583,-2.162007 -0.110817,-0.291041 -0.455322,-1.46938 -0.765567,-2.618531 -0.310245,-1.149151 -0.749627,-2.151213 -0.976405,-2.226806 -0.301597,-0.100532 -0.321139,0.128976 -0.07277,0.854643 0.186754,0.545646 0.724114,2.64452 1.194134,4.664165 0.47002,2.019644 1.061223,3.803151 1.313783,3.963348 0.25256,0.160196 2.0467,0.291266 3.986978,0.291266 2.301696,0 3.34819,-0.113585 3.011055,-0.326817 z M 5.0378913,47.505572 c 0.826229,-0.995545 -0.781508,-2.436374 -1.69703,-1.520852 -0.426698,0.426698 -0.508463,1.408998 -0.147342,1.770119 0.398694,0.398694 1.421314,0.260487 1.844372,-0.249267 z m 72.5012847,-0.08943 c 0.121121,-0.315634 0.06011,-0.766803 -0.135584,-1.002598 -0.195692,-0.235794 -0.272312,-0.512209 -0.170266,-0.614255 0.102046,-0.102046 -0.211983,-0.109547 -0.697842,-0.01667 -1.86634,0.356773 -2.033489,2.207403 -0.199373,2.207403 0.582242,0 1.072607,-0.233912 1.203065,-0.57388 z M 65.007573,45.489485 c -0.217702,-1.050051 -0.452409,-2.306058 -0.521571,-2.791127 -0.304268,-2.133975 -0.950138,-4.293946 -1.327236,-4.438652 -0.903032,-0.346526 -46.325036,-0.31818 -46.357204,0.02893 -0.01798,0.194027 -0.441313,1.939908 -0.940738,3.879734 -0.499425,1.939825 -0.891883,3.9242 -0.872129,4.409722 0.03238,0.795842 0.871753,-1.624006 2.051868,-5.915371 l 0.414275,-1.50647 22.649665,0.09536 c 17.891089,0.07532 22.631135,0.188005 22.561469,0.536331 -0.04851,0.242535 0.07056,0.440972 0.264584,0.440972 0.194027,0 0.352777,0.389406 0.352777,0.865346 0,0.475939 0.140552,1.230002 0.312337,1.675694 0.171785,0.445692 0.58117,1.737111 0.909743,2.86982 0.734601,2.532431 1.03944,2.441198 0.50216,-0.150289 z m -32.12691,-0.109386 c 0.133621,-1.631828 -0.251307,-1.963299 -2.288615,-1.970784 -2.145009,-0.0079 -2.586492,0.256565 -2.586492,1.549286 0,1.633113 0.573162,2.019325 2.819634,1.899946 l 1.942866,-0.103245 z M 51.93032,45.58573 c 0.159161,-1.658138 -0.425552,-2.181817 -2.436103,-2.181817 -1.97715,0 -2.642247,0.739431 -2.25421,2.506151 0.229671,1.045686 0.247863,1.052868 2.404735,0.949448 l 2.173314,-0.10421 z M 2.4194543,33.88789 c -0.172606,-2.247008 -0.351646,-3.126601 -0.540385,-2.65481 -0.354208,0.885415 -0.410765,10.274828 -0.06906,11.465278 0.434572,1.51399 0.893211,-5.116342 0.609445,-8.810468 z m 39.2259997,8.146408 c 0.128697,-0.843298 -0.664318,-1.536213 -1.424351,-1.244561 -0.676138,0.259458 -0.767539,0.847915 -0.132908,0.85569 0.295955,0.0036 0.266952,0.121843 -0.08819,0.359481 -0.45791,0.306401 -0.436711,0.424611 0.157429,0.877864 0.763102,0.58215 1.317981,0.265757 1.488025,-0.848474 z m 37.133952,-5.019341 c 0.01438,-1.670663 -0.08295,-3.813788 -0.216295,-4.7625 -0.390229,-2.776389 -0.740755,-0.686955 -0.775907,4.625068 -0.03443,5.203683 0.298686,7.418278 0.716377,4.7625 0.137322,-0.873125 0.261444,-2.954406 0.275825,-4.625068 z M 76.326278,24.048228 c 0.01625,-6.217004 -0.111244,-10.880439 -0.303806,-11.1125 -0.245042,-0.295309 -9.725842,-0.353746 -36.257,-0.223481 l -35.9251937,0.176389 -0.07413,10.936111 -0.07413,10.936111 H 39.995147 76.298276 Z M 6.8703873,28.85183 c 0.970809,-2.764896 2.324977,-6.682223 3.009261,-8.705172 0.6842847,-2.022949 1.7164247,-4.364511 2.2936457,-5.203472 l 1.049491,-1.525384 h 11.054979 11.054979 l 0.649244,0.970139 c 2.615985,3.90896 3.599949,9.401207 2.259469,12.611806 -1.09826,2.630457 -1.918812,4.096908 -2.925705,5.228688 l -1.154507,1.297701 H 24.317477 14.47371 l -1.194564,-1.30416 c -0.70788,-0.772825 -1.129602,-1.55257 -1.035117,-1.913883 0.101633,-0.388642 -0.0027,-0.547502 -0.287747,-0.43812 -0.617075,0.236794 -2.2282597,-4.139947 -2.2903287,-6.221615 -0.039,-1.307942 -0.383244,-0.534359 -2.315551,5.203472 -0.931124,2.764896 -1.817191,5.027083 -1.969038,5.027083 -0.151847,0 0.518213,-2.262187 1.489023,-5.027083 z m 21.1788997,2.765089 c 0.605166,-0.301897 1.223134,-0.472988 1.373264,-0.380203 0.150129,0.09279 0.367851,-0.07857 0.483826,-0.3808 0.117927,-0.307312 0.391468,-0.43788 0.620639,-0.296244 0.23371,0.14444 0.31524,0.100293 0.189753,-0.102749 -0.121013,-0.195803 0.182214,-0.733888 0.673837,-1.195744 1.820502,-1.710273 2.458004,-4.61186 1.910386,-8.695122 -0.14521,-1.082744 -2.778129,-4.607087 -2.81095,-3.76265 -0.0083,0.212847 0.301351,0.751798 0.688053,1.197668 0.386701,0.445871 0.862066,1.382974 1.056366,2.082451 0.567678,2.043637 0.377466,2.125609 -0.377432,0.162653 -0.880584,-2.289773 -2.09855,-3.525223 -4.557028,-4.622441 -2.19378,-0.979084 -4.338502,-0.969224 -6.33978,0.02915 -0.647325,0.322928 -1.417147,0.587142 -1.710717,0.587142 -0.293569,0 -0.437489,0.09627 -0.319821,0.213941 0.117668,0.117668 -0.113929,0.554231 -0.51466,0.970139 -0.400731,0.415909 -1.097867,1.549947 -1.549192,2.520086 -0.649605,1.396348 -0.778837,2.13143 -0.620208,3.527778 0.110211,0.970139 0.221595,2.105917 0.24752,2.523952 0.02592,0.418034 0.154769,0.693541 0.28632,0.612238 0.131552,-0.0813 0.331816,0.14403 0.445031,0.500741 0.289829,0.91317 1.916137,2.396425 3.562338,3.248989 0.77694,0.402375 1.006126,0.617129 0.515946,0.483457 -0.485069,-0.13228 -1.492255,-0.625651 -2.238191,-1.096381 -1.643807,-1.03734 -2.003661,-0.885328 -0.670046,0.283046 2.64821,2.320086 6.814599,3.00576 9.654746,1.588908 z m -4.182156,-0.451922 c 0.343242,-0.08944 0.819492,-0.08356 1.058334,0.01307 0.238842,0.09663 -0.04199,0.169816 -0.624075,0.162626 -0.582084,-0.0072 -0.7775,-0.08625 -0.434259,-0.175698 z m 5.207844,-1.431222 c 0.0061,-0.145521 0.44266,-0.569336 0.970139,-0.941811 l 0.959053,-0.677226 -0.855244,0.94181 c -0.898717,0.989683 -1.09215,1.111661 -1.073948,0.677227 z M 22.29425,27.995399 c -0.331449,-0.08743 -0.644648,-0.578215 -0.705556,-1.105605 -0.08472,-0.733571 -0.301861,-0.950163 -0.958679,-0.956252 -0.513996,-0.0048 -0.956739,-0.283245 -1.121733,-0.705556 -0.406256,-1.039834 -0.374702,-1.22685 0.206996,-1.22685 0.32926,0 0.529167,-0.333179 0.529167,-0.881945 0,-0.548765 -0.199907,-0.881944 -0.529167,-0.881944 -0.624718,0 -0.630853,-0.03939 -0.187682,-1.205019 0.19802,-0.52083 0.535744,-0.823627 0.803873,-0.720737 0.254313,0.09759 0.775333,-0.06118 1.157821,-0.352812 0.586434,-0.447139 0.615378,-0.582791 0.184664,-0.86549 -0.409843,-0.269002 -0.310819,-0.426347 0.501152,-0.796305 0.796857,-0.363073 1.042866,-0.368224 1.157528,-0.02424 0.189275,0.567827 1.748236,0.567827 1.937511,0 0.115341,-0.346023 0.348907,-0.344195 1.12363,0.0088 0.831067,0.378659 0.909777,0.527846 0.523836,0.992877 -0.373075,0.449528 -0.363736,0.606279 0.0523,0.877739 0.278565,0.181763 0.786373,0.263357 1.128461,0.181321 0.357827,-0.08581 0.76984,0.127125 0.970139,0.501387 0.493829,0.922728 0.431911,1.402484 -0.181006,1.402484 -0.296707,0 -0.529167,0.31481 -0.529167,0.716627 0,0.394145 0.238125,0.808005 0.529167,0.919688 0.682301,0.261824 0.683576,1.148798 0.002,1.410334 -0.289927,0.111255 -0.440432,0.342579 -0.334456,0.514053 0.105977,0.171475 -0.05571,0.216455 -0.359296,0.09996 -0.30359,-0.116498 -0.781131,-0.02164 -1.061203,0.210801 -0.280071,0.232438 -0.714612,0.315798 -0.965646,0.185243 -0.251034,-0.130555 -0.09553,0.0577 0.345573,0.418341 l 0.801998,0.655713 -1.066582,0.402589 c -0.937461,0.353852 -1.066581,0.326807 -1.066581,-0.223402 0,-0.477497 -0.20921,-0.585998 -0.881944,-0.457397 -0.48507,0.09273 -0.881945,0.388213 -0.881945,0.656635 0,0.500038 -0.09431,0.520905 -1.125195,0.248971 z m 9.195504,-1.30752 c 0.315011,-0.656597 0.633802,-1.137938 0.708426,-1.069645 0.211327,0.193397 -0.717686,2.263457 -1.015808,2.263457 -0.14595,0 -0.0076,-0.537215 0.307382,-1.193812 z m 0.776986,-2.186975 c 0.01693,-0.410966 0.100521,-0.494559 0.213137,-0.213136 0.101907,0.254661 0.08937,0.558932 -0.02785,0.676157 -0.117225,0.117225 -0.200604,-0.09113 -0.185287,-0.463021 z m 0.380629,-1.558102 c 0,-0.485069 0.08007,-0.683507 0.177936,-0.440972 0.09786,0.242535 0.09786,0.63941 0,0.881945 -0.09786,0.242534 -0.177936,0.0441 -0.177936,-0.440973 z m 40.86652,9.525 c -0.415127,-0.813715 -0.675401,-1.558858 -0.578387,-1.655872 0.09701,-0.09701 0.516038,0.489379 0.931165,1.303095 0.415126,0.813715 0.675401,1.558858 0.578387,1.655872 -0.09701,0.09701 -0.516038,-0.489379 -0.931165,-1.303095 z M 48.875366,31.921918 c -1.006315,-0.904763 -2.190356,-2.434215 -2.715633,-3.507843 -1.097208,-2.242612 -1.624228,-6.173461 -0.828868,-6.18223 0.367387,-0.0041 0.38224,-0.07385 0.05937,-0.278992 -0.52116,-0.331129 0.06335,-2.691218 0.916669,-3.701281 0.294722,-0.348857 0.573227,-0.904482 0.618899,-1.234722 0.04567,-0.33024 0.823285,-1.275124 1.728027,-2.099742 l 1.644985,-1.499306 h 6.290672 c 4.792317,0 6.40344,0.11277 6.764121,0.473451 0.260398,0.260398 0.827362,0.662858 1.259921,0.894356 0.432558,0.231499 0.78647,0.653446 0.78647,0.937661 0,0.284215 0.144622,0.516755 0.321382,0.516755 0.573518,0 3.431769,6.071537 2.941812,6.24904 -0.247134,0.08953 -0.440972,0.747616 -0.440972,1.497115 0,1.57328 -0.811353,4.051705 -1.577057,4.81741 -0.296785,0.296785 -0.539609,0.766395 -0.539609,1.043577 0,0.277183 -0.140235,0.503969 -0.311633,0.503969 -0.171398,0 -0.394452,0.316698 -0.495674,0.703775 -0.101223,0.387076 -0.476926,0.815623 -0.834895,0.952327 -0.35797,0.136704 -0.958601,0.53438 -1.334735,0.883725 -0.601938,0.559065 -1.389937,0.635173 -6.576429,0.635173 h -5.892548 z m 10.351023,0.09115 c 2.085486,-0.656224 3.510862,-1.506742 4.504855,-2.688035 0.486602,-0.578293 1.007213,-0.941183 1.156914,-0.80642 0.1497,0.134762 0.160868,0.05125 0.02482,-0.18559 -0.136051,-0.236837 -0.0028,-0.903641 0.296218,-1.481787 0.744927,-1.440529 0.721041,-5.55242 -0.04134,-7.117429 -1.012836,-2.079129 -1.935488,-3.196933 -2.469615,-2.991969 -0.277832,0.106614 -1.298698,-0.221091 -2.26859,-0.728234 -0.969893,-0.507143 -2.43115,-0.995668 -3.247238,-1.085611 -2.093084,-0.230683 -5.05165,0.957798 -6.773246,2.720872 -0.759071,0.777359 -1.249098,1.413381 -1.088949,1.413381 0.160149,0 0.117814,0.208893 -0.09408,0.464206 -0.634849,0.764946 -0.872746,4.156528 -0.41285,5.885794 0.307939,1.157888 0.941934,2.093795 2.342736,3.45836 1.056299,1.028973 1.558004,1.678741 1.1149,1.443928 -0.443104,-0.234813 -1.084462,-0.744964 -1.425242,-1.133669 -0.340779,-0.388705 -0.726081,-0.600254 -0.856226,-0.470109 -0.448033,0.448033 1.787353,2.347074 3.570249,3.033056 2.095157,0.806126 3.715784,0.883131 5.666687,0.269256 z M 55.26249,31.156322 c 0.536244,-0.08109 1.329994,-0.07892 1.763889,0.0048 0.433894,0.08374 -0.0049,0.15008 -0.97499,0.147432 -0.970139,-0.0026 -1.325144,-0.07116 -0.788899,-0.152248 z m 4.493066,-0.591054 c 0,-0.07625 0.24637,-0.233187 0.547489,-0.348737 0.313946,-0.120472 0.45555,-0.06133 0.331958,0.138646 -0.207172,0.33521 -0.879447,0.49581 -0.879447,0.210091 z M 62.225,28.831362 c 0.679097,-0.712214 1.283412,-1.296626 1.342921,-1.298692 0.305852,-0.01062 -1.036713,1.547536 -1.75156,2.032825 -0.51298,0.348247 -0.358097,0.07 0.408639,-0.734133 z m -7.584722,-0.945594 c -0.424021,-0.153292 -0.705556,-0.575282 -0.705556,-1.057551 0,-0.514746 -0.291015,-0.91076 -0.811632,-1.104472 -0.518269,-0.192838 -0.733888,-0.176199 -0.596541,0.04603 0.1183,0.191414 0.0625,0.348025 -0.123996,0.348025 -0.186498,0 -0.505109,-0.47625 -0.708024,-1.058333 -0.299282,-0.85852 -0.272495,-1.058333 0.141878,-1.058333 0.309685,0 0.510815,-0.347261 0.510815,-0.881945 0,-0.548765 -0.199907,-0.881944 -0.529166,-0.881944 -0.637325,0 -0.643628,-0.06837 -0.113552,-1.231754 0.260961,-0.572748 0.605777,-0.839202 0.926658,-0.716068 0.723171,0.277507 1.533507,-0.502679 1.296783,-1.248532 -0.136737,-0.430821 0.03181,-0.700585 0.538131,-0.861285 0.839832,-0.266552 1.874682,0.41443 1.514764,0.99679 -0.131544,0.212842 0.357579,0.0349 1.086938,-0.395438 1.207465,-0.712422 1.394045,-0.734839 2.085439,-0.250568 0.417631,0.29252 0.582241,0.531855 0.365799,0.531855 -0.216441,0 -0.48807,0.24637 -0.603621,0.547489 -0.11555,0.301119 -0.06413,0.45728 0.11427,0.347023 0.178398,-0.110256 0.428065,-0.03267 0.554814,0.172417 0.12675,0.205085 0.499908,0.287361 0.82924,0.182835 0.425533,-0.135059 0.711001,0.107246 0.986619,0.837439 0.337294,0.893595 0.301368,1.050098 -0.275697,1.201004 -0.857094,0.224135 -0.860496,1.31245 -0.0048,1.536219 0.559673,0.146357 0.599458,0.298221 0.264583,1.009927 -0.231036,0.491018 -0.759115,0.880529 -1.276088,0.94124 -0.663473,0.07792 -0.883936,0.312771 -0.889986,0.948081 -0.0095,1.00237 -1.396784,1.727873 -1.715543,0.8972 -0.247052,-0.643806 -1.503071,-0.660309 -1.874858,-0.02463 -0.18063,0.308839 -0.535918,0.390597 -0.987668,0.22728 z m 9.757091,-2.826299 c 0,-0.485069 0.08007,-0.683507 0.177936,-0.440972 0.09786,0.242535 0.09786,0.63941 0,0.881944 -0.09786,0.242535 -0.177936,0.0441 -0.177936,-0.440972 z m 0.365849,-1.940278 c 0.0072,-0.582083 0.08625,-0.777499 0.175698,-0.434258 0.08944,0.343241 0.08356,0.819491 -0.01307,1.058333 -0.09663,0.238842 -0.169815,-0.04199 -0.162626,-0.624075 z M 64.41044,21.002525 c 0.0072,-0.582084 0.08625,-0.7775 0.175698,-0.434259 0.08944,0.343242 0.08356,0.819492 -0.01307,1.058334 -0.09663,0.238842 -0.169816,-0.04199 -0.162628,-0.624075 z M 63.1775,18.286136 c -0.341964,-0.595838 -0.549126,-1.155967 -0.460361,-1.244732 0.08877,-0.08876 0.422928,0.344364 0.742583,0.96251 0.755712,1.461384 0.526229,1.690867 -0.282222,0.282222 z m 9.160463,11.829815 c -0.129352,-0.129352 -0.235185,-0.512998 -0.235185,-0.852547 0,-0.339548 -0.124899,-0.670278 -0.277553,-0.734953 -0.152654,-0.06468 -0.747967,-1.068128 -1.322917,-2.229893 -1.367621,-2.763465 -1.376554,-2.787512 -0.933835,-2.513897 0.461172,0.28502 3.372322,6.198828 3.157302,6.413848 -0.08394,0.08394 -0.25846,0.04679 -0.387812,-0.08256 z M 40.138191,23.648358 c 0,-2.619375 0.05553,-3.690938 0.123412,-2.38125 0.06788,1.309687 0.06788,3.452812 0,4.7625 -0.06788,1.309687 -0.123412,0.238125 -0.123412,-2.38125 z M 74.219444,6.1715541 c 0,-2.564153 -0.145111,-4.046641 -0.423333,-4.324863 -0.576733,-0.576733 -66.3040387,-0.616809 -67.2265917,-0.04099 -0.52702,0.328944 -0.605201,0.925091 -0.559784,4.268484 0.02903,2.137378 0.194903,4.0282549 0.368596,4.2019479 0.450204,0.450204 66.4331497,0.593895 67.2237517,0.146393 0.529684,-0.299815 0.617361,-0.9035359 0.617361,-4.2509719 z M 5.2011003,2.4104171 c 0.207962,-0.330242 0.265638,-0.712915 0.128169,-0.850383 -0.27921,-0.279211 -1.665379,0.848598 -1.665379,1.354978 0,0.520441 1.124078,0.151458 1.53721,-0.504595 z m 72.0169547,0.506844 c 0.194028,-0.142549 0.399018,-0.59614 0.455532,-1.007979 0.114683,-0.835726 -1.178356,-1.40992904 -1.874318,-0.832332 -0.252067,0.209197 -0.577563,0.171582 -0.890941,-0.10295804 -0.271576,-0.237918 -0.195569,-0.07539 0.168903,0.36117104 0.445351,0.533438 0.514885,0.79375 0.212027,0.79375 -0.360579,0 -0.362873,0.105764 -0.01148,0.529167 0.468766,0.564828 1.361871,0.684129 1.940277,0.259181 z M 4.1950143,1.7739731 C 4.9455393,0.94465106 4.7254853,0.55725406 3.6904753,0.88575306 3.2821873,1.0153391 2.9583343,1.4197031 2.9583343,1.7999081 c 0,0.875041 0.429458,0.866035 1.23668,-0.02593 z"
       id="path1" /></g></svg>
